%TF.GenerationSoftware,KiCad,Pcbnew,7.0.5-0*%
%TF.CreationDate,2023-06-16T23:12:03-07:00*%
%TF.ProjectId,Jumperless2,4a756d70-6572-46c6-9573-73322e6b6963,rev?*%
%TF.SameCoordinates,Original*%
%TF.FileFunction,AssemblyDrawing,Bot*%
%FSLAX46Y46*%
G04 Gerber Fmt 4.6, Leading zero omitted, Abs format (unit mm)*
G04 Created by KiCad (PCBNEW 7.0.5-0) date 2023-06-16 23:12:03*
%MOMM*%
%LPD*%
G01*
G04 APERTURE LIST*
%ADD10C,0.040000*%
%ADD11C,0.060000*%
%ADD12C,0.150000*%
%ADD13C,0.120000*%
%ADD14C,0.100000*%
%ADD15C,0.105000*%
G04 APERTURE END LIST*
D10*
X99149713Y-121077837D02*
X99166293Y-121074914D01*
X99166293Y-121074914D02*
X99196529Y-121052487D01*
X99196529Y-121052487D02*
X99210186Y-121032983D01*
X99210186Y-121032983D02*
X99220919Y-120996899D01*
X99220919Y-120996899D02*
X99215072Y-120963739D01*
X99215072Y-120963739D02*
X99202397Y-120940331D01*
X99202397Y-120940331D02*
X99170218Y-120903266D01*
X99170218Y-120903266D02*
X99140962Y-120882781D01*
X99140962Y-120882781D02*
X99095127Y-120865220D01*
X99095127Y-120865220D02*
X99068795Y-120861315D01*
X99068795Y-120861315D02*
X99035635Y-120867162D01*
X99035635Y-120867162D02*
X99005398Y-120889589D01*
X99005398Y-120889589D02*
X98991741Y-120909093D01*
X98991741Y-120909093D02*
X98981008Y-120945176D01*
X98981008Y-120945176D02*
X98983932Y-120961757D01*
X99032650Y-121286530D02*
X99114590Y-121169509D01*
X99073620Y-121228019D02*
X98868832Y-121084625D01*
X98868832Y-121084625D02*
X98911744Y-121085607D01*
X98911744Y-121085607D02*
X98944904Y-121079760D01*
X98944904Y-121079760D02*
X98968313Y-121067084D01*
X98792740Y-121234807D02*
X98776160Y-121237731D01*
X98776160Y-121237731D02*
X98752751Y-121250406D01*
X98752751Y-121250406D02*
X98718610Y-121299165D01*
X98718610Y-121299165D02*
X98714705Y-121325497D01*
X98714705Y-121325497D02*
X98717629Y-121342077D01*
X98717629Y-121342077D02*
X98730304Y-121365485D01*
X98730304Y-121365485D02*
X98749808Y-121379142D01*
X98749808Y-121379142D02*
X98785891Y-121389875D01*
X98785891Y-121389875D02*
X98984853Y-121354793D01*
X98984853Y-121354793D02*
X98896085Y-121481566D01*
D11*
X48358570Y-179042403D02*
X48491903Y-179042403D01*
X48491903Y-179251927D02*
X48491903Y-178851927D01*
X48491903Y-178851927D02*
X48301427Y-178851927D01*
X48149046Y-179251927D02*
X48149046Y-178851927D01*
X47958570Y-179251927D02*
X47958570Y-178851927D01*
X47958570Y-178851927D02*
X47863332Y-178851927D01*
X47863332Y-178851927D02*
X47806189Y-178870975D01*
X47806189Y-178870975D02*
X47768094Y-178909070D01*
X47768094Y-178909070D02*
X47749047Y-178947165D01*
X47749047Y-178947165D02*
X47729999Y-179023356D01*
X47729999Y-179023356D02*
X47729999Y-179080499D01*
X47729999Y-179080499D02*
X47749047Y-179156689D01*
X47749047Y-179156689D02*
X47768094Y-179194784D01*
X47768094Y-179194784D02*
X47806189Y-179232880D01*
X47806189Y-179232880D02*
X47863332Y-179251927D01*
X47863332Y-179251927D02*
X47958570Y-179251927D01*
X47577618Y-178890022D02*
X47558570Y-178870975D01*
X47558570Y-178870975D02*
X47520475Y-178851927D01*
X47520475Y-178851927D02*
X47425237Y-178851927D01*
X47425237Y-178851927D02*
X47387142Y-178870975D01*
X47387142Y-178870975D02*
X47368094Y-178890022D01*
X47368094Y-178890022D02*
X47349047Y-178928118D01*
X47349047Y-178928118D02*
X47349047Y-178966213D01*
X47349047Y-178966213D02*
X47368094Y-179023356D01*
X47368094Y-179023356D02*
X47596666Y-179251927D01*
X47596666Y-179251927D02*
X47349047Y-179251927D01*
D12*
X117390904Y-122972819D02*
X116819476Y-122972819D01*
X117105190Y-123972819D02*
X117105190Y-122972819D01*
X116486142Y-123972819D02*
X116486142Y-122972819D01*
X116486142Y-122972819D02*
X116105190Y-122972819D01*
X116105190Y-122972819D02*
X116009952Y-123020438D01*
X116009952Y-123020438D02*
X115962333Y-123068057D01*
X115962333Y-123068057D02*
X115914714Y-123163295D01*
X115914714Y-123163295D02*
X115914714Y-123306152D01*
X115914714Y-123306152D02*
X115962333Y-123401390D01*
X115962333Y-123401390D02*
X116009952Y-123449009D01*
X116009952Y-123449009D02*
X116105190Y-123496628D01*
X116105190Y-123496628D02*
X116486142Y-123496628D01*
X114962333Y-123972819D02*
X115533761Y-123972819D01*
X115248047Y-123972819D02*
X115248047Y-122972819D01*
X115248047Y-122972819D02*
X115343285Y-123115676D01*
X115343285Y-123115676D02*
X115438523Y-123210914D01*
X115438523Y-123210914D02*
X115533761Y-123258533D01*
D13*
X83269664Y-118446167D02*
X83307760Y-118408071D01*
X83307760Y-118408071D02*
X83345855Y-118293786D01*
X83345855Y-118293786D02*
X83345855Y-118217595D01*
X83345855Y-118217595D02*
X83307760Y-118103309D01*
X83307760Y-118103309D02*
X83231569Y-118027119D01*
X83231569Y-118027119D02*
X83155379Y-117989024D01*
X83155379Y-117989024D02*
X83002998Y-117950928D01*
X83002998Y-117950928D02*
X82888712Y-117950928D01*
X82888712Y-117950928D02*
X82736331Y-117989024D01*
X82736331Y-117989024D02*
X82660140Y-118027119D01*
X82660140Y-118027119D02*
X82583950Y-118103309D01*
X82583950Y-118103309D02*
X82545855Y-118217595D01*
X82545855Y-118217595D02*
X82545855Y-118293786D01*
X82545855Y-118293786D02*
X82583950Y-118408071D01*
X82583950Y-118408071D02*
X82622045Y-118446167D01*
X82545855Y-119131881D02*
X82545855Y-118979500D01*
X82545855Y-118979500D02*
X82583950Y-118903309D01*
X82583950Y-118903309D02*
X82622045Y-118865214D01*
X82622045Y-118865214D02*
X82736331Y-118789024D01*
X82736331Y-118789024D02*
X82888712Y-118750928D01*
X82888712Y-118750928D02*
X83193474Y-118750928D01*
X83193474Y-118750928D02*
X83269664Y-118789024D01*
X83269664Y-118789024D02*
X83307760Y-118827119D01*
X83307760Y-118827119D02*
X83345855Y-118903309D01*
X83345855Y-118903309D02*
X83345855Y-119055690D01*
X83345855Y-119055690D02*
X83307760Y-119131881D01*
X83307760Y-119131881D02*
X83269664Y-119169976D01*
X83269664Y-119169976D02*
X83193474Y-119208071D01*
X83193474Y-119208071D02*
X83002998Y-119208071D01*
X83002998Y-119208071D02*
X82926807Y-119169976D01*
X82926807Y-119169976D02*
X82888712Y-119131881D01*
X82888712Y-119131881D02*
X82850617Y-119055690D01*
X82850617Y-119055690D02*
X82850617Y-118903309D01*
X82850617Y-118903309D02*
X82888712Y-118827119D01*
X82888712Y-118827119D02*
X82926807Y-118789024D01*
X82926807Y-118789024D02*
X83002998Y-118750928D01*
D12*
X117390904Y-125004819D02*
X116819476Y-125004819D01*
X117105190Y-126004819D02*
X117105190Y-125004819D01*
X116486142Y-126004819D02*
X116486142Y-125004819D01*
X116486142Y-125004819D02*
X116105190Y-125004819D01*
X116105190Y-125004819D02*
X116009952Y-125052438D01*
X116009952Y-125052438D02*
X115962333Y-125100057D01*
X115962333Y-125100057D02*
X115914714Y-125195295D01*
X115914714Y-125195295D02*
X115914714Y-125338152D01*
X115914714Y-125338152D02*
X115962333Y-125433390D01*
X115962333Y-125433390D02*
X116009952Y-125481009D01*
X116009952Y-125481009D02*
X116105190Y-125528628D01*
X116105190Y-125528628D02*
X116486142Y-125528628D01*
X115533761Y-125100057D02*
X115486142Y-125052438D01*
X115486142Y-125052438D02*
X115390904Y-125004819D01*
X115390904Y-125004819D02*
X115152809Y-125004819D01*
X115152809Y-125004819D02*
X115057571Y-125052438D01*
X115057571Y-125052438D02*
X115009952Y-125100057D01*
X115009952Y-125100057D02*
X114962333Y-125195295D01*
X114962333Y-125195295D02*
X114962333Y-125290533D01*
X114962333Y-125290533D02*
X115009952Y-125433390D01*
X115009952Y-125433390D02*
X115581380Y-126004819D01*
X115581380Y-126004819D02*
X114962333Y-126004819D01*
D10*
X67733200Y-132293857D02*
X67609391Y-132207190D01*
X67733200Y-132145285D02*
X67473200Y-132145285D01*
X67473200Y-132145285D02*
X67473200Y-132244333D01*
X67473200Y-132244333D02*
X67485581Y-132269095D01*
X67485581Y-132269095D02*
X67497962Y-132281476D01*
X67497962Y-132281476D02*
X67522724Y-132293857D01*
X67522724Y-132293857D02*
X67559867Y-132293857D01*
X67559867Y-132293857D02*
X67584629Y-132281476D01*
X67584629Y-132281476D02*
X67597010Y-132269095D01*
X67597010Y-132269095D02*
X67609391Y-132244333D01*
X67609391Y-132244333D02*
X67609391Y-132145285D01*
X67497962Y-132392904D02*
X67485581Y-132405285D01*
X67485581Y-132405285D02*
X67473200Y-132430047D01*
X67473200Y-132430047D02*
X67473200Y-132491952D01*
X67473200Y-132491952D02*
X67485581Y-132516714D01*
X67485581Y-132516714D02*
X67497962Y-132529095D01*
X67497962Y-132529095D02*
X67522724Y-132541476D01*
X67522724Y-132541476D02*
X67547486Y-132541476D01*
X67547486Y-132541476D02*
X67584629Y-132529095D01*
X67584629Y-132529095D02*
X67733200Y-132380523D01*
X67733200Y-132380523D02*
X67733200Y-132541476D01*
X67473200Y-132628142D02*
X67473200Y-132801476D01*
X67473200Y-132801476D02*
X67733200Y-132690047D01*
X48556200Y-136228857D02*
X48432391Y-136142190D01*
X48556200Y-136080285D02*
X48296200Y-136080285D01*
X48296200Y-136080285D02*
X48296200Y-136179333D01*
X48296200Y-136179333D02*
X48308581Y-136204095D01*
X48308581Y-136204095D02*
X48320962Y-136216476D01*
X48320962Y-136216476D02*
X48345724Y-136228857D01*
X48345724Y-136228857D02*
X48382867Y-136228857D01*
X48382867Y-136228857D02*
X48407629Y-136216476D01*
X48407629Y-136216476D02*
X48420010Y-136204095D01*
X48420010Y-136204095D02*
X48432391Y-136179333D01*
X48432391Y-136179333D02*
X48432391Y-136080285D01*
X48556200Y-136476476D02*
X48556200Y-136327904D01*
X48556200Y-136402190D02*
X48296200Y-136402190D01*
X48296200Y-136402190D02*
X48333343Y-136377428D01*
X48333343Y-136377428D02*
X48358105Y-136352666D01*
X48358105Y-136352666D02*
X48370486Y-136327904D01*
X48296200Y-136699333D02*
X48296200Y-136649809D01*
X48296200Y-136649809D02*
X48308581Y-136625047D01*
X48308581Y-136625047D02*
X48320962Y-136612666D01*
X48320962Y-136612666D02*
X48358105Y-136587904D01*
X48358105Y-136587904D02*
X48407629Y-136575523D01*
X48407629Y-136575523D02*
X48506677Y-136575523D01*
X48506677Y-136575523D02*
X48531439Y-136587904D01*
X48531439Y-136587904D02*
X48543820Y-136600285D01*
X48543820Y-136600285D02*
X48556200Y-136625047D01*
X48556200Y-136625047D02*
X48556200Y-136674571D01*
X48556200Y-136674571D02*
X48543820Y-136699333D01*
X48543820Y-136699333D02*
X48531439Y-136711714D01*
X48531439Y-136711714D02*
X48506677Y-136724095D01*
X48506677Y-136724095D02*
X48444772Y-136724095D01*
X48444772Y-136724095D02*
X48420010Y-136711714D01*
X48420010Y-136711714D02*
X48407629Y-136699333D01*
X48407629Y-136699333D02*
X48395248Y-136674571D01*
X48395248Y-136674571D02*
X48395248Y-136625047D01*
X48395248Y-136625047D02*
X48407629Y-136600285D01*
X48407629Y-136600285D02*
X48420010Y-136587904D01*
X48420010Y-136587904D02*
X48444772Y-136575523D01*
D12*
X71824819Y-114575714D02*
X70824819Y-114575714D01*
X70824819Y-114575714D02*
X70824819Y-114813809D01*
X70824819Y-114813809D02*
X70872438Y-114956666D01*
X70872438Y-114956666D02*
X70967676Y-115051904D01*
X70967676Y-115051904D02*
X71062914Y-115099523D01*
X71062914Y-115099523D02*
X71253390Y-115147142D01*
X71253390Y-115147142D02*
X71396247Y-115147142D01*
X71396247Y-115147142D02*
X71586723Y-115099523D01*
X71586723Y-115099523D02*
X71681961Y-115051904D01*
X71681961Y-115051904D02*
X71777200Y-114956666D01*
X71777200Y-114956666D02*
X71824819Y-114813809D01*
X71824819Y-114813809D02*
X71824819Y-114575714D01*
X70824819Y-116004285D02*
X70824819Y-115813809D01*
X70824819Y-115813809D02*
X70872438Y-115718571D01*
X70872438Y-115718571D02*
X70920057Y-115670952D01*
X70920057Y-115670952D02*
X71062914Y-115575714D01*
X71062914Y-115575714D02*
X71253390Y-115528095D01*
X71253390Y-115528095D02*
X71634342Y-115528095D01*
X71634342Y-115528095D02*
X71729580Y-115575714D01*
X71729580Y-115575714D02*
X71777200Y-115623333D01*
X71777200Y-115623333D02*
X71824819Y-115718571D01*
X71824819Y-115718571D02*
X71824819Y-115909047D01*
X71824819Y-115909047D02*
X71777200Y-116004285D01*
X71777200Y-116004285D02*
X71729580Y-116051904D01*
X71729580Y-116051904D02*
X71634342Y-116099523D01*
X71634342Y-116099523D02*
X71396247Y-116099523D01*
X71396247Y-116099523D02*
X71301009Y-116051904D01*
X71301009Y-116051904D02*
X71253390Y-116004285D01*
X71253390Y-116004285D02*
X71205771Y-115909047D01*
X71205771Y-115909047D02*
X71205771Y-115718571D01*
X71205771Y-115718571D02*
X71253390Y-115623333D01*
X71253390Y-115623333D02*
X71301009Y-115575714D01*
X71301009Y-115575714D02*
X71396247Y-115528095D01*
X70920057Y-116480476D02*
X70872438Y-116528095D01*
X70872438Y-116528095D02*
X70824819Y-116623333D01*
X70824819Y-116623333D02*
X70824819Y-116861428D01*
X70824819Y-116861428D02*
X70872438Y-116956666D01*
X70872438Y-116956666D02*
X70920057Y-117004285D01*
X70920057Y-117004285D02*
X71015295Y-117051904D01*
X71015295Y-117051904D02*
X71110533Y-117051904D01*
X71110533Y-117051904D02*
X71253390Y-117004285D01*
X71253390Y-117004285D02*
X71824819Y-116432857D01*
X71824819Y-116432857D02*
X71824819Y-117051904D01*
D10*
X43476200Y-138514857D02*
X43352391Y-138428190D01*
X43476200Y-138366285D02*
X43216200Y-138366285D01*
X43216200Y-138366285D02*
X43216200Y-138465333D01*
X43216200Y-138465333D02*
X43228581Y-138490095D01*
X43228581Y-138490095D02*
X43240962Y-138502476D01*
X43240962Y-138502476D02*
X43265724Y-138514857D01*
X43265724Y-138514857D02*
X43302867Y-138514857D01*
X43302867Y-138514857D02*
X43327629Y-138502476D01*
X43327629Y-138502476D02*
X43340010Y-138490095D01*
X43340010Y-138490095D02*
X43352391Y-138465333D01*
X43352391Y-138465333D02*
X43352391Y-138366285D01*
X43240962Y-138613904D02*
X43228581Y-138626285D01*
X43228581Y-138626285D02*
X43216200Y-138651047D01*
X43216200Y-138651047D02*
X43216200Y-138712952D01*
X43216200Y-138712952D02*
X43228581Y-138737714D01*
X43228581Y-138737714D02*
X43240962Y-138750095D01*
X43240962Y-138750095D02*
X43265724Y-138762476D01*
X43265724Y-138762476D02*
X43290486Y-138762476D01*
X43290486Y-138762476D02*
X43327629Y-138750095D01*
X43327629Y-138750095D02*
X43476200Y-138601523D01*
X43476200Y-138601523D02*
X43476200Y-138762476D01*
X43240962Y-138861523D02*
X43228581Y-138873904D01*
X43228581Y-138873904D02*
X43216200Y-138898666D01*
X43216200Y-138898666D02*
X43216200Y-138960571D01*
X43216200Y-138960571D02*
X43228581Y-138985333D01*
X43228581Y-138985333D02*
X43240962Y-138997714D01*
X43240962Y-138997714D02*
X43265724Y-139010095D01*
X43265724Y-139010095D02*
X43290486Y-139010095D01*
X43290486Y-139010095D02*
X43327629Y-138997714D01*
X43327629Y-138997714D02*
X43476200Y-138849142D01*
X43476200Y-138849142D02*
X43476200Y-139010095D01*
D12*
X65855819Y-119435714D02*
X64855819Y-119435714D01*
X64855819Y-119435714D02*
X64855819Y-119673809D01*
X64855819Y-119673809D02*
X64903438Y-119816666D01*
X64903438Y-119816666D02*
X64998676Y-119911904D01*
X64998676Y-119911904D02*
X65093914Y-119959523D01*
X65093914Y-119959523D02*
X65284390Y-120007142D01*
X65284390Y-120007142D02*
X65427247Y-120007142D01*
X65427247Y-120007142D02*
X65617723Y-119959523D01*
X65617723Y-119959523D02*
X65712961Y-119911904D01*
X65712961Y-119911904D02*
X65808200Y-119816666D01*
X65808200Y-119816666D02*
X65855819Y-119673809D01*
X65855819Y-119673809D02*
X65855819Y-119435714D01*
X64855819Y-120864285D02*
X64855819Y-120673809D01*
X64855819Y-120673809D02*
X64903438Y-120578571D01*
X64903438Y-120578571D02*
X64951057Y-120530952D01*
X64951057Y-120530952D02*
X65093914Y-120435714D01*
X65093914Y-120435714D02*
X65284390Y-120388095D01*
X65284390Y-120388095D02*
X65665342Y-120388095D01*
X65665342Y-120388095D02*
X65760580Y-120435714D01*
X65760580Y-120435714D02*
X65808200Y-120483333D01*
X65808200Y-120483333D02*
X65855819Y-120578571D01*
X65855819Y-120578571D02*
X65855819Y-120769047D01*
X65855819Y-120769047D02*
X65808200Y-120864285D01*
X65808200Y-120864285D02*
X65760580Y-120911904D01*
X65760580Y-120911904D02*
X65665342Y-120959523D01*
X65665342Y-120959523D02*
X65427247Y-120959523D01*
X65427247Y-120959523D02*
X65332009Y-120911904D01*
X65332009Y-120911904D02*
X65284390Y-120864285D01*
X65284390Y-120864285D02*
X65236771Y-120769047D01*
X65236771Y-120769047D02*
X65236771Y-120578571D01*
X65236771Y-120578571D02*
X65284390Y-120483333D01*
X65284390Y-120483333D02*
X65332009Y-120435714D01*
X65332009Y-120435714D02*
X65427247Y-120388095D01*
X64855819Y-121816666D02*
X64855819Y-121626190D01*
X64855819Y-121626190D02*
X64903438Y-121530952D01*
X64903438Y-121530952D02*
X64951057Y-121483333D01*
X64951057Y-121483333D02*
X65093914Y-121388095D01*
X65093914Y-121388095D02*
X65284390Y-121340476D01*
X65284390Y-121340476D02*
X65665342Y-121340476D01*
X65665342Y-121340476D02*
X65760580Y-121388095D01*
X65760580Y-121388095D02*
X65808200Y-121435714D01*
X65808200Y-121435714D02*
X65855819Y-121530952D01*
X65855819Y-121530952D02*
X65855819Y-121721428D01*
X65855819Y-121721428D02*
X65808200Y-121816666D01*
X65808200Y-121816666D02*
X65760580Y-121864285D01*
X65760580Y-121864285D02*
X65665342Y-121911904D01*
X65665342Y-121911904D02*
X65427247Y-121911904D01*
X65427247Y-121911904D02*
X65332009Y-121864285D01*
X65332009Y-121864285D02*
X65284390Y-121816666D01*
X65284390Y-121816666D02*
X65236771Y-121721428D01*
X65236771Y-121721428D02*
X65236771Y-121530952D01*
X65236771Y-121530952D02*
X65284390Y-121435714D01*
X65284390Y-121435714D02*
X65332009Y-121388095D01*
X65332009Y-121388095D02*
X65427247Y-121340476D01*
X55616133Y-161160809D02*
X55949466Y-161160809D01*
X55949466Y-161684619D02*
X55949466Y-160684619D01*
X55949466Y-160684619D02*
X55473276Y-160684619D01*
X54616133Y-160684619D02*
X55092323Y-160684619D01*
X55092323Y-160684619D02*
X55139942Y-161160809D01*
X55139942Y-161160809D02*
X55092323Y-161113190D01*
X55092323Y-161113190D02*
X54997085Y-161065571D01*
X54997085Y-161065571D02*
X54758990Y-161065571D01*
X54758990Y-161065571D02*
X54663752Y-161113190D01*
X54663752Y-161113190D02*
X54616133Y-161160809D01*
X54616133Y-161160809D02*
X54568514Y-161256047D01*
X54568514Y-161256047D02*
X54568514Y-161494142D01*
X54568514Y-161494142D02*
X54616133Y-161589380D01*
X54616133Y-161589380D02*
X54663752Y-161637000D01*
X54663752Y-161637000D02*
X54758990Y-161684619D01*
X54758990Y-161684619D02*
X54997085Y-161684619D01*
X54997085Y-161684619D02*
X55092323Y-161637000D01*
X55092323Y-161637000D02*
X55139942Y-161589380D01*
D11*
X104238570Y-179042403D02*
X104371903Y-179042403D01*
X104371903Y-179251927D02*
X104371903Y-178851927D01*
X104371903Y-178851927D02*
X104181427Y-178851927D01*
X104029046Y-179251927D02*
X104029046Y-178851927D01*
X103838570Y-179251927D02*
X103838570Y-178851927D01*
X103838570Y-178851927D02*
X103743332Y-178851927D01*
X103743332Y-178851927D02*
X103686189Y-178870975D01*
X103686189Y-178870975D02*
X103648094Y-178909070D01*
X103648094Y-178909070D02*
X103629047Y-178947165D01*
X103629047Y-178947165D02*
X103609999Y-179023356D01*
X103609999Y-179023356D02*
X103609999Y-179080499D01*
X103609999Y-179080499D02*
X103629047Y-179156689D01*
X103629047Y-179156689D02*
X103648094Y-179194784D01*
X103648094Y-179194784D02*
X103686189Y-179232880D01*
X103686189Y-179232880D02*
X103743332Y-179251927D01*
X103743332Y-179251927D02*
X103838570Y-179251927D01*
X103476666Y-178851927D02*
X103229047Y-178851927D01*
X103229047Y-178851927D02*
X103362380Y-179004308D01*
X103362380Y-179004308D02*
X103305237Y-179004308D01*
X103305237Y-179004308D02*
X103267142Y-179023356D01*
X103267142Y-179023356D02*
X103248094Y-179042403D01*
X103248094Y-179042403D02*
X103229047Y-179080499D01*
X103229047Y-179080499D02*
X103229047Y-179175737D01*
X103229047Y-179175737D02*
X103248094Y-179213832D01*
X103248094Y-179213832D02*
X103267142Y-179232880D01*
X103267142Y-179232880D02*
X103305237Y-179251927D01*
X103305237Y-179251927D02*
X103419523Y-179251927D01*
X103419523Y-179251927D02*
X103457618Y-179232880D01*
X103457618Y-179232880D02*
X103476666Y-179213832D01*
X43278570Y-111732403D02*
X43411903Y-111732403D01*
X43411903Y-111941927D02*
X43411903Y-111541927D01*
X43411903Y-111541927D02*
X43221427Y-111541927D01*
X43069046Y-111941927D02*
X43069046Y-111541927D01*
X42878570Y-111941927D02*
X42878570Y-111541927D01*
X42878570Y-111541927D02*
X42783332Y-111541927D01*
X42783332Y-111541927D02*
X42726189Y-111560975D01*
X42726189Y-111560975D02*
X42688094Y-111599070D01*
X42688094Y-111599070D02*
X42669047Y-111637165D01*
X42669047Y-111637165D02*
X42649999Y-111713356D01*
X42649999Y-111713356D02*
X42649999Y-111770499D01*
X42649999Y-111770499D02*
X42669047Y-111846689D01*
X42669047Y-111846689D02*
X42688094Y-111884784D01*
X42688094Y-111884784D02*
X42726189Y-111922880D01*
X42726189Y-111922880D02*
X42783332Y-111941927D01*
X42783332Y-111941927D02*
X42878570Y-111941927D01*
X42307142Y-111675260D02*
X42307142Y-111941927D01*
X42402380Y-111522880D02*
X42497618Y-111808594D01*
X42497618Y-111808594D02*
X42249999Y-111808594D01*
X91176666Y-179251927D02*
X91309999Y-179061451D01*
X91405237Y-179251927D02*
X91405237Y-178851927D01*
X91405237Y-178851927D02*
X91252856Y-178851927D01*
X91252856Y-178851927D02*
X91214761Y-178870975D01*
X91214761Y-178870975D02*
X91195714Y-178890022D01*
X91195714Y-178890022D02*
X91176666Y-178928118D01*
X91176666Y-178928118D02*
X91176666Y-178985260D01*
X91176666Y-178985260D02*
X91195714Y-179023356D01*
X91195714Y-179023356D02*
X91214761Y-179042403D01*
X91214761Y-179042403D02*
X91252856Y-179061451D01*
X91252856Y-179061451D02*
X91405237Y-179061451D01*
X90833809Y-178985260D02*
X90833809Y-179251927D01*
X90929047Y-178832880D02*
X91024285Y-179118594D01*
X91024285Y-179118594D02*
X90776666Y-179118594D01*
D10*
X50080200Y-133942857D02*
X49956391Y-133856190D01*
X50080200Y-133794285D02*
X49820200Y-133794285D01*
X49820200Y-133794285D02*
X49820200Y-133893333D01*
X49820200Y-133893333D02*
X49832581Y-133918095D01*
X49832581Y-133918095D02*
X49844962Y-133930476D01*
X49844962Y-133930476D02*
X49869724Y-133942857D01*
X49869724Y-133942857D02*
X49906867Y-133942857D01*
X49906867Y-133942857D02*
X49931629Y-133930476D01*
X49931629Y-133930476D02*
X49944010Y-133918095D01*
X49944010Y-133918095D02*
X49956391Y-133893333D01*
X49956391Y-133893333D02*
X49956391Y-133794285D01*
X50080200Y-134190476D02*
X50080200Y-134041904D01*
X50080200Y-134116190D02*
X49820200Y-134116190D01*
X49820200Y-134116190D02*
X49857343Y-134091428D01*
X49857343Y-134091428D02*
X49882105Y-134066666D01*
X49882105Y-134066666D02*
X49894486Y-134041904D01*
X49820200Y-134277142D02*
X49820200Y-134438095D01*
X49820200Y-134438095D02*
X49919248Y-134351428D01*
X49919248Y-134351428D02*
X49919248Y-134388571D01*
X49919248Y-134388571D02*
X49931629Y-134413333D01*
X49931629Y-134413333D02*
X49944010Y-134425714D01*
X49944010Y-134425714D02*
X49968772Y-134438095D01*
X49968772Y-134438095D02*
X50030677Y-134438095D01*
X50030677Y-134438095D02*
X50055439Y-134425714D01*
X50055439Y-134425714D02*
X50067820Y-134413333D01*
X50067820Y-134413333D02*
X50080200Y-134388571D01*
X50080200Y-134388571D02*
X50080200Y-134314285D01*
X50080200Y-134314285D02*
X50067820Y-134289523D01*
X50067820Y-134289523D02*
X50055439Y-134277142D01*
X45000200Y-138514857D02*
X44876391Y-138428190D01*
X45000200Y-138366285D02*
X44740200Y-138366285D01*
X44740200Y-138366285D02*
X44740200Y-138465333D01*
X44740200Y-138465333D02*
X44752581Y-138490095D01*
X44752581Y-138490095D02*
X44764962Y-138502476D01*
X44764962Y-138502476D02*
X44789724Y-138514857D01*
X44789724Y-138514857D02*
X44826867Y-138514857D01*
X44826867Y-138514857D02*
X44851629Y-138502476D01*
X44851629Y-138502476D02*
X44864010Y-138490095D01*
X44864010Y-138490095D02*
X44876391Y-138465333D01*
X44876391Y-138465333D02*
X44876391Y-138366285D01*
X44764962Y-138613904D02*
X44752581Y-138626285D01*
X44752581Y-138626285D02*
X44740200Y-138651047D01*
X44740200Y-138651047D02*
X44740200Y-138712952D01*
X44740200Y-138712952D02*
X44752581Y-138737714D01*
X44752581Y-138737714D02*
X44764962Y-138750095D01*
X44764962Y-138750095D02*
X44789724Y-138762476D01*
X44789724Y-138762476D02*
X44814486Y-138762476D01*
X44814486Y-138762476D02*
X44851629Y-138750095D01*
X44851629Y-138750095D02*
X45000200Y-138601523D01*
X45000200Y-138601523D02*
X45000200Y-138762476D01*
X44740200Y-138849142D02*
X44740200Y-139010095D01*
X44740200Y-139010095D02*
X44839248Y-138923428D01*
X44839248Y-138923428D02*
X44839248Y-138960571D01*
X44839248Y-138960571D02*
X44851629Y-138985333D01*
X44851629Y-138985333D02*
X44864010Y-138997714D01*
X44864010Y-138997714D02*
X44888772Y-139010095D01*
X44888772Y-139010095D02*
X44950677Y-139010095D01*
X44950677Y-139010095D02*
X44975439Y-138997714D01*
X44975439Y-138997714D02*
X44987820Y-138985333D01*
X44987820Y-138985333D02*
X45000200Y-138960571D01*
X45000200Y-138960571D02*
X45000200Y-138886285D01*
X45000200Y-138886285D02*
X44987820Y-138861523D01*
X44987820Y-138861523D02*
X44975439Y-138849142D01*
D14*
X50061142Y-117650309D02*
X50061142Y-117150309D01*
X50061142Y-117150309D02*
X49942094Y-117150309D01*
X49942094Y-117150309D02*
X49870666Y-117174119D01*
X49870666Y-117174119D02*
X49823047Y-117221738D01*
X49823047Y-117221738D02*
X49799237Y-117269357D01*
X49799237Y-117269357D02*
X49775428Y-117364595D01*
X49775428Y-117364595D02*
X49775428Y-117436023D01*
X49775428Y-117436023D02*
X49799237Y-117531261D01*
X49799237Y-117531261D02*
X49823047Y-117578880D01*
X49823047Y-117578880D02*
X49870666Y-117626500D01*
X49870666Y-117626500D02*
X49942094Y-117650309D01*
X49942094Y-117650309D02*
X50061142Y-117650309D01*
X49537332Y-117650309D02*
X49442094Y-117650309D01*
X49442094Y-117650309D02*
X49394475Y-117626500D01*
X49394475Y-117626500D02*
X49370666Y-117602690D01*
X49370666Y-117602690D02*
X49323047Y-117531261D01*
X49323047Y-117531261D02*
X49299237Y-117436023D01*
X49299237Y-117436023D02*
X49299237Y-117245547D01*
X49299237Y-117245547D02*
X49323047Y-117197928D01*
X49323047Y-117197928D02*
X49346856Y-117174119D01*
X49346856Y-117174119D02*
X49394475Y-117150309D01*
X49394475Y-117150309D02*
X49489713Y-117150309D01*
X49489713Y-117150309D02*
X49537332Y-117174119D01*
X49537332Y-117174119D02*
X49561142Y-117197928D01*
X49561142Y-117197928D02*
X49584951Y-117245547D01*
X49584951Y-117245547D02*
X49584951Y-117364595D01*
X49584951Y-117364595D02*
X49561142Y-117412214D01*
X49561142Y-117412214D02*
X49537332Y-117436023D01*
X49537332Y-117436023D02*
X49489713Y-117459833D01*
X49489713Y-117459833D02*
X49394475Y-117459833D01*
X49394475Y-117459833D02*
X49346856Y-117436023D01*
X49346856Y-117436023D02*
X49323047Y-117412214D01*
X49323047Y-117412214D02*
X49299237Y-117364595D01*
X48823047Y-117650309D02*
X49108761Y-117650309D01*
X48965904Y-117650309D02*
X48965904Y-117150309D01*
X48965904Y-117150309D02*
X49013523Y-117221738D01*
X49013523Y-117221738D02*
X49061142Y-117269357D01*
X49061142Y-117269357D02*
X49108761Y-117293166D01*
D12*
X117390904Y-129068819D02*
X116819476Y-129068819D01*
X117105190Y-130068819D02*
X117105190Y-129068819D01*
X116486142Y-130068819D02*
X116486142Y-129068819D01*
X116486142Y-129068819D02*
X116105190Y-129068819D01*
X116105190Y-129068819D02*
X116009952Y-129116438D01*
X116009952Y-129116438D02*
X115962333Y-129164057D01*
X115962333Y-129164057D02*
X115914714Y-129259295D01*
X115914714Y-129259295D02*
X115914714Y-129402152D01*
X115914714Y-129402152D02*
X115962333Y-129497390D01*
X115962333Y-129497390D02*
X116009952Y-129545009D01*
X116009952Y-129545009D02*
X116105190Y-129592628D01*
X116105190Y-129592628D02*
X116486142Y-129592628D01*
X115057571Y-129402152D02*
X115057571Y-130068819D01*
X115295666Y-129021200D02*
X115533761Y-129735485D01*
X115533761Y-129735485D02*
X114914714Y-129735485D01*
D10*
X48527765Y-133951285D02*
X48539670Y-133939381D01*
X48539670Y-133939381D02*
X48551574Y-133903666D01*
X48551574Y-133903666D02*
X48551574Y-133879857D01*
X48551574Y-133879857D02*
X48539670Y-133844143D01*
X48539670Y-133844143D02*
X48515860Y-133820333D01*
X48515860Y-133820333D02*
X48492050Y-133808428D01*
X48492050Y-133808428D02*
X48444431Y-133796524D01*
X48444431Y-133796524D02*
X48408717Y-133796524D01*
X48408717Y-133796524D02*
X48361098Y-133808428D01*
X48361098Y-133808428D02*
X48337289Y-133820333D01*
X48337289Y-133820333D02*
X48313479Y-133844143D01*
X48313479Y-133844143D02*
X48301574Y-133879857D01*
X48301574Y-133879857D02*
X48301574Y-133903666D01*
X48301574Y-133903666D02*
X48313479Y-133939381D01*
X48313479Y-133939381D02*
X48325384Y-133951285D01*
X48325384Y-134046524D02*
X48313479Y-134058428D01*
X48313479Y-134058428D02*
X48301574Y-134082238D01*
X48301574Y-134082238D02*
X48301574Y-134141762D01*
X48301574Y-134141762D02*
X48313479Y-134165571D01*
X48313479Y-134165571D02*
X48325384Y-134177476D01*
X48325384Y-134177476D02*
X48349193Y-134189381D01*
X48349193Y-134189381D02*
X48373003Y-134189381D01*
X48373003Y-134189381D02*
X48408717Y-134177476D01*
X48408717Y-134177476D02*
X48551574Y-134034619D01*
X48551574Y-134034619D02*
X48551574Y-134189381D01*
X48384908Y-134403666D02*
X48551574Y-134403666D01*
X48289670Y-134344142D02*
X48468241Y-134284619D01*
X48468241Y-134284619D02*
X48468241Y-134439380D01*
X111165309Y-120634315D02*
X111179100Y-120624658D01*
X111179100Y-120624658D02*
X111197025Y-120591554D01*
X111197025Y-120591554D02*
X111201160Y-120568106D01*
X111201160Y-120568106D02*
X111195638Y-120530867D01*
X111195638Y-120530867D02*
X111176324Y-120503284D01*
X111176324Y-120503284D02*
X111154944Y-120487426D01*
X111154944Y-120487426D02*
X111110116Y-120467433D01*
X111110116Y-120467433D02*
X111074944Y-120461232D01*
X111074944Y-120461232D02*
X111025981Y-120464686D01*
X111025981Y-120464686D02*
X111000466Y-120472276D01*
X111000466Y-120472276D02*
X110972884Y-120491589D01*
X110972884Y-120491589D02*
X110954958Y-120524694D01*
X110954958Y-120524694D02*
X110950824Y-120548141D01*
X110950824Y-120548141D02*
X110956346Y-120585380D01*
X110956346Y-120585380D02*
X110966002Y-120599172D01*
X111147412Y-120872927D02*
X111172219Y-120732240D01*
X111159815Y-120802584D02*
X110913613Y-120759172D01*
X110913613Y-120759172D02*
X110952919Y-120741926D01*
X110952919Y-120741926D02*
X110980502Y-120722612D01*
X110980502Y-120722612D02*
X110996360Y-120701232D01*
X110946067Y-121055016D02*
X111110201Y-121083957D01*
X110862612Y-120979858D02*
X111048807Y-120952247D01*
X111048807Y-120952247D02*
X111021932Y-121104658D01*
X41952200Y-138514857D02*
X41828391Y-138428190D01*
X41952200Y-138366285D02*
X41692200Y-138366285D01*
X41692200Y-138366285D02*
X41692200Y-138465333D01*
X41692200Y-138465333D02*
X41704581Y-138490095D01*
X41704581Y-138490095D02*
X41716962Y-138502476D01*
X41716962Y-138502476D02*
X41741724Y-138514857D01*
X41741724Y-138514857D02*
X41778867Y-138514857D01*
X41778867Y-138514857D02*
X41803629Y-138502476D01*
X41803629Y-138502476D02*
X41816010Y-138490095D01*
X41816010Y-138490095D02*
X41828391Y-138465333D01*
X41828391Y-138465333D02*
X41828391Y-138366285D01*
X41716962Y-138613904D02*
X41704581Y-138626285D01*
X41704581Y-138626285D02*
X41692200Y-138651047D01*
X41692200Y-138651047D02*
X41692200Y-138712952D01*
X41692200Y-138712952D02*
X41704581Y-138737714D01*
X41704581Y-138737714D02*
X41716962Y-138750095D01*
X41716962Y-138750095D02*
X41741724Y-138762476D01*
X41741724Y-138762476D02*
X41766486Y-138762476D01*
X41766486Y-138762476D02*
X41803629Y-138750095D01*
X41803629Y-138750095D02*
X41952200Y-138601523D01*
X41952200Y-138601523D02*
X41952200Y-138762476D01*
X41952200Y-139010095D02*
X41952200Y-138861523D01*
X41952200Y-138935809D02*
X41692200Y-138935809D01*
X41692200Y-138935809D02*
X41729343Y-138911047D01*
X41729343Y-138911047D02*
X41754105Y-138886285D01*
X41754105Y-138886285D02*
X41766486Y-138861523D01*
D12*
X69396989Y-143881219D02*
X69396989Y-142881219D01*
X68396990Y-143881219D02*
X68968418Y-143881219D01*
X68682704Y-143881219D02*
X68682704Y-142881219D01*
X68682704Y-142881219D02*
X68777942Y-143024076D01*
X68777942Y-143024076D02*
X68873180Y-143119314D01*
X68873180Y-143119314D02*
X68968418Y-143166933D01*
X117414819Y-139866905D02*
X117414819Y-140438333D01*
X118414819Y-140152619D02*
X117414819Y-140152619D01*
X118414819Y-140771667D02*
X117414819Y-140771667D01*
X117414819Y-140771667D02*
X117414819Y-141152619D01*
X117414819Y-141152619D02*
X117462438Y-141247857D01*
X117462438Y-141247857D02*
X117510057Y-141295476D01*
X117510057Y-141295476D02*
X117605295Y-141343095D01*
X117605295Y-141343095D02*
X117748152Y-141343095D01*
X117748152Y-141343095D02*
X117843390Y-141295476D01*
X117843390Y-141295476D02*
X117891009Y-141247857D01*
X117891009Y-141247857D02*
X117938628Y-141152619D01*
X117938628Y-141152619D02*
X117938628Y-140771667D01*
X118414819Y-142295476D02*
X118414819Y-141724048D01*
X118414819Y-142009762D02*
X117414819Y-142009762D01*
X117414819Y-142009762D02*
X117557676Y-141914524D01*
X117557676Y-141914524D02*
X117652914Y-141819286D01*
X117652914Y-141819286D02*
X117700533Y-141724048D01*
X117414819Y-143200238D02*
X117414819Y-142724048D01*
X117414819Y-142724048D02*
X117891009Y-142676429D01*
X117891009Y-142676429D02*
X117843390Y-142724048D01*
X117843390Y-142724048D02*
X117795771Y-142819286D01*
X117795771Y-142819286D02*
X117795771Y-143057381D01*
X117795771Y-143057381D02*
X117843390Y-143152619D01*
X117843390Y-143152619D02*
X117891009Y-143200238D01*
X117891009Y-143200238D02*
X117986247Y-143247857D01*
X117986247Y-143247857D02*
X118224342Y-143247857D01*
X118224342Y-143247857D02*
X118319580Y-143200238D01*
X118319580Y-143200238D02*
X118367200Y-143152619D01*
X118367200Y-143152619D02*
X118414819Y-143057381D01*
X118414819Y-143057381D02*
X118414819Y-142819286D01*
X118414819Y-142819286D02*
X118367200Y-142724048D01*
X118367200Y-142724048D02*
X118319580Y-142676429D01*
D11*
X60823666Y-179251927D02*
X60956999Y-179061451D01*
X61052237Y-179251927D02*
X61052237Y-178851927D01*
X61052237Y-178851927D02*
X60899856Y-178851927D01*
X60899856Y-178851927D02*
X60861761Y-178870975D01*
X60861761Y-178870975D02*
X60842714Y-178890022D01*
X60842714Y-178890022D02*
X60823666Y-178928118D01*
X60823666Y-178928118D02*
X60823666Y-178985260D01*
X60823666Y-178985260D02*
X60842714Y-179023356D01*
X60842714Y-179023356D02*
X60861761Y-179042403D01*
X60861761Y-179042403D02*
X60899856Y-179061451D01*
X60899856Y-179061451D02*
X61052237Y-179061451D01*
X60442714Y-179251927D02*
X60671285Y-179251927D01*
X60556999Y-179251927D02*
X60556999Y-178851927D01*
X60556999Y-178851927D02*
X60595095Y-178909070D01*
X60595095Y-178909070D02*
X60633190Y-178947165D01*
X60633190Y-178947165D02*
X60671285Y-178966213D01*
D10*
X47032200Y-138514857D02*
X46908391Y-138428190D01*
X47032200Y-138366285D02*
X46772200Y-138366285D01*
X46772200Y-138366285D02*
X46772200Y-138465333D01*
X46772200Y-138465333D02*
X46784581Y-138490095D01*
X46784581Y-138490095D02*
X46796962Y-138502476D01*
X46796962Y-138502476D02*
X46821724Y-138514857D01*
X46821724Y-138514857D02*
X46858867Y-138514857D01*
X46858867Y-138514857D02*
X46883629Y-138502476D01*
X46883629Y-138502476D02*
X46896010Y-138490095D01*
X46896010Y-138490095D02*
X46908391Y-138465333D01*
X46908391Y-138465333D02*
X46908391Y-138366285D01*
X47032200Y-138762476D02*
X47032200Y-138613904D01*
X47032200Y-138688190D02*
X46772200Y-138688190D01*
X46772200Y-138688190D02*
X46809343Y-138663428D01*
X46809343Y-138663428D02*
X46834105Y-138638666D01*
X46834105Y-138638666D02*
X46846486Y-138613904D01*
X46772200Y-138849142D02*
X46772200Y-139022476D01*
X46772200Y-139022476D02*
X47032200Y-138911047D01*
D12*
X113314124Y-110516892D02*
X113179437Y-110449549D01*
X113179437Y-110449549D02*
X113011079Y-110281190D01*
X113011079Y-110281190D02*
X112977407Y-110180175D01*
X112977407Y-110180175D02*
X112977407Y-110112831D01*
X112977407Y-110112831D02*
X113011079Y-110011816D01*
X113011079Y-110011816D02*
X113078422Y-109944472D01*
X113078422Y-109944472D02*
X113179437Y-109910801D01*
X113179437Y-109910801D02*
X113246781Y-109910801D01*
X113246781Y-109910801D02*
X113347796Y-109944472D01*
X113347796Y-109944472D02*
X113516155Y-110045488D01*
X113516155Y-110045488D02*
X113617170Y-110079159D01*
X113617170Y-110079159D02*
X113684514Y-110079159D01*
X113684514Y-110079159D02*
X113785529Y-110045488D01*
X113785529Y-110045488D02*
X113852872Y-109978144D01*
X113852872Y-109978144D02*
X113886544Y-109877129D01*
X113886544Y-109877129D02*
X113886544Y-109809785D01*
X113886544Y-109809785D02*
X113852872Y-109708770D01*
X113852872Y-109708770D02*
X113684514Y-109540411D01*
X113684514Y-109540411D02*
X113549827Y-109473068D01*
X113347796Y-109203694D02*
X112472330Y-109742442D01*
X112472330Y-109742442D02*
X112842720Y-109102678D01*
X112842720Y-109102678D02*
X112202956Y-109473068D01*
X112202956Y-109473068D02*
X112741704Y-108597602D01*
X111394835Y-108664946D02*
X111798896Y-109069007D01*
X111596865Y-108866976D02*
X112303972Y-108159870D01*
X112303972Y-108159870D02*
X112270300Y-108328228D01*
X112270300Y-108328228D02*
X112270300Y-108462915D01*
X112270300Y-108462915D02*
X112303972Y-108563931D01*
X111107085Y-143879219D02*
X111107085Y-142879219D01*
X111107085Y-142879219D02*
X110868990Y-142879219D01*
X110868990Y-142879219D02*
X110726133Y-142926838D01*
X110726133Y-142926838D02*
X110630895Y-143022076D01*
X110630895Y-143022076D02*
X110583276Y-143117314D01*
X110583276Y-143117314D02*
X110535657Y-143307790D01*
X110535657Y-143307790D02*
X110535657Y-143450647D01*
X110535657Y-143450647D02*
X110583276Y-143641123D01*
X110583276Y-143641123D02*
X110630895Y-143736361D01*
X110630895Y-143736361D02*
X110726133Y-143831600D01*
X110726133Y-143831600D02*
X110868990Y-143879219D01*
X110868990Y-143879219D02*
X111107085Y-143879219D01*
X110202323Y-142879219D02*
X109535657Y-142879219D01*
X109535657Y-142879219D02*
X109964228Y-143879219D01*
X108964228Y-142879219D02*
X108868990Y-142879219D01*
X108868990Y-142879219D02*
X108773752Y-142926838D01*
X108773752Y-142926838D02*
X108726133Y-142974457D01*
X108726133Y-142974457D02*
X108678514Y-143069695D01*
X108678514Y-143069695D02*
X108630895Y-143260171D01*
X108630895Y-143260171D02*
X108630895Y-143498266D01*
X108630895Y-143498266D02*
X108678514Y-143688742D01*
X108678514Y-143688742D02*
X108726133Y-143783980D01*
X108726133Y-143783980D02*
X108773752Y-143831600D01*
X108773752Y-143831600D02*
X108868990Y-143879219D01*
X108868990Y-143879219D02*
X108964228Y-143879219D01*
X108964228Y-143879219D02*
X109059466Y-143831600D01*
X109059466Y-143831600D02*
X109107085Y-143783980D01*
X109107085Y-143783980D02*
X109154704Y-143688742D01*
X109154704Y-143688742D02*
X109202323Y-143498266D01*
X109202323Y-143498266D02*
X109202323Y-143260171D01*
X109202323Y-143260171D02*
X109154704Y-143069695D01*
X109154704Y-143069695D02*
X109107085Y-142974457D01*
X109107085Y-142974457D02*
X109059466Y-142926838D01*
X109059466Y-142926838D02*
X108964228Y-142879219D01*
D11*
X43459927Y-129113738D02*
X43783737Y-129113738D01*
X43783737Y-129113738D02*
X43821832Y-129132785D01*
X43821832Y-129132785D02*
X43840880Y-129151833D01*
X43840880Y-129151833D02*
X43859927Y-129189928D01*
X43859927Y-129189928D02*
X43859927Y-129266119D01*
X43859927Y-129266119D02*
X43840880Y-129304214D01*
X43840880Y-129304214D02*
X43821832Y-129323261D01*
X43821832Y-129323261D02*
X43783737Y-129342309D01*
X43783737Y-129342309D02*
X43459927Y-129342309D01*
X43459927Y-129494690D02*
X43459927Y-129742309D01*
X43459927Y-129742309D02*
X43612308Y-129608976D01*
X43612308Y-129608976D02*
X43612308Y-129666119D01*
X43612308Y-129666119D02*
X43631356Y-129704214D01*
X43631356Y-129704214D02*
X43650403Y-129723262D01*
X43650403Y-129723262D02*
X43688499Y-129742309D01*
X43688499Y-129742309D02*
X43783737Y-129742309D01*
X43783737Y-129742309D02*
X43821832Y-129723262D01*
X43821832Y-129723262D02*
X43840880Y-129704214D01*
X43840880Y-129704214D02*
X43859927Y-129666119D01*
X43859927Y-129666119D02*
X43859927Y-129551833D01*
X43859927Y-129551833D02*
X43840880Y-129513738D01*
X43840880Y-129513738D02*
X43821832Y-129494690D01*
D10*
X69003200Y-132291856D02*
X68879391Y-132205189D01*
X69003200Y-132143284D02*
X68743200Y-132143284D01*
X68743200Y-132143284D02*
X68743200Y-132242332D01*
X68743200Y-132242332D02*
X68755581Y-132267094D01*
X68755581Y-132267094D02*
X68767962Y-132279475D01*
X68767962Y-132279475D02*
X68792724Y-132291856D01*
X68792724Y-132291856D02*
X68829867Y-132291856D01*
X68829867Y-132291856D02*
X68854629Y-132279475D01*
X68854629Y-132279475D02*
X68867010Y-132267094D01*
X68867010Y-132267094D02*
X68879391Y-132242332D01*
X68879391Y-132242332D02*
X68879391Y-132143284D01*
X68767962Y-132390903D02*
X68755581Y-132403284D01*
X68755581Y-132403284D02*
X68743200Y-132428046D01*
X68743200Y-132428046D02*
X68743200Y-132489951D01*
X68743200Y-132489951D02*
X68755581Y-132514713D01*
X68755581Y-132514713D02*
X68767962Y-132527094D01*
X68767962Y-132527094D02*
X68792724Y-132539475D01*
X68792724Y-132539475D02*
X68817486Y-132539475D01*
X68817486Y-132539475D02*
X68854629Y-132527094D01*
X68854629Y-132527094D02*
X69003200Y-132378522D01*
X69003200Y-132378522D02*
X69003200Y-132539475D01*
X68743200Y-132762332D02*
X68743200Y-132712808D01*
X68743200Y-132712808D02*
X68755581Y-132688046D01*
X68755581Y-132688046D02*
X68767962Y-132675665D01*
X68767962Y-132675665D02*
X68805105Y-132650903D01*
X68805105Y-132650903D02*
X68854629Y-132638522D01*
X68854629Y-132638522D02*
X68953677Y-132638522D01*
X68953677Y-132638522D02*
X68978439Y-132650903D01*
X68978439Y-132650903D02*
X68990820Y-132663284D01*
X68990820Y-132663284D02*
X69003200Y-132688046D01*
X69003200Y-132688046D02*
X69003200Y-132737570D01*
X69003200Y-132737570D02*
X68990820Y-132762332D01*
X68990820Y-132762332D02*
X68978439Y-132774713D01*
X68978439Y-132774713D02*
X68953677Y-132787094D01*
X68953677Y-132787094D02*
X68891772Y-132787094D01*
X68891772Y-132787094D02*
X68867010Y-132774713D01*
X68867010Y-132774713D02*
X68854629Y-132762332D01*
X68854629Y-132762332D02*
X68842248Y-132737570D01*
X68842248Y-132737570D02*
X68842248Y-132688046D01*
X68842248Y-132688046D02*
X68854629Y-132663284D01*
X68854629Y-132663284D02*
X68867010Y-132650903D01*
X68867010Y-132650903D02*
X68891772Y-132638522D01*
D11*
X71060832Y-184263333D02*
X71079880Y-184244285D01*
X71079880Y-184244285D02*
X71098927Y-184187143D01*
X71098927Y-184187143D02*
X71098927Y-184149047D01*
X71098927Y-184149047D02*
X71079880Y-184091904D01*
X71079880Y-184091904D02*
X71041784Y-184053809D01*
X71041784Y-184053809D02*
X71003689Y-184034762D01*
X71003689Y-184034762D02*
X70927499Y-184015714D01*
X70927499Y-184015714D02*
X70870356Y-184015714D01*
X70870356Y-184015714D02*
X70794165Y-184034762D01*
X70794165Y-184034762D02*
X70756070Y-184053809D01*
X70756070Y-184053809D02*
X70717975Y-184091904D01*
X70717975Y-184091904D02*
X70698927Y-184149047D01*
X70698927Y-184149047D02*
X70698927Y-184187143D01*
X70698927Y-184187143D02*
X70717975Y-184244285D01*
X70717975Y-184244285D02*
X70737022Y-184263333D01*
X70870356Y-184491904D02*
X70851308Y-184453809D01*
X70851308Y-184453809D02*
X70832260Y-184434762D01*
X70832260Y-184434762D02*
X70794165Y-184415714D01*
X70794165Y-184415714D02*
X70775118Y-184415714D01*
X70775118Y-184415714D02*
X70737022Y-184434762D01*
X70737022Y-184434762D02*
X70717975Y-184453809D01*
X70717975Y-184453809D02*
X70698927Y-184491904D01*
X70698927Y-184491904D02*
X70698927Y-184568095D01*
X70698927Y-184568095D02*
X70717975Y-184606190D01*
X70717975Y-184606190D02*
X70737022Y-184625238D01*
X70737022Y-184625238D02*
X70775118Y-184644285D01*
X70775118Y-184644285D02*
X70794165Y-184644285D01*
X70794165Y-184644285D02*
X70832260Y-184625238D01*
X70832260Y-184625238D02*
X70851308Y-184606190D01*
X70851308Y-184606190D02*
X70870356Y-184568095D01*
X70870356Y-184568095D02*
X70870356Y-184491904D01*
X70870356Y-184491904D02*
X70889403Y-184453809D01*
X70889403Y-184453809D02*
X70908451Y-184434762D01*
X70908451Y-184434762D02*
X70946546Y-184415714D01*
X70946546Y-184415714D02*
X71022737Y-184415714D01*
X71022737Y-184415714D02*
X71060832Y-184434762D01*
X71060832Y-184434762D02*
X71079880Y-184453809D01*
X71079880Y-184453809D02*
X71098927Y-184491904D01*
X71098927Y-184491904D02*
X71098927Y-184568095D01*
X71098927Y-184568095D02*
X71079880Y-184606190D01*
X71079880Y-184606190D02*
X71060832Y-184625238D01*
X71060832Y-184625238D02*
X71022737Y-184644285D01*
X71022737Y-184644285D02*
X70946546Y-184644285D01*
X70946546Y-184644285D02*
X70908451Y-184625238D01*
X70908451Y-184625238D02*
X70889403Y-184606190D01*
X70889403Y-184606190D02*
X70870356Y-184568095D01*
D12*
X82691466Y-143881219D02*
X83167656Y-143881219D01*
X83167656Y-143881219D02*
X83167656Y-142881219D01*
X81834323Y-143881219D02*
X82405751Y-143881219D01*
X82120037Y-143881219D02*
X82120037Y-142881219D01*
X82120037Y-142881219D02*
X82215275Y-143024076D01*
X82215275Y-143024076D02*
X82310513Y-143119314D01*
X82310513Y-143119314D02*
X82405751Y-143166933D01*
D10*
X108654119Y-117665199D02*
X108791097Y-117729050D01*
X108679918Y-117811514D02*
X108935968Y-117766365D01*
X108935968Y-117766365D02*
X108918769Y-117668822D01*
X108918769Y-117668822D02*
X108902276Y-117646586D01*
X108902276Y-117646586D02*
X108887933Y-117636544D01*
X108887933Y-117636544D02*
X108861398Y-117628651D01*
X108861398Y-117628651D02*
X108824819Y-117635100D01*
X108824819Y-117635100D02*
X108802583Y-117651593D01*
X108802583Y-117651593D02*
X108792540Y-117665936D01*
X108792540Y-117665936D02*
X108784647Y-117692472D01*
X108784647Y-117692472D02*
X108801847Y-117790014D01*
X108895119Y-117534701D02*
X108867170Y-117376194D01*
X108867170Y-117376194D02*
X108784677Y-117478743D01*
X108784677Y-117478743D02*
X108778227Y-117442165D01*
X108778227Y-117442165D02*
X108761735Y-117419929D01*
X108761735Y-117419929D02*
X108747392Y-117409886D01*
X108747392Y-117409886D02*
X108720856Y-117401993D01*
X108720856Y-117401993D02*
X108659892Y-117412742D01*
X108659892Y-117412742D02*
X108637656Y-117429235D01*
X108637656Y-117429235D02*
X108627613Y-117443578D01*
X108627613Y-117443578D02*
X108619720Y-117470114D01*
X108619720Y-117470114D02*
X108632620Y-117543271D01*
X108632620Y-117543271D02*
X108649112Y-117565507D01*
X108649112Y-117565507D02*
X108663455Y-117575550D01*
X43349200Y-116545857D02*
X43225391Y-116459190D01*
X43349200Y-116397285D02*
X43089200Y-116397285D01*
X43089200Y-116397285D02*
X43089200Y-116496333D01*
X43089200Y-116496333D02*
X43101581Y-116521095D01*
X43101581Y-116521095D02*
X43113962Y-116533476D01*
X43113962Y-116533476D02*
X43138724Y-116545857D01*
X43138724Y-116545857D02*
X43175867Y-116545857D01*
X43175867Y-116545857D02*
X43200629Y-116533476D01*
X43200629Y-116533476D02*
X43213010Y-116521095D01*
X43213010Y-116521095D02*
X43225391Y-116496333D01*
X43225391Y-116496333D02*
X43225391Y-116397285D01*
X43113962Y-116644904D02*
X43101581Y-116657285D01*
X43101581Y-116657285D02*
X43089200Y-116682047D01*
X43089200Y-116682047D02*
X43089200Y-116743952D01*
X43089200Y-116743952D02*
X43101581Y-116768714D01*
X43101581Y-116768714D02*
X43113962Y-116781095D01*
X43113962Y-116781095D02*
X43138724Y-116793476D01*
X43138724Y-116793476D02*
X43163486Y-116793476D01*
X43163486Y-116793476D02*
X43200629Y-116781095D01*
X43200629Y-116781095D02*
X43349200Y-116632523D01*
X43349200Y-116632523D02*
X43349200Y-116793476D01*
X43175867Y-117016333D02*
X43349200Y-117016333D01*
X43076820Y-116954428D02*
X43262534Y-116892523D01*
X43262534Y-116892523D02*
X43262534Y-117053476D01*
X111727943Y-129415666D02*
X111744523Y-129418590D01*
X111744523Y-129418590D02*
X111780607Y-129407857D01*
X111780607Y-129407857D02*
X111800110Y-129394200D01*
X111800110Y-129394200D02*
X111822538Y-129363963D01*
X111822538Y-129363963D02*
X111828385Y-129330803D01*
X111828385Y-129330803D02*
X111824480Y-129304471D01*
X111824480Y-129304471D02*
X111806918Y-129258636D01*
X111806918Y-129258636D02*
X111786434Y-129229380D01*
X111786434Y-129229380D02*
X111749369Y-129197201D01*
X111749369Y-129197201D02*
X111725960Y-129184526D01*
X111725960Y-129184526D02*
X111692800Y-129178679D01*
X111692800Y-129178679D02*
X111656716Y-129189412D01*
X111656716Y-129189412D02*
X111637213Y-129203069D01*
X111637213Y-129203069D02*
X111614786Y-129233305D01*
X111614786Y-129233305D02*
X111611862Y-129249885D01*
X111533848Y-129304512D02*
X111517267Y-129301588D01*
X111517267Y-129301588D02*
X111490936Y-129305493D01*
X111490936Y-129305493D02*
X111442176Y-129339634D01*
X111442176Y-129339634D02*
X111429501Y-129363043D01*
X111429501Y-129363043D02*
X111426578Y-129379623D01*
X111426578Y-129379623D02*
X111430482Y-129405955D01*
X111430482Y-129405955D02*
X111444139Y-129425458D01*
X111444139Y-129425458D02*
X111474376Y-129447886D01*
X111474376Y-129447886D02*
X111673337Y-129482968D01*
X111673337Y-129482968D02*
X111546563Y-129571736D01*
X111351527Y-129708301D02*
X111468549Y-129626362D01*
X111410038Y-129667331D02*
X111266644Y-129462543D01*
X111266644Y-129462543D02*
X111306633Y-129478142D01*
X111306633Y-129478142D02*
X111339793Y-129483989D01*
X111339793Y-129483989D02*
X111366125Y-129480085D01*
D12*
X70664819Y-119435714D02*
X69664819Y-119435714D01*
X69664819Y-119435714D02*
X69664819Y-119673809D01*
X69664819Y-119673809D02*
X69712438Y-119816666D01*
X69712438Y-119816666D02*
X69807676Y-119911904D01*
X69807676Y-119911904D02*
X69902914Y-119959523D01*
X69902914Y-119959523D02*
X70093390Y-120007142D01*
X70093390Y-120007142D02*
X70236247Y-120007142D01*
X70236247Y-120007142D02*
X70426723Y-119959523D01*
X70426723Y-119959523D02*
X70521961Y-119911904D01*
X70521961Y-119911904D02*
X70617200Y-119816666D01*
X70617200Y-119816666D02*
X70664819Y-119673809D01*
X70664819Y-119673809D02*
X70664819Y-119435714D01*
X69664819Y-120864285D02*
X69664819Y-120673809D01*
X69664819Y-120673809D02*
X69712438Y-120578571D01*
X69712438Y-120578571D02*
X69760057Y-120530952D01*
X69760057Y-120530952D02*
X69902914Y-120435714D01*
X69902914Y-120435714D02*
X70093390Y-120388095D01*
X70093390Y-120388095D02*
X70474342Y-120388095D01*
X70474342Y-120388095D02*
X70569580Y-120435714D01*
X70569580Y-120435714D02*
X70617200Y-120483333D01*
X70617200Y-120483333D02*
X70664819Y-120578571D01*
X70664819Y-120578571D02*
X70664819Y-120769047D01*
X70664819Y-120769047D02*
X70617200Y-120864285D01*
X70617200Y-120864285D02*
X70569580Y-120911904D01*
X70569580Y-120911904D02*
X70474342Y-120959523D01*
X70474342Y-120959523D02*
X70236247Y-120959523D01*
X70236247Y-120959523D02*
X70141009Y-120911904D01*
X70141009Y-120911904D02*
X70093390Y-120864285D01*
X70093390Y-120864285D02*
X70045771Y-120769047D01*
X70045771Y-120769047D02*
X70045771Y-120578571D01*
X70045771Y-120578571D02*
X70093390Y-120483333D01*
X70093390Y-120483333D02*
X70141009Y-120435714D01*
X70141009Y-120435714D02*
X70236247Y-120388095D01*
X70093390Y-121530952D02*
X70045771Y-121435714D01*
X70045771Y-121435714D02*
X69998152Y-121388095D01*
X69998152Y-121388095D02*
X69902914Y-121340476D01*
X69902914Y-121340476D02*
X69855295Y-121340476D01*
X69855295Y-121340476D02*
X69760057Y-121388095D01*
X69760057Y-121388095D02*
X69712438Y-121435714D01*
X69712438Y-121435714D02*
X69664819Y-121530952D01*
X69664819Y-121530952D02*
X69664819Y-121721428D01*
X69664819Y-121721428D02*
X69712438Y-121816666D01*
X69712438Y-121816666D02*
X69760057Y-121864285D01*
X69760057Y-121864285D02*
X69855295Y-121911904D01*
X69855295Y-121911904D02*
X69902914Y-121911904D01*
X69902914Y-121911904D02*
X69998152Y-121864285D01*
X69998152Y-121864285D02*
X70045771Y-121816666D01*
X70045771Y-121816666D02*
X70093390Y-121721428D01*
X70093390Y-121721428D02*
X70093390Y-121530952D01*
X70093390Y-121530952D02*
X70141009Y-121435714D01*
X70141009Y-121435714D02*
X70188628Y-121388095D01*
X70188628Y-121388095D02*
X70283866Y-121340476D01*
X70283866Y-121340476D02*
X70474342Y-121340476D01*
X70474342Y-121340476D02*
X70569580Y-121388095D01*
X70569580Y-121388095D02*
X70617200Y-121435714D01*
X70617200Y-121435714D02*
X70664819Y-121530952D01*
X70664819Y-121530952D02*
X70664819Y-121721428D01*
X70664819Y-121721428D02*
X70617200Y-121816666D01*
X70617200Y-121816666D02*
X70569580Y-121864285D01*
X70569580Y-121864285D02*
X70474342Y-121911904D01*
X70474342Y-121911904D02*
X70283866Y-121911904D01*
X70283866Y-121911904D02*
X70188628Y-121864285D01*
X70188628Y-121864285D02*
X70141009Y-121816666D01*
X70141009Y-121816666D02*
X70093390Y-121721428D01*
D10*
X44971765Y-136237285D02*
X44983670Y-136225381D01*
X44983670Y-136225381D02*
X44995574Y-136189666D01*
X44995574Y-136189666D02*
X44995574Y-136165857D01*
X44995574Y-136165857D02*
X44983670Y-136130143D01*
X44983670Y-136130143D02*
X44959860Y-136106333D01*
X44959860Y-136106333D02*
X44936050Y-136094428D01*
X44936050Y-136094428D02*
X44888431Y-136082524D01*
X44888431Y-136082524D02*
X44852717Y-136082524D01*
X44852717Y-136082524D02*
X44805098Y-136094428D01*
X44805098Y-136094428D02*
X44781289Y-136106333D01*
X44781289Y-136106333D02*
X44757479Y-136130143D01*
X44757479Y-136130143D02*
X44745574Y-136165857D01*
X44745574Y-136165857D02*
X44745574Y-136189666D01*
X44745574Y-136189666D02*
X44757479Y-136225381D01*
X44757479Y-136225381D02*
X44769384Y-136237285D01*
X44769384Y-136332524D02*
X44757479Y-136344428D01*
X44757479Y-136344428D02*
X44745574Y-136368238D01*
X44745574Y-136368238D02*
X44745574Y-136427762D01*
X44745574Y-136427762D02*
X44757479Y-136451571D01*
X44757479Y-136451571D02*
X44769384Y-136463476D01*
X44769384Y-136463476D02*
X44793193Y-136475381D01*
X44793193Y-136475381D02*
X44817003Y-136475381D01*
X44817003Y-136475381D02*
X44852717Y-136463476D01*
X44852717Y-136463476D02*
X44995574Y-136320619D01*
X44995574Y-136320619D02*
X44995574Y-136475381D01*
X44745574Y-136558714D02*
X44745574Y-136713476D01*
X44745574Y-136713476D02*
X44840812Y-136630142D01*
X44840812Y-136630142D02*
X44840812Y-136665857D01*
X44840812Y-136665857D02*
X44852717Y-136689666D01*
X44852717Y-136689666D02*
X44864622Y-136701571D01*
X44864622Y-136701571D02*
X44888431Y-136713476D01*
X44888431Y-136713476D02*
X44947955Y-136713476D01*
X44947955Y-136713476D02*
X44971765Y-136701571D01*
X44971765Y-136701571D02*
X44983670Y-136689666D01*
X44983670Y-136689666D02*
X44995574Y-136665857D01*
X44995574Y-136665857D02*
X44995574Y-136594428D01*
X44995574Y-136594428D02*
X44983670Y-136570619D01*
X44983670Y-136570619D02*
X44971765Y-136558714D01*
X41923765Y-136237285D02*
X41935670Y-136225381D01*
X41935670Y-136225381D02*
X41947574Y-136189666D01*
X41947574Y-136189666D02*
X41947574Y-136165857D01*
X41947574Y-136165857D02*
X41935670Y-136130143D01*
X41935670Y-136130143D02*
X41911860Y-136106333D01*
X41911860Y-136106333D02*
X41888050Y-136094428D01*
X41888050Y-136094428D02*
X41840431Y-136082524D01*
X41840431Y-136082524D02*
X41804717Y-136082524D01*
X41804717Y-136082524D02*
X41757098Y-136094428D01*
X41757098Y-136094428D02*
X41733289Y-136106333D01*
X41733289Y-136106333D02*
X41709479Y-136130143D01*
X41709479Y-136130143D02*
X41697574Y-136165857D01*
X41697574Y-136165857D02*
X41697574Y-136189666D01*
X41697574Y-136189666D02*
X41709479Y-136225381D01*
X41709479Y-136225381D02*
X41721384Y-136237285D01*
X41947574Y-136475381D02*
X41947574Y-136332524D01*
X41947574Y-136403952D02*
X41697574Y-136403952D01*
X41697574Y-136403952D02*
X41733289Y-136380143D01*
X41733289Y-136380143D02*
X41757098Y-136356333D01*
X41757098Y-136356333D02*
X41769003Y-136332524D01*
X41697574Y-136558714D02*
X41697574Y-136725380D01*
X41697574Y-136725380D02*
X41947574Y-136618238D01*
D15*
X114932040Y-120105667D02*
X115265373Y-120105667D01*
X114565373Y-119872333D02*
X114932040Y-120105667D01*
X114932040Y-120105667D02*
X114565373Y-120339000D01*
X115265373Y-120939000D02*
X115265373Y-120539000D01*
X115265373Y-120739000D02*
X114565373Y-120739000D01*
X114565373Y-120739000D02*
X114665373Y-120672333D01*
X114665373Y-120672333D02*
X114732040Y-120605667D01*
X114732040Y-120605667D02*
X114765373Y-120539000D01*
D12*
X59841566Y-133873333D02*
X60634900Y-133873333D01*
X60634900Y-133873333D02*
X60728233Y-133920000D01*
X60728233Y-133920000D02*
X60774900Y-133966666D01*
X60774900Y-133966666D02*
X60821566Y-134060000D01*
X60821566Y-134060000D02*
X60821566Y-134246666D01*
X60821566Y-134246666D02*
X60774900Y-134340000D01*
X60774900Y-134340000D02*
X60728233Y-134386666D01*
X60728233Y-134386666D02*
X60634900Y-134433333D01*
X60634900Y-134433333D02*
X59841566Y-134433333D01*
X59841566Y-134806667D02*
X59841566Y-135460000D01*
X59841566Y-135460000D02*
X60821566Y-135040000D01*
X75335566Y-133471667D02*
X76128900Y-133471667D01*
X76128900Y-133471667D02*
X76222233Y-133518334D01*
X76222233Y-133518334D02*
X76268900Y-133565000D01*
X76268900Y-133565000D02*
X76315566Y-133658334D01*
X76315566Y-133658334D02*
X76315566Y-133845000D01*
X76315566Y-133845000D02*
X76268900Y-133938334D01*
X76268900Y-133938334D02*
X76222233Y-133985000D01*
X76222233Y-133985000D02*
X76128900Y-134031667D01*
X76128900Y-134031667D02*
X75335566Y-134031667D01*
X76315566Y-135011667D02*
X76315566Y-134451667D01*
X76315566Y-134731667D02*
X75335566Y-134731667D01*
X75335566Y-134731667D02*
X75475566Y-134638334D01*
X75475566Y-134638334D02*
X75568900Y-134545001D01*
X75568900Y-134545001D02*
X75615566Y-134451667D01*
X76315566Y-135945000D02*
X76315566Y-135385000D01*
X76315566Y-135665000D02*
X75335566Y-135665000D01*
X75335566Y-135665000D02*
X75475566Y-135571667D01*
X75475566Y-135571667D02*
X75568900Y-135478334D01*
X75568900Y-135478334D02*
X75615566Y-135385000D01*
X70664819Y-114609714D02*
X69664819Y-114609714D01*
X69664819Y-114609714D02*
X69664819Y-114847809D01*
X69664819Y-114847809D02*
X69712438Y-114990666D01*
X69712438Y-114990666D02*
X69807676Y-115085904D01*
X69807676Y-115085904D02*
X69902914Y-115133523D01*
X69902914Y-115133523D02*
X70093390Y-115181142D01*
X70093390Y-115181142D02*
X70236247Y-115181142D01*
X70236247Y-115181142D02*
X70426723Y-115133523D01*
X70426723Y-115133523D02*
X70521961Y-115085904D01*
X70521961Y-115085904D02*
X70617200Y-114990666D01*
X70617200Y-114990666D02*
X70664819Y-114847809D01*
X70664819Y-114847809D02*
X70664819Y-114609714D01*
X69664819Y-116038285D02*
X69664819Y-115847809D01*
X69664819Y-115847809D02*
X69712438Y-115752571D01*
X69712438Y-115752571D02*
X69760057Y-115704952D01*
X69760057Y-115704952D02*
X69902914Y-115609714D01*
X69902914Y-115609714D02*
X70093390Y-115562095D01*
X70093390Y-115562095D02*
X70474342Y-115562095D01*
X70474342Y-115562095D02*
X70569580Y-115609714D01*
X70569580Y-115609714D02*
X70617200Y-115657333D01*
X70617200Y-115657333D02*
X70664819Y-115752571D01*
X70664819Y-115752571D02*
X70664819Y-115943047D01*
X70664819Y-115943047D02*
X70617200Y-116038285D01*
X70617200Y-116038285D02*
X70569580Y-116085904D01*
X70569580Y-116085904D02*
X70474342Y-116133523D01*
X70474342Y-116133523D02*
X70236247Y-116133523D01*
X70236247Y-116133523D02*
X70141009Y-116085904D01*
X70141009Y-116085904D02*
X70093390Y-116038285D01*
X70093390Y-116038285D02*
X70045771Y-115943047D01*
X70045771Y-115943047D02*
X70045771Y-115752571D01*
X70045771Y-115752571D02*
X70093390Y-115657333D01*
X70093390Y-115657333D02*
X70141009Y-115609714D01*
X70141009Y-115609714D02*
X70236247Y-115562095D01*
X70664819Y-117085904D02*
X70664819Y-116514476D01*
X70664819Y-116800190D02*
X69664819Y-116800190D01*
X69664819Y-116800190D02*
X69807676Y-116704952D01*
X69807676Y-116704952D02*
X69902914Y-116609714D01*
X69902914Y-116609714D02*
X69950533Y-116514476D01*
X44982566Y-120771667D02*
X45775900Y-120771667D01*
X45775900Y-120771667D02*
X45869233Y-120818334D01*
X45869233Y-120818334D02*
X45915900Y-120865000D01*
X45915900Y-120865000D02*
X45962566Y-120958334D01*
X45962566Y-120958334D02*
X45962566Y-121145000D01*
X45962566Y-121145000D02*
X45915900Y-121238334D01*
X45915900Y-121238334D02*
X45869233Y-121285000D01*
X45869233Y-121285000D02*
X45775900Y-121331667D01*
X45775900Y-121331667D02*
X44982566Y-121331667D01*
X45962566Y-122311667D02*
X45962566Y-121751667D01*
X45962566Y-122031667D02*
X44982566Y-122031667D01*
X44982566Y-122031667D02*
X45122566Y-121938334D01*
X45122566Y-121938334D02*
X45215900Y-121845001D01*
X45215900Y-121845001D02*
X45262566Y-121751667D01*
X44982566Y-122918334D02*
X44982566Y-123011667D01*
X44982566Y-123011667D02*
X45029233Y-123105000D01*
X45029233Y-123105000D02*
X45075900Y-123151667D01*
X45075900Y-123151667D02*
X45169233Y-123198334D01*
X45169233Y-123198334D02*
X45355900Y-123245000D01*
X45355900Y-123245000D02*
X45589233Y-123245000D01*
X45589233Y-123245000D02*
X45775900Y-123198334D01*
X45775900Y-123198334D02*
X45869233Y-123151667D01*
X45869233Y-123151667D02*
X45915900Y-123105000D01*
X45915900Y-123105000D02*
X45962566Y-123011667D01*
X45962566Y-123011667D02*
X45962566Y-122918334D01*
X45962566Y-122918334D02*
X45915900Y-122825000D01*
X45915900Y-122825000D02*
X45869233Y-122778334D01*
X45869233Y-122778334D02*
X45775900Y-122731667D01*
X45775900Y-122731667D02*
X45589233Y-122685000D01*
X45589233Y-122685000D02*
X45355900Y-122685000D01*
X45355900Y-122685000D02*
X45169233Y-122731667D01*
X45169233Y-122731667D02*
X45075900Y-122778334D01*
X45075900Y-122778334D02*
X45029233Y-122825000D01*
X45029233Y-122825000D02*
X44982566Y-122918334D01*
D10*
X51829765Y-122775285D02*
X51841670Y-122763381D01*
X51841670Y-122763381D02*
X51853574Y-122727666D01*
X51853574Y-122727666D02*
X51853574Y-122703857D01*
X51853574Y-122703857D02*
X51841670Y-122668143D01*
X51841670Y-122668143D02*
X51817860Y-122644333D01*
X51817860Y-122644333D02*
X51794050Y-122632428D01*
X51794050Y-122632428D02*
X51746431Y-122620524D01*
X51746431Y-122620524D02*
X51710717Y-122620524D01*
X51710717Y-122620524D02*
X51663098Y-122632428D01*
X51663098Y-122632428D02*
X51639289Y-122644333D01*
X51639289Y-122644333D02*
X51615479Y-122668143D01*
X51615479Y-122668143D02*
X51603574Y-122703857D01*
X51603574Y-122703857D02*
X51603574Y-122727666D01*
X51603574Y-122727666D02*
X51615479Y-122763381D01*
X51615479Y-122763381D02*
X51627384Y-122775285D01*
X51853574Y-123013381D02*
X51853574Y-122870524D01*
X51853574Y-122941952D02*
X51603574Y-122941952D01*
X51603574Y-122941952D02*
X51639289Y-122918143D01*
X51639289Y-122918143D02*
X51663098Y-122894333D01*
X51663098Y-122894333D02*
X51675003Y-122870524D01*
X51603574Y-123168142D02*
X51603574Y-123191952D01*
X51603574Y-123191952D02*
X51615479Y-123215761D01*
X51615479Y-123215761D02*
X51627384Y-123227666D01*
X51627384Y-123227666D02*
X51651193Y-123239571D01*
X51651193Y-123239571D02*
X51698812Y-123251476D01*
X51698812Y-123251476D02*
X51758336Y-123251476D01*
X51758336Y-123251476D02*
X51805955Y-123239571D01*
X51805955Y-123239571D02*
X51829765Y-123227666D01*
X51829765Y-123227666D02*
X51841670Y-123215761D01*
X51841670Y-123215761D02*
X51853574Y-123191952D01*
X51853574Y-123191952D02*
X51853574Y-123168142D01*
X51853574Y-123168142D02*
X51841670Y-123144333D01*
X51841670Y-123144333D02*
X51829765Y-123132428D01*
X51829765Y-123132428D02*
X51805955Y-123120523D01*
X51805955Y-123120523D02*
X51758336Y-123108619D01*
X51758336Y-123108619D02*
X51698812Y-123108619D01*
X51698812Y-123108619D02*
X51651193Y-123120523D01*
X51651193Y-123120523D02*
X51627384Y-123132428D01*
X51627384Y-123132428D02*
X51615479Y-123144333D01*
X51615479Y-123144333D02*
X51603574Y-123168142D01*
X100822107Y-117553619D02*
X100836306Y-117562665D01*
X100836306Y-117562665D02*
X100873750Y-117566557D01*
X100873750Y-117566557D02*
X100896995Y-117561404D01*
X100896995Y-117561404D02*
X100929286Y-117542051D01*
X100929286Y-117542051D02*
X100947378Y-117513653D01*
X100947378Y-117513653D02*
X100953848Y-117487831D01*
X100953848Y-117487831D02*
X100955163Y-117438764D01*
X100955163Y-117438764D02*
X100947433Y-117403896D01*
X100947433Y-117403896D02*
X100925504Y-117359983D01*
X100925504Y-117359983D02*
X100908728Y-117339314D01*
X100908728Y-117339314D02*
X100880330Y-117321223D01*
X100880330Y-117321223D02*
X100842885Y-117317330D01*
X100842885Y-117317330D02*
X100819640Y-117322483D01*
X100819640Y-117322483D02*
X100787349Y-117341836D01*
X100787349Y-117341836D02*
X100778303Y-117356035D01*
X100711034Y-117602631D02*
X100664544Y-117612937D01*
X100664544Y-117612937D02*
X100638722Y-117606468D01*
X100638722Y-117606468D02*
X100624523Y-117597422D01*
X100624523Y-117597422D02*
X100593548Y-117567708D01*
X100593548Y-117567708D02*
X100571619Y-117523794D01*
X100571619Y-117523794D02*
X100551005Y-117430813D01*
X100551005Y-117430813D02*
X100557475Y-117404992D01*
X100557475Y-117404992D02*
X100566520Y-117390792D01*
X100566520Y-117390792D02*
X100587189Y-117374016D01*
X100587189Y-117374016D02*
X100633679Y-117363710D01*
X100633679Y-117363710D02*
X100659501Y-117370179D01*
X100659501Y-117370179D02*
X100673700Y-117379225D01*
X100673700Y-117379225D02*
X100690476Y-117399893D01*
X100690476Y-117399893D02*
X100703359Y-117458006D01*
X100703359Y-117458006D02*
X100696890Y-117483828D01*
X100696890Y-117483828D02*
X100687844Y-117498027D01*
X100687844Y-117498027D02*
X100667176Y-117514803D01*
X100667176Y-117514803D02*
X100620686Y-117525110D01*
X100620686Y-117525110D02*
X100594864Y-117518641D01*
X100594864Y-117518641D02*
X100580664Y-117509595D01*
X100580664Y-117509595D02*
X100563889Y-117488926D01*
D12*
X69206133Y-160684619D02*
X69206133Y-161398904D01*
X69206133Y-161398904D02*
X69253752Y-161541761D01*
X69253752Y-161541761D02*
X69348990Y-161637000D01*
X69348990Y-161637000D02*
X69491847Y-161684619D01*
X69491847Y-161684619D02*
X69587085Y-161684619D01*
X68301371Y-160684619D02*
X68491847Y-160684619D01*
X68491847Y-160684619D02*
X68587085Y-160732238D01*
X68587085Y-160732238D02*
X68634704Y-160779857D01*
X68634704Y-160779857D02*
X68729942Y-160922714D01*
X68729942Y-160922714D02*
X68777561Y-161113190D01*
X68777561Y-161113190D02*
X68777561Y-161494142D01*
X68777561Y-161494142D02*
X68729942Y-161589380D01*
X68729942Y-161589380D02*
X68682323Y-161637000D01*
X68682323Y-161637000D02*
X68587085Y-161684619D01*
X68587085Y-161684619D02*
X68396609Y-161684619D01*
X68396609Y-161684619D02*
X68301371Y-161637000D01*
X68301371Y-161637000D02*
X68253752Y-161589380D01*
X68253752Y-161589380D02*
X68206133Y-161494142D01*
X68206133Y-161494142D02*
X68206133Y-161256047D01*
X68206133Y-161256047D02*
X68253752Y-161160809D01*
X68253752Y-161160809D02*
X68301371Y-161113190D01*
X68301371Y-161113190D02*
X68396609Y-161065571D01*
X68396609Y-161065571D02*
X68587085Y-161065571D01*
X68587085Y-161065571D02*
X68682323Y-161113190D01*
X68682323Y-161113190D02*
X68729942Y-161160809D01*
X68729942Y-161160809D02*
X68777561Y-161256047D01*
D10*
X48556200Y-138514857D02*
X48432391Y-138428190D01*
X48556200Y-138366285D02*
X48296200Y-138366285D01*
X48296200Y-138366285D02*
X48296200Y-138465333D01*
X48296200Y-138465333D02*
X48308581Y-138490095D01*
X48308581Y-138490095D02*
X48320962Y-138502476D01*
X48320962Y-138502476D02*
X48345724Y-138514857D01*
X48345724Y-138514857D02*
X48382867Y-138514857D01*
X48382867Y-138514857D02*
X48407629Y-138502476D01*
X48407629Y-138502476D02*
X48420010Y-138490095D01*
X48420010Y-138490095D02*
X48432391Y-138465333D01*
X48432391Y-138465333D02*
X48432391Y-138366285D01*
X48320962Y-138613904D02*
X48308581Y-138626285D01*
X48308581Y-138626285D02*
X48296200Y-138651047D01*
X48296200Y-138651047D02*
X48296200Y-138712952D01*
X48296200Y-138712952D02*
X48308581Y-138737714D01*
X48308581Y-138737714D02*
X48320962Y-138750095D01*
X48320962Y-138750095D02*
X48345724Y-138762476D01*
X48345724Y-138762476D02*
X48370486Y-138762476D01*
X48370486Y-138762476D02*
X48407629Y-138750095D01*
X48407629Y-138750095D02*
X48556200Y-138601523D01*
X48556200Y-138601523D02*
X48556200Y-138762476D01*
X48296200Y-138923428D02*
X48296200Y-138948190D01*
X48296200Y-138948190D02*
X48308581Y-138972952D01*
X48308581Y-138972952D02*
X48320962Y-138985333D01*
X48320962Y-138985333D02*
X48345724Y-138997714D01*
X48345724Y-138997714D02*
X48395248Y-139010095D01*
X48395248Y-139010095D02*
X48457153Y-139010095D01*
X48457153Y-139010095D02*
X48506677Y-138997714D01*
X48506677Y-138997714D02*
X48531439Y-138985333D01*
X48531439Y-138985333D02*
X48543820Y-138972952D01*
X48543820Y-138972952D02*
X48556200Y-138948190D01*
X48556200Y-138948190D02*
X48556200Y-138923428D01*
X48556200Y-138923428D02*
X48543820Y-138898666D01*
X48543820Y-138898666D02*
X48531439Y-138886285D01*
X48531439Y-138886285D02*
X48506677Y-138873904D01*
X48506677Y-138873904D02*
X48457153Y-138861523D01*
X48457153Y-138861523D02*
X48395248Y-138861523D01*
X48395248Y-138861523D02*
X48345724Y-138873904D01*
X48345724Y-138873904D02*
X48320962Y-138886285D01*
X48320962Y-138886285D02*
X48308581Y-138898666D01*
X48308581Y-138898666D02*
X48296200Y-138923428D01*
X43476200Y-134066667D02*
X43352391Y-133980000D01*
X43476200Y-133918095D02*
X43216200Y-133918095D01*
X43216200Y-133918095D02*
X43216200Y-134017143D01*
X43216200Y-134017143D02*
X43228581Y-134041905D01*
X43228581Y-134041905D02*
X43240962Y-134054286D01*
X43240962Y-134054286D02*
X43265724Y-134066667D01*
X43265724Y-134066667D02*
X43302867Y-134066667D01*
X43302867Y-134066667D02*
X43327629Y-134054286D01*
X43327629Y-134054286D02*
X43340010Y-134041905D01*
X43340010Y-134041905D02*
X43352391Y-134017143D01*
X43352391Y-134017143D02*
X43352391Y-133918095D01*
X43327629Y-134215238D02*
X43315248Y-134190476D01*
X43315248Y-134190476D02*
X43302867Y-134178095D01*
X43302867Y-134178095D02*
X43278105Y-134165714D01*
X43278105Y-134165714D02*
X43265724Y-134165714D01*
X43265724Y-134165714D02*
X43240962Y-134178095D01*
X43240962Y-134178095D02*
X43228581Y-134190476D01*
X43228581Y-134190476D02*
X43216200Y-134215238D01*
X43216200Y-134215238D02*
X43216200Y-134264762D01*
X43216200Y-134264762D02*
X43228581Y-134289524D01*
X43228581Y-134289524D02*
X43240962Y-134301905D01*
X43240962Y-134301905D02*
X43265724Y-134314286D01*
X43265724Y-134314286D02*
X43278105Y-134314286D01*
X43278105Y-134314286D02*
X43302867Y-134301905D01*
X43302867Y-134301905D02*
X43315248Y-134289524D01*
X43315248Y-134289524D02*
X43327629Y-134264762D01*
X43327629Y-134264762D02*
X43327629Y-134215238D01*
X43327629Y-134215238D02*
X43340010Y-134190476D01*
X43340010Y-134190476D02*
X43352391Y-134178095D01*
X43352391Y-134178095D02*
X43377153Y-134165714D01*
X43377153Y-134165714D02*
X43426677Y-134165714D01*
X43426677Y-134165714D02*
X43451439Y-134178095D01*
X43451439Y-134178095D02*
X43463820Y-134190476D01*
X43463820Y-134190476D02*
X43476200Y-134215238D01*
X43476200Y-134215238D02*
X43476200Y-134264762D01*
X43476200Y-134264762D02*
X43463820Y-134289524D01*
X43463820Y-134289524D02*
X43451439Y-134301905D01*
X43451439Y-134301905D02*
X43426677Y-134314286D01*
X43426677Y-134314286D02*
X43377153Y-134314286D01*
X43377153Y-134314286D02*
X43352391Y-134301905D01*
X43352391Y-134301905D02*
X43340010Y-134289524D01*
X43340010Y-134289524D02*
X43327629Y-134264762D01*
X50080200Y-136228857D02*
X49956391Y-136142190D01*
X50080200Y-136080285D02*
X49820200Y-136080285D01*
X49820200Y-136080285D02*
X49820200Y-136179333D01*
X49820200Y-136179333D02*
X49832581Y-136204095D01*
X49832581Y-136204095D02*
X49844962Y-136216476D01*
X49844962Y-136216476D02*
X49869724Y-136228857D01*
X49869724Y-136228857D02*
X49906867Y-136228857D01*
X49906867Y-136228857D02*
X49931629Y-136216476D01*
X49931629Y-136216476D02*
X49944010Y-136204095D01*
X49944010Y-136204095D02*
X49956391Y-136179333D01*
X49956391Y-136179333D02*
X49956391Y-136080285D01*
X50080200Y-136476476D02*
X50080200Y-136327904D01*
X50080200Y-136402190D02*
X49820200Y-136402190D01*
X49820200Y-136402190D02*
X49857343Y-136377428D01*
X49857343Y-136377428D02*
X49882105Y-136352666D01*
X49882105Y-136352666D02*
X49894486Y-136327904D01*
X49820200Y-136711714D02*
X49820200Y-136587904D01*
X49820200Y-136587904D02*
X49944010Y-136575523D01*
X49944010Y-136575523D02*
X49931629Y-136587904D01*
X49931629Y-136587904D02*
X49919248Y-136612666D01*
X49919248Y-136612666D02*
X49919248Y-136674571D01*
X49919248Y-136674571D02*
X49931629Y-136699333D01*
X49931629Y-136699333D02*
X49944010Y-136711714D01*
X49944010Y-136711714D02*
X49968772Y-136724095D01*
X49968772Y-136724095D02*
X50030677Y-136724095D01*
X50030677Y-136724095D02*
X50055439Y-136711714D01*
X50055439Y-136711714D02*
X50067820Y-136699333D01*
X50067820Y-136699333D02*
X50080200Y-136674571D01*
X50080200Y-136674571D02*
X50080200Y-136612666D01*
X50080200Y-136612666D02*
X50067820Y-136587904D01*
X50067820Y-136587904D02*
X50055439Y-136575523D01*
D12*
X42307485Y-143623504D02*
X41831295Y-143623504D01*
X42402723Y-143909219D02*
X42069390Y-142909219D01*
X42069390Y-142909219D02*
X41736057Y-143909219D01*
X41450342Y-143004457D02*
X41402723Y-142956838D01*
X41402723Y-142956838D02*
X41307485Y-142909219D01*
X41307485Y-142909219D02*
X41069390Y-142909219D01*
X41069390Y-142909219D02*
X40974152Y-142956838D01*
X40974152Y-142956838D02*
X40926533Y-143004457D01*
X40926533Y-143004457D02*
X40878914Y-143099695D01*
X40878914Y-143099695D02*
X40878914Y-143194933D01*
X40878914Y-143194933D02*
X40926533Y-143337790D01*
X40926533Y-143337790D02*
X41497961Y-143909219D01*
X41497961Y-143909219D02*
X40878914Y-143909219D01*
X117390904Y-127036819D02*
X116819476Y-127036819D01*
X117105190Y-128036819D02*
X117105190Y-127036819D01*
X116486142Y-128036819D02*
X116486142Y-127036819D01*
X116486142Y-127036819D02*
X116105190Y-127036819D01*
X116105190Y-127036819D02*
X116009952Y-127084438D01*
X116009952Y-127084438D02*
X115962333Y-127132057D01*
X115962333Y-127132057D02*
X115914714Y-127227295D01*
X115914714Y-127227295D02*
X115914714Y-127370152D01*
X115914714Y-127370152D02*
X115962333Y-127465390D01*
X115962333Y-127465390D02*
X116009952Y-127513009D01*
X116009952Y-127513009D02*
X116105190Y-127560628D01*
X116105190Y-127560628D02*
X116486142Y-127560628D01*
X115581380Y-127036819D02*
X114962333Y-127036819D01*
X114962333Y-127036819D02*
X115295666Y-127417771D01*
X115295666Y-127417771D02*
X115152809Y-127417771D01*
X115152809Y-127417771D02*
X115057571Y-127465390D01*
X115057571Y-127465390D02*
X115009952Y-127513009D01*
X115009952Y-127513009D02*
X114962333Y-127608247D01*
X114962333Y-127608247D02*
X114962333Y-127846342D01*
X114962333Y-127846342D02*
X115009952Y-127941580D01*
X115009952Y-127941580D02*
X115057571Y-127989200D01*
X115057571Y-127989200D02*
X115152809Y-128036819D01*
X115152809Y-128036819D02*
X115438523Y-128036819D01*
X115438523Y-128036819D02*
X115533761Y-127989200D01*
X115533761Y-127989200D02*
X115581380Y-127941580D01*
D13*
X85809664Y-118446167D02*
X85847760Y-118408071D01*
X85847760Y-118408071D02*
X85885855Y-118293786D01*
X85885855Y-118293786D02*
X85885855Y-118217595D01*
X85885855Y-118217595D02*
X85847760Y-118103309D01*
X85847760Y-118103309D02*
X85771569Y-118027119D01*
X85771569Y-118027119D02*
X85695379Y-117989024D01*
X85695379Y-117989024D02*
X85542998Y-117950928D01*
X85542998Y-117950928D02*
X85428712Y-117950928D01*
X85428712Y-117950928D02*
X85276331Y-117989024D01*
X85276331Y-117989024D02*
X85200140Y-118027119D01*
X85200140Y-118027119D02*
X85123950Y-118103309D01*
X85123950Y-118103309D02*
X85085855Y-118217595D01*
X85085855Y-118217595D02*
X85085855Y-118293786D01*
X85085855Y-118293786D02*
X85123950Y-118408071D01*
X85123950Y-118408071D02*
X85162045Y-118446167D01*
X85352521Y-119131881D02*
X85885855Y-119131881D01*
X85047760Y-118941405D02*
X85619188Y-118750928D01*
X85619188Y-118750928D02*
X85619188Y-119246167D01*
D12*
X100089819Y-109728095D02*
X100899342Y-109728095D01*
X100899342Y-109728095D02*
X100994580Y-109775714D01*
X100994580Y-109775714D02*
X101042200Y-109823333D01*
X101042200Y-109823333D02*
X101089819Y-109918571D01*
X101089819Y-109918571D02*
X101089819Y-110109047D01*
X101089819Y-110109047D02*
X101042200Y-110204285D01*
X101042200Y-110204285D02*
X100994580Y-110251904D01*
X100994580Y-110251904D02*
X100899342Y-110299523D01*
X100899342Y-110299523D02*
X100089819Y-110299523D01*
X100518390Y-110918571D02*
X100470771Y-110823333D01*
X100470771Y-110823333D02*
X100423152Y-110775714D01*
X100423152Y-110775714D02*
X100327914Y-110728095D01*
X100327914Y-110728095D02*
X100280295Y-110728095D01*
X100280295Y-110728095D02*
X100185057Y-110775714D01*
X100185057Y-110775714D02*
X100137438Y-110823333D01*
X100137438Y-110823333D02*
X100089819Y-110918571D01*
X100089819Y-110918571D02*
X100089819Y-111109047D01*
X100089819Y-111109047D02*
X100137438Y-111204285D01*
X100137438Y-111204285D02*
X100185057Y-111251904D01*
X100185057Y-111251904D02*
X100280295Y-111299523D01*
X100280295Y-111299523D02*
X100327914Y-111299523D01*
X100327914Y-111299523D02*
X100423152Y-111251904D01*
X100423152Y-111251904D02*
X100470771Y-111204285D01*
X100470771Y-111204285D02*
X100518390Y-111109047D01*
X100518390Y-111109047D02*
X100518390Y-110918571D01*
X100518390Y-110918571D02*
X100566009Y-110823333D01*
X100566009Y-110823333D02*
X100613628Y-110775714D01*
X100613628Y-110775714D02*
X100708866Y-110728095D01*
X100708866Y-110728095D02*
X100899342Y-110728095D01*
X100899342Y-110728095D02*
X100994580Y-110775714D01*
X100994580Y-110775714D02*
X101042200Y-110823333D01*
X101042200Y-110823333D02*
X101089819Y-110918571D01*
X101089819Y-110918571D02*
X101089819Y-111109047D01*
X101089819Y-111109047D02*
X101042200Y-111204285D01*
X101042200Y-111204285D02*
X100994580Y-111251904D01*
X100994580Y-111251904D02*
X100899342Y-111299523D01*
X100899342Y-111299523D02*
X100708866Y-111299523D01*
X100708866Y-111299523D02*
X100613628Y-111251904D01*
X100613628Y-111251904D02*
X100566009Y-111204285D01*
X100566009Y-111204285D02*
X100518390Y-111109047D01*
D10*
X103399615Y-121212723D02*
X103392500Y-121227981D01*
X103392500Y-121227981D02*
X103393528Y-121265613D01*
X103393528Y-121265613D02*
X103401672Y-121287987D01*
X103401672Y-121287987D02*
X103425073Y-121317476D01*
X103425073Y-121317476D02*
X103455590Y-121331706D01*
X103455590Y-121331706D02*
X103482036Y-121334750D01*
X103482036Y-121334750D02*
X103530855Y-121329650D01*
X103530855Y-121329650D02*
X103564415Y-121317435D01*
X103564415Y-121317435D02*
X103605091Y-121289961D01*
X103605091Y-121289961D02*
X103623393Y-121270631D01*
X103623393Y-121270631D02*
X103637623Y-121240114D01*
X103637623Y-121240114D02*
X103636595Y-121202482D01*
X103636595Y-121202482D02*
X103628451Y-121180108D01*
X103628451Y-121180108D02*
X103605050Y-121150620D01*
X103605050Y-121150620D02*
X103589791Y-121143504D01*
X103295808Y-120997130D02*
X103344668Y-121131372D01*
X103320238Y-121064251D02*
X103555161Y-120978746D01*
X103555161Y-120978746D02*
X103529744Y-121013334D01*
X103529744Y-121013334D02*
X103515514Y-121043851D01*
X103515514Y-121043851D02*
X103512470Y-121070297D01*
X103255092Y-120885262D02*
X103238805Y-120840515D01*
X103238805Y-120840515D02*
X103241848Y-120814069D01*
X103241848Y-120814069D02*
X103248964Y-120798811D01*
X103248964Y-120798811D02*
X103274381Y-120764222D01*
X103274381Y-120764222D02*
X103315056Y-120736749D01*
X103315056Y-120736749D02*
X103404551Y-120704175D01*
X103404551Y-120704175D02*
X103430996Y-120707219D01*
X103430996Y-120707219D02*
X103446255Y-120714334D01*
X103446255Y-120714334D02*
X103465585Y-120732636D01*
X103465585Y-120732636D02*
X103481871Y-120777383D01*
X103481871Y-120777383D02*
X103478828Y-120803829D01*
X103478828Y-120803829D02*
X103471713Y-120819087D01*
X103471713Y-120819087D02*
X103453411Y-120838417D01*
X103453411Y-120838417D02*
X103397477Y-120858775D01*
X103397477Y-120858775D02*
X103371031Y-120855732D01*
X103371031Y-120855732D02*
X103355773Y-120848617D01*
X103355773Y-120848617D02*
X103336443Y-120830315D01*
X103336443Y-120830315D02*
X103320156Y-120785568D01*
X103320156Y-120785568D02*
X103323200Y-120759122D01*
X103323200Y-120759122D02*
X103330315Y-120743864D01*
X103330315Y-120743864D02*
X103348617Y-120724534D01*
D12*
X96417085Y-160732238D02*
X96512323Y-160684619D01*
X96512323Y-160684619D02*
X96655180Y-160684619D01*
X96655180Y-160684619D02*
X96798037Y-160732238D01*
X96798037Y-160732238D02*
X96893275Y-160827476D01*
X96893275Y-160827476D02*
X96940894Y-160922714D01*
X96940894Y-160922714D02*
X96988513Y-161113190D01*
X96988513Y-161113190D02*
X96988513Y-161256047D01*
X96988513Y-161256047D02*
X96940894Y-161446523D01*
X96940894Y-161446523D02*
X96893275Y-161541761D01*
X96893275Y-161541761D02*
X96798037Y-161637000D01*
X96798037Y-161637000D02*
X96655180Y-161684619D01*
X96655180Y-161684619D02*
X96559942Y-161684619D01*
X96559942Y-161684619D02*
X96417085Y-161637000D01*
X96417085Y-161637000D02*
X96369466Y-161589380D01*
X96369466Y-161589380D02*
X96369466Y-161256047D01*
X96369466Y-161256047D02*
X96559942Y-161256047D01*
X95417085Y-161684619D02*
X95988513Y-161684619D01*
X95702799Y-161684619D02*
X95702799Y-160684619D01*
X95702799Y-160684619D02*
X95798037Y-160827476D01*
X95798037Y-160827476D02*
X95893275Y-160922714D01*
X95893275Y-160922714D02*
X95988513Y-160970333D01*
D10*
X110945284Y-125107006D02*
X111047370Y-124995568D01*
X111092584Y-125126398D02*
X111126521Y-124868623D01*
X111126521Y-124868623D02*
X111028321Y-124855694D01*
X111028321Y-124855694D02*
X111002155Y-124864737D01*
X111002155Y-124864737D02*
X110988264Y-124875396D01*
X110988264Y-124875396D02*
X110972757Y-124898330D01*
X110972757Y-124898330D02*
X110967909Y-124935155D01*
X110967909Y-124935155D02*
X110976952Y-124961321D01*
X110976952Y-124961321D02*
X110987611Y-124975212D01*
X110987611Y-124975212D02*
X111010545Y-124990720D01*
X111010545Y-124990720D02*
X111108745Y-125003648D01*
X110699783Y-125074685D02*
X110847084Y-125094077D01*
X110773434Y-125084381D02*
X110807370Y-124826606D01*
X110807370Y-124826606D02*
X110827072Y-124866663D01*
X110827072Y-124866663D02*
X110848390Y-124894445D01*
X110848390Y-124894445D02*
X110871324Y-124909952D01*
X110632288Y-124828531D02*
X110621629Y-124814640D01*
X110621629Y-124814640D02*
X110598695Y-124799133D01*
X110598695Y-124799133D02*
X110537320Y-124791053D01*
X110537320Y-124791053D02*
X110511154Y-124800096D01*
X110511154Y-124800096D02*
X110497263Y-124810755D01*
X110497263Y-124810755D02*
X110481755Y-124833689D01*
X110481755Y-124833689D02*
X110478523Y-124858239D01*
X110478523Y-124858239D02*
X110485950Y-124896680D01*
X110485950Y-124896680D02*
X110613858Y-125063373D01*
X110613858Y-125063373D02*
X110454283Y-125042364D01*
D11*
X115510832Y-159775857D02*
X115529880Y-159756809D01*
X115529880Y-159756809D02*
X115548927Y-159699667D01*
X115548927Y-159699667D02*
X115548927Y-159661571D01*
X115548927Y-159661571D02*
X115529880Y-159604428D01*
X115529880Y-159604428D02*
X115491784Y-159566333D01*
X115491784Y-159566333D02*
X115453689Y-159547286D01*
X115453689Y-159547286D02*
X115377499Y-159528238D01*
X115377499Y-159528238D02*
X115320356Y-159528238D01*
X115320356Y-159528238D02*
X115244165Y-159547286D01*
X115244165Y-159547286D02*
X115206070Y-159566333D01*
X115206070Y-159566333D02*
X115167975Y-159604428D01*
X115167975Y-159604428D02*
X115148927Y-159661571D01*
X115148927Y-159661571D02*
X115148927Y-159699667D01*
X115148927Y-159699667D02*
X115167975Y-159756809D01*
X115167975Y-159756809D02*
X115187022Y-159775857D01*
X115548927Y-160156809D02*
X115548927Y-159928238D01*
X115548927Y-160042524D02*
X115148927Y-160042524D01*
X115148927Y-160042524D02*
X115206070Y-160004428D01*
X115206070Y-160004428D02*
X115244165Y-159966333D01*
X115244165Y-159966333D02*
X115263213Y-159928238D01*
X115148927Y-160499666D02*
X115148927Y-160423476D01*
X115148927Y-160423476D02*
X115167975Y-160385380D01*
X115167975Y-160385380D02*
X115187022Y-160366333D01*
X115187022Y-160366333D02*
X115244165Y-160328238D01*
X115244165Y-160328238D02*
X115320356Y-160309190D01*
X115320356Y-160309190D02*
X115472737Y-160309190D01*
X115472737Y-160309190D02*
X115510832Y-160328238D01*
X115510832Y-160328238D02*
X115529880Y-160347285D01*
X115529880Y-160347285D02*
X115548927Y-160385380D01*
X115548927Y-160385380D02*
X115548927Y-160461571D01*
X115548927Y-160461571D02*
X115529880Y-160499666D01*
X115529880Y-160499666D02*
X115510832Y-160518714D01*
X115510832Y-160518714D02*
X115472737Y-160537761D01*
X115472737Y-160537761D02*
X115377499Y-160537761D01*
X115377499Y-160537761D02*
X115339403Y-160518714D01*
X115339403Y-160518714D02*
X115320356Y-160499666D01*
X115320356Y-160499666D02*
X115301308Y-160461571D01*
X115301308Y-160461571D02*
X115301308Y-160385380D01*
X115301308Y-160385380D02*
X115320356Y-160347285D01*
X115320356Y-160347285D02*
X115339403Y-160328238D01*
X115339403Y-160328238D02*
X115377499Y-160309190D01*
D12*
X55675161Y-143357409D02*
X55532304Y-143405028D01*
X55532304Y-143405028D02*
X55484685Y-143452647D01*
X55484685Y-143452647D02*
X55437066Y-143547885D01*
X55437066Y-143547885D02*
X55437066Y-143690742D01*
X55437066Y-143690742D02*
X55484685Y-143785980D01*
X55484685Y-143785980D02*
X55532304Y-143833600D01*
X55532304Y-143833600D02*
X55627542Y-143881219D01*
X55627542Y-143881219D02*
X56008494Y-143881219D01*
X56008494Y-143881219D02*
X56008494Y-142881219D01*
X56008494Y-142881219D02*
X55675161Y-142881219D01*
X55675161Y-142881219D02*
X55579923Y-142928838D01*
X55579923Y-142928838D02*
X55532304Y-142976457D01*
X55532304Y-142976457D02*
X55484685Y-143071695D01*
X55484685Y-143071695D02*
X55484685Y-143166933D01*
X55484685Y-143166933D02*
X55532304Y-143262171D01*
X55532304Y-143262171D02*
X55579923Y-143309790D01*
X55579923Y-143309790D02*
X55675161Y-143357409D01*
X55675161Y-143357409D02*
X56008494Y-143357409D01*
X54484685Y-143881219D02*
X55056113Y-143881219D01*
X54770399Y-143881219D02*
X54770399Y-142881219D01*
X54770399Y-142881219D02*
X54865637Y-143024076D01*
X54865637Y-143024076D02*
X54960875Y-143119314D01*
X54960875Y-143119314D02*
X55056113Y-143166933D01*
X42359275Y-161160809D02*
X42025942Y-161160809D01*
X41883085Y-161684619D02*
X42359275Y-161684619D01*
X42359275Y-161684619D02*
X42359275Y-160684619D01*
X42359275Y-160684619D02*
X41883085Y-160684619D01*
X40930704Y-161684619D02*
X41502132Y-161684619D01*
X41216418Y-161684619D02*
X41216418Y-160684619D01*
X41216418Y-160684619D02*
X41311656Y-160827476D01*
X41311656Y-160827476D02*
X41406894Y-160922714D01*
X41406894Y-160922714D02*
X41502132Y-160970333D01*
D10*
X43447765Y-136209285D02*
X43459670Y-136197381D01*
X43459670Y-136197381D02*
X43471574Y-136161666D01*
X43471574Y-136161666D02*
X43471574Y-136137857D01*
X43471574Y-136137857D02*
X43459670Y-136102143D01*
X43459670Y-136102143D02*
X43435860Y-136078333D01*
X43435860Y-136078333D02*
X43412050Y-136066428D01*
X43412050Y-136066428D02*
X43364431Y-136054524D01*
X43364431Y-136054524D02*
X43328717Y-136054524D01*
X43328717Y-136054524D02*
X43281098Y-136066428D01*
X43281098Y-136066428D02*
X43257289Y-136078333D01*
X43257289Y-136078333D02*
X43233479Y-136102143D01*
X43233479Y-136102143D02*
X43221574Y-136137857D01*
X43221574Y-136137857D02*
X43221574Y-136161666D01*
X43221574Y-136161666D02*
X43233479Y-136197381D01*
X43233479Y-136197381D02*
X43245384Y-136209285D01*
X43245384Y-136304524D02*
X43233479Y-136316428D01*
X43233479Y-136316428D02*
X43221574Y-136340238D01*
X43221574Y-136340238D02*
X43221574Y-136399762D01*
X43221574Y-136399762D02*
X43233479Y-136423571D01*
X43233479Y-136423571D02*
X43245384Y-136435476D01*
X43245384Y-136435476D02*
X43269193Y-136447381D01*
X43269193Y-136447381D02*
X43293003Y-136447381D01*
X43293003Y-136447381D02*
X43328717Y-136435476D01*
X43328717Y-136435476D02*
X43471574Y-136292619D01*
X43471574Y-136292619D02*
X43471574Y-136447381D01*
X43245384Y-136542619D02*
X43233479Y-136554523D01*
X43233479Y-136554523D02*
X43221574Y-136578333D01*
X43221574Y-136578333D02*
X43221574Y-136637857D01*
X43221574Y-136637857D02*
X43233479Y-136661666D01*
X43233479Y-136661666D02*
X43245384Y-136673571D01*
X43245384Y-136673571D02*
X43269193Y-136685476D01*
X43269193Y-136685476D02*
X43293003Y-136685476D01*
X43293003Y-136685476D02*
X43328717Y-136673571D01*
X43328717Y-136673571D02*
X43471574Y-136530714D01*
X43471574Y-136530714D02*
X43471574Y-136685476D01*
D12*
X65584819Y-119435714D02*
X64584819Y-119435714D01*
X64584819Y-119435714D02*
X64584819Y-119673809D01*
X64584819Y-119673809D02*
X64632438Y-119816666D01*
X64632438Y-119816666D02*
X64727676Y-119911904D01*
X64727676Y-119911904D02*
X64822914Y-119959523D01*
X64822914Y-119959523D02*
X65013390Y-120007142D01*
X65013390Y-120007142D02*
X65156247Y-120007142D01*
X65156247Y-120007142D02*
X65346723Y-119959523D01*
X65346723Y-119959523D02*
X65441961Y-119911904D01*
X65441961Y-119911904D02*
X65537200Y-119816666D01*
X65537200Y-119816666D02*
X65584819Y-119673809D01*
X65584819Y-119673809D02*
X65584819Y-119435714D01*
X64584819Y-120864285D02*
X64584819Y-120673809D01*
X64584819Y-120673809D02*
X64632438Y-120578571D01*
X64632438Y-120578571D02*
X64680057Y-120530952D01*
X64680057Y-120530952D02*
X64822914Y-120435714D01*
X64822914Y-120435714D02*
X65013390Y-120388095D01*
X65013390Y-120388095D02*
X65394342Y-120388095D01*
X65394342Y-120388095D02*
X65489580Y-120435714D01*
X65489580Y-120435714D02*
X65537200Y-120483333D01*
X65537200Y-120483333D02*
X65584819Y-120578571D01*
X65584819Y-120578571D02*
X65584819Y-120769047D01*
X65584819Y-120769047D02*
X65537200Y-120864285D01*
X65537200Y-120864285D02*
X65489580Y-120911904D01*
X65489580Y-120911904D02*
X65394342Y-120959523D01*
X65394342Y-120959523D02*
X65156247Y-120959523D01*
X65156247Y-120959523D02*
X65061009Y-120911904D01*
X65061009Y-120911904D02*
X65013390Y-120864285D01*
X65013390Y-120864285D02*
X64965771Y-120769047D01*
X64965771Y-120769047D02*
X64965771Y-120578571D01*
X64965771Y-120578571D02*
X65013390Y-120483333D01*
X65013390Y-120483333D02*
X65061009Y-120435714D01*
X65061009Y-120435714D02*
X65156247Y-120388095D01*
X64584819Y-121864285D02*
X64584819Y-121388095D01*
X64584819Y-121388095D02*
X65061009Y-121340476D01*
X65061009Y-121340476D02*
X65013390Y-121388095D01*
X65013390Y-121388095D02*
X64965771Y-121483333D01*
X64965771Y-121483333D02*
X64965771Y-121721428D01*
X64965771Y-121721428D02*
X65013390Y-121816666D01*
X65013390Y-121816666D02*
X65061009Y-121864285D01*
X65061009Y-121864285D02*
X65156247Y-121911904D01*
X65156247Y-121911904D02*
X65394342Y-121911904D01*
X65394342Y-121911904D02*
X65489580Y-121864285D01*
X65489580Y-121864285D02*
X65537200Y-121816666D01*
X65537200Y-121816666D02*
X65584819Y-121721428D01*
X65584819Y-121721428D02*
X65584819Y-121483333D01*
X65584819Y-121483333D02*
X65537200Y-121388095D01*
X65537200Y-121388095D02*
X65489580Y-121340476D01*
X91856666Y-182218566D02*
X91856666Y-183011900D01*
X91856666Y-183011900D02*
X91810000Y-183105233D01*
X91810000Y-183105233D02*
X91763333Y-183151900D01*
X91763333Y-183151900D02*
X91670000Y-183198566D01*
X91670000Y-183198566D02*
X91483333Y-183198566D01*
X91483333Y-183198566D02*
X91390000Y-183151900D01*
X91390000Y-183151900D02*
X91343333Y-183105233D01*
X91343333Y-183105233D02*
X91296666Y-183011900D01*
X91296666Y-183011900D02*
X91296666Y-182218566D01*
X90409999Y-182218566D02*
X90596666Y-182218566D01*
X90596666Y-182218566D02*
X90689999Y-182265233D01*
X90689999Y-182265233D02*
X90736666Y-182311900D01*
X90736666Y-182311900D02*
X90829999Y-182451900D01*
X90829999Y-182451900D02*
X90876666Y-182638566D01*
X90876666Y-182638566D02*
X90876666Y-183011900D01*
X90876666Y-183011900D02*
X90829999Y-183105233D01*
X90829999Y-183105233D02*
X90783333Y-183151900D01*
X90783333Y-183151900D02*
X90689999Y-183198566D01*
X90689999Y-183198566D02*
X90503333Y-183198566D01*
X90503333Y-183198566D02*
X90409999Y-183151900D01*
X90409999Y-183151900D02*
X90363333Y-183105233D01*
X90363333Y-183105233D02*
X90316666Y-183011900D01*
X90316666Y-183011900D02*
X90316666Y-182778566D01*
X90316666Y-182778566D02*
X90363333Y-182685233D01*
X90363333Y-182685233D02*
X90409999Y-182638566D01*
X90409999Y-182638566D02*
X90503333Y-182591900D01*
X90503333Y-182591900D02*
X90689999Y-182591900D01*
X90689999Y-182591900D02*
X90783333Y-182638566D01*
X90783333Y-182638566D02*
X90829999Y-182685233D01*
X90829999Y-182685233D02*
X90876666Y-182778566D01*
D11*
X48865127Y-129113738D02*
X49188937Y-129113738D01*
X49188937Y-129113738D02*
X49227032Y-129132785D01*
X49227032Y-129132785D02*
X49246080Y-129151833D01*
X49246080Y-129151833D02*
X49265127Y-129189928D01*
X49265127Y-129189928D02*
X49265127Y-129266119D01*
X49265127Y-129266119D02*
X49246080Y-129304214D01*
X49246080Y-129304214D02*
X49227032Y-129323261D01*
X49227032Y-129323261D02*
X49188937Y-129342309D01*
X49188937Y-129342309D02*
X48865127Y-129342309D01*
X48865127Y-129723262D02*
X48865127Y-129532786D01*
X48865127Y-129532786D02*
X49055603Y-129513738D01*
X49055603Y-129513738D02*
X49036556Y-129532786D01*
X49036556Y-129532786D02*
X49017508Y-129570881D01*
X49017508Y-129570881D02*
X49017508Y-129666119D01*
X49017508Y-129666119D02*
X49036556Y-129704214D01*
X49036556Y-129704214D02*
X49055603Y-129723262D01*
X49055603Y-129723262D02*
X49093699Y-129742309D01*
X49093699Y-129742309D02*
X49188937Y-129742309D01*
X49188937Y-129742309D02*
X49227032Y-129723262D01*
X49227032Y-129723262D02*
X49246080Y-129704214D01*
X49246080Y-129704214D02*
X49265127Y-129666119D01*
X49265127Y-129666119D02*
X49265127Y-129570881D01*
X49265127Y-129570881D02*
X49246080Y-129532786D01*
X49246080Y-129532786D02*
X49227032Y-129513738D01*
D12*
X110678304Y-161684619D02*
X110678304Y-160684619D01*
X110678304Y-161160809D02*
X110106876Y-161160809D01*
X110106876Y-161684619D02*
X110106876Y-160684619D01*
X109106876Y-161684619D02*
X109678304Y-161684619D01*
X109392590Y-161684619D02*
X109392590Y-160684619D01*
X109392590Y-160684619D02*
X109487828Y-160827476D01*
X109487828Y-160827476D02*
X109583066Y-160922714D01*
X109583066Y-160922714D02*
X109678304Y-160970333D01*
D10*
X47032200Y-133942857D02*
X46908391Y-133856190D01*
X47032200Y-133794285D02*
X46772200Y-133794285D01*
X46772200Y-133794285D02*
X46772200Y-133893333D01*
X46772200Y-133893333D02*
X46784581Y-133918095D01*
X46784581Y-133918095D02*
X46796962Y-133930476D01*
X46796962Y-133930476D02*
X46821724Y-133942857D01*
X46821724Y-133942857D02*
X46858867Y-133942857D01*
X46858867Y-133942857D02*
X46883629Y-133930476D01*
X46883629Y-133930476D02*
X46896010Y-133918095D01*
X46896010Y-133918095D02*
X46908391Y-133893333D01*
X46908391Y-133893333D02*
X46908391Y-133794285D01*
X47032200Y-134190476D02*
X47032200Y-134041904D01*
X47032200Y-134116190D02*
X46772200Y-134116190D01*
X46772200Y-134116190D02*
X46809343Y-134091428D01*
X46809343Y-134091428D02*
X46834105Y-134066666D01*
X46834105Y-134066666D02*
X46846486Y-134041904D01*
X46858867Y-134413333D02*
X47032200Y-134413333D01*
X46759820Y-134351428D02*
X46945534Y-134289523D01*
X46945534Y-134289523D02*
X46945534Y-134450476D01*
X99146058Y-129706685D02*
X99162495Y-129703042D01*
X99162495Y-129703042D02*
X99191725Y-129679317D01*
X99191725Y-129679317D02*
X99204518Y-129659236D01*
X99204518Y-129659236D02*
X99213667Y-129622719D01*
X99213667Y-129622719D02*
X99206379Y-129589845D01*
X99206379Y-129589845D02*
X99192694Y-129567012D01*
X99192694Y-129567012D02*
X99158929Y-129531386D01*
X99158929Y-129531386D02*
X99128808Y-129512196D01*
X99128808Y-129512196D02*
X99082250Y-129496651D01*
X99082250Y-129496651D02*
X99055773Y-129493899D01*
X99055773Y-129493899D02*
X99022899Y-129501186D01*
X99022899Y-129501186D02*
X98993670Y-129524911D01*
X98993670Y-129524911D02*
X98980877Y-129544992D01*
X98980877Y-129544992D02*
X98971728Y-129581509D01*
X98971728Y-129581509D02*
X98975372Y-129597946D01*
X99038211Y-129920286D02*
X99114968Y-129799801D01*
X99076589Y-129860044D02*
X98865741Y-129725719D01*
X98865741Y-129725719D02*
X98908655Y-129724827D01*
X98908655Y-129724827D02*
X98941529Y-129717539D01*
X98941529Y-129717539D02*
X98964362Y-129703855D01*
X98840969Y-129964013D02*
X98843722Y-129937536D01*
X98843722Y-129937536D02*
X98840078Y-129921099D01*
X98840078Y-129921099D02*
X98826393Y-129898266D01*
X98826393Y-129898266D02*
X98816353Y-129891869D01*
X98816353Y-129891869D02*
X98789876Y-129889117D01*
X98789876Y-129889117D02*
X98773439Y-129892761D01*
X98773439Y-129892761D02*
X98750606Y-129906445D01*
X98750606Y-129906445D02*
X98725020Y-129946607D01*
X98725020Y-129946607D02*
X98722268Y-129973084D01*
X98722268Y-129973084D02*
X98725912Y-129989521D01*
X98725912Y-129989521D02*
X98739596Y-130012354D01*
X98739596Y-130012354D02*
X98749636Y-130018750D01*
X98749636Y-130018750D02*
X98776113Y-130021503D01*
X98776113Y-130021503D02*
X98792550Y-130017859D01*
X98792550Y-130017859D02*
X98815383Y-130004175D01*
X98815383Y-130004175D02*
X98840969Y-129964013D01*
X98840969Y-129964013D02*
X98863802Y-129950329D01*
X98863802Y-129950329D02*
X98880239Y-129946685D01*
X98880239Y-129946685D02*
X98906716Y-129949437D01*
X98906716Y-129949437D02*
X98946878Y-129975023D01*
X98946878Y-129975023D02*
X98960562Y-129997856D01*
X98960562Y-129997856D02*
X98964206Y-130014293D01*
X98964206Y-130014293D02*
X98961454Y-130040770D01*
X98961454Y-130040770D02*
X98935868Y-130080932D01*
X98935868Y-130080932D02*
X98913035Y-130094616D01*
X98913035Y-130094616D02*
X98896598Y-130098260D01*
X98896598Y-130098260D02*
X98870121Y-130095507D01*
X98870121Y-130095507D02*
X98829959Y-130069922D01*
X98829959Y-130069922D02*
X98816275Y-130047088D01*
X98816275Y-130047088D02*
X98812631Y-130030652D01*
X98812631Y-130030652D02*
X98815383Y-130004175D01*
X104737186Y-114897226D02*
X104886023Y-114923449D01*
X104799975Y-115031878D02*
X105035615Y-114921997D01*
X105035615Y-114921997D02*
X104993756Y-114832229D01*
X104993756Y-114832229D02*
X104972070Y-114815020D01*
X104972070Y-114815020D02*
X104955617Y-114809031D01*
X104955617Y-114809031D02*
X104927943Y-114808275D01*
X104927943Y-114808275D02*
X104894280Y-114823972D01*
X104894280Y-114823972D02*
X104877070Y-114845658D01*
X104877070Y-114845658D02*
X104871082Y-114862112D01*
X104871082Y-114862112D02*
X104870325Y-114889786D01*
X104870325Y-114889786D02*
X104912185Y-114979554D01*
X104873410Y-114574147D02*
X104925735Y-114686357D01*
X104925735Y-114686357D02*
X104818757Y-114749902D01*
X104818757Y-114749902D02*
X104824746Y-114733449D01*
X104824746Y-114733449D02*
X104825502Y-114705774D01*
X104825502Y-114705774D02*
X104799340Y-114649670D01*
X104799340Y-114649670D02*
X104777654Y-114632460D01*
X104777654Y-114632460D02*
X104761201Y-114626472D01*
X104761201Y-114626472D02*
X104733527Y-114625715D01*
X104733527Y-114625715D02*
X104677422Y-114651878D01*
X104677422Y-114651878D02*
X104660212Y-114673563D01*
X104660212Y-114673563D02*
X104654224Y-114690017D01*
X104654224Y-114690017D02*
X104653468Y-114717691D01*
X104653468Y-114717691D02*
X104679630Y-114773796D01*
X104679630Y-114773796D02*
X104701315Y-114791005D01*
X104701315Y-114791005D02*
X104717769Y-114796994D01*
X104701618Y-132772065D02*
X104697260Y-132788327D01*
X104697260Y-132788327D02*
X104704807Y-132825209D01*
X104704807Y-132825209D02*
X104716712Y-132845828D01*
X104716712Y-132845828D02*
X104744879Y-132870805D01*
X104744879Y-132870805D02*
X104777404Y-132879520D01*
X104777404Y-132879520D02*
X104803976Y-132877925D01*
X104803976Y-132877925D02*
X104851167Y-132864426D01*
X104851167Y-132864426D02*
X104882097Y-132846568D01*
X104882097Y-132846568D02*
X104917384Y-132812449D01*
X104917384Y-132812449D02*
X104932051Y-132790235D01*
X104932051Y-132790235D02*
X104940766Y-132757710D01*
X104940766Y-132757710D02*
X104933219Y-132720828D01*
X104933219Y-132720828D02*
X104921314Y-132700209D01*
X104921314Y-132700209D02*
X104893147Y-132675232D01*
X104893147Y-132675232D02*
X104876885Y-132670874D01*
X104561950Y-132577773D02*
X104633379Y-132701491D01*
X104597665Y-132639632D02*
X104814171Y-132514632D01*
X104814171Y-132514632D02*
X104795146Y-132553109D01*
X104795146Y-132553109D02*
X104786431Y-132585633D01*
X104786431Y-132585633D02*
X104788026Y-132612205D01*
X104442903Y-132371576D02*
X104514331Y-132495294D01*
X104478617Y-132433435D02*
X104695123Y-132308435D01*
X104695123Y-132308435D02*
X104676099Y-132346912D01*
X104676099Y-132346912D02*
X104667384Y-132379437D01*
X104667384Y-132379437D02*
X104668979Y-132406009D01*
D12*
X36968094Y-142509819D02*
X36396666Y-142509819D01*
X36682380Y-143509819D02*
X36682380Y-142509819D01*
X36063332Y-143509819D02*
X36063332Y-142509819D01*
X36063332Y-142509819D02*
X35682380Y-142509819D01*
X35682380Y-142509819D02*
X35587142Y-142557438D01*
X35587142Y-142557438D02*
X35539523Y-142605057D01*
X35539523Y-142605057D02*
X35491904Y-142700295D01*
X35491904Y-142700295D02*
X35491904Y-142843152D01*
X35491904Y-142843152D02*
X35539523Y-142938390D01*
X35539523Y-142938390D02*
X35587142Y-142986009D01*
X35587142Y-142986009D02*
X35682380Y-143033628D01*
X35682380Y-143033628D02*
X36063332Y-143033628D01*
X34539523Y-143509819D02*
X35110951Y-143509819D01*
X34825237Y-143509819D02*
X34825237Y-142509819D01*
X34825237Y-142509819D02*
X34920475Y-142652676D01*
X34920475Y-142652676D02*
X35015713Y-142747914D01*
X35015713Y-142747914D02*
X35110951Y-142795533D01*
X34206189Y-142509819D02*
X33539523Y-142509819D01*
X33539523Y-142509819D02*
X33968094Y-143509819D01*
D11*
X71060832Y-180387333D02*
X71079880Y-180368285D01*
X71079880Y-180368285D02*
X71098927Y-180311143D01*
X71098927Y-180311143D02*
X71098927Y-180273047D01*
X71098927Y-180273047D02*
X71079880Y-180215904D01*
X71079880Y-180215904D02*
X71041784Y-180177809D01*
X71041784Y-180177809D02*
X71003689Y-180158762D01*
X71003689Y-180158762D02*
X70927499Y-180139714D01*
X70927499Y-180139714D02*
X70870356Y-180139714D01*
X70870356Y-180139714D02*
X70794165Y-180158762D01*
X70794165Y-180158762D02*
X70756070Y-180177809D01*
X70756070Y-180177809D02*
X70717975Y-180215904D01*
X70717975Y-180215904D02*
X70698927Y-180273047D01*
X70698927Y-180273047D02*
X70698927Y-180311143D01*
X70698927Y-180311143D02*
X70717975Y-180368285D01*
X70717975Y-180368285D02*
X70737022Y-180387333D01*
X70698927Y-180520666D02*
X70698927Y-180787333D01*
X70698927Y-180787333D02*
X71098927Y-180615904D01*
D10*
X47032200Y-136228857D02*
X46908391Y-136142190D01*
X47032200Y-136080285D02*
X46772200Y-136080285D01*
X46772200Y-136080285D02*
X46772200Y-136179333D01*
X46772200Y-136179333D02*
X46784581Y-136204095D01*
X46784581Y-136204095D02*
X46796962Y-136216476D01*
X46796962Y-136216476D02*
X46821724Y-136228857D01*
X46821724Y-136228857D02*
X46858867Y-136228857D01*
X46858867Y-136228857D02*
X46883629Y-136216476D01*
X46883629Y-136216476D02*
X46896010Y-136204095D01*
X46896010Y-136204095D02*
X46908391Y-136179333D01*
X46908391Y-136179333D02*
X46908391Y-136080285D01*
X47032200Y-136476476D02*
X47032200Y-136327904D01*
X47032200Y-136402190D02*
X46772200Y-136402190D01*
X46772200Y-136402190D02*
X46809343Y-136377428D01*
X46809343Y-136377428D02*
X46834105Y-136352666D01*
X46834105Y-136352666D02*
X46846486Y-136327904D01*
X47032200Y-136600285D02*
X47032200Y-136649809D01*
X47032200Y-136649809D02*
X47019820Y-136674571D01*
X47019820Y-136674571D02*
X47007439Y-136686952D01*
X47007439Y-136686952D02*
X46970296Y-136711714D01*
X46970296Y-136711714D02*
X46920772Y-136724095D01*
X46920772Y-136724095D02*
X46821724Y-136724095D01*
X46821724Y-136724095D02*
X46796962Y-136711714D01*
X46796962Y-136711714D02*
X46784581Y-136699333D01*
X46784581Y-136699333D02*
X46772200Y-136674571D01*
X46772200Y-136674571D02*
X46772200Y-136625047D01*
X46772200Y-136625047D02*
X46784581Y-136600285D01*
X46784581Y-136600285D02*
X46796962Y-136587904D01*
X46796962Y-136587904D02*
X46821724Y-136575523D01*
X46821724Y-136575523D02*
X46883629Y-136575523D01*
X46883629Y-136575523D02*
X46908391Y-136587904D01*
X46908391Y-136587904D02*
X46920772Y-136600285D01*
X46920772Y-136600285D02*
X46933153Y-136625047D01*
X46933153Y-136625047D02*
X46933153Y-136674571D01*
X46933153Y-136674571D02*
X46920772Y-136699333D01*
X46920772Y-136699333D02*
X46908391Y-136711714D01*
X46908391Y-136711714D02*
X46883629Y-136724095D01*
D12*
X71824819Y-119435714D02*
X70824819Y-119435714D01*
X70824819Y-119435714D02*
X70824819Y-119673809D01*
X70824819Y-119673809D02*
X70872438Y-119816666D01*
X70872438Y-119816666D02*
X70967676Y-119911904D01*
X70967676Y-119911904D02*
X71062914Y-119959523D01*
X71062914Y-119959523D02*
X71253390Y-120007142D01*
X71253390Y-120007142D02*
X71396247Y-120007142D01*
X71396247Y-120007142D02*
X71586723Y-119959523D01*
X71586723Y-119959523D02*
X71681961Y-119911904D01*
X71681961Y-119911904D02*
X71777200Y-119816666D01*
X71777200Y-119816666D02*
X71824819Y-119673809D01*
X71824819Y-119673809D02*
X71824819Y-119435714D01*
X70824819Y-120864285D02*
X70824819Y-120673809D01*
X70824819Y-120673809D02*
X70872438Y-120578571D01*
X70872438Y-120578571D02*
X70920057Y-120530952D01*
X70920057Y-120530952D02*
X71062914Y-120435714D01*
X71062914Y-120435714D02*
X71253390Y-120388095D01*
X71253390Y-120388095D02*
X71634342Y-120388095D01*
X71634342Y-120388095D02*
X71729580Y-120435714D01*
X71729580Y-120435714D02*
X71777200Y-120483333D01*
X71777200Y-120483333D02*
X71824819Y-120578571D01*
X71824819Y-120578571D02*
X71824819Y-120769047D01*
X71824819Y-120769047D02*
X71777200Y-120864285D01*
X71777200Y-120864285D02*
X71729580Y-120911904D01*
X71729580Y-120911904D02*
X71634342Y-120959523D01*
X71634342Y-120959523D02*
X71396247Y-120959523D01*
X71396247Y-120959523D02*
X71301009Y-120911904D01*
X71301009Y-120911904D02*
X71253390Y-120864285D01*
X71253390Y-120864285D02*
X71205771Y-120769047D01*
X71205771Y-120769047D02*
X71205771Y-120578571D01*
X71205771Y-120578571D02*
X71253390Y-120483333D01*
X71253390Y-120483333D02*
X71301009Y-120435714D01*
X71301009Y-120435714D02*
X71396247Y-120388095D01*
X70824819Y-121292857D02*
X70824819Y-121959523D01*
X70824819Y-121959523D02*
X71824819Y-121530952D01*
D10*
X105604722Y-118869778D02*
X105716131Y-118767661D01*
X105749771Y-118901934D02*
X105806046Y-118648097D01*
X105806046Y-118648097D02*
X105709346Y-118626660D01*
X105709346Y-118626660D02*
X105682491Y-118633388D01*
X105682491Y-118633388D02*
X105667724Y-118642795D01*
X105667724Y-118642795D02*
X105650277Y-118664290D01*
X105650277Y-118664290D02*
X105642238Y-118700553D01*
X105642238Y-118700553D02*
X105648966Y-118727408D01*
X105648966Y-118727408D02*
X105658374Y-118742175D01*
X105658374Y-118742175D02*
X105679869Y-118759622D01*
X105679869Y-118759622D02*
X105776569Y-118781060D01*
X105558937Y-118618678D02*
X105549529Y-118603911D01*
X105549529Y-118603911D02*
X105528034Y-118586464D01*
X105528034Y-118586464D02*
X105467596Y-118573065D01*
X105467596Y-118573065D02*
X105440742Y-118579793D01*
X105440742Y-118579793D02*
X105425975Y-118589201D01*
X105425975Y-118589201D02*
X105408528Y-118610696D01*
X105408528Y-118610696D02*
X105403168Y-118634871D01*
X105403168Y-118634871D02*
X105407217Y-118673813D01*
X105407217Y-118673813D02*
X105520109Y-118851019D01*
X105520109Y-118851019D02*
X105362972Y-118816183D01*
D12*
X62028819Y-114575714D02*
X61028819Y-114575714D01*
X61028819Y-114575714D02*
X61028819Y-114813809D01*
X61028819Y-114813809D02*
X61076438Y-114956666D01*
X61076438Y-114956666D02*
X61171676Y-115051904D01*
X61171676Y-115051904D02*
X61266914Y-115099523D01*
X61266914Y-115099523D02*
X61457390Y-115147142D01*
X61457390Y-115147142D02*
X61600247Y-115147142D01*
X61600247Y-115147142D02*
X61790723Y-115099523D01*
X61790723Y-115099523D02*
X61885961Y-115051904D01*
X61885961Y-115051904D02*
X61981200Y-114956666D01*
X61981200Y-114956666D02*
X62028819Y-114813809D01*
X62028819Y-114813809D02*
X62028819Y-114575714D01*
X61028819Y-116004285D02*
X61028819Y-115813809D01*
X61028819Y-115813809D02*
X61076438Y-115718571D01*
X61076438Y-115718571D02*
X61124057Y-115670952D01*
X61124057Y-115670952D02*
X61266914Y-115575714D01*
X61266914Y-115575714D02*
X61457390Y-115528095D01*
X61457390Y-115528095D02*
X61838342Y-115528095D01*
X61838342Y-115528095D02*
X61933580Y-115575714D01*
X61933580Y-115575714D02*
X61981200Y-115623333D01*
X61981200Y-115623333D02*
X62028819Y-115718571D01*
X62028819Y-115718571D02*
X62028819Y-115909047D01*
X62028819Y-115909047D02*
X61981200Y-116004285D01*
X61981200Y-116004285D02*
X61933580Y-116051904D01*
X61933580Y-116051904D02*
X61838342Y-116099523D01*
X61838342Y-116099523D02*
X61600247Y-116099523D01*
X61600247Y-116099523D02*
X61505009Y-116051904D01*
X61505009Y-116051904D02*
X61457390Y-116004285D01*
X61457390Y-116004285D02*
X61409771Y-115909047D01*
X61409771Y-115909047D02*
X61409771Y-115718571D01*
X61409771Y-115718571D02*
X61457390Y-115623333D01*
X61457390Y-115623333D02*
X61505009Y-115575714D01*
X61505009Y-115575714D02*
X61600247Y-115528095D01*
X61028819Y-116432857D02*
X61028819Y-117051904D01*
X61028819Y-117051904D02*
X61409771Y-116718571D01*
X61409771Y-116718571D02*
X61409771Y-116861428D01*
X61409771Y-116861428D02*
X61457390Y-116956666D01*
X61457390Y-116956666D02*
X61505009Y-117004285D01*
X61505009Y-117004285D02*
X61600247Y-117051904D01*
X61600247Y-117051904D02*
X61838342Y-117051904D01*
X61838342Y-117051904D02*
X61933580Y-117004285D01*
X61933580Y-117004285D02*
X61981200Y-116956666D01*
X61981200Y-116956666D02*
X62028819Y-116861428D01*
X62028819Y-116861428D02*
X62028819Y-116575714D01*
X62028819Y-116575714D02*
X61981200Y-116480476D01*
X61981200Y-116480476D02*
X61933580Y-116432857D01*
D10*
X45000200Y-133940857D02*
X44876391Y-133854190D01*
X45000200Y-133792285D02*
X44740200Y-133792285D01*
X44740200Y-133792285D02*
X44740200Y-133891333D01*
X44740200Y-133891333D02*
X44752581Y-133916095D01*
X44752581Y-133916095D02*
X44764962Y-133928476D01*
X44764962Y-133928476D02*
X44789724Y-133940857D01*
X44789724Y-133940857D02*
X44826867Y-133940857D01*
X44826867Y-133940857D02*
X44851629Y-133928476D01*
X44851629Y-133928476D02*
X44864010Y-133916095D01*
X44864010Y-133916095D02*
X44876391Y-133891333D01*
X44876391Y-133891333D02*
X44876391Y-133792285D01*
X45000200Y-134188476D02*
X45000200Y-134039904D01*
X45000200Y-134114190D02*
X44740200Y-134114190D01*
X44740200Y-134114190D02*
X44777343Y-134089428D01*
X44777343Y-134089428D02*
X44802105Y-134064666D01*
X44802105Y-134064666D02*
X44814486Y-134039904D01*
X44740200Y-134349428D02*
X44740200Y-134374190D01*
X44740200Y-134374190D02*
X44752581Y-134398952D01*
X44752581Y-134398952D02*
X44764962Y-134411333D01*
X44764962Y-134411333D02*
X44789724Y-134423714D01*
X44789724Y-134423714D02*
X44839248Y-134436095D01*
X44839248Y-134436095D02*
X44901153Y-134436095D01*
X44901153Y-134436095D02*
X44950677Y-134423714D01*
X44950677Y-134423714D02*
X44975439Y-134411333D01*
X44975439Y-134411333D02*
X44987820Y-134398952D01*
X44987820Y-134398952D02*
X45000200Y-134374190D01*
X45000200Y-134374190D02*
X45000200Y-134349428D01*
X45000200Y-134349428D02*
X44987820Y-134324666D01*
X44987820Y-134324666D02*
X44975439Y-134312285D01*
X44975439Y-134312285D02*
X44950677Y-134299904D01*
X44950677Y-134299904D02*
X44901153Y-134287523D01*
X44901153Y-134287523D02*
X44839248Y-134287523D01*
X44839248Y-134287523D02*
X44789724Y-134299904D01*
X44789724Y-134299904D02*
X44764962Y-134312285D01*
X44764962Y-134312285D02*
X44752581Y-134324666D01*
X44752581Y-134324666D02*
X44740200Y-134349428D01*
D12*
X59361819Y-119435714D02*
X58361819Y-119435714D01*
X58361819Y-119435714D02*
X58361819Y-119673809D01*
X58361819Y-119673809D02*
X58409438Y-119816666D01*
X58409438Y-119816666D02*
X58504676Y-119911904D01*
X58504676Y-119911904D02*
X58599914Y-119959523D01*
X58599914Y-119959523D02*
X58790390Y-120007142D01*
X58790390Y-120007142D02*
X58933247Y-120007142D01*
X58933247Y-120007142D02*
X59123723Y-119959523D01*
X59123723Y-119959523D02*
X59218961Y-119911904D01*
X59218961Y-119911904D02*
X59314200Y-119816666D01*
X59314200Y-119816666D02*
X59361819Y-119673809D01*
X59361819Y-119673809D02*
X59361819Y-119435714D01*
X58361819Y-120864285D02*
X58361819Y-120673809D01*
X58361819Y-120673809D02*
X58409438Y-120578571D01*
X58409438Y-120578571D02*
X58457057Y-120530952D01*
X58457057Y-120530952D02*
X58599914Y-120435714D01*
X58599914Y-120435714D02*
X58790390Y-120388095D01*
X58790390Y-120388095D02*
X59171342Y-120388095D01*
X59171342Y-120388095D02*
X59266580Y-120435714D01*
X59266580Y-120435714D02*
X59314200Y-120483333D01*
X59314200Y-120483333D02*
X59361819Y-120578571D01*
X59361819Y-120578571D02*
X59361819Y-120769047D01*
X59361819Y-120769047D02*
X59314200Y-120864285D01*
X59314200Y-120864285D02*
X59266580Y-120911904D01*
X59266580Y-120911904D02*
X59171342Y-120959523D01*
X59171342Y-120959523D02*
X58933247Y-120959523D01*
X58933247Y-120959523D02*
X58838009Y-120911904D01*
X58838009Y-120911904D02*
X58790390Y-120864285D01*
X58790390Y-120864285D02*
X58742771Y-120769047D01*
X58742771Y-120769047D02*
X58742771Y-120578571D01*
X58742771Y-120578571D02*
X58790390Y-120483333D01*
X58790390Y-120483333D02*
X58838009Y-120435714D01*
X58838009Y-120435714D02*
X58933247Y-120388095D01*
X59361819Y-121435714D02*
X59361819Y-121626190D01*
X59361819Y-121626190D02*
X59314200Y-121721428D01*
X59314200Y-121721428D02*
X59266580Y-121769047D01*
X59266580Y-121769047D02*
X59123723Y-121864285D01*
X59123723Y-121864285D02*
X58933247Y-121911904D01*
X58933247Y-121911904D02*
X58552295Y-121911904D01*
X58552295Y-121911904D02*
X58457057Y-121864285D01*
X58457057Y-121864285D02*
X58409438Y-121816666D01*
X58409438Y-121816666D02*
X58361819Y-121721428D01*
X58361819Y-121721428D02*
X58361819Y-121530952D01*
X58361819Y-121530952D02*
X58409438Y-121435714D01*
X58409438Y-121435714D02*
X58457057Y-121388095D01*
X58457057Y-121388095D02*
X58552295Y-121340476D01*
X58552295Y-121340476D02*
X58790390Y-121340476D01*
X58790390Y-121340476D02*
X58885628Y-121388095D01*
X58885628Y-121388095D02*
X58933247Y-121435714D01*
X58933247Y-121435714D02*
X58980866Y-121530952D01*
X58980866Y-121530952D02*
X58980866Y-121721428D01*
X58980866Y-121721428D02*
X58933247Y-121816666D01*
X58933247Y-121816666D02*
X58885628Y-121864285D01*
X58885628Y-121864285D02*
X58790390Y-121911904D01*
D10*
X41952200Y-134066667D02*
X41828391Y-133980000D01*
X41952200Y-133918095D02*
X41692200Y-133918095D01*
X41692200Y-133918095D02*
X41692200Y-134017143D01*
X41692200Y-134017143D02*
X41704581Y-134041905D01*
X41704581Y-134041905D02*
X41716962Y-134054286D01*
X41716962Y-134054286D02*
X41741724Y-134066667D01*
X41741724Y-134066667D02*
X41778867Y-134066667D01*
X41778867Y-134066667D02*
X41803629Y-134054286D01*
X41803629Y-134054286D02*
X41816010Y-134041905D01*
X41816010Y-134041905D02*
X41828391Y-134017143D01*
X41828391Y-134017143D02*
X41828391Y-133918095D01*
X41692200Y-134289524D02*
X41692200Y-134240000D01*
X41692200Y-134240000D02*
X41704581Y-134215238D01*
X41704581Y-134215238D02*
X41716962Y-134202857D01*
X41716962Y-134202857D02*
X41754105Y-134178095D01*
X41754105Y-134178095D02*
X41803629Y-134165714D01*
X41803629Y-134165714D02*
X41902677Y-134165714D01*
X41902677Y-134165714D02*
X41927439Y-134178095D01*
X41927439Y-134178095D02*
X41939820Y-134190476D01*
X41939820Y-134190476D02*
X41952200Y-134215238D01*
X41952200Y-134215238D02*
X41952200Y-134264762D01*
X41952200Y-134264762D02*
X41939820Y-134289524D01*
X41939820Y-134289524D02*
X41927439Y-134301905D01*
X41927439Y-134301905D02*
X41902677Y-134314286D01*
X41902677Y-134314286D02*
X41840772Y-134314286D01*
X41840772Y-134314286D02*
X41816010Y-134301905D01*
X41816010Y-134301905D02*
X41803629Y-134289524D01*
X41803629Y-134289524D02*
X41791248Y-134264762D01*
X41791248Y-134264762D02*
X41791248Y-134215238D01*
X41791248Y-134215238D02*
X41803629Y-134190476D01*
X41803629Y-134190476D02*
X41816010Y-134178095D01*
X41816010Y-134178095D02*
X41840772Y-134165714D01*
D12*
X96868657Y-143783980D02*
X96916276Y-143831600D01*
X96916276Y-143831600D02*
X97059133Y-143879219D01*
X97059133Y-143879219D02*
X97154371Y-143879219D01*
X97154371Y-143879219D02*
X97297228Y-143831600D01*
X97297228Y-143831600D02*
X97392466Y-143736361D01*
X97392466Y-143736361D02*
X97440085Y-143641123D01*
X97440085Y-143641123D02*
X97487704Y-143450647D01*
X97487704Y-143450647D02*
X97487704Y-143307790D01*
X97487704Y-143307790D02*
X97440085Y-143117314D01*
X97440085Y-143117314D02*
X97392466Y-143022076D01*
X97392466Y-143022076D02*
X97297228Y-142926838D01*
X97297228Y-142926838D02*
X97154371Y-142879219D01*
X97154371Y-142879219D02*
X97059133Y-142879219D01*
X97059133Y-142879219D02*
X96916276Y-142926838D01*
X96916276Y-142926838D02*
X96868657Y-142974457D01*
X96487704Y-142974457D02*
X96440085Y-142926838D01*
X96440085Y-142926838D02*
X96344847Y-142879219D01*
X96344847Y-142879219D02*
X96106752Y-142879219D01*
X96106752Y-142879219D02*
X96011514Y-142926838D01*
X96011514Y-142926838D02*
X95963895Y-142974457D01*
X95963895Y-142974457D02*
X95916276Y-143069695D01*
X95916276Y-143069695D02*
X95916276Y-143164933D01*
X95916276Y-143164933D02*
X95963895Y-143307790D01*
X95963895Y-143307790D02*
X96535323Y-143879219D01*
X96535323Y-143879219D02*
X95916276Y-143879219D01*
X95059133Y-142879219D02*
X95249609Y-142879219D01*
X95249609Y-142879219D02*
X95344847Y-142926838D01*
X95344847Y-142926838D02*
X95392466Y-142974457D01*
X95392466Y-142974457D02*
X95487704Y-143117314D01*
X95487704Y-143117314D02*
X95535323Y-143307790D01*
X95535323Y-143307790D02*
X95535323Y-143688742D01*
X95535323Y-143688742D02*
X95487704Y-143783980D01*
X95487704Y-143783980D02*
X95440085Y-143831600D01*
X95440085Y-143831600D02*
X95344847Y-143879219D01*
X95344847Y-143879219D02*
X95154371Y-143879219D01*
X95154371Y-143879219D02*
X95059133Y-143831600D01*
X95059133Y-143831600D02*
X95011514Y-143783980D01*
X95011514Y-143783980D02*
X94963895Y-143688742D01*
X94963895Y-143688742D02*
X94963895Y-143450647D01*
X94963895Y-143450647D02*
X95011514Y-143355409D01*
X95011514Y-143355409D02*
X95059133Y-143307790D01*
X95059133Y-143307790D02*
X95154371Y-143260171D01*
X95154371Y-143260171D02*
X95344847Y-143260171D01*
X95344847Y-143260171D02*
X95440085Y-143307790D01*
X95440085Y-143307790D02*
X95487704Y-143355409D01*
X95487704Y-143355409D02*
X95535323Y-143450647D01*
D10*
X107759319Y-122053679D02*
X107774577Y-122046564D01*
X107774577Y-122046564D02*
X107797979Y-122017075D01*
X107797979Y-122017075D02*
X107806122Y-121994702D01*
X107806122Y-121994702D02*
X107807151Y-121957070D01*
X107807151Y-121957070D02*
X107792920Y-121926553D01*
X107792920Y-121926553D02*
X107774618Y-121907222D01*
X107774618Y-121907222D02*
X107733943Y-121879749D01*
X107733943Y-121879749D02*
X107700382Y-121867534D01*
X107700382Y-121867534D02*
X107651563Y-121862434D01*
X107651563Y-121862434D02*
X107625118Y-121865478D01*
X107625118Y-121865478D02*
X107594601Y-121879708D01*
X107594601Y-121879708D02*
X107571199Y-121909197D01*
X107571199Y-121909197D02*
X107563056Y-121931570D01*
X107563056Y-121931570D02*
X107562028Y-121969202D01*
X107562028Y-121969202D02*
X107569143Y-121984461D01*
X107700259Y-122285559D02*
X107749119Y-122151317D01*
X107724689Y-122218438D02*
X107489766Y-122132933D01*
X107489766Y-122132933D02*
X107531470Y-122122774D01*
X107531470Y-122122774D02*
X107561987Y-122108544D01*
X107561987Y-122108544D02*
X107581317Y-122090242D01*
X107436834Y-122278361D02*
X107383902Y-122423790D01*
X107383902Y-122423790D02*
X107501899Y-122378056D01*
X107501899Y-122378056D02*
X107489684Y-122411616D01*
X107489684Y-122411616D02*
X107492727Y-122438061D01*
X107492727Y-122438061D02*
X107499842Y-122453320D01*
X107499842Y-122453320D02*
X107518144Y-122472650D01*
X107518144Y-122472650D02*
X107574078Y-122493008D01*
X107574078Y-122493008D02*
X107600524Y-122489965D01*
X107600524Y-122489965D02*
X107615782Y-122482850D01*
X107615782Y-122482850D02*
X107635112Y-122464548D01*
X107635112Y-122464548D02*
X107659542Y-122397427D01*
X107659542Y-122397427D02*
X107656499Y-122370982D01*
X107656499Y-122370982D02*
X107649384Y-122355723D01*
X51829765Y-120489285D02*
X51841670Y-120477381D01*
X51841670Y-120477381D02*
X51853574Y-120441666D01*
X51853574Y-120441666D02*
X51853574Y-120417857D01*
X51853574Y-120417857D02*
X51841670Y-120382143D01*
X51841670Y-120382143D02*
X51817860Y-120358333D01*
X51817860Y-120358333D02*
X51794050Y-120346428D01*
X51794050Y-120346428D02*
X51746431Y-120334524D01*
X51746431Y-120334524D02*
X51710717Y-120334524D01*
X51710717Y-120334524D02*
X51663098Y-120346428D01*
X51663098Y-120346428D02*
X51639289Y-120358333D01*
X51639289Y-120358333D02*
X51615479Y-120382143D01*
X51615479Y-120382143D02*
X51603574Y-120417857D01*
X51603574Y-120417857D02*
X51603574Y-120441666D01*
X51603574Y-120441666D02*
X51615479Y-120477381D01*
X51615479Y-120477381D02*
X51627384Y-120489285D01*
X51853574Y-120727381D02*
X51853574Y-120584524D01*
X51853574Y-120655952D02*
X51603574Y-120655952D01*
X51603574Y-120655952D02*
X51639289Y-120632143D01*
X51639289Y-120632143D02*
X51663098Y-120608333D01*
X51663098Y-120608333D02*
X51675003Y-120584524D01*
X51603574Y-120953571D02*
X51603574Y-120834523D01*
X51603574Y-120834523D02*
X51722622Y-120822619D01*
X51722622Y-120822619D02*
X51710717Y-120834523D01*
X51710717Y-120834523D02*
X51698812Y-120858333D01*
X51698812Y-120858333D02*
X51698812Y-120917857D01*
X51698812Y-120917857D02*
X51710717Y-120941666D01*
X51710717Y-120941666D02*
X51722622Y-120953571D01*
X51722622Y-120953571D02*
X51746431Y-120965476D01*
X51746431Y-120965476D02*
X51805955Y-120965476D01*
X51805955Y-120965476D02*
X51829765Y-120953571D01*
X51829765Y-120953571D02*
X51841670Y-120941666D01*
X51841670Y-120941666D02*
X51853574Y-120917857D01*
X51853574Y-120917857D02*
X51853574Y-120858333D01*
X51853574Y-120858333D02*
X51841670Y-120834523D01*
X51841670Y-120834523D02*
X51829765Y-120822619D01*
D13*
X88349664Y-118446167D02*
X88387760Y-118408071D01*
X88387760Y-118408071D02*
X88425855Y-118293786D01*
X88425855Y-118293786D02*
X88425855Y-118217595D01*
X88425855Y-118217595D02*
X88387760Y-118103309D01*
X88387760Y-118103309D02*
X88311569Y-118027119D01*
X88311569Y-118027119D02*
X88235379Y-117989024D01*
X88235379Y-117989024D02*
X88082998Y-117950928D01*
X88082998Y-117950928D02*
X87968712Y-117950928D01*
X87968712Y-117950928D02*
X87816331Y-117989024D01*
X87816331Y-117989024D02*
X87740140Y-118027119D01*
X87740140Y-118027119D02*
X87663950Y-118103309D01*
X87663950Y-118103309D02*
X87625855Y-118217595D01*
X87625855Y-118217595D02*
X87625855Y-118293786D01*
X87625855Y-118293786D02*
X87663950Y-118408071D01*
X87663950Y-118408071D02*
X87702045Y-118446167D01*
X88425855Y-119208071D02*
X88425855Y-118750928D01*
X88425855Y-118979500D02*
X87625855Y-118979500D01*
X87625855Y-118979500D02*
X87740140Y-118903309D01*
X87740140Y-118903309D02*
X87816331Y-118827119D01*
X87816331Y-118827119D02*
X87854426Y-118750928D01*
D12*
X63188819Y-114575714D02*
X62188819Y-114575714D01*
X62188819Y-114575714D02*
X62188819Y-114813809D01*
X62188819Y-114813809D02*
X62236438Y-114956666D01*
X62236438Y-114956666D02*
X62331676Y-115051904D01*
X62331676Y-115051904D02*
X62426914Y-115099523D01*
X62426914Y-115099523D02*
X62617390Y-115147142D01*
X62617390Y-115147142D02*
X62760247Y-115147142D01*
X62760247Y-115147142D02*
X62950723Y-115099523D01*
X62950723Y-115099523D02*
X63045961Y-115051904D01*
X63045961Y-115051904D02*
X63141200Y-114956666D01*
X63141200Y-114956666D02*
X63188819Y-114813809D01*
X63188819Y-114813809D02*
X63188819Y-114575714D01*
X62188819Y-116004285D02*
X62188819Y-115813809D01*
X62188819Y-115813809D02*
X62236438Y-115718571D01*
X62236438Y-115718571D02*
X62284057Y-115670952D01*
X62284057Y-115670952D02*
X62426914Y-115575714D01*
X62426914Y-115575714D02*
X62617390Y-115528095D01*
X62617390Y-115528095D02*
X62998342Y-115528095D01*
X62998342Y-115528095D02*
X63093580Y-115575714D01*
X63093580Y-115575714D02*
X63141200Y-115623333D01*
X63141200Y-115623333D02*
X63188819Y-115718571D01*
X63188819Y-115718571D02*
X63188819Y-115909047D01*
X63188819Y-115909047D02*
X63141200Y-116004285D01*
X63141200Y-116004285D02*
X63093580Y-116051904D01*
X63093580Y-116051904D02*
X62998342Y-116099523D01*
X62998342Y-116099523D02*
X62760247Y-116099523D01*
X62760247Y-116099523D02*
X62665009Y-116051904D01*
X62665009Y-116051904D02*
X62617390Y-116004285D01*
X62617390Y-116004285D02*
X62569771Y-115909047D01*
X62569771Y-115909047D02*
X62569771Y-115718571D01*
X62569771Y-115718571D02*
X62617390Y-115623333D01*
X62617390Y-115623333D02*
X62665009Y-115575714D01*
X62665009Y-115575714D02*
X62760247Y-115528095D01*
X62522152Y-116956666D02*
X63188819Y-116956666D01*
X62141200Y-116718571D02*
X62855485Y-116480476D01*
X62855485Y-116480476D02*
X62855485Y-117099523D01*
X83300894Y-161684619D02*
X83300894Y-160684619D01*
X82729466Y-161684619D02*
X83158037Y-161113190D01*
X82729466Y-160684619D02*
X83300894Y-161256047D01*
X81777085Y-161684619D02*
X82348513Y-161684619D01*
X82062799Y-161684619D02*
X82062799Y-160684619D01*
X82062799Y-160684619D02*
X82158037Y-160827476D01*
X82158037Y-160827476D02*
X82253275Y-160922714D01*
X82253275Y-160922714D02*
X82348513Y-160970333D01*
D10*
X105136775Y-124068355D02*
X105153212Y-124071999D01*
X105153212Y-124071999D02*
X105189730Y-124062850D01*
X105189730Y-124062850D02*
X105209810Y-124050057D01*
X105209810Y-124050057D02*
X105233535Y-124020828D01*
X105233535Y-124020828D02*
X105240823Y-123987954D01*
X105240823Y-123987954D02*
X105238070Y-123961477D01*
X105238070Y-123961477D02*
X105222525Y-123914919D01*
X105222525Y-123914919D02*
X105203336Y-123884798D01*
X105203336Y-123884798D02*
X105167710Y-123851033D01*
X105167710Y-123851033D02*
X105144877Y-123837348D01*
X105144877Y-123837348D02*
X105112003Y-123830061D01*
X105112003Y-123830061D02*
X105075485Y-123839209D01*
X105075485Y-123839209D02*
X105055405Y-123852002D01*
X105055405Y-123852002D02*
X105031680Y-123881232D01*
X105031680Y-123881232D02*
X105028036Y-123897669D01*
X104947713Y-123948840D02*
X104931276Y-123945196D01*
X104931276Y-123945196D02*
X104904799Y-123947949D01*
X104904799Y-123947949D02*
X104854597Y-123979931D01*
X104854597Y-123979931D02*
X104840913Y-124002764D01*
X104840913Y-124002764D02*
X104837269Y-124019201D01*
X104837269Y-124019201D02*
X104840021Y-124045678D01*
X104840021Y-124045678D02*
X104852814Y-124065759D01*
X104852814Y-124065759D02*
X104882044Y-124089483D01*
X104882044Y-124089483D02*
X105079285Y-124133211D01*
X105079285Y-124133211D02*
X104948761Y-124216364D01*
X104683911Y-124088670D02*
X104663830Y-124101463D01*
X104663830Y-124101463D02*
X104650146Y-124124296D01*
X104650146Y-124124296D02*
X104646502Y-124140733D01*
X104646502Y-124140733D02*
X104649254Y-124167210D01*
X104649254Y-124167210D02*
X104664800Y-124213768D01*
X104664800Y-124213768D02*
X104696782Y-124263970D01*
X104696782Y-124263970D02*
X104732408Y-124297735D01*
X104732408Y-124297735D02*
X104755241Y-124311419D01*
X104755241Y-124311419D02*
X104771678Y-124315063D01*
X104771678Y-124315063D02*
X104798155Y-124312311D01*
X104798155Y-124312311D02*
X104818236Y-124299518D01*
X104818236Y-124299518D02*
X104831920Y-124276685D01*
X104831920Y-124276685D02*
X104835564Y-124260248D01*
X104835564Y-124260248D02*
X104832812Y-124233771D01*
X104832812Y-124233771D02*
X104817266Y-124187213D01*
X104817266Y-124187213D02*
X104785284Y-124137011D01*
X104785284Y-124137011D02*
X104749658Y-124103246D01*
X104749658Y-124103246D02*
X104726825Y-124089561D01*
X104726825Y-124089561D02*
X104710388Y-124085917D01*
X104710388Y-124085917D02*
X104683911Y-124088670D01*
X50080200Y-138514857D02*
X49956391Y-138428190D01*
X50080200Y-138366285D02*
X49820200Y-138366285D01*
X49820200Y-138366285D02*
X49820200Y-138465333D01*
X49820200Y-138465333D02*
X49832581Y-138490095D01*
X49832581Y-138490095D02*
X49844962Y-138502476D01*
X49844962Y-138502476D02*
X49869724Y-138514857D01*
X49869724Y-138514857D02*
X49906867Y-138514857D01*
X49906867Y-138514857D02*
X49931629Y-138502476D01*
X49931629Y-138502476D02*
X49944010Y-138490095D01*
X49944010Y-138490095D02*
X49956391Y-138465333D01*
X49956391Y-138465333D02*
X49956391Y-138366285D01*
X50080200Y-138762476D02*
X50080200Y-138613904D01*
X50080200Y-138688190D02*
X49820200Y-138688190D01*
X49820200Y-138688190D02*
X49857343Y-138663428D01*
X49857343Y-138663428D02*
X49882105Y-138638666D01*
X49882105Y-138638666D02*
X49894486Y-138613904D01*
X49931629Y-138911047D02*
X49919248Y-138886285D01*
X49919248Y-138886285D02*
X49906867Y-138873904D01*
X49906867Y-138873904D02*
X49882105Y-138861523D01*
X49882105Y-138861523D02*
X49869724Y-138861523D01*
X49869724Y-138861523D02*
X49844962Y-138873904D01*
X49844962Y-138873904D02*
X49832581Y-138886285D01*
X49832581Y-138886285D02*
X49820200Y-138911047D01*
X49820200Y-138911047D02*
X49820200Y-138960571D01*
X49820200Y-138960571D02*
X49832581Y-138985333D01*
X49832581Y-138985333D02*
X49844962Y-138997714D01*
X49844962Y-138997714D02*
X49869724Y-139010095D01*
X49869724Y-139010095D02*
X49882105Y-139010095D01*
X49882105Y-139010095D02*
X49906867Y-138997714D01*
X49906867Y-138997714D02*
X49919248Y-138985333D01*
X49919248Y-138985333D02*
X49931629Y-138960571D01*
X49931629Y-138960571D02*
X49931629Y-138911047D01*
X49931629Y-138911047D02*
X49944010Y-138886285D01*
X49944010Y-138886285D02*
X49956391Y-138873904D01*
X49956391Y-138873904D02*
X49981153Y-138861523D01*
X49981153Y-138861523D02*
X50030677Y-138861523D01*
X50030677Y-138861523D02*
X50055439Y-138873904D01*
X50055439Y-138873904D02*
X50067820Y-138886285D01*
X50067820Y-138886285D02*
X50080200Y-138911047D01*
X50080200Y-138911047D02*
X50080200Y-138960571D01*
X50080200Y-138960571D02*
X50067820Y-138985333D01*
X50067820Y-138985333D02*
X50055439Y-138997714D01*
X50055439Y-138997714D02*
X50030677Y-139010095D01*
X50030677Y-139010095D02*
X49981153Y-139010095D01*
X49981153Y-139010095D02*
X49956391Y-138997714D01*
X49956391Y-138997714D02*
X49944010Y-138985333D01*
X49944010Y-138985333D02*
X49931629Y-138960571D01*
D11*
X36643832Y-159762857D02*
X36662880Y-159743809D01*
X36662880Y-159743809D02*
X36681927Y-159686667D01*
X36681927Y-159686667D02*
X36681927Y-159648571D01*
X36681927Y-159648571D02*
X36662880Y-159591428D01*
X36662880Y-159591428D02*
X36624784Y-159553333D01*
X36624784Y-159553333D02*
X36586689Y-159534286D01*
X36586689Y-159534286D02*
X36510499Y-159515238D01*
X36510499Y-159515238D02*
X36453356Y-159515238D01*
X36453356Y-159515238D02*
X36377165Y-159534286D01*
X36377165Y-159534286D02*
X36339070Y-159553333D01*
X36339070Y-159553333D02*
X36300975Y-159591428D01*
X36300975Y-159591428D02*
X36281927Y-159648571D01*
X36281927Y-159648571D02*
X36281927Y-159686667D01*
X36281927Y-159686667D02*
X36300975Y-159743809D01*
X36300975Y-159743809D02*
X36320022Y-159762857D01*
X36320022Y-159915238D02*
X36300975Y-159934286D01*
X36300975Y-159934286D02*
X36281927Y-159972381D01*
X36281927Y-159972381D02*
X36281927Y-160067619D01*
X36281927Y-160067619D02*
X36300975Y-160105714D01*
X36300975Y-160105714D02*
X36320022Y-160124762D01*
X36320022Y-160124762D02*
X36358118Y-160143809D01*
X36358118Y-160143809D02*
X36396213Y-160143809D01*
X36396213Y-160143809D02*
X36453356Y-160124762D01*
X36453356Y-160124762D02*
X36681927Y-159896190D01*
X36681927Y-159896190D02*
X36681927Y-160143809D01*
X36281927Y-160505714D02*
X36281927Y-160315238D01*
X36281927Y-160315238D02*
X36472403Y-160296190D01*
X36472403Y-160296190D02*
X36453356Y-160315238D01*
X36453356Y-160315238D02*
X36434308Y-160353333D01*
X36434308Y-160353333D02*
X36434308Y-160448571D01*
X36434308Y-160448571D02*
X36453356Y-160486666D01*
X36453356Y-160486666D02*
X36472403Y-160505714D01*
X36472403Y-160505714D02*
X36510499Y-160524761D01*
X36510499Y-160524761D02*
X36605737Y-160524761D01*
X36605737Y-160524761D02*
X36643832Y-160505714D01*
X36643832Y-160505714D02*
X36662880Y-160486666D01*
X36662880Y-160486666D02*
X36681927Y-160448571D01*
X36681927Y-160448571D02*
X36681927Y-160353333D01*
X36681927Y-160353333D02*
X36662880Y-160315238D01*
X36662880Y-160315238D02*
X36643832Y-160296190D01*
D12*
X61376666Y-182091566D02*
X61376666Y-182884900D01*
X61376666Y-182884900D02*
X61330000Y-182978233D01*
X61330000Y-182978233D02*
X61283333Y-183024900D01*
X61283333Y-183024900D02*
X61190000Y-183071566D01*
X61190000Y-183071566D02*
X61003333Y-183071566D01*
X61003333Y-183071566D02*
X60910000Y-183024900D01*
X60910000Y-183024900D02*
X60863333Y-182978233D01*
X60863333Y-182978233D02*
X60816666Y-182884900D01*
X60816666Y-182884900D02*
X60816666Y-182091566D01*
X59929999Y-182418233D02*
X59929999Y-183071566D01*
X60163333Y-182044900D02*
X60396666Y-182744900D01*
X60396666Y-182744900D02*
X59789999Y-182744900D01*
D14*
X98492424Y-121424182D02*
X98902000Y-121710970D01*
X98902000Y-121710970D02*
X99475576Y-120891818D01*
X99066000Y-120605030D02*
X98492424Y-121424182D01*
X99475576Y-120891818D02*
X99066000Y-120605030D01*
X48930000Y-179070000D02*
G75*
G03*
X48930000Y-179070000I-1000000J0D01*
G01*
X82182000Y-120179500D02*
X83782000Y-120179500D01*
X83782000Y-120179500D02*
X83782000Y-116979500D01*
X82182000Y-116979500D02*
X82182000Y-120179500D01*
X83782000Y-116979500D02*
X82182000Y-116979500D01*
X67345000Y-132986000D02*
X67885000Y-132986000D01*
X67885000Y-132986000D02*
X67885000Y-131936000D01*
X67345000Y-131936000D02*
X67345000Y-132986000D01*
X67885000Y-131936000D02*
X67345000Y-131936000D01*
X48168000Y-136921000D02*
X48708000Y-136921000D01*
X48708000Y-136921000D02*
X48708000Y-135871000D01*
X48168000Y-135871000D02*
X48168000Y-136921000D01*
X48708000Y-135871000D02*
X48168000Y-135871000D01*
X68820000Y-116690000D02*
X70220000Y-116690000D01*
X70220000Y-116690000D02*
X70220000Y-114890000D01*
X69520000Y-116090000D02*
X69520000Y-116290000D01*
X69520000Y-116090000D02*
X69870000Y-115590000D01*
X69870000Y-116090000D02*
X69170000Y-116090000D01*
X69170000Y-115590000D02*
X69520000Y-116090000D01*
X69520000Y-115590000D02*
X69520000Y-115340000D01*
X69870000Y-115590000D02*
X69170000Y-115590000D01*
X68820000Y-114890000D02*
X68820000Y-116690000D01*
X70220000Y-114890000D02*
X68820000Y-114890000D01*
X43628000Y-138157000D02*
X43088000Y-138157000D01*
X43088000Y-138157000D02*
X43088000Y-139207000D01*
X43628000Y-139207000D02*
X43628000Y-138157000D01*
X43088000Y-139207000D02*
X43628000Y-139207000D01*
X62851000Y-121550000D02*
X64251000Y-121550000D01*
X64251000Y-121550000D02*
X64251000Y-119750000D01*
X63551000Y-120950000D02*
X63551000Y-121150000D01*
X63551000Y-120950000D02*
X63901000Y-120450000D01*
X63901000Y-120950000D02*
X63201000Y-120950000D01*
X63201000Y-120450000D02*
X63551000Y-120950000D01*
X63551000Y-120450000D02*
X63551000Y-120200000D01*
X63901000Y-120450000D02*
X63201000Y-120450000D01*
X62851000Y-119750000D02*
X62851000Y-121550000D01*
X64251000Y-119750000D02*
X62851000Y-119750000D01*
D12*
X60486000Y-173895000D02*
X60486000Y-164895000D01*
X60486000Y-164895000D02*
X59486000Y-163895000D01*
X59486000Y-163895000D02*
X50486000Y-163895000D01*
X50486000Y-173895000D02*
X60486000Y-173895000D01*
X50486000Y-163895000D02*
X50486000Y-173895000D01*
D14*
X104810000Y-179070000D02*
G75*
G03*
X104810000Y-179070000I-1000000J0D01*
G01*
X43850000Y-111760000D02*
G75*
G03*
X43850000Y-111760000I-1000000J0D01*
G01*
X90310000Y-178657500D02*
X90310000Y-179482500D01*
X90310000Y-179482500D02*
X91910000Y-179482500D01*
X91910000Y-178657500D02*
X90310000Y-178657500D01*
X91910000Y-179482500D02*
X91910000Y-178657500D01*
X49692000Y-134635000D02*
X50232000Y-134635000D01*
X50232000Y-134635000D02*
X50232000Y-133585000D01*
X49692000Y-133585000D02*
X49692000Y-134635000D01*
X50232000Y-133585000D02*
X49692000Y-133585000D01*
X45152000Y-138157000D02*
X44612000Y-138157000D01*
X44612000Y-138157000D02*
X44612000Y-139207000D01*
X45152000Y-139207000D02*
X45152000Y-138157000D01*
X44612000Y-139207000D02*
X45152000Y-139207000D01*
X48188000Y-134612000D02*
X48688000Y-134612000D01*
X48688000Y-134612000D02*
X48688000Y-133612000D01*
X48188000Y-133612000D02*
X48188000Y-134612000D01*
X48688000Y-133612000D02*
X48188000Y-133612000D01*
X110715974Y-121225992D02*
X111208378Y-121312816D01*
X111208378Y-121312816D02*
X111382026Y-120328008D01*
X110889622Y-120241184D02*
X110715974Y-121225992D01*
X111382026Y-120328008D02*
X110889622Y-120241184D01*
X42104000Y-138157000D02*
X41564000Y-138157000D01*
X41564000Y-138157000D02*
X41564000Y-139207000D01*
X42104000Y-139207000D02*
X42104000Y-138157000D01*
X41564000Y-139207000D02*
X42104000Y-139207000D01*
D12*
X74124000Y-156091600D02*
X74124000Y-147091600D01*
X74124000Y-147091600D02*
X73124000Y-146091600D01*
X73124000Y-146091600D02*
X64124000Y-146091600D01*
X64124000Y-156091600D02*
X74124000Y-156091600D01*
X64124000Y-146091600D02*
X64124000Y-156091600D01*
D14*
X59957000Y-178657500D02*
X59957000Y-179482500D01*
X59957000Y-179482500D02*
X61557000Y-179482500D01*
X61557000Y-178657500D02*
X59957000Y-178657500D01*
X61557000Y-179482500D02*
X61557000Y-178657500D01*
X46644000Y-139207000D02*
X47184000Y-139207000D01*
X47184000Y-139207000D02*
X47184000Y-138157000D01*
X46644000Y-138157000D02*
X46644000Y-139207000D01*
X47184000Y-138157000D02*
X46644000Y-138157000D01*
X110785417Y-115685466D02*
X111138971Y-115331913D01*
X111138971Y-115331913D02*
X110431864Y-114624806D01*
X113401713Y-113069171D02*
X112694606Y-112362064D01*
X113755266Y-112715617D02*
X113401713Y-113069171D01*
X110431864Y-115331913D02*
X110785417Y-114978359D01*
X113401713Y-112362064D02*
X113048159Y-112715617D01*
X110997549Y-114624806D02*
X109017651Y-114624806D01*
X112694606Y-112927749D02*
X110997549Y-114624806D01*
X110714707Y-114059120D02*
X112128920Y-112644907D01*
X112128920Y-112644907D02*
X112128920Y-111230693D01*
X109724757Y-114624806D02*
X110785417Y-115685466D01*
X112694606Y-111654957D02*
X113755266Y-112715617D01*
X109017651Y-114624806D02*
X107320594Y-112927749D01*
X112694606Y-110947851D02*
X112694606Y-112927749D01*
X109300493Y-114059120D02*
X110714707Y-114059120D01*
X112128920Y-111230693D02*
X110714707Y-109816480D01*
X107886280Y-112644907D02*
X109300493Y-114059120D01*
X110714707Y-109816480D02*
X109300493Y-109816480D01*
X107320594Y-112927749D02*
X107320594Y-110947851D01*
X110997549Y-109250794D02*
X112694606Y-110947851D01*
X107320594Y-112220643D02*
X106259934Y-111159983D01*
X110290443Y-109250794D02*
X109229783Y-108190134D01*
X107886280Y-111230693D02*
X107886280Y-112644907D01*
X109300493Y-109816480D02*
X107886280Y-111230693D01*
X107320594Y-110947851D02*
X109017651Y-109250794D01*
X109017651Y-109250794D02*
X110997549Y-109250794D01*
X106613487Y-111513536D02*
X106967041Y-111159983D01*
X109583336Y-108543687D02*
X109229783Y-108897241D01*
X106259934Y-111159983D02*
X106613487Y-110806429D01*
X106613487Y-110806429D02*
X107320594Y-111513536D01*
X108876229Y-108543687D02*
X109583336Y-109250794D01*
X109229783Y-108190134D02*
X108876229Y-108543687D01*
X111007600Y-111937800D02*
G75*
G03*
X111007600Y-111937800I-1000000J0D01*
G01*
D12*
X115096000Y-156089600D02*
X115096000Y-147089600D01*
X115096000Y-147089600D02*
X114096000Y-146089600D01*
X114096000Y-146089600D02*
X105096000Y-146089600D01*
X105096000Y-156089600D02*
X115096000Y-156089600D01*
X105096000Y-146089600D02*
X105096000Y-156089600D01*
D14*
X42228000Y-130218500D02*
X44728000Y-130218500D01*
X44728000Y-130218500D02*
X45128000Y-129818500D01*
X45128000Y-129818500D02*
X45128000Y-128618500D01*
X42228000Y-128618500D02*
X42228000Y-130218500D01*
X45128000Y-128618500D02*
X42228000Y-128618500D01*
X68615000Y-132983999D02*
X69155000Y-132983999D01*
X69155000Y-132983999D02*
X69155000Y-131933999D01*
X68615000Y-131933999D02*
X68615000Y-132983999D01*
X69155000Y-131933999D02*
X68615000Y-131933999D01*
X71317000Y-183530000D02*
X70517000Y-183530000D01*
X70517000Y-183530000D02*
X70517000Y-185130000D01*
X71317000Y-185130000D02*
X71317000Y-183530000D01*
X70517000Y-185130000D02*
X71317000Y-185130000D01*
D12*
X87728000Y-156091600D02*
X87728000Y-147091600D01*
X87728000Y-147091600D02*
X86728000Y-146091600D01*
X86728000Y-146091600D02*
X77728000Y-146091600D01*
X77728000Y-156091600D02*
X87728000Y-156091600D01*
X77728000Y-146091600D02*
X77728000Y-156091600D01*
D14*
X108937733Y-117038091D02*
X108405937Y-117131861D01*
X108405937Y-117131861D02*
X108588267Y-118165909D01*
X109120063Y-118072139D02*
X108937733Y-117038091D01*
X108588267Y-118165909D02*
X109120063Y-118072139D01*
X42961000Y-117238000D02*
X43501000Y-117238000D01*
X43501000Y-117238000D02*
X43501000Y-116188000D01*
X42961000Y-116188000D02*
X42961000Y-117238000D01*
X43501000Y-116188000D02*
X42961000Y-116188000D01*
X110991837Y-129516317D02*
X111278625Y-129925893D01*
X111278625Y-129925893D02*
X112097777Y-129352317D01*
X111810989Y-128942741D02*
X110991837Y-129516317D01*
X112097777Y-129352317D02*
X111810989Y-128942741D01*
X72760000Y-119750000D02*
X71360000Y-119750000D01*
X71360000Y-119750000D02*
X71360000Y-121550000D01*
X72060000Y-120350000D02*
X72060000Y-120150000D01*
X72060000Y-120350000D02*
X71710000Y-120850000D01*
X71710000Y-120350000D02*
X72410000Y-120350000D01*
X72410000Y-120850000D02*
X72060000Y-120350000D01*
X72060000Y-120850000D02*
X72060000Y-121100000D01*
X71710000Y-120850000D02*
X72410000Y-120850000D01*
X72760000Y-121550000D02*
X72760000Y-119750000D01*
X71360000Y-121550000D02*
X72760000Y-121550000D01*
X44632000Y-136898000D02*
X45132000Y-136898000D01*
X45132000Y-136898000D02*
X45132000Y-135898000D01*
X44632000Y-135898000D02*
X44632000Y-136898000D01*
X45132000Y-135898000D02*
X44632000Y-135898000D01*
X41584000Y-136898000D02*
X42084000Y-136898000D01*
X42084000Y-136898000D02*
X42084000Y-135898000D01*
X41584000Y-135898000D02*
X41584000Y-136898000D01*
X42084000Y-135898000D02*
X41584000Y-135898000D01*
X113697000Y-122039000D02*
X113697000Y-118839000D01*
X114697000Y-122039000D02*
X113697000Y-121039000D01*
X116197000Y-122039000D02*
X113697000Y-122039000D01*
X113697000Y-118839000D02*
X116197000Y-118839000D01*
X116197000Y-118839000D02*
X116197000Y-122039000D01*
X64701000Y-132670000D02*
X57026000Y-132670000D01*
X57026000Y-132670000D02*
X56051000Y-133645000D01*
X56051000Y-133645000D02*
X56051000Y-136570000D01*
X64701000Y-136570000D02*
X64701000Y-132670000D01*
X56051000Y-136570000D02*
X64701000Y-136570000D01*
X80195000Y-132735000D02*
X72520000Y-132735000D01*
X72520000Y-132735000D02*
X71545000Y-133710000D01*
X71545000Y-133710000D02*
X71545000Y-136635000D01*
X80195000Y-136635000D02*
X80195000Y-132735000D01*
X71545000Y-136635000D02*
X80195000Y-136635000D01*
X72760000Y-114924000D02*
X71360000Y-114924000D01*
X71360000Y-114924000D02*
X71360000Y-116724000D01*
X72060000Y-115524000D02*
X72060000Y-115324000D01*
X72060000Y-115524000D02*
X71710000Y-116024000D01*
X71710000Y-115524000D02*
X72410000Y-115524000D01*
X72410000Y-116024000D02*
X72060000Y-115524000D01*
X72060000Y-116024000D02*
X72060000Y-116274000D01*
X71710000Y-116024000D02*
X72410000Y-116024000D01*
X72760000Y-116724000D02*
X72760000Y-114924000D01*
X71360000Y-116724000D02*
X72760000Y-116724000D01*
X50467000Y-120035000D02*
X41542000Y-120035000D01*
X41542000Y-120035000D02*
X40567000Y-121010000D01*
X40567000Y-121010000D02*
X40567000Y-123935000D01*
X50467000Y-123935000D02*
X50467000Y-120035000D01*
X40567000Y-123935000D02*
X50467000Y-123935000D01*
X51490000Y-123436000D02*
X51990000Y-123436000D01*
X51990000Y-123436000D02*
X51990000Y-122436000D01*
X51490000Y-122436000D02*
X51490000Y-123436000D01*
X51990000Y-122436000D02*
X51490000Y-122436000D01*
X101304258Y-117610854D02*
X101196038Y-117122706D01*
X101196038Y-117122706D02*
X100219742Y-117339146D01*
X100327962Y-117827294D02*
X101304258Y-117610854D01*
X100219742Y-117339146D02*
X100327962Y-117827294D01*
D12*
X74076000Y-173895000D02*
X74076000Y-164895000D01*
X74076000Y-164895000D02*
X73076000Y-163895000D01*
X73076000Y-163895000D02*
X64076000Y-163895000D01*
X64076000Y-173895000D02*
X74076000Y-173895000D01*
X64076000Y-163895000D02*
X64076000Y-173895000D01*
D14*
X48168000Y-139207000D02*
X48708000Y-139207000D01*
X48708000Y-139207000D02*
X48708000Y-138157000D01*
X48168000Y-138157000D02*
X48168000Y-139207000D01*
X48708000Y-138157000D02*
X48168000Y-138157000D01*
X43628000Y-133585000D02*
X43088000Y-133585000D01*
X43088000Y-133585000D02*
X43088000Y-134635000D01*
X43628000Y-134635000D02*
X43628000Y-133585000D01*
X43088000Y-134635000D02*
X43628000Y-134635000D01*
X49692000Y-136921000D02*
X50232000Y-136921000D01*
X50232000Y-136921000D02*
X50232000Y-135871000D01*
X49692000Y-135871000D02*
X49692000Y-136921000D01*
X50232000Y-135871000D02*
X49692000Y-135871000D01*
D12*
X46796400Y-156119600D02*
X46796400Y-147119600D01*
X46796400Y-147119600D02*
X45796400Y-146119600D01*
X45796400Y-146119600D02*
X36796400Y-146119600D01*
X36796400Y-156119600D02*
X46796400Y-156119600D01*
X36796400Y-146119600D02*
X36796400Y-156119600D01*
D14*
X84722000Y-120179500D02*
X86322000Y-120179500D01*
X86322000Y-120179500D02*
X86322000Y-116979500D01*
X84722000Y-116979500D02*
X84722000Y-120179500D01*
X86322000Y-116979500D02*
X84722000Y-116979500D01*
X103250000Y-107875000D02*
X99020000Y-107875000D01*
X99020000Y-107875000D02*
X98020000Y-108875000D01*
X98020000Y-108875000D02*
X98020000Y-113105000D01*
X103250000Y-113105000D02*
X103250000Y-107875000D01*
X98020000Y-113105000D02*
X103250000Y-113105000D01*
X103365087Y-121586351D02*
X103834933Y-121415341D01*
X103834933Y-121415341D02*
X103492913Y-120475649D01*
X103023067Y-120646659D02*
X103365087Y-121586351D01*
X103492913Y-120475649D02*
X103023067Y-120646659D01*
D12*
X101406000Y-173895000D02*
X101406000Y-164895000D01*
X101406000Y-164895000D02*
X100406000Y-163895000D01*
X100406000Y-163895000D02*
X91406000Y-163895000D01*
X91406000Y-173895000D02*
X101406000Y-173895000D01*
X91406000Y-163895000D02*
X91406000Y-173895000D01*
D14*
X110309734Y-124631784D02*
X110239249Y-125167164D01*
X110239249Y-125167164D02*
X111280266Y-125304216D01*
X111350751Y-124768836D02*
X110309734Y-124631784D01*
X111280266Y-125304216D02*
X111350751Y-124768836D01*
X115767000Y-159233000D02*
X114967000Y-159233000D01*
X114967000Y-159233000D02*
X114967000Y-160833000D01*
X115767000Y-160833000D02*
X115767000Y-159233000D01*
X114967000Y-160833000D02*
X115767000Y-160833000D01*
D12*
X60473600Y-156091600D02*
X60473600Y-147091600D01*
X60473600Y-147091600D02*
X59473600Y-146091600D01*
X59473600Y-146091600D02*
X50473600Y-146091600D01*
X50473600Y-156091600D02*
X60473600Y-156091600D01*
X50473600Y-146091600D02*
X50473600Y-156091600D01*
X46872000Y-173895000D02*
X46872000Y-164895000D01*
X46872000Y-164895000D02*
X45872000Y-163895000D01*
X45872000Y-163895000D02*
X36872000Y-163895000D01*
X36872000Y-173895000D02*
X46872000Y-173895000D01*
X36872000Y-163895000D02*
X36872000Y-173895000D01*
D14*
X43108000Y-136870000D02*
X43608000Y-136870000D01*
X43608000Y-136870000D02*
X43608000Y-135870000D01*
X43108000Y-135870000D02*
X43108000Y-136870000D01*
X43608000Y-135870000D02*
X43108000Y-135870000D01*
X67680000Y-119750000D02*
X66280000Y-119750000D01*
X66280000Y-119750000D02*
X66280000Y-121550000D01*
X66980000Y-120350000D02*
X66980000Y-120150000D01*
X66980000Y-120350000D02*
X66630000Y-120850000D01*
X66630000Y-120350000D02*
X67330000Y-120350000D01*
X67330000Y-120850000D02*
X66980000Y-120350000D01*
X66980000Y-120850000D02*
X66980000Y-121100000D01*
X66630000Y-120850000D02*
X67330000Y-120850000D01*
X67680000Y-121550000D02*
X67680000Y-119750000D01*
X66280000Y-121550000D02*
X67680000Y-121550000D01*
X93060000Y-185203000D02*
X93060000Y-181278000D01*
X93060000Y-181278000D02*
X92085000Y-180303000D01*
X92085000Y-180303000D02*
X89160000Y-180303000D01*
X89160000Y-185203000D02*
X93060000Y-185203000D01*
X89160000Y-180303000D02*
X89160000Y-185203000D01*
X47633200Y-130218500D02*
X50133200Y-130218500D01*
X50133200Y-130218500D02*
X50533200Y-129818500D01*
X50533200Y-129818500D02*
X50533200Y-128618500D01*
X47633200Y-128618500D02*
X47633200Y-130218500D01*
X50533200Y-128618500D02*
X47633200Y-128618500D01*
D12*
X115119600Y-173895000D02*
X115119600Y-164895000D01*
X115119600Y-164895000D02*
X114119600Y-163895000D01*
X114119600Y-163895000D02*
X105119600Y-163895000D01*
X105119600Y-173895000D02*
X115119600Y-173895000D01*
X105119600Y-163895000D02*
X105119600Y-173895000D01*
D14*
X47184000Y-133585000D02*
X46644000Y-133585000D01*
X46644000Y-133585000D02*
X46644000Y-134635000D01*
X47184000Y-134635000D02*
X47184000Y-133585000D01*
X46644000Y-134635000D02*
X47184000Y-134635000D01*
X99463498Y-129506629D02*
X99041802Y-129237979D01*
X99041802Y-129237979D02*
X98504502Y-130081371D01*
X98926198Y-130350021D02*
X99463498Y-129506629D01*
X98504502Y-130081371D02*
X98926198Y-130350021D01*
X104803171Y-115397919D02*
X105292578Y-115169705D01*
X105292578Y-115169705D02*
X104848829Y-114218081D01*
X104359422Y-114446295D02*
X104803171Y-115397919D01*
X104848829Y-114218081D02*
X104359422Y-114446295D01*
X104665506Y-132029987D02*
X104232494Y-132279987D01*
X104232494Y-132279987D02*
X104732494Y-133146013D01*
X105165506Y-132896013D02*
X104665506Y-132029987D01*
X104732494Y-133146013D02*
X105165506Y-132896013D01*
X71317000Y-179654000D02*
X70517000Y-179654000D01*
X70517000Y-179654000D02*
X70517000Y-181254000D01*
X71317000Y-181254000D02*
X71317000Y-179654000D01*
X70517000Y-181254000D02*
X71317000Y-181254000D01*
X46644000Y-136921000D02*
X47184000Y-136921000D01*
X47184000Y-136921000D02*
X47184000Y-135871000D01*
X46644000Y-135871000D02*
X46644000Y-136921000D01*
X47184000Y-135871000D02*
X46644000Y-135871000D01*
X74934000Y-179022000D02*
X78634000Y-179022000D01*
X74934000Y-184722000D02*
X74934000Y-179022000D01*
X74934000Y-184722000D02*
X75934000Y-185722000D01*
X75934000Y-185722000D02*
X78634000Y-185722000D01*
X78634000Y-185722000D02*
X78634000Y-179022000D01*
X68820000Y-121550000D02*
X70220000Y-121550000D01*
X70220000Y-121550000D02*
X70220000Y-119750000D01*
X69520000Y-120950000D02*
X69520000Y-121150000D01*
X69520000Y-120950000D02*
X69870000Y-120450000D01*
X69870000Y-120950000D02*
X69170000Y-120950000D01*
X69170000Y-120450000D02*
X69520000Y-120950000D01*
X69520000Y-120450000D02*
X69520000Y-120200000D01*
X69870000Y-120450000D02*
X69170000Y-120450000D01*
X68820000Y-119750000D02*
X68820000Y-121550000D01*
X70220000Y-119750000D02*
X68820000Y-119750000D01*
X105133883Y-118367769D02*
X105017006Y-118894969D01*
X105017006Y-118894969D02*
X106042117Y-119122231D01*
X106158994Y-118595031D02*
X105133883Y-118367769D01*
X106042117Y-119122231D02*
X106158994Y-118595031D01*
X64124000Y-114890000D02*
X62724000Y-114890000D01*
X62724000Y-114890000D02*
X62724000Y-116690000D01*
X63424000Y-115490000D02*
X63424000Y-115290000D01*
X63424000Y-115490000D02*
X63074000Y-115990000D01*
X63074000Y-115490000D02*
X63774000Y-115490000D01*
X63774000Y-115990000D02*
X63424000Y-115490000D01*
X63424000Y-115990000D02*
X63424000Y-116240000D01*
X63074000Y-115990000D02*
X63774000Y-115990000D01*
X64124000Y-116690000D02*
X64124000Y-114890000D01*
X62724000Y-116690000D02*
X64124000Y-116690000D01*
X45152000Y-133583000D02*
X44612000Y-133583000D01*
X44612000Y-133583000D02*
X44612000Y-134633000D01*
X45152000Y-134633000D02*
X45152000Y-133583000D01*
X44612000Y-134633000D02*
X45152000Y-134633000D01*
X61457000Y-119750000D02*
X60057000Y-119750000D01*
X60057000Y-119750000D02*
X60057000Y-121550000D01*
X60757000Y-120350000D02*
X60757000Y-120150000D01*
X60757000Y-120350000D02*
X60407000Y-120850000D01*
X60407000Y-120350000D02*
X61107000Y-120350000D01*
X61107000Y-120850000D02*
X60757000Y-120350000D01*
X60757000Y-120850000D02*
X60757000Y-121100000D01*
X60407000Y-120850000D02*
X61107000Y-120850000D01*
X61457000Y-121550000D02*
X61457000Y-119750000D01*
X60057000Y-121550000D02*
X61457000Y-121550000D01*
X42104000Y-133585000D02*
X41564000Y-133585000D01*
X41564000Y-133585000D02*
X41564000Y-134635000D01*
X42104000Y-134635000D02*
X42104000Y-133585000D01*
X41564000Y-134635000D02*
X42104000Y-134635000D01*
D12*
X101429000Y-156089600D02*
X101429000Y-147089600D01*
X101429000Y-147089600D02*
X100429000Y-146089600D01*
X100429000Y-146089600D02*
X91429000Y-146089600D01*
X91429000Y-156089600D02*
X101429000Y-156089600D01*
X91429000Y-146089600D02*
X91429000Y-156089600D01*
D14*
X108025933Y-121789659D02*
X107556087Y-121618649D01*
X107556087Y-121618649D02*
X107214067Y-122558341D01*
X107683913Y-122729351D02*
X108025933Y-121789659D01*
X107214067Y-122558341D02*
X107683913Y-122729351D01*
X51490000Y-121150000D02*
X51990000Y-121150000D01*
X51990000Y-121150000D02*
X51990000Y-120150000D01*
X51490000Y-120150000D02*
X51490000Y-121150000D01*
X51990000Y-120150000D02*
X51490000Y-120150000D01*
X88862000Y-116979500D02*
X87262000Y-116979500D01*
X87262000Y-116979500D02*
X87262000Y-120179500D01*
X88862000Y-120179500D02*
X88862000Y-116979500D01*
X87262000Y-120179500D02*
X88862000Y-120179500D01*
X60184000Y-116690000D02*
X61584000Y-116690000D01*
X61584000Y-116690000D02*
X61584000Y-114890000D01*
X60884000Y-116090000D02*
X60884000Y-116290000D01*
X60884000Y-116090000D02*
X61234000Y-115590000D01*
X61234000Y-116090000D02*
X60534000Y-116090000D01*
X60534000Y-115590000D02*
X60884000Y-116090000D01*
X60884000Y-115590000D02*
X60884000Y-115340000D01*
X61234000Y-115590000D02*
X60534000Y-115590000D01*
X60184000Y-114890000D02*
X60184000Y-116690000D01*
X61584000Y-114890000D02*
X60184000Y-114890000D01*
D12*
X87766000Y-173895000D02*
X87766000Y-164895000D01*
X87766000Y-164895000D02*
X86766000Y-163895000D01*
X86766000Y-163895000D02*
X77766000Y-163895000D01*
X77766000Y-173895000D02*
X87766000Y-173895000D01*
X77766000Y-163895000D02*
X77766000Y-173895000D01*
D14*
X105509021Y-124021198D02*
X105240371Y-123599502D01*
X105240371Y-123599502D02*
X104396979Y-124136802D01*
X104665629Y-124558498D02*
X105509021Y-124021198D01*
X104396979Y-124136802D02*
X104665629Y-124558498D01*
X49692000Y-139207000D02*
X50232000Y-139207000D01*
X50232000Y-139207000D02*
X50232000Y-138157000D01*
X49692000Y-138157000D02*
X49692000Y-139207000D01*
X50232000Y-138157000D02*
X49692000Y-138157000D01*
X36100000Y-160820000D02*
X36900000Y-160820000D01*
X36900000Y-160820000D02*
X36900000Y-159220000D01*
X36100000Y-159220000D02*
X36100000Y-160820000D01*
X36900000Y-159220000D02*
X36100000Y-159220000D01*
X62580000Y-185076000D02*
X62580000Y-181151000D01*
X62580000Y-181151000D02*
X61605000Y-180176000D01*
X61605000Y-180176000D02*
X58680000Y-180176000D01*
X58680000Y-185076000D02*
X62580000Y-185076000D01*
X58680000Y-180176000D02*
X58680000Y-185076000D01*
X41945000Y-117235999D02*
X42485000Y-117235999D01*
X42485000Y-117235999D02*
X42485000Y-116185999D01*
X41945000Y-116185999D02*
X41945000Y-117235999D01*
X42485000Y-116185999D02*
X41945000Y-116185999D01*
M02*
