M48
; DRILL file {KiCad 7.0.5-0} date 2023 June 16, Friday 23:12:29
; FORMAT={-:-/ absolute / metric / decimal}
; #@! TF.CreationDate,2023-06-16T23:12:29-07:00
; #@! TF.GenerationSoftware,Kicad,Pcbnew,7.0.5-0
; #@! TF.FileFunction,Plated,1,4,PTH
FMAT,2
METRIC
; #@! TA.AperFunction,Plated,PTH,ViaDrill
T1C0.150
; #@! TA.AperFunction,Plated,PTH,ComponentDrill
T2C0.350
; #@! TA.AperFunction,Plated,PTH,ComponentDrill
T3C0.600
; #@! TA.AperFunction,Plated,PTH,ComponentDrill
T4C0.762
; #@! TA.AperFunction,Plated,PTH,ComponentDrill
T5C0.800
; #@! TA.AperFunction,Plated,PTH,ComponentDrill
T6C0.900
; #@! TA.AperFunction,Plated,PTH,ComponentDrill
T7C1.000
%
G90
G05
T1
X35.54Y-155.854
X36.175Y-162.771
X36.175Y-163.503
X36.19Y-156.286
X36.358Y-141.986
X36.444Y-146.228
X36.683Y-141.478
X36.856Y-116.053
X37.077Y-152.153
X37.135Y-123.444
X37.16Y-166.421
X37.229Y-168.877
X37.237Y-152.806
X37.268Y-147.879
X37.293Y-149.04
X37.313Y-121.437
X37.313Y-178.232
X37.396Y-155.424
X37.424Y-168.156
X37.535Y-150.945
X37.541Y-164.287
X37.612Y-165.278
X37.643Y-125.984
X37.745Y-171.501
X37.988Y-143.856
X38.024Y-173.101
X38.049Y-166.776
X38.119Y-172.339
X38.131Y-171.602
X38.146Y-130.713
X38.245Y-149.065
X38.253Y-118.694
X38.697Y-151.204
X39.04Y-169.044
X39.142Y-179.299
X39.294Y-151.13
X39.54Y-167.457
X39.764Y-125.718
X39.856Y-160.318
X39.941Y-144.172
X40.208Y-162.27
X40.31Y-144.501
X40.402Y-164.398
X40.523Y-147.635
X40.626Y-131.901
X40.894Y-166.522
X41.007Y-130.753
X41.579Y-133.044
X41.664Y-132.363
X41.996Y-131.512
X42.088Y-153.797
X42.095Y-142.479
X42.215Y-131.953
X42.469Y-148.971
X42.515Y-155.112
X42.527Y-132.778
X42.531Y-157.758
X42.647Y-173.482
X42.827Y-175.731
X42.857Y-140.494
X42.901Y-126.594
X42.901Y-154.051
X43.104Y-165.357
X43.105Y-164.774
X43.153Y-159.781
X43.195Y-155.855
X43.866Y-140.081
X44.018Y-141.3
X44.095Y-136.627
X44.135Y-153.559
X44.226Y-126.46
X44.474Y-148.73
X44.755Y-110.49
X45.009Y-166.319
X45.161Y-148.666
X45.171Y-178.721
X45.187Y-164.998
X45.441Y-175.666
X45.445Y-154.94
X45.466Y-141.605
X45.517Y-131.826
X45.593Y-164.744
X45.644Y-157.744
X45.647Y-166.807
X45.746Y-148.844
X45.796Y-142.037
X45.873Y-166.421
X45.929Y-133.155
X46.026Y-153.263
X46.152Y-168.91
X46.203Y-129.159
X46.355Y-166.395
X46.599Y-168.923
X46.66Y-106.68
X46.863Y-142.265
X46.923Y-140.229
X47.409Y-133.053
X47.549Y-138.811
X47.6Y-173.711
X47.651Y-144.424
X47.752Y-174.6
X47.803Y-131.689
X47.803Y-142.215
X47.811Y-156.456
X47.854Y-156.972
X47.879Y-175.666
X47.918Y-139.28
X47.93Y-175.108
X47.951Y-125.914
X47.955Y-121.234
X47.956Y-173.488
X48.118Y-164.359
X48.184Y-106.68
X48.298Y-145.593
X48.545Y-122.809
X48.692Y-152.908
X48.717Y-149.215
X48.752Y-166.465
X49.098Y-107.086
X49.2Y-134.696
X49.259Y-129.956
X49.962Y-111.65
X50.114Y-163.017
X50.368Y-142.418
X50.394Y-173.685
X50.47Y-107.188
X50.47Y-126.263
X50.609Y-166.938
X50.673Y-164.109
X50.775Y-147.193
X50.8Y-142.469
X50.84Y-163.043
X50.927Y-149.123
X51.003Y-171.729
X51.029Y-170.723
X51.06Y-110.572
X51.312Y-171.435
X51.352Y-134.119
X51.41Y-171.048
X51.437Y-129.927
X51.461Y-152.945
X51.511Y-168.961
X51.562Y-153.441
X51.588Y-166.421
X51.607Y-150.999
X51.74Y-107.188
X51.794Y-165.994
X51.955Y-151.511
X51.994Y-133.604
X51.994Y-134.62
X52.146Y-160.122
X52.401Y-110.591
X52.464Y-148.171
X52.527Y-142.519
X52.578Y-153.924
X52.751Y-112.613
X52.756Y-117.348
X52.771Y-166.938
X52.832Y-144.45
X52.872Y-107.188
X52.991Y-134.44
X53.315Y-166.497
X53.391Y-149.352
X53.391Y-170.866
X53.416Y-148.006
X53.47Y-152.945
X53.518Y-179.197
X53.772Y-114.198
X53.892Y-166.613
X53.899Y-167.767
X53.926Y-140.382
X54.088Y-134.44
X54.171Y-115.548
X54.909Y-126.746
X54.939Y-166.445
X55.016Y-170.154
X55.204Y-164.287
X55.245Y-148.862
X55.256Y-173.72
X55.423Y-149.733
X55.525Y-155.194
X55.525Y-175.743
X55.593Y-177.246
X55.674Y-173.302
X55.855Y-153.391
X56.058Y-108.899
X56.301Y-121.357
X56.312Y-126.746
X56.388Y-153.289
X56.413Y-168.757
X56.492Y-166.638
X56.591Y-151.155
X56.615Y-125.314
X56.661Y-152.994
X56.693Y-169.799
X56.98Y-166.638
X56.998Y-159.57
X57.126Y-179.775
X57.2Y-132.527
X57.315Y-117.11
X57.317Y-122.671
X57.353Y-134.544
X57.736Y-142.894
X57.796Y-144.467
X57.811Y-157.836
X57.966Y-170.358
X58.068Y-153.67
X58.137Y-178.666
X58.293Y-166.638
X58.324Y-141.868
X58.395Y-172.008
X58.464Y-148.998
X58.506Y-133.412
X58.793Y-177.797
X58.903Y-154.018
X59.189Y-170.908
X59.399Y-149.083
X59.614Y-180.34
X59.886Y-133.815
X60.122Y-153.187
X60.137Y-171.058
X60.323Y-177.732
X60.427Y-163.17
X60.503Y-123.86
X60.503Y-145.593
X60.524Y-164.077
X60.528Y-133.815
X60.528Y-156.921
X60.538Y-122.731
X60.63Y-144.907
X60.75Y-177.713
X60.775Y-175.033
X60.825Y-163.017
X60.973Y-156.68
X62.078Y-139.7
X62.256Y-149.315
X62.289Y-166.238
X62.306Y-151.195
X62.383Y-166.913
X62.408Y-130.099
X62.825Y-163.823
X62.904Y-162.901
X63.043Y-185.877
X63.068Y-156.235
X63.094Y-155.753
X63.119Y-177.298
X63.348Y-145.016
X63.519Y-130.048
X63.805Y-133.477
X64.375Y-149.216
X64.509Y-168.885
X64.555Y-148.659
X64.567Y-151.13
X64.694Y-177.927
X64.817Y-166.788
X64.896Y-153.895
X64.955Y-171.882
X64.957Y-130.288
X65.05Y-185.91
X65.1Y-122.53
X65.118Y-170.854
X65.278Y-118.262
X65.306Y-139.342
X65.354Y-147.32
X65.405Y-148.209
X65.431Y-164.16
X65.456Y-149.25
X65.507Y-165.456
X65.551Y-153.889
X65.583Y-153.416
X65.685Y-159.965
X65.761Y-147.853
X65.913Y-164.567
X65.915Y-144.425
X65.958Y-141.868
X65.964Y-180.467
X66.015Y-166.573
X66.032Y-177.994
X66.218Y-139.446
X66.32Y-148.971
X66.37Y-153.416
X66.411Y-127.0
X66.472Y-168.91
X66.586Y-170.958
X66.98Y-168.895
X67.183Y-166.395
X67.361Y-151.13
X67.64Y-159.918
X67.742Y-123.782
X68.098Y-140.208
X68.123Y-147.879
X68.162Y-166.867
X68.225Y-144.399
X68.25Y-118.872
X68.421Y-175.666
X68.453Y-155.804
X68.733Y-159.893
X69.166Y-129.661
X69.236Y-149.489
X69.266Y-168.529
X69.571Y-113.563
X69.747Y-179.761
X69.877Y-182.637
X69.901Y-134.309
X69.919Y-166.775
X70.053Y-184.988
X70.154Y-159.99
X70.313Y-166.529
X70.402Y-153.415
X70.459Y-164.097
X70.46Y-170.935
X70.52Y-147.457
X70.561Y-177.292
X70.62Y-175.655
X70.688Y-159.893
X70.839Y-141.049
X70.87Y-117.53
X70.917Y-131.318
X71.044Y-153.67
X71.171Y-166.116
X71.171Y-170.688
X71.298Y-134.62
X71.437Y-149.32
X71.745Y-166.778
X71.806Y-150.876
X71.833Y-148.744
X72.035Y-117.881
X72.391Y-153.748
X72.459Y-171.26
X72.568Y-166.497
X72.692Y-170.338
X72.695Y-131.826
X72.822Y-148.844
X72.822Y-159.893
X73.0Y-164.072
X73.041Y-166.016
X73.076Y-170.17
X73.288Y-171.235
X73.33Y-153.772
X73.731Y-162.916
X73.837Y-171.26
X73.838Y-141.097
X73.838Y-167.259
X73.863Y-152.984
X73.965Y-133.223
X74.803Y-123.782
X75.007Y-133.768
X75.235Y-132.334
X75.35Y-122.295
X75.357Y-140.551
X75.359Y-141.116
X75.538Y-146.18
X75.591Y-163.347
X75.634Y-145.122
X75.81Y-148.944
X75.829Y-181.775
X75.914Y-152.654
X75.997Y-171.45
X76.02Y-145.398
X76.048Y-153.529
X76.211Y-146.18
X76.231Y-174.504
X76.543Y-130.421
X76.759Y-133.731
X76.784Y-123.088
X76.903Y-131.015
X77.267Y-123.571
X77.369Y-141.049
X77.643Y-149.273
X77.902Y-134.366
X77.986Y-180.933
X78.039Y-162.687
X78.054Y-145.644
X78.067Y-163.97
X78.177Y-153.69
X78.19Y-178.689
X78.223Y-148.138
X78.283Y-167.702
X78.334Y-166.573
X78.461Y-165.837
X78.475Y-147.827
X78.588Y-117.907
X78.639Y-146.558
X78.664Y-171.831
X78.74Y-164.617
X78.829Y-166.045
X78.918Y-134.366
X79.172Y-130.938
X79.205Y-153.035
X79.527Y-153.891
X79.554Y-149.302
X79.68Y-134.62
X80.057Y-130.397
X80.112Y-166.446
X80.188Y-171.069
X80.366Y-160.096
X80.378Y-149.269
X80.558Y-148.433
X80.848Y-165.811
X80.864Y-163.967
X80.88Y-148.197
X81.249Y-146.837
X81.277Y-164.691
X81.295Y-144.467
X81.327Y-153.242
X81.458Y-139.669
X81.915Y-178.74
X82.22Y-148.971
X82.372Y-118.493
X82.831Y-153.575
X83.013Y-148.926
X83.109Y-167.095
X83.115Y-140.3
X83.129Y-146.682
X83.221Y-172.591
X83.261Y-159.915
X83.297Y-162.083
X83.435Y-165.511
X83.548Y-172.854
X83.642Y-177.117
X83.654Y-162.263
X83.694Y-157.652
X83.998Y-167.259
X84.041Y-153.754
X84.485Y-149.191
X84.506Y-169.175
X84.531Y-179.299
X84.837Y-152.444
X84.887Y-118.694
X85.298Y-131.744
X85.346Y-149.48
X85.363Y-167.061
X85.522Y-159.868
X85.63Y-164.547
X85.903Y-153.543
X86.055Y-167.386
X86.155Y-159.857
X86.157Y-124.079
X86.173Y-149.181
X86.213Y-132.903
X86.234Y-144.145
X86.284Y-137.414
X86.293Y-152.674
X86.36Y-170.764
X86.38Y-157.797
X86.511Y-141.033
X86.696Y-140.245
X87.046Y-124.968
X87.148Y-166.464
X87.173Y-151.13
X87.305Y-169.106
X87.348Y-153.422
X87.421Y-178.944
X87.452Y-149.116
X88.122Y-142.817
X88.424Y-173.764
X88.443Y-137.541
X88.463Y-142.57
X88.824Y-145.034
X88.92Y-162.535
X89.078Y-142.621
X89.351Y-149.221
X89.551Y-171.162
X89.561Y-168.961
X89.611Y-151.155
X89.744Y-149.148
X90.018Y-131.794
X90.051Y-133.484
X90.221Y-178.295
X90.424Y-141.417
X90.501Y-133.484
X90.602Y-140.081
X90.669Y-130.186
X90.729Y-138.469
X90.754Y-163.805
X90.907Y-155.626
X91.083Y-141.295
X91.237Y-132.436
X91.237Y-163.093
X91.339Y-156.489
X91.613Y-154.127
X91.642Y-140.264
X91.669Y-160.503
X91.821Y-149.215
X91.923Y-171.704
X92.082Y-148.912
X92.253Y-140.97
X92.466Y-171.691
X92.507Y-168.275
X92.532Y-131.978
X92.562Y-148.294
X92.634Y-168.91
X92.837Y-141.692
X92.967Y-148.239
X93.012Y-130.186
X93.421Y-164.313
X93.421Y-162.23
X93.582Y-172.555
X93.647Y-129.936
X93.904Y-160.325
X93.929Y-166.548
X94.128Y-129.936
X94.133Y-159.42
X94.135Y-142.017
X94.158Y-148.971
X94.266Y-171.33
X94.404Y-152.845
X94.793Y-149.225
X95.004Y-141.842
X95.067Y-123.952
X95.082Y-134.435
X95.098Y-166.832
X95.536Y-134.302
X95.55Y-152.685
X95.606Y-171.704
X95.663Y-141.675
X95.682Y-137.033
X95.883Y-167.095
X95.987Y-144.475
X96.063Y-185.794
X96.07Y-132.862
X96.088Y-180.01
X96.221Y-133.705
X96.317Y-157.937
X96.342Y-177.165
X96.368Y-125.4
X96.615Y-123.934
X96.647Y-167.021
X96.749Y-122.86
X96.857Y-153.461
X96.876Y-140.03
X96.927Y-171.069
X96.952Y-148.59
X97.028Y-130.099
X97.079Y-124.035
X97.275Y-153.385
X97.421Y-125.79
X97.456Y-126.261
X97.587Y-185.826
X97.968Y-141.707
X97.993Y-159.791
X98.047Y-129.238
X98.095Y-179.654
X98.16Y-171.494
X98.222Y-167.259
X98.476Y-149.225
X98.495Y-164.955
X98.507Y-128.295
X98.535Y-164.465
X98.628Y-165.659
X98.679Y-122.707
X98.73Y-153.664
X98.882Y-164.211
X98.984Y-155.702
X99.074Y-157.671
X99.238Y-131.801
X99.299Y-171.825
X99.34Y-178.892
X99.416Y-160.141
X99.421Y-149.256
X99.662Y-148.838
X99.721Y-170.744
X99.722Y-171.858
X100.003Y-168.53
X100.076Y-116.713
X100.127Y-151.765
X100.254Y-168.91
X100.259Y-129.841
X100.406Y-133.071
X100.432Y-166.903
X100.571Y-128.157
X100.61Y-116.561
X100.914Y-164.998
X100.937Y-162.761
X100.965Y-162.306
X100.965Y-166.929
X100.991Y-156.718
X101.067Y-164.541
X101.127Y-171.306
X101.194Y-174.168
X101.198Y-172.698
X101.238Y-171.707
X101.4Y-118.142
X101.6Y-174.269
X101.689Y-162.355
X101.803Y-178.892
X101.88Y-115.799
X101.93Y-141.457
X102.083Y-132.232
X102.438Y-119.507
X102.54Y-116.408
X102.845Y-132.588
X102.896Y-109.322
X102.946Y-117.373
X103.023Y-171.729
X103.15Y-171.018
X103.226Y-134.112
X103.226Y-148.209
X103.255Y-130.881
X103.378Y-171.374
X103.449Y-164.008
X103.49Y-172.095
X103.494Y-118.045
X103.505Y-164.49
X103.513Y-167.095
X103.531Y-166.548
X103.665Y-123.807
X103.672Y-141.968
X103.683Y-132.258
X103.759Y-156.566
X103.759Y-174.219
X103.988Y-146.177
X104.005Y-157.048
X104.089Y-117.551
X104.089Y-163.5
X104.105Y-142.803
X104.115Y-135.052
X104.437Y-122.174
X104.465Y-136.271
X104.557Y-130.881
X105.121Y-117.329
X105.33Y-131.794
X105.48Y-148.277
X105.537Y-142.011
X105.588Y-178.816
X105.791Y-141.249
X105.855Y-167.074
X105.969Y-131.794
X105.994Y-132.613
X106.045Y-155.727
X106.121Y-121.945
X106.132Y-120.335
X106.159Y-179.006
X106.241Y-166.225
X106.477Y-123.825
X106.477Y-177.089
X106.553Y-133.585
X106.579Y-164.313
X106.69Y-119.13
X106.75Y-116.721
X106.751Y-153.481
X107.112Y-149.225
X107.143Y-153.559
X107.295Y-132.969
X107.296Y-141.561
X107.468Y-118.085
X107.493Y-166.573
X107.68Y-116.72
X107.696Y-125.552
X107.81Y-139.382
X107.874Y-178.816
X107.945Y-127.356
X107.95Y-166.599
X107.976Y-153.67
X108.001Y-137.033
X108.094Y-171.78
X108.128Y-120.421
X108.153Y-180.772
X108.279Y-119.391
X108.585Y-124.866
X108.608Y-121.582
X108.674Y-160.388
X108.726Y-140.792
X108.949Y-162.201
X109.169Y-160.426
X109.22Y-134.214
X109.228Y-165.473
X109.236Y-146.812
X109.236Y-157.886
X109.258Y-164.649
X109.373Y-120.752
X109.449Y-130.099
X109.522Y-171.455
X109.55Y-170.84
X109.576Y-153.797
X109.707Y-160.453
X109.855Y-134.087
X110.008Y-127.076
X110.033Y-121.209
X110.255Y-141.986
X110.296Y-130.367
X110.389Y-129.515
X110.589Y-149.315
X110.643Y-127.584
X110.681Y-128.613
X110.827Y-160.087
X111.125Y-164.516
X111.233Y-123.698
X111.233Y-124.46
X111.273Y-127.437
X111.303Y-155.346
X111.532Y-128.245
X111.603Y-130.567
X111.626Y-141.591
X111.776Y-153.81
X111.811Y-166.192
X111.843Y-149.279
X112.174Y-130.504
X112.185Y-171.425
X112.243Y-167.259
X112.268Y-178.74
X112.294Y-132.994
X112.375Y-122.65
X112.453Y-133.815
X112.477Y-127.055
X112.7Y-151.257
X112.733Y-148.871
X112.753Y-170.892
X112.803Y-131.031
X113.07Y-171.655
X113.335Y-140.589
X113.444Y-159.969
X113.64Y-166.853
X113.672Y-118.525
X113.769Y-171.037
X113.812Y-124.587
X113.894Y-165.075
X113.981Y-167.157
X114.11Y-151.005
X114.166Y-147.937
X114.173Y-157.886
X114.173Y-176.784
X114.199Y-126.441
X114.478Y-176.327
X114.554Y-127.508
X114.554Y-168.046
X114.58Y-147.625
X114.681Y-166.345
X114.783Y-149.581
X114.917Y-151.836
X114.961Y-171.653
X114.981Y-175.187
X115.056Y-174.752
X115.317Y-163.025
X115.342Y-158.242
X115.576Y-155.903
X115.631Y-175.284
X115.701Y-176.536
X115.906Y-173.703
X115.931Y-177.419
X115.951Y-157.328
T2
X104.562Y-125.217
X104.562Y-126.492
X104.562Y-127.767
X105.837Y-125.217
X105.837Y-126.492
X105.837Y-127.767
X107.112Y-125.217
X107.112Y-126.492
X107.112Y-127.767
T4
X55.296Y-106.578
X55.296Y-110.998
X95.936Y-106.426
T5
X35.738Y-120.936
X35.738Y-122.936
X35.738Y-126.936
X35.738Y-128.936
X39.038Y-120.936
X39.038Y-122.936
X39.038Y-126.936
X39.038Y-128.936
X80.442Y-114.808
X80.442Y-122.428
X82.982Y-114.808
X82.982Y-122.428
X85.522Y-114.808
X85.522Y-122.428
X88.062Y-114.808
X88.062Y-122.428
T7
X36.21Y-111.863
X38.006Y-110.067
X39.802Y-108.271
X41.598Y-106.475
X57.836Y-110.911
X57.836Y-126.151
X60.376Y-110.911
X60.376Y-126.151
X62.916Y-110.911
X62.916Y-126.151
X65.456Y-110.911
X65.456Y-126.151
X67.996Y-110.911
X67.996Y-126.151
X70.536Y-110.911
X70.536Y-126.151
X73.076Y-110.911
X73.076Y-126.151
X75.616Y-110.911
X75.616Y-126.151
X78.156Y-110.911
X78.156Y-126.151
X80.696Y-110.911
X80.696Y-126.151
X83.236Y-110.911
X83.236Y-126.151
X85.776Y-110.911
X85.776Y-126.151
X88.316Y-110.911
X88.316Y-126.151
X90.856Y-110.911
X90.856Y-126.151
X92.38Y-116.205
X92.38Y-118.745
X92.38Y-121.285
X93.396Y-110.911
X93.396Y-126.151
T3
X38.59Y-143.51G85X39.49Y-143.51
G05
X38.59Y-158.75G85X39.49Y-158.75
G05
X38.59Y-161.29G85X39.49Y-161.29
G05
X38.59Y-176.53G85X39.49Y-176.53
G05
X41.13Y-143.51G85X42.03Y-143.51
G05
X41.13Y-158.75G85X42.03Y-158.75
G05
X41.13Y-161.29G85X42.03Y-161.29
G05
X41.13Y-176.53G85X42.03Y-176.53
G05
X43.67Y-143.51G85X44.57Y-143.51
G05
X43.67Y-158.75G85X44.57Y-158.75
G05
X43.67Y-161.29G85X44.57Y-161.29
G05
X43.67Y-176.53G85X44.57Y-176.53
G05
X46.21Y-143.51G85X47.11Y-143.51
G05
X46.21Y-158.75G85X47.11Y-158.75
G05
X46.21Y-161.29G85X47.11Y-161.29
G05
X46.21Y-176.53G85X47.11Y-176.53
G05
X48.75Y-143.51G85X49.65Y-143.51
G05
X48.75Y-158.75G85X49.65Y-158.75
G05
X48.75Y-161.29G85X49.65Y-161.29
G05
X48.75Y-176.53G85X49.65Y-176.53
G05
X51.29Y-143.51G85X52.19Y-143.51
G05
X51.29Y-158.75G85X52.19Y-158.75
G05
X51.29Y-161.29G85X52.19Y-161.29
G05
X51.29Y-176.53G85X52.19Y-176.53
G05
X53.83Y-143.51G85X54.73Y-143.51
G05
X53.83Y-158.75G85X54.73Y-158.75
G05
X53.83Y-161.29G85X54.73Y-161.29
G05
X53.83Y-176.53G85X54.73Y-176.53
G05
X56.37Y-143.51G85X57.27Y-143.51
G05
X56.37Y-158.75G85X57.27Y-158.75
G05
X56.37Y-161.29G85X57.27Y-161.29
G05
X56.37Y-176.53G85X57.27Y-176.53
G05
X58.91Y-143.51G85X59.81Y-143.51
G05
X58.91Y-158.75G85X59.81Y-158.75
G05
X58.91Y-161.29G85X59.81Y-161.29
G05
X58.91Y-176.53G85X59.81Y-176.53
G05
X61.45Y-143.51G85X62.35Y-143.51
G05
X61.45Y-158.75G85X62.35Y-158.75
G05
X61.45Y-161.29G85X62.35Y-161.29
G05
X61.45Y-176.53G85X62.35Y-176.53
G05
X63.99Y-143.51G85X64.89Y-143.51
G05
X63.99Y-158.75G85X64.89Y-158.75
G05
X63.99Y-161.29G85X64.89Y-161.29
G05
X63.99Y-176.53G85X64.89Y-176.53
G05
X66.53Y-143.51G85X67.43Y-143.51
G05
X66.53Y-158.75G85X67.43Y-158.75
G05
X66.53Y-161.29G85X67.43Y-161.29
G05
X66.53Y-176.53G85X67.43Y-176.53
G05
X69.07Y-143.51G85X69.97Y-143.51
G05
X69.07Y-158.75G85X69.97Y-158.75
G05
X69.07Y-161.29G85X69.97Y-161.29
G05
X69.07Y-176.53G85X69.97Y-176.53
G05
X71.61Y-143.51G85X72.51Y-143.51
G05
X71.61Y-158.75G85X72.51Y-158.75
G05
X71.61Y-161.29G85X72.51Y-161.29
G05
X71.61Y-176.53G85X72.51Y-176.53
G05
X74.15Y-143.51G85X75.05Y-143.51
G05
X74.15Y-158.75G85X75.05Y-158.75
G05
X74.15Y-161.29G85X75.05Y-161.29
G05
X74.15Y-176.53G85X75.05Y-176.53
G05
X76.69Y-143.51G85X77.59Y-143.51
G05
X76.69Y-158.75G85X77.59Y-158.75
G05
X76.69Y-161.29G85X77.59Y-161.29
G05
X76.69Y-176.53G85X77.59Y-176.53
G05
X79.23Y-143.51G85X80.13Y-143.51
G05
X79.23Y-158.75G85X80.13Y-158.75
G05
X79.23Y-161.29G85X80.13Y-161.29
G05
X79.23Y-176.53G85X80.13Y-176.53
G05
X81.77Y-143.51G85X82.67Y-143.51
G05
X81.77Y-158.75G85X82.67Y-158.75
G05
X81.77Y-161.29G85X82.67Y-161.29
G05
X81.77Y-176.53G85X82.67Y-176.53
G05
X84.31Y-143.51G85X85.21Y-143.51
G05
X84.31Y-158.75G85X85.21Y-158.75
G05
X84.31Y-161.29G85X85.21Y-161.29
G05
X84.31Y-176.53G85X85.21Y-176.53
G05
X86.85Y-143.51G85X87.75Y-143.51
G05
X86.85Y-158.75G85X87.75Y-158.75
G05
X86.85Y-161.29G85X87.75Y-161.29
G05
X86.85Y-176.53G85X87.75Y-176.53
G05
X89.39Y-143.51G85X90.29Y-143.51
G05
X89.39Y-158.75G85X90.29Y-158.75
G05
X89.39Y-161.29G85X90.29Y-161.29
G05
X89.39Y-176.53G85X90.29Y-176.53
G05
X91.93Y-143.51G85X92.83Y-143.51
G05
X91.93Y-158.75G85X92.83Y-158.75
G05
X91.93Y-161.29G85X92.83Y-161.29
G05
X91.93Y-176.53G85X92.83Y-176.53
G05
X94.47Y-143.51G85X95.37Y-143.51
G05
X94.47Y-158.75G85X95.37Y-158.75
G05
X94.47Y-161.29G85X95.37Y-161.29
G05
X94.47Y-176.53G85X95.37Y-176.53
G05
X97.01Y-143.51G85X97.91Y-143.51
G05
X97.01Y-158.75G85X97.91Y-158.75
G05
X97.01Y-161.29G85X97.91Y-161.29
G05
X97.01Y-176.53G85X97.91Y-176.53
G05
X99.55Y-143.51G85X100.45Y-143.51
G05
X99.55Y-158.75G85X100.45Y-158.75
G05
X99.55Y-161.29G85X100.45Y-161.29
G05
X99.55Y-176.53G85X100.45Y-176.53
G05
X102.09Y-143.51G85X102.99Y-143.51
G05
X102.09Y-158.75G85X102.99Y-158.75
G05
X102.09Y-161.29G85X102.99Y-161.29
G05
X102.09Y-176.53G85X102.99Y-176.53
G05
X104.63Y-143.51G85X105.53Y-143.51
G05
X104.63Y-158.75G85X105.53Y-158.75
G05
X104.63Y-161.29G85X105.53Y-161.29
G05
X104.63Y-176.53G85X105.53Y-176.53
G05
X107.17Y-143.51G85X108.07Y-143.51
G05
X107.17Y-158.75G85X108.07Y-158.75
G05
X107.17Y-161.29G85X108.07Y-161.29
G05
X107.17Y-176.53G85X108.07Y-176.53
G05
X109.71Y-143.51G85X110.61Y-143.51
G05
X109.71Y-158.75G85X110.61Y-158.75
G05
X109.71Y-161.29G85X110.61Y-161.29
G05
X109.71Y-176.53G85X110.61Y-176.53
G05
X112.25Y-143.51G85X113.15Y-143.51
G05
X112.25Y-158.75G85X113.15Y-158.75
G05
X112.25Y-161.29G85X113.15Y-161.29
G05
X112.25Y-176.53G85X113.15Y-176.53
G05
T6
X37.77Y-135.49G85X37.77Y-136.29
G05
X37.77Y-138.03G85X37.77Y-138.83
G05
X37.77Y-181.21G85X37.77Y-182.01
G05
X37.77Y-183.75G85X37.77Y-184.55
G05
X53.01Y-135.49G85X53.01Y-136.29
G05
X53.01Y-135.49G85X53.01Y-136.29
G05
X53.01Y-138.03G85X53.01Y-138.83
G05
X53.01Y-138.03G85X53.01Y-138.83
G05
X53.01Y-181.21G85X53.01Y-182.01
G05
X53.01Y-181.21G85X53.01Y-182.01
G05
X53.01Y-183.75G85X53.01Y-184.55
G05
X53.01Y-183.75G85X53.01Y-184.55
G05
X68.25Y-135.49G85X68.25Y-136.29
G05
X68.25Y-135.49G85X68.25Y-136.29
G05
X68.25Y-138.03G85X68.25Y-138.83
G05
X68.25Y-138.03G85X68.25Y-138.83
G05
X68.25Y-181.223G85X68.25Y-182.023
G05
X68.25Y-181.223G85X68.25Y-182.023
G05
X68.25Y-183.75G85X68.25Y-184.55
G05
X68.25Y-183.75G85X68.25Y-184.55
G05
X83.49Y-135.49G85X83.49Y-136.29
G05
X83.49Y-135.49G85X83.49Y-136.29
G05
X83.49Y-138.03G85X83.49Y-138.83
G05
X83.49Y-138.03G85X83.49Y-138.83
G05
X83.49Y-181.21G85X83.49Y-182.01
G05
X83.49Y-181.21G85X83.49Y-182.01
G05
X83.49Y-183.75G85X83.49Y-184.55
G05
X83.49Y-183.75G85X83.49Y-184.55
G05
X98.73Y-135.49G85X98.73Y-136.29
G05
X98.73Y-135.49G85X98.73Y-136.29
G05
X98.73Y-138.03G85X98.73Y-138.83
G05
X98.73Y-138.03G85X98.73Y-138.83
G05
X98.73Y-181.21G85X98.73Y-182.01
G05
X98.73Y-181.21G85X98.73Y-182.01
G05
X98.73Y-183.75G85X98.73Y-184.55
G05
X98.73Y-183.75G85X98.73Y-184.55
G05
X113.97Y-135.49G85X113.97Y-136.29
G05
X113.97Y-138.03G85X113.97Y-138.83
G05
X113.97Y-181.21G85X113.97Y-182.01
G05
X113.97Y-183.75G85X113.97Y-184.55
G05
T0
M30
