M48
; DRILL file {KiCad 7.0.5-0} date 2023 June 17, Saturday 21:21:15
; FORMAT={-:-/ absolute / metric / decimal}
; #@! TF.CreationDate,2023-06-17T21:21:15-07:00
; #@! TF.GenerationSoftware,Kicad,Pcbnew,7.0.5-0
; #@! TF.FileFunction,Plated,1,2,PTH
FMAT,2
METRIC
; #@! TA.AperFunction,Plated,PTH,ViaDrill
T1C0.200
; #@! TA.AperFunction,Plated,PTH,ComponentDrill
T2C0.762
%
G90
G05
T1
X87.884Y-73.279
X89.281Y-72.136
X90.678Y-70.866
X94.572Y-82.593
X94.615Y-66.294
X95.758Y-83.058
X97.663Y-62.865
X97.663Y-84.582
X100.203Y-62.865
X100.203Y-84.582
X102.743Y-62.865
X102.743Y-84.582
X105.283Y-84.582
X105.41Y-62.865
X107.823Y-84.582
X107.95Y-62.865
X110.363Y-62.865
X110.363Y-84.582
X112.903Y-62.865
X112.903Y-84.582
X115.443Y-62.865
X115.443Y-84.582
X117.983Y-62.865
X117.983Y-84.582
X120.523Y-62.865
X120.523Y-84.582
X123.063Y-62.865
X123.063Y-84.582
X125.603Y-62.865
X125.603Y-84.582
X128.143Y-62.865
X128.143Y-84.582
X130.683Y-62.865
X130.683Y-84.582
X133.096Y-62.865
X133.223Y-84.582
X133.223Y-85.344
T2
X95.123Y-63.652
X95.123Y-68.072
X125.603Y-67.996
X130.683Y-83.236
X135.763Y-63.5
T0
M30
