%TF.GenerationSoftware,KiCad,Pcbnew,7.0.5-0*%
%TF.CreationDate,2023-06-17T21:21:13-07:00*%
%TF.ProjectId,JumperlessLEDboard,4a756d70-6572-46c6-9573-734c4544626f,rev?*%
%TF.SameCoordinates,Original*%
%TF.FileFunction,Paste,Top*%
%TF.FilePolarity,Positive*%
%FSLAX46Y46*%
G04 Gerber Fmt 4.6, Leading zero omitted, Abs format (unit mm)*
G04 Created by KiCad (PCBNEW 7.0.5-0) date 2023-06-17 21:21:13*
%MOMM*%
%LPD*%
G01*
G04 APERTURE LIST*
G04 Aperture macros list*
%AMRoundRect*
0 Rectangle with rounded corners*
0 $1 Rounding radius*
0 $2 $3 $4 $5 $6 $7 $8 $9 X,Y pos of 4 corners*
0 Add a 4 corners polygon primitive as box body*
4,1,4,$2,$3,$4,$5,$6,$7,$8,$9,$2,$3,0*
0 Add four circle primitives for the rounded corners*
1,1,$1+$1,$2,$3*
1,1,$1+$1,$4,$5*
1,1,$1+$1,$6,$7*
1,1,$1+$1,$8,$9*
0 Add four rect primitives between the rounded corners*
20,1,$1+$1,$2,$3,$4,$5,0*
20,1,$1+$1,$4,$5,$6,$7,0*
20,1,$1+$1,$6,$7,$8,$9,0*
20,1,$1+$1,$8,$9,$2,$3,0*%
G04 Aperture macros list end*
%ADD10RoundRect,0.150000X0.150000X0.200000X-0.150000X0.200000X-0.150000X-0.200000X0.150000X-0.200000X0*%
%ADD11RoundRect,0.150000X-0.150000X-0.200000X0.150000X-0.200000X0.150000X0.200000X-0.150000X0.200000X0*%
G04 APERTURE END LIST*
D10*
%TO.C,D116*%
X121412000Y-85894000D03*
X121412000Y-84794000D03*
X119634000Y-84794000D03*
X119634000Y-85894000D03*
%TD*%
%TO.C,D119*%
X129032000Y-85894000D03*
X129032000Y-84794000D03*
X127254000Y-84794000D03*
X127254000Y-85894000D03*
%TD*%
D11*
%TO.C,D98*%
X117094000Y-62950000D03*
X117094000Y-64050000D03*
X118872000Y-64050000D03*
X118872000Y-62950000D03*
%TD*%
%TO.C,D106*%
X96774000Y-62950000D03*
X96774000Y-64050000D03*
X98552000Y-64050000D03*
X98552000Y-62950000D03*
%TD*%
%TO.C,D99*%
X114554000Y-62950000D03*
X114554000Y-64050000D03*
X116332000Y-64050000D03*
X116332000Y-62950000D03*
%TD*%
%TO.C,D95*%
X124714000Y-62950000D03*
X124714000Y-64050000D03*
X126492000Y-64050000D03*
X126492000Y-62950000D03*
%TD*%
D10*
%TO.C,D108*%
X101092000Y-85894000D03*
X101092000Y-84794000D03*
X99314000Y-84794000D03*
X99314000Y-85894000D03*
%TD*%
%TO.C,D109*%
X103632000Y-85894000D03*
X103632000Y-84794000D03*
X101854000Y-84794000D03*
X101854000Y-85894000D03*
%TD*%
%TO.C,D118*%
X126492000Y-85894000D03*
X126492000Y-84794000D03*
X124714000Y-84794000D03*
X124714000Y-85894000D03*
%TD*%
%TO.C,D115*%
X118872000Y-85894000D03*
X118872000Y-84794000D03*
X117094000Y-84794000D03*
X117094000Y-85894000D03*
%TD*%
%TO.C,D112*%
X111252000Y-85894000D03*
X111252000Y-84794000D03*
X109474000Y-84794000D03*
X109474000Y-85894000D03*
%TD*%
%TO.C,D110*%
X106172000Y-85894000D03*
X106172000Y-84794000D03*
X104394000Y-84794000D03*
X104394000Y-85894000D03*
%TD*%
D11*
%TO.C,D101*%
X109474000Y-62950000D03*
X109474000Y-64050000D03*
X111252000Y-64050000D03*
X111252000Y-62950000D03*
%TD*%
%TO.C,D94*%
X127254000Y-62950000D03*
X127254000Y-64050000D03*
X129032000Y-64050000D03*
X129032000Y-62950000D03*
%TD*%
%TO.C,D96*%
X122174000Y-62950000D03*
X122174000Y-64050000D03*
X123952000Y-64050000D03*
X123952000Y-62950000D03*
%TD*%
D10*
%TO.C,D111*%
X108712000Y-85894000D03*
X108712000Y-84794000D03*
X106934000Y-84794000D03*
X106934000Y-85894000D03*
%TD*%
%TO.C,D117*%
X123952000Y-85894000D03*
X123952000Y-84794000D03*
X122174000Y-84794000D03*
X122174000Y-85894000D03*
%TD*%
D11*
%TO.C,D105*%
X99314000Y-62950000D03*
X99314000Y-64050000D03*
X101092000Y-64050000D03*
X101092000Y-62950000D03*
%TD*%
%TO.C,D93*%
X129794000Y-62950000D03*
X129794000Y-64050000D03*
X131572000Y-64050000D03*
X131572000Y-62950000D03*
%TD*%
D10*
%TO.C,D114*%
X116332000Y-85894000D03*
X116332000Y-84794000D03*
X114554000Y-84794000D03*
X114554000Y-85894000D03*
%TD*%
%TO.C,D122*%
X90297000Y-72686000D03*
X90297000Y-71586000D03*
X88519000Y-71586000D03*
X88519000Y-72686000D03*
%TD*%
%TO.C,D107*%
X98552000Y-85894000D03*
X98552000Y-84794000D03*
X96774000Y-84794000D03*
X96774000Y-85894000D03*
%TD*%
D11*
%TO.C,D103*%
X104394000Y-62950000D03*
X104394000Y-64050000D03*
X106172000Y-64050000D03*
X106172000Y-62950000D03*
%TD*%
%TO.C,D97*%
X119634000Y-62950000D03*
X119634000Y-64050000D03*
X121412000Y-64050000D03*
X121412000Y-62950000D03*
%TD*%
%TO.C,D92*%
X132334000Y-62950000D03*
X132334000Y-64050000D03*
X134112000Y-64050000D03*
X134112000Y-62950000D03*
%TD*%
%TO.C,D104*%
X101854000Y-62950000D03*
X101854000Y-64050000D03*
X103632000Y-64050000D03*
X103632000Y-62950000D03*
%TD*%
D10*
%TO.C,D120*%
X131572000Y-85894000D03*
X131572000Y-84794000D03*
X129794000Y-84794000D03*
X129794000Y-85894000D03*
%TD*%
D11*
%TO.C,D100*%
X112014000Y-62950000D03*
X112014000Y-64050000D03*
X113792000Y-64050000D03*
X113792000Y-62950000D03*
%TD*%
D10*
%TO.C,D113*%
X113792000Y-85894000D03*
X113792000Y-84794000D03*
X112014000Y-84794000D03*
X112014000Y-85894000D03*
%TD*%
D11*
%TO.C,D102*%
X106934000Y-62950000D03*
X106934000Y-64050000D03*
X108712000Y-64050000D03*
X108712000Y-62950000D03*
%TD*%
D10*
%TO.C,D121*%
X134112000Y-85894000D03*
X134112000Y-84794000D03*
X132334000Y-84794000D03*
X132334000Y-85894000D03*
%TD*%
M02*
