G04 #@! TF.GenerationSoftware,KiCad,Pcbnew,(7.0.0-rc1-358-g86c12d35b4)*
G04 #@! TF.CreationDate,2023-05-18T21:24:16-07:00*
G04 #@! TF.ProjectId,Jumperless2,4a756d70-6572-46c6-9573-73322e6b6963,rev?*
G04 #@! TF.SameCoordinates,Original*
G04 #@! TF.FileFunction,Profile,NP*
%FSLAX46Y46*%
G04 Gerber Fmt 4.6, Leading zero omitted, Abs format (unit mm)*
G04 Created by KiCad (PCBNEW (7.0.0-rc1-358-g86c12d35b4)) date 2023-05-18 21:24:16*
%MOMM*%
%LPD*%
G01*
G04 APERTURE LIST*
G04 #@! TA.AperFunction,Profile*
%ADD10C,0.100000*%
G04 #@! TD*
G04 APERTURE END LIST*
D10*
X117145000Y-181483000D02*
X117145000Y-138557000D01*
X34595000Y-132588000D02*
X34595000Y-111760000D01*
X113906500Y-185928000D02*
X111303000Y-185928000D01*
X113843000Y-133985000D02*
X113843000Y-134048500D01*
X34595000Y-181483000D02*
X35992000Y-181483000D01*
X37770000Y-132588000D02*
X34595000Y-132588000D01*
X117145000Y-181483000D02*
X115748000Y-181483000D01*
X34595000Y-111760000D02*
X41580000Y-104775000D01*
X111303000Y-187325000D02*
X40437000Y-187325000D01*
X37897000Y-134048500D02*
X35992000Y-135953500D01*
X35992000Y-181483000D02*
X35992000Y-184086500D01*
X111303000Y-185928000D02*
X111303000Y-187325000D01*
X113843000Y-134048500D02*
X115748000Y-135953500D01*
X37897000Y-132588000D02*
X37897000Y-134048500D01*
X113970000Y-132588000D02*
X113843000Y-132588000D01*
X37770000Y-132588000D02*
X37897000Y-132588000D01*
X37833500Y-185928000D02*
X40437000Y-185928000D01*
X115748000Y-181483000D02*
X115748000Y-184086500D01*
X117145000Y-111760000D02*
X110160000Y-104775000D01*
X35992000Y-135953500D02*
X35992000Y-138557000D01*
X34595000Y-138557000D02*
X34595000Y-181483000D01*
X40437000Y-185928000D02*
X40437000Y-187325000D01*
X115748000Y-138557000D02*
X117145000Y-138557000D01*
X110160000Y-104775000D02*
X41580000Y-104775000D01*
X35992000Y-138557000D02*
X34595000Y-138557000D01*
X115748000Y-184086500D02*
X113906500Y-185928000D01*
X113970000Y-132588000D02*
X117145000Y-132588000D01*
X115748000Y-135953500D02*
X115748000Y-138557000D01*
X113843000Y-132588000D02*
X113843000Y-133985000D01*
X117145000Y-132588000D02*
X117145000Y-111760000D01*
X35992000Y-184086500D02*
X37833500Y-185928000D01*
M02*
