M48
; DRILL file {KiCad (7.0.0-rc1-358-g86c12d35b4)} date Thursday, May 11, 2023 at 11:51:01 AM
; FORMAT={-:-/ absolute / metric / decimal}
; #@! TF.CreationDate,2023-05-11T11:51:01-07:00
; #@! TF.GenerationSoftware,Kicad,Pcbnew,(7.0.0-rc1-358-g86c12d35b4)
; #@! TF.FileFunction,Plated,1,4,PTH
FMAT,2
METRIC
; #@! TA.AperFunction,Plated,PTH,ComponentDrill
T1C0.350
; #@! TA.AperFunction,Plated,PTH,ComponentDrill
T2C0.600
; #@! TA.AperFunction,Plated,PTH,ComponentDrill
T3C0.800
; #@! TA.AperFunction,Plated,PTH,ComponentDrill
T4C1.000
%
G90
G05
T1
X105.324Y-125.217
X105.324Y-126.492
X105.324Y-127.767
X106.599Y-125.217
X106.599Y-126.492
X106.599Y-127.767
X107.874Y-125.217
X107.874Y-126.492
X107.874Y-127.767
T3
X35.738Y-120.936
X35.738Y-122.936
X35.738Y-126.936
X35.738Y-128.936
X39.038Y-120.936
X39.038Y-122.936
X39.038Y-126.936
X39.038Y-128.936
X80.324Y-114.671
X80.324Y-122.291
X82.864Y-114.671
X82.864Y-122.291
X85.404Y-114.671
X85.404Y-122.291
X87.944Y-114.671
X87.944Y-122.291
T4
X38.349Y-110.521
X40.145Y-108.725
X57.836Y-110.911
X57.836Y-126.151
X60.376Y-110.911
X60.376Y-126.151
X62.916Y-110.911
X62.916Y-126.151
X65.456Y-110.911
X65.456Y-126.151
X67.996Y-110.911
X67.996Y-126.151
X70.536Y-106.197
X70.536Y-110.911
X70.536Y-126.151
X73.076Y-106.197
X73.076Y-110.911
X73.076Y-126.151
X75.616Y-106.197
X75.616Y-110.911
X75.616Y-126.151
X78.156Y-106.197
X78.156Y-110.911
X78.156Y-126.151
X80.696Y-106.197
X80.696Y-110.911
X80.696Y-126.151
X83.236Y-106.197
X83.236Y-110.911
X83.236Y-126.151
X85.776Y-110.911
X85.776Y-126.151
X88.316Y-110.911
X88.316Y-126.151
X90.856Y-110.911
X90.856Y-126.151
X93.396Y-110.911
X93.396Y-126.151
T2
X38.89Y-143.497G85X39.19Y-143.497
G05
X38.89Y-158.737G85X39.19Y-158.737
G05
X38.89Y-158.737G85X39.19Y-158.737
G05
X38.89Y-161.277G85X39.19Y-161.277
G05
X38.89Y-176.517G85X39.19Y-176.517
G05
X41.43Y-143.497G85X41.73Y-143.497
G05
X41.43Y-158.737G85X41.73Y-158.737
G05
X41.43Y-161.277G85X41.73Y-161.277
G05
X41.43Y-176.517G85X41.73Y-176.517
G05
X43.97Y-143.497G85X44.27Y-143.497
G05
X43.97Y-158.737G85X44.27Y-158.737
G05
X43.97Y-161.277G85X44.27Y-161.277
G05
X43.97Y-176.517G85X44.27Y-176.517
G05
X46.51Y-143.497G85X46.81Y-143.497
G05
X46.51Y-158.737G85X46.81Y-158.737
G05
X46.51Y-161.277G85X46.81Y-161.277
G05
X46.51Y-176.517G85X46.81Y-176.517
G05
X49.05Y-143.497G85X49.35Y-143.497
G05
X49.05Y-158.737G85X49.35Y-158.737
G05
X49.05Y-161.277G85X49.35Y-161.277
G05
X49.05Y-176.517G85X49.35Y-176.517
G05
X51.59Y-143.497G85X51.89Y-143.497
G05
X51.59Y-158.737G85X51.89Y-158.737
G05
X51.59Y-161.277G85X51.89Y-161.277
G05
X51.59Y-176.517G85X51.89Y-176.517
G05
X54.13Y-143.497G85X54.43Y-143.497
G05
X54.13Y-158.737G85X54.43Y-158.737
G05
X54.13Y-161.277G85X54.43Y-161.277
G05
X54.13Y-176.517G85X54.43Y-176.517
G05
X56.67Y-143.497G85X56.97Y-143.497
G05
X56.67Y-158.737G85X56.97Y-158.737
G05
X56.67Y-161.277G85X56.97Y-161.277
G05
X56.67Y-176.517G85X56.97Y-176.517
G05
X59.21Y-143.497G85X59.51Y-143.497
G05
X59.21Y-158.737G85X59.51Y-158.737
G05
X59.21Y-161.277G85X59.51Y-161.277
G05
X59.21Y-176.517G85X59.51Y-176.517
G05
X61.75Y-143.497G85X62.05Y-143.497
G05
X61.75Y-158.737G85X62.05Y-158.737
G05
X61.75Y-161.277G85X62.05Y-161.277
G05
X61.75Y-176.517G85X62.05Y-176.517
G05
X64.29Y-143.497G85X64.59Y-143.497
G05
X64.29Y-158.737G85X64.59Y-158.737
G05
X64.29Y-161.277G85X64.59Y-161.277
G05
X64.29Y-176.517G85X64.59Y-176.517
G05
X66.83Y-143.497G85X67.13Y-143.497
G05
X66.83Y-158.737G85X67.13Y-158.737
G05
X66.83Y-161.277G85X67.13Y-161.277
G05
X66.83Y-176.517G85X67.13Y-176.517
G05
X69.37Y-143.497G85X69.67Y-143.497
G05
X69.37Y-158.737G85X69.67Y-158.737
G05
X69.37Y-161.277G85X69.67Y-161.277
G05
X69.37Y-176.517G85X69.67Y-176.517
G05
X71.91Y-143.497G85X72.21Y-143.497
G05
X71.91Y-158.737G85X72.21Y-158.737
G05
X71.91Y-161.277G85X72.21Y-161.277
G05
X71.91Y-176.517G85X72.21Y-176.517
G05
X74.45Y-143.497G85X74.75Y-143.497
G05
X74.45Y-158.737G85X74.75Y-158.737
G05
X74.45Y-161.277G85X74.75Y-161.277
G05
X74.45Y-176.517G85X74.75Y-176.517
G05
X76.99Y-143.497G85X77.29Y-143.497
G05
X76.99Y-158.737G85X77.29Y-158.737
G05
X76.99Y-161.277G85X77.29Y-161.277
G05
X76.99Y-176.517G85X77.29Y-176.517
G05
X79.53Y-143.497G85X79.83Y-143.497
G05
X79.53Y-158.737G85X79.83Y-158.737
G05
X79.53Y-161.277G85X79.83Y-161.277
G05
X79.53Y-176.517G85X79.83Y-176.517
G05
X82.07Y-143.497G85X82.37Y-143.497
G05
X82.07Y-158.737G85X82.37Y-158.737
G05
X82.07Y-161.277G85X82.37Y-161.277
G05
X82.07Y-176.517G85X82.37Y-176.517
G05
X84.61Y-143.497G85X84.91Y-143.497
G05
X84.61Y-158.737G85X84.91Y-158.737
G05
X84.61Y-161.277G85X84.91Y-161.277
G05
X84.61Y-176.517G85X84.91Y-176.517
G05
X87.15Y-143.497G85X87.45Y-143.497
G05
X87.15Y-158.737G85X87.45Y-158.737
G05
X87.15Y-161.277G85X87.45Y-161.277
G05
X87.15Y-176.517G85X87.45Y-176.517
G05
X89.69Y-143.497G85X89.99Y-143.497
G05
X89.69Y-158.737G85X89.99Y-158.737
G05
X89.69Y-161.277G85X89.99Y-161.277
G05
X89.69Y-176.517G85X89.99Y-176.517
G05
X92.23Y-143.497G85X92.53Y-143.497
G05
X92.23Y-158.737G85X92.53Y-158.737
G05
X92.23Y-161.277G85X92.53Y-161.277
G05
X92.23Y-176.517G85X92.53Y-176.517
G05
X94.77Y-143.497G85X95.07Y-143.497
G05
X94.77Y-158.737G85X95.07Y-158.737
G05
X94.77Y-161.277G85X95.07Y-161.277
G05
X94.77Y-176.517G85X95.07Y-176.517
G05
X97.31Y-143.497G85X97.61Y-143.497
G05
X97.31Y-158.737G85X97.61Y-158.737
G05
X97.31Y-161.277G85X97.61Y-161.277
G05
X97.31Y-176.517G85X97.61Y-176.517
G05
X99.85Y-143.497G85X100.15Y-143.497
G05
X99.85Y-158.737G85X100.15Y-158.737
G05
X99.85Y-161.277G85X100.15Y-161.277
G05
X99.85Y-176.517G85X100.15Y-176.517
G05
X102.39Y-143.497G85X102.69Y-143.497
G05
X102.39Y-158.737G85X102.69Y-158.737
G05
X102.39Y-161.277G85X102.69Y-161.277
G05
X102.39Y-176.517G85X102.69Y-176.517
G05
X104.93Y-143.497G85X105.23Y-143.497
G05
X104.93Y-158.737G85X105.23Y-158.737
G05
X104.93Y-161.277G85X105.23Y-161.277
G05
X104.93Y-176.517G85X105.23Y-176.517
G05
X107.47Y-143.497G85X107.77Y-143.497
G05
X107.47Y-158.737G85X107.77Y-158.737
G05
X107.47Y-161.277G85X107.77Y-161.277
G05
X107.47Y-176.517G85X107.77Y-176.517
G05
X110.01Y-143.497G85X110.31Y-143.497
G05
X110.01Y-158.737G85X110.31Y-158.737
G05
X110.01Y-161.277G85X110.31Y-161.277
G05
X110.01Y-176.517G85X110.31Y-176.517
G05
X112.55Y-143.497G85X112.85Y-143.497
G05
X112.55Y-158.737G85X112.85Y-158.737
G05
X112.55Y-161.277G85X112.85Y-161.277
G05
X112.55Y-176.517G85X112.85Y-176.517
G05
T3
X37.77Y-135.777G85X37.77Y-135.977
G05
X37.77Y-138.317G85X37.77Y-138.517
G05
X37.77Y-181.51G85X37.77Y-181.71
G05
X37.77Y-184.05G85X37.77Y-184.25
G05
X53.01Y-135.777G85X53.01Y-135.977
G05
X53.01Y-135.777G85X53.01Y-135.977
G05
X53.01Y-138.317G85X53.01Y-138.517
G05
X53.01Y-138.317G85X53.01Y-138.517
G05
X53.01Y-181.497G85X53.01Y-181.697
G05
X53.01Y-181.497G85X53.01Y-181.697
G05
X53.01Y-184.037G85X53.01Y-184.237
G05
X53.01Y-184.037G85X53.01Y-184.237
G05
X68.25Y-135.777G85X68.25Y-135.977
G05
X68.25Y-135.777G85X68.25Y-135.977
G05
X68.25Y-138.317G85X68.25Y-138.517
G05
X68.25Y-138.317G85X68.25Y-138.517
G05
X68.25Y-181.51G85X68.25Y-181.71
G05
X68.25Y-181.51G85X68.25Y-181.71
G05
X68.25Y-184.037G85X68.25Y-184.237
G05
X68.25Y-184.037G85X68.25Y-184.237
G05
X83.49Y-135.777G85X83.49Y-135.977
G05
X83.49Y-135.777G85X83.49Y-135.977
G05
X83.49Y-138.317G85X83.49Y-138.517
G05
X83.49Y-138.317G85X83.49Y-138.517
G05
X83.49Y-181.497G85X83.49Y-181.697
G05
X83.49Y-181.497G85X83.49Y-181.697
G05
X83.49Y-184.037G85X83.49Y-184.237
G05
X83.49Y-184.037G85X83.49Y-184.237
G05
X98.73Y-135.777G85X98.73Y-135.977
G05
X98.73Y-135.777G85X98.73Y-135.977
G05
X98.73Y-138.317G85X98.73Y-138.517
G05
X98.73Y-138.317G85X98.73Y-138.517
G05
X98.73Y-181.497G85X98.73Y-181.697
G05
X98.73Y-181.497G85X98.73Y-181.697
G05
X98.73Y-184.037G85X98.73Y-184.237
G05
X98.73Y-184.037G85X98.73Y-184.237
G05
X113.97Y-135.777G85X113.97Y-135.977
G05
X113.97Y-138.317G85X113.97Y-138.517
G05
X113.97Y-181.497G85X113.97Y-181.697
G05
X113.97Y-184.037G85X113.97Y-184.237
G05
T0
M30
