G04 #@! TF.GenerationSoftware,KiCad,Pcbnew,(7.0.0-rc1-358-g86c12d35b4)*
G04 #@! TF.CreationDate,2023-05-11T11:50:55-07:00*
G04 #@! TF.ProjectId,Jumperless2,4a756d70-6572-46c6-9573-73322e6b6963,rev?*
G04 #@! TF.SameCoordinates,Original*
G04 #@! TF.FileFunction,Copper,L4,Bot*
G04 #@! TF.FilePolarity,Positive*
%FSLAX46Y46*%
G04 Gerber Fmt 4.6, Leading zero omitted, Abs format (unit mm)*
G04 Created by KiCad (PCBNEW (7.0.0-rc1-358-g86c12d35b4)) date 2023-05-11 11:50:55*
%MOMM*%
%LPD*%
G01*
G04 APERTURE LIST*
G04 Aperture macros list*
%AMRoundRect*
0 Rectangle with rounded corners*
0 $1 Rounding radius*
0 $2 $3 $4 $5 $6 $7 $8 $9 X,Y pos of 4 corners*
0 Add a 4 corners polygon primitive as box body*
4,1,4,$2,$3,$4,$5,$6,$7,$8,$9,$2,$3,0*
0 Add four circle primitives for the rounded corners*
1,1,$1+$1,$2,$3*
1,1,$1+$1,$4,$5*
1,1,$1+$1,$6,$7*
1,1,$1+$1,$8,$9*
0 Add four rect primitives between the rounded corners*
20,1,$1+$1,$2,$3,$4,$5,0*
20,1,$1+$1,$4,$5,$6,$7,0*
20,1,$1+$1,$6,$7,$8,$9,0*
20,1,$1+$1,$8,$9,$2,$3,0*%
%AMHorizOval*
0 Thick line with rounded ends*
0 $1 width*
0 $2 $3 position (X,Y) of the first rounded end (center of the circle)*
0 $4 $5 position (X,Y) of the second rounded end (center of the circle)*
0 Add line between two ends*
20,1,$1,$2,$3,$4,$5,0*
0 Add two circle primitives to create the rounded ends*
1,1,$1,$2,$3*
1,1,$1,$4,$5*%
%AMRotRect*
0 Rectangle, with rotation*
0 The origin of the aperture is its center*
0 $1 length*
0 $2 width*
0 $3 Rotation angle, in degrees counterclockwise*
0 Add horizontal line*
21,1,$1,$2,0,0,$3*%
%AMFreePoly0*
4,1,19,0.500000,-0.750000,0.000000,-0.750000,0.000000,-0.744911,-0.071157,-0.744911,-0.207708,-0.704816,-0.327430,-0.627875,-0.420627,-0.520320,-0.479746,-0.390866,-0.500000,-0.250000,-0.500000,0.250000,-0.479746,0.390866,-0.420627,0.520320,-0.327430,0.627875,-0.207708,0.704816,-0.071157,0.744911,0.000000,0.744911,0.000000,0.750000,0.500000,0.750000,0.500000,-0.750000,0.500000,-0.750000,
$1*%
%AMFreePoly1*
4,1,19,0.000000,0.744911,0.071157,0.744911,0.207708,0.704816,0.327430,0.627875,0.420627,0.520320,0.479746,0.390866,0.500000,0.250000,0.500000,-0.250000,0.479746,-0.390866,0.420627,-0.520320,0.327430,-0.627875,0.207708,-0.704816,0.071157,-0.744911,0.000000,-0.744911,0.000000,-0.750000,-0.500000,-0.750000,-0.500000,0.750000,0.000000,0.750000,0.000000,0.744911,0.000000,0.744911,
$1*%
G04 Aperture macros list end*
%ADD10C,0.120000*%
G04 #@! TA.AperFunction,NonConductor*
%ADD11C,0.120000*%
G04 #@! TD*
G04 #@! TA.AperFunction,ComponentPad*
%ADD12O,1.100000X1.400000*%
G04 #@! TD*
G04 #@! TA.AperFunction,ComponentPad*
%ADD13O,1.100000X1.000000*%
G04 #@! TD*
G04 #@! TA.AperFunction,ComponentPad*
%ADD14R,1.600000X1.600000*%
G04 #@! TD*
G04 #@! TA.AperFunction,ComponentPad*
%ADD15O,1.600000X1.600000*%
G04 #@! TD*
G04 #@! TA.AperFunction,ComponentPad*
%ADD16C,1.400000*%
G04 #@! TD*
G04 #@! TA.AperFunction,ComponentPad*
%ADD17RotRect,1.700000X1.700000X315.000000*%
G04 #@! TD*
G04 #@! TA.AperFunction,ComponentPad*
%ADD18HorizOval,1.700000X0.000000X0.000000X0.000000X0.000000X0*%
G04 #@! TD*
G04 #@! TA.AperFunction,ComponentPad*
%ADD19R,1.500000X1.500000*%
G04 #@! TD*
G04 #@! TA.AperFunction,ComponentPad*
%ADD20C,0.600000*%
G04 #@! TD*
G04 #@! TA.AperFunction,SMDPad,CuDef*
%ADD21RoundRect,0.140000X-0.170000X0.140000X-0.170000X-0.140000X0.170000X-0.140000X0.170000X0.140000X0*%
G04 #@! TD*
G04 #@! TA.AperFunction,SMDPad,CuDef*
%ADD22RoundRect,0.250000X-0.450000X0.262500X-0.450000X-0.262500X0.450000X-0.262500X0.450000X0.262500X0*%
G04 #@! TD*
G04 #@! TA.AperFunction,SMDPad,CuDef*
%ADD23RoundRect,0.250001X0.624999X-0.462499X0.624999X0.462499X-0.624999X0.462499X-0.624999X-0.462499X0*%
G04 #@! TD*
G04 #@! TA.AperFunction,SMDPad,CuDef*
%ADD24C,1.000000*%
G04 #@! TD*
G04 #@! TA.AperFunction,SMDPad,CuDef*
%ADD25RoundRect,0.250000X0.650000X-0.412500X0.650000X0.412500X-0.650000X0.412500X-0.650000X-0.412500X0*%
G04 #@! TD*
G04 #@! TA.AperFunction,SMDPad,CuDef*
%ADD26C,0.750000*%
G04 #@! TD*
G04 #@! TA.AperFunction,SMDPad,CuDef*
%ADD27RoundRect,0.200000X0.275000X-0.200000X0.275000X0.200000X-0.275000X0.200000X-0.275000X-0.200000X0*%
G04 #@! TD*
G04 #@! TA.AperFunction,SMDPad,CuDef*
%ADD28R,0.450000X0.600000*%
G04 #@! TD*
G04 #@! TA.AperFunction,SMDPad,CuDef*
%ADD29R,1.000000X0.500000*%
G04 #@! TD*
G04 #@! TA.AperFunction,SMDPad,CuDef*
%ADD30R,0.500000X1.000000*%
G04 #@! TD*
G04 #@! TA.AperFunction,SMDPad,CuDef*
%ADD31RoundRect,0.140000X0.170000X-0.140000X0.170000X0.140000X-0.170000X0.140000X-0.170000X-0.140000X0*%
G04 #@! TD*
G04 #@! TA.AperFunction,SMDPad,CuDef*
%ADD32RoundRect,0.150000X0.150000X-0.512500X0.150000X0.512500X-0.150000X0.512500X-0.150000X-0.512500X0*%
G04 #@! TD*
G04 #@! TA.AperFunction,SMDPad,CuDef*
%ADD33RoundRect,0.140000X-0.140000X-0.170000X0.140000X-0.170000X0.140000X0.170000X-0.140000X0.170000X0*%
G04 #@! TD*
G04 #@! TA.AperFunction,SMDPad,CuDef*
%ADD34RoundRect,0.200000X-0.275000X0.200000X-0.275000X-0.200000X0.275000X-0.200000X0.275000X0.200000X0*%
G04 #@! TD*
G04 #@! TA.AperFunction,SMDPad,CuDef*
%ADD35FreePoly0,180.000000*%
G04 #@! TD*
G04 #@! TA.AperFunction,SMDPad,CuDef*
%ADD36FreePoly1,180.000000*%
G04 #@! TD*
G04 #@! TA.AperFunction,SMDPad,CuDef*
%ADD37RotRect,1.700000X1.000000X135.000000*%
G04 #@! TD*
G04 #@! TA.AperFunction,SMDPad,CuDef*
%ADD38RoundRect,0.225000X-0.250000X0.225000X-0.250000X-0.225000X0.250000X-0.225000X0.250000X0.225000X0*%
G04 #@! TD*
G04 #@! TA.AperFunction,SMDPad,CuDef*
%ADD39RoundRect,0.225000X0.250000X-0.225000X0.250000X0.225000X-0.250000X0.225000X-0.250000X-0.225000X0*%
G04 #@! TD*
G04 #@! TA.AperFunction,SMDPad,CuDef*
%ADD40R,1.200000X1.400000*%
G04 #@! TD*
G04 #@! TA.AperFunction,SMDPad,CuDef*
%ADD41RoundRect,0.150000X-0.150000X0.825000X-0.150000X-0.825000X0.150000X-0.825000X0.150000X0.825000X0*%
G04 #@! TD*
G04 #@! TA.AperFunction,SMDPad,CuDef*
%ADD42RoundRect,0.140000X0.140000X0.170000X-0.140000X0.170000X-0.140000X-0.170000X0.140000X-0.170000X0*%
G04 #@! TD*
G04 #@! TA.AperFunction,SMDPad,CuDef*
%ADD43RoundRect,0.150000X-0.150000X0.650000X-0.150000X-0.650000X0.150000X-0.650000X0.150000X0.650000X0*%
G04 #@! TD*
G04 #@! TA.AperFunction,SMDPad,CuDef*
%ADD44RoundRect,0.135000X-0.135000X-0.185000X0.135000X-0.185000X0.135000X0.185000X-0.135000X0.185000X0*%
G04 #@! TD*
G04 #@! TA.AperFunction,SMDPad,CuDef*
%ADD45FreePoly0,0.000000*%
G04 #@! TD*
G04 #@! TA.AperFunction,SMDPad,CuDef*
%ADD46FreePoly1,0.000000*%
G04 #@! TD*
G04 #@! TA.AperFunction,SMDPad,CuDef*
%ADD47RoundRect,0.150000X0.825000X0.150000X-0.825000X0.150000X-0.825000X-0.150000X0.825000X-0.150000X0*%
G04 #@! TD*
G04 #@! TA.AperFunction,SMDPad,CuDef*
%ADD48R,2.000000X1.500000*%
G04 #@! TD*
G04 #@! TA.AperFunction,SMDPad,CuDef*
%ADD49R,2.000000X3.800000*%
G04 #@! TD*
G04 #@! TA.AperFunction,SMDPad,CuDef*
%ADD50FreePoly0,270.000000*%
G04 #@! TD*
G04 #@! TA.AperFunction,SMDPad,CuDef*
%ADD51FreePoly1,270.000000*%
G04 #@! TD*
G04 #@! TA.AperFunction,SMDPad,CuDef*
%ADD52RoundRect,0.250000X-0.650000X0.412500X-0.650000X-0.412500X0.650000X-0.412500X0.650000X0.412500X0*%
G04 #@! TD*
G04 APERTURE END LIST*
D10*
D11*
G36*
X113722364Y-166255576D02*
G01*
X113779810Y-166255576D01*
X113779810Y-165767871D01*
X113888840Y-165767871D01*
X113888840Y-165717850D01*
X113779810Y-165717850D01*
X113779810Y-165659232D01*
X113779687Y-165649325D01*
X113779321Y-165639632D01*
X113778710Y-165630152D01*
X113777856Y-165620886D01*
X113776757Y-165611834D01*
X113775413Y-165602995D01*
X113773826Y-165594370D01*
X113771994Y-165585959D01*
X113769811Y-165577762D01*
X113767268Y-165569876D01*
X113764364Y-165562301D01*
X113761101Y-165555038D01*
X113757477Y-165548086D01*
X113752440Y-165539835D01*
X113746841Y-165532069D01*
X113744443Y-165529100D01*
X113737947Y-165521983D01*
X113730792Y-165515411D01*
X113724595Y-165510544D01*
X113717976Y-165506025D01*
X113710935Y-165501855D01*
X113703474Y-165498033D01*
X113695591Y-165494558D01*
X113691491Y-165492952D01*
X113682931Y-165489975D01*
X113673857Y-165487395D01*
X113664270Y-165485212D01*
X113654171Y-165483426D01*
X113646260Y-165482347D01*
X113638060Y-165481491D01*
X113629572Y-165480859D01*
X113620795Y-165480449D01*
X113611730Y-165480263D01*
X113608644Y-165480251D01*
X113599961Y-165480313D01*
X113591498Y-165480499D01*
X113583253Y-165480809D01*
X113575229Y-165481243D01*
X113567423Y-165481801D01*
X113558347Y-165482635D01*
X113556865Y-165482791D01*
X113547999Y-165483915D01*
X113539133Y-165485383D01*
X113530267Y-165487194D01*
X113521401Y-165489349D01*
X113512535Y-165491847D01*
X113509579Y-165492756D01*
X113509579Y-165542777D01*
X113517576Y-165541792D01*
X113526845Y-165540747D01*
X113535757Y-165539854D01*
X113544312Y-165539113D01*
X113552509Y-165538522D01*
X113556474Y-165538283D01*
X113565461Y-165537826D01*
X113574298Y-165537482D01*
X113582985Y-165537249D01*
X113591523Y-165537129D01*
X113596334Y-165537111D01*
X113606202Y-165537205D01*
X113615581Y-165537489D01*
X113624471Y-165537963D01*
X113632873Y-165538625D01*
X113640787Y-165539477D01*
X113649991Y-165540808D01*
X113658433Y-165542434D01*
X113661596Y-165543168D01*
X113670503Y-165545749D01*
X113678614Y-165548947D01*
X113685927Y-165552764D01*
X113692444Y-165557200D01*
X113699040Y-165563156D01*
X113699893Y-165564075D01*
X113705362Y-165571030D01*
X113709970Y-165578901D01*
X113713235Y-165586378D01*
X113715868Y-165594527D01*
X113717870Y-165603349D01*
X113719164Y-165611217D01*
X113720239Y-165619676D01*
X113721095Y-165628726D01*
X113721732Y-165638368D01*
X113722083Y-165646507D01*
X113722293Y-165655025D01*
X113722364Y-165663922D01*
X113722364Y-165717850D01*
X113540061Y-165717850D01*
X113540061Y-165767871D01*
X113722364Y-165767871D01*
X113722364Y-166255576D01*
G37*
G36*
X112821010Y-166255576D02*
G01*
X112878456Y-166255576D01*
X112878456Y-166146350D01*
X112879628Y-166146350D01*
X112882803Y-166153845D01*
X112886174Y-166161090D01*
X112889740Y-166168085D01*
X112894472Y-166176476D01*
X112899509Y-166184476D01*
X112904852Y-166192084D01*
X112910500Y-166199302D01*
X112916621Y-166206147D01*
X112923380Y-166212640D01*
X112930779Y-166218779D01*
X112937159Y-166223437D01*
X112943947Y-166227868D01*
X112951145Y-166232074D01*
X112958751Y-166236053D01*
X112960717Y-166237013D01*
X112968838Y-166240707D01*
X112977472Y-166244169D01*
X112986619Y-166247399D01*
X112996279Y-166250398D01*
X113003860Y-166252494D01*
X113011730Y-166254460D01*
X113019888Y-166256295D01*
X113028335Y-166258000D01*
X113037071Y-166259574D01*
X113040047Y-166260070D01*
X113049225Y-166261501D01*
X113058809Y-166262792D01*
X113068798Y-166263942D01*
X113079193Y-166264951D01*
X113089993Y-166265820D01*
X113101198Y-166266547D01*
X113112808Y-166267134D01*
X113120773Y-166267447D01*
X113128919Y-166267697D01*
X113137244Y-166267885D01*
X113145750Y-166268010D01*
X113154436Y-166268073D01*
X113158847Y-166268081D01*
X113177800Y-166268081D01*
X113188118Y-166268039D01*
X113198215Y-166267913D01*
X113208091Y-166267703D01*
X113217746Y-166267409D01*
X113227179Y-166267031D01*
X113236391Y-166266569D01*
X113245381Y-166266024D01*
X113254150Y-166265394D01*
X113262698Y-166264680D01*
X113271024Y-166263883D01*
X113279129Y-166263001D01*
X113287013Y-166262036D01*
X113298424Y-166260430D01*
X113309336Y-166258635D01*
X113316334Y-166257334D01*
X113326465Y-166255187D01*
X113336194Y-166252775D01*
X113345520Y-166250099D01*
X113354445Y-166247158D01*
X113362968Y-166243953D01*
X113371090Y-166240484D01*
X113378809Y-166236750D01*
X113386127Y-166232751D01*
X113393042Y-166228488D01*
X113399556Y-166223961D01*
X113403676Y-166220795D01*
X113411388Y-166213999D01*
X113418501Y-166206605D01*
X113425016Y-166198612D01*
X113430933Y-166190021D01*
X113434978Y-166183185D01*
X113438686Y-166176012D01*
X113442058Y-166168503D01*
X113445093Y-166160657D01*
X113447792Y-166152474D01*
X113448616Y-166149672D01*
X113450921Y-166141001D01*
X113452999Y-166131915D01*
X113454850Y-166122413D01*
X113456475Y-166112495D01*
X113457873Y-166102162D01*
X113459044Y-166091413D01*
X113459988Y-166080249D01*
X113460706Y-166068669D01*
X113461059Y-166060718D01*
X113461311Y-166052582D01*
X113461462Y-166044262D01*
X113461512Y-166035757D01*
X113461512Y-165717850D01*
X113404066Y-165717850D01*
X113404066Y-166009183D01*
X113404034Y-166017008D01*
X113403861Y-166028414D01*
X113403541Y-166039421D01*
X113403074Y-166050029D01*
X113402458Y-166060239D01*
X113401695Y-166070051D01*
X113400784Y-166079464D01*
X113399726Y-166088479D01*
X113398520Y-166097095D01*
X113397166Y-166105313D01*
X113395664Y-166113133D01*
X113393298Y-166123022D01*
X113390401Y-166132367D01*
X113386972Y-166141169D01*
X113383013Y-166149428D01*
X113378522Y-166157143D01*
X113373499Y-166164314D01*
X113367946Y-166170942D01*
X113361861Y-166177027D01*
X113355178Y-166182571D01*
X113347829Y-166187676D01*
X113339815Y-166192341D01*
X113331135Y-166196566D01*
X113321790Y-166200352D01*
X113314344Y-166202903D01*
X113306524Y-166205207D01*
X113298330Y-166207263D01*
X113289761Y-166209072D01*
X113280733Y-166210678D01*
X113271163Y-166212126D01*
X113261050Y-166213417D01*
X113250395Y-166214549D01*
X113239197Y-166215523D01*
X113227456Y-166216339D01*
X113219327Y-166216796D01*
X113210957Y-166217182D01*
X113202346Y-166217498D01*
X113193494Y-166217744D01*
X113184400Y-166217919D01*
X113175066Y-166218025D01*
X113165490Y-166218060D01*
X113146341Y-166218060D01*
X113137959Y-166218027D01*
X113129714Y-166217929D01*
X113121607Y-166217764D01*
X113113637Y-166217535D01*
X113105805Y-166217239D01*
X113094313Y-166216673D01*
X113083131Y-166215959D01*
X113072258Y-166215098D01*
X113061694Y-166214089D01*
X113051440Y-166212932D01*
X113041494Y-166211627D01*
X113031857Y-166210175D01*
X113028714Y-166209658D01*
X113019478Y-166207929D01*
X113010526Y-166205967D01*
X113001860Y-166203771D01*
X112993479Y-166201341D01*
X112985383Y-166198678D01*
X112977572Y-166195782D01*
X112970046Y-166192652D01*
X112962805Y-166189288D01*
X112955849Y-166185691D01*
X112947018Y-166180531D01*
X112944890Y-166179176D01*
X112936714Y-166173394D01*
X112929087Y-166167086D01*
X112922010Y-166160254D01*
X112915483Y-166152896D01*
X112909505Y-166145013D01*
X112904077Y-166136605D01*
X112899198Y-166127672D01*
X112894869Y-166118213D01*
X112891936Y-166110694D01*
X112889291Y-166102789D01*
X112886935Y-166094500D01*
X112884867Y-166085827D01*
X112883088Y-166076768D01*
X112881597Y-166067325D01*
X112880395Y-166057498D01*
X112879482Y-166047285D01*
X112878856Y-166036688D01*
X112878520Y-166025706D01*
X112878456Y-166018171D01*
X112878456Y-165717850D01*
X112821010Y-165717850D01*
X112821010Y-166255576D01*
G37*
G36*
X112331938Y-166268081D02*
G01*
X112344471Y-166268040D01*
X112356716Y-166267919D01*
X112368675Y-166267717D01*
X112380347Y-166267433D01*
X112391732Y-166267069D01*
X112402829Y-166266624D01*
X112413640Y-166266099D01*
X112424164Y-166265492D01*
X112434401Y-166264804D01*
X112444351Y-166264035D01*
X112454014Y-166263186D01*
X112463389Y-166262256D01*
X112472478Y-166261244D01*
X112481280Y-166260152D01*
X112489795Y-166258979D01*
X112498023Y-166257725D01*
X112505998Y-166256378D01*
X112513755Y-166254876D01*
X112524982Y-166252335D01*
X112535717Y-166249447D01*
X112545961Y-166246212D01*
X112555713Y-166242631D01*
X112564975Y-166238702D01*
X112573745Y-166234426D01*
X112582025Y-166229804D01*
X112589813Y-166224834D01*
X112597110Y-166219518D01*
X112599433Y-166217669D01*
X112606081Y-166211823D01*
X112612324Y-166205568D01*
X112618162Y-166198904D01*
X112623594Y-166191831D01*
X112628622Y-166184350D01*
X112633244Y-166176460D01*
X112637460Y-166168161D01*
X112641272Y-166159454D01*
X112644678Y-166150338D01*
X112647678Y-166140813D01*
X112649454Y-166134236D01*
X112651863Y-166123954D01*
X112654036Y-166113112D01*
X112655971Y-166101711D01*
X112657130Y-166093799D01*
X112658183Y-166085638D01*
X112659131Y-166077229D01*
X112659973Y-166068570D01*
X112660711Y-166059663D01*
X112661343Y-166050507D01*
X112661869Y-166041102D01*
X112662291Y-166031449D01*
X112662607Y-166021546D01*
X112662817Y-166011395D01*
X112662923Y-166000995D01*
X112662936Y-165995701D01*
X112662936Y-165977725D01*
X112662883Y-165967058D01*
X112662725Y-165956650D01*
X112662462Y-165946499D01*
X112662093Y-165936607D01*
X112661619Y-165926972D01*
X112661040Y-165917595D01*
X112660355Y-165908477D01*
X112659565Y-165899616D01*
X112658670Y-165891013D01*
X112657669Y-165882669D01*
X112656563Y-165874582D01*
X112655352Y-165866753D01*
X112653338Y-165855494D01*
X112651086Y-165844815D01*
X112649454Y-165838018D01*
X112646718Y-165828227D01*
X112643567Y-165818859D01*
X112640000Y-165809914D01*
X112636017Y-165801391D01*
X112631619Y-165793290D01*
X112626805Y-165785612D01*
X112621576Y-165778356D01*
X112615931Y-165771523D01*
X112609871Y-165765112D01*
X112603395Y-165759124D01*
X112598847Y-165755366D01*
X112591649Y-165750004D01*
X112583977Y-165744982D01*
X112575831Y-165740300D01*
X112567211Y-165735958D01*
X112558117Y-165731956D01*
X112548549Y-165728294D01*
X112538507Y-165724972D01*
X112527992Y-165721990D01*
X112517002Y-165719349D01*
X112505538Y-165717047D01*
X112497632Y-165715701D01*
X112489452Y-165714447D01*
X112480981Y-165713274D01*
X112472220Y-165712182D01*
X112463170Y-165711170D01*
X112453829Y-165710240D01*
X112444198Y-165709390D01*
X112434277Y-165708622D01*
X112424066Y-165707934D01*
X112413565Y-165707327D01*
X112402774Y-165706802D01*
X112391693Y-165706357D01*
X112380322Y-165705992D01*
X112368661Y-165705709D01*
X112356710Y-165705507D01*
X112344469Y-165705386D01*
X112331938Y-165705345D01*
X112306146Y-165705345D01*
X112295010Y-165705377D01*
X112284121Y-165705473D01*
X112273480Y-165705634D01*
X112263086Y-165705858D01*
X112252939Y-165706147D01*
X112243040Y-165706499D01*
X112233387Y-165706916D01*
X112223983Y-165707397D01*
X112214825Y-165707942D01*
X112205915Y-165708551D01*
X112197252Y-165709224D01*
X112188836Y-165709961D01*
X112180668Y-165710763D01*
X112172747Y-165711628D01*
X112161329Y-165713047D01*
X112157646Y-165713552D01*
X112146873Y-165715167D01*
X112136537Y-165717009D01*
X112126636Y-165719078D01*
X112117172Y-165721374D01*
X112108144Y-165723896D01*
X112099552Y-165726645D01*
X112091397Y-165729620D01*
X112083677Y-165732823D01*
X112076394Y-165736251D01*
X112067362Y-165741176D01*
X112065225Y-165742470D01*
X112057091Y-165747895D01*
X112049593Y-165753815D01*
X112042730Y-165760230D01*
X112036502Y-165767139D01*
X112030909Y-165774542D01*
X112025951Y-165782440D01*
X112021627Y-165790833D01*
X112017939Y-165799721D01*
X112014779Y-165809124D01*
X112012041Y-165819162D01*
X112010263Y-165827108D01*
X112008723Y-165835411D01*
X112007420Y-165844071D01*
X112006353Y-165853088D01*
X112005524Y-165862462D01*
X112004931Y-165872194D01*
X112004576Y-165882282D01*
X112004457Y-165892728D01*
X112004457Y-165905429D01*
X112059558Y-165905429D01*
X112059558Y-165897222D01*
X112059648Y-165889228D01*
X112060045Y-165879002D01*
X112060759Y-165869271D01*
X112061791Y-165860034D01*
X112063140Y-165851291D01*
X112064807Y-165843043D01*
X112066792Y-165835290D01*
X112069719Y-165826294D01*
X112073304Y-165817971D01*
X112077710Y-165810220D01*
X112082937Y-165803042D01*
X112088983Y-165796436D01*
X112095851Y-165790402D01*
X112103539Y-165784941D01*
X112106844Y-165782917D01*
X112113921Y-165779116D01*
X112121669Y-165775626D01*
X112130090Y-165772448D01*
X112139182Y-165769581D01*
X112148945Y-165767026D01*
X112156709Y-165765314D01*
X112164850Y-165763776D01*
X112173369Y-165762415D01*
X112182266Y-165761228D01*
X112191597Y-165760180D01*
X112201420Y-165759236D01*
X112211734Y-165758394D01*
X112222539Y-165757656D01*
X112233835Y-165757021D01*
X112245622Y-165756488D01*
X112253753Y-165756190D01*
X112262102Y-165755939D01*
X112270670Y-165755733D01*
X112279456Y-165755572D01*
X112288460Y-165755458D01*
X112297682Y-165755389D01*
X112307123Y-165755366D01*
X112330766Y-165755366D01*
X112341885Y-165755397D01*
X112352723Y-165755491D01*
X112363280Y-165755648D01*
X112373557Y-165755867D01*
X112383553Y-165756148D01*
X112393267Y-165756493D01*
X112402701Y-165756900D01*
X112411854Y-165757369D01*
X112420726Y-165757901D01*
X112429318Y-165758496D01*
X112437628Y-165759153D01*
X112445657Y-165759872D01*
X112457175Y-165761069D01*
X112468061Y-165762407D01*
X112474967Y-165763377D01*
X112484862Y-165765020D01*
X112494324Y-165766945D01*
X112503354Y-165769151D01*
X112511951Y-165771639D01*
X112520115Y-165774408D01*
X112527847Y-165777459D01*
X112535145Y-165780792D01*
X112544204Y-165785674D01*
X112552493Y-165791057D01*
X112558205Y-165795422D01*
X112565214Y-165801696D01*
X112571589Y-165808599D01*
X112577329Y-165816131D01*
X112582433Y-165824291D01*
X112586903Y-165833081D01*
X112590738Y-165842500D01*
X112593197Y-165849976D01*
X112595299Y-165857807D01*
X112596502Y-165863224D01*
X112598108Y-165871666D01*
X112599556Y-165880578D01*
X112600847Y-165889961D01*
X112601979Y-165899814D01*
X112602953Y-165910138D01*
X112603770Y-165920933D01*
X112604428Y-165932198D01*
X112604928Y-165943934D01*
X112605174Y-165952019D01*
X112605350Y-165960313D01*
X112605455Y-165968817D01*
X112605490Y-165977529D01*
X112605490Y-165995897D01*
X112605453Y-166004608D01*
X112605340Y-166013106D01*
X112605153Y-166021393D01*
X112604892Y-166029468D01*
X112604555Y-166037330D01*
X112603910Y-166048726D01*
X112603096Y-166059644D01*
X112602115Y-166070085D01*
X112600965Y-166080048D01*
X112599646Y-166089534D01*
X112598160Y-166098543D01*
X112596505Y-166107074D01*
X112595916Y-166109811D01*
X112593949Y-166117775D01*
X112591638Y-166125398D01*
X112588024Y-166135033D01*
X112583798Y-166144064D01*
X112578962Y-166152491D01*
X112573516Y-166160312D01*
X112567458Y-166167530D01*
X112560790Y-166174143D01*
X112557228Y-166177222D01*
X112549513Y-166182944D01*
X112541022Y-166188189D01*
X112531756Y-166192958D01*
X112524298Y-166196222D01*
X112516403Y-166199218D01*
X112508072Y-166201946D01*
X112499305Y-166204407D01*
X112490102Y-166206599D01*
X112480463Y-166208524D01*
X112473794Y-166209658D01*
X112463340Y-166211159D01*
X112452275Y-166212513D01*
X112440598Y-166213719D01*
X112432474Y-166214441D01*
X112424078Y-166215098D01*
X112415411Y-166215689D01*
X112406471Y-166216214D01*
X112397260Y-166216673D01*
X112387778Y-166217067D01*
X112378023Y-166217395D01*
X112367997Y-166217658D01*
X112357699Y-166217855D01*
X112347129Y-166217986D01*
X112336288Y-166218052D01*
X112330766Y-166218060D01*
X112307123Y-166218060D01*
X112297397Y-166218036D01*
X112287904Y-166217965D01*
X112278645Y-166217847D01*
X112269619Y-166217681D01*
X112260827Y-166217468D01*
X112252269Y-166217208D01*
X112243944Y-166216900D01*
X112235853Y-166216545D01*
X112227995Y-166216143D01*
X112216646Y-166215451D01*
X112205823Y-166214653D01*
X112195525Y-166213748D01*
X112185753Y-166212736D01*
X112179530Y-166212003D01*
X112170524Y-166210744D01*
X112161895Y-166209314D01*
X112153643Y-166207713D01*
X112145770Y-166205939D01*
X112135860Y-166203308D01*
X112126621Y-166200371D01*
X112118054Y-166197128D01*
X112110159Y-166193581D01*
X112102936Y-166189728D01*
X112096320Y-166185511D01*
X112088814Y-166179786D01*
X112082158Y-166173555D01*
X112076350Y-166166818D01*
X112071392Y-166159576D01*
X112067283Y-166151828D01*
X112065225Y-166146936D01*
X112062298Y-166138194D01*
X112059867Y-166128698D01*
X112058279Y-166120559D01*
X112057009Y-166111937D01*
X112056057Y-166102833D01*
X112055421Y-166093246D01*
X112055104Y-166083177D01*
X112055064Y-166077962D01*
X112055064Y-166067997D01*
X111999963Y-166067997D01*
X111999963Y-166082456D01*
X112000092Y-166092686D01*
X112000478Y-166102565D01*
X112001122Y-166112094D01*
X112002024Y-166121272D01*
X112003183Y-166130101D01*
X112004600Y-166138579D01*
X112006274Y-166146706D01*
X112008206Y-166154483D01*
X112011183Y-166164308D01*
X112014618Y-166173510D01*
X112018599Y-166182177D01*
X112023215Y-166190399D01*
X112028466Y-166198175D01*
X112034352Y-166205506D01*
X112040874Y-166212390D01*
X112048030Y-166218829D01*
X112055821Y-166224822D01*
X112064248Y-166230370D01*
X112073324Y-166235444D01*
X112080633Y-166238985D01*
X112088371Y-166242299D01*
X112096538Y-166245387D01*
X112105134Y-166248248D01*
X112114160Y-166250883D01*
X112123615Y-166253290D01*
X112133499Y-166255471D01*
X112143813Y-166257426D01*
X112154556Y-166259153D01*
X112158232Y-166259679D01*
X112169559Y-166261180D01*
X112177403Y-166262099D01*
X112185479Y-166262953D01*
X112193790Y-166263740D01*
X112202334Y-166264462D01*
X112211111Y-166265119D01*
X112220122Y-166265709D01*
X112229367Y-166266235D01*
X112238845Y-166266694D01*
X112248557Y-166267088D01*
X112258502Y-166267416D01*
X112268681Y-166267679D01*
X112279093Y-166267876D01*
X112289739Y-166268007D01*
X112300619Y-166268073D01*
X112306146Y-166268081D01*
X112331938Y-166268081D01*
G37*
G36*
X111250040Y-166255576D02*
G01*
X111340117Y-166255576D01*
X111740870Y-165992966D01*
X111785811Y-165992966D01*
X111785811Y-166255576D01*
X111843257Y-166255576D01*
X111843257Y-165492756D01*
X111785811Y-165492756D01*
X111785811Y-165942945D01*
X111735204Y-165942945D01*
X111387402Y-165717850D01*
X111302992Y-165717850D01*
X111689091Y-165967760D01*
X111250040Y-166255576D01*
G37*
G36*
X112696544Y-167748466D02*
G01*
X112688354Y-167749084D01*
X112680135Y-167749445D01*
X112672154Y-167749610D01*
X112666844Y-167749638D01*
X112658173Y-167749638D01*
X112649747Y-167749638D01*
X112641565Y-167749638D01*
X112633627Y-167749638D01*
X112623689Y-167749547D01*
X112614197Y-167749272D01*
X112605151Y-167748814D01*
X112596551Y-167748173D01*
X112588396Y-167747349D01*
X112578830Y-167746061D01*
X112569959Y-167744486D01*
X112566606Y-167743776D01*
X112558473Y-167741668D01*
X112550559Y-167739006D01*
X112542864Y-167735791D01*
X112535389Y-167732022D01*
X112528133Y-167727700D01*
X112521097Y-167722825D01*
X112518344Y-167720720D01*
X112511463Y-167715045D01*
X112504621Y-167708645D01*
X112499174Y-167703003D01*
X112493752Y-167696897D01*
X112488354Y-167690327D01*
X112482981Y-167683293D01*
X112477632Y-167675795D01*
X112474967Y-167671871D01*
X112469474Y-167663579D01*
X112465199Y-167656928D01*
X112460789Y-167649905D01*
X112456246Y-167642511D01*
X112451568Y-167634746D01*
X112446757Y-167626611D01*
X112441811Y-167618104D01*
X112436732Y-167609227D01*
X112431519Y-167599979D01*
X112426172Y-167590359D01*
X112424359Y-167587070D01*
X112445657Y-167587070D01*
X112762978Y-167061850D01*
X112697716Y-167061850D01*
X112405015Y-167556003D01*
X112402866Y-167556003D01*
X112139475Y-167061850D01*
X112077730Y-167061850D01*
X112329789Y-167528843D01*
X112335786Y-167539841D01*
X112341665Y-167550562D01*
X112347424Y-167561005D01*
X112353065Y-167571170D01*
X112358586Y-167581057D01*
X112363989Y-167590667D01*
X112369272Y-167599998D01*
X112374436Y-167609052D01*
X112379481Y-167617828D01*
X112384407Y-167626326D01*
X112389214Y-167634546D01*
X112393902Y-167642489D01*
X112398471Y-167650154D01*
X112402921Y-167657540D01*
X112407252Y-167664649D01*
X112411463Y-167671481D01*
X112417638Y-167681331D01*
X112423778Y-167690731D01*
X112429884Y-167699681D01*
X112435955Y-167708181D01*
X112441992Y-167716231D01*
X112447995Y-167723832D01*
X112453963Y-167730982D01*
X112459897Y-167737683D01*
X112465796Y-167743933D01*
X112471662Y-167749734D01*
X112475553Y-167753351D01*
X112483326Y-167760132D01*
X112491209Y-167766308D01*
X112499202Y-167771880D01*
X112507304Y-167776847D01*
X112515517Y-167781210D01*
X112523840Y-167784968D01*
X112532272Y-167788122D01*
X112540814Y-167790671D01*
X112549619Y-167792778D01*
X112558937Y-167794603D01*
X112568768Y-167796148D01*
X112579112Y-167797412D01*
X112587206Y-167798176D01*
X112595589Y-167798781D01*
X112604260Y-167799229D01*
X112613220Y-167799519D01*
X112622469Y-167799650D01*
X112625616Y-167799659D01*
X112634250Y-167799623D01*
X112643152Y-167799513D01*
X112651162Y-167799356D01*
X112659378Y-167799144D01*
X112661763Y-167799073D01*
X112669973Y-167798789D01*
X112677845Y-167798448D01*
X112686431Y-167797990D01*
X112694576Y-167797459D01*
X112696544Y-167797315D01*
X112696544Y-167748466D01*
G37*
G36*
X111695742Y-167049386D02*
G01*
X111707586Y-167049507D01*
X111719152Y-167049709D01*
X111730441Y-167049992D01*
X111741452Y-167050357D01*
X111752185Y-167050802D01*
X111762640Y-167051327D01*
X111772817Y-167051934D01*
X111782717Y-167052622D01*
X111792338Y-167053390D01*
X111801682Y-167054240D01*
X111810748Y-167055170D01*
X111819536Y-167056182D01*
X111828047Y-167057274D01*
X111836279Y-167058447D01*
X111844234Y-167059701D01*
X111851923Y-167061049D01*
X111863073Y-167063363D01*
X111873763Y-167066027D01*
X111883992Y-167069041D01*
X111893762Y-167072406D01*
X111903071Y-167076121D01*
X111911920Y-167080187D01*
X111920308Y-167084603D01*
X111928237Y-167089369D01*
X111935705Y-167094485D01*
X111942713Y-167099952D01*
X111947119Y-167103781D01*
X111953399Y-167109867D01*
X111959284Y-167116365D01*
X111964775Y-167123276D01*
X111969870Y-167130599D01*
X111974570Y-167138334D01*
X111978876Y-167146481D01*
X111982786Y-167155040D01*
X111986302Y-167164011D01*
X111989422Y-167173395D01*
X111992147Y-167183190D01*
X111993780Y-167189986D01*
X111996031Y-167200661D01*
X111998046Y-167211913D01*
X111999257Y-167219735D01*
X112000363Y-167227813D01*
X112001364Y-167236148D01*
X112002259Y-167244739D01*
X112003049Y-167253587D01*
X112003734Y-167262691D01*
X112004313Y-167272052D01*
X112004787Y-167281669D01*
X112005156Y-167291543D01*
X112005419Y-167301672D01*
X112005577Y-167312059D01*
X112005630Y-167322702D01*
X112005630Y-167336379D01*
X112005616Y-167341673D01*
X112005511Y-167352073D01*
X112005300Y-167362224D01*
X112004984Y-167372127D01*
X112004563Y-167381781D01*
X112004036Y-167391185D01*
X112003404Y-167400341D01*
X112002667Y-167409249D01*
X112001824Y-167417907D01*
X112000877Y-167426317D01*
X111999823Y-167434477D01*
X111998665Y-167442389D01*
X111996729Y-167453791D01*
X111994557Y-167464632D01*
X111992147Y-167474914D01*
X111990374Y-167481470D01*
X111987386Y-167490974D01*
X111984002Y-167500083D01*
X111980223Y-167508797D01*
X111976049Y-167517117D01*
X111971481Y-167525041D01*
X111966517Y-167532571D01*
X111961158Y-167539705D01*
X111955405Y-167546444D01*
X111949256Y-167552789D01*
X111942713Y-167558738D01*
X111940425Y-167560637D01*
X111933230Y-167566105D01*
X111925533Y-167571234D01*
X111917334Y-167576022D01*
X111908634Y-167580471D01*
X111899433Y-167584579D01*
X111889730Y-167588347D01*
X111879525Y-167591776D01*
X111868820Y-167594864D01*
X111857612Y-167597612D01*
X111849862Y-167599256D01*
X111841889Y-167600748D01*
X111833634Y-167602120D01*
X111825085Y-167603404D01*
X111816244Y-167604599D01*
X111807109Y-167605706D01*
X111797681Y-167606724D01*
X111787960Y-167607654D01*
X111777946Y-167608495D01*
X111767639Y-167609248D01*
X111757039Y-167609912D01*
X111746146Y-167610487D01*
X111734960Y-167610974D01*
X111723480Y-167611372D01*
X111711708Y-167611682D01*
X111699642Y-167611904D01*
X111687283Y-167612036D01*
X111674632Y-167612081D01*
X111649817Y-167612081D01*
X111638967Y-167612046D01*
X111628351Y-167611943D01*
X111617968Y-167611772D01*
X111607819Y-167611531D01*
X111597903Y-167611222D01*
X111588222Y-167610844D01*
X111578773Y-167610398D01*
X111569558Y-167609883D01*
X111560577Y-167609299D01*
X111551829Y-167608646D01*
X111543315Y-167607925D01*
X111535035Y-167607135D01*
X111526988Y-167606276D01*
X111515355Y-167604859D01*
X111504248Y-167603288D01*
X111497082Y-167602163D01*
X111486666Y-167600286D01*
X111476648Y-167598183D01*
X111467029Y-167595853D01*
X111457808Y-167593297D01*
X111448986Y-167590514D01*
X111440561Y-167587504D01*
X111432536Y-167584267D01*
X111424909Y-167580804D01*
X111417680Y-167577114D01*
X111410849Y-167573197D01*
X111402286Y-167567552D01*
X111394375Y-167561461D01*
X111387118Y-167554925D01*
X111380514Y-167547943D01*
X111374564Y-167540515D01*
X111369267Y-167532641D01*
X111364623Y-167524321D01*
X111360633Y-167515556D01*
X111359731Y-167513278D01*
X111356411Y-167503783D01*
X111354222Y-167496261D01*
X111352290Y-167488395D01*
X111350615Y-167480187D01*
X111349198Y-167471634D01*
X111348039Y-167462738D01*
X111347138Y-167453499D01*
X111346494Y-167443916D01*
X111346107Y-167433990D01*
X111345978Y-167423721D01*
X111345978Y-167411997D01*
X111401275Y-167411997D01*
X111401275Y-167421376D01*
X111401312Y-167426498D01*
X111401612Y-167436408D01*
X111402210Y-167445873D01*
X111403108Y-167454891D01*
X111404304Y-167463464D01*
X111405800Y-167471591D01*
X111408091Y-167481124D01*
X111410849Y-167489959D01*
X111412114Y-167493311D01*
X111415870Y-167501309D01*
X111420476Y-167508763D01*
X111425930Y-167515673D01*
X111432234Y-167522040D01*
X111439386Y-167527863D01*
X111447388Y-167533141D01*
X111454483Y-167536955D01*
X111462287Y-167540481D01*
X111470799Y-167543720D01*
X111480019Y-167546672D01*
X111489947Y-167549338D01*
X111497859Y-167551148D01*
X111506168Y-167552798D01*
X111514876Y-167554285D01*
X111523983Y-167555612D01*
X111530281Y-167556393D01*
X111540175Y-167557469D01*
X111550605Y-167558433D01*
X111561571Y-167559283D01*
X111573072Y-167560020D01*
X111581038Y-167560448D01*
X111589241Y-167560826D01*
X111597683Y-167561153D01*
X111606363Y-167561430D01*
X111615281Y-167561657D01*
X111624437Y-167561833D01*
X111633831Y-167561959D01*
X111643463Y-167562035D01*
X111653334Y-167562060D01*
X111674632Y-167562060D01*
X111680093Y-167562052D01*
X111690816Y-167561986D01*
X111701269Y-167561855D01*
X111711454Y-167561658D01*
X111721371Y-167561395D01*
X111731018Y-167561067D01*
X111740397Y-167560673D01*
X111749507Y-167560214D01*
X111758349Y-167559689D01*
X111766922Y-167559098D01*
X111775226Y-167558441D01*
X111783262Y-167557719D01*
X111794811Y-167556513D01*
X111805756Y-167555159D01*
X111816097Y-167553658D01*
X111822671Y-167552548D01*
X111832180Y-167550660D01*
X111841266Y-167548504D01*
X111849930Y-167546081D01*
X111858172Y-167543389D01*
X111865991Y-167540429D01*
X111873387Y-167537202D01*
X111882592Y-167532482D01*
X111891046Y-167527286D01*
X111898749Y-167521613D01*
X111900550Y-167520119D01*
X111907384Y-167513800D01*
X111913626Y-167506939D01*
X111919276Y-167499533D01*
X111924333Y-167491585D01*
X111928798Y-167483093D01*
X111932671Y-167474057D01*
X111935951Y-167464478D01*
X111938023Y-167456938D01*
X111938648Y-167454336D01*
X111940404Y-167446237D01*
X111941982Y-167437694D01*
X111943381Y-167428709D01*
X111944602Y-167419280D01*
X111945643Y-167409408D01*
X111946507Y-167399093D01*
X111947191Y-167388335D01*
X111947697Y-167377134D01*
X111948025Y-167365490D01*
X111948144Y-167357481D01*
X111948184Y-167349275D01*
X111948184Y-167336966D01*
X111350473Y-167336966D01*
X111350473Y-167286945D01*
X111406746Y-167286945D01*
X111947011Y-167286945D01*
X111946714Y-167276078D01*
X111946262Y-167265606D01*
X111945656Y-167255529D01*
X111944895Y-167245848D01*
X111943980Y-167236561D01*
X111942910Y-167227669D01*
X111941686Y-167219172D01*
X111940307Y-167211071D01*
X111938228Y-167200883D01*
X111935874Y-167191397D01*
X111933062Y-167182519D01*
X111929707Y-167174153D01*
X111925808Y-167166301D01*
X111921366Y-167158961D01*
X111916380Y-167152135D01*
X111910851Y-167145821D01*
X111904779Y-167140020D01*
X111898163Y-167134733D01*
X111894601Y-167132243D01*
X111886913Y-167127566D01*
X111878474Y-167123291D01*
X111869285Y-167119420D01*
X111861900Y-167116781D01*
X111854092Y-167114369D01*
X111845862Y-167112183D01*
X111837210Y-167110224D01*
X111828135Y-167108492D01*
X111818637Y-167106987D01*
X111815367Y-167106518D01*
X111805149Y-167105201D01*
X111794319Y-167104017D01*
X111782879Y-167102968D01*
X111774912Y-167102343D01*
X111766673Y-167101777D01*
X111758163Y-167101271D01*
X111749381Y-167100825D01*
X111740327Y-167100438D01*
X111731001Y-167100110D01*
X111721404Y-167099842D01*
X111711535Y-167099634D01*
X111701395Y-167099485D01*
X111690982Y-167099396D01*
X111680298Y-167099366D01*
X111662322Y-167099366D01*
X111652023Y-167099394D01*
X111641985Y-167099476D01*
X111632209Y-167099613D01*
X111622693Y-167099806D01*
X111613439Y-167100053D01*
X111604445Y-167100355D01*
X111595713Y-167100713D01*
X111587242Y-167101125D01*
X111579031Y-167101592D01*
X111571082Y-167102114D01*
X111559647Y-167103000D01*
X111548800Y-167104010D01*
X111538540Y-167105143D01*
X111528867Y-167106400D01*
X111519691Y-167107791D01*
X111510920Y-167109398D01*
X111502555Y-167111221D01*
X111494594Y-167113261D01*
X111484611Y-167116317D01*
X111475348Y-167119757D01*
X111466805Y-167123583D01*
X111458983Y-167127793D01*
X111451882Y-167132388D01*
X111445376Y-167137392D01*
X111439438Y-167142829D01*
X111434068Y-167148700D01*
X111429265Y-167155005D01*
X111425031Y-167161743D01*
X111421364Y-167168914D01*
X111418265Y-167176519D01*
X111415734Y-167184558D01*
X111414646Y-167188732D01*
X111412680Y-167197507D01*
X111410994Y-167206849D01*
X111409590Y-167216759D01*
X111408721Y-167224564D01*
X111408010Y-167232689D01*
X111407457Y-167241133D01*
X111407062Y-167249897D01*
X111406825Y-167258980D01*
X111406746Y-167268382D01*
X111406746Y-167286945D01*
X111350473Y-167286945D01*
X111350473Y-167276198D01*
X111350485Y-167271996D01*
X111350588Y-167263730D01*
X111350792Y-167255648D01*
X111351291Y-167243872D01*
X111352019Y-167232512D01*
X111352978Y-167221568D01*
X111354167Y-167211039D01*
X111355586Y-167200925D01*
X111357236Y-167191228D01*
X111359115Y-167181945D01*
X111361224Y-167173079D01*
X111363564Y-167164628D01*
X111365260Y-167159180D01*
X111368119Y-167151277D01*
X111371355Y-167143696D01*
X111374970Y-167136439D01*
X111378962Y-167129504D01*
X111383332Y-167122892D01*
X111388080Y-167116604D01*
X111393205Y-167110638D01*
X111398709Y-167104994D01*
X111404590Y-167099674D01*
X111410849Y-167094677D01*
X111415225Y-167091515D01*
X111422169Y-167087008D01*
X111429571Y-167082782D01*
X111437428Y-167078838D01*
X111445743Y-167075175D01*
X111454515Y-167071795D01*
X111463743Y-167068695D01*
X111473428Y-167065878D01*
X111483570Y-167063342D01*
X111494169Y-167061088D01*
X111505225Y-167059115D01*
X111512882Y-167057932D01*
X111520807Y-167056825D01*
X111529002Y-167055795D01*
X111537465Y-167054841D01*
X111546197Y-167053963D01*
X111555197Y-167053162D01*
X111564466Y-167052436D01*
X111574004Y-167051788D01*
X111583810Y-167051215D01*
X111593885Y-167050719D01*
X111604229Y-167050299D01*
X111614841Y-167049956D01*
X111625722Y-167049689D01*
X111636872Y-167049498D01*
X111648290Y-167049383D01*
X111659977Y-167049345D01*
X111683620Y-167049345D01*
X111695742Y-167049386D01*
G37*
G36*
X110900870Y-167612081D02*
G01*
X110913392Y-167612056D01*
X110925606Y-167611983D01*
X110937511Y-167611861D01*
X110949108Y-167611690D01*
X110960397Y-167611470D01*
X110971377Y-167611201D01*
X110982049Y-167610884D01*
X110992412Y-167610518D01*
X111002468Y-167610102D01*
X111012214Y-167609638D01*
X111021653Y-167609125D01*
X111030783Y-167608564D01*
X111039605Y-167607953D01*
X111048118Y-167607294D01*
X111056323Y-167606585D01*
X111064220Y-167605828D01*
X111075551Y-167604560D01*
X111086392Y-167603099D01*
X111096741Y-167601445D01*
X111106599Y-167599600D01*
X111115966Y-167597562D01*
X111124842Y-167595332D01*
X111133226Y-167592909D01*
X111141120Y-167590294D01*
X111148522Y-167587487D01*
X111157628Y-167583445D01*
X111159768Y-167582381D01*
X111167867Y-167577850D01*
X111175265Y-167572855D01*
X111181960Y-167567397D01*
X111187953Y-167561474D01*
X111193244Y-167555087D01*
X111197833Y-167548236D01*
X111201719Y-167540921D01*
X111204904Y-167533141D01*
X111207514Y-167524825D01*
X111209776Y-167515898D01*
X111211691Y-167506360D01*
X111213257Y-167496212D01*
X111214203Y-167488200D01*
X111214954Y-167479845D01*
X111215508Y-167471146D01*
X111215867Y-167462103D01*
X111216030Y-167452718D01*
X111216041Y-167449513D01*
X111216041Y-167437007D01*
X111160940Y-167437007D01*
X111160940Y-167446191D01*
X111160836Y-167454972D01*
X111160525Y-167463337D01*
X111160006Y-167471287D01*
X111159065Y-167480641D01*
X111157800Y-167489346D01*
X111156211Y-167497402D01*
X111154297Y-167504809D01*
X111151066Y-167512899D01*
X111146502Y-167520316D01*
X111140606Y-167527059D01*
X111134675Y-167532164D01*
X111127818Y-167536802D01*
X111121666Y-167540176D01*
X111112915Y-167543949D01*
X111105008Y-167546686D01*
X111096294Y-167549173D01*
X111086775Y-167551409D01*
X111079106Y-167552922D01*
X111070985Y-167554294D01*
X111062409Y-167555526D01*
X111053381Y-167556616D01*
X111043899Y-167557566D01*
X111033854Y-167558369D01*
X111023135Y-167559093D01*
X111011744Y-167559738D01*
X111003775Y-167560124D01*
X110995508Y-167560475D01*
X110986941Y-167560791D01*
X110978075Y-167561072D01*
X110968909Y-167561318D01*
X110959445Y-167561529D01*
X110949681Y-167561704D01*
X110939619Y-167561845D01*
X110929257Y-167561950D01*
X110918595Y-167562020D01*
X110907635Y-167562055D01*
X110902043Y-167562060D01*
X110859251Y-167562060D01*
X110849678Y-167562040D01*
X110840350Y-167561980D01*
X110831268Y-167561881D01*
X110822432Y-167561742D01*
X110813841Y-167561564D01*
X110805496Y-167561345D01*
X110797398Y-167561087D01*
X110789544Y-167560790D01*
X110778225Y-167560269D01*
X110767459Y-167559659D01*
X110757247Y-167558959D01*
X110747587Y-167558170D01*
X110738479Y-167557292D01*
X110735567Y-167556980D01*
X110727113Y-167555969D01*
X110719044Y-167554841D01*
X110708883Y-167553156D01*
X110699407Y-167551263D01*
X110690614Y-167549162D01*
X110682505Y-167546854D01*
X110675080Y-167544338D01*
X110666760Y-167540902D01*
X110665225Y-167540176D01*
X110658068Y-167536251D01*
X110650576Y-167531012D01*
X110644279Y-167525196D01*
X110639178Y-167518802D01*
X110635271Y-167511832D01*
X110633766Y-167508131D01*
X110631243Y-167500160D01*
X110629242Y-167491489D01*
X110627973Y-167483727D01*
X110627066Y-167475480D01*
X110626523Y-167466745D01*
X110626341Y-167457524D01*
X110626341Y-167447363D01*
X110626523Y-167438129D01*
X110627066Y-167429476D01*
X110627973Y-167421406D01*
X110629539Y-167412489D01*
X110631627Y-167404411D01*
X110633766Y-167398319D01*
X110637874Y-167390554D01*
X110642897Y-167384463D01*
X110649309Y-167378894D01*
X110657108Y-167373847D01*
X110664667Y-167370041D01*
X110667960Y-167368619D01*
X110677021Y-167365259D01*
X110685183Y-167362832D01*
X110694158Y-167360637D01*
X110703944Y-167358674D01*
X110711817Y-167357354D01*
X110720147Y-167356164D01*
X110728933Y-167355105D01*
X110738176Y-167354177D01*
X110747877Y-167353379D01*
X110758140Y-167352680D01*
X110769073Y-167352051D01*
X110780676Y-167351490D01*
X110788783Y-167351154D01*
X110797188Y-167350849D01*
X110805891Y-167350574D01*
X110814891Y-167350329D01*
X110824189Y-167350116D01*
X110833785Y-167349933D01*
X110843678Y-167349780D01*
X110853869Y-167349658D01*
X110864358Y-167349566D01*
X110875144Y-167349505D01*
X110886228Y-167349475D01*
X110891882Y-167349471D01*
X110904255Y-167349446D01*
X110916316Y-167349373D01*
X110928063Y-167349251D01*
X110939497Y-167349080D01*
X110950619Y-167348860D01*
X110961427Y-167348592D01*
X110971923Y-167348274D01*
X110982105Y-167347908D01*
X110991975Y-167347492D01*
X111001532Y-167347028D01*
X111010776Y-167346515D01*
X111019707Y-167345954D01*
X111028325Y-167345343D01*
X111036630Y-167344684D01*
X111044622Y-167343975D01*
X111052301Y-167343218D01*
X111063343Y-167341955D01*
X111073900Y-167340509D01*
X111083974Y-167338882D01*
X111093563Y-167337072D01*
X111102667Y-167335081D01*
X111111288Y-167332907D01*
X111119424Y-167330552D01*
X111127076Y-167328014D01*
X111136525Y-167324347D01*
X111145113Y-167320357D01*
X111152920Y-167315991D01*
X111160024Y-167311296D01*
X111166426Y-167306270D01*
X111172126Y-167300915D01*
X111178264Y-167293758D01*
X111183304Y-167286085D01*
X111187247Y-167277897D01*
X111187904Y-167276198D01*
X111190832Y-167267197D01*
X111192816Y-167259433D01*
X111194483Y-167251169D01*
X111195832Y-167242404D01*
X111196864Y-167233138D01*
X111197579Y-167223371D01*
X111197976Y-167213104D01*
X111198065Y-167205074D01*
X111198065Y-167191397D01*
X111197873Y-167181578D01*
X111197296Y-167172151D01*
X111196334Y-167163114D01*
X111194988Y-167154467D01*
X111193256Y-167146212D01*
X111191141Y-167138347D01*
X111188640Y-167130873D01*
X111185755Y-167123790D01*
X111181399Y-167115448D01*
X111176146Y-167107640D01*
X111169996Y-167100366D01*
X111162949Y-167093626D01*
X111156666Y-167088619D01*
X111149809Y-167083954D01*
X111142378Y-167079631D01*
X111134253Y-167075632D01*
X111125415Y-167071938D01*
X111115862Y-167068549D01*
X111108228Y-167066208D01*
X111100193Y-167064038D01*
X111091756Y-167062040D01*
X111082917Y-167060214D01*
X111073676Y-167058560D01*
X111064033Y-167057077D01*
X111057381Y-167056184D01*
X111046967Y-167054962D01*
X111036020Y-167053860D01*
X111024541Y-167052878D01*
X111016592Y-167052290D01*
X111008407Y-167051756D01*
X110999985Y-167051275D01*
X110991327Y-167050848D01*
X110982432Y-167050474D01*
X110973300Y-167050153D01*
X110963932Y-167049886D01*
X110954327Y-167049672D01*
X110944485Y-167049512D01*
X110934407Y-167049405D01*
X110924093Y-167049352D01*
X110918847Y-167049345D01*
X110886216Y-167049345D01*
X110875368Y-167049368D01*
X110864759Y-167049437D01*
X110854388Y-167049551D01*
X110844255Y-167049712D01*
X110834360Y-167049918D01*
X110824703Y-167050170D01*
X110815285Y-167050467D01*
X110806104Y-167050811D01*
X110797162Y-167051200D01*
X110788457Y-167051635D01*
X110779991Y-167052116D01*
X110771763Y-167052642D01*
X110763774Y-167053215D01*
X110752236Y-167054159D01*
X110741233Y-167055207D01*
X110730680Y-167056409D01*
X110720563Y-167057817D01*
X110710883Y-167059432D01*
X110701638Y-167061252D01*
X110692830Y-167063279D01*
X110684458Y-167065511D01*
X110676522Y-167067950D01*
X110669023Y-167070594D01*
X110659702Y-167074441D01*
X110651156Y-167078654D01*
X110643261Y-167083231D01*
X110635989Y-167088265D01*
X110629339Y-167093758D01*
X110623313Y-167099708D01*
X110617909Y-167106116D01*
X110613128Y-167112983D01*
X110608970Y-167120307D01*
X110605434Y-167128089D01*
X110602412Y-167136421D01*
X110599792Y-167145394D01*
X110597576Y-167155008D01*
X110595762Y-167165263D01*
X110594666Y-167173375D01*
X110593797Y-167181848D01*
X110593155Y-167190681D01*
X110592740Y-167199875D01*
X110592551Y-167209430D01*
X110592538Y-167212695D01*
X110592538Y-167224418D01*
X110647639Y-167224418D01*
X110647639Y-167214844D01*
X110647764Y-167206705D01*
X110648140Y-167198895D01*
X110648961Y-167189597D01*
X110650174Y-167180814D01*
X110651778Y-167172546D01*
X110653773Y-167164793D01*
X110655650Y-167158961D01*
X110659179Y-167150798D01*
X110663903Y-167143308D01*
X110669822Y-167136492D01*
X110676936Y-167130348D01*
X110683778Y-167125743D01*
X110688281Y-167123204D01*
X110696514Y-167119304D01*
X110703876Y-167116459D01*
X110711929Y-167113857D01*
X110720671Y-167111500D01*
X110730103Y-167109388D01*
X110740226Y-167107519D01*
X110748270Y-167106278D01*
X110756703Y-167105175D01*
X110759600Y-167104837D01*
X110768629Y-167103859D01*
X110778205Y-167102978D01*
X110788326Y-167102192D01*
X110798994Y-167101503D01*
X110810207Y-167100910D01*
X110821967Y-167100413D01*
X110830110Y-167100136D01*
X110838496Y-167099900D01*
X110847125Y-167099708D01*
X110855996Y-167099558D01*
X110865110Y-167099452D01*
X110874467Y-167099388D01*
X110884066Y-167099366D01*
X110914352Y-167099366D01*
X110923804Y-167099384D01*
X110933010Y-167099439D01*
X110941969Y-167099531D01*
X110950684Y-167099659D01*
X110959152Y-167099824D01*
X110967375Y-167100026D01*
X110975351Y-167100264D01*
X110986856Y-167100690D01*
X110997807Y-167101198D01*
X111008206Y-167101789D01*
X111018051Y-167102462D01*
X111027344Y-167103218D01*
X111036083Y-167104056D01*
X111044322Y-167104986D01*
X111052187Y-167106020D01*
X111062091Y-167107559D01*
X111071330Y-167109281D01*
X111079903Y-167111186D01*
X111087810Y-167113274D01*
X111096758Y-167116142D01*
X111104667Y-167119296D01*
X111112942Y-167123448D01*
X111120035Y-167128135D01*
X111125948Y-167133358D01*
X111131352Y-167140129D01*
X111135148Y-167147629D01*
X111137737Y-167155970D01*
X111139449Y-167163879D01*
X111140695Y-167172488D01*
X111141474Y-167181799D01*
X111141765Y-167190092D01*
X111141791Y-167193546D01*
X111141791Y-167206442D01*
X111141601Y-167214931D01*
X111141028Y-167222932D01*
X111139837Y-167231892D01*
X111138097Y-167240152D01*
X111135807Y-167247710D01*
X111133976Y-167252360D01*
X111129592Y-167259869D01*
X111123450Y-167266668D01*
X111116787Y-167271930D01*
X111108832Y-167276670D01*
X111101217Y-167280221D01*
X111099586Y-167280887D01*
X111090752Y-167283971D01*
X111082832Y-167286218D01*
X111074155Y-167288270D01*
X111064721Y-167290126D01*
X111054530Y-167291787D01*
X111046390Y-167292904D01*
X111037824Y-167293912D01*
X111028832Y-167294809D01*
X111022601Y-167295347D01*
X111012761Y-167296080D01*
X111002293Y-167296741D01*
X110991196Y-167297330D01*
X110979471Y-167297847D01*
X110971305Y-167298152D01*
X110962859Y-167298424D01*
X110954134Y-167298664D01*
X110945130Y-167298873D01*
X110935847Y-167299049D01*
X110926284Y-167299193D01*
X110916442Y-167299306D01*
X110906320Y-167299386D01*
X110895919Y-167299434D01*
X110885239Y-167299450D01*
X110872859Y-167299474D01*
X110860781Y-167299548D01*
X110849003Y-167299670D01*
X110837526Y-167299841D01*
X110826349Y-167300060D01*
X110815474Y-167300329D01*
X110804899Y-167300647D01*
X110794625Y-167301013D01*
X110784651Y-167301428D01*
X110774978Y-167301892D01*
X110765606Y-167302405D01*
X110756535Y-167302967D01*
X110747764Y-167303578D01*
X110739294Y-167304237D01*
X110731125Y-167304945D01*
X110723257Y-167305703D01*
X110711890Y-167306924D01*
X110701019Y-167308317D01*
X110690641Y-167309882D01*
X110680759Y-167311619D01*
X110671371Y-167313528D01*
X110662477Y-167315608D01*
X110654078Y-167317860D01*
X110646174Y-167320284D01*
X110638764Y-167322879D01*
X110629654Y-167326607D01*
X110627514Y-167327587D01*
X110619408Y-167331705D01*
X110611992Y-167336245D01*
X110605266Y-167341206D01*
X110599230Y-167346589D01*
X110593884Y-167352393D01*
X110588172Y-167360240D01*
X110583539Y-167368745D01*
X110581987Y-167372332D01*
X110579193Y-167379855D01*
X110576772Y-167387866D01*
X110574724Y-167396365D01*
X110573048Y-167405354D01*
X110571744Y-167414830D01*
X110570813Y-167424795D01*
X110570254Y-167435249D01*
X110570079Y-167443410D01*
X110570068Y-167446191D01*
X110570068Y-167457524D01*
X110570173Y-167465572D01*
X110570638Y-167475923D01*
X110571476Y-167485841D01*
X110572687Y-167495325D01*
X110574270Y-167504376D01*
X110576225Y-167512993D01*
X110578553Y-167521177D01*
X110581254Y-167528927D01*
X110581987Y-167530797D01*
X110585235Y-167538039D01*
X110589119Y-167544914D01*
X110593637Y-167551423D01*
X110598791Y-167557566D01*
X110604579Y-167563342D01*
X110611003Y-167568752D01*
X110618061Y-167573796D01*
X110625755Y-167578473D01*
X110634136Y-167582808D01*
X110643255Y-167586826D01*
X110650580Y-167589631D01*
X110658320Y-167592257D01*
X110666475Y-167594705D01*
X110675046Y-167596974D01*
X110684033Y-167599065D01*
X110693436Y-167600977D01*
X110703254Y-167602710D01*
X110713487Y-167604265D01*
X110724220Y-167605662D01*
X110735538Y-167606921D01*
X110743407Y-167607684D01*
X110751536Y-167608387D01*
X110759924Y-167609028D01*
X110768572Y-167609608D01*
X110777479Y-167610127D01*
X110786646Y-167610585D01*
X110796072Y-167610982D01*
X110805758Y-167611317D01*
X110815703Y-167611592D01*
X110825908Y-167611806D01*
X110836372Y-167611959D01*
X110847096Y-167612050D01*
X110858079Y-167612081D01*
X110900870Y-167612081D01*
G37*
G04 #@! TO.C,JP12*
G36*
X38655000Y-118710000D02*
G01*
X38155000Y-118710000D01*
X38155000Y-118310000D01*
X38655000Y-118310000D01*
X38655000Y-118710000D01*
G37*
G36*
X38655000Y-117910000D02*
G01*
X38155000Y-117910000D01*
X38155000Y-117510000D01*
X38655000Y-117510000D01*
X38655000Y-117910000D01*
G37*
G04 #@! TO.C,JP1*
G36*
X71675000Y-131745000D02*
G01*
X71175000Y-131745000D01*
X71175000Y-131145000D01*
X71675000Y-131145000D01*
X71675000Y-131745000D01*
G37*
G04 #@! TO.C,JP2*
G36*
X79295000Y-131745000D02*
G01*
X78795000Y-131745000D01*
X78795000Y-131145000D01*
X79295000Y-131145000D01*
X79295000Y-131745000D01*
G37*
G04 #@! TO.C,JP4*
G36*
X53056000Y-112772000D02*
G01*
X52456000Y-112772000D01*
X52456000Y-112272000D01*
X53056000Y-112272000D01*
X53056000Y-112772000D01*
G37*
G04 #@! TO.C,JP11*
G36*
X38655000Y-115370000D02*
G01*
X38155000Y-115370000D01*
X38155000Y-114970000D01*
X38655000Y-114970000D01*
X38655000Y-115370000D01*
G37*
G36*
X38655000Y-116170000D02*
G01*
X38155000Y-116170000D01*
X38155000Y-115770000D01*
X38655000Y-115770000D01*
X38655000Y-116170000D01*
G37*
G04 #@! TO.C,JP8*
G36*
X53056000Y-116328000D02*
G01*
X52456000Y-116328000D01*
X52456000Y-115828000D01*
X53056000Y-115828000D01*
X53056000Y-116328000D01*
G37*
G04 #@! TD*
D12*
G04 #@! TO.P,J4,0,Pin_0*
G04 #@! TO.N,GND*
X37769999Y-138417299D03*
X53009999Y-138417299D03*
X53009999Y-138417299D03*
X68249999Y-138417299D03*
X68249999Y-138417299D03*
X83489999Y-138417299D03*
X83489999Y-138417299D03*
X98729999Y-138417299D03*
X98729999Y-138417299D03*
X113969999Y-138417299D03*
D13*
G04 #@! TO.P,J4,1,Pin_1*
G04 #@! TO.N,1*
X39039999Y-143497299D03*
X39039999Y-158737299D03*
X39039999Y-158737299D03*
G04 #@! TO.P,J4,2,Pin_2*
G04 #@! TO.N,2*
X41579999Y-143497299D03*
X41579999Y-158737299D03*
G04 #@! TO.P,J4,3,Pin_3*
G04 #@! TO.N,3*
X44119999Y-143497299D03*
X44119999Y-158737299D03*
G04 #@! TO.P,J4,4,Pin_4*
G04 #@! TO.N,4*
X46659999Y-143497299D03*
X46659999Y-158737299D03*
G04 #@! TO.P,J4,5,Pin_5*
G04 #@! TO.N,5*
X49199999Y-143497299D03*
X49199999Y-158737299D03*
G04 #@! TO.P,J4,6,Pin_6*
G04 #@! TO.N,6*
X51739999Y-143497299D03*
X51739999Y-158737299D03*
G04 #@! TO.P,J4,7,Pin_7*
G04 #@! TO.N,7*
X54279999Y-143497299D03*
X54279999Y-158737299D03*
G04 #@! TO.P,J4,8,Pin_8*
G04 #@! TO.N,8*
X56819999Y-143497299D03*
X56819999Y-158737299D03*
G04 #@! TO.P,J4,9,Pin_9*
G04 #@! TO.N,9*
X59359999Y-143497299D03*
X59359999Y-158737299D03*
G04 #@! TO.P,J4,10,Pin_10*
G04 #@! TO.N,10*
X61899999Y-143497299D03*
X61899999Y-158737299D03*
G04 #@! TO.P,J4,11,Pin_11*
G04 #@! TO.N,11*
X64439999Y-143497299D03*
X64439999Y-158737299D03*
G04 #@! TO.P,J4,12,Pin_12*
G04 #@! TO.N,12*
X66979999Y-143497299D03*
X66979999Y-158737299D03*
G04 #@! TO.P,J4,13,Pin_13*
G04 #@! TO.N,13*
X69519999Y-143497299D03*
X69519999Y-158737299D03*
G04 #@! TO.P,J4,14,Pin_14*
G04 #@! TO.N,14*
X72059999Y-143497299D03*
X72059999Y-158737299D03*
G04 #@! TO.P,J4,15,Pin_15*
G04 #@! TO.N,15*
X74599999Y-143497299D03*
X74599999Y-158737299D03*
G04 #@! TO.P,J4,16,Pin_16*
G04 #@! TO.N,16*
X77139999Y-143497299D03*
X77139999Y-158737299D03*
G04 #@! TO.P,J4,17,Pin_17*
G04 #@! TO.N,17*
X79679999Y-143497299D03*
X79679999Y-158737299D03*
G04 #@! TO.P,J4,18,Pin_18*
G04 #@! TO.N,18*
X82219999Y-143497299D03*
X82219999Y-158737299D03*
G04 #@! TO.P,J4,19,Pin_19*
G04 #@! TO.N,19*
X84759999Y-143497299D03*
X84759999Y-158737299D03*
G04 #@! TO.P,J4,20,Pin_20*
G04 #@! TO.N,20*
X87299999Y-143497299D03*
X87299999Y-158737299D03*
G04 #@! TO.P,J4,21,Pin_21*
G04 #@! TO.N,21*
X89839999Y-143497299D03*
X89839999Y-158737299D03*
G04 #@! TO.P,J4,22,Pin_22*
G04 #@! TO.N,22*
X92379999Y-143497299D03*
X92379999Y-158737299D03*
G04 #@! TO.P,J4,23,Pin_23*
G04 #@! TO.N,23*
X94919999Y-143497299D03*
X94919999Y-158737299D03*
G04 #@! TO.P,J4,24,Pin_24*
G04 #@! TO.N,24*
X97459999Y-143497299D03*
X97459999Y-158737299D03*
G04 #@! TO.P,J4,25,Pin_25*
G04 #@! TO.N,25*
X99999999Y-143497299D03*
X99999999Y-158737299D03*
G04 #@! TO.P,J4,26,Pin_26*
G04 #@! TO.N,26*
X102539999Y-143497299D03*
X102539999Y-158737299D03*
G04 #@! TO.P,J4,27,Pin_27*
G04 #@! TO.N,27*
X105079999Y-143497299D03*
X105079999Y-158737299D03*
G04 #@! TO.P,J4,28,Pin_28*
G04 #@! TO.N,28*
X107619999Y-143497299D03*
X107619999Y-158737299D03*
G04 #@! TO.P,J4,29,Pin_29*
G04 #@! TO.N,29*
X110159999Y-143497299D03*
X110159999Y-158737299D03*
G04 #@! TO.P,J4,30,Pin_30*
G04 #@! TO.N,30*
X112699999Y-143497299D03*
X112699999Y-158737299D03*
D12*
G04 #@! TO.P,J4,31,Pin_31*
G04 #@! TO.N,TOP_RAIL*
X37769999Y-135877299D03*
X53009999Y-135877299D03*
X53009999Y-135877299D03*
X68249999Y-135877299D03*
X68249999Y-135877299D03*
X83489999Y-135877299D03*
X83489999Y-135877299D03*
X98729999Y-135877299D03*
X98729999Y-135877299D03*
X113969999Y-135877299D03*
G04 #@! TO.P,J4,32,Pin_0*
G04 #@! TO.N,GND*
X37769999Y-184149999D03*
X53009999Y-184137299D03*
X53009999Y-184137299D03*
X68249999Y-184137299D03*
X68249999Y-184137299D03*
X83489999Y-184137299D03*
X83489999Y-184137299D03*
X98729999Y-184137299D03*
X98729999Y-184137299D03*
X113969999Y-184137299D03*
D13*
G04 #@! TO.P,J4,33,Pin_1*
G04 #@! TO.N,32*
X39039999Y-161277299D03*
X39039999Y-176517299D03*
G04 #@! TO.P,J4,34,Pin_2*
G04 #@! TO.N,33*
X41579999Y-161277299D03*
X41579999Y-176517299D03*
G04 #@! TO.P,J4,35,Pin_3*
G04 #@! TO.N,34*
X44119999Y-161277299D03*
X44119999Y-176517299D03*
G04 #@! TO.P,J4,36,Pin_4*
G04 #@! TO.N,35*
X46659999Y-161277299D03*
X46659999Y-176517299D03*
G04 #@! TO.P,J4,37,Pin_5*
G04 #@! TO.N,36*
X49199999Y-161277299D03*
X49199999Y-176517299D03*
G04 #@! TO.P,J4,38,Pin_6*
G04 #@! TO.N,37*
X51739999Y-161277299D03*
X51739999Y-176517299D03*
G04 #@! TO.P,J4,39,Pin_7*
G04 #@! TO.N,38*
X54279999Y-161277299D03*
X54279999Y-176517299D03*
G04 #@! TO.P,J4,40,Pin_8*
G04 #@! TO.N,39*
X56819999Y-161277299D03*
X56819999Y-176517299D03*
G04 #@! TO.P,J4,41,Pin_9*
G04 #@! TO.N,40*
X59359999Y-161277299D03*
X59359999Y-176517299D03*
G04 #@! TO.P,J4,42,Pin_10*
G04 #@! TO.N,41*
X61899999Y-161277299D03*
X61899999Y-176517299D03*
G04 #@! TO.P,J4,43,Pin_11*
G04 #@! TO.N,42*
X64439999Y-161277299D03*
X64439999Y-176517299D03*
G04 #@! TO.P,J4,44,Pin_12*
G04 #@! TO.N,43*
X66979999Y-161277299D03*
X66979999Y-176517299D03*
G04 #@! TO.P,J4,45,Pin_13*
G04 #@! TO.N,44*
X69519999Y-161277299D03*
X69519999Y-176517299D03*
G04 #@! TO.P,J4,46,Pin_14*
G04 #@! TO.N,45*
X72059999Y-161277299D03*
X72059999Y-176517299D03*
G04 #@! TO.P,J4,47,Pin_15*
G04 #@! TO.N,46*
X74599999Y-161277299D03*
X74599999Y-176517299D03*
G04 #@! TO.P,J4,48,Pin_16*
G04 #@! TO.N,47*
X77139999Y-161277299D03*
X77139999Y-176517299D03*
G04 #@! TO.P,J4,49,Pin_17*
G04 #@! TO.N,48*
X79679999Y-161277299D03*
X79679999Y-176517299D03*
G04 #@! TO.P,J4,50,Pin_18*
G04 #@! TO.N,49*
X82219999Y-161277299D03*
X82219999Y-176517299D03*
G04 #@! TO.P,J4,51,Pin_19*
G04 #@! TO.N,50*
X84759999Y-161277299D03*
X84759999Y-176517299D03*
G04 #@! TO.P,J4,52,Pin_20*
G04 #@! TO.N,51*
X87299999Y-161277299D03*
X87299999Y-176517299D03*
G04 #@! TO.P,J4,53,Pin_21*
G04 #@! TO.N,52*
X89839999Y-161277299D03*
X89839999Y-176517299D03*
G04 #@! TO.P,J4,54,Pin_22*
G04 #@! TO.N,53*
X92379999Y-161277299D03*
X92379999Y-176517299D03*
G04 #@! TO.P,J4,55,Pin_23*
G04 #@! TO.N,54*
X94919999Y-161277299D03*
X94919999Y-176517299D03*
G04 #@! TO.P,J4,56,Pin_24*
G04 #@! TO.N,55*
X97459999Y-161277299D03*
X97459999Y-176517299D03*
G04 #@! TO.P,J4,57,Pin_25*
G04 #@! TO.N,56*
X99999999Y-161277299D03*
X99999999Y-176517299D03*
G04 #@! TO.P,J4,58,Pin_26*
G04 #@! TO.N,57*
X102539999Y-161277299D03*
X102539999Y-176517299D03*
G04 #@! TO.P,J4,59,Pin_27*
G04 #@! TO.N,58*
X105079999Y-161277299D03*
X105079999Y-176517299D03*
G04 #@! TO.P,J4,60,Pin_28*
G04 #@! TO.N,59*
X107619999Y-161277299D03*
X107619999Y-176517299D03*
G04 #@! TO.P,J4,61,Pin_29*
G04 #@! TO.N,60*
X110159999Y-161277299D03*
X110159999Y-176517299D03*
G04 #@! TO.P,J4,62,Pin_30*
G04 #@! TO.N,61*
X112699999Y-161277299D03*
X112699999Y-176517299D03*
D12*
G04 #@! TO.P,J4,63,Pin_31*
G04 #@! TO.N,BOTTOM_RAIL*
X37769999Y-181609999D03*
X53009999Y-181597299D03*
X53009999Y-181597299D03*
X68249999Y-181609999D03*
X68249999Y-181609999D03*
X83489999Y-181597299D03*
X83489999Y-181597299D03*
X98729999Y-181597299D03*
X98729999Y-181597299D03*
X113969999Y-181597299D03*
G04 #@! TD*
D14*
G04 #@! TO.P,U1,1,FB/SHDN*
G04 #@! TO.N,Net-(U1-FB{slash}SHDN)*
X80323999Y-122290999D03*
D15*
G04 #@! TO.P,U1,2,CAP+*
G04 #@! TO.N,Net-(U1-CAP+)*
X82863999Y-122290999D03*
G04 #@! TO.P,U1,3,GND*
G04 #@! TO.N,GND*
X85403999Y-122290999D03*
G04 #@! TO.P,U1,4,CAP-*
G04 #@! TO.N,Net-(U1-CAP-)*
X87943999Y-122290999D03*
G04 #@! TO.P,U1,5,-VOUT*
G04 #@! TO.N,Net-(D65-K)*
X87943999Y-114670999D03*
G04 #@! TO.P,U1,6,VREF*
G04 #@! TO.N,Net-(U1-VREF)*
X85403999Y-114670999D03*
G04 #@! TO.P,U1,7,OSC*
G04 #@! TO.N,unconnected-(U1-OSC-Pad7)*
X82863999Y-114670999D03*
G04 #@! TO.P,U1,8,V+*
G04 #@! TO.N,+5V*
X80323999Y-114670999D03*
G04 #@! TD*
D16*
G04 #@! TO.P,SW2,1,1*
G04 #@! TO.N,+8V*
X35738000Y-120936000D03*
G04 #@! TO.P,SW2,2,2*
G04 #@! TO.N,+5V*
X35738000Y-122936000D03*
G04 #@! TO.P,SW2,3,3*
G04 #@! TO.N,TOP_RAIL*
X35738000Y-126936000D03*
G04 #@! TO.P,SW2,4,4*
G04 #@! TO.N,+3V3*
X35738000Y-128936000D03*
G04 #@! TO.P,SW2,5,5*
G04 #@! TO.N,-8V*
X39038000Y-120936000D03*
G04 #@! TO.P,SW2,6,6*
G04 #@! TO.N,+5V*
X39038000Y-122936000D03*
G04 #@! TO.P,SW2,7,7*
G04 #@! TO.N,BOTTOM_RAIL*
X39038000Y-126936000D03*
G04 #@! TO.P,SW2,8,8*
G04 #@! TO.N,+3V3*
X39038000Y-128936000D03*
G04 #@! TD*
D17*
G04 #@! TO.P,J2,1,Pin_1*
G04 #@! TO.N,+5V*
X40144761Y-108724838D03*
D18*
G04 #@! TO.P,J2,2,Pin_2*
G04 #@! TO.N,GND*
X38348710Y-110520889D03*
G04 #@! TD*
D19*
G04 #@! TO.P,J3,1,Pin_1*
G04 #@! TO.N,GND*
X70535999Y-106197399D03*
D15*
G04 #@! TO.P,J3,2,Pin_2*
G04 #@! TO.N,CTS_UNCONNECTED*
X73075999Y-106197399D03*
G04 #@! TO.P,J3,3,Pin_3*
G04 #@! TO.N,+3V3*
X75615999Y-106197399D03*
G04 #@! TO.P,J3,4,Pin_4*
G04 #@! TO.N,D1*
X78155999Y-106197399D03*
G04 #@! TO.P,J3,5,Pin_5*
G04 #@! TO.N,D0*
X80695999Y-106197399D03*
G04 #@! TO.P,J3,6,Pin_6*
G04 #@! TO.N,DTR_UNCONNECTED*
X83235999Y-106197399D03*
G04 #@! TD*
D14*
G04 #@! TO.P,A1,1,D1/TX*
G04 #@! TO.N,D1*
X93395999Y-110910999D03*
D15*
G04 #@! TO.P,A1,2,D0/RX*
G04 #@! TO.N,D0*
X90855999Y-110910999D03*
G04 #@! TO.P,A1,3,~{RESET}*
G04 #@! TO.N,NANO_~{RESET}*
X88315999Y-110910999D03*
G04 #@! TO.P,A1,4,GND*
G04 #@! TO.N,GND*
X85775999Y-110910999D03*
G04 #@! TO.P,A1,5,D2*
G04 #@! TO.N,D2*
X83235999Y-110910999D03*
G04 #@! TO.P,A1,6,D3*
G04 #@! TO.N,D3*
X80695999Y-110910999D03*
G04 #@! TO.P,A1,7,D4*
G04 #@! TO.N,D4*
X78155999Y-110910999D03*
G04 #@! TO.P,A1,8,D5*
G04 #@! TO.N,D5*
X75615999Y-110910999D03*
G04 #@! TO.P,A1,9,D6*
G04 #@! TO.N,D6*
X73075999Y-110910999D03*
G04 #@! TO.P,A1,10,D7*
G04 #@! TO.N,D7*
X70535999Y-110910999D03*
G04 #@! TO.P,A1,11,D8*
G04 #@! TO.N,D8*
X67995999Y-110910999D03*
G04 #@! TO.P,A1,12,D9*
G04 #@! TO.N,D9*
X65455999Y-110910999D03*
G04 #@! TO.P,A1,13,D10*
G04 #@! TO.N,D10*
X62915999Y-110910999D03*
G04 #@! TO.P,A1,14,D11*
G04 #@! TO.N,D11*
X60375999Y-110910999D03*
G04 #@! TO.P,A1,15,D12*
G04 #@! TO.N,D12*
X57835999Y-110910999D03*
G04 #@! TO.P,A1,16,D13*
G04 #@! TO.N,D13*
X57835999Y-126150999D03*
G04 #@! TO.P,A1,17,3V3*
G04 #@! TO.N,NANO_3V3*
X60375999Y-126150999D03*
G04 #@! TO.P,A1,18,AREF*
G04 #@! TO.N,AREF*
X62915999Y-126150999D03*
G04 #@! TO.P,A1,19,A0*
G04 #@! TO.N,A0*
X65455999Y-126150999D03*
G04 #@! TO.P,A1,20,A1*
G04 #@! TO.N,A1*
X67995999Y-126150999D03*
G04 #@! TO.P,A1,21,A2*
G04 #@! TO.N,A2*
X70535999Y-126150999D03*
G04 #@! TO.P,A1,22,A3*
G04 #@! TO.N,A3*
X73075999Y-126150999D03*
G04 #@! TO.P,A1,23,A4*
G04 #@! TO.N,A4*
X75615999Y-126150999D03*
G04 #@! TO.P,A1,24,A5*
G04 #@! TO.N,A5*
X78155999Y-126150999D03*
G04 #@! TO.P,A1,25,A6*
G04 #@! TO.N,A6*
X80695999Y-126150999D03*
G04 #@! TO.P,A1,26,A7*
G04 #@! TO.N,A7*
X83235999Y-126150999D03*
G04 #@! TO.P,A1,27,+5V*
G04 #@! TO.N,NANO_5V*
X85775999Y-126150999D03*
G04 #@! TO.P,A1,28,~{RESET}*
G04 #@! TO.N,unconnected-(A1-~{RESET}-Pad28)*
X88315999Y-126150999D03*
G04 #@! TO.P,A1,29,GND*
G04 #@! TO.N,GND*
X90855999Y-126150999D03*
G04 #@! TO.P,A1,30,VIN*
G04 #@! TO.N,VIN*
X93395999Y-126150999D03*
G04 #@! TD*
D20*
G04 #@! TO.P,U9,57,GND*
G04 #@! TO.N,GND*
X105324000Y-125217000D03*
X105324000Y-126492000D03*
X105324000Y-127767000D03*
X106599000Y-125217000D03*
X106599000Y-126492000D03*
X106599000Y-127767000D03*
X107874000Y-125217000D03*
X107874000Y-126492000D03*
X107874000Y-127767000D03*
G04 #@! TD*
D21*
G04 #@! TO.P,C12,1*
G04 #@! TO.N,+3V3*
X96190000Y-114046000D03*
G04 #@! TO.P,C12,2*
G04 #@! TO.N,GND*
X96190000Y-115006000D03*
G04 #@! TD*
G04 #@! TO.P,C17,1*
G04 #@! TO.N,+3V3*
X100254000Y-118392000D03*
G04 #@! TO.P,C17,2*
G04 #@! TO.N,GND*
X100254000Y-119352000D03*
G04 #@! TD*
D22*
G04 #@! TO.P,R20,1*
G04 #@! TO.N,Net-(R20-Pad1)*
X87554000Y-183110500D03*
G04 #@! TO.P,R20,2*
G04 #@! TO.N,CURR_SENSE_DAC-*
X87554000Y-184935500D03*
G04 #@! TD*
D23*
G04 #@! TO.P,F1,1*
G04 #@! TO.N,Net-(D64-K)*
X51994000Y-128487500D03*
G04 #@! TO.P,F1,2*
G04 #@! TO.N,+8V*
X51994000Y-125512500D03*
G04 #@! TD*
D24*
G04 #@! TO.P,TP1,1,1*
G04 #@! TO.N,GPIO_16*
X116129000Y-124968000D03*
G04 #@! TD*
D25*
G04 #@! TO.P,C6,1*
G04 #@! TO.N,GND*
X80315000Y-120053500D03*
G04 #@! TO.P,C6,2*
G04 #@! TO.N,-9V*
X80315000Y-116928500D03*
G04 #@! TD*
D24*
G04 #@! TO.P,TP2,1,1*
G04 #@! TO.N,GPIO_17*
X116129000Y-127000000D03*
G04 #@! TD*
D26*
G04 #@! TO.P,TP6,1,1*
G04 #@! TO.N,Net-(U1-VREF)*
X76886000Y-117094000D03*
G04 #@! TD*
D27*
G04 #@! TO.P,R16,1*
G04 #@! TO.N,Net-(U10B--)*
X48438000Y-135191000D03*
G04 #@! TO.P,R16,2*
G04 #@! TO.N,DAC_+-8V*
X48438000Y-133541000D03*
G04 #@! TD*
D28*
G04 #@! TO.P,D62,1,K*
G04 #@! TO.N,Net-(D61-A)*
X61899999Y-116990999D03*
G04 #@! TO.P,D62,2,A*
G04 #@! TO.N,+5V*
X61899999Y-114890999D03*
G04 #@! TD*
G04 #@! TO.P,D66,1,K*
G04 #@! TO.N,-9V*
X56057999Y-121953999D03*
G04 #@! TO.P,D66,2,A*
G04 #@! TO.N,Net-(D66-A)*
X56057999Y-119853999D03*
G04 #@! TD*
D29*
G04 #@! TO.P,F5,1,X14*
G04 #@! TO.N,/FH0*
X61185999Y-164894999D03*
G04 #@! TO.P,F5,2,X15*
G04 #@! TO.N,/FH1*
X61185999Y-165694999D03*
G04 #@! TO.P,F5,3,X6*
G04 #@! TO.N,/DF0*
X61185999Y-166494999D03*
G04 #@! TO.P,F5,4,X7*
G04 #@! TO.N,/DF1*
X61185999Y-167294999D03*
G04 #@! TO.P,F5,5,X8*
G04 #@! TO.N,/EF0*
X61185999Y-168094999D03*
G04 #@! TO.P,F5,6,X9*
G04 #@! TO.N,/EF1*
X61185999Y-168894999D03*
G04 #@! TO.P,F5,7,X10*
G04 #@! TO.N,FI*
X61185999Y-169694999D03*
G04 #@! TO.P,F5,8,X11*
G04 #@! TO.N,FJ*
X61185999Y-170494999D03*
G04 #@! TO.P,F5,9*
G04 #@! TO.N,N/C*
X61185999Y-171294999D03*
G04 #@! TO.P,F5,10,P/_S*
G04 #@! TO.N,GND*
X61185999Y-172094999D03*
G04 #@! TO.P,F5,11,Y7*
G04 #@! TO.N,46*
X61185999Y-172894999D03*
D30*
G04 #@! TO.P,F5,12,VSS*
G04 #@! TO.N,GND*
X59485999Y-174594999D03*
G04 #@! TO.P,F5,13,Y6*
G04 #@! TO.N,45*
X58685999Y-174594999D03*
G04 #@! TO.P,F5,14,STB*
G04 #@! TO.N,CS_F*
X57885999Y-174594999D03*
G04 #@! TO.P,F5,15,Y5*
G04 #@! TO.N,44*
X57085999Y-174594999D03*
G04 #@! TO.P,F5,16,VEE*
G04 #@! TO.N,-9V*
X56285999Y-174594999D03*
G04 #@! TO.P,F5,17,Y4*
G04 #@! TO.N,43*
X55485999Y-174594999D03*
G04 #@! TO.P,F5,18,AX1*
G04 #@! TO.N,GND*
X54685999Y-174594999D03*
G04 #@! TO.P,F5,19,AX2*
X53885999Y-174594999D03*
G04 #@! TO.P,F5,20,AY0*
X53085999Y-174594999D03*
G04 #@! TO.P,F5,21,AY1*
X52285999Y-174594999D03*
G04 #@! TO.P,F5,22*
G04 #@! TO.N,N/C*
X51485999Y-174594999D03*
D29*
G04 #@! TO.P,F5,23*
X49785999Y-172894999D03*
G04 #@! TO.P,F5,24,X13*
G04 #@! TO.N,/FG1*
X49785999Y-172094999D03*
G04 #@! TO.P,F5,25,X12*
G04 #@! TO.N,/FG0*
X49785999Y-171294999D03*
G04 #@! TO.P,F5,26,X5*
G04 #@! TO.N,/CF1*
X49785999Y-170494999D03*
G04 #@! TO.P,F5,27,X4*
G04 #@! TO.N,/CF0*
X49785999Y-169694999D03*
G04 #@! TO.P,F5,28,X3*
G04 #@! TO.N,FK*
X49785999Y-168894999D03*
G04 #@! TO.P,F5,29,X2*
G04 #@! TO.N,/BF0*
X49785999Y-168094999D03*
G04 #@! TO.P,F5,30,X1*
G04 #@! TO.N,/AF1*
X49785999Y-167294999D03*
G04 #@! TO.P,F5,31,X0*
G04 #@! TO.N,/AF0*
X49785999Y-166494999D03*
G04 #@! TO.P,F5,32*
G04 #@! TO.N,N/C*
X49785999Y-165694999D03*
G04 #@! TO.P,F5,33,Y0*
G04 #@! TO.N,FL*
X49785999Y-164894999D03*
D30*
G04 #@! TO.P,F5,34,CS/CLK*
G04 #@! TO.N,CLK*
X51485999Y-163194999D03*
G04 #@! TO.P,F5,35,Y1*
G04 #@! TO.N,40*
X52285999Y-163194999D03*
G04 #@! TO.P,F5,36,DATA*
G04 #@! TO.N,DATA*
X53085999Y-163194999D03*
G04 #@! TO.P,F5,37,Y2*
G04 #@! TO.N,41*
X53885999Y-163194999D03*
G04 #@! TO.P,F5,38,VDD*
G04 #@! TO.N,+9V*
X54685999Y-163194999D03*
G04 #@! TO.P,F5,39,Y3*
G04 #@! TO.N,42*
X55485999Y-163194999D03*
G04 #@! TO.P,F5,40,AY2*
G04 #@! TO.N,GND*
X56285999Y-163194999D03*
G04 #@! TO.P,F5,41,RST*
G04 #@! TO.N,RESET*
X57085999Y-163194999D03*
G04 #@! TO.P,F5,42,AX3*
G04 #@! TO.N,GND*
X57885999Y-163194999D03*
G04 #@! TO.P,F5,43,AX0*
X58685999Y-163194999D03*
G04 #@! TO.P,F5,44*
G04 #@! TO.N,N/C*
X59485999Y-163194999D03*
G04 #@! TD*
D22*
G04 #@! TO.P,R4,1*
G04 #@! TO.N,CURR_SENSE_DAC+*
X87554000Y-179451000D03*
G04 #@! TO.P,R4,2*
G04 #@! TO.N,Net-(R20-Pad1)*
X87554000Y-181276000D03*
G04 #@! TD*
G04 #@! TO.P,R21,1*
G04 #@! TO.N,Net-(R1-Pad2)*
X64850000Y-183237500D03*
G04 #@! TO.P,R21,2*
G04 #@! TO.N,CURR_SENSE-*
X64850000Y-185062500D03*
G04 #@! TD*
D27*
G04 #@! TO.P,R13,1*
G04 #@! TO.N,Net-(R13-Pad1)*
X46914000Y-138366000D03*
G04 #@! TO.P,R13,2*
G04 #@! TO.N,+5V*
X46914000Y-136716000D03*
G04 #@! TD*
G04 #@! TO.P,R11,1*
G04 #@! TO.N,ADC_BUFFERED_5V_2*
X42342000Y-135191000D03*
G04 #@! TO.P,R11,2*
G04 #@! TO.N,GND*
X42342000Y-133541000D03*
G04 #@! TD*
D31*
G04 #@! TO.P,C10,1*
G04 #@! TO.N,+1V1*
X112192000Y-120114000D03*
G04 #@! TO.P,C10,2*
G04 #@! TO.N,GND*
X112192000Y-119154000D03*
G04 #@! TD*
D32*
G04 #@! TO.P,U5,1,VOUT*
G04 #@! TO.N,DAC_1_OUT*
X49642000Y-130556000D03*
G04 #@! TO.P,U5,2,VSS*
G04 #@! TO.N,GND*
X48692000Y-130556000D03*
G04 #@! TO.P,U5,3,VDD*
G04 #@! TO.N,+5V*
X47742000Y-130556000D03*
G04 #@! TO.P,U5,4,SDA*
G04 #@! TO.N,I2C_SDA*
X47742000Y-128281000D03*
G04 #@! TO.P,U5,5,SCL*
G04 #@! TO.N,I2C_SCL*
X48692000Y-128281000D03*
G04 #@! TO.P,U5,6,A0*
G04 #@! TO.N,+5V*
X49642000Y-128281000D03*
G04 #@! TD*
D24*
G04 #@! TO.P,TP4,1,1*
G04 #@! TO.N,GPIO_19*
X116129000Y-131064000D03*
G04 #@! TD*
D33*
G04 #@! TO.P,C14,1*
G04 #@! TO.N,Net-(C14-Pad1)*
X112756000Y-116332000D03*
G04 #@! TO.P,C14,2*
G04 #@! TO.N,GND*
X113716000Y-116332000D03*
G04 #@! TD*
D29*
G04 #@! TO.P,I1,1,X14*
G04 #@! TO.N,+3V3*
X74823999Y-147091599D03*
G04 #@! TO.P,I1,2,X15*
G04 #@! TO.N,GND*
X74823999Y-147891599D03*
G04 #@! TO.P,I1,3,X6*
G04 #@! TO.N,A6*
X74823999Y-148691599D03*
G04 #@! TO.P,I1,4,X7*
G04 #@! TO.N,D7*
X74823999Y-149491599D03*
G04 #@! TO.P,I1,5,X8*
G04 #@! TO.N,D11*
X74823999Y-150291599D03*
G04 #@! TO.P,I1,6,X9*
G04 #@! TO.N,D9*
X74823999Y-151091599D03*
G04 #@! TO.P,I1,7,X10*
G04 #@! TO.N,D13*
X74823999Y-151891599D03*
G04 #@! TO.P,I1,8,X11*
G04 #@! TO.N,NANO_~{RESET}*
X74823999Y-152691599D03*
G04 #@! TO.P,I1,9*
G04 #@! TO.N,N/C*
X74823999Y-153491599D03*
G04 #@! TO.P,I1,10,P/_S*
G04 #@! TO.N,GND*
X74823999Y-154291599D03*
G04 #@! TO.P,I1,11,Y7*
G04 #@! TO.N,HI*
X74823999Y-155091599D03*
D30*
G04 #@! TO.P,I1,12,VSS*
G04 #@! TO.N,GND*
X73123999Y-156791599D03*
G04 #@! TO.P,I1,13,Y6*
G04 #@! TO.N,GI*
X72323999Y-156791599D03*
G04 #@! TO.P,I1,14,STB*
G04 #@! TO.N,CS_I*
X71523999Y-156791599D03*
G04 #@! TO.P,I1,15,Y5*
G04 #@! TO.N,FI*
X70723999Y-156791599D03*
G04 #@! TO.P,I1,16,VEE*
G04 #@! TO.N,-9V*
X69923999Y-156791599D03*
G04 #@! TO.P,I1,17,Y4*
G04 #@! TO.N,EI*
X69123999Y-156791599D03*
G04 #@! TO.P,I1,18,AX1*
G04 #@! TO.N,GND*
X68323999Y-156791599D03*
G04 #@! TO.P,I1,19,AX2*
X67523999Y-156791599D03*
G04 #@! TO.P,I1,20,AY0*
X66723999Y-156791599D03*
G04 #@! TO.P,I1,21,AY1*
X65923999Y-156791599D03*
G04 #@! TO.P,I1,22*
G04 #@! TO.N,N/C*
X65123999Y-156791599D03*
D29*
G04 #@! TO.P,I1,23*
X63423999Y-155091599D03*
G04 #@! TO.P,I1,24,X13*
G04 #@! TO.N,ADC_UNBUFFERED_5V_0*
X63423999Y-154291599D03*
G04 #@! TO.P,I1,25,X12*
G04 #@! TO.N,CURR_SENSE_DAC-*
X63423999Y-153491599D03*
G04 #@! TO.P,I1,26,X5*
G04 #@! TO.N,D5*
X63423999Y-152691599D03*
G04 #@! TO.P,I1,27,X4*
G04 #@! TO.N,A4*
X63423999Y-151891599D03*
G04 #@! TO.P,I1,28,X3*
G04 #@! TO.N,D3*
X63423999Y-151091599D03*
G04 #@! TO.P,I1,29,X2*
G04 #@! TO.N,A2*
X63423999Y-150291599D03*
G04 #@! TO.P,I1,30,X1*
G04 #@! TO.N,D1*
X63423999Y-149491599D03*
G04 #@! TO.P,I1,31,X0*
G04 #@! TO.N,A0*
X63423999Y-148691599D03*
G04 #@! TO.P,I1,32*
G04 #@! TO.N,N/C*
X63423999Y-147891599D03*
G04 #@! TO.P,I1,33,Y0*
G04 #@! TO.N,AI*
X63423999Y-147091599D03*
D30*
G04 #@! TO.P,I1,34,CS/CLK*
G04 #@! TO.N,CLK*
X65123999Y-145391599D03*
G04 #@! TO.P,I1,35,Y1*
G04 #@! TO.N,BI*
X65923999Y-145391599D03*
G04 #@! TO.P,I1,36,DATA*
G04 #@! TO.N,DATA*
X66723999Y-145391599D03*
G04 #@! TO.P,I1,37,Y2*
G04 #@! TO.N,CI*
X67523999Y-145391599D03*
G04 #@! TO.P,I1,38,VDD*
G04 #@! TO.N,+9V*
X68323999Y-145391599D03*
G04 #@! TO.P,I1,39,Y3*
G04 #@! TO.N,DI*
X69123999Y-145391599D03*
G04 #@! TO.P,I1,40,AY2*
G04 #@! TO.N,GND*
X69923999Y-145391599D03*
G04 #@! TO.P,I1,41,RST*
G04 #@! TO.N,RESET*
X70723999Y-145391599D03*
G04 #@! TO.P,I1,42,AX3*
G04 #@! TO.N,GND*
X71523999Y-145391599D03*
G04 #@! TO.P,I1,43,AX0*
X72323999Y-145391599D03*
G04 #@! TO.P,I1,44*
G04 #@! TO.N,N/C*
X73123999Y-145391599D03*
G04 #@! TD*
D26*
G04 #@! TO.P,TP15,1,1*
G04 #@! TO.N,Net-(D90-DOUT)*
X116256000Y-141732000D03*
G04 #@! TD*
D22*
G04 #@! TO.P,R1,1*
G04 #@! TO.N,CURR_SENSE+*
X64821000Y-179554500D03*
G04 #@! TO.P,R1,2*
G04 #@! TO.N,Net-(R1-Pad2)*
X64821000Y-181379500D03*
G04 #@! TD*
D34*
G04 #@! TO.P,R17,1*
G04 #@! TO.N,Net-(U7B--)*
X46914000Y-133541000D03*
G04 #@! TO.P,R17,2*
G04 #@! TO.N,ADC_BUFFERED_+-8V_3*
X46914000Y-135191000D03*
G04 #@! TD*
D35*
G04 #@! TO.P,JP12,1,A*
G04 #@! TO.N,Net-(JP12-A)*
X39055000Y-118110000D03*
D36*
G04 #@! TO.P,JP12,2,B*
G04 #@! TO.N,-8V*
X37755000Y-118110000D03*
G04 #@! TD*
D37*
G04 #@! TO.P,SW1,1,1*
G04 #@! TO.N,GND*
X113578488Y-112821682D03*
X109123716Y-108366910D03*
G04 #@! TO.P,SW1,2,2*
G04 #@! TO.N,/~{USB_BOOT}*
X110891482Y-115508688D03*
X106436710Y-111053916D03*
G04 #@! TD*
D27*
G04 #@! TO.P,R7,1*
G04 #@! TO.N,ADC_BUFFERED_5V_0*
X43866000Y-135191000D03*
G04 #@! TO.P,R7,2*
G04 #@! TO.N,GND*
X43866000Y-133541000D03*
G04 #@! TD*
D29*
G04 #@! TO.P,D70,1,X14*
G04 #@! TO.N,/DH0*
X115795999Y-147089599D03*
G04 #@! TO.P,D70,2,X15*
G04 #@! TO.N,DK*
X115795999Y-147889599D03*
G04 #@! TO.P,D70,3,X6*
G04 #@! TO.N,DI*
X115795999Y-148689599D03*
G04 #@! TO.P,D70,4,X7*
G04 #@! TO.N,DJ*
X115795999Y-149489599D03*
G04 #@! TO.P,D70,5,X8*
G04 #@! TO.N,/DE0*
X115795999Y-150289599D03*
G04 #@! TO.P,D70,6,X9*
G04 #@! TO.N,/DE1*
X115795999Y-151089599D03*
G04 #@! TO.P,D70,7,X10*
G04 #@! TO.N,/DF0*
X115795999Y-151889599D03*
G04 #@! TO.P,D70,8,X11*
G04 #@! TO.N,/DF1*
X115795999Y-152689599D03*
G04 #@! TO.P,D70,9*
G04 #@! TO.N,N/C*
X115795999Y-153489599D03*
G04 #@! TO.P,D70,10,P/_S*
G04 #@! TO.N,GND*
X115795999Y-154289599D03*
G04 #@! TO.P,D70,11,Y7*
G04 #@! TO.N,29*
X115795999Y-155089599D03*
D30*
G04 #@! TO.P,D70,12,VSS*
G04 #@! TO.N,GND*
X114095999Y-156789599D03*
G04 #@! TO.P,D70,13,Y6*
G04 #@! TO.N,28*
X113295999Y-156789599D03*
G04 #@! TO.P,D70,14,STB*
G04 #@! TO.N,CS_D*
X112495999Y-156789599D03*
G04 #@! TO.P,D70,15,Y5*
G04 #@! TO.N,27*
X111695999Y-156789599D03*
G04 #@! TO.P,D70,16,VEE*
G04 #@! TO.N,-9V*
X110895999Y-156789599D03*
G04 #@! TO.P,D70,17,Y4*
G04 #@! TO.N,26*
X110095999Y-156789599D03*
G04 #@! TO.P,D70,18,AX1*
G04 #@! TO.N,GND*
X109295999Y-156789599D03*
G04 #@! TO.P,D70,19,AX2*
X108495999Y-156789599D03*
G04 #@! TO.P,D70,20,AY0*
X107695999Y-156789599D03*
G04 #@! TO.P,D70,21,AY1*
X106895999Y-156789599D03*
G04 #@! TO.P,D70,22*
G04 #@! TO.N,N/C*
X106095999Y-156789599D03*
D29*
G04 #@! TO.P,D70,23*
X104395999Y-155089599D03*
G04 #@! TO.P,D70,24,X13*
G04 #@! TO.N,/DG1*
X104395999Y-154289599D03*
G04 #@! TO.P,D70,25,X12*
G04 #@! TO.N,/DG0*
X104395999Y-153489599D03*
G04 #@! TO.P,D70,26,X5*
G04 #@! TO.N,/CD1*
X104395999Y-152689599D03*
G04 #@! TO.P,D70,27,X4*
G04 #@! TO.N,/CD0*
X104395999Y-151889599D03*
G04 #@! TO.P,D70,28,X3*
G04 #@! TO.N,/BD1*
X104395999Y-151089599D03*
G04 #@! TO.P,D70,29,X2*
G04 #@! TO.N,/BD0*
X104395999Y-150289599D03*
G04 #@! TO.P,D70,30,X1*
G04 #@! TO.N,/AD1*
X104395999Y-149489599D03*
G04 #@! TO.P,D70,31,X0*
G04 #@! TO.N,/AD0*
X104395999Y-148689599D03*
G04 #@! TO.P,D70,32*
G04 #@! TO.N,N/C*
X104395999Y-147889599D03*
G04 #@! TO.P,D70,33,Y0*
G04 #@! TO.N,DL*
X104395999Y-147089599D03*
D30*
G04 #@! TO.P,D70,34,CS/CLK*
G04 #@! TO.N,CLK*
X106095999Y-145389599D03*
G04 #@! TO.P,D70,35,Y1*
G04 #@! TO.N,23*
X106895999Y-145389599D03*
G04 #@! TO.P,D70,36,DATA*
G04 #@! TO.N,DATA*
X107695999Y-145389599D03*
G04 #@! TO.P,D70,37,Y2*
G04 #@! TO.N,24*
X108495999Y-145389599D03*
G04 #@! TO.P,D70,38,VDD*
G04 #@! TO.N,+9V*
X109295999Y-145389599D03*
G04 #@! TO.P,D70,39,Y3*
G04 #@! TO.N,25*
X110095999Y-145389599D03*
G04 #@! TO.P,D70,40,AY2*
G04 #@! TO.N,GND*
X110895999Y-145389599D03*
G04 #@! TO.P,D70,41,RST*
G04 #@! TO.N,RESET*
X111695999Y-145389599D03*
G04 #@! TO.P,D70,42,AX3*
G04 #@! TO.N,GND*
X112495999Y-145389599D03*
G04 #@! TO.P,D70,43,AX0*
X113295999Y-145389599D03*
G04 #@! TO.P,D70,44*
G04 #@! TO.N,N/C*
X114095999Y-145389599D03*
G04 #@! TD*
D26*
G04 #@! TO.P,TP8,1,1*
G04 #@! TO.N,DAC_+-8V*
X49200000Y-105672000D03*
G04 #@! TD*
G04 #@! TO.P,TP7,1,1*
G04 #@! TO.N,CURR_SENSE_DAC+*
X47930000Y-105672000D03*
G04 #@! TD*
D32*
G04 #@! TO.P,U3,1,VOUT*
G04 #@! TO.N,DAC_0_OUT*
X44628000Y-130556000D03*
G04 #@! TO.P,U3,2,VSS*
G04 #@! TO.N,GND*
X43678000Y-130556000D03*
G04 #@! TO.P,U3,3,VDD*
G04 #@! TO.N,+5V*
X42728000Y-130556000D03*
G04 #@! TO.P,U3,4,SDA*
G04 #@! TO.N,I2C_SDA*
X42728000Y-128281000D03*
G04 #@! TO.P,U3,5,SCL*
G04 #@! TO.N,I2C_SCL*
X43678000Y-128281000D03*
G04 #@! TO.P,U3,6,A0*
G04 #@! TO.N,GND*
X44628000Y-128281000D03*
G04 #@! TD*
D38*
G04 #@! TO.P,C8,1*
G04 #@! TO.N,+3V3*
X70917000Y-183555000D03*
G04 #@! TO.P,C8,2*
G04 #@! TO.N,GND*
X70917000Y-185105000D03*
G04 #@! TD*
D29*
G04 #@! TO.P,L1,1,X14*
G04 #@! TO.N,+5V*
X88427999Y-147091599D03*
G04 #@! TO.P,L1,2,X15*
G04 #@! TO.N,GND*
X88427999Y-147891599D03*
G04 #@! TO.P,L1,3,X6*
G04 #@! TO.N,DAC_+-8V*
X88427999Y-148691599D03*
G04 #@! TO.P,L1,4,X7*
G04 #@! TO.N,CURR_SENSE_DAC-*
X88427999Y-149491599D03*
G04 #@! TO.P,L1,5,X8*
G04 #@! TO.N,1*
X88427999Y-150291599D03*
G04 #@! TO.P,L1,6,X9*
G04 #@! TO.N,30*
X88427999Y-151091599D03*
G04 #@! TO.P,L1,7,X10*
G04 #@! TO.N,32*
X88427999Y-151891599D03*
G04 #@! TO.P,L1,8,X11*
G04 #@! TO.N,61*
X88427999Y-152691599D03*
G04 #@! TO.P,L1,9*
G04 #@! TO.N,N/C*
X88427999Y-153491599D03*
G04 #@! TO.P,L1,10,P/_S*
G04 #@! TO.N,GND*
X88427999Y-154291599D03*
G04 #@! TO.P,L1,11,Y7*
G04 #@! TO.N,HL*
X88427999Y-155091599D03*
D30*
G04 #@! TO.P,L1,12,VSS*
G04 #@! TO.N,GND*
X86727999Y-156791599D03*
G04 #@! TO.P,L1,13,Y6*
G04 #@! TO.N,GL*
X85927999Y-156791599D03*
G04 #@! TO.P,L1,14,STB*
G04 #@! TO.N,CS_L*
X85127999Y-156791599D03*
G04 #@! TO.P,L1,15,Y5*
G04 #@! TO.N,FL*
X84327999Y-156791599D03*
G04 #@! TO.P,L1,16,VEE*
G04 #@! TO.N,-9V*
X83527999Y-156791599D03*
G04 #@! TO.P,L1,17,Y4*
G04 #@! TO.N,EL*
X82727999Y-156791599D03*
G04 #@! TO.P,L1,18,AX1*
G04 #@! TO.N,GND*
X81927999Y-156791599D03*
G04 #@! TO.P,L1,19,AX2*
X81127999Y-156791599D03*
G04 #@! TO.P,L1,20,AY0*
X80327999Y-156791599D03*
G04 #@! TO.P,L1,21,AY1*
X79527999Y-156791599D03*
G04 #@! TO.P,L1,22*
G04 #@! TO.N,N/C*
X78727999Y-156791599D03*
D29*
G04 #@! TO.P,L1,23*
X77027999Y-155091599D03*
G04 #@! TO.P,L1,24,X13*
G04 #@! TO.N,A5*
X77027999Y-154291599D03*
G04 #@! TO.P,L1,25,X12*
G04 #@! TO.N,A4*
X77027999Y-153491599D03*
G04 #@! TO.P,L1,26,X5*
G04 #@! TO.N,ADC_UNBUFFERED_+-8V_3*
X77027999Y-152691599D03*
G04 #@! TO.P,L1,27,X4*
G04 #@! TO.N,ADC_UNBUFFERED_5V_2*
X77027999Y-151891599D03*
G04 #@! TO.P,L1,28,X3*
G04 #@! TO.N,ADC_UNBUFFERED_5V_1*
X77027999Y-151091599D03*
G04 #@! TO.P,L1,29,X2*
G04 #@! TO.N,ADC_UNBUFFERED_5V_0*
X77027999Y-150291599D03*
G04 #@! TO.P,L1,30,X1*
G04 #@! TO.N,CURR_SENSE+*
X77027999Y-149491599D03*
G04 #@! TO.P,L1,31,X0*
G04 #@! TO.N,CURR_SENSE-*
X77027999Y-148691599D03*
G04 #@! TO.P,L1,32*
G04 #@! TO.N,N/C*
X77027999Y-147891599D03*
G04 #@! TO.P,L1,33,Y0*
G04 #@! TO.N,AL*
X77027999Y-147091599D03*
D30*
G04 #@! TO.P,L1,34,CS/CLK*
G04 #@! TO.N,CLK*
X78727999Y-145391599D03*
G04 #@! TO.P,L1,35,Y1*
G04 #@! TO.N,BL*
X79527999Y-145391599D03*
G04 #@! TO.P,L1,36,DATA*
G04 #@! TO.N,DATA*
X80327999Y-145391599D03*
G04 #@! TO.P,L1,37,Y2*
G04 #@! TO.N,CL*
X81127999Y-145391599D03*
G04 #@! TO.P,L1,38,VDD*
G04 #@! TO.N,+9V*
X81927999Y-145391599D03*
G04 #@! TO.P,L1,39,Y3*
G04 #@! TO.N,DL*
X82727999Y-145391599D03*
G04 #@! TO.P,L1,40,AY2*
G04 #@! TO.N,GND*
X83527999Y-145391599D03*
G04 #@! TO.P,L1,41,RST*
G04 #@! TO.N,RESET*
X84327999Y-145391599D03*
G04 #@! TO.P,L1,42,AX3*
G04 #@! TO.N,GND*
X85127999Y-145391599D03*
G04 #@! TO.P,L1,43,AX0*
X85927999Y-145391599D03*
G04 #@! TO.P,L1,44*
G04 #@! TO.N,N/C*
X86727999Y-145391599D03*
G04 #@! TD*
D21*
G04 #@! TO.P,C21,1*
G04 #@! TO.N,+3V3*
X107874000Y-133886000D03*
G04 #@! TO.P,C21,2*
G04 #@! TO.N,GND*
X107874000Y-134846000D03*
G04 #@! TD*
D28*
G04 #@! TO.P,D68,1,K*
G04 #@! TO.N,GND*
X64439999Y-119970999D03*
G04 #@! TO.P,D68,2,A*
G04 #@! TO.N,Net-(D65-A)*
X64439999Y-122070999D03*
G04 #@! TD*
D39*
G04 #@! TO.P,C23,1*
G04 #@! TO.N,GND*
X49962000Y-135141000D03*
G04 #@! TO.P,C23,2*
G04 #@! TO.N,TOP_RAIL*
X49962000Y-133591000D03*
G04 #@! TD*
D40*
G04 #@! TO.P,Y1,1,1*
G04 #@! TO.N,/XIN*
X114096999Y-121538999D03*
G04 #@! TO.P,Y1,2,2*
G04 #@! TO.N,GND*
X114096999Y-119338999D03*
G04 #@! TO.P,Y1,3,3*
G04 #@! TO.N,Net-(C14-Pad1)*
X115796999Y-119338999D03*
G04 #@! TO.P,Y1,4,4*
G04 #@! TO.N,GND*
X115796999Y-121538999D03*
G04 #@! TD*
D35*
G04 #@! TO.P,JP1,1,A*
G04 #@! TO.N,+3V3*
X72075000Y-131445000D03*
D36*
G04 #@! TO.P,JP1,2,B*
G04 #@! TO.N,NANO_3V3*
X70775000Y-131445000D03*
G04 #@! TD*
D41*
G04 #@! TO.P,U7,1*
G04 #@! TO.N,Net-(U7A--)*
X57328000Y-132080000D03*
G04 #@! TO.P,U7,2,-*
X58598000Y-132080000D03*
G04 #@! TO.P,U7,3,+*
G04 #@! TO.N,ADC_UNBUFFERED_5V_0*
X59868000Y-132080000D03*
G04 #@! TO.P,U7,4,V+*
G04 #@! TO.N,+8V*
X61138000Y-132080000D03*
G04 #@! TO.P,U7,5,+*
G04 #@! TO.N,ADC_UNBUFFERED_+-8V_3*
X62408000Y-132080000D03*
G04 #@! TO.P,U7,6,-*
G04 #@! TO.N,Net-(U7B--)*
X63678000Y-132080000D03*
G04 #@! TO.P,U7,7*
X64948000Y-132080000D03*
G04 #@! TO.P,U7,8*
G04 #@! TO.N,Net-(U7C--)*
X64948000Y-137030000D03*
G04 #@! TO.P,U7,9,-*
X63678000Y-137030000D03*
G04 #@! TO.P,U7,10,+*
G04 #@! TO.N,ADC_UNBUFFERED_5V_1*
X62408000Y-137030000D03*
G04 #@! TO.P,U7,11,V-*
G04 #@! TO.N,-8V*
X61138000Y-137030000D03*
G04 #@! TO.P,U7,12,+*
G04 #@! TO.N,ADC_UNBUFFERED_5V_2*
X59868000Y-137030000D03*
G04 #@! TO.P,U7,13,-*
G04 #@! TO.N,Net-(U7D--)*
X58598000Y-137030000D03*
G04 #@! TO.P,U7,14*
X57328000Y-137030000D03*
G04 #@! TD*
D28*
G04 #@! TO.P,D61,1,K*
G04 #@! TO.N,+9V*
X64439999Y-114890999D03*
G04 #@! TO.P,D61,2,A*
G04 #@! TO.N,Net-(D61-A)*
X64439999Y-116990999D03*
G04 #@! TD*
D41*
G04 #@! TO.P,U10,1,NC*
G04 #@! TO.N,unconnected-(U10A-NC-Pad1)*
X41072000Y-119764000D03*
G04 #@! TO.P,U10,2,NC*
G04 #@! TO.N,unconnected-(U10A-NC-Pad2)*
X42342000Y-119764000D03*
G04 #@! TO.P,U10,3*
G04 #@! TO.N,CURR_SENSE_DAC+*
X43612000Y-119764000D03*
G04 #@! TO.P,U10,4,V+*
G04 #@! TO.N,Net-(JP11-B)*
X44882000Y-119764000D03*
G04 #@! TO.P,U10,5*
G04 #@! TO.N,DAC_+-8V*
X46152000Y-119764000D03*
G04 #@! TO.P,U10,6,V-*
G04 #@! TO.N,Net-(JP12-A)*
X47422000Y-119764000D03*
G04 #@! TO.P,U10,7,NC*
G04 #@! TO.N,unconnected-(U10A-NC-Pad7)*
X48692000Y-119764000D03*
G04 #@! TO.P,U10,8,NC*
G04 #@! TO.N,unconnected-(U10A-NC-Pad8)*
X49962000Y-119764000D03*
G04 #@! TO.P,U10,9,NC*
G04 #@! TO.N,unconnected-(U10B-NC-Pad9)*
X49962000Y-124714000D03*
G04 #@! TO.P,U10,10,NC*
G04 #@! TO.N,unconnected-(U10B-NC-Pad10)*
X48692000Y-124714000D03*
G04 #@! TO.P,U10,11,-*
G04 #@! TO.N,Net-(U10B--)*
X47422000Y-124714000D03*
G04 #@! TO.P,U10,12,+*
G04 #@! TO.N,DAC_1_OUT*
X46152000Y-124714000D03*
G04 #@! TO.P,U10,13,+*
G04 #@! TO.N,DAC_0_OUT*
X44882000Y-124714000D03*
G04 #@! TO.P,U10,14,-*
G04 #@! TO.N,CURR_SENSE_DAC+*
X43612000Y-124714000D03*
G04 #@! TO.P,U10,15,NC*
G04 #@! TO.N,unconnected-(U10B-NC-Pad15)*
X42342000Y-124714000D03*
G04 #@! TO.P,U10,16,NC*
G04 #@! TO.N,unconnected-(U10B-NC-Pad16)*
X41072000Y-124714000D03*
G04 #@! TD*
D42*
G04 #@! TO.P,C9,1*
G04 #@! TO.N,+1V1*
X105306000Y-119126000D03*
G04 #@! TO.P,C9,2*
G04 #@! TO.N,GND*
X104346000Y-119126000D03*
G04 #@! TD*
D29*
G04 #@! TO.P,J6,1,X14*
G04 #@! TO.N,+5V*
X74775999Y-164894999D03*
G04 #@! TO.P,J6,2,X15*
G04 #@! TO.N,GND*
X74775999Y-165694999D03*
G04 #@! TO.P,J6,3,X6*
G04 #@! TO.N,D6*
X74775999Y-166494999D03*
G04 #@! TO.P,J6,4,X7*
G04 #@! TO.N,A7*
X74775999Y-167294999D03*
G04 #@! TO.P,J6,5,X8*
G04 #@! TO.N,D8*
X74775999Y-168094999D03*
G04 #@! TO.P,J6,6,X9*
G04 #@! TO.N,D10*
X74775999Y-168894999D03*
G04 #@! TO.P,J6,7,X10*
G04 #@! TO.N,D12*
X74775999Y-169694999D03*
G04 #@! TO.P,J6,8,X11*
G04 #@! TO.N,AREF*
X74775999Y-170494999D03*
G04 #@! TO.P,J6,9*
G04 #@! TO.N,N/C*
X74775999Y-171294999D03*
G04 #@! TO.P,J6,10,P/_S*
G04 #@! TO.N,GND*
X74775999Y-172094999D03*
G04 #@! TO.P,J6,11,Y7*
G04 #@! TO.N,HJ*
X74775999Y-172894999D03*
D30*
G04 #@! TO.P,J6,12,VSS*
G04 #@! TO.N,GND*
X73075999Y-174594999D03*
G04 #@! TO.P,J6,13,Y6*
G04 #@! TO.N,GJ*
X72275999Y-174594999D03*
G04 #@! TO.P,J6,14,STB*
G04 #@! TO.N,CS_J*
X71475999Y-174594999D03*
G04 #@! TO.P,J6,15,Y5*
G04 #@! TO.N,FJ*
X70675999Y-174594999D03*
G04 #@! TO.P,J6,16,VEE*
G04 #@! TO.N,-9V*
X69875999Y-174594999D03*
G04 #@! TO.P,J6,17,Y4*
G04 #@! TO.N,EJ*
X69075999Y-174594999D03*
G04 #@! TO.P,J6,18,AX1*
G04 #@! TO.N,GND*
X68275999Y-174594999D03*
G04 #@! TO.P,J6,19,AX2*
X67475999Y-174594999D03*
G04 #@! TO.P,J6,20,AY0*
X66675999Y-174594999D03*
G04 #@! TO.P,J6,21,AY1*
X65875999Y-174594999D03*
G04 #@! TO.P,J6,22*
G04 #@! TO.N,N/C*
X65075999Y-174594999D03*
D29*
G04 #@! TO.P,J6,23*
X63375999Y-172894999D03*
G04 #@! TO.P,J6,24,X13*
G04 #@! TO.N,ADC_UNBUFFERED_5V_1*
X63375999Y-172094999D03*
G04 #@! TO.P,J6,25,X12*
G04 #@! TO.N,DAC_+-8V*
X63375999Y-171294999D03*
G04 #@! TO.P,J6,26,X5*
G04 #@! TO.N,A5*
X63375999Y-170494999D03*
G04 #@! TO.P,J6,27,X4*
G04 #@! TO.N,D4*
X63375999Y-169694999D03*
G04 #@! TO.P,J6,28,X3*
G04 #@! TO.N,A3*
X63375999Y-168894999D03*
G04 #@! TO.P,J6,29,X2*
G04 #@! TO.N,D2*
X63375999Y-168094999D03*
G04 #@! TO.P,J6,30,X1*
G04 #@! TO.N,A1*
X63375999Y-167294999D03*
G04 #@! TO.P,J6,31,X0*
G04 #@! TO.N,D0*
X63375999Y-166494999D03*
G04 #@! TO.P,J6,32*
G04 #@! TO.N,N/C*
X63375999Y-165694999D03*
G04 #@! TO.P,J6,33,Y0*
G04 #@! TO.N,AJ*
X63375999Y-164894999D03*
D30*
G04 #@! TO.P,J6,34,CS/CLK*
G04 #@! TO.N,CLK*
X65075999Y-163194999D03*
G04 #@! TO.P,J6,35,Y1*
G04 #@! TO.N,BJ*
X65875999Y-163194999D03*
G04 #@! TO.P,J6,36,DATA*
G04 #@! TO.N,DATA*
X66675999Y-163194999D03*
G04 #@! TO.P,J6,37,Y2*
G04 #@! TO.N,CJ*
X67475999Y-163194999D03*
G04 #@! TO.P,J6,38,VDD*
G04 #@! TO.N,+9V*
X68275999Y-163194999D03*
G04 #@! TO.P,J6,39,Y3*
G04 #@! TO.N,DJ*
X69075999Y-163194999D03*
G04 #@! TO.P,J6,40,AY2*
G04 #@! TO.N,GND*
X69875999Y-163194999D03*
G04 #@! TO.P,J6,41,RST*
G04 #@! TO.N,RESET*
X70675999Y-163194999D03*
G04 #@! TO.P,J6,42,AX3*
G04 #@! TO.N,GND*
X71475999Y-163194999D03*
G04 #@! TO.P,J6,43,AX0*
X72275999Y-163194999D03*
G04 #@! TO.P,J6,44*
G04 #@! TO.N,N/C*
X73075999Y-163194999D03*
G04 #@! TD*
D27*
G04 #@! TO.P,R8,1*
G04 #@! TO.N,Net-(U7C--)*
X40818000Y-138366000D03*
G04 #@! TO.P,R8,2*
G04 #@! TO.N,ADC_BUFFERED_5V_1*
X40818000Y-136716000D03*
G04 #@! TD*
G04 #@! TO.P,R15,1*
G04 #@! TO.N,Net-(R13-Pad1)*
X48438000Y-138367000D03*
G04 #@! TO.P,R15,2*
G04 #@! TO.N,Net-(U10B--)*
X48438000Y-136717000D03*
G04 #@! TD*
D26*
G04 #@! TO.P,TP10,1,1*
G04 #@! TO.N,ADC_UNBUFFERED_5V_1*
X56820000Y-105664000D03*
G04 #@! TD*
D29*
G04 #@! TO.P,A2,1,X14*
G04 #@! TO.N,/AH0*
X47496399Y-147119599D03*
G04 #@! TO.P,A2,2,X15*
G04 #@! TO.N,/AH1*
X47496399Y-147919599D03*
G04 #@! TO.P,A2,3,X6*
G04 #@! TO.N,/AD0*
X47496399Y-148719599D03*
G04 #@! TO.P,A2,4,X7*
G04 #@! TO.N,/AD1*
X47496399Y-149519599D03*
G04 #@! TO.P,A2,5,X8*
G04 #@! TO.N,/AE0*
X47496399Y-150319599D03*
G04 #@! TO.P,A2,6,X9*
G04 #@! TO.N,AK*
X47496399Y-151119599D03*
G04 #@! TO.P,A2,7,X10*
G04 #@! TO.N,/AF0*
X47496399Y-151919599D03*
G04 #@! TO.P,A2,8,X11*
G04 #@! TO.N,/AF1*
X47496399Y-152719599D03*
G04 #@! TO.P,A2,9*
G04 #@! TO.N,N/C*
X47496399Y-153519599D03*
G04 #@! TO.P,A2,10,P/_S*
G04 #@! TO.N,GND*
X47496399Y-154319599D03*
G04 #@! TO.P,A2,11,Y7*
G04 #@! TO.N,8*
X47496399Y-155119599D03*
D30*
G04 #@! TO.P,A2,12,VSS*
G04 #@! TO.N,GND*
X45796399Y-156819599D03*
G04 #@! TO.P,A2,13,Y6*
G04 #@! TO.N,7*
X44996399Y-156819599D03*
G04 #@! TO.P,A2,14,STB*
G04 #@! TO.N,CS_A*
X44196399Y-156819599D03*
G04 #@! TO.P,A2,15,Y5*
G04 #@! TO.N,6*
X43396399Y-156819599D03*
G04 #@! TO.P,A2,16,VEE*
G04 #@! TO.N,-9V*
X42596399Y-156819599D03*
G04 #@! TO.P,A2,17,Y4*
G04 #@! TO.N,5*
X41796399Y-156819599D03*
G04 #@! TO.P,A2,18,AX1*
G04 #@! TO.N,GND*
X40996399Y-156819599D03*
G04 #@! TO.P,A2,19,AX2*
X40196399Y-156819599D03*
G04 #@! TO.P,A2,20,AY0*
X39396399Y-156819599D03*
G04 #@! TO.P,A2,21,AY1*
X38596399Y-156819599D03*
G04 #@! TO.P,A2,22*
G04 #@! TO.N,N/C*
X37796399Y-156819599D03*
D29*
G04 #@! TO.P,A2,23*
X36096399Y-155119599D03*
G04 #@! TO.P,A2,24,X13*
G04 #@! TO.N,/AG1*
X36096399Y-154319599D03*
G04 #@! TO.P,A2,25,X12*
G04 #@! TO.N,/AG0*
X36096399Y-153519599D03*
G04 #@! TO.P,A2,26,X5*
G04 #@! TO.N,/AC1*
X36096399Y-152719599D03*
G04 #@! TO.P,A2,27,X4*
G04 #@! TO.N,/AC0*
X36096399Y-151919599D03*
G04 #@! TO.P,A2,28,X3*
G04 #@! TO.N,/AB1*
X36096399Y-151119599D03*
G04 #@! TO.P,A2,29,X2*
G04 #@! TO.N,/AB0*
X36096399Y-150319599D03*
G04 #@! TO.P,A2,30,X1*
G04 #@! TO.N,AJ*
X36096399Y-149519599D03*
G04 #@! TO.P,A2,31,X0*
G04 #@! TO.N,AI*
X36096399Y-148719599D03*
G04 #@! TO.P,A2,32*
G04 #@! TO.N,N/C*
X36096399Y-147919599D03*
G04 #@! TO.P,A2,33,Y0*
G04 #@! TO.N,AL*
X36096399Y-147119599D03*
D30*
G04 #@! TO.P,A2,34,CS/CLK*
G04 #@! TO.N,CLK*
X37796399Y-145419599D03*
G04 #@! TO.P,A2,35,Y1*
G04 #@! TO.N,2*
X38596399Y-145419599D03*
G04 #@! TO.P,A2,36,DATA*
G04 #@! TO.N,DATA*
X39396399Y-145419599D03*
G04 #@! TO.P,A2,37,Y2*
G04 #@! TO.N,3*
X40196399Y-145419599D03*
G04 #@! TO.P,A2,38,VDD*
G04 #@! TO.N,+9V*
X40996399Y-145419599D03*
G04 #@! TO.P,A2,39,Y3*
G04 #@! TO.N,4*
X41796399Y-145419599D03*
G04 #@! TO.P,A2,40,AY2*
G04 #@! TO.N,GND*
X42596399Y-145419599D03*
G04 #@! TO.P,A2,41,RST*
G04 #@! TO.N,RESET*
X43396399Y-145419599D03*
G04 #@! TO.P,A2,42,AX3*
G04 #@! TO.N,GND*
X44196399Y-145419599D03*
G04 #@! TO.P,A2,43,AX0*
X44996399Y-145419599D03*
G04 #@! TO.P,A2,44*
G04 #@! TO.N,N/C*
X45796399Y-145419599D03*
G04 #@! TD*
D24*
G04 #@! TO.P,TP3,1,1*
G04 #@! TO.N,GPIO_18*
X116129000Y-129032000D03*
G04 #@! TD*
D25*
G04 #@! TO.P,C4,1*
G04 #@! TO.N,GND*
X82982000Y-120053500D03*
G04 #@! TO.P,C4,2*
G04 #@! TO.N,Net-(D65-K)*
X82982000Y-116928500D03*
G04 #@! TD*
D43*
G04 #@! TO.P,U8,1,~{CS}*
G04 #@! TO.N,/QSPI_SS*
X98730000Y-106890000D03*
G04 #@! TO.P,U8,2,DO(IO1)*
G04 #@! TO.N,/QSPI_SD1*
X100000000Y-106890000D03*
G04 #@! TO.P,U8,3,IO2*
G04 #@! TO.N,/QSPI_SD2*
X101270000Y-106890000D03*
G04 #@! TO.P,U8,4,GND*
G04 #@! TO.N,GND*
X102540000Y-106890000D03*
G04 #@! TO.P,U8,5,DI(IO0)*
G04 #@! TO.N,/QSPI_SD0*
X102540000Y-114090000D03*
G04 #@! TO.P,U8,6,CLK*
G04 #@! TO.N,/QSPI_SCLK*
X101270000Y-114090000D03*
G04 #@! TO.P,U8,7,IO3*
G04 #@! TO.N,/QSPI_SD3*
X100000000Y-114090000D03*
G04 #@! TO.P,U8,8,VCC*
G04 #@! TO.N,+3V3*
X98730000Y-114090000D03*
G04 #@! TD*
D31*
G04 #@! TO.P,C19,1*
G04 #@! TO.N,+3V3*
X98984000Y-127480000D03*
G04 #@! TO.P,C19,2*
G04 #@! TO.N,GND*
X98984000Y-126520000D03*
G04 #@! TD*
D29*
G04 #@! TO.P,G1,1,X14*
G04 #@! TO.N,/GH0*
X102105999Y-164894999D03*
G04 #@! TO.P,G1,2,X15*
G04 #@! TO.N,/GH1*
X102105999Y-165694999D03*
G04 #@! TO.P,G1,3,X6*
G04 #@! TO.N,/DG0*
X102105999Y-166494999D03*
G04 #@! TO.P,G1,4,X7*
G04 #@! TO.N,/DG1*
X102105999Y-167294999D03*
G04 #@! TO.P,G1,5,X8*
G04 #@! TO.N,/EG0*
X102105999Y-168094999D03*
G04 #@! TO.P,G1,6,X9*
G04 #@! TO.N,/EG1*
X102105999Y-168894999D03*
G04 #@! TO.P,G1,7,X10*
G04 #@! TO.N,/FG0*
X102105999Y-169694999D03*
G04 #@! TO.P,G1,8,X11*
G04 #@! TO.N,/FG1*
X102105999Y-170494999D03*
G04 #@! TO.P,G1,9*
G04 #@! TO.N,N/C*
X102105999Y-171294999D03*
G04 #@! TO.P,G1,10,P/_S*
G04 #@! TO.N,GND*
X102105999Y-172094999D03*
G04 #@! TO.P,G1,11,Y7*
G04 #@! TO.N,53*
X102105999Y-172894999D03*
D30*
G04 #@! TO.P,G1,12,VSS*
G04 #@! TO.N,GND*
X100405999Y-174594999D03*
G04 #@! TO.P,G1,13,Y6*
G04 #@! TO.N,52*
X99605999Y-174594999D03*
G04 #@! TO.P,G1,14,STB*
G04 #@! TO.N,CS_G*
X98805999Y-174594999D03*
G04 #@! TO.P,G1,15,Y5*
G04 #@! TO.N,51*
X98005999Y-174594999D03*
G04 #@! TO.P,G1,16,VEE*
G04 #@! TO.N,-9V*
X97205999Y-174594999D03*
G04 #@! TO.P,G1,17,Y4*
G04 #@! TO.N,50*
X96405999Y-174594999D03*
G04 #@! TO.P,G1,18,AX1*
G04 #@! TO.N,GND*
X95605999Y-174594999D03*
G04 #@! TO.P,G1,19,AX2*
X94805999Y-174594999D03*
G04 #@! TO.P,G1,20,AY0*
X94005999Y-174594999D03*
G04 #@! TO.P,G1,21,AY1*
X93205999Y-174594999D03*
G04 #@! TO.P,G1,22*
G04 #@! TO.N,N/C*
X92405999Y-174594999D03*
D29*
G04 #@! TO.P,G1,23*
X90705999Y-172894999D03*
G04 #@! TO.P,G1,24,X13*
G04 #@! TO.N,GJ*
X90705999Y-172094999D03*
G04 #@! TO.P,G1,25,X12*
G04 #@! TO.N,GI*
X90705999Y-171294999D03*
G04 #@! TO.P,G1,26,X5*
G04 #@! TO.N,GK*
X90705999Y-170494999D03*
G04 #@! TO.P,G1,27,X4*
G04 #@! TO.N,/CG0*
X90705999Y-169694999D03*
G04 #@! TO.P,G1,28,X3*
G04 #@! TO.N,/BG1*
X90705999Y-168894999D03*
G04 #@! TO.P,G1,29,X2*
G04 #@! TO.N,/BG0*
X90705999Y-168094999D03*
G04 #@! TO.P,G1,30,X1*
G04 #@! TO.N,/AG1*
X90705999Y-167294999D03*
G04 #@! TO.P,G1,31,X0*
G04 #@! TO.N,/AG0*
X90705999Y-166494999D03*
G04 #@! TO.P,G1,32*
G04 #@! TO.N,N/C*
X90705999Y-165694999D03*
G04 #@! TO.P,G1,33,Y0*
G04 #@! TO.N,GL*
X90705999Y-164894999D03*
D30*
G04 #@! TO.P,G1,34,CS/CLK*
G04 #@! TO.N,CLK*
X92405999Y-163194999D03*
G04 #@! TO.P,G1,35,Y1*
G04 #@! TO.N,47*
X93205999Y-163194999D03*
G04 #@! TO.P,G1,36,DATA*
G04 #@! TO.N,DATA*
X94005999Y-163194999D03*
G04 #@! TO.P,G1,37,Y2*
G04 #@! TO.N,48*
X94805999Y-163194999D03*
G04 #@! TO.P,G1,38,VDD*
G04 #@! TO.N,+9V*
X95605999Y-163194999D03*
G04 #@! TO.P,G1,39,Y3*
G04 #@! TO.N,49*
X96405999Y-163194999D03*
G04 #@! TO.P,G1,40,AY2*
G04 #@! TO.N,GND*
X97205999Y-163194999D03*
G04 #@! TO.P,G1,41,RST*
G04 #@! TO.N,RESET*
X98005999Y-163194999D03*
G04 #@! TO.P,G1,42,AX3*
G04 #@! TO.N,GND*
X98805999Y-163194999D03*
G04 #@! TO.P,G1,43,AX0*
X99605999Y-163194999D03*
G04 #@! TO.P,G1,44*
G04 #@! TO.N,N/C*
X100405999Y-163194999D03*
G04 #@! TD*
D44*
G04 #@! TO.P,R12,1*
G04 #@! TO.N,/XOUT*
X114855000Y-116332000D03*
G04 #@! TO.P,R12,2*
G04 #@! TO.N,Net-(C14-Pad1)*
X115875000Y-116332000D03*
G04 #@! TD*
D27*
G04 #@! TO.P,R9,1*
G04 #@! TO.N,ADC_BUFFERED_5V_1*
X40818000Y-135191000D03*
G04 #@! TO.P,R9,2*
G04 #@! TO.N,GND*
X40818000Y-133541000D03*
G04 #@! TD*
D38*
G04 #@! TO.P,C16,1*
G04 #@! TO.N,+9V*
X114478000Y-159232000D03*
G04 #@! TO.P,C16,2*
G04 #@! TO.N,GND*
X114478000Y-160782000D03*
G04 #@! TD*
D26*
G04 #@! TO.P,TP12,1,1*
G04 #@! TO.N,ADC_UNBUFFERED_+-8V_3*
X54280000Y-105664000D03*
G04 #@! TD*
D29*
G04 #@! TO.P,B1,1,X14*
G04 #@! TO.N,/BH0*
X61173599Y-147091599D03*
G04 #@! TO.P,B1,2,X15*
G04 #@! TO.N,/BH1*
X61173599Y-147891599D03*
G04 #@! TO.P,B1,3,X6*
G04 #@! TO.N,/BD0*
X61173599Y-148691599D03*
G04 #@! TO.P,B1,4,X7*
G04 #@! TO.N,/BD1*
X61173599Y-149491599D03*
G04 #@! TO.P,B1,5,X8*
G04 #@! TO.N,/BE0*
X61173599Y-150291599D03*
G04 #@! TO.P,B1,6,X9*
G04 #@! TO.N,/BE1*
X61173599Y-151091599D03*
G04 #@! TO.P,B1,7,X10*
G04 #@! TO.N,/BF0*
X61173599Y-151891599D03*
G04 #@! TO.P,B1,8,X11*
G04 #@! TO.N,BK*
X61173599Y-152691599D03*
G04 #@! TO.P,B1,9*
G04 #@! TO.N,N/C*
X61173599Y-153491599D03*
G04 #@! TO.P,B1,10,P/_S*
G04 #@! TO.N,GND*
X61173599Y-154291599D03*
G04 #@! TO.P,B1,11,Y7*
G04 #@! TO.N,15*
X61173599Y-155091599D03*
D30*
G04 #@! TO.P,B1,12,VSS*
G04 #@! TO.N,GND*
X59473599Y-156791599D03*
G04 #@! TO.P,B1,13,Y6*
G04 #@! TO.N,14*
X58673599Y-156791599D03*
G04 #@! TO.P,B1,14,STB*
G04 #@! TO.N,CS_B*
X57873599Y-156791599D03*
G04 #@! TO.P,B1,15,Y5*
G04 #@! TO.N,13*
X57073599Y-156791599D03*
G04 #@! TO.P,B1,16,VEE*
G04 #@! TO.N,-9V*
X56273599Y-156791599D03*
G04 #@! TO.P,B1,17,Y4*
G04 #@! TO.N,12*
X55473599Y-156791599D03*
G04 #@! TO.P,B1,18,AX1*
G04 #@! TO.N,GND*
X54673599Y-156791599D03*
G04 #@! TO.P,B1,19,AX2*
X53873599Y-156791599D03*
G04 #@! TO.P,B1,20,AY0*
X53073599Y-156791599D03*
G04 #@! TO.P,B1,21,AY1*
X52273599Y-156791599D03*
G04 #@! TO.P,B1,22*
G04 #@! TO.N,N/C*
X51473599Y-156791599D03*
D29*
G04 #@! TO.P,B1,23*
X49773599Y-155091599D03*
G04 #@! TO.P,B1,24,X13*
G04 #@! TO.N,/BG1*
X49773599Y-154291599D03*
G04 #@! TO.P,B1,25,X12*
G04 #@! TO.N,/BG0*
X49773599Y-153491599D03*
G04 #@! TO.P,B1,26,X5*
G04 #@! TO.N,/BC1*
X49773599Y-152691599D03*
G04 #@! TO.P,B1,27,X4*
G04 #@! TO.N,/BC0*
X49773599Y-151891599D03*
G04 #@! TO.P,B1,28,X3*
G04 #@! TO.N,BJ*
X49773599Y-151091599D03*
G04 #@! TO.P,B1,29,X2*
G04 #@! TO.N,BI*
X49773599Y-150291599D03*
G04 #@! TO.P,B1,30,X1*
G04 #@! TO.N,/AB1*
X49773599Y-149491599D03*
G04 #@! TO.P,B1,31,X0*
G04 #@! TO.N,/AB0*
X49773599Y-148691599D03*
G04 #@! TO.P,B1,32*
G04 #@! TO.N,N/C*
X49773599Y-147891599D03*
G04 #@! TO.P,B1,33,Y0*
G04 #@! TO.N,BL*
X49773599Y-147091599D03*
D30*
G04 #@! TO.P,B1,34,CS/CLK*
G04 #@! TO.N,CLK*
X51473599Y-145391599D03*
G04 #@! TO.P,B1,35,Y1*
G04 #@! TO.N,9*
X52273599Y-145391599D03*
G04 #@! TO.P,B1,36,DATA*
G04 #@! TO.N,DATA*
X53073599Y-145391599D03*
G04 #@! TO.P,B1,37,Y2*
G04 #@! TO.N,10*
X53873599Y-145391599D03*
G04 #@! TO.P,B1,38,VDD*
G04 #@! TO.N,+9V*
X54673599Y-145391599D03*
G04 #@! TO.P,B1,39,Y3*
G04 #@! TO.N,11*
X55473599Y-145391599D03*
G04 #@! TO.P,B1,40,AY2*
G04 #@! TO.N,GND*
X56273599Y-145391599D03*
G04 #@! TO.P,B1,41,RST*
G04 #@! TO.N,RESET*
X57073599Y-145391599D03*
G04 #@! TO.P,B1,42,AX3*
G04 #@! TO.N,GND*
X57873599Y-145391599D03*
G04 #@! TO.P,B1,43,AX0*
X58673599Y-145391599D03*
G04 #@! TO.P,B1,44*
G04 #@! TO.N,N/C*
X59473599Y-145391599D03*
G04 #@! TD*
D26*
G04 #@! TO.P,TP13,1,1*
G04 #@! TO.N,-8V*
X35880000Y-118110000D03*
G04 #@! TD*
D29*
G04 #@! TO.P,E1,1,X14*
G04 #@! TO.N,/EH0*
X47571999Y-164894999D03*
G04 #@! TO.P,E1,2,X15*
G04 #@! TO.N,/EH1*
X47571999Y-165694999D03*
G04 #@! TO.P,E1,3,X6*
G04 #@! TO.N,/DE0*
X47571999Y-166494999D03*
G04 #@! TO.P,E1,4,X7*
G04 #@! TO.N,/DE1*
X47571999Y-167294999D03*
G04 #@! TO.P,E1,5,X8*
G04 #@! TO.N,EI*
X47571999Y-168094999D03*
G04 #@! TO.P,E1,6,X9*
G04 #@! TO.N,EJ*
X47571999Y-168894999D03*
G04 #@! TO.P,E1,7,X10*
G04 #@! TO.N,/EF0*
X47571999Y-169694999D03*
G04 #@! TO.P,E1,8,X11*
G04 #@! TO.N,/EF1*
X47571999Y-170494999D03*
G04 #@! TO.P,E1,9*
G04 #@! TO.N,N/C*
X47571999Y-171294999D03*
G04 #@! TO.P,E1,10,P/_S*
G04 #@! TO.N,GND*
X47571999Y-172094999D03*
G04 #@! TO.P,E1,11,Y7*
G04 #@! TO.N,39*
X47571999Y-172894999D03*
D30*
G04 #@! TO.P,E1,12,VSS*
G04 #@! TO.N,GND*
X45871999Y-174594999D03*
G04 #@! TO.P,E1,13,Y6*
G04 #@! TO.N,38*
X45071999Y-174594999D03*
G04 #@! TO.P,E1,14,STB*
G04 #@! TO.N,CS_E*
X44271999Y-174594999D03*
G04 #@! TO.P,E1,15,Y5*
G04 #@! TO.N,37*
X43471999Y-174594999D03*
G04 #@! TO.P,E1,16,VEE*
G04 #@! TO.N,-9V*
X42671999Y-174594999D03*
G04 #@! TO.P,E1,17,Y4*
G04 #@! TO.N,36*
X41871999Y-174594999D03*
G04 #@! TO.P,E1,18,AX1*
G04 #@! TO.N,GND*
X41071999Y-174594999D03*
G04 #@! TO.P,E1,19,AX2*
X40271999Y-174594999D03*
G04 #@! TO.P,E1,20,AY0*
X39471999Y-174594999D03*
G04 #@! TO.P,E1,21,AY1*
X38671999Y-174594999D03*
G04 #@! TO.P,E1,22*
G04 #@! TO.N,N/C*
X37871999Y-174594999D03*
D29*
G04 #@! TO.P,E1,23*
X36171999Y-172894999D03*
G04 #@! TO.P,E1,24,X13*
G04 #@! TO.N,/EG1*
X36171999Y-172094999D03*
G04 #@! TO.P,E1,25,X12*
G04 #@! TO.N,/EG0*
X36171999Y-171294999D03*
G04 #@! TO.P,E1,26,X5*
G04 #@! TO.N,/CE1*
X36171999Y-170494999D03*
G04 #@! TO.P,E1,27,X4*
G04 #@! TO.N,/CE0*
X36171999Y-169694999D03*
G04 #@! TO.P,E1,28,X3*
G04 #@! TO.N,/BE1*
X36171999Y-168894999D03*
G04 #@! TO.P,E1,29,X2*
G04 #@! TO.N,/BE0*
X36171999Y-168094999D03*
G04 #@! TO.P,E1,30,X1*
G04 #@! TO.N,EK*
X36171999Y-167294999D03*
G04 #@! TO.P,E1,31,X0*
G04 #@! TO.N,/AE0*
X36171999Y-166494999D03*
G04 #@! TO.P,E1,32*
G04 #@! TO.N,N/C*
X36171999Y-165694999D03*
G04 #@! TO.P,E1,33,Y0*
G04 #@! TO.N,EL*
X36171999Y-164894999D03*
D30*
G04 #@! TO.P,E1,34,CS/CLK*
G04 #@! TO.N,CLK*
X37871999Y-163194999D03*
G04 #@! TO.P,E1,35,Y1*
G04 #@! TO.N,33*
X38671999Y-163194999D03*
G04 #@! TO.P,E1,36,DATA*
G04 #@! TO.N,DATA*
X39471999Y-163194999D03*
G04 #@! TO.P,E1,37,Y2*
G04 #@! TO.N,34*
X40271999Y-163194999D03*
G04 #@! TO.P,E1,38,VDD*
G04 #@! TO.N,+9V*
X41071999Y-163194999D03*
G04 #@! TO.P,E1,39,Y3*
G04 #@! TO.N,35*
X41871999Y-163194999D03*
G04 #@! TO.P,E1,40,AY2*
G04 #@! TO.N,GND*
X42671999Y-163194999D03*
G04 #@! TO.P,E1,41,RST*
G04 #@! TO.N,RESET*
X43471999Y-163194999D03*
G04 #@! TO.P,E1,42,AX3*
G04 #@! TO.N,GND*
X44271999Y-163194999D03*
G04 #@! TO.P,E1,43,AX0*
X45071999Y-163194999D03*
G04 #@! TO.P,E1,44*
G04 #@! TO.N,N/C*
X45871999Y-163194999D03*
G04 #@! TD*
D26*
G04 #@! TO.P,TP14,1,1*
G04 #@! TO.N,+8V*
X35865000Y-115570000D03*
G04 #@! TD*
G04 #@! TO.P,TP5,1,1*
G04 #@! TO.N,Net-(U1-FB{slash}SHDN)*
X76886000Y-119126000D03*
G04 #@! TD*
D28*
G04 #@! TO.P,D65,1,K*
G04 #@! TO.N,Net-(D65-K)*
X59359999Y-119970999D03*
G04 #@! TO.P,D65,2,A*
G04 #@! TO.N,Net-(D65-A)*
X59359999Y-122070999D03*
G04 #@! TD*
D45*
G04 #@! TO.P,JP2,1,A*
G04 #@! TO.N,+5V*
X78395000Y-131445000D03*
D46*
G04 #@! TO.P,JP2,2,B*
G04 #@! TO.N,NANO_5V*
X79695000Y-131445000D03*
G04 #@! TD*
D47*
G04 #@! TO.P,U6,1,A1*
G04 #@! TO.N,GND*
X95428000Y-180848000D03*
G04 #@! TO.P,U6,2,A0*
G04 #@! TO.N,+3V3*
X95428000Y-182118000D03*
G04 #@! TO.P,U6,3,SDA*
G04 #@! TO.N,I2C_SDA*
X95428000Y-183388000D03*
G04 #@! TO.P,U6,4,SCL*
G04 #@! TO.N,I2C_SCL*
X95428000Y-184658000D03*
G04 #@! TO.P,U6,5,VS*
G04 #@! TO.N,+3V3*
X90478000Y-184658000D03*
G04 #@! TO.P,U6,6,GND*
G04 #@! TO.N,GND*
X90478000Y-183388000D03*
G04 #@! TO.P,U6,7,IN-*
G04 #@! TO.N,CURR_SENSE_DAC-*
X90478000Y-182118000D03*
G04 #@! TO.P,U6,8,IN+*
G04 #@! TO.N,CURR_SENSE_DAC+*
X90478000Y-180848000D03*
G04 #@! TD*
D29*
G04 #@! TO.P,H1,1,X14*
G04 #@! TO.N,HI*
X115819599Y-164894999D03*
G04 #@! TO.P,H1,2,X15*
G04 #@! TO.N,HJ*
X115819599Y-165694999D03*
G04 #@! TO.P,H1,3,X6*
G04 #@! TO.N,/DH0*
X115819599Y-166494999D03*
G04 #@! TO.P,H1,4,X7*
G04 #@! TO.N,HK*
X115819599Y-167294999D03*
G04 #@! TO.P,H1,5,X8*
G04 #@! TO.N,/EH0*
X115819599Y-168094999D03*
G04 #@! TO.P,H1,6,X9*
G04 #@! TO.N,/EH1*
X115819599Y-168894999D03*
G04 #@! TO.P,H1,7,X10*
G04 #@! TO.N,/FH0*
X115819599Y-169694999D03*
G04 #@! TO.P,H1,8,X11*
G04 #@! TO.N,/FH1*
X115819599Y-170494999D03*
G04 #@! TO.P,H1,9*
G04 #@! TO.N,N/C*
X115819599Y-171294999D03*
G04 #@! TO.P,H1,10,P/_S*
G04 #@! TO.N,GND*
X115819599Y-172094999D03*
G04 #@! TO.P,H1,11,Y7*
G04 #@! TO.N,60*
X115819599Y-172894999D03*
D30*
G04 #@! TO.P,H1,12,VSS*
G04 #@! TO.N,GND*
X114119599Y-174594999D03*
G04 #@! TO.P,H1,13,Y6*
G04 #@! TO.N,59*
X113319599Y-174594999D03*
G04 #@! TO.P,H1,14,STB*
G04 #@! TO.N,CS_H*
X112519599Y-174594999D03*
G04 #@! TO.P,H1,15,Y5*
G04 #@! TO.N,58*
X111719599Y-174594999D03*
G04 #@! TO.P,H1,16,VEE*
G04 #@! TO.N,-9V*
X110919599Y-174594999D03*
G04 #@! TO.P,H1,17,Y4*
G04 #@! TO.N,57*
X110119599Y-174594999D03*
G04 #@! TO.P,H1,18,AX1*
G04 #@! TO.N,GND*
X109319599Y-174594999D03*
G04 #@! TO.P,H1,19,AX2*
X108519599Y-174594999D03*
G04 #@! TO.P,H1,20,AY0*
X107719599Y-174594999D03*
G04 #@! TO.P,H1,21,AY1*
X106919599Y-174594999D03*
G04 #@! TO.P,H1,22*
G04 #@! TO.N,N/C*
X106119599Y-174594999D03*
D29*
G04 #@! TO.P,H1,23*
X104419599Y-172894999D03*
G04 #@! TO.P,H1,24,X13*
G04 #@! TO.N,/GH1*
X104419599Y-172094999D03*
G04 #@! TO.P,H1,25,X12*
G04 #@! TO.N,/GH0*
X104419599Y-171294999D03*
G04 #@! TO.P,H1,26,X5*
G04 #@! TO.N,/CH1*
X104419599Y-170494999D03*
G04 #@! TO.P,H1,27,X4*
G04 #@! TO.N,/CH0*
X104419599Y-169694999D03*
G04 #@! TO.P,H1,28,X3*
G04 #@! TO.N,/BH1*
X104419599Y-168894999D03*
G04 #@! TO.P,H1,29,X2*
G04 #@! TO.N,/BH0*
X104419599Y-168094999D03*
G04 #@! TO.P,H1,30,X1*
G04 #@! TO.N,/AH1*
X104419599Y-167294999D03*
G04 #@! TO.P,H1,31,X0*
G04 #@! TO.N,/AH0*
X104419599Y-166494999D03*
G04 #@! TO.P,H1,32*
G04 #@! TO.N,N/C*
X104419599Y-165694999D03*
G04 #@! TO.P,H1,33,Y0*
G04 #@! TO.N,HL*
X104419599Y-164894999D03*
D30*
G04 #@! TO.P,H1,34,CS/CLK*
G04 #@! TO.N,CLK*
X106119599Y-163194999D03*
G04 #@! TO.P,H1,35,Y1*
G04 #@! TO.N,54*
X106919599Y-163194999D03*
G04 #@! TO.P,H1,36,DATA*
G04 #@! TO.N,DATA*
X107719599Y-163194999D03*
G04 #@! TO.P,H1,37,Y2*
G04 #@! TO.N,55*
X108519599Y-163194999D03*
G04 #@! TO.P,H1,38,VDD*
G04 #@! TO.N,+9V*
X109319599Y-163194999D03*
G04 #@! TO.P,H1,39,Y3*
G04 #@! TO.N,56*
X110119599Y-163194999D03*
G04 #@! TO.P,H1,40,AY2*
G04 #@! TO.N,GND*
X110919599Y-163194999D03*
G04 #@! TO.P,H1,41,RST*
G04 #@! TO.N,RESET*
X111719599Y-163194999D03*
G04 #@! TO.P,H1,42,AX3*
G04 #@! TO.N,GND*
X112519599Y-163194999D03*
G04 #@! TO.P,H1,43,AX0*
X113319599Y-163194999D03*
G04 #@! TO.P,H1,44*
G04 #@! TO.N,N/C*
X114119599Y-163194999D03*
G04 #@! TD*
D27*
G04 #@! TO.P,R14,1*
G04 #@! TO.N,+3V3*
X45390000Y-138366000D03*
G04 #@! TO.P,R14,2*
G04 #@! TO.N,ADC_BUFFERED_+-8V_3*
X45390000Y-136716000D03*
G04 #@! TD*
D31*
G04 #@! TO.P,C18,1*
G04 #@! TO.N,+3V3*
X112192000Y-122146000D03*
G04 #@! TO.P,C18,2*
G04 #@! TO.N,GND*
X112192000Y-121186000D03*
G04 #@! TD*
D44*
G04 #@! TO.P,R5,1*
G04 #@! TO.N,/QSPI_SS*
X114857000Y-117348000D03*
G04 #@! TO.P,R5,2*
G04 #@! TO.N,/~{USB_BOOT}*
X115877000Y-117348000D03*
G04 #@! TD*
D21*
G04 #@! TO.P,C11,1*
G04 #@! TO.N,+1V1*
X108890000Y-133886000D03*
G04 #@! TO.P,C11,2*
G04 #@! TO.N,GND*
X108890000Y-134846000D03*
G04 #@! TD*
D38*
G04 #@! TO.P,C7,1*
G04 #@! TO.N,+5V*
X70917000Y-179679000D03*
G04 #@! TO.P,C7,2*
G04 #@! TO.N,GND*
X70917000Y-181229000D03*
G04 #@! TD*
D27*
G04 #@! TO.P,R19,1*
G04 #@! TO.N,ADC_BUFFERED_+-8V_3*
X45390000Y-135191000D03*
G04 #@! TO.P,R19,2*
G04 #@! TO.N,GND*
X45390000Y-133541000D03*
G04 #@! TD*
D48*
G04 #@! TO.P,U2,1,GND*
G04 #@! TO.N,GND*
X73633999Y-184671999D03*
G04 #@! TO.P,U2,2,VO*
G04 #@! TO.N,+3V3*
X73633999Y-182371999D03*
D49*
X79933999Y-182371999D03*
D48*
G04 #@! TO.P,U2,3,VI*
G04 #@! TO.N,+5V*
X73633999Y-180071999D03*
G04 #@! TD*
D28*
G04 #@! TO.P,D67,1,K*
G04 #@! TO.N,Net-(D65-A)*
X61899999Y-122069999D03*
G04 #@! TO.P,D67,2,A*
G04 #@! TO.N,-9V*
X61899999Y-119969999D03*
G04 #@! TD*
D50*
G04 #@! TO.P,JP4,1,A*
G04 #@! TO.N,Net-(D63-K)*
X52756000Y-111872000D03*
D51*
G04 #@! TO.P,JP4,2,B*
G04 #@! TO.N,Net-(D64-K)*
X52756000Y-113172000D03*
G04 #@! TD*
D26*
G04 #@! TO.P,TP9,1,1*
G04 #@! TO.N,ADC_UNBUFFERED_5V_0*
X58090000Y-105664000D03*
G04 #@! TD*
D39*
G04 #@! TO.P,C22,1*
G04 #@! TO.N,GND*
X101270000Y-183655000D03*
G04 #@! TO.P,C22,2*
G04 #@! TO.N,BOTTOM_RAIL*
X101270000Y-182105000D03*
G04 #@! TD*
D26*
G04 #@! TO.P,TP11,1,1*
G04 #@! TO.N,ADC_UNBUFFERED_5V_2*
X55550000Y-105664000D03*
G04 #@! TD*
D28*
G04 #@! TO.P,D63,1,K*
G04 #@! TO.N,Net-(D63-K)*
X58597999Y-114900999D03*
G04 #@! TO.P,D63,2,A*
G04 #@! TO.N,+9V*
X58597999Y-117000999D03*
G04 #@! TD*
D45*
G04 #@! TO.P,JP11,1,A*
G04 #@! TO.N,+8V*
X37755000Y-115570000D03*
D46*
G04 #@! TO.P,JP11,2,B*
G04 #@! TO.N,Net-(JP11-B)*
X39055000Y-115570000D03*
G04 #@! TD*
D27*
G04 #@! TO.P,R10,1*
G04 #@! TO.N,Net-(U7D--)*
X42342000Y-138366000D03*
G04 #@! TO.P,R10,2*
G04 #@! TO.N,ADC_BUFFERED_5V_2*
X42342000Y-136716000D03*
G04 #@! TD*
D39*
G04 #@! TO.P,C15,1*
G04 #@! TO.N,+9V*
X35738000Y-160795000D03*
G04 #@! TO.P,C15,2*
G04 #@! TO.N,GND*
X35738000Y-159245000D03*
G04 #@! TD*
D28*
G04 #@! TO.P,D69,1,K*
G04 #@! TO.N,Net-(D66-A)*
X53517999Y-119853999D03*
G04 #@! TO.P,D69,2,A*
G04 #@! TO.N,Net-(D69-A)*
X53517999Y-121953999D03*
G04 #@! TD*
D27*
G04 #@! TO.P,R6,1*
G04 #@! TO.N,Net-(U7A--)*
X43866000Y-138366000D03*
G04 #@! TO.P,R6,2*
G04 #@! TO.N,ADC_BUFFERED_5V_0*
X43866000Y-136716000D03*
G04 #@! TD*
D50*
G04 #@! TO.P,JP8,1,A*
G04 #@! TO.N,Net-(D69-A)*
X52756000Y-115428000D03*
D51*
G04 #@! TO.P,JP8,2,B*
G04 #@! TO.N,Net-(D66-A)*
X52756000Y-116728000D03*
G04 #@! TD*
D23*
G04 #@! TO.P,F4,1*
G04 #@! TO.N,-8V*
X54534000Y-128487500D03*
G04 #@! TO.P,F4,2*
G04 #@! TO.N,Net-(D69-A)*
X54534000Y-125512500D03*
G04 #@! TD*
D29*
G04 #@! TO.P,C26,1,X14*
G04 #@! TO.N,/CH0*
X102128999Y-147089599D03*
G04 #@! TO.P,C26,2,X15*
G04 #@! TO.N,/CH1*
X102128999Y-147889599D03*
G04 #@! TO.P,C26,3,X6*
G04 #@! TO.N,/CD0*
X102128999Y-148689599D03*
G04 #@! TO.P,C26,4,X7*
G04 #@! TO.N,/CD1*
X102128999Y-149489599D03*
G04 #@! TO.P,C26,5,X8*
G04 #@! TO.N,/CE0*
X102128999Y-150289599D03*
G04 #@! TO.P,C26,6,X9*
G04 #@! TO.N,/CE1*
X102128999Y-151089599D03*
G04 #@! TO.P,C26,7,X10*
G04 #@! TO.N,/CF0*
X102128999Y-151889599D03*
G04 #@! TO.P,C26,8,X11*
G04 #@! TO.N,/CF1*
X102128999Y-152689599D03*
G04 #@! TO.P,C26,9*
G04 #@! TO.N,N/C*
X102128999Y-153489599D03*
G04 #@! TO.P,C26,10,P/_S*
G04 #@! TO.N,GND*
X102128999Y-154289599D03*
G04 #@! TO.P,C26,11,Y7*
G04 #@! TO.N,22*
X102128999Y-155089599D03*
D30*
G04 #@! TO.P,C26,12,VSS*
G04 #@! TO.N,GND*
X100428999Y-156789599D03*
G04 #@! TO.P,C26,13,Y6*
G04 #@! TO.N,21*
X99628999Y-156789599D03*
G04 #@! TO.P,C26,14,STB*
G04 #@! TO.N,CS_C*
X98828999Y-156789599D03*
G04 #@! TO.P,C26,15,Y5*
G04 #@! TO.N,20*
X98028999Y-156789599D03*
G04 #@! TO.P,C26,16,VEE*
G04 #@! TO.N,-9V*
X97228999Y-156789599D03*
G04 #@! TO.P,C26,17,Y4*
G04 #@! TO.N,19*
X96428999Y-156789599D03*
G04 #@! TO.P,C26,18,AX1*
G04 #@! TO.N,GND*
X95628999Y-156789599D03*
G04 #@! TO.P,C26,19,AX2*
X94828999Y-156789599D03*
G04 #@! TO.P,C26,20,AY0*
X94028999Y-156789599D03*
G04 #@! TO.P,C26,21,AY1*
X93228999Y-156789599D03*
G04 #@! TO.P,C26,22*
G04 #@! TO.N,N/C*
X92428999Y-156789599D03*
D29*
G04 #@! TO.P,C26,23*
X90728999Y-155089599D03*
G04 #@! TO.P,C26,24,X13*
G04 #@! TO.N,CK*
X90728999Y-154289599D03*
G04 #@! TO.P,C26,25,X12*
G04 #@! TO.N,/CG0*
X90728999Y-153489599D03*
G04 #@! TO.P,C26,26,X5*
G04 #@! TO.N,CJ*
X90728999Y-152689599D03*
G04 #@! TO.P,C26,27,X4*
G04 #@! TO.N,CI*
X90728999Y-151889599D03*
G04 #@! TO.P,C26,28,X3*
G04 #@! TO.N,/BC1*
X90728999Y-151089599D03*
G04 #@! TO.P,C26,29,X2*
G04 #@! TO.N,/BC0*
X90728999Y-150289599D03*
G04 #@! TO.P,C26,30,X1*
G04 #@! TO.N,/AC1*
X90728999Y-149489599D03*
G04 #@! TO.P,C26,31,X0*
G04 #@! TO.N,/AC0*
X90728999Y-148689599D03*
G04 #@! TO.P,C26,32*
G04 #@! TO.N,N/C*
X90728999Y-147889599D03*
G04 #@! TO.P,C26,33,Y0*
G04 #@! TO.N,CL*
X90728999Y-147089599D03*
D30*
G04 #@! TO.P,C26,34,CS/CLK*
G04 #@! TO.N,CLK*
X92428999Y-145389599D03*
G04 #@! TO.P,C26,35,Y1*
G04 #@! TO.N,16*
X93228999Y-145389599D03*
G04 #@! TO.P,C26,36,DATA*
G04 #@! TO.N,DATA*
X94028999Y-145389599D03*
G04 #@! TO.P,C26,37,Y2*
G04 #@! TO.N,17*
X94828999Y-145389599D03*
G04 #@! TO.P,C26,38,VDD*
G04 #@! TO.N,+9V*
X95628999Y-145389599D03*
G04 #@! TO.P,C26,39,Y3*
G04 #@! TO.N,18*
X96428999Y-145389599D03*
G04 #@! TO.P,C26,40,AY2*
G04 #@! TO.N,GND*
X97228999Y-145389599D03*
G04 #@! TO.P,C26,41,RST*
G04 #@! TO.N,RESET*
X98028999Y-145389599D03*
G04 #@! TO.P,C26,42,AX3*
G04 #@! TO.N,GND*
X98828999Y-145389599D03*
G04 #@! TO.P,C26,43,AX0*
X99628999Y-145389599D03*
G04 #@! TO.P,C26,44*
G04 #@! TO.N,N/C*
X100428999Y-145389599D03*
G04 #@! TD*
D33*
G04 #@! TO.P,C13,1*
G04 #@! TO.N,/XIN*
X112756000Y-117348000D03*
G04 #@! TO.P,C13,2*
G04 #@! TO.N,GND*
X113716000Y-117348000D03*
G04 #@! TD*
D38*
G04 #@! TO.P,C24,1*
G04 #@! TO.N,GND*
X116002000Y-159245000D03*
G04 #@! TO.P,C24,2*
G04 #@! TO.N,-9V*
X116002000Y-160795000D03*
G04 #@! TD*
D52*
G04 #@! TO.P,C1,1*
G04 #@! TO.N,+9V*
X85649000Y-116928500D03*
G04 #@! TO.P,C1,2*
G04 #@! TO.N,GND*
X85649000Y-120053500D03*
G04 #@! TD*
D28*
G04 #@! TO.P,D64,1,K*
G04 #@! TO.N,Net-(D64-K)*
X56057999Y-116999999D03*
G04 #@! TO.P,D64,2,A*
G04 #@! TO.N,Net-(D63-K)*
X56057999Y-114899999D03*
G04 #@! TD*
D29*
G04 #@! TO.P,K1,1,X14*
G04 #@! TO.N,D12*
X88465999Y-164894999D03*
G04 #@! TO.P,K1,2,X15*
G04 #@! TO.N,ADC_UNBUFFERED_5V_2*
X88465999Y-165694999D03*
G04 #@! TO.P,K1,3,X6*
G04 #@! TO.N,D4*
X88465999Y-166494999D03*
G04 #@! TO.P,K1,4,X7*
G04 #@! TO.N,D5*
X88465999Y-167294999D03*
G04 #@! TO.P,K1,5,X8*
G04 #@! TO.N,D6*
X88465999Y-168094999D03*
G04 #@! TO.P,K1,6,X9*
G04 #@! TO.N,D7*
X88465999Y-168894999D03*
G04 #@! TO.P,K1,7,X10*
G04 #@! TO.N,D8*
X88465999Y-169694999D03*
G04 #@! TO.P,K1,8,X11*
G04 #@! TO.N,D9*
X88465999Y-170494999D03*
G04 #@! TO.P,K1,9*
G04 #@! TO.N,N/C*
X88465999Y-171294999D03*
G04 #@! TO.P,K1,10,P/_S*
G04 #@! TO.N,GND*
X88465999Y-172094999D03*
G04 #@! TO.P,K1,11,Y7*
G04 #@! TO.N,HK*
X88465999Y-172894999D03*
D30*
G04 #@! TO.P,K1,12,VSS*
G04 #@! TO.N,GND*
X86765999Y-174594999D03*
G04 #@! TO.P,K1,13,Y6*
G04 #@! TO.N,GK*
X85965999Y-174594999D03*
G04 #@! TO.P,K1,14,STB*
G04 #@! TO.N,CS_K*
X85165999Y-174594999D03*
G04 #@! TO.P,K1,15,Y5*
G04 #@! TO.N,FK*
X84365999Y-174594999D03*
G04 #@! TO.P,K1,16,VEE*
G04 #@! TO.N,-9V*
X83565999Y-174594999D03*
G04 #@! TO.P,K1,17,Y4*
G04 #@! TO.N,EK*
X82765999Y-174594999D03*
G04 #@! TO.P,K1,18,AX1*
G04 #@! TO.N,GND*
X81965999Y-174594999D03*
G04 #@! TO.P,K1,19,AX2*
X81165999Y-174594999D03*
G04 #@! TO.P,K1,20,AY0*
X80365999Y-174594999D03*
G04 #@! TO.P,K1,21,AY1*
X79565999Y-174594999D03*
G04 #@! TO.P,K1,22*
G04 #@! TO.N,N/C*
X78765999Y-174594999D03*
D29*
G04 #@! TO.P,K1,23*
X77065999Y-172894999D03*
G04 #@! TO.P,K1,24,X13*
G04 #@! TO.N,D11*
X77065999Y-172094999D03*
G04 #@! TO.P,K1,25,X12*
G04 #@! TO.N,D10*
X77065999Y-171294999D03*
G04 #@! TO.P,K1,26,X5*
G04 #@! TO.N,D3*
X77065999Y-170494999D03*
G04 #@! TO.P,K1,27,X4*
G04 #@! TO.N,D2*
X77065999Y-169694999D03*
G04 #@! TO.P,K1,28,X3*
G04 #@! TO.N,A3*
X77065999Y-168894999D03*
G04 #@! TO.P,K1,29,X2*
G04 #@! TO.N,A2*
X77065999Y-168094999D03*
G04 #@! TO.P,K1,30,X1*
G04 #@! TO.N,A1*
X77065999Y-167294999D03*
G04 #@! TO.P,K1,31,X0*
G04 #@! TO.N,A0*
X77065999Y-166494999D03*
G04 #@! TO.P,K1,32*
G04 #@! TO.N,N/C*
X77065999Y-165694999D03*
G04 #@! TO.P,K1,33,Y0*
G04 #@! TO.N,AK*
X77065999Y-164894999D03*
D30*
G04 #@! TO.P,K1,34,CS/CLK*
G04 #@! TO.N,CLK*
X78765999Y-163194999D03*
G04 #@! TO.P,K1,35,Y1*
G04 #@! TO.N,BK*
X79565999Y-163194999D03*
G04 #@! TO.P,K1,36,DATA*
G04 #@! TO.N,DATA*
X80365999Y-163194999D03*
G04 #@! TO.P,K1,37,Y2*
G04 #@! TO.N,CK*
X81165999Y-163194999D03*
G04 #@! TO.P,K1,38,VDD*
G04 #@! TO.N,+9V*
X81965999Y-163194999D03*
G04 #@! TO.P,K1,39,Y3*
G04 #@! TO.N,DK*
X82765999Y-163194999D03*
G04 #@! TO.P,K1,40,AY2*
G04 #@! TO.N,GND*
X83565999Y-163194999D03*
G04 #@! TO.P,K1,41,RST*
G04 #@! TO.N,RESET*
X84365999Y-163194999D03*
G04 #@! TO.P,K1,42,AX3*
G04 #@! TO.N,GND*
X85165999Y-163194999D03*
G04 #@! TO.P,K1,43,AX0*
X85965999Y-163194999D03*
G04 #@! TO.P,K1,44*
G04 #@! TO.N,N/C*
X86765999Y-163194999D03*
G04 #@! TD*
D42*
G04 #@! TO.P,C20,1*
G04 #@! TO.N,+3V3*
X105306000Y-118110000D03*
G04 #@! TO.P,C20,2*
G04 #@! TO.N,GND*
X104346000Y-118110000D03*
G04 #@! TD*
D34*
G04 #@! TO.P,R18,1*
G04 #@! TO.N,GND*
X49962000Y-136716000D03*
G04 #@! TO.P,R18,2*
G04 #@! TO.N,Net-(R13-Pad1)*
X49962000Y-138366000D03*
G04 #@! TD*
D39*
G04 #@! TO.P,C25,1*
G04 #@! TO.N,GND*
X37262000Y-160795000D03*
G04 #@! TO.P,C25,2*
G04 #@! TO.N,-9V*
X37262000Y-159245000D03*
G04 #@! TD*
D47*
G04 #@! TO.P,U4,1,A1*
G04 #@! TO.N,GND*
X61262000Y-180721000D03*
G04 #@! TO.P,U4,2,A0*
X61262000Y-181991000D03*
G04 #@! TO.P,U4,3,SDA*
G04 #@! TO.N,I2C_SDA*
X61262000Y-183261000D03*
G04 #@! TO.P,U4,4,SCL*
G04 #@! TO.N,I2C_SCL*
X61262000Y-184531000D03*
G04 #@! TO.P,U4,5,VS*
G04 #@! TO.N,+3V3*
X56312000Y-184531000D03*
G04 #@! TO.P,U4,6,GND*
G04 #@! TO.N,GND*
X56312000Y-183261000D03*
G04 #@! TO.P,U4,7,IN-*
G04 #@! TO.N,CURR_SENSE-*
X56312000Y-181991000D03*
G04 #@! TO.P,U4,8,IN+*
G04 #@! TO.N,CURR_SENSE+*
X56312000Y-180721000D03*
G04 #@! TD*
M02*
