G04 #@! TF.GenerationSoftware,KiCad,Pcbnew,(7.0.0-rc1-358-g86c12d35b4)*
G04 #@! TF.CreationDate,2023-05-11T11:50:55-07:00*
G04 #@! TF.ProjectId,Jumperless2,4a756d70-6572-46c6-9573-73322e6b6963,rev?*
G04 #@! TF.SameCoordinates,Original*
G04 #@! TF.FileFunction,Copper,L3,Inr*
G04 #@! TF.FilePolarity,Positive*
%FSLAX46Y46*%
G04 Gerber Fmt 4.6, Leading zero omitted, Abs format (unit mm)*
G04 Created by KiCad (PCBNEW (7.0.0-rc1-358-g86c12d35b4)) date 2023-05-11 11:50:55*
%MOMM*%
%LPD*%
G01*
G04 APERTURE LIST*
G04 Aperture macros list*
%AMHorizOval*
0 Thick line with rounded ends*
0 $1 width*
0 $2 $3 position (X,Y) of the first rounded end (center of the circle)*
0 $4 $5 position (X,Y) of the second rounded end (center of the circle)*
0 Add line between two ends*
20,1,$1,$2,$3,$4,$5,0*
0 Add two circle primitives to create the rounded ends*
1,1,$1,$2,$3*
1,1,$1,$4,$5*%
%AMRotRect*
0 Rectangle, with rotation*
0 The origin of the aperture is its center*
0 $1 length*
0 $2 width*
0 $3 Rotation angle, in degrees counterclockwise*
0 Add horizontal line*
21,1,$1,$2,0,0,$3*%
G04 Aperture macros list end*
G04 #@! TA.AperFunction,ComponentPad*
%ADD10O,1.100000X1.400000*%
G04 #@! TD*
G04 #@! TA.AperFunction,ComponentPad*
%ADD11O,1.100000X1.000000*%
G04 #@! TD*
G04 #@! TA.AperFunction,ComponentPad*
%ADD12R,1.600000X1.600000*%
G04 #@! TD*
G04 #@! TA.AperFunction,ComponentPad*
%ADD13O,1.600000X1.600000*%
G04 #@! TD*
G04 #@! TA.AperFunction,ComponentPad*
%ADD14C,1.400000*%
G04 #@! TD*
G04 #@! TA.AperFunction,ComponentPad*
%ADD15RotRect,1.700000X1.700000X315.000000*%
G04 #@! TD*
G04 #@! TA.AperFunction,ComponentPad*
%ADD16HorizOval,1.700000X0.000000X0.000000X0.000000X0.000000X0*%
G04 #@! TD*
G04 #@! TA.AperFunction,ComponentPad*
%ADD17R,1.500000X1.500000*%
G04 #@! TD*
G04 #@! TA.AperFunction,ComponentPad*
%ADD18C,0.600000*%
G04 #@! TD*
G04 APERTURE END LIST*
D10*
G04 #@! TO.N,GND*
G04 #@! TO.C,J4*
X37769999Y-138417299D03*
X53009999Y-138417299D03*
X53009999Y-138417299D03*
X68249999Y-138417299D03*
X68249999Y-138417299D03*
X83489999Y-138417299D03*
X83489999Y-138417299D03*
X98729999Y-138417299D03*
X98729999Y-138417299D03*
X113969999Y-138417299D03*
D11*
G04 #@! TO.N,1*
X39039999Y-143497299D03*
X39039999Y-158737299D03*
X39039999Y-158737299D03*
G04 #@! TO.N,2*
X41579999Y-143497299D03*
X41579999Y-158737299D03*
G04 #@! TO.N,3*
X44119999Y-143497299D03*
X44119999Y-158737299D03*
G04 #@! TO.N,4*
X46659999Y-143497299D03*
X46659999Y-158737299D03*
G04 #@! TO.N,5*
X49199999Y-143497299D03*
X49199999Y-158737299D03*
G04 #@! TO.N,6*
X51739999Y-143497299D03*
X51739999Y-158737299D03*
G04 #@! TO.N,7*
X54279999Y-143497299D03*
X54279999Y-158737299D03*
G04 #@! TO.N,8*
X56819999Y-143497299D03*
X56819999Y-158737299D03*
G04 #@! TO.N,9*
X59359999Y-143497299D03*
X59359999Y-158737299D03*
G04 #@! TO.N,10*
X61899999Y-143497299D03*
X61899999Y-158737299D03*
G04 #@! TO.N,11*
X64439999Y-143497299D03*
X64439999Y-158737299D03*
G04 #@! TO.N,12*
X66979999Y-143497299D03*
X66979999Y-158737299D03*
G04 #@! TO.N,13*
X69519999Y-143497299D03*
X69519999Y-158737299D03*
G04 #@! TO.N,14*
X72059999Y-143497299D03*
X72059999Y-158737299D03*
G04 #@! TO.N,15*
X74599999Y-143497299D03*
X74599999Y-158737299D03*
G04 #@! TO.N,16*
X77139999Y-143497299D03*
X77139999Y-158737299D03*
G04 #@! TO.N,17*
X79679999Y-143497299D03*
X79679999Y-158737299D03*
G04 #@! TO.N,18*
X82219999Y-143497299D03*
X82219999Y-158737299D03*
G04 #@! TO.N,19*
X84759999Y-143497299D03*
X84759999Y-158737299D03*
G04 #@! TO.N,20*
X87299999Y-143497299D03*
X87299999Y-158737299D03*
G04 #@! TO.N,21*
X89839999Y-143497299D03*
X89839999Y-158737299D03*
G04 #@! TO.N,22*
X92379999Y-143497299D03*
X92379999Y-158737299D03*
G04 #@! TO.N,23*
X94919999Y-143497299D03*
X94919999Y-158737299D03*
G04 #@! TO.N,24*
X97459999Y-143497299D03*
X97459999Y-158737299D03*
G04 #@! TO.N,25*
X99999999Y-143497299D03*
X99999999Y-158737299D03*
G04 #@! TO.N,26*
X102539999Y-143497299D03*
X102539999Y-158737299D03*
G04 #@! TO.N,27*
X105079999Y-143497299D03*
X105079999Y-158737299D03*
G04 #@! TO.N,28*
X107619999Y-143497299D03*
X107619999Y-158737299D03*
G04 #@! TO.N,29*
X110159999Y-143497299D03*
X110159999Y-158737299D03*
G04 #@! TO.N,30*
X112699999Y-143497299D03*
X112699999Y-158737299D03*
D10*
G04 #@! TO.N,TOP_RAIL*
X37769999Y-135877299D03*
X53009999Y-135877299D03*
X53009999Y-135877299D03*
X68249999Y-135877299D03*
X68249999Y-135877299D03*
X83489999Y-135877299D03*
X83489999Y-135877299D03*
X98729999Y-135877299D03*
X98729999Y-135877299D03*
X113969999Y-135877299D03*
G04 #@! TO.N,GND*
X37769999Y-184149999D03*
X53009999Y-184137299D03*
X53009999Y-184137299D03*
X68249999Y-184137299D03*
X68249999Y-184137299D03*
X83489999Y-184137299D03*
X83489999Y-184137299D03*
X98729999Y-184137299D03*
X98729999Y-184137299D03*
X113969999Y-184137299D03*
D11*
G04 #@! TO.N,32*
X39039999Y-161277299D03*
X39039999Y-176517299D03*
G04 #@! TO.N,33*
X41579999Y-161277299D03*
X41579999Y-176517299D03*
G04 #@! TO.N,34*
X44119999Y-161277299D03*
X44119999Y-176517299D03*
G04 #@! TO.N,35*
X46659999Y-161277299D03*
X46659999Y-176517299D03*
G04 #@! TO.N,36*
X49199999Y-161277299D03*
X49199999Y-176517299D03*
G04 #@! TO.N,37*
X51739999Y-161277299D03*
X51739999Y-176517299D03*
G04 #@! TO.N,38*
X54279999Y-161277299D03*
X54279999Y-176517299D03*
G04 #@! TO.N,39*
X56819999Y-161277299D03*
X56819999Y-176517299D03*
G04 #@! TO.N,40*
X59359999Y-161277299D03*
X59359999Y-176517299D03*
G04 #@! TO.N,41*
X61899999Y-161277299D03*
X61899999Y-176517299D03*
G04 #@! TO.N,42*
X64439999Y-161277299D03*
X64439999Y-176517299D03*
G04 #@! TO.N,43*
X66979999Y-161277299D03*
X66979999Y-176517299D03*
G04 #@! TO.N,44*
X69519999Y-161277299D03*
X69519999Y-176517299D03*
G04 #@! TO.N,45*
X72059999Y-161277299D03*
X72059999Y-176517299D03*
G04 #@! TO.N,46*
X74599999Y-161277299D03*
X74599999Y-176517299D03*
G04 #@! TO.N,47*
X77139999Y-161277299D03*
X77139999Y-176517299D03*
G04 #@! TO.N,48*
X79679999Y-161277299D03*
X79679999Y-176517299D03*
G04 #@! TO.N,49*
X82219999Y-161277299D03*
X82219999Y-176517299D03*
G04 #@! TO.N,50*
X84759999Y-161277299D03*
X84759999Y-176517299D03*
G04 #@! TO.N,51*
X87299999Y-161277299D03*
X87299999Y-176517299D03*
G04 #@! TO.N,52*
X89839999Y-161277299D03*
X89839999Y-176517299D03*
G04 #@! TO.N,53*
X92379999Y-161277299D03*
X92379999Y-176517299D03*
G04 #@! TO.N,54*
X94919999Y-161277299D03*
X94919999Y-176517299D03*
G04 #@! TO.N,55*
X97459999Y-161277299D03*
X97459999Y-176517299D03*
G04 #@! TO.N,56*
X99999999Y-161277299D03*
X99999999Y-176517299D03*
G04 #@! TO.N,57*
X102539999Y-161277299D03*
X102539999Y-176517299D03*
G04 #@! TO.N,58*
X105079999Y-161277299D03*
X105079999Y-176517299D03*
G04 #@! TO.N,59*
X107619999Y-161277299D03*
X107619999Y-176517299D03*
G04 #@! TO.N,60*
X110159999Y-161277299D03*
X110159999Y-176517299D03*
G04 #@! TO.N,61*
X112699999Y-161277299D03*
X112699999Y-176517299D03*
D10*
G04 #@! TO.N,BOTTOM_RAIL*
X37769999Y-181609999D03*
X53009999Y-181597299D03*
X53009999Y-181597299D03*
X68249999Y-181609999D03*
X68249999Y-181609999D03*
X83489999Y-181597299D03*
X83489999Y-181597299D03*
X98729999Y-181597299D03*
X98729999Y-181597299D03*
X113969999Y-181597299D03*
G04 #@! TD*
D12*
G04 #@! TO.N,Net-(U1-FB{slash}SHDN)*
G04 #@! TO.C,U1*
X80323999Y-122290999D03*
D13*
G04 #@! TO.N,Net-(U1-CAP+)*
X82863999Y-122290999D03*
G04 #@! TO.N,GND*
X85403999Y-122290999D03*
G04 #@! TO.N,Net-(U1-CAP-)*
X87943999Y-122290999D03*
G04 #@! TO.N,Net-(D65-K)*
X87943999Y-114670999D03*
G04 #@! TO.N,Net-(U1-VREF)*
X85403999Y-114670999D03*
G04 #@! TO.N,unconnected-(U1-OSC-Pad7)*
X82863999Y-114670999D03*
G04 #@! TO.N,+5V*
X80323999Y-114670999D03*
G04 #@! TD*
D14*
G04 #@! TO.N,+8V*
G04 #@! TO.C,SW2*
X35738000Y-120936000D03*
G04 #@! TO.N,+5V*
X35738000Y-122936000D03*
G04 #@! TO.N,TOP_RAIL*
X35738000Y-126936000D03*
G04 #@! TO.N,+3V3*
X35738000Y-128936000D03*
G04 #@! TO.N,-8V*
X39038000Y-120936000D03*
G04 #@! TO.N,+5V*
X39038000Y-122936000D03*
G04 #@! TO.N,BOTTOM_RAIL*
X39038000Y-126936000D03*
G04 #@! TO.N,+3V3*
X39038000Y-128936000D03*
G04 #@! TD*
D15*
G04 #@! TO.N,+5V*
G04 #@! TO.C,J2*
X40144761Y-108724838D03*
D16*
G04 #@! TO.N,GND*
X38348710Y-110520889D03*
G04 #@! TD*
D17*
G04 #@! TO.N,GND*
G04 #@! TO.C,J3*
X70535999Y-106197399D03*
D13*
G04 #@! TO.N,CTS_UNCONNECTED*
X73075999Y-106197399D03*
G04 #@! TO.N,+3V3*
X75615999Y-106197399D03*
G04 #@! TO.N,D1*
X78155999Y-106197399D03*
G04 #@! TO.N,D0*
X80695999Y-106197399D03*
G04 #@! TO.N,DTR_UNCONNECTED*
X83235999Y-106197399D03*
G04 #@! TD*
D12*
G04 #@! TO.N,D1*
G04 #@! TO.C,A1*
X93395999Y-110910999D03*
D13*
G04 #@! TO.N,D0*
X90855999Y-110910999D03*
G04 #@! TO.N,NANO_~{RESET}*
X88315999Y-110910999D03*
G04 #@! TO.N,GND*
X85775999Y-110910999D03*
G04 #@! TO.N,D2*
X83235999Y-110910999D03*
G04 #@! TO.N,D3*
X80695999Y-110910999D03*
G04 #@! TO.N,D4*
X78155999Y-110910999D03*
G04 #@! TO.N,D5*
X75615999Y-110910999D03*
G04 #@! TO.N,D6*
X73075999Y-110910999D03*
G04 #@! TO.N,D7*
X70535999Y-110910999D03*
G04 #@! TO.N,D8*
X67995999Y-110910999D03*
G04 #@! TO.N,D9*
X65455999Y-110910999D03*
G04 #@! TO.N,D10*
X62915999Y-110910999D03*
G04 #@! TO.N,D11*
X60375999Y-110910999D03*
G04 #@! TO.N,D12*
X57835999Y-110910999D03*
G04 #@! TO.N,D13*
X57835999Y-126150999D03*
G04 #@! TO.N,NANO_3V3*
X60375999Y-126150999D03*
G04 #@! TO.N,AREF*
X62915999Y-126150999D03*
G04 #@! TO.N,A0*
X65455999Y-126150999D03*
G04 #@! TO.N,A1*
X67995999Y-126150999D03*
G04 #@! TO.N,A2*
X70535999Y-126150999D03*
G04 #@! TO.N,A3*
X73075999Y-126150999D03*
G04 #@! TO.N,A4*
X75615999Y-126150999D03*
G04 #@! TO.N,A5*
X78155999Y-126150999D03*
G04 #@! TO.N,A6*
X80695999Y-126150999D03*
G04 #@! TO.N,A7*
X83235999Y-126150999D03*
G04 #@! TO.N,NANO_5V*
X85775999Y-126150999D03*
G04 #@! TO.N,unconnected-(A1-~{RESET}-Pad28)*
X88315999Y-126150999D03*
G04 #@! TO.N,GND*
X90855999Y-126150999D03*
G04 #@! TO.N,VIN*
X93395999Y-126150999D03*
G04 #@! TD*
D18*
G04 #@! TO.N,GND*
G04 #@! TO.C,U9*
X105324000Y-125217000D03*
X105324000Y-126492000D03*
X105324000Y-127767000D03*
X106599000Y-125217000D03*
X106599000Y-126492000D03*
X106599000Y-127767000D03*
X107874000Y-125217000D03*
X107874000Y-126492000D03*
X107874000Y-127767000D03*
G04 #@! TD*
M02*
