G04 #@! TF.GenerationSoftware,KiCad,Pcbnew,(7.0.0-rc1-358-g86c12d35b4)*
G04 #@! TF.CreationDate,2023-05-11T11:50:55-07:00*
G04 #@! TF.ProjectId,Jumperless2,4a756d70-6572-46c6-9573-73322e6b6963,rev?*
G04 #@! TF.SameCoordinates,Original*
G04 #@! TF.FileFunction,Paste,Bot*
G04 #@! TF.FilePolarity,Positive*
%FSLAX46Y46*%
G04 Gerber Fmt 4.6, Leading zero omitted, Abs format (unit mm)*
G04 Created by KiCad (PCBNEW (7.0.0-rc1-358-g86c12d35b4)) date 2023-05-11 11:50:55*
%MOMM*%
%LPD*%
G01*
G04 APERTURE LIST*
G04 Aperture macros list*
%AMRoundRect*
0 Rectangle with rounded corners*
0 $1 Rounding radius*
0 $2 $3 $4 $5 $6 $7 $8 $9 X,Y pos of 4 corners*
0 Add a 4 corners polygon primitive as box body*
4,1,4,$2,$3,$4,$5,$6,$7,$8,$9,$2,$3,0*
0 Add four circle primitives for the rounded corners*
1,1,$1+$1,$2,$3*
1,1,$1+$1,$4,$5*
1,1,$1+$1,$6,$7*
1,1,$1+$1,$8,$9*
0 Add four rect primitives between the rounded corners*
20,1,$1+$1,$2,$3,$4,$5,0*
20,1,$1+$1,$4,$5,$6,$7,0*
20,1,$1+$1,$6,$7,$8,$9,0*
20,1,$1+$1,$8,$9,$2,$3,0*%
%AMRotRect*
0 Rectangle, with rotation*
0 The origin of the aperture is its center*
0 $1 length*
0 $2 width*
0 $3 Rotation angle, in degrees counterclockwise*
0 Add horizontal line*
21,1,$1,$2,0,0,$3*%
G04 Aperture macros list end*
%ADD10RoundRect,0.140000X-0.170000X0.140000X-0.170000X-0.140000X0.170000X-0.140000X0.170000X0.140000X0*%
%ADD11RoundRect,0.250000X-0.450000X0.262500X-0.450000X-0.262500X0.450000X-0.262500X0.450000X0.262500X0*%
%ADD12RoundRect,0.250001X0.624999X-0.462499X0.624999X0.462499X-0.624999X0.462499X-0.624999X-0.462499X0*%
%ADD13RoundRect,0.250000X0.650000X-0.412500X0.650000X0.412500X-0.650000X0.412500X-0.650000X-0.412500X0*%
%ADD14RoundRect,0.200000X0.275000X-0.200000X0.275000X0.200000X-0.275000X0.200000X-0.275000X-0.200000X0*%
%ADD15R,0.450000X0.600000*%
%ADD16R,1.000000X0.500000*%
%ADD17R,0.500000X1.000000*%
%ADD18RoundRect,0.140000X0.170000X-0.140000X0.170000X0.140000X-0.170000X0.140000X-0.170000X-0.140000X0*%
%ADD19RoundRect,0.150000X0.150000X-0.512500X0.150000X0.512500X-0.150000X0.512500X-0.150000X-0.512500X0*%
%ADD20RoundRect,0.140000X-0.140000X-0.170000X0.140000X-0.170000X0.140000X0.170000X-0.140000X0.170000X0*%
%ADD21RoundRect,0.200000X-0.275000X0.200000X-0.275000X-0.200000X0.275000X-0.200000X0.275000X0.200000X0*%
%ADD22RotRect,1.700000X1.000000X135.000000*%
%ADD23RoundRect,0.225000X-0.250000X0.225000X-0.250000X-0.225000X0.250000X-0.225000X0.250000X0.225000X0*%
%ADD24RoundRect,0.225000X0.250000X-0.225000X0.250000X0.225000X-0.250000X0.225000X-0.250000X-0.225000X0*%
%ADD25R,1.200000X1.400000*%
%ADD26RoundRect,0.150000X-0.150000X0.825000X-0.150000X-0.825000X0.150000X-0.825000X0.150000X0.825000X0*%
%ADD27RoundRect,0.140000X0.140000X0.170000X-0.140000X0.170000X-0.140000X-0.170000X0.140000X-0.170000X0*%
%ADD28RoundRect,0.150000X-0.150000X0.650000X-0.150000X-0.650000X0.150000X-0.650000X0.150000X0.650000X0*%
%ADD29RoundRect,0.135000X-0.135000X-0.185000X0.135000X-0.185000X0.135000X0.185000X-0.135000X0.185000X0*%
%ADD30RoundRect,0.150000X0.825000X0.150000X-0.825000X0.150000X-0.825000X-0.150000X0.825000X-0.150000X0*%
%ADD31R,2.000000X1.500000*%
%ADD32R,2.000000X3.800000*%
%ADD33RoundRect,0.250000X-0.650000X0.412500X-0.650000X-0.412500X0.650000X-0.412500X0.650000X0.412500X0*%
G04 APERTURE END LIST*
D10*
G04 #@! TO.C,C12*
X96190000Y-114046000D03*
X96190000Y-115006000D03*
G04 #@! TD*
G04 #@! TO.C,C17*
X100254000Y-118392000D03*
X100254000Y-119352000D03*
G04 #@! TD*
D11*
G04 #@! TO.C,R20*
X87554000Y-183110500D03*
X87554000Y-184935500D03*
G04 #@! TD*
D12*
G04 #@! TO.C,F1*
X51994000Y-128487500D03*
X51994000Y-125512500D03*
G04 #@! TD*
D13*
G04 #@! TO.C,C6*
X80315000Y-120053500D03*
X80315000Y-116928500D03*
G04 #@! TD*
D14*
G04 #@! TO.C,R16*
X48438000Y-135191000D03*
X48438000Y-133541000D03*
G04 #@! TD*
D15*
G04 #@! TO.C,D62*
X61899999Y-116990999D03*
X61899999Y-114890999D03*
G04 #@! TD*
G04 #@! TO.C,D66*
X56057999Y-121953999D03*
X56057999Y-119853999D03*
G04 #@! TD*
D16*
G04 #@! TO.C,F5*
X61185999Y-164894999D03*
X61185999Y-165694999D03*
X61185999Y-166494999D03*
X61185999Y-167294999D03*
X61185999Y-168094999D03*
X61185999Y-168894999D03*
X61185999Y-169694999D03*
X61185999Y-170494999D03*
X61185999Y-171294999D03*
X61185999Y-172094999D03*
X61185999Y-172894999D03*
D17*
X59485999Y-174594999D03*
X58685999Y-174594999D03*
X57885999Y-174594999D03*
X57085999Y-174594999D03*
X56285999Y-174594999D03*
X55485999Y-174594999D03*
X54685999Y-174594999D03*
X53885999Y-174594999D03*
X53085999Y-174594999D03*
X52285999Y-174594999D03*
X51485999Y-174594999D03*
D16*
X49785999Y-172894999D03*
X49785999Y-172094999D03*
X49785999Y-171294999D03*
X49785999Y-170494999D03*
X49785999Y-169694999D03*
X49785999Y-168894999D03*
X49785999Y-168094999D03*
X49785999Y-167294999D03*
X49785999Y-166494999D03*
X49785999Y-165694999D03*
X49785999Y-164894999D03*
D17*
X51485999Y-163194999D03*
X52285999Y-163194999D03*
X53085999Y-163194999D03*
X53885999Y-163194999D03*
X54685999Y-163194999D03*
X55485999Y-163194999D03*
X56285999Y-163194999D03*
X57085999Y-163194999D03*
X57885999Y-163194999D03*
X58685999Y-163194999D03*
X59485999Y-163194999D03*
G04 #@! TD*
D11*
G04 #@! TO.C,R4*
X87554000Y-179451000D03*
X87554000Y-181276000D03*
G04 #@! TD*
G04 #@! TO.C,R21*
X64850000Y-183237500D03*
X64850000Y-185062500D03*
G04 #@! TD*
D14*
G04 #@! TO.C,R13*
X46914000Y-138366000D03*
X46914000Y-136716000D03*
G04 #@! TD*
G04 #@! TO.C,R11*
X42342000Y-135191000D03*
X42342000Y-133541000D03*
G04 #@! TD*
D18*
G04 #@! TO.C,C10*
X112192000Y-120114000D03*
X112192000Y-119154000D03*
G04 #@! TD*
D19*
G04 #@! TO.C,U5*
X49642000Y-130556000D03*
X48692000Y-130556000D03*
X47742000Y-130556000D03*
X47742000Y-128281000D03*
X48692000Y-128281000D03*
X49642000Y-128281000D03*
G04 #@! TD*
D20*
G04 #@! TO.C,C14*
X112756000Y-116332000D03*
X113716000Y-116332000D03*
G04 #@! TD*
D16*
G04 #@! TO.C,I1*
X74823999Y-147091599D03*
X74823999Y-147891599D03*
X74823999Y-148691599D03*
X74823999Y-149491599D03*
X74823999Y-150291599D03*
X74823999Y-151091599D03*
X74823999Y-151891599D03*
X74823999Y-152691599D03*
X74823999Y-153491599D03*
X74823999Y-154291599D03*
X74823999Y-155091599D03*
D17*
X73123999Y-156791599D03*
X72323999Y-156791599D03*
X71523999Y-156791599D03*
X70723999Y-156791599D03*
X69923999Y-156791599D03*
X69123999Y-156791599D03*
X68323999Y-156791599D03*
X67523999Y-156791599D03*
X66723999Y-156791599D03*
X65923999Y-156791599D03*
X65123999Y-156791599D03*
D16*
X63423999Y-155091599D03*
X63423999Y-154291599D03*
X63423999Y-153491599D03*
X63423999Y-152691599D03*
X63423999Y-151891599D03*
X63423999Y-151091599D03*
X63423999Y-150291599D03*
X63423999Y-149491599D03*
X63423999Y-148691599D03*
X63423999Y-147891599D03*
X63423999Y-147091599D03*
D17*
X65123999Y-145391599D03*
X65923999Y-145391599D03*
X66723999Y-145391599D03*
X67523999Y-145391599D03*
X68323999Y-145391599D03*
X69123999Y-145391599D03*
X69923999Y-145391599D03*
X70723999Y-145391599D03*
X71523999Y-145391599D03*
X72323999Y-145391599D03*
X73123999Y-145391599D03*
G04 #@! TD*
D11*
G04 #@! TO.C,R1*
X64821000Y-179554500D03*
X64821000Y-181379500D03*
G04 #@! TD*
D21*
G04 #@! TO.C,R17*
X46914000Y-133541000D03*
X46914000Y-135191000D03*
G04 #@! TD*
D22*
G04 #@! TO.C,SW1*
X113578488Y-112821682D03*
X109123716Y-108366910D03*
X110891482Y-115508688D03*
X106436710Y-111053916D03*
G04 #@! TD*
D14*
G04 #@! TO.C,R7*
X43866000Y-135191000D03*
X43866000Y-133541000D03*
G04 #@! TD*
D16*
G04 #@! TO.C,D70*
X115795999Y-147089599D03*
X115795999Y-147889599D03*
X115795999Y-148689599D03*
X115795999Y-149489599D03*
X115795999Y-150289599D03*
X115795999Y-151089599D03*
X115795999Y-151889599D03*
X115795999Y-152689599D03*
X115795999Y-153489599D03*
X115795999Y-154289599D03*
X115795999Y-155089599D03*
D17*
X114095999Y-156789599D03*
X113295999Y-156789599D03*
X112495999Y-156789599D03*
X111695999Y-156789599D03*
X110895999Y-156789599D03*
X110095999Y-156789599D03*
X109295999Y-156789599D03*
X108495999Y-156789599D03*
X107695999Y-156789599D03*
X106895999Y-156789599D03*
X106095999Y-156789599D03*
D16*
X104395999Y-155089599D03*
X104395999Y-154289599D03*
X104395999Y-153489599D03*
X104395999Y-152689599D03*
X104395999Y-151889599D03*
X104395999Y-151089599D03*
X104395999Y-150289599D03*
X104395999Y-149489599D03*
X104395999Y-148689599D03*
X104395999Y-147889599D03*
X104395999Y-147089599D03*
D17*
X106095999Y-145389599D03*
X106895999Y-145389599D03*
X107695999Y-145389599D03*
X108495999Y-145389599D03*
X109295999Y-145389599D03*
X110095999Y-145389599D03*
X110895999Y-145389599D03*
X111695999Y-145389599D03*
X112495999Y-145389599D03*
X113295999Y-145389599D03*
X114095999Y-145389599D03*
G04 #@! TD*
D19*
G04 #@! TO.C,U3*
X44628000Y-130556000D03*
X43678000Y-130556000D03*
X42728000Y-130556000D03*
X42728000Y-128281000D03*
X43678000Y-128281000D03*
X44628000Y-128281000D03*
G04 #@! TD*
D23*
G04 #@! TO.C,C8*
X70917000Y-183555000D03*
X70917000Y-185105000D03*
G04 #@! TD*
D16*
G04 #@! TO.C,L1*
X88427999Y-147091599D03*
X88427999Y-147891599D03*
X88427999Y-148691599D03*
X88427999Y-149491599D03*
X88427999Y-150291599D03*
X88427999Y-151091599D03*
X88427999Y-151891599D03*
X88427999Y-152691599D03*
X88427999Y-153491599D03*
X88427999Y-154291599D03*
X88427999Y-155091599D03*
D17*
X86727999Y-156791599D03*
X85927999Y-156791599D03*
X85127999Y-156791599D03*
X84327999Y-156791599D03*
X83527999Y-156791599D03*
X82727999Y-156791599D03*
X81927999Y-156791599D03*
X81127999Y-156791599D03*
X80327999Y-156791599D03*
X79527999Y-156791599D03*
X78727999Y-156791599D03*
D16*
X77027999Y-155091599D03*
X77027999Y-154291599D03*
X77027999Y-153491599D03*
X77027999Y-152691599D03*
X77027999Y-151891599D03*
X77027999Y-151091599D03*
X77027999Y-150291599D03*
X77027999Y-149491599D03*
X77027999Y-148691599D03*
X77027999Y-147891599D03*
X77027999Y-147091599D03*
D17*
X78727999Y-145391599D03*
X79527999Y-145391599D03*
X80327999Y-145391599D03*
X81127999Y-145391599D03*
X81927999Y-145391599D03*
X82727999Y-145391599D03*
X83527999Y-145391599D03*
X84327999Y-145391599D03*
X85127999Y-145391599D03*
X85927999Y-145391599D03*
X86727999Y-145391599D03*
G04 #@! TD*
D10*
G04 #@! TO.C,C21*
X107874000Y-133886000D03*
X107874000Y-134846000D03*
G04 #@! TD*
D15*
G04 #@! TO.C,D68*
X64439999Y-119970999D03*
X64439999Y-122070999D03*
G04 #@! TD*
D24*
G04 #@! TO.C,C23*
X49962000Y-135141000D03*
X49962000Y-133591000D03*
G04 #@! TD*
D25*
G04 #@! TO.C,Y1*
X114096999Y-121538999D03*
X114096999Y-119338999D03*
X115796999Y-119338999D03*
X115796999Y-121538999D03*
G04 #@! TD*
D26*
G04 #@! TO.C,U7*
X57328000Y-132080000D03*
X58598000Y-132080000D03*
X59868000Y-132080000D03*
X61138000Y-132080000D03*
X62408000Y-132080000D03*
X63678000Y-132080000D03*
X64948000Y-132080000D03*
X64948000Y-137030000D03*
X63678000Y-137030000D03*
X62408000Y-137030000D03*
X61138000Y-137030000D03*
X59868000Y-137030000D03*
X58598000Y-137030000D03*
X57328000Y-137030000D03*
G04 #@! TD*
D15*
G04 #@! TO.C,D61*
X64439999Y-114890999D03*
X64439999Y-116990999D03*
G04 #@! TD*
D26*
G04 #@! TO.C,U10*
X41072000Y-119764000D03*
X42342000Y-119764000D03*
X43612000Y-119764000D03*
X44882000Y-119764000D03*
X46152000Y-119764000D03*
X47422000Y-119764000D03*
X48692000Y-119764000D03*
X49962000Y-119764000D03*
X49962000Y-124714000D03*
X48692000Y-124714000D03*
X47422000Y-124714000D03*
X46152000Y-124714000D03*
X44882000Y-124714000D03*
X43612000Y-124714000D03*
X42342000Y-124714000D03*
X41072000Y-124714000D03*
G04 #@! TD*
D27*
G04 #@! TO.C,C9*
X105306000Y-119126000D03*
X104346000Y-119126000D03*
G04 #@! TD*
D16*
G04 #@! TO.C,J6*
X74775999Y-164894999D03*
X74775999Y-165694999D03*
X74775999Y-166494999D03*
X74775999Y-167294999D03*
X74775999Y-168094999D03*
X74775999Y-168894999D03*
X74775999Y-169694999D03*
X74775999Y-170494999D03*
X74775999Y-171294999D03*
X74775999Y-172094999D03*
X74775999Y-172894999D03*
D17*
X73075999Y-174594999D03*
X72275999Y-174594999D03*
X71475999Y-174594999D03*
X70675999Y-174594999D03*
X69875999Y-174594999D03*
X69075999Y-174594999D03*
X68275999Y-174594999D03*
X67475999Y-174594999D03*
X66675999Y-174594999D03*
X65875999Y-174594999D03*
X65075999Y-174594999D03*
D16*
X63375999Y-172894999D03*
X63375999Y-172094999D03*
X63375999Y-171294999D03*
X63375999Y-170494999D03*
X63375999Y-169694999D03*
X63375999Y-168894999D03*
X63375999Y-168094999D03*
X63375999Y-167294999D03*
X63375999Y-166494999D03*
X63375999Y-165694999D03*
X63375999Y-164894999D03*
D17*
X65075999Y-163194999D03*
X65875999Y-163194999D03*
X66675999Y-163194999D03*
X67475999Y-163194999D03*
X68275999Y-163194999D03*
X69075999Y-163194999D03*
X69875999Y-163194999D03*
X70675999Y-163194999D03*
X71475999Y-163194999D03*
X72275999Y-163194999D03*
X73075999Y-163194999D03*
G04 #@! TD*
D14*
G04 #@! TO.C,R8*
X40818000Y-138366000D03*
X40818000Y-136716000D03*
G04 #@! TD*
G04 #@! TO.C,R15*
X48438000Y-138367000D03*
X48438000Y-136717000D03*
G04 #@! TD*
D16*
G04 #@! TO.C,A2*
X47496399Y-147119599D03*
X47496399Y-147919599D03*
X47496399Y-148719599D03*
X47496399Y-149519599D03*
X47496399Y-150319599D03*
X47496399Y-151119599D03*
X47496399Y-151919599D03*
X47496399Y-152719599D03*
X47496399Y-153519599D03*
X47496399Y-154319599D03*
X47496399Y-155119599D03*
D17*
X45796399Y-156819599D03*
X44996399Y-156819599D03*
X44196399Y-156819599D03*
X43396399Y-156819599D03*
X42596399Y-156819599D03*
X41796399Y-156819599D03*
X40996399Y-156819599D03*
X40196399Y-156819599D03*
X39396399Y-156819599D03*
X38596399Y-156819599D03*
X37796399Y-156819599D03*
D16*
X36096399Y-155119599D03*
X36096399Y-154319599D03*
X36096399Y-153519599D03*
X36096399Y-152719599D03*
X36096399Y-151919599D03*
X36096399Y-151119599D03*
X36096399Y-150319599D03*
X36096399Y-149519599D03*
X36096399Y-148719599D03*
X36096399Y-147919599D03*
X36096399Y-147119599D03*
D17*
X37796399Y-145419599D03*
X38596399Y-145419599D03*
X39396399Y-145419599D03*
X40196399Y-145419599D03*
X40996399Y-145419599D03*
X41796399Y-145419599D03*
X42596399Y-145419599D03*
X43396399Y-145419599D03*
X44196399Y-145419599D03*
X44996399Y-145419599D03*
X45796399Y-145419599D03*
G04 #@! TD*
D13*
G04 #@! TO.C,C4*
X82982000Y-120053500D03*
X82982000Y-116928500D03*
G04 #@! TD*
D28*
G04 #@! TO.C,U8*
X98730000Y-106890000D03*
X100000000Y-106890000D03*
X101270000Y-106890000D03*
X102540000Y-106890000D03*
X102540000Y-114090000D03*
X101270000Y-114090000D03*
X100000000Y-114090000D03*
X98730000Y-114090000D03*
G04 #@! TD*
D18*
G04 #@! TO.C,C19*
X98984000Y-127480000D03*
X98984000Y-126520000D03*
G04 #@! TD*
D16*
G04 #@! TO.C,G1*
X102105999Y-164894999D03*
X102105999Y-165694999D03*
X102105999Y-166494999D03*
X102105999Y-167294999D03*
X102105999Y-168094999D03*
X102105999Y-168894999D03*
X102105999Y-169694999D03*
X102105999Y-170494999D03*
X102105999Y-171294999D03*
X102105999Y-172094999D03*
X102105999Y-172894999D03*
D17*
X100405999Y-174594999D03*
X99605999Y-174594999D03*
X98805999Y-174594999D03*
X98005999Y-174594999D03*
X97205999Y-174594999D03*
X96405999Y-174594999D03*
X95605999Y-174594999D03*
X94805999Y-174594999D03*
X94005999Y-174594999D03*
X93205999Y-174594999D03*
X92405999Y-174594999D03*
D16*
X90705999Y-172894999D03*
X90705999Y-172094999D03*
X90705999Y-171294999D03*
X90705999Y-170494999D03*
X90705999Y-169694999D03*
X90705999Y-168894999D03*
X90705999Y-168094999D03*
X90705999Y-167294999D03*
X90705999Y-166494999D03*
X90705999Y-165694999D03*
X90705999Y-164894999D03*
D17*
X92405999Y-163194999D03*
X93205999Y-163194999D03*
X94005999Y-163194999D03*
X94805999Y-163194999D03*
X95605999Y-163194999D03*
X96405999Y-163194999D03*
X97205999Y-163194999D03*
X98005999Y-163194999D03*
X98805999Y-163194999D03*
X99605999Y-163194999D03*
X100405999Y-163194999D03*
G04 #@! TD*
D29*
G04 #@! TO.C,R12*
X114855000Y-116332000D03*
X115875000Y-116332000D03*
G04 #@! TD*
D14*
G04 #@! TO.C,R9*
X40818000Y-135191000D03*
X40818000Y-133541000D03*
G04 #@! TD*
D23*
G04 #@! TO.C,C16*
X114478000Y-159232000D03*
X114478000Y-160782000D03*
G04 #@! TD*
D16*
G04 #@! TO.C,B1*
X61173599Y-147091599D03*
X61173599Y-147891599D03*
X61173599Y-148691599D03*
X61173599Y-149491599D03*
X61173599Y-150291599D03*
X61173599Y-151091599D03*
X61173599Y-151891599D03*
X61173599Y-152691599D03*
X61173599Y-153491599D03*
X61173599Y-154291599D03*
X61173599Y-155091599D03*
D17*
X59473599Y-156791599D03*
X58673599Y-156791599D03*
X57873599Y-156791599D03*
X57073599Y-156791599D03*
X56273599Y-156791599D03*
X55473599Y-156791599D03*
X54673599Y-156791599D03*
X53873599Y-156791599D03*
X53073599Y-156791599D03*
X52273599Y-156791599D03*
X51473599Y-156791599D03*
D16*
X49773599Y-155091599D03*
X49773599Y-154291599D03*
X49773599Y-153491599D03*
X49773599Y-152691599D03*
X49773599Y-151891599D03*
X49773599Y-151091599D03*
X49773599Y-150291599D03*
X49773599Y-149491599D03*
X49773599Y-148691599D03*
X49773599Y-147891599D03*
X49773599Y-147091599D03*
D17*
X51473599Y-145391599D03*
X52273599Y-145391599D03*
X53073599Y-145391599D03*
X53873599Y-145391599D03*
X54673599Y-145391599D03*
X55473599Y-145391599D03*
X56273599Y-145391599D03*
X57073599Y-145391599D03*
X57873599Y-145391599D03*
X58673599Y-145391599D03*
X59473599Y-145391599D03*
G04 #@! TD*
D16*
G04 #@! TO.C,E1*
X47571999Y-164894999D03*
X47571999Y-165694999D03*
X47571999Y-166494999D03*
X47571999Y-167294999D03*
X47571999Y-168094999D03*
X47571999Y-168894999D03*
X47571999Y-169694999D03*
X47571999Y-170494999D03*
X47571999Y-171294999D03*
X47571999Y-172094999D03*
X47571999Y-172894999D03*
D17*
X45871999Y-174594999D03*
X45071999Y-174594999D03*
X44271999Y-174594999D03*
X43471999Y-174594999D03*
X42671999Y-174594999D03*
X41871999Y-174594999D03*
X41071999Y-174594999D03*
X40271999Y-174594999D03*
X39471999Y-174594999D03*
X38671999Y-174594999D03*
X37871999Y-174594999D03*
D16*
X36171999Y-172894999D03*
X36171999Y-172094999D03*
X36171999Y-171294999D03*
X36171999Y-170494999D03*
X36171999Y-169694999D03*
X36171999Y-168894999D03*
X36171999Y-168094999D03*
X36171999Y-167294999D03*
X36171999Y-166494999D03*
X36171999Y-165694999D03*
X36171999Y-164894999D03*
D17*
X37871999Y-163194999D03*
X38671999Y-163194999D03*
X39471999Y-163194999D03*
X40271999Y-163194999D03*
X41071999Y-163194999D03*
X41871999Y-163194999D03*
X42671999Y-163194999D03*
X43471999Y-163194999D03*
X44271999Y-163194999D03*
X45071999Y-163194999D03*
X45871999Y-163194999D03*
G04 #@! TD*
D15*
G04 #@! TO.C,D65*
X59359999Y-119970999D03*
X59359999Y-122070999D03*
G04 #@! TD*
D30*
G04 #@! TO.C,U6*
X95428000Y-180848000D03*
X95428000Y-182118000D03*
X95428000Y-183388000D03*
X95428000Y-184658000D03*
X90478000Y-184658000D03*
X90478000Y-183388000D03*
X90478000Y-182118000D03*
X90478000Y-180848000D03*
G04 #@! TD*
D16*
G04 #@! TO.C,H1*
X115819599Y-164894999D03*
X115819599Y-165694999D03*
X115819599Y-166494999D03*
X115819599Y-167294999D03*
X115819599Y-168094999D03*
X115819599Y-168894999D03*
X115819599Y-169694999D03*
X115819599Y-170494999D03*
X115819599Y-171294999D03*
X115819599Y-172094999D03*
X115819599Y-172894999D03*
D17*
X114119599Y-174594999D03*
X113319599Y-174594999D03*
X112519599Y-174594999D03*
X111719599Y-174594999D03*
X110919599Y-174594999D03*
X110119599Y-174594999D03*
X109319599Y-174594999D03*
X108519599Y-174594999D03*
X107719599Y-174594999D03*
X106919599Y-174594999D03*
X106119599Y-174594999D03*
D16*
X104419599Y-172894999D03*
X104419599Y-172094999D03*
X104419599Y-171294999D03*
X104419599Y-170494999D03*
X104419599Y-169694999D03*
X104419599Y-168894999D03*
X104419599Y-168094999D03*
X104419599Y-167294999D03*
X104419599Y-166494999D03*
X104419599Y-165694999D03*
X104419599Y-164894999D03*
D17*
X106119599Y-163194999D03*
X106919599Y-163194999D03*
X107719599Y-163194999D03*
X108519599Y-163194999D03*
X109319599Y-163194999D03*
X110119599Y-163194999D03*
X110919599Y-163194999D03*
X111719599Y-163194999D03*
X112519599Y-163194999D03*
X113319599Y-163194999D03*
X114119599Y-163194999D03*
G04 #@! TD*
D14*
G04 #@! TO.C,R14*
X45390000Y-138366000D03*
X45390000Y-136716000D03*
G04 #@! TD*
D18*
G04 #@! TO.C,C18*
X112192000Y-122146000D03*
X112192000Y-121186000D03*
G04 #@! TD*
D29*
G04 #@! TO.C,R5*
X114857000Y-117348000D03*
X115877000Y-117348000D03*
G04 #@! TD*
D10*
G04 #@! TO.C,C11*
X108890000Y-133886000D03*
X108890000Y-134846000D03*
G04 #@! TD*
D23*
G04 #@! TO.C,C7*
X70917000Y-179679000D03*
X70917000Y-181229000D03*
G04 #@! TD*
D14*
G04 #@! TO.C,R19*
X45390000Y-135191000D03*
X45390000Y-133541000D03*
G04 #@! TD*
D31*
G04 #@! TO.C,U2*
X73633999Y-184671999D03*
X73633999Y-182371999D03*
D32*
X79933999Y-182371999D03*
D31*
X73633999Y-180071999D03*
G04 #@! TD*
D15*
G04 #@! TO.C,D67*
X61899999Y-122069999D03*
X61899999Y-119969999D03*
G04 #@! TD*
D24*
G04 #@! TO.C,C22*
X101270000Y-183655000D03*
X101270000Y-182105000D03*
G04 #@! TD*
D15*
G04 #@! TO.C,D63*
X58597999Y-114900999D03*
X58597999Y-117000999D03*
G04 #@! TD*
D14*
G04 #@! TO.C,R10*
X42342000Y-138366000D03*
X42342000Y-136716000D03*
G04 #@! TD*
D24*
G04 #@! TO.C,C15*
X35738000Y-160795000D03*
X35738000Y-159245000D03*
G04 #@! TD*
D15*
G04 #@! TO.C,D69*
X53517999Y-119853999D03*
X53517999Y-121953999D03*
G04 #@! TD*
D14*
G04 #@! TO.C,R6*
X43866000Y-138366000D03*
X43866000Y-136716000D03*
G04 #@! TD*
D12*
G04 #@! TO.C,F4*
X54534000Y-128487500D03*
X54534000Y-125512500D03*
G04 #@! TD*
D16*
G04 #@! TO.C,C26*
X102128999Y-147089599D03*
X102128999Y-147889599D03*
X102128999Y-148689599D03*
X102128999Y-149489599D03*
X102128999Y-150289599D03*
X102128999Y-151089599D03*
X102128999Y-151889599D03*
X102128999Y-152689599D03*
X102128999Y-153489599D03*
X102128999Y-154289599D03*
X102128999Y-155089599D03*
D17*
X100428999Y-156789599D03*
X99628999Y-156789599D03*
X98828999Y-156789599D03*
X98028999Y-156789599D03*
X97228999Y-156789599D03*
X96428999Y-156789599D03*
X95628999Y-156789599D03*
X94828999Y-156789599D03*
X94028999Y-156789599D03*
X93228999Y-156789599D03*
X92428999Y-156789599D03*
D16*
X90728999Y-155089599D03*
X90728999Y-154289599D03*
X90728999Y-153489599D03*
X90728999Y-152689599D03*
X90728999Y-151889599D03*
X90728999Y-151089599D03*
X90728999Y-150289599D03*
X90728999Y-149489599D03*
X90728999Y-148689599D03*
X90728999Y-147889599D03*
X90728999Y-147089599D03*
D17*
X92428999Y-145389599D03*
X93228999Y-145389599D03*
X94028999Y-145389599D03*
X94828999Y-145389599D03*
X95628999Y-145389599D03*
X96428999Y-145389599D03*
X97228999Y-145389599D03*
X98028999Y-145389599D03*
X98828999Y-145389599D03*
X99628999Y-145389599D03*
X100428999Y-145389599D03*
G04 #@! TD*
D20*
G04 #@! TO.C,C13*
X112756000Y-117348000D03*
X113716000Y-117348000D03*
G04 #@! TD*
D23*
G04 #@! TO.C,C24*
X116002000Y-159245000D03*
X116002000Y-160795000D03*
G04 #@! TD*
D33*
G04 #@! TO.C,C1*
X85649000Y-116928500D03*
X85649000Y-120053500D03*
G04 #@! TD*
D15*
G04 #@! TO.C,D64*
X56057999Y-116999999D03*
X56057999Y-114899999D03*
G04 #@! TD*
D16*
G04 #@! TO.C,K1*
X88465999Y-164894999D03*
X88465999Y-165694999D03*
X88465999Y-166494999D03*
X88465999Y-167294999D03*
X88465999Y-168094999D03*
X88465999Y-168894999D03*
X88465999Y-169694999D03*
X88465999Y-170494999D03*
X88465999Y-171294999D03*
X88465999Y-172094999D03*
X88465999Y-172894999D03*
D17*
X86765999Y-174594999D03*
X85965999Y-174594999D03*
X85165999Y-174594999D03*
X84365999Y-174594999D03*
X83565999Y-174594999D03*
X82765999Y-174594999D03*
X81965999Y-174594999D03*
X81165999Y-174594999D03*
X80365999Y-174594999D03*
X79565999Y-174594999D03*
X78765999Y-174594999D03*
D16*
X77065999Y-172894999D03*
X77065999Y-172094999D03*
X77065999Y-171294999D03*
X77065999Y-170494999D03*
X77065999Y-169694999D03*
X77065999Y-168894999D03*
X77065999Y-168094999D03*
X77065999Y-167294999D03*
X77065999Y-166494999D03*
X77065999Y-165694999D03*
X77065999Y-164894999D03*
D17*
X78765999Y-163194999D03*
X79565999Y-163194999D03*
X80365999Y-163194999D03*
X81165999Y-163194999D03*
X81965999Y-163194999D03*
X82765999Y-163194999D03*
X83565999Y-163194999D03*
X84365999Y-163194999D03*
X85165999Y-163194999D03*
X85965999Y-163194999D03*
X86765999Y-163194999D03*
G04 #@! TD*
D27*
G04 #@! TO.C,C20*
X105306000Y-118110000D03*
X104346000Y-118110000D03*
G04 #@! TD*
D21*
G04 #@! TO.C,R18*
X49962000Y-136716000D03*
X49962000Y-138366000D03*
G04 #@! TD*
D24*
G04 #@! TO.C,C25*
X37262000Y-160795000D03*
X37262000Y-159245000D03*
G04 #@! TD*
D30*
G04 #@! TO.C,U4*
X61262000Y-180721000D03*
X61262000Y-181991000D03*
X61262000Y-183261000D03*
X61262000Y-184531000D03*
X56312000Y-184531000D03*
X56312000Y-183261000D03*
X56312000Y-181991000D03*
X56312000Y-180721000D03*
G04 #@! TD*
M02*
