%TF.GenerationSoftware,KiCad,Pcbnew,7.0.5-0*%
%TF.CreationDate,2023-06-16T23:12:02-07:00*%
%TF.ProjectId,Jumperless2,4a756d70-6572-46c6-9573-73322e6b6963,rev?*%
%TF.SameCoordinates,Original*%
%TF.FileFunction,Soldermask,Bot*%
%TF.FilePolarity,Negative*%
%FSLAX46Y46*%
G04 Gerber Fmt 4.6, Leading zero omitted, Abs format (unit mm)*
G04 Created by KiCad (PCBNEW 7.0.5-0) date 2023-06-16 23:12:02*
%MOMM*%
%LPD*%
G01*
G04 APERTURE LIST*
G04 Aperture macros list*
%AMRoundRect*
0 Rectangle with rounded corners*
0 $1 Rounding radius*
0 $2 $3 $4 $5 $6 $7 $8 $9 X,Y pos of 4 corners*
0 Add a 4 corners polygon primitive as box body*
4,1,4,$2,$3,$4,$5,$6,$7,$8,$9,$2,$3,0*
0 Add four circle primitives for the rounded corners*
1,1,$1+$1,$2,$3*
1,1,$1+$1,$4,$5*
1,1,$1+$1,$6,$7*
1,1,$1+$1,$8,$9*
0 Add four rect primitives between the rounded corners*
20,1,$1+$1,$2,$3,$4,$5,0*
20,1,$1+$1,$4,$5,$6,$7,0*
20,1,$1+$1,$6,$7,$8,$9,0*
20,1,$1+$1,$8,$9,$2,$3,0*%
%AMRotRect*
0 Rectangle, with rotation*
0 The origin of the aperture is its center*
0 $1 length*
0 $2 width*
0 $3 Rotation angle, in degrees counterclockwise*
0 Add horizontal line*
21,1,$1,$2,0,0,$3*%
%AMFreePoly0*
4,1,13,0.508000,-0.508000,0.000000,-0.508000,-0.097202,-0.488665,-0.179605,-0.433605,-0.234665,-0.351202,-0.254000,-0.254000,-0.254000,0.254000,-0.234665,0.351202,-0.179605,0.433605,-0.097202,0.488665,0.000000,0.508000,0.508000,0.508000,0.508000,-0.508000,0.508000,-0.508000,$1*%
G04 Aperture macros list end*
%ADD10C,0.000000*%
%ADD11C,0.012700*%
%ADD12C,0.800000*%
%ADD13RoundRect,0.525000X0.000000X0.318198X-0.318198X0.000000X0.000000X-0.318198X0.318198X0.000000X0*%
%ADD14O,1.500000X1.300000*%
%ADD15RoundRect,0.160000X0.640000X-0.640000X0.640000X0.640000X-0.640000X0.640000X-0.640000X-0.640000X0*%
%ADD16O,1.600000X1.600000*%
%ADD17C,0.900000*%
%ADD18C,1.400000*%
%ADD19RoundRect,0.455000X-0.195000X-0.195000X0.195000X-0.195000X0.195000X0.195000X-0.195000X0.195000X0*%
%ADD20O,1.300000X2.000000*%
%ADD21O,1.700000X1.000000*%
%ADD22RoundRect,0.160000X-0.640000X0.640000X-0.640000X-0.640000X0.640000X-0.640000X0.640000X0.640000X0*%
%ADD23RoundRect,0.140000X0.058955X-0.212189X0.219557X0.017173X-0.058955X0.212189X-0.219557X-0.017173X0*%
%ADD24C,2.000000*%
%ADD25C,1.000000*%
%ADD26RoundRect,0.250000X0.650000X-0.412500X0.650000X0.412500X-0.650000X0.412500X-0.650000X-0.412500X0*%
%ADD27RoundRect,0.135000X0.185000X-0.135000X0.185000X0.135000X-0.185000X0.135000X-0.185000X-0.135000X0*%
%ADD28C,0.863600*%
%ADD29RoundRect,0.112500X0.112500X-0.187500X0.112500X0.187500X-0.112500X0.187500X-0.112500X-0.187500X0*%
%ADD30RoundRect,0.135000X-0.185000X0.135000X-0.185000X-0.135000X0.185000X-0.135000X0.185000X0.135000X0*%
%ADD31R,1.200000X0.500000*%
%ADD32R,0.500000X1.200000*%
%ADD33RoundRect,0.200000X-0.200000X-0.275000X0.200000X-0.275000X0.200000X0.275000X-0.200000X0.275000X0*%
%ADD34FreePoly0,90.000000*%
%ADD35FreePoly0,270.000000*%
%ADD36RoundRect,0.170000X-0.680000X-1.130000X0.680000X-1.130000X0.680000X1.130000X-0.680000X1.130000X0*%
%ADD37RoundRect,0.140000X0.170000X-0.140000X0.170000X0.140000X-0.170000X0.140000X-0.170000X-0.140000X0*%
%ADD38RoundRect,0.140000X0.143107X-0.167393X0.191728X0.108353X-0.143107X0.167393X-0.191728X-0.108353X0*%
%ADD39RotRect,1.700000X1.000000X135.000000*%
%ADD40RoundRect,0.150000X0.150000X-0.512500X0.150000X0.512500X-0.150000X0.512500X-0.150000X-0.512500X0*%
%ADD41RoundRect,0.225000X-0.250000X0.225000X-0.250000X-0.225000X0.250000X-0.225000X0.250000X0.225000X0*%
%ADD42RoundRect,0.135000X-0.205632X0.100824X-0.158747X-0.165074X0.205632X-0.100824X0.158747X0.165074X0*%
%ADD43RoundRect,0.140000X-0.017173X-0.219557X0.212189X-0.058955X0.017173X0.219557X-0.212189X0.058955X0*%
%ADD44RoundRect,0.112500X-0.112500X0.187500X-0.112500X-0.187500X0.112500X-0.187500X0.112500X0.187500X0*%
%ADD45R,1.200000X1.400000*%
%ADD46RoundRect,0.150000X-0.150000X0.825000X-0.150000X-0.825000X0.150000X-0.825000X0.150000X0.825000X0*%
%ADD47RoundRect,0.140000X0.099887X0.196272X-0.173476X0.135669X-0.099887X-0.196272X0.173476X-0.135669X0*%
%ADD48FreePoly0,0.000000*%
%ADD49FreePoly0,180.000000*%
%ADD50RoundRect,0.150000X-0.150000X0.650000X-0.150000X-0.650000X0.150000X-0.650000X0.150000X0.650000X0*%
%ADD51RoundRect,0.140000X0.207631X-0.073414X0.111865X0.189700X-0.207631X0.073414X-0.111865X-0.189700X0*%
%ADD52RoundRect,0.135000X-0.157992X-0.165796X0.109698X-0.201038X0.157992X0.165796X-0.109698X0.201038X0*%
%ADD53RoundRect,0.150000X0.825000X0.150000X-0.825000X0.150000X-0.825000X-0.150000X0.825000X-0.150000X0*%
%ADD54RoundRect,0.140000X-0.068155X0.209416X-0.218598X-0.026734X0.068155X-0.209416X0.218598X0.026734X0*%
%ADD55RoundRect,0.135000X0.224720X-0.044167X0.110613X0.200536X-0.224720X0.044167X-0.110613X-0.200536X0*%
%ADD56RoundRect,0.140000X-0.217224X0.036244X-0.077224X-0.206244X0.217224X-0.036244X0.077224X0.206244X0*%
%ADD57R,2.000000X1.500000*%
%ADD58R,2.000000X3.800000*%
%ADD59RoundRect,0.135000X-0.171841X-0.151395X0.091759X-0.209834X0.171841X0.151395X-0.091759X0.209834X0*%
%ADD60RoundRect,0.140000X-0.111865X0.189700X-0.207631X-0.073414X0.111865X-0.189700X0.207631X0.073414X0*%
%ADD61RoundRect,0.250000X-0.650000X0.412500X-0.650000X-0.412500X0.650000X-0.412500X0.650000X0.412500X0*%
%ADD62RoundRect,0.140000X0.026734X0.218598X-0.209416X0.068155X-0.026734X-0.218598X0.209416X-0.068155X0*%
%ADD63RoundRect,0.225000X0.250000X-0.225000X0.250000X0.225000X-0.250000X0.225000X-0.250000X-0.225000X0*%
G04 APERTURE END LIST*
D10*
G36*
X49461858Y-113820548D02*
G01*
X49483666Y-113821681D01*
X49505392Y-113823397D01*
X49527007Y-113825692D01*
X49548480Y-113828561D01*
X49569779Y-113832001D01*
X49590876Y-113836009D01*
X49611738Y-113840581D01*
X49632336Y-113845713D01*
X49652638Y-113851402D01*
X49672615Y-113857643D01*
X49692235Y-113864434D01*
X49714067Y-113872292D01*
X49727352Y-113876934D01*
X49735897Y-113879988D01*
X49745644Y-113883935D01*
X49756439Y-113888689D01*
X49768127Y-113894165D01*
X49793564Y-113906937D01*
X49820717Y-113921565D01*
X49848347Y-113937360D01*
X49875219Y-113953636D01*
X49900093Y-113969705D01*
X49911394Y-113977448D01*
X49921732Y-113984880D01*
X49936484Y-113996022D01*
X49951221Y-114007617D01*
X49965920Y-114019639D01*
X49980553Y-114032064D01*
X49995095Y-114044867D01*
X50009520Y-114058020D01*
X50023804Y-114071500D01*
X50037920Y-114085281D01*
X50051842Y-114099337D01*
X50065545Y-114113642D01*
X50079004Y-114128172D01*
X50092193Y-114142901D01*
X50105085Y-114157803D01*
X50117656Y-114172854D01*
X50129880Y-114188026D01*
X50141731Y-114203296D01*
X50163207Y-114232535D01*
X50183951Y-114262854D01*
X50203938Y-114294196D01*
X50223143Y-114326504D01*
X50241541Y-114359717D01*
X50259107Y-114393779D01*
X50275816Y-114428631D01*
X50291644Y-114464215D01*
X50306565Y-114500472D01*
X50320555Y-114537345D01*
X50333589Y-114574775D01*
X50345641Y-114612704D01*
X50356686Y-114651074D01*
X50366701Y-114689826D01*
X50375659Y-114728902D01*
X50383537Y-114768245D01*
X50390044Y-114805140D01*
X50395414Y-114839975D01*
X50399728Y-114873704D01*
X50403067Y-114907279D01*
X50405511Y-114941653D01*
X50407143Y-114977778D01*
X50408043Y-115016608D01*
X50408292Y-115059094D01*
X50407651Y-115114610D01*
X50405787Y-115166055D01*
X50402598Y-115214297D01*
X50397979Y-115260202D01*
X50391829Y-115304636D01*
X50384042Y-115348466D01*
X50374518Y-115392556D01*
X50363151Y-115437774D01*
X50357899Y-115457913D01*
X50355391Y-115467841D01*
X50353387Y-115476003D01*
X50346616Y-115501063D01*
X50337493Y-115529988D01*
X50326417Y-115561752D01*
X50313788Y-115595327D01*
X50300006Y-115629685D01*
X50285470Y-115663799D01*
X50270579Y-115696641D01*
X50255734Y-115727184D01*
X50235785Y-115765130D01*
X50214888Y-115801955D01*
X50193055Y-115837643D01*
X50170297Y-115872183D01*
X50146627Y-115905560D01*
X50122058Y-115937761D01*
X50096601Y-115968773D01*
X50070270Y-115998582D01*
X50043075Y-116027176D01*
X50015030Y-116054540D01*
X49986146Y-116080661D01*
X49956436Y-116105526D01*
X49925913Y-116129122D01*
X49894588Y-116151435D01*
X49862474Y-116172452D01*
X49829582Y-116192160D01*
X49812141Y-116201856D01*
X49794405Y-116211152D01*
X49776396Y-116220038D01*
X49758141Y-116228507D01*
X49739663Y-116236550D01*
X49720986Y-116244159D01*
X49702135Y-116251326D01*
X49683134Y-116258042D01*
X49664008Y-116264299D01*
X49644780Y-116270089D01*
X49625476Y-116275403D01*
X49606119Y-116280234D01*
X49586734Y-116284572D01*
X49567345Y-116288410D01*
X49547977Y-116291740D01*
X49528653Y-116294553D01*
X49508636Y-116296741D01*
X49485981Y-116298428D01*
X49461576Y-116299603D01*
X49436307Y-116300251D01*
X49411063Y-116300359D01*
X49386731Y-116299914D01*
X49364199Y-116298902D01*
X49344353Y-116297310D01*
X49344352Y-116297310D01*
X49320126Y-116294384D01*
X49295581Y-116290595D01*
X49270763Y-116285955D01*
X49245719Y-116280474D01*
X49220496Y-116274163D01*
X49195139Y-116267033D01*
X49169696Y-116259095D01*
X49144213Y-116250360D01*
X49128241Y-116244112D01*
X49108960Y-116235726D01*
X49087468Y-116225751D01*
X49064865Y-116214733D01*
X49042247Y-116203220D01*
X49020712Y-116191758D01*
X49001360Y-116180895D01*
X48985286Y-116171177D01*
X48960159Y-116154624D01*
X48935503Y-116137285D01*
X48911327Y-116119171D01*
X48887642Y-116100292D01*
X48864457Y-116080657D01*
X48841781Y-116060276D01*
X48819625Y-116039160D01*
X48797997Y-116017319D01*
X48776908Y-115994762D01*
X48756367Y-115971500D01*
X48736384Y-115947543D01*
X48716968Y-115922900D01*
X48698129Y-115897582D01*
X48679878Y-115871598D01*
X48662222Y-115844959D01*
X48645172Y-115817675D01*
X48634682Y-115799849D01*
X48623444Y-115779807D01*
X48611858Y-115758329D01*
X48600322Y-115736193D01*
X48589235Y-115714177D01*
X48578996Y-115693059D01*
X48570004Y-115673618D01*
X48562657Y-115656631D01*
X48556922Y-115642864D01*
X48551400Y-115629859D01*
X48546721Y-115619082D01*
X48543512Y-115611996D01*
X48542409Y-115609576D01*
X48541381Y-115607115D01*
X48540449Y-115604679D01*
X48539637Y-115602339D01*
X48538966Y-115600162D01*
X48538460Y-115598216D01*
X48538275Y-115597352D01*
X48538140Y-115596571D01*
X48538057Y-115595882D01*
X48538030Y-115595294D01*
X48538009Y-115594726D01*
X48537948Y-115594095D01*
X48537850Y-115593407D01*
X48537715Y-115592669D01*
X48537547Y-115591887D01*
X48537346Y-115591070D01*
X48537116Y-115590222D01*
X48536858Y-115589350D01*
X48536574Y-115588462D01*
X48536266Y-115587564D01*
X48535937Y-115586663D01*
X48535588Y-115585764D01*
X48535221Y-115584876D01*
X48534839Y-115584004D01*
X48534442Y-115583155D01*
X48534035Y-115582336D01*
X48532470Y-115578982D01*
X48530592Y-115574426D01*
X48526050Y-115562182D01*
X48520707Y-115546552D01*
X48514863Y-115528481D01*
X48508817Y-115508916D01*
X48502868Y-115488805D01*
X48497315Y-115469095D01*
X48492458Y-115450733D01*
X48482940Y-115411486D01*
X48474607Y-115373292D01*
X48467394Y-115335728D01*
X48461238Y-115298373D01*
X48456075Y-115260804D01*
X48451842Y-115222602D01*
X48448475Y-115183342D01*
X48445910Y-115142605D01*
X48444590Y-115115128D01*
X48443717Y-115090546D01*
X48443303Y-115067813D01*
X48443364Y-115045882D01*
X48443914Y-115023707D01*
X48444967Y-115000242D01*
X48446539Y-114974440D01*
X48448643Y-114945256D01*
X48451874Y-114908225D01*
X48455909Y-114871533D01*
X48460744Y-114835190D01*
X48466379Y-114799201D01*
X48472810Y-114763577D01*
X48480035Y-114728324D01*
X48488053Y-114693451D01*
X48496861Y-114658966D01*
X48506457Y-114624876D01*
X48516839Y-114591191D01*
X48528005Y-114557917D01*
X48539952Y-114525063D01*
X48552679Y-114492637D01*
X48566182Y-114460647D01*
X48580462Y-114429101D01*
X48595514Y-114398008D01*
X48618679Y-114353551D01*
X48630526Y-114332207D01*
X48642579Y-114311410D01*
X48654862Y-114291128D01*
X48667397Y-114271329D01*
X48680207Y-114251981D01*
X48693314Y-114233052D01*
X48706742Y-114214509D01*
X48720512Y-114196320D01*
X48734648Y-114178454D01*
X48749173Y-114160878D01*
X48764108Y-114143560D01*
X48779478Y-114126469D01*
X48795304Y-114109571D01*
X48811609Y-114092836D01*
X48835931Y-114069076D01*
X48860639Y-114046386D01*
X48885731Y-114024766D01*
X48911206Y-114004217D01*
X48937064Y-113984740D01*
X48963302Y-113966335D01*
X48989921Y-113949002D01*
X49016919Y-113932742D01*
X49044296Y-113917556D01*
X49072050Y-113903444D01*
X49100180Y-113890407D01*
X49128685Y-113878446D01*
X49157565Y-113867560D01*
X49186819Y-113857751D01*
X49216445Y-113849019D01*
X49246443Y-113841364D01*
X49262338Y-113837666D01*
X49275847Y-113834667D01*
X49287789Y-113832231D01*
X49298983Y-113830222D01*
X49310249Y-113828505D01*
X49322406Y-113826943D01*
X49336275Y-113825400D01*
X49352675Y-113823740D01*
X49374429Y-113821908D01*
X49396255Y-113820676D01*
X49418122Y-113820042D01*
X49440000Y-113820000D01*
X49461858Y-113820548D01*
G37*
D11*
X93484900Y-139293600D02*
X92545100Y-139293600D01*
X92545100Y-139293600D02*
X92545100Y-138633200D01*
X92545100Y-138633200D02*
X93484900Y-138633200D01*
X93484900Y-138633200D02*
X93484900Y-139293600D01*
G36*
X93484900Y-139293600D02*
G01*
X92545100Y-139293600D01*
X92545100Y-138633200D01*
X93484900Y-138633200D01*
X93484900Y-139293600D01*
G37*
D12*
X57582000Y-106987437D02*
X58090000Y-106987437D01*
X58090000Y-106987437D02*
X58090000Y-106098437D01*
X58090000Y-106098437D02*
X57582000Y-106098437D01*
X57582000Y-106098437D02*
X57582000Y-106987437D01*
G36*
X57582000Y-106987437D02*
G01*
X58090000Y-106987437D01*
X58090000Y-106098437D01*
X57582000Y-106098437D01*
X57582000Y-106987437D01*
G37*
X60122000Y-106987437D02*
X60630000Y-106987437D01*
X60630000Y-106987437D02*
X60630000Y-106098437D01*
X60630000Y-106098437D02*
X60122000Y-106098437D01*
X60122000Y-106098437D02*
X60122000Y-106987437D01*
G36*
X60122000Y-106987437D02*
G01*
X60630000Y-106987437D01*
X60630000Y-106098437D01*
X60122000Y-106098437D01*
X60122000Y-106987437D01*
G37*
X62662000Y-106987437D02*
X63170000Y-106987437D01*
X63170000Y-106987437D02*
X63170000Y-106098437D01*
X63170000Y-106098437D02*
X62662000Y-106098437D01*
X62662000Y-106098437D02*
X62662000Y-106987437D01*
G36*
X62662000Y-106987437D02*
G01*
X63170000Y-106987437D01*
X63170000Y-106098437D01*
X62662000Y-106098437D01*
X62662000Y-106987437D01*
G37*
X65202000Y-106987437D02*
X65710000Y-106987437D01*
X65710000Y-106987437D02*
X65710000Y-106098437D01*
X65710000Y-106098437D02*
X65202000Y-106098437D01*
X65202000Y-106098437D02*
X65202000Y-106987437D01*
G36*
X65202000Y-106987437D02*
G01*
X65710000Y-106987437D01*
X65710000Y-106098437D01*
X65202000Y-106098437D01*
X65202000Y-106987437D01*
G37*
X67742000Y-106987437D02*
X68250000Y-106987437D01*
X68250000Y-106987437D02*
X68250000Y-106098437D01*
X68250000Y-106098437D02*
X67742000Y-106098437D01*
X67742000Y-106098437D02*
X67742000Y-106987437D01*
G36*
X67742000Y-106987437D02*
G01*
X68250000Y-106987437D01*
X68250000Y-106098437D01*
X67742000Y-106098437D01*
X67742000Y-106987437D01*
G37*
X70282000Y-106987437D02*
X70790000Y-106987437D01*
X70790000Y-106987437D02*
X70790000Y-106098437D01*
X70790000Y-106098437D02*
X70282000Y-106098437D01*
X70282000Y-106098437D02*
X70282000Y-106987437D01*
G36*
X70282000Y-106987437D02*
G01*
X70790000Y-106987437D01*
X70790000Y-106098437D01*
X70282000Y-106098437D01*
X70282000Y-106987437D01*
G37*
X72822000Y-106987437D02*
X73330000Y-106987437D01*
X73330000Y-106987437D02*
X73330000Y-106098437D01*
X73330000Y-106098437D02*
X72822000Y-106098437D01*
X72822000Y-106098437D02*
X72822000Y-106987437D01*
G36*
X72822000Y-106987437D02*
G01*
X73330000Y-106987437D01*
X73330000Y-106098437D01*
X72822000Y-106098437D01*
X72822000Y-106987437D01*
G37*
X75362000Y-106987437D02*
X75870000Y-106987437D01*
X75870000Y-106987437D02*
X75870000Y-106098437D01*
X75870000Y-106098437D02*
X75362000Y-106098437D01*
X75362000Y-106098437D02*
X75362000Y-106987437D01*
G36*
X75362000Y-106987437D02*
G01*
X75870000Y-106987437D01*
X75870000Y-106098437D01*
X75362000Y-106098437D01*
X75362000Y-106987437D01*
G37*
X77902000Y-106987437D02*
X78410000Y-106987437D01*
X78410000Y-106987437D02*
X78410000Y-106098437D01*
X78410000Y-106098437D02*
X77902000Y-106098437D01*
X77902000Y-106098437D02*
X77902000Y-106987437D01*
G36*
X77902000Y-106987437D02*
G01*
X78410000Y-106987437D01*
X78410000Y-106098437D01*
X77902000Y-106098437D01*
X77902000Y-106987437D01*
G37*
X80442000Y-106987437D02*
X80950000Y-106987437D01*
X80950000Y-106987437D02*
X80950000Y-106098437D01*
X80950000Y-106098437D02*
X80442000Y-106098437D01*
X80442000Y-106098437D02*
X80442000Y-106987437D01*
G36*
X80442000Y-106987437D02*
G01*
X80950000Y-106987437D01*
X80950000Y-106098437D01*
X80442000Y-106098437D01*
X80442000Y-106987437D01*
G37*
X82982000Y-106987437D02*
X83490000Y-106987437D01*
X83490000Y-106987437D02*
X83490000Y-106098437D01*
X83490000Y-106098437D02*
X82982000Y-106098437D01*
X82982000Y-106098437D02*
X82982000Y-106987437D01*
G36*
X82982000Y-106987437D02*
G01*
X83490000Y-106987437D01*
X83490000Y-106098437D01*
X82982000Y-106098437D01*
X82982000Y-106987437D01*
G37*
X85522000Y-106987437D02*
X86030000Y-106987437D01*
X86030000Y-106987437D02*
X86030000Y-106098437D01*
X86030000Y-106098437D02*
X85522000Y-106098437D01*
X85522000Y-106098437D02*
X85522000Y-106987437D01*
G36*
X85522000Y-106987437D02*
G01*
X86030000Y-106987437D01*
X86030000Y-106098437D01*
X85522000Y-106098437D01*
X85522000Y-106987437D01*
G37*
X88062000Y-106987437D02*
X88570000Y-106987437D01*
X88570000Y-106987437D02*
X88570000Y-106098437D01*
X88570000Y-106098437D02*
X88062000Y-106098437D01*
X88062000Y-106098437D02*
X88062000Y-106987437D01*
G36*
X88062000Y-106987437D02*
G01*
X88570000Y-106987437D01*
X88570000Y-106098437D01*
X88062000Y-106098437D01*
X88062000Y-106987437D01*
G37*
X90602000Y-106987437D02*
X91110000Y-106987437D01*
X91110000Y-106987437D02*
X91110000Y-106098437D01*
X91110000Y-106098437D02*
X90602000Y-106098437D01*
X90602000Y-106098437D02*
X90602000Y-106987437D01*
G36*
X90602000Y-106987437D02*
G01*
X91110000Y-106987437D01*
X91110000Y-106098437D01*
X90602000Y-106098437D01*
X90602000Y-106987437D01*
G37*
X93142000Y-106987437D02*
X93650000Y-106987437D01*
X93650000Y-106987437D02*
X93650000Y-106098437D01*
X93650000Y-106098437D02*
X93142000Y-106098437D01*
X93142000Y-106098437D02*
X93142000Y-106987437D01*
G36*
X93142000Y-106987437D02*
G01*
X93650000Y-106987437D01*
X93650000Y-106098437D01*
X93142000Y-106098437D01*
X93142000Y-106987437D01*
G37*
X57582000Y-128714500D02*
X58090000Y-128714500D01*
X58090000Y-128714500D02*
X58090000Y-127825500D01*
X58090000Y-127825500D02*
X57582000Y-127825500D01*
X57582000Y-127825500D02*
X57582000Y-128714500D01*
G36*
X57582000Y-128714500D02*
G01*
X58090000Y-128714500D01*
X58090000Y-127825500D01*
X57582000Y-127825500D01*
X57582000Y-128714500D01*
G37*
X60122000Y-128714500D02*
X60630000Y-128714500D01*
X60630000Y-128714500D02*
X60630000Y-127825500D01*
X60630000Y-127825500D02*
X60122000Y-127825500D01*
X60122000Y-127825500D02*
X60122000Y-128714500D01*
G36*
X60122000Y-128714500D02*
G01*
X60630000Y-128714500D01*
X60630000Y-127825500D01*
X60122000Y-127825500D01*
X60122000Y-128714500D01*
G37*
X62662000Y-128714500D02*
X63170000Y-128714500D01*
X63170000Y-128714500D02*
X63170000Y-127825500D01*
X63170000Y-127825500D02*
X62662000Y-127825500D01*
X62662000Y-127825500D02*
X62662000Y-128714500D01*
G36*
X62662000Y-128714500D02*
G01*
X63170000Y-128714500D01*
X63170000Y-127825500D01*
X62662000Y-127825500D01*
X62662000Y-128714500D01*
G37*
X65202000Y-128714500D02*
X65710000Y-128714500D01*
X65710000Y-128714500D02*
X65710000Y-127825500D01*
X65710000Y-127825500D02*
X65202000Y-127825500D01*
X65202000Y-127825500D02*
X65202000Y-128714500D01*
G36*
X65202000Y-128714500D02*
G01*
X65710000Y-128714500D01*
X65710000Y-127825500D01*
X65202000Y-127825500D01*
X65202000Y-128714500D01*
G37*
X67742000Y-128714500D02*
X68250000Y-128714500D01*
X68250000Y-128714500D02*
X68250000Y-127825500D01*
X68250000Y-127825500D02*
X67742000Y-127825500D01*
X67742000Y-127825500D02*
X67742000Y-128714500D01*
G36*
X67742000Y-128714500D02*
G01*
X68250000Y-128714500D01*
X68250000Y-127825500D01*
X67742000Y-127825500D01*
X67742000Y-128714500D01*
G37*
X70282000Y-128714500D02*
X70790000Y-128714500D01*
X70790000Y-128714500D02*
X70790000Y-127825500D01*
X70790000Y-127825500D02*
X70282000Y-127825500D01*
X70282000Y-127825500D02*
X70282000Y-128714500D01*
G36*
X70282000Y-128714500D02*
G01*
X70790000Y-128714500D01*
X70790000Y-127825500D01*
X70282000Y-127825500D01*
X70282000Y-128714500D01*
G37*
X72822000Y-128714500D02*
X73330000Y-128714500D01*
X73330000Y-128714500D02*
X73330000Y-127825500D01*
X73330000Y-127825500D02*
X72822000Y-127825500D01*
X72822000Y-127825500D02*
X72822000Y-128714500D01*
G36*
X72822000Y-128714500D02*
G01*
X73330000Y-128714500D01*
X73330000Y-127825500D01*
X72822000Y-127825500D01*
X72822000Y-128714500D01*
G37*
X75362000Y-128714500D02*
X75870000Y-128714500D01*
X75870000Y-128714500D02*
X75870000Y-127825500D01*
X75870000Y-127825500D02*
X75362000Y-127825500D01*
X75362000Y-127825500D02*
X75362000Y-128714500D01*
G36*
X75362000Y-128714500D02*
G01*
X75870000Y-128714500D01*
X75870000Y-127825500D01*
X75362000Y-127825500D01*
X75362000Y-128714500D01*
G37*
X77902000Y-128714500D02*
X78410000Y-128714500D01*
X78410000Y-128714500D02*
X78410000Y-127825500D01*
X78410000Y-127825500D02*
X77902000Y-127825500D01*
X77902000Y-127825500D02*
X77902000Y-128714500D01*
G36*
X77902000Y-128714500D02*
G01*
X78410000Y-128714500D01*
X78410000Y-127825500D01*
X77902000Y-127825500D01*
X77902000Y-128714500D01*
G37*
X80442000Y-128714500D02*
X80950000Y-128714500D01*
X80950000Y-128714500D02*
X80950000Y-127825500D01*
X80950000Y-127825500D02*
X80442000Y-127825500D01*
X80442000Y-127825500D02*
X80442000Y-128714500D01*
G36*
X80442000Y-128714500D02*
G01*
X80950000Y-128714500D01*
X80950000Y-127825500D01*
X80442000Y-127825500D01*
X80442000Y-128714500D01*
G37*
X82982000Y-128714500D02*
X83490000Y-128714500D01*
X83490000Y-128714500D02*
X83490000Y-127825500D01*
X83490000Y-127825500D02*
X82982000Y-127825500D01*
X82982000Y-127825500D02*
X82982000Y-128714500D01*
G36*
X82982000Y-128714500D02*
G01*
X83490000Y-128714500D01*
X83490000Y-127825500D01*
X82982000Y-127825500D01*
X82982000Y-128714500D01*
G37*
X85522000Y-128714500D02*
X86030000Y-128714500D01*
X86030000Y-128714500D02*
X86030000Y-127825500D01*
X86030000Y-127825500D02*
X85522000Y-127825500D01*
X85522000Y-127825500D02*
X85522000Y-128714500D01*
G36*
X85522000Y-128714500D02*
G01*
X86030000Y-128714500D01*
X86030000Y-127825500D01*
X85522000Y-127825500D01*
X85522000Y-128714500D01*
G37*
X88062000Y-128714500D02*
X88570000Y-128714500D01*
X88570000Y-128714500D02*
X88570000Y-127825500D01*
X88570000Y-127825500D02*
X88062000Y-127825500D01*
X88062000Y-127825500D02*
X88062000Y-128714500D01*
G36*
X88062000Y-128714500D02*
G01*
X88570000Y-128714500D01*
X88570000Y-127825500D01*
X88062000Y-127825500D01*
X88062000Y-128714500D01*
G37*
X90602000Y-128714500D02*
X91110000Y-128714500D01*
X91110000Y-128714500D02*
X91110000Y-127825500D01*
X91110000Y-127825500D02*
X90602000Y-127825500D01*
X90602000Y-127825500D02*
X90602000Y-128714500D01*
G36*
X90602000Y-128714500D02*
G01*
X91110000Y-128714500D01*
X91110000Y-127825500D01*
X90602000Y-127825500D01*
X90602000Y-128714500D01*
G37*
X93142000Y-128714500D02*
X93650000Y-128714500D01*
X93650000Y-128714500D02*
X93650000Y-127825500D01*
X93650000Y-127825500D02*
X93142000Y-127825500D01*
X93142000Y-127825500D02*
X93142000Y-128714500D01*
G36*
X93142000Y-128714500D02*
G01*
X93650000Y-128714500D01*
X93650000Y-127825500D01*
X93142000Y-127825500D01*
X93142000Y-128714500D01*
G37*
D11*
X94983500Y-134315200D02*
X94043700Y-134315200D01*
X94043700Y-134315200D02*
X94043700Y-133654800D01*
X94043700Y-133654800D02*
X94983500Y-133654800D01*
X94983500Y-133654800D02*
X94983500Y-134315200D01*
G36*
X94983500Y-134315200D02*
G01*
X94043700Y-134315200D01*
X94043700Y-133654800D01*
X94983500Y-133654800D01*
X94983500Y-134315200D01*
G37*
X88196300Y-139319000D02*
X87256500Y-139319000D01*
X87256500Y-139319000D02*
X87256500Y-138658600D01*
X87256500Y-138658600D02*
X88196300Y-138658600D01*
X88196300Y-138658600D02*
X88196300Y-139319000D01*
G36*
X88196300Y-139319000D02*
G01*
X87256500Y-139319000D01*
X87256500Y-138658600D01*
X88196300Y-138658600D01*
X88196300Y-139319000D01*
G37*
X93484900Y-134315200D02*
X92545100Y-134315200D01*
X92545100Y-134315200D02*
X92545100Y-133654800D01*
X92545100Y-133654800D02*
X93484900Y-133654800D01*
X93484900Y-133654800D02*
X93484900Y-134315200D01*
G36*
X93484900Y-134315200D02*
G01*
X92545100Y-134315200D01*
X92545100Y-133654800D01*
X93484900Y-133654800D01*
X93484900Y-134315200D01*
G37*
X36931800Y-125310900D02*
X37592200Y-125310900D01*
X37592200Y-125310900D02*
X37592200Y-124371100D01*
X37592200Y-124371100D02*
X36931800Y-124371100D01*
X36931800Y-124371100D02*
X36931800Y-125310900D01*
G36*
X36931800Y-125310900D02*
G01*
X37592200Y-125310900D01*
X37592200Y-124371100D01*
X36931800Y-124371100D01*
X36931800Y-125310900D01*
G37*
X89694900Y-139319000D02*
X88755100Y-139319000D01*
X88755100Y-139319000D02*
X88755100Y-138658600D01*
X88755100Y-138658600D02*
X89694900Y-138658600D01*
X89694900Y-138658600D02*
X89694900Y-139319000D01*
G36*
X89694900Y-139319000D02*
G01*
X88755100Y-139319000D01*
X88755100Y-138658600D01*
X89694900Y-138658600D01*
X89694900Y-139319000D01*
G37*
X94983500Y-139293600D02*
X94043700Y-139293600D01*
X94043700Y-139293600D02*
X94043700Y-138633200D01*
X94043700Y-138633200D02*
X94983500Y-138633200D01*
X94983500Y-138633200D02*
X94983500Y-139293600D01*
G36*
X94983500Y-139293600D02*
G01*
X94043700Y-139293600D01*
X94043700Y-138633200D01*
X94983500Y-138633200D01*
X94983500Y-139293600D01*
G37*
X57366100Y-115459800D02*
X58305900Y-115459800D01*
X58305900Y-115459800D02*
X58305900Y-116120200D01*
X58305900Y-116120200D02*
X57366100Y-116120200D01*
X57366100Y-116120200D02*
X57366100Y-115459800D01*
G36*
X57366100Y-115459800D02*
G01*
X58305900Y-115459800D01*
X58305900Y-116120200D01*
X57366100Y-116120200D01*
X57366100Y-115459800D01*
G37*
X58178900Y-121107200D02*
X57239100Y-121107200D01*
X57239100Y-121107200D02*
X57239100Y-120446800D01*
X57239100Y-120446800D02*
X58178900Y-120446800D01*
X58178900Y-120446800D02*
X58178900Y-121107200D01*
G36*
X58178900Y-121107200D02*
G01*
X57239100Y-121107200D01*
X57239100Y-120446800D01*
X58178900Y-120446800D01*
X58178900Y-121107200D01*
G37*
X89649500Y-134289800D02*
X88709700Y-134289800D01*
X88709700Y-134289800D02*
X88709700Y-133629400D01*
X88709700Y-133629400D02*
X89649500Y-133629400D01*
X89649500Y-133629400D02*
X89649500Y-134289800D01*
G36*
X89649500Y-134289800D02*
G01*
X88709700Y-134289800D01*
X88709700Y-133629400D01*
X89649500Y-133629400D01*
X89649500Y-134289800D01*
G37*
X88150900Y-134289800D02*
X87211100Y-134289800D01*
X87211100Y-134289800D02*
X87211100Y-133629400D01*
X87211100Y-133629400D02*
X88150900Y-133629400D01*
X88150900Y-133629400D02*
X88150900Y-134289800D01*
G36*
X88150900Y-134289800D02*
G01*
X87211100Y-134289800D01*
X87211100Y-133629400D01*
X88150900Y-133629400D01*
X88150900Y-134289800D01*
G37*
D13*
X41598051Y-106475123D03*
X39802000Y-108271174D03*
X38005948Y-110067226D03*
X36209897Y-111863277D03*
D14*
X92380000Y-121285000D03*
X92380000Y-118745000D03*
X92380000Y-116205000D03*
D15*
X80442000Y-122428000D03*
D16*
X82982000Y-122428000D03*
X85522000Y-122428000D03*
X88062000Y-122428000D03*
X88062000Y-114808000D03*
X85522000Y-114808000D03*
X82982000Y-114808000D03*
X80442000Y-114808000D03*
D17*
X111557135Y-113499135D03*
X108445865Y-110387865D03*
D18*
X35738000Y-120936000D03*
X35738000Y-122936000D03*
X35738000Y-126936000D03*
X35738000Y-128936000D03*
X39038000Y-120936000D03*
X39038000Y-122936000D03*
X39038000Y-126936000D03*
X39038000Y-128936000D03*
D19*
X55296000Y-106578400D03*
X55296000Y-110998000D03*
D20*
X37770000Y-138430000D03*
X53010000Y-138430000D03*
X53010000Y-138430000D03*
X68250000Y-138430000D03*
X68250000Y-138430000D03*
X83490000Y-138430000D03*
X83490000Y-138430000D03*
X98730000Y-138430000D03*
X98730000Y-138430000D03*
X113970000Y-138430000D03*
D21*
X39040000Y-143510000D03*
X39040000Y-158750000D03*
X41580000Y-143510000D03*
X41580000Y-158750000D03*
X44120000Y-143510000D03*
X44120000Y-158750000D03*
X46660000Y-143510000D03*
X46660000Y-158750000D03*
X49200000Y-143510000D03*
X49200000Y-158750000D03*
X51740000Y-143510000D03*
X51740000Y-158750000D03*
X54280000Y-143510000D03*
X54280000Y-158750000D03*
X56820000Y-143510000D03*
X56820000Y-158750000D03*
X59360000Y-143510000D03*
X59360000Y-158750000D03*
X61900000Y-143510000D03*
X61900000Y-158750000D03*
X64440000Y-143510000D03*
X64440000Y-158750000D03*
X66980000Y-143510000D03*
X66980000Y-158750000D03*
X69520000Y-143510000D03*
X69520000Y-158750000D03*
X72060000Y-143510000D03*
X72060000Y-158750000D03*
X74600000Y-143510000D03*
X74600000Y-158750000D03*
X77140000Y-143510000D03*
X77140000Y-158750000D03*
X79680000Y-143510000D03*
X79680000Y-158750000D03*
X82220000Y-143510000D03*
X82220000Y-158750000D03*
X84760000Y-143510000D03*
X84760000Y-158750000D03*
X87300000Y-143510000D03*
X87300000Y-158750000D03*
X89840000Y-143510000D03*
X89840000Y-158750000D03*
X92380000Y-143510000D03*
X92380000Y-158750000D03*
X94920000Y-143510000D03*
X94920000Y-158750000D03*
X97460000Y-143510000D03*
X97460000Y-158750000D03*
X100000000Y-143510000D03*
X100000000Y-158750000D03*
X102540000Y-143510000D03*
X102540000Y-158750000D03*
X105080000Y-143510000D03*
X105080000Y-158750000D03*
X107620000Y-143510000D03*
X107620000Y-158750000D03*
X110160000Y-143510000D03*
X110160000Y-158750000D03*
X112700000Y-143510000D03*
X112700000Y-158750000D03*
D20*
X37770000Y-135890000D03*
X53010000Y-135890000D03*
X53010000Y-135890000D03*
X68250000Y-135890000D03*
X68250000Y-135890000D03*
X83490000Y-135890000D03*
X83490000Y-135890000D03*
X98730000Y-135890000D03*
X98730000Y-135890000D03*
X113970000Y-135890000D03*
X37770000Y-184150000D03*
X53010000Y-184150000D03*
X53010000Y-184150000D03*
X68250000Y-184150000D03*
X68250000Y-184150000D03*
X83490000Y-184150000D03*
X83490000Y-184150000D03*
X98730000Y-184150000D03*
X98730000Y-184150000D03*
X113970000Y-184150000D03*
D21*
X39040000Y-161290000D03*
X39040000Y-176530000D03*
X41580000Y-161290000D03*
X41580000Y-176530000D03*
X44120000Y-161290000D03*
X44120000Y-176530000D03*
X46660000Y-161290000D03*
X46660000Y-176530000D03*
X49200000Y-161290000D03*
X49200000Y-176530000D03*
X51740000Y-161290000D03*
X51740000Y-176530000D03*
X54280000Y-161290000D03*
X54280000Y-176530000D03*
X56820000Y-161290000D03*
X56820000Y-176530000D03*
X59360000Y-161290000D03*
X59360000Y-176530000D03*
X61900000Y-161290000D03*
X61900000Y-176530000D03*
X64440000Y-161290000D03*
X64440000Y-176530000D03*
X66980000Y-161290000D03*
X66980000Y-176530000D03*
X69520000Y-161290000D03*
X69520000Y-176530000D03*
X72060000Y-161290000D03*
X72060000Y-176530000D03*
X74600000Y-161290000D03*
X74600000Y-176530000D03*
X77140000Y-161290000D03*
X77140000Y-176530000D03*
X79680000Y-161290000D03*
X79680000Y-176530000D03*
X82220000Y-161290000D03*
X82220000Y-176530000D03*
X84760000Y-161290000D03*
X84760000Y-176530000D03*
X87300000Y-161290000D03*
X87300000Y-176530000D03*
X89840000Y-161290000D03*
X89840000Y-176530000D03*
X92380000Y-161290000D03*
X92380000Y-176530000D03*
X94920000Y-161290000D03*
X94920000Y-176530000D03*
X97460000Y-161290000D03*
X97460000Y-176530000D03*
X100000000Y-161290000D03*
X100000000Y-176530000D03*
X102540000Y-161290000D03*
X102540000Y-176530000D03*
X105080000Y-161290000D03*
X105080000Y-176530000D03*
X107620000Y-161290000D03*
X107620000Y-176530000D03*
X110160000Y-161290000D03*
X110160000Y-176530000D03*
X112700000Y-161290000D03*
X112700000Y-176530000D03*
D20*
X37770000Y-181610000D03*
X53010000Y-181610000D03*
X53010000Y-181610000D03*
X68250000Y-181622700D03*
X68250000Y-181622700D03*
X83490000Y-181610000D03*
X83490000Y-181610000D03*
X98730000Y-181610000D03*
X98730000Y-181610000D03*
X113970000Y-181610000D03*
D22*
X93396000Y-110911000D03*
D16*
X90856000Y-110911000D03*
X88316000Y-110911000D03*
X85776000Y-110911000D03*
X83236000Y-110911000D03*
X80696000Y-110911000D03*
X78156000Y-110911000D03*
X75616000Y-110911000D03*
X73076000Y-110911000D03*
X70536000Y-110911000D03*
X67996000Y-110911000D03*
X65456000Y-110911000D03*
X62916000Y-110911000D03*
X60376000Y-110911000D03*
X57836000Y-110911000D03*
X57836000Y-126151000D03*
X60376000Y-126151000D03*
X62916000Y-126151000D03*
X65456000Y-126151000D03*
X67996000Y-126151000D03*
X70536000Y-126151000D03*
X73076000Y-126151000D03*
X75616000Y-126151000D03*
X78156000Y-126151000D03*
X80696000Y-126151000D03*
X83236000Y-126151000D03*
X85776000Y-126151000D03*
X88316000Y-126151000D03*
X90856000Y-126151000D03*
X93396000Y-126151000D03*
D19*
X95936000Y-106426000D03*
D23*
X98708683Y-121551193D03*
X99259317Y-120764807D03*
D24*
X47930000Y-179070000D03*
D25*
X116129000Y-124968000D03*
D26*
X82982000Y-120142000D03*
X82982000Y-117017000D03*
D25*
X116129000Y-127000000D03*
D27*
X67615000Y-132971000D03*
X67615000Y-131951000D03*
D28*
X80442000Y-117602000D03*
D27*
X48438000Y-136906000D03*
X48438000Y-135886000D03*
D29*
X69520000Y-116840000D03*
X69520000Y-114740000D03*
D30*
X43358000Y-138172000D03*
X43358000Y-139192000D03*
D29*
X63551000Y-121700000D03*
X63551000Y-119600000D03*
D31*
X61186000Y-164895000D03*
X61186000Y-165695000D03*
X61186000Y-166495000D03*
X61186000Y-167295000D03*
X61186000Y-168095000D03*
X61186000Y-168895000D03*
X61186000Y-169695000D03*
X61186000Y-170495000D03*
X61186000Y-171295000D03*
X61186000Y-172095000D03*
X61186000Y-172895000D03*
D32*
X59486000Y-174595000D03*
X58686000Y-174595000D03*
X57886000Y-174595000D03*
X57086000Y-174595000D03*
X56286000Y-174595000D03*
X55486000Y-174595000D03*
X54686000Y-174595000D03*
X53886000Y-174595000D03*
X53086000Y-174595000D03*
X52286000Y-174595000D03*
X51486000Y-174595000D03*
D31*
X49786000Y-172895000D03*
X49786000Y-172095000D03*
X49786000Y-171295000D03*
X49786000Y-170495000D03*
X49786000Y-169695000D03*
X49786000Y-168895000D03*
X49786000Y-168095000D03*
X49786000Y-167295000D03*
X49786000Y-166495000D03*
X49786000Y-165695000D03*
X49786000Y-164895000D03*
D32*
X51486000Y-163195000D03*
X52286000Y-163195000D03*
X53086000Y-163195000D03*
X53886000Y-163195000D03*
X54686000Y-163195000D03*
X55486000Y-163195000D03*
X56286000Y-163195000D03*
X57086000Y-163195000D03*
X57886000Y-163195000D03*
X58686000Y-163195000D03*
X59486000Y-163195000D03*
D24*
X103810000Y-179070000D03*
X42850000Y-111760000D03*
D33*
X90285000Y-179070000D03*
X91935000Y-179070000D03*
D34*
X93015000Y-139776200D03*
D35*
X93015000Y-138150600D03*
D27*
X49962000Y-134620000D03*
X49962000Y-133600000D03*
D30*
X44882000Y-138172000D03*
X44882000Y-139192000D03*
D36*
X52197200Y-115138200D03*
X46609200Y-115138200D03*
D25*
X116129000Y-131064000D03*
D37*
X48438000Y-134592000D03*
X48438000Y-133632000D03*
D38*
X110965649Y-121249708D03*
X111132351Y-120304292D03*
D30*
X41834000Y-138172000D03*
X41834000Y-139192000D03*
D31*
X74824000Y-147091600D03*
X74824000Y-147891600D03*
X74824000Y-148691600D03*
X74824000Y-149491600D03*
X74824000Y-150291600D03*
X74824000Y-151091600D03*
X74824000Y-151891600D03*
X74824000Y-152691600D03*
X74824000Y-153491600D03*
X74824000Y-154291600D03*
X74824000Y-155091600D03*
D32*
X73124000Y-156791600D03*
X72324000Y-156791600D03*
X71524000Y-156791600D03*
X70724000Y-156791600D03*
X69924000Y-156791600D03*
X69124000Y-156791600D03*
X68324000Y-156791600D03*
X67524000Y-156791600D03*
X66724000Y-156791600D03*
X65924000Y-156791600D03*
X65124000Y-156791600D03*
D31*
X63424000Y-155091600D03*
X63424000Y-154291600D03*
X63424000Y-153491600D03*
X63424000Y-152691600D03*
X63424000Y-151891600D03*
X63424000Y-151091600D03*
X63424000Y-150291600D03*
X63424000Y-149491600D03*
X63424000Y-148691600D03*
X63424000Y-147891600D03*
X63424000Y-147091600D03*
D32*
X65124000Y-145391600D03*
X65924000Y-145391600D03*
X66724000Y-145391600D03*
X67524000Y-145391600D03*
X68324000Y-145391600D03*
X69124000Y-145391600D03*
X69924000Y-145391600D03*
X70724000Y-145391600D03*
X71524000Y-145391600D03*
X72324000Y-145391600D03*
X73124000Y-145391600D03*
D25*
X116510000Y-141605000D03*
D33*
X59932000Y-179070000D03*
X61582000Y-179070000D03*
D27*
X46914000Y-139192000D03*
X46914000Y-138172000D03*
D39*
X113578489Y-112821683D03*
X109123717Y-108366911D03*
X110891483Y-115508689D03*
X106436711Y-111053917D03*
D31*
X115796000Y-147089600D03*
X115796000Y-147889600D03*
X115796000Y-148689600D03*
X115796000Y-149489600D03*
X115796000Y-150289600D03*
X115796000Y-151089600D03*
X115796000Y-151889600D03*
X115796000Y-152689600D03*
X115796000Y-153489600D03*
X115796000Y-154289600D03*
X115796000Y-155089600D03*
D32*
X114096000Y-156789600D03*
X113296000Y-156789600D03*
X112496000Y-156789600D03*
X111696000Y-156789600D03*
X110896000Y-156789600D03*
X110096000Y-156789600D03*
X109296000Y-156789600D03*
X108496000Y-156789600D03*
X107696000Y-156789600D03*
X106896000Y-156789600D03*
X106096000Y-156789600D03*
D31*
X104396000Y-155089600D03*
X104396000Y-154289600D03*
X104396000Y-153489600D03*
X104396000Y-152689600D03*
X104396000Y-151889600D03*
X104396000Y-151089600D03*
X104396000Y-150289600D03*
X104396000Y-149489600D03*
X104396000Y-148689600D03*
X104396000Y-147889600D03*
X104396000Y-147089600D03*
D32*
X106096000Y-145389600D03*
X106896000Y-145389600D03*
X107696000Y-145389600D03*
X108496000Y-145389600D03*
X109296000Y-145389600D03*
X110096000Y-145389600D03*
X110896000Y-145389600D03*
X111696000Y-145389600D03*
X112496000Y-145389600D03*
X113296000Y-145389600D03*
X114096000Y-145389600D03*
D28*
X47168000Y-105664000D03*
X45898000Y-105664000D03*
D40*
X44628000Y-130556000D03*
X43678000Y-130556000D03*
X42728000Y-130556000D03*
X42728000Y-128281000D03*
X43678000Y-128281000D03*
X44628000Y-128281000D03*
D34*
X94513600Y-134797800D03*
D35*
X94513600Y-133172200D03*
D27*
X68885000Y-132968999D03*
X68885000Y-131948999D03*
D41*
X70917000Y-183555000D03*
X70917000Y-185105000D03*
D31*
X88428000Y-147091600D03*
X88428000Y-147891600D03*
X88428000Y-148691600D03*
X88428000Y-149491600D03*
X88428000Y-150291600D03*
X88428000Y-151091600D03*
X88428000Y-151891600D03*
X88428000Y-152691600D03*
X88428000Y-153491600D03*
X88428000Y-154291600D03*
X88428000Y-155091600D03*
D32*
X86728000Y-156791600D03*
X85928000Y-156791600D03*
X85128000Y-156791600D03*
X84328000Y-156791600D03*
X83528000Y-156791600D03*
X82728000Y-156791600D03*
X81928000Y-156791600D03*
X81128000Y-156791600D03*
X80328000Y-156791600D03*
X79528000Y-156791600D03*
X78728000Y-156791600D03*
D31*
X77028000Y-155091600D03*
X77028000Y-154291600D03*
X77028000Y-153491600D03*
X77028000Y-152691600D03*
X77028000Y-151891600D03*
X77028000Y-151091600D03*
X77028000Y-150291600D03*
X77028000Y-149491600D03*
X77028000Y-148691600D03*
X77028000Y-147891600D03*
X77028000Y-147091600D03*
D32*
X78728000Y-145391600D03*
X79528000Y-145391600D03*
X80328000Y-145391600D03*
X81128000Y-145391600D03*
X81928000Y-145391600D03*
X82728000Y-145391600D03*
X83528000Y-145391600D03*
X84328000Y-145391600D03*
X85128000Y-145391600D03*
X85928000Y-145391600D03*
X86728000Y-145391600D03*
D42*
X108674439Y-117099748D03*
X108851561Y-118104252D03*
D27*
X43231000Y-117223000D03*
X43231000Y-116203000D03*
D43*
X111151614Y-129709634D03*
X111938000Y-129159000D03*
D44*
X72060000Y-119600000D03*
X72060000Y-121700000D03*
D37*
X44882000Y-136878000D03*
X44882000Y-135918000D03*
X41834000Y-136878000D03*
X41834000Y-135918000D03*
D45*
X114097000Y-121539000D03*
X114097000Y-119339000D03*
X115797000Y-119339000D03*
X115797000Y-121539000D03*
D34*
X87726400Y-139801600D03*
D35*
X87726400Y-138176000D03*
D46*
X56566000Y-132145000D03*
X57836000Y-132145000D03*
X59106000Y-132145000D03*
X60376000Y-132145000D03*
X61646000Y-132145000D03*
X62916000Y-132145000D03*
X64186000Y-132145000D03*
X64186000Y-137095000D03*
X62916000Y-137095000D03*
X61646000Y-137095000D03*
X60376000Y-137095000D03*
X59106000Y-137095000D03*
X57836000Y-137095000D03*
X56566000Y-137095000D03*
X72060000Y-132210000D03*
X73330000Y-132210000D03*
X74600000Y-132210000D03*
X75870000Y-132210000D03*
X77140000Y-132210000D03*
X78410000Y-132210000D03*
X79680000Y-132210000D03*
X79680000Y-137160000D03*
X78410000Y-137160000D03*
X77140000Y-137160000D03*
X75870000Y-137160000D03*
X74600000Y-137160000D03*
X73330000Y-137160000D03*
X72060000Y-137160000D03*
D44*
X72060000Y-114774000D03*
X72060000Y-116874000D03*
D46*
X41072000Y-119510000D03*
X42342000Y-119510000D03*
X43612000Y-119510000D03*
X44882000Y-119510000D03*
X46152000Y-119510000D03*
X47422000Y-119510000D03*
X48692000Y-119510000D03*
X49962000Y-119510000D03*
X49962000Y-124460000D03*
X48692000Y-124460000D03*
X47422000Y-124460000D03*
X46152000Y-124460000D03*
X44882000Y-124460000D03*
X43612000Y-124460000D03*
X42342000Y-124460000D03*
X41072000Y-124460000D03*
D37*
X51740000Y-123416000D03*
X51740000Y-122456000D03*
D47*
X101230622Y-117371109D03*
X100293378Y-117578891D03*
D31*
X74776000Y-164895000D03*
X74776000Y-165695000D03*
X74776000Y-166495000D03*
X74776000Y-167295000D03*
X74776000Y-168095000D03*
X74776000Y-168895000D03*
X74776000Y-169695000D03*
X74776000Y-170495000D03*
X74776000Y-171295000D03*
X74776000Y-172095000D03*
X74776000Y-172895000D03*
D32*
X73076000Y-174595000D03*
X72276000Y-174595000D03*
X71476000Y-174595000D03*
X70676000Y-174595000D03*
X69876000Y-174595000D03*
X69076000Y-174595000D03*
X68276000Y-174595000D03*
X67476000Y-174595000D03*
X66676000Y-174595000D03*
X65876000Y-174595000D03*
X65076000Y-174595000D03*
D31*
X63376000Y-172895000D03*
X63376000Y-172095000D03*
X63376000Y-171295000D03*
X63376000Y-170495000D03*
X63376000Y-169695000D03*
X63376000Y-168895000D03*
X63376000Y-168095000D03*
X63376000Y-167295000D03*
X63376000Y-166495000D03*
X63376000Y-165695000D03*
X63376000Y-164895000D03*
D32*
X65076000Y-163195000D03*
X65876000Y-163195000D03*
X66676000Y-163195000D03*
X67476000Y-163195000D03*
X68276000Y-163195000D03*
X69076000Y-163195000D03*
X69876000Y-163195000D03*
X70676000Y-163195000D03*
X71476000Y-163195000D03*
X72276000Y-163195000D03*
X73076000Y-163195000D03*
D27*
X48438000Y-139192000D03*
X48438000Y-138172000D03*
D30*
X43358000Y-133600000D03*
X43358000Y-134620000D03*
D27*
X49962000Y-136906000D03*
X49962000Y-135886000D03*
D28*
X52248000Y-105664000D03*
D31*
X47496400Y-147119600D03*
X47496400Y-147919600D03*
X47496400Y-148719600D03*
X47496400Y-149519600D03*
X47496400Y-150319600D03*
X47496400Y-151119600D03*
X47496400Y-151919600D03*
X47496400Y-152719600D03*
X47496400Y-153519600D03*
X47496400Y-154319600D03*
X47496400Y-155119600D03*
D32*
X45796400Y-156819600D03*
X44996400Y-156819600D03*
X44196400Y-156819600D03*
X43396400Y-156819600D03*
X42596400Y-156819600D03*
X41796400Y-156819600D03*
X40996400Y-156819600D03*
X40196400Y-156819600D03*
X39396400Y-156819600D03*
X38596400Y-156819600D03*
X37796400Y-156819600D03*
D31*
X36096400Y-155119600D03*
X36096400Y-154319600D03*
X36096400Y-153519600D03*
X36096400Y-152719600D03*
X36096400Y-151919600D03*
X36096400Y-151119600D03*
X36096400Y-150319600D03*
X36096400Y-149519600D03*
X36096400Y-148719600D03*
X36096400Y-147919600D03*
X36096400Y-147119600D03*
D32*
X37796400Y-145419600D03*
X38596400Y-145419600D03*
X39396400Y-145419600D03*
X40196400Y-145419600D03*
X40996400Y-145419600D03*
X41796400Y-145419600D03*
X42596400Y-145419600D03*
X43396400Y-145419600D03*
X44196400Y-145419600D03*
X44996400Y-145419600D03*
X45796400Y-145419600D03*
D34*
X93015000Y-134797800D03*
D35*
X93015000Y-133172200D03*
D25*
X116129000Y-129032000D03*
D26*
X85522000Y-120142000D03*
X85522000Y-117017000D03*
D48*
X36449200Y-124841000D03*
D49*
X38074800Y-124841000D03*
D50*
X98730000Y-106890000D03*
X100000000Y-106890000D03*
X101270000Y-106890000D03*
X102540000Y-106890000D03*
X102540000Y-114090000D03*
X101270000Y-114090000D03*
X100000000Y-114090000D03*
X98730000Y-114090000D03*
D51*
X103593170Y-121482052D03*
X103264830Y-120579948D03*
D31*
X102106000Y-164895000D03*
X102106000Y-165695000D03*
X102106000Y-166495000D03*
X102106000Y-167295000D03*
X102106000Y-168095000D03*
X102106000Y-168895000D03*
X102106000Y-169695000D03*
X102106000Y-170495000D03*
X102106000Y-171295000D03*
X102106000Y-172095000D03*
X102106000Y-172895000D03*
D32*
X100406000Y-174595000D03*
X99606000Y-174595000D03*
X98806000Y-174595000D03*
X98006000Y-174595000D03*
X97206000Y-174595000D03*
X96406000Y-174595000D03*
X95606000Y-174595000D03*
X94806000Y-174595000D03*
X94006000Y-174595000D03*
X93206000Y-174595000D03*
X92406000Y-174595000D03*
D31*
X90706000Y-172895000D03*
X90706000Y-172095000D03*
X90706000Y-171295000D03*
X90706000Y-170495000D03*
X90706000Y-169695000D03*
X90706000Y-168895000D03*
X90706000Y-168095000D03*
X90706000Y-167295000D03*
X90706000Y-166495000D03*
X90706000Y-165695000D03*
X90706000Y-164895000D03*
D32*
X92406000Y-163195000D03*
X93206000Y-163195000D03*
X94006000Y-163195000D03*
X94806000Y-163195000D03*
X95606000Y-163195000D03*
X96406000Y-163195000D03*
X97206000Y-163195000D03*
X98006000Y-163195000D03*
X98806000Y-163195000D03*
X99606000Y-163195000D03*
X100406000Y-163195000D03*
D52*
X110289363Y-124901432D03*
X111300637Y-125034568D03*
D41*
X115367000Y-159258000D03*
X115367000Y-160808000D03*
D28*
X49708000Y-105664000D03*
D31*
X61173600Y-147091600D03*
X61173600Y-147891600D03*
X61173600Y-148691600D03*
X61173600Y-149491600D03*
X61173600Y-150291600D03*
X61173600Y-151091600D03*
X61173600Y-151891600D03*
X61173600Y-152691600D03*
X61173600Y-153491600D03*
X61173600Y-154291600D03*
X61173600Y-155091600D03*
D32*
X59473600Y-156791600D03*
X58673600Y-156791600D03*
X57873600Y-156791600D03*
X57073600Y-156791600D03*
X56273600Y-156791600D03*
X55473600Y-156791600D03*
X54673600Y-156791600D03*
X53873600Y-156791600D03*
X53073600Y-156791600D03*
X52273600Y-156791600D03*
X51473600Y-156791600D03*
D31*
X49773600Y-155091600D03*
X49773600Y-154291600D03*
X49773600Y-153491600D03*
X49773600Y-152691600D03*
X49773600Y-151891600D03*
X49773600Y-151091600D03*
X49773600Y-150291600D03*
X49773600Y-149491600D03*
X49773600Y-148691600D03*
X49773600Y-147891600D03*
X49773600Y-147091600D03*
D32*
X51473600Y-145391600D03*
X52273600Y-145391600D03*
X53073600Y-145391600D03*
X53873600Y-145391600D03*
X54673600Y-145391600D03*
X55473600Y-145391600D03*
X56273600Y-145391600D03*
X57073600Y-145391600D03*
X57873600Y-145391600D03*
X58673600Y-145391600D03*
X59473600Y-145391600D03*
D28*
X35880000Y-117094000D03*
D31*
X47572000Y-164895000D03*
X47572000Y-165695000D03*
X47572000Y-166495000D03*
X47572000Y-167295000D03*
X47572000Y-168095000D03*
X47572000Y-168895000D03*
X47572000Y-169695000D03*
X47572000Y-170495000D03*
X47572000Y-171295000D03*
X47572000Y-172095000D03*
X47572000Y-172895000D03*
D32*
X45872000Y-174595000D03*
X45072000Y-174595000D03*
X44272000Y-174595000D03*
X43472000Y-174595000D03*
X42672000Y-174595000D03*
X41872000Y-174595000D03*
X41072000Y-174595000D03*
X40272000Y-174595000D03*
X39472000Y-174595000D03*
X38672000Y-174595000D03*
X37872000Y-174595000D03*
D31*
X36172000Y-172895000D03*
X36172000Y-172095000D03*
X36172000Y-171295000D03*
X36172000Y-170495000D03*
X36172000Y-169695000D03*
X36172000Y-168895000D03*
X36172000Y-168095000D03*
X36172000Y-167295000D03*
X36172000Y-166495000D03*
X36172000Y-165695000D03*
X36172000Y-164895000D03*
D32*
X37872000Y-163195000D03*
X38672000Y-163195000D03*
X39472000Y-163195000D03*
X40272000Y-163195000D03*
X41072000Y-163195000D03*
X41872000Y-163195000D03*
X42672000Y-163195000D03*
X43472000Y-163195000D03*
X44272000Y-163195000D03*
X45072000Y-163195000D03*
X45872000Y-163195000D03*
D37*
X43358000Y-136850000D03*
X43358000Y-135890000D03*
D28*
X35865000Y-115316000D03*
X80442000Y-119634000D03*
D44*
X66980000Y-119600000D03*
X66980000Y-121700000D03*
D34*
X89225000Y-139801600D03*
D35*
X89225000Y-138176000D03*
D53*
X93585000Y-180848000D03*
X93585000Y-182118000D03*
X93585000Y-183388000D03*
X93585000Y-184658000D03*
X88635000Y-184658000D03*
X88635000Y-183388000D03*
X88635000Y-182118000D03*
X88635000Y-180848000D03*
D40*
X50033200Y-130556000D03*
X49083200Y-130556000D03*
X48133200Y-130556000D03*
X48133200Y-128281000D03*
X49083200Y-128281000D03*
X50033200Y-128281000D03*
D31*
X115819600Y-164895000D03*
X115819600Y-165695000D03*
X115819600Y-166495000D03*
X115819600Y-167295000D03*
X115819600Y-168095000D03*
X115819600Y-168895000D03*
X115819600Y-169695000D03*
X115819600Y-170495000D03*
X115819600Y-171295000D03*
X115819600Y-172095000D03*
X115819600Y-172895000D03*
D32*
X114119600Y-174595000D03*
X113319600Y-174595000D03*
X112519600Y-174595000D03*
X111719600Y-174595000D03*
X110919600Y-174595000D03*
X110119600Y-174595000D03*
X109319600Y-174595000D03*
X108519600Y-174595000D03*
X107719600Y-174595000D03*
X106919600Y-174595000D03*
X106119600Y-174595000D03*
D31*
X104419600Y-172895000D03*
X104419600Y-172095000D03*
X104419600Y-171295000D03*
X104419600Y-170495000D03*
X104419600Y-169695000D03*
X104419600Y-168895000D03*
X104419600Y-168095000D03*
X104419600Y-167295000D03*
X104419600Y-166495000D03*
X104419600Y-165695000D03*
X104419600Y-164895000D03*
D32*
X106119600Y-163195000D03*
X106919600Y-163195000D03*
X107719600Y-163195000D03*
X108519600Y-163195000D03*
X109319600Y-163195000D03*
X110119600Y-163195000D03*
X110919600Y-163195000D03*
X111719600Y-163195000D03*
X112519600Y-163195000D03*
X113319600Y-163195000D03*
X114119600Y-163195000D03*
D30*
X46914000Y-133600000D03*
X46914000Y-134620000D03*
D54*
X99241904Y-129389172D03*
X98726096Y-130198828D03*
D55*
X105041535Y-115270217D03*
X104610465Y-114345783D03*
D56*
X104459000Y-132172308D03*
X104939000Y-133003692D03*
D25*
X35230000Y-141605000D03*
D41*
X70917000Y-179679000D03*
X70917000Y-181229000D03*
D27*
X46914000Y-136906000D03*
X46914000Y-135886000D03*
D34*
X94513600Y-139776200D03*
D35*
X94513600Y-138150600D03*
D57*
X73634000Y-184672000D03*
X73634000Y-182372000D03*
D58*
X79934000Y-182372000D03*
D57*
X73634000Y-180072000D03*
D29*
X69520000Y-121700000D03*
X69520000Y-119600000D03*
D35*
X57836000Y-114977200D03*
D34*
X57836000Y-116602800D03*
D28*
X53518000Y-105664000D03*
X50978000Y-105664000D03*
D59*
X105090089Y-118634616D03*
X106085911Y-118855384D03*
D44*
X63424000Y-114740000D03*
X63424000Y-116840000D03*
D30*
X44882000Y-133598000D03*
X44882000Y-134618000D03*
D44*
X60757000Y-119600000D03*
X60757000Y-121700000D03*
D30*
X41834000Y-133600000D03*
X41834000Y-134620000D03*
D34*
X57709000Y-121589800D03*
D35*
X57709000Y-119964200D03*
D31*
X102129000Y-147089600D03*
X102129000Y-147889600D03*
X102129000Y-148689600D03*
X102129000Y-149489600D03*
X102129000Y-150289600D03*
X102129000Y-151089600D03*
X102129000Y-151889600D03*
X102129000Y-152689600D03*
X102129000Y-153489600D03*
X102129000Y-154289600D03*
X102129000Y-155089600D03*
D32*
X100429000Y-156789600D03*
X99629000Y-156789600D03*
X98829000Y-156789600D03*
X98029000Y-156789600D03*
X97229000Y-156789600D03*
X96429000Y-156789600D03*
X95629000Y-156789600D03*
X94829000Y-156789600D03*
X94029000Y-156789600D03*
X93229000Y-156789600D03*
X92429000Y-156789600D03*
D31*
X90729000Y-155089600D03*
X90729000Y-154289600D03*
X90729000Y-153489600D03*
X90729000Y-152689600D03*
X90729000Y-151889600D03*
X90729000Y-151089600D03*
X90729000Y-150289600D03*
X90729000Y-149489600D03*
X90729000Y-148689600D03*
X90729000Y-147889600D03*
X90729000Y-147089600D03*
D32*
X92429000Y-145389600D03*
X93229000Y-145389600D03*
X94029000Y-145389600D03*
X94829000Y-145389600D03*
X95629000Y-145389600D03*
X96429000Y-145389600D03*
X97229000Y-145389600D03*
X98029000Y-145389600D03*
X98829000Y-145389600D03*
X99629000Y-145389600D03*
X100429000Y-145389600D03*
D60*
X107784170Y-121722948D03*
X107455830Y-122625052D03*
D34*
X89179600Y-134772400D03*
D35*
X89179600Y-133146800D03*
D37*
X51740000Y-121130000D03*
X51740000Y-120170000D03*
D61*
X88062000Y-117017000D03*
X88062000Y-120142000D03*
D29*
X60884000Y-116840000D03*
X60884000Y-114740000D03*
D31*
X88466000Y-164895000D03*
X88466000Y-165695000D03*
X88466000Y-166495000D03*
X88466000Y-167295000D03*
X88466000Y-168095000D03*
X88466000Y-168895000D03*
X88466000Y-169695000D03*
X88466000Y-170495000D03*
X88466000Y-171295000D03*
X88466000Y-172095000D03*
X88466000Y-172895000D03*
D32*
X86766000Y-174595000D03*
X85966000Y-174595000D03*
X85166000Y-174595000D03*
X84366000Y-174595000D03*
X83566000Y-174595000D03*
X82766000Y-174595000D03*
X81966000Y-174595000D03*
X81166000Y-174595000D03*
X80366000Y-174595000D03*
X79566000Y-174595000D03*
X78766000Y-174595000D03*
D31*
X77066000Y-172895000D03*
X77066000Y-172095000D03*
X77066000Y-171295000D03*
X77066000Y-170495000D03*
X77066000Y-169695000D03*
X77066000Y-168895000D03*
X77066000Y-168095000D03*
X77066000Y-167295000D03*
X77066000Y-166495000D03*
X77066000Y-165695000D03*
X77066000Y-164895000D03*
D32*
X78766000Y-163195000D03*
X79566000Y-163195000D03*
X80366000Y-163195000D03*
X81166000Y-163195000D03*
X81966000Y-163195000D03*
X82766000Y-163195000D03*
X83566000Y-163195000D03*
X84366000Y-163195000D03*
X85166000Y-163195000D03*
X85966000Y-163195000D03*
X86766000Y-163195000D03*
D62*
X105357828Y-123821096D03*
X104548172Y-124336904D03*
D27*
X49962000Y-139192000D03*
X49962000Y-138172000D03*
D34*
X87681000Y-134772400D03*
D35*
X87681000Y-133146800D03*
D63*
X36500000Y-160795000D03*
X36500000Y-159245000D03*
D53*
X63105000Y-180721000D03*
X63105000Y-181991000D03*
X63105000Y-183261000D03*
X63105000Y-184531000D03*
X58155000Y-184531000D03*
X58155000Y-183261000D03*
X58155000Y-181991000D03*
X58155000Y-180721000D03*
D27*
X42215000Y-117220999D03*
X42215000Y-116200999D03*
M02*
