%TF.GenerationSoftware,KiCad,Pcbnew,7.0.5-0*%
%TF.CreationDate,2023-06-17T21:21:13-07:00*%
%TF.ProjectId,JumperlessLEDboard,4a756d70-6572-46c6-9573-734c4544626f,rev?*%
%TF.SameCoordinates,Original*%
%TF.FileFunction,Copper,L2,Bot*%
%TF.FilePolarity,Positive*%
%FSLAX46Y46*%
G04 Gerber Fmt 4.6, Leading zero omitted, Abs format (unit mm)*
G04 Created by KiCad (PCBNEW 7.0.5-0) date 2023-06-17 21:21:13*
%MOMM*%
%LPD*%
G01*
G04 APERTURE LIST*
G04 Aperture macros list*
%AMRoundRect*
0 Rectangle with rounded corners*
0 $1 Rounding radius*
0 $2 $3 $4 $5 $6 $7 $8 $9 X,Y pos of 4 corners*
0 Add a 4 corners polygon primitive as box body*
4,1,4,$2,$3,$4,$5,$6,$7,$8,$9,$2,$3,0*
0 Add four circle primitives for the rounded corners*
1,1,$1+$1,$2,$3*
1,1,$1+$1,$4,$5*
1,1,$1+$1,$6,$7*
1,1,$1+$1,$8,$9*
0 Add four rect primitives between the rounded corners*
20,1,$1+$1,$2,$3,$4,$5,0*
20,1,$1+$1,$4,$5,$6,$7,0*
20,1,$1+$1,$6,$7,$8,$9,0*
20,1,$1+$1,$8,$9,$2,$3,0*%
G04 Aperture macros list end*
%TA.AperFunction,ComponentPad*%
%ADD10RoundRect,0.455000X-0.195000X-0.195000X0.195000X-0.195000X0.195000X0.195000X-0.195000X0.195000X0*%
%TD*%
%TA.AperFunction,ViaPad*%
%ADD11C,0.350000*%
%TD*%
%TA.AperFunction,Conductor*%
%ADD12C,0.175000*%
%TD*%
G04 APERTURE END LIST*
D10*
%TO.P,J10,1,Pin_1*%
%TO.N,Net-(D100-VSS)*%
X125603000Y-67995800D03*
%TD*%
%TO.P,TP19,1,1*%
%TO.N,Net-(D122-DOUT)*%
X95123000Y-68072000D03*
%TD*%
%TO.P,TP18,1,1*%
%TO.N,Net-(D92-DIN)*%
X135763000Y-63500000D03*
%TD*%
%TO.P,J8,1,Pin_1*%
%TO.N,Net-(D100-VDD)*%
X95123000Y-63652400D03*
%TD*%
%TO.P,J9,1,Pin_1*%
%TO.N,Net-(D100-VSS)*%
X130683000Y-83235800D03*
%TD*%
D11*
%TO.N,Net-(D100-VSS)*%
X123063000Y-84582000D03*
X107823000Y-84582000D03*
X97663000Y-84582000D03*
X100203000Y-84582000D03*
X128143000Y-84582000D03*
X117983000Y-84582000D03*
X125603000Y-84582000D03*
X102743000Y-84582000D03*
X95758000Y-83058000D03*
X133223000Y-84582000D03*
X112903000Y-84582000D03*
X110363000Y-84582000D03*
X130683000Y-84582000D03*
X115443000Y-84582000D03*
X120523000Y-84582000D03*
X105283000Y-84582000D03*
%TO.N,Net-(D100-VDD)*%
X125603000Y-62865000D03*
X97663000Y-62865000D03*
X130683000Y-62865000D03*
X123063000Y-62865000D03*
X100203000Y-62865000D03*
X112903000Y-62865000D03*
X117983000Y-62865000D03*
X133096000Y-62865000D03*
X105410000Y-62865000D03*
X128143000Y-62865000D03*
X107950000Y-62865000D03*
X120523000Y-62865000D03*
X110363000Y-62865000D03*
X87884000Y-73279000D03*
X102743000Y-62865000D03*
X115443000Y-62865000D03*
%TO.N,Net-(D106-DOUT)*%
X94572500Y-82592500D03*
X94615000Y-66294000D03*
%TO.N,Net-(D121-DOUT)*%
X133223000Y-85344000D03*
X89281000Y-72136000D03*
%TO.N,Net-(D122-DOUT)*%
X90678000Y-70866000D03*
%TD*%
D12*
%TO.N,Net-(D100-VSS)*%
X112903000Y-84582000D02*
X115443000Y-84582000D01*
X117983000Y-84582000D02*
X120523000Y-84582000D01*
X110363000Y-84582000D02*
X112903000Y-84582000D01*
X97282000Y-84582000D02*
X97663000Y-84582000D01*
X102743000Y-84582000D02*
X105283000Y-84582000D01*
X107823000Y-84582000D02*
X110363000Y-84582000D01*
X123063000Y-84582000D02*
X125603000Y-84582000D01*
X133223000Y-84582000D02*
X130683000Y-84582000D01*
X97663000Y-84582000D02*
X100203000Y-84582000D01*
X105283000Y-84582000D02*
X107823000Y-84582000D01*
X100203000Y-84582000D02*
X102743000Y-84582000D01*
X125603000Y-84582000D02*
X130683000Y-84582000D01*
X115443000Y-84582000D02*
X117983000Y-84582000D01*
X95758000Y-83058000D02*
X97282000Y-84582000D01*
X120523000Y-84582000D02*
X123063000Y-84582000D01*
%TO.N,Net-(D100-VDD)*%
X105410000Y-62865000D02*
X102743000Y-62865000D01*
X91594657Y-70231000D02*
X93726000Y-68099657D01*
X130683000Y-62865000D02*
X128143000Y-62865000D01*
X102743000Y-62865000D02*
X100203000Y-62865000D01*
X130683000Y-62865000D02*
X133096000Y-62865000D01*
X87884000Y-71120000D02*
X88773000Y-70231000D01*
X107950000Y-62865000D02*
X105410000Y-62865000D01*
X97663000Y-62865000D02*
X95910400Y-62865000D01*
X95123000Y-64897000D02*
X95123000Y-63652400D01*
X117983000Y-62865000D02*
X115443000Y-62865000D01*
X93726000Y-68099657D02*
X93726000Y-66294000D01*
X93726000Y-66294000D02*
X95123000Y-64897000D01*
X128143000Y-62865000D02*
X125603000Y-62865000D01*
X110363000Y-62865000D02*
X107950000Y-62865000D01*
X95910400Y-62865000D02*
X95123000Y-63652400D01*
X115443000Y-62865000D02*
X112903000Y-62865000D01*
X123063000Y-62865000D02*
X120523000Y-62865000D01*
X112903000Y-62865000D02*
X110363000Y-62865000D01*
X88773000Y-70231000D02*
X91594657Y-70231000D01*
X100203000Y-62865000D02*
X97663000Y-62865000D01*
X87884000Y-73279000D02*
X87884000Y-71120000D01*
X120523000Y-62865000D02*
X117983000Y-62865000D01*
X125603000Y-62865000D02*
X123063000Y-62865000D01*
%TO.N,Net-(D106-DOUT)*%
X94107000Y-81280000D02*
X94572500Y-81745500D01*
X94107000Y-66802000D02*
X94107000Y-81280000D01*
X94615000Y-66294000D02*
X94107000Y-66802000D01*
X94572500Y-81745500D02*
X94572500Y-82592500D01*
%TO.N,Net-(D121-DOUT)*%
X133223000Y-85344000D02*
X132461000Y-86106000D01*
X90246200Y-73101200D02*
X89281000Y-72136000D01*
X90779600Y-73101200D02*
X90246200Y-73101200D01*
X132461000Y-86106000D02*
X95123000Y-86106000D01*
X95123000Y-86106000D02*
X93782000Y-84765000D01*
X93782000Y-76103600D02*
X90779600Y-73101200D01*
X93782000Y-84765000D02*
X93782000Y-76103600D01*
%TD*%
%TA.AperFunction,Conductor*%
%TO.N,Net-(D100-VSS)*%
G36*
X136070911Y-62043061D02*
G01*
X136083654Y-62044738D01*
X136180382Y-62057473D01*
X136205340Y-62064160D01*
X136301853Y-62104137D01*
X136324229Y-62117055D01*
X136324233Y-62117058D01*
X136411831Y-62184275D01*
X136416704Y-62188549D01*
X136632588Y-62404432D01*
X136636858Y-62409300D01*
X136704080Y-62496905D01*
X136717000Y-62519284D01*
X136756975Y-62615792D01*
X136763664Y-62640756D01*
X136778076Y-62750225D01*
X136778500Y-62756693D01*
X136778500Y-63084030D01*
X136759593Y-63142221D01*
X136710093Y-63178185D01*
X136648907Y-63178185D01*
X136599407Y-63142221D01*
X136584431Y-63111651D01*
X136577694Y-63088462D01*
X136564370Y-63042600D01*
X136528820Y-62982488D01*
X136480067Y-62900051D01*
X136480064Y-62900048D01*
X136480063Y-62900046D01*
X136362954Y-62782937D01*
X136362951Y-62782935D01*
X136362948Y-62782932D01*
X136220402Y-62698631D01*
X136220401Y-62698630D01*
X136220400Y-62698630D01*
X136131293Y-62672742D01*
X136061356Y-62652423D01*
X136037542Y-62650549D01*
X136024203Y-62649500D01*
X136024197Y-62649500D01*
X135501802Y-62649500D01*
X135464642Y-62652424D01*
X135464637Y-62652425D01*
X135305596Y-62698631D01*
X135163051Y-62782932D01*
X135045932Y-62900051D01*
X134961631Y-63042596D01*
X134961631Y-63042597D01*
X134961630Y-63042599D01*
X134961630Y-63042600D01*
X134958768Y-63052451D01*
X134915423Y-63201643D01*
X134912500Y-63238802D01*
X134912500Y-63761197D01*
X134915424Y-63798357D01*
X134915425Y-63798362D01*
X134925804Y-63834087D01*
X134959701Y-63950762D01*
X134961631Y-63957403D01*
X135045932Y-64099948D01*
X135045935Y-64099951D01*
X135045937Y-64099954D01*
X135163046Y-64217063D01*
X135163048Y-64217064D01*
X135163051Y-64217067D01*
X135227100Y-64254945D01*
X135305600Y-64301370D01*
X135464642Y-64347576D01*
X135501797Y-64350500D01*
X136024202Y-64350499D01*
X136061358Y-64347576D01*
X136220400Y-64301370D01*
X136298900Y-64254945D01*
X136362948Y-64217067D01*
X136362949Y-64217065D01*
X136362954Y-64217063D01*
X136480063Y-64099954D01*
X136488965Y-64084903D01*
X136564368Y-63957403D01*
X136564370Y-63957400D01*
X136584431Y-63888346D01*
X136618822Y-63837743D01*
X136676390Y-63817017D01*
X136735146Y-63834087D01*
X136772647Y-63882433D01*
X136778500Y-63915968D01*
X136778500Y-64397549D01*
X136778076Y-64404017D01*
X136763664Y-64513487D01*
X136756975Y-64538451D01*
X136717001Y-64634957D01*
X136704079Y-64657339D01*
X136640487Y-64740213D01*
X136622213Y-64758487D01*
X136539339Y-64822079D01*
X136516957Y-64835001D01*
X136420451Y-64874975D01*
X136395487Y-64881664D01*
X136286019Y-64896076D01*
X136279551Y-64896500D01*
X127676967Y-64896500D01*
X127652438Y-64888530D01*
X127595124Y-64896076D01*
X127588656Y-64896500D01*
X127400788Y-64896500D01*
X127400582Y-64896459D01*
X127381002Y-64896459D01*
X127381000Y-64896459D01*
X127380901Y-64896500D01*
X127380617Y-64896617D01*
X127380616Y-64896617D01*
X127380614Y-64896619D01*
X127367139Y-64910001D01*
X127366829Y-64910462D01*
X127233806Y-65043484D01*
X127228932Y-65047758D01*
X127188132Y-65079064D01*
X127186440Y-65086542D01*
X127171364Y-65105926D01*
X127081926Y-65195364D01*
X127058948Y-65207071D01*
X127023759Y-65252931D01*
X127019485Y-65257804D01*
X126886509Y-65390781D01*
X126886339Y-65390895D01*
X126872616Y-65404618D01*
X126872457Y-65404997D01*
X126872460Y-65424670D01*
X126872500Y-65424864D01*
X126872500Y-65612656D01*
X126872076Y-65619124D01*
X126865363Y-65670113D01*
X126869453Y-65676596D01*
X126872500Y-65700967D01*
X126872500Y-67391821D01*
X126853593Y-67450012D01*
X126804093Y-67485976D01*
X126742907Y-67485976D01*
X126693407Y-67450012D01*
X126685750Y-67437658D01*
X126599508Y-67272557D01*
X126476777Y-67122040D01*
X126476759Y-67122022D01*
X126326242Y-66999291D01*
X126154081Y-66909361D01*
X125967352Y-66855931D01*
X125853392Y-66845800D01*
X125853001Y-66845800D01*
X125853000Y-66845801D01*
X125853000Y-67707579D01*
X125786843Y-67656087D01*
X125666578Y-67614800D01*
X125571431Y-67614800D01*
X125477579Y-67630461D01*
X125365749Y-67690980D01*
X125353000Y-67704829D01*
X125353000Y-66845801D01*
X125352999Y-66845800D01*
X125352608Y-66845800D01*
X125238647Y-66855931D01*
X125051918Y-66909361D01*
X124879757Y-66999291D01*
X124729240Y-67122022D01*
X124729222Y-67122040D01*
X124606491Y-67272557D01*
X124520250Y-67437658D01*
X124476549Y-67480482D01*
X124416023Y-67489440D01*
X124361790Y-67461111D01*
X124334567Y-67406316D01*
X124333500Y-67391821D01*
X124333500Y-66389824D01*
X125160431Y-66389824D01*
X125174977Y-66462950D01*
X125176418Y-66462683D01*
X125178735Y-66462309D01*
X125190475Y-66460700D01*
X125192814Y-66460436D01*
X125322296Y-66448925D01*
X125323389Y-66448840D01*
X125328896Y-66448474D01*
X125329986Y-66448413D01*
X125339895Y-66447972D01*
X125340991Y-66447936D01*
X125346532Y-66447812D01*
X125347635Y-66447800D01*
X125433789Y-66447800D01*
X125471674Y-66455336D01*
X125545183Y-66485784D01*
X125577301Y-66507244D01*
X125603000Y-66532942D01*
X125628699Y-66507244D01*
X125660817Y-66485784D01*
X125734326Y-66455336D01*
X125772211Y-66447800D01*
X125829863Y-66447800D01*
X125841395Y-66389824D01*
X125826242Y-66313646D01*
X125777570Y-66240803D01*
X125649934Y-66113167D01*
X125577091Y-66064495D01*
X125500913Y-66049342D01*
X125424734Y-66064495D01*
X125351892Y-66113167D01*
X125224256Y-66240803D01*
X125175584Y-66313646D01*
X125160431Y-66389824D01*
X124333500Y-66389824D01*
X124333500Y-65700968D01*
X124341468Y-65676442D01*
X124333924Y-65619133D01*
X124333500Y-65612666D01*
X124333500Y-65424971D01*
X124333540Y-65424782D01*
X124333505Y-65424782D01*
X124333539Y-65405002D01*
X124333541Y-65405000D01*
X124333500Y-65404901D01*
X124333383Y-65404617D01*
X124333381Y-65404616D01*
X124333381Y-65404615D01*
X124319722Y-65390910D01*
X124319410Y-65390701D01*
X124283534Y-65354825D01*
X124730511Y-65354825D01*
X124731611Y-65366147D01*
X124731500Y-65427902D01*
X124731500Y-65589828D01*
X124752207Y-65747121D01*
X124741057Y-65807282D01*
X124731500Y-65821482D01*
X124731500Y-66010805D01*
X124793807Y-66023199D01*
X124869984Y-66008046D01*
X124942827Y-65959374D01*
X125070463Y-65831738D01*
X125119135Y-65758895D01*
X125134288Y-65682717D01*
X125867538Y-65682717D01*
X125882691Y-65758895D01*
X125931363Y-65831738D01*
X126058999Y-65959374D01*
X126131842Y-66008046D01*
X126208020Y-66023199D01*
X126284197Y-66008046D01*
X126357043Y-65959372D01*
X126474500Y-65841916D01*
X126474500Y-65820504D01*
X126453116Y-65765871D01*
X126453791Y-65747119D01*
X126474500Y-65589817D01*
X126474500Y-65523520D01*
X126357040Y-65406060D01*
X126284197Y-65357388D01*
X126208020Y-65342235D01*
X126131842Y-65357388D01*
X126058996Y-65406062D01*
X125931365Y-65533694D01*
X125882691Y-65606539D01*
X125867538Y-65682717D01*
X125134288Y-65682717D01*
X125119135Y-65606539D01*
X125070461Y-65533694D01*
X124942830Y-65406062D01*
X124869984Y-65357388D01*
X124793807Y-65342235D01*
X124730511Y-65354825D01*
X124283534Y-65354825D01*
X124186515Y-65257807D01*
X124182241Y-65252934D01*
X124150932Y-65212131D01*
X124143451Y-65210438D01*
X124124072Y-65195364D01*
X124034632Y-65105923D01*
X124022926Y-65082948D01*
X123977068Y-65047760D01*
X123972195Y-65043486D01*
X123904319Y-64975610D01*
X125160431Y-64975610D01*
X125175584Y-65051788D01*
X125224256Y-65124631D01*
X125351892Y-65252267D01*
X125424734Y-65300939D01*
X125500913Y-65316092D01*
X125577091Y-65300939D01*
X125649934Y-65252267D01*
X125777570Y-65124631D01*
X125826242Y-65051788D01*
X125841395Y-64975611D01*
X125841395Y-64975610D01*
X126574645Y-64975610D01*
X126589798Y-65051788D01*
X126618975Y-65095455D01*
X126721906Y-64992524D01*
X126818487Y-64866660D01*
X126826287Y-64861299D01*
X126828926Y-64855267D01*
X126842660Y-64842487D01*
X126968527Y-64745904D01*
X127034972Y-64679459D01*
X126991304Y-64650281D01*
X126915126Y-64635128D01*
X126838949Y-64650281D01*
X126766103Y-64698955D01*
X126638472Y-64826587D01*
X126589798Y-64899433D01*
X126574645Y-64975610D01*
X125841395Y-64975610D01*
X125826242Y-64899433D01*
X125777568Y-64826587D01*
X125649937Y-64698955D01*
X125577091Y-64650281D01*
X125500913Y-64635128D01*
X125424734Y-64650281D01*
X125351889Y-64698955D01*
X125224258Y-64826587D01*
X125175584Y-64899433D01*
X125160431Y-64975610D01*
X123904319Y-64975610D01*
X123836526Y-64907817D01*
X123825367Y-64896601D01*
X123825298Y-64896542D01*
X123825285Y-64896576D01*
X123825000Y-64896457D01*
X123805330Y-64896460D01*
X123805135Y-64896500D01*
X123617344Y-64896500D01*
X123610876Y-64896076D01*
X123559886Y-64889363D01*
X123553404Y-64893453D01*
X123529033Y-64896500D01*
X99355967Y-64896500D01*
X99331438Y-64888530D01*
X99274124Y-64896076D01*
X99267656Y-64896500D01*
X99079865Y-64896500D01*
X99079722Y-64896471D01*
X99079722Y-64896474D01*
X99060000Y-64896457D01*
X99059724Y-64896572D01*
X99059617Y-64896616D01*
X99046013Y-64910188D01*
X99045830Y-64910461D01*
X98912807Y-65043483D01*
X98907934Y-65047757D01*
X98867134Y-65079062D01*
X98865444Y-65086537D01*
X98850365Y-65105926D01*
X96601926Y-67354364D01*
X96578948Y-67366071D01*
X96543760Y-67411930D01*
X96539486Y-67416803D01*
X96406509Y-67549781D01*
X96406339Y-67549895D01*
X96392616Y-67563618D01*
X96392457Y-67563997D01*
X96392460Y-67583671D01*
X96392500Y-67583865D01*
X96392499Y-67771656D01*
X96392075Y-67778123D01*
X96385362Y-67829113D01*
X96389453Y-67835596D01*
X96392500Y-67859967D01*
X96392500Y-68011038D01*
X96392499Y-83016031D01*
X96384529Y-83040557D01*
X96392076Y-83097875D01*
X96392500Y-83104343D01*
X96392500Y-83292313D01*
X96392427Y-83292680D01*
X96392457Y-83312000D01*
X96392597Y-83312335D01*
X96392616Y-83312382D01*
X96403816Y-83323525D01*
X96539486Y-83459195D01*
X96543760Y-83464068D01*
X96575062Y-83504861D01*
X96582535Y-83506552D01*
X96601922Y-83521631D01*
X96945364Y-83865072D01*
X96957072Y-83888050D01*
X97002933Y-83923241D01*
X97007807Y-83927515D01*
X97140702Y-84060409D01*
X97140958Y-84060791D01*
X97154615Y-84074381D01*
X97154616Y-84074381D01*
X97154617Y-84074383D01*
X97154717Y-84074424D01*
X97155000Y-84074542D01*
X97155001Y-84074541D01*
X97155002Y-84074542D01*
X97174608Y-84074550D01*
X97174864Y-84074500D01*
X97362656Y-84074500D01*
X97369124Y-84074924D01*
X97420113Y-84081636D01*
X97426596Y-84077547D01*
X97450967Y-84074500D01*
X128609033Y-84074500D01*
X128633561Y-84082469D01*
X128690876Y-84074924D01*
X128697344Y-84074500D01*
X128885135Y-84074500D01*
X128885330Y-84074539D01*
X128905000Y-84074542D01*
X128905342Y-84074400D01*
X128907184Y-84073655D01*
X128912084Y-84067682D01*
X128919548Y-84060218D01*
X128919665Y-84060042D01*
X128924693Y-84055013D01*
X129052200Y-83927505D01*
X129057069Y-83923237D01*
X129097861Y-83891936D01*
X129099552Y-83884463D01*
X129114628Y-83865077D01*
X129204075Y-83775630D01*
X129227050Y-83763924D01*
X129262239Y-83718066D01*
X129266513Y-83713193D01*
X129387821Y-83591886D01*
X129442337Y-83564109D01*
X129502769Y-83573681D01*
X129546034Y-83616945D01*
X129553004Y-83634655D01*
X129596561Y-83786881D01*
X129686491Y-83959042D01*
X129809222Y-84109559D01*
X129809240Y-84109577D01*
X129959757Y-84232308D01*
X130131918Y-84322238D01*
X130318647Y-84375668D01*
X130432608Y-84385800D01*
X130432999Y-84385800D01*
X130433000Y-84385798D01*
X130433000Y-83524020D01*
X130499157Y-83575513D01*
X130619422Y-83616800D01*
X130714569Y-83616800D01*
X130808421Y-83601139D01*
X130920251Y-83540620D01*
X130932999Y-83526771D01*
X130932999Y-84385799D01*
X130933001Y-84385800D01*
X130933392Y-84385800D01*
X131047352Y-84375668D01*
X131234081Y-84322238D01*
X131406242Y-84232308D01*
X131556759Y-84109577D01*
X131556777Y-84109559D01*
X131679508Y-83959042D01*
X131769438Y-83786879D01*
X131812995Y-83634657D01*
X131847181Y-83583912D01*
X131904664Y-83562953D01*
X131963489Y-83579785D01*
X131978179Y-83591887D01*
X132099486Y-83713195D01*
X132103760Y-83718068D01*
X132135063Y-83758862D01*
X132142536Y-83760553D01*
X132161923Y-83775632D01*
X132251364Y-83865072D01*
X132263072Y-83888050D01*
X132308934Y-83923241D01*
X132313807Y-83927515D01*
X132446701Y-84060410D01*
X132446910Y-84060722D01*
X132460614Y-84074380D01*
X132460616Y-84074380D01*
X132460617Y-84074383D01*
X132460728Y-84074428D01*
X132460860Y-84074541D01*
X132460886Y-84074541D01*
X132460902Y-84074500D01*
X132461000Y-84074541D01*
X132461001Y-84074540D01*
X132461002Y-84074541D01*
X132480582Y-84074541D01*
X132480788Y-84074500D01*
X132668656Y-84074500D01*
X132675124Y-84074924D01*
X132726113Y-84081636D01*
X132732596Y-84077547D01*
X132756967Y-84074500D01*
X134247551Y-84074500D01*
X134254018Y-84074924D01*
X134266761Y-84076601D01*
X134363489Y-84089336D01*
X134388447Y-84096023D01*
X134484960Y-84136000D01*
X134507336Y-84148918D01*
X134590216Y-84212515D01*
X134608484Y-84230783D01*
X134672079Y-84313660D01*
X134685001Y-84336042D01*
X134724975Y-84432548D01*
X134731664Y-84457512D01*
X134746076Y-84566981D01*
X134746500Y-84573449D01*
X134746500Y-86153442D01*
X134746076Y-86159910D01*
X134731664Y-86269380D01*
X134724975Y-86294344D01*
X134685001Y-86390850D01*
X134672078Y-86413232D01*
X134604865Y-86500825D01*
X134600591Y-86505698D01*
X134384698Y-86721591D01*
X134379825Y-86725865D01*
X134292232Y-86793078D01*
X134269850Y-86806001D01*
X134173344Y-86845975D01*
X134148380Y-86852664D01*
X134038912Y-86867076D01*
X134032444Y-86867500D01*
X94567556Y-86867500D01*
X94561088Y-86867076D01*
X94451619Y-86852664D01*
X94426655Y-86845975D01*
X94330149Y-86806001D01*
X94307767Y-86793079D01*
X94220168Y-86725861D01*
X94215295Y-86721587D01*
X92729404Y-85235695D01*
X92725136Y-85230829D01*
X92657920Y-85143232D01*
X92644999Y-85120852D01*
X92642609Y-85115082D01*
X92605023Y-85024340D01*
X92598336Y-84999382D01*
X92585061Y-84898547D01*
X92583924Y-84889909D01*
X92583500Y-84883442D01*
X92583500Y-84435610D01*
X92981500Y-84435610D01*
X92981500Y-84860608D01*
X92987791Y-84908401D01*
X92997639Y-84932178D01*
X93026978Y-84970412D01*
X93113911Y-85057345D01*
X93123026Y-85051254D01*
X93143813Y-85030467D01*
X93130193Y-84995309D01*
X93128739Y-84990972D01*
X93122537Y-84969177D01*
X93115359Y-84947765D01*
X93114107Y-84943364D01*
X93104623Y-84903045D01*
X93103782Y-84898547D01*
X93100595Y-84875698D01*
X93100173Y-84871144D01*
X93098688Y-84839016D01*
X93098653Y-84838713D01*
X93096744Y-84818124D01*
X93096585Y-84815840D01*
X93096053Y-84804319D01*
X93096000Y-84802032D01*
X93096000Y-84780847D01*
X93093289Y-84722220D01*
X93093289Y-84717645D01*
X93094354Y-84694607D01*
X93094776Y-84690054D01*
X93096000Y-84681277D01*
X93096000Y-84479887D01*
X93050179Y-84449271D01*
X92981500Y-84435610D01*
X92583500Y-84435610D01*
X92583500Y-83021397D01*
X92981500Y-83021397D01*
X92981500Y-83699376D01*
X93050179Y-83685715D01*
X93096000Y-83655099D01*
X93096000Y-83065674D01*
X93050179Y-83035058D01*
X92981500Y-83021397D01*
X92583500Y-83021397D01*
X92583500Y-81607183D01*
X92981500Y-81607183D01*
X92981500Y-82285163D01*
X93050179Y-82271502D01*
X93096000Y-82240886D01*
X93096000Y-81651460D01*
X93050179Y-81620844D01*
X92981500Y-81607183D01*
X92583500Y-81607183D01*
X92583500Y-80192970D01*
X92981500Y-80192970D01*
X92981500Y-80870949D01*
X93050179Y-80857288D01*
X93096000Y-80826672D01*
X93096000Y-80237247D01*
X93050179Y-80206631D01*
X92981500Y-80192970D01*
X92583500Y-80192970D01*
X92583500Y-78778756D01*
X92981500Y-78778756D01*
X92981500Y-79456736D01*
X93050179Y-79443075D01*
X93096000Y-79412459D01*
X93096000Y-78823033D01*
X93050179Y-78792417D01*
X92981500Y-78778756D01*
X92583500Y-78778756D01*
X92583500Y-77364543D01*
X92981500Y-77364543D01*
X92981500Y-78042522D01*
X93050179Y-78028861D01*
X93096000Y-77998245D01*
X93096000Y-77408820D01*
X93050179Y-77378204D01*
X92981500Y-77364543D01*
X92583500Y-77364543D01*
X92583500Y-75987967D01*
X92591469Y-75963438D01*
X92583924Y-75906124D01*
X92583500Y-75899656D01*
X92583500Y-75711864D01*
X92583539Y-75711670D01*
X92583540Y-75692002D01*
X92583542Y-75692000D01*
X92583424Y-75691716D01*
X92583423Y-75691715D01*
X92583383Y-75691617D01*
X92569742Y-75677907D01*
X92569358Y-75677650D01*
X92436512Y-75544803D01*
X92432238Y-75539930D01*
X92400933Y-75499133D01*
X92393453Y-75497440D01*
X92374075Y-75482367D01*
X91776631Y-74884923D01*
X91764924Y-74861947D01*
X91719068Y-74826760D01*
X91714195Y-74822486D01*
X91578522Y-74686813D01*
X91567367Y-74675601D01*
X91567298Y-74675542D01*
X91567285Y-74675576D01*
X91567000Y-74675457D01*
X91547330Y-74675460D01*
X91547135Y-74675500D01*
X91359344Y-74675500D01*
X91352876Y-74675076D01*
X91301886Y-74668363D01*
X91295404Y-74672453D01*
X91271033Y-74675500D01*
X90400104Y-74675500D01*
X90467132Y-74167999D01*
X90512199Y-74167999D01*
X90527352Y-74244176D01*
X90549618Y-74277500D01*
X90985749Y-74277500D01*
X90651626Y-73943377D01*
X90576024Y-74018978D01*
X90527352Y-74091821D01*
X90512199Y-74167999D01*
X90467132Y-74167999D01*
X90569992Y-73389200D01*
X90619299Y-73389200D01*
X90677490Y-73408107D01*
X90689303Y-73418196D01*
X93465004Y-76193897D01*
X93492781Y-76248414D01*
X93494000Y-76263901D01*
X93494000Y-84705457D01*
X93493525Y-84712302D01*
X93491820Y-84724522D01*
X93493947Y-84770508D01*
X93494000Y-84772794D01*
X93494000Y-84791687D01*
X93494598Y-84794888D01*
X93495389Y-84801706D01*
X93496792Y-84832077D01*
X93496792Y-84832079D01*
X93496793Y-84832080D01*
X93500404Y-84840259D01*
X93507153Y-84862055D01*
X93508794Y-84870836D01*
X93508795Y-84870838D01*
X93508796Y-84870840D01*
X93524805Y-84896697D01*
X93528001Y-84902761D01*
X93540283Y-84930575D01*
X93540287Y-84930580D01*
X93546608Y-84936902D01*
X93560770Y-84954781D01*
X93563494Y-84959179D01*
X93565479Y-84962385D01*
X93581044Y-84974139D01*
X93589741Y-84980707D01*
X93594919Y-84985213D01*
X94877255Y-86267549D01*
X94881761Y-86272727D01*
X94889189Y-86282564D01*
X94889190Y-86282565D01*
X94900725Y-86293081D01*
X94923212Y-86313580D01*
X94924864Y-86315158D01*
X94938223Y-86328517D01*
X94938226Y-86328519D01*
X94940901Y-86330351D01*
X94946285Y-86334614D01*
X94968761Y-86355104D01*
X94977101Y-86358334D01*
X94997277Y-86368969D01*
X95004656Y-86374024D01*
X95034263Y-86380986D01*
X95040799Y-86383011D01*
X95069163Y-86394000D01*
X95078105Y-86394000D01*
X95100768Y-86396628D01*
X95109469Y-86398675D01*
X95139578Y-86394475D01*
X95146426Y-86394000D01*
X132401462Y-86394000D01*
X132408309Y-86394475D01*
X132420522Y-86396179D01*
X132466518Y-86394052D01*
X132468794Y-86394000D01*
X132487688Y-86394000D01*
X132487689Y-86394000D01*
X132490880Y-86393402D01*
X132497699Y-86392610D01*
X132528080Y-86391207D01*
X132536257Y-86387595D01*
X132558057Y-86380845D01*
X132566840Y-86379204D01*
X132592690Y-86363198D01*
X132598757Y-86359998D01*
X132626578Y-86347715D01*
X132632894Y-86341397D01*
X132650787Y-86327225D01*
X132658385Y-86322521D01*
X132676707Y-86298256D01*
X132681211Y-86293081D01*
X132785479Y-86188813D01*
X133645713Y-86188813D01*
X133660866Y-86264991D01*
X133709540Y-86337837D01*
X133837172Y-86465469D01*
X133843203Y-86469500D01*
X134009602Y-86469500D01*
X134057402Y-86463206D01*
X134081172Y-86453360D01*
X134119417Y-86424013D01*
X134303012Y-86240418D01*
X134321099Y-86216846D01*
X134326676Y-86188812D01*
X134311523Y-86112636D01*
X134262851Y-86039793D01*
X134135215Y-85912157D01*
X134062372Y-85863485D01*
X133986195Y-85848332D01*
X133910017Y-85863485D01*
X133837174Y-85912157D01*
X133709538Y-86039793D01*
X133660866Y-86112636D01*
X133645713Y-86188813D01*
X132785479Y-86188813D01*
X132934499Y-86039793D01*
X133232470Y-85741822D01*
X133286985Y-85714046D01*
X133340482Y-85705574D01*
X133340484Y-85705573D01*
X133340485Y-85705573D01*
X133393473Y-85678573D01*
X133446465Y-85651573D01*
X133530573Y-85567465D01*
X133584574Y-85461482D01*
X133603181Y-85344000D01*
X133584574Y-85226518D01*
X133584571Y-85226513D01*
X133584571Y-85226511D01*
X133530574Y-85120537D01*
X133530573Y-85120535D01*
X133446465Y-85036427D01*
X133446462Y-85036425D01*
X133340488Y-84982428D01*
X133340483Y-84982426D01*
X133340482Y-84982426D01*
X133223000Y-84963819D01*
X133105518Y-84982426D01*
X133105511Y-84982428D01*
X132999537Y-85036425D01*
X132915425Y-85120537D01*
X132861427Y-85226514D01*
X132861426Y-85226516D01*
X132852953Y-85280013D01*
X132825176Y-85334528D01*
X132370702Y-85789003D01*
X132316185Y-85816781D01*
X132300698Y-85818000D01*
X95283302Y-85818000D01*
X95225111Y-85799093D01*
X95213298Y-85789004D01*
X94844294Y-85420000D01*
X96181328Y-85420000D01*
X96837743Y-85420000D01*
X97595542Y-85420000D01*
X98251956Y-85420000D01*
X99009755Y-85420000D01*
X99666170Y-85420000D01*
X100423969Y-85420000D01*
X101080383Y-85420000D01*
X101838182Y-85420000D01*
X102494597Y-85420000D01*
X103252396Y-85420000D01*
X103908811Y-85420000D01*
X104666610Y-85420000D01*
X105323024Y-85420000D01*
X106080823Y-85420000D01*
X106737238Y-85420000D01*
X107495037Y-85420000D01*
X108151451Y-85420000D01*
X108909250Y-85420000D01*
X109565665Y-85420000D01*
X110323464Y-85420000D01*
X110979878Y-85420000D01*
X111737677Y-85420000D01*
X112394092Y-85420000D01*
X113151891Y-85420000D01*
X113808306Y-85420000D01*
X114566105Y-85420000D01*
X115222519Y-85420000D01*
X115980318Y-85420000D01*
X116636733Y-85420000D01*
X117394532Y-85420000D01*
X118050946Y-85420000D01*
X118808745Y-85420000D01*
X119465160Y-85420000D01*
X120222959Y-85420000D01*
X120879373Y-85420000D01*
X121637172Y-85420000D01*
X122293587Y-85420000D01*
X123051386Y-85420000D01*
X123707800Y-85420000D01*
X124465599Y-85420000D01*
X125122014Y-85420000D01*
X125879813Y-85420000D01*
X126536228Y-85420000D01*
X127294027Y-85420000D01*
X127950441Y-85420000D01*
X128708240Y-85420000D01*
X129364655Y-85420000D01*
X130122454Y-85420000D01*
X130778868Y-85420000D01*
X131536667Y-85420000D01*
X132176847Y-85420000D01*
X132190388Y-85406458D01*
X132190203Y-85405528D01*
X132141531Y-85332686D01*
X132013895Y-85205050D01*
X131941052Y-85156378D01*
X131864874Y-85141225D01*
X131788696Y-85156378D01*
X131715851Y-85205052D01*
X131588219Y-85332683D01*
X131539545Y-85405529D01*
X131536667Y-85420000D01*
X130778868Y-85420000D01*
X130775989Y-85405529D01*
X130727317Y-85332686D01*
X130599681Y-85205050D01*
X130537668Y-85163614D01*
X130484005Y-85147857D01*
X130450661Y-85141225D01*
X130374483Y-85156378D01*
X130301640Y-85205050D01*
X130174004Y-85332686D01*
X130125332Y-85405529D01*
X130122454Y-85420000D01*
X129364655Y-85420000D01*
X129361776Y-85405529D01*
X129313102Y-85332683D01*
X129185470Y-85205052D01*
X129112625Y-85156378D01*
X129036447Y-85141225D01*
X128960269Y-85156378D01*
X128887426Y-85205050D01*
X128759790Y-85332686D01*
X128711118Y-85405529D01*
X128708240Y-85420000D01*
X127950441Y-85420000D01*
X127947562Y-85405529D01*
X127898890Y-85332686D01*
X127771254Y-85205050D01*
X127698411Y-85156378D01*
X127622234Y-85141225D01*
X127546056Y-85156378D01*
X127473210Y-85205052D01*
X127345579Y-85332682D01*
X127296905Y-85405529D01*
X127294027Y-85420000D01*
X126536228Y-85420000D01*
X126533349Y-85405529D01*
X126484675Y-85332683D01*
X126357043Y-85205052D01*
X126284197Y-85156378D01*
X126208020Y-85141225D01*
X126131842Y-85156378D01*
X126058999Y-85205050D01*
X125931363Y-85332686D01*
X125882691Y-85405529D01*
X125879813Y-85420000D01*
X125122014Y-85420000D01*
X125119135Y-85405529D01*
X125070463Y-85332686D01*
X124942827Y-85205050D01*
X124869984Y-85156378D01*
X124793806Y-85141225D01*
X124717629Y-85156378D01*
X124644783Y-85205052D01*
X124517151Y-85332683D01*
X124468477Y-85405529D01*
X124465599Y-85420000D01*
X123707800Y-85420000D01*
X123704921Y-85405529D01*
X123656247Y-85332682D01*
X123528616Y-85205052D01*
X123455770Y-85156378D01*
X123379593Y-85141225D01*
X123303415Y-85156378D01*
X123230572Y-85205050D01*
X123102936Y-85332686D01*
X123054264Y-85405529D01*
X123051386Y-85420000D01*
X122293587Y-85420000D01*
X122290708Y-85405529D01*
X122242036Y-85332686D01*
X122114400Y-85205050D01*
X122041557Y-85156378D01*
X121965379Y-85141225D01*
X121889201Y-85156378D01*
X121816356Y-85205052D01*
X121688724Y-85332683D01*
X121640050Y-85405529D01*
X121637172Y-85420000D01*
X120879373Y-85420000D01*
X120876494Y-85405529D01*
X120827822Y-85332686D01*
X120700186Y-85205050D01*
X120647379Y-85169766D01*
X120622782Y-85176989D01*
X120594889Y-85181000D01*
X120451111Y-85181000D01*
X120440436Y-85179465D01*
X120402145Y-85205050D01*
X120274509Y-85332686D01*
X120225837Y-85405529D01*
X120222959Y-85420000D01*
X119465160Y-85420000D01*
X119462281Y-85405529D01*
X119413609Y-85332686D01*
X119285973Y-85205050D01*
X119213131Y-85156378D01*
X119136952Y-85141225D01*
X119060774Y-85156378D01*
X118987931Y-85205050D01*
X118860295Y-85332686D01*
X118811623Y-85405529D01*
X118808745Y-85420000D01*
X118050946Y-85420000D01*
X118048067Y-85405529D01*
X117999395Y-85332686D01*
X117871759Y-85205050D01*
X117798916Y-85156378D01*
X117722739Y-85141225D01*
X117646561Y-85156378D01*
X117573718Y-85205050D01*
X117446082Y-85332686D01*
X117397410Y-85405529D01*
X117394532Y-85420000D01*
X116636733Y-85420000D01*
X116633854Y-85405529D01*
X116585180Y-85332683D01*
X116457548Y-85205052D01*
X116384703Y-85156378D01*
X116308525Y-85141225D01*
X116232347Y-85156378D01*
X116159504Y-85205050D01*
X116031868Y-85332686D01*
X115983196Y-85405529D01*
X115980318Y-85420000D01*
X115222519Y-85420000D01*
X115219640Y-85405529D01*
X115170968Y-85332686D01*
X115043332Y-85205050D01*
X114970489Y-85156378D01*
X114894312Y-85141225D01*
X114818134Y-85156378D01*
X114745288Y-85205052D01*
X114617657Y-85332682D01*
X114568983Y-85405529D01*
X114566105Y-85420000D01*
X113808306Y-85420000D01*
X113805427Y-85405529D01*
X113756753Y-85332683D01*
X113629121Y-85205052D01*
X113556275Y-85156378D01*
X113480098Y-85141225D01*
X113403920Y-85156378D01*
X113331077Y-85205050D01*
X113203441Y-85332686D01*
X113154769Y-85405529D01*
X113151891Y-85420000D01*
X112394092Y-85420000D01*
X112391213Y-85405529D01*
X112342541Y-85332686D01*
X112214905Y-85205050D01*
X112142062Y-85156378D01*
X112065885Y-85141225D01*
X111989707Y-85156378D01*
X111916861Y-85205052D01*
X111789229Y-85332683D01*
X111740555Y-85405529D01*
X111737677Y-85420000D01*
X110979878Y-85420000D01*
X110976999Y-85405529D01*
X110928325Y-85332682D01*
X110800694Y-85205052D01*
X110727848Y-85156378D01*
X110651671Y-85141225D01*
X110575493Y-85156378D01*
X110502650Y-85205050D01*
X110375014Y-85332686D01*
X110326342Y-85405529D01*
X110323464Y-85420000D01*
X109565665Y-85420000D01*
X109562786Y-85405529D01*
X109514114Y-85332686D01*
X109386478Y-85205050D01*
X109313635Y-85156378D01*
X109237457Y-85141225D01*
X109161279Y-85156378D01*
X109088434Y-85205052D01*
X108960802Y-85332683D01*
X108912128Y-85405529D01*
X108909250Y-85420000D01*
X108151451Y-85420000D01*
X108148572Y-85405529D01*
X108099900Y-85332686D01*
X107972264Y-85205050D01*
X107927982Y-85175461D01*
X107922782Y-85176989D01*
X107894889Y-85181000D01*
X107751111Y-85181000D01*
X107723219Y-85176990D01*
X107718355Y-85175561D01*
X107674224Y-85205049D01*
X107546587Y-85332686D01*
X107497915Y-85405529D01*
X107495037Y-85420000D01*
X106737238Y-85420000D01*
X106734359Y-85405529D01*
X106685685Y-85332683D01*
X106558053Y-85205052D01*
X106485208Y-85156378D01*
X106409030Y-85141225D01*
X106332852Y-85156378D01*
X106260009Y-85205050D01*
X106132373Y-85332686D01*
X106083701Y-85405529D01*
X106080823Y-85420000D01*
X105323024Y-85420000D01*
X105320145Y-85405529D01*
X105271473Y-85332686D01*
X105143837Y-85205050D01*
X105070994Y-85156378D01*
X104994817Y-85141225D01*
X104918639Y-85156378D01*
X104845793Y-85205052D01*
X104718162Y-85332682D01*
X104669488Y-85405529D01*
X104666610Y-85420000D01*
X103908811Y-85420000D01*
X103905932Y-85405529D01*
X103857258Y-85332683D01*
X103729626Y-85205052D01*
X103656780Y-85156378D01*
X103580602Y-85141225D01*
X103504425Y-85156378D01*
X103431582Y-85205050D01*
X103303946Y-85332686D01*
X103255274Y-85405529D01*
X103252396Y-85420000D01*
X102494597Y-85420000D01*
X102491718Y-85405529D01*
X102443046Y-85332686D01*
X102315410Y-85205050D01*
X102242567Y-85156378D01*
X102166389Y-85141225D01*
X102090212Y-85156378D01*
X102017366Y-85205052D01*
X101889734Y-85332683D01*
X101841060Y-85405529D01*
X101838182Y-85420000D01*
X101080383Y-85420000D01*
X101077504Y-85405529D01*
X101028830Y-85332682D01*
X100901199Y-85205052D01*
X100828353Y-85156378D01*
X100752176Y-85141225D01*
X100675998Y-85156378D01*
X100603155Y-85205050D01*
X100475519Y-85332686D01*
X100426847Y-85405529D01*
X100423969Y-85420000D01*
X99666170Y-85420000D01*
X99663291Y-85405529D01*
X99614619Y-85332686D01*
X99486983Y-85205050D01*
X99414140Y-85156378D01*
X99337962Y-85141225D01*
X99261784Y-85156378D01*
X99188939Y-85205052D01*
X99061307Y-85332683D01*
X99012633Y-85405529D01*
X99009755Y-85420000D01*
X98251956Y-85420000D01*
X98249077Y-85405529D01*
X98200405Y-85332686D01*
X98072769Y-85205050D01*
X97999926Y-85156378D01*
X97923748Y-85141225D01*
X97847571Y-85156378D01*
X97774728Y-85205050D01*
X97647092Y-85332686D01*
X97598420Y-85405529D01*
X97595542Y-85420000D01*
X96837743Y-85420000D01*
X96834864Y-85405529D01*
X96786192Y-85332686D01*
X96658556Y-85205050D01*
X96585714Y-85156378D01*
X96509535Y-85141225D01*
X96433357Y-85156378D01*
X96360514Y-85205050D01*
X96232878Y-85332686D01*
X96184206Y-85405529D01*
X96181328Y-85420000D01*
X94844294Y-85420000D01*
X94198894Y-84774600D01*
X95461946Y-84774600D01*
X95477099Y-84850778D01*
X95525773Y-84923624D01*
X95653405Y-85051255D01*
X95726251Y-85099929D01*
X95802429Y-85115082D01*
X95878606Y-85099929D01*
X95951449Y-85051257D01*
X96079085Y-84923621D01*
X96127757Y-84850778D01*
X96142910Y-84774601D01*
X96142910Y-84774600D01*
X96876160Y-84774600D01*
X96891313Y-84850778D01*
X96939985Y-84923621D01*
X97067621Y-85051257D01*
X97140464Y-85099929D01*
X97216642Y-85115082D01*
X97292819Y-85099929D01*
X97326231Y-85077604D01*
X97278679Y-85047045D01*
X97257382Y-85028592D01*
X97163228Y-84919931D01*
X97147995Y-84896226D01*
X97092450Y-84774600D01*
X98290374Y-84774600D01*
X98305527Y-84850778D01*
X98354201Y-84923625D01*
X98481832Y-85051255D01*
X98554678Y-85099929D01*
X98630855Y-85115082D01*
X98707033Y-85099929D01*
X98779876Y-85051257D01*
X98907512Y-84923621D01*
X98956184Y-84850778D01*
X98971337Y-84774601D01*
X101118801Y-84774601D01*
X101133954Y-84850778D01*
X101182626Y-84923621D01*
X101310262Y-85051257D01*
X101383105Y-85099929D01*
X101459283Y-85115082D01*
X101535460Y-85099929D01*
X101608303Y-85051257D01*
X101735939Y-84923621D01*
X101784611Y-84850778D01*
X101799764Y-84774601D01*
X103947228Y-84774601D01*
X103962381Y-84850778D01*
X104011053Y-84923621D01*
X104138689Y-85051257D01*
X104211532Y-85099929D01*
X104287710Y-85115082D01*
X104363887Y-85099929D01*
X104383849Y-85086591D01*
X105605784Y-85086591D01*
X105625746Y-85099929D01*
X105701924Y-85115082D01*
X105778101Y-85099929D01*
X105850944Y-85051257D01*
X105978580Y-84923621D01*
X106027252Y-84850778D01*
X106042405Y-84774601D01*
X106042405Y-84774600D01*
X106775655Y-84774600D01*
X106790808Y-84850778D01*
X106839480Y-84923621D01*
X106967116Y-85051257D01*
X107039959Y-85099929D01*
X107116137Y-85115082D01*
X107192314Y-85099929D01*
X107265160Y-85051255D01*
X107357236Y-84959179D01*
X107357009Y-84958917D01*
X108288989Y-84958917D01*
X108381327Y-85051255D01*
X108454173Y-85099929D01*
X108530351Y-85115082D01*
X108606528Y-85099929D01*
X108679371Y-85051257D01*
X108807007Y-84923621D01*
X108855679Y-84850778D01*
X108870832Y-84774601D01*
X109604082Y-84774601D01*
X109619235Y-84850778D01*
X109667907Y-84923621D01*
X109795543Y-85051257D01*
X109868386Y-85099929D01*
X109944564Y-85115082D01*
X110020741Y-85099929D01*
X110040464Y-85086751D01*
X109978679Y-85047045D01*
X109957382Y-85028592D01*
X109863228Y-84919931D01*
X109847995Y-84896226D01*
X109792450Y-84774601D01*
X111018296Y-84774601D01*
X111033449Y-84850778D01*
X111082121Y-84923621D01*
X111209757Y-85051257D01*
X111282600Y-85099929D01*
X111358778Y-85115082D01*
X111434955Y-85099929D01*
X111507798Y-85051257D01*
X111635434Y-84923621D01*
X111684106Y-84850778D01*
X111699259Y-84774601D01*
X113846723Y-84774601D01*
X113861876Y-84850778D01*
X113910548Y-84923621D01*
X114038184Y-85051257D01*
X114111027Y-85099929D01*
X114187204Y-85115082D01*
X114263382Y-85099929D01*
X114336225Y-85051257D01*
X114463861Y-84923621D01*
X114512533Y-84850778D01*
X114527686Y-84774601D01*
X116675150Y-84774601D01*
X116690303Y-84850778D01*
X116738975Y-84923621D01*
X116866611Y-85051257D01*
X116939454Y-85099929D01*
X117015631Y-85115082D01*
X117091809Y-85099929D01*
X117125460Y-85077444D01*
X118320017Y-85077444D01*
X118353668Y-85099929D01*
X118429845Y-85115082D01*
X118506023Y-85099929D01*
X118578866Y-85051257D01*
X118706502Y-84923621D01*
X118755174Y-84850778D01*
X118770327Y-84774601D01*
X119503577Y-84774601D01*
X119518730Y-84850778D01*
X119567402Y-84923621D01*
X119695038Y-85051257D01*
X119767881Y-85099929D01*
X119844059Y-85115082D01*
X119920236Y-85099929D01*
X119993082Y-85051255D01*
X120070199Y-84974139D01*
X120044047Y-84943958D01*
X121001951Y-84943958D01*
X121109249Y-85051255D01*
X121182095Y-85099929D01*
X121258272Y-85115082D01*
X121334450Y-85099929D01*
X121407293Y-85051257D01*
X121534929Y-84923621D01*
X121583601Y-84850778D01*
X121598754Y-84774601D01*
X122332004Y-84774601D01*
X122347157Y-84850778D01*
X122395829Y-84923621D01*
X122523465Y-85051257D01*
X122596308Y-85099929D01*
X122672486Y-85115082D01*
X122748664Y-85099929D01*
X122754697Y-85095898D01*
X122678679Y-85047045D01*
X122657382Y-85028592D01*
X122563228Y-84919931D01*
X122547995Y-84896226D01*
X122492450Y-84774601D01*
X123746218Y-84774601D01*
X123761371Y-84850778D01*
X123810043Y-84923621D01*
X123937679Y-85051257D01*
X124010522Y-85099929D01*
X124086700Y-85115082D01*
X124162877Y-85099929D01*
X124235720Y-85051257D01*
X124363356Y-84923621D01*
X124412028Y-84850778D01*
X124427181Y-84774601D01*
X126574645Y-84774601D01*
X126589798Y-84850778D01*
X126638470Y-84923621D01*
X126766106Y-85051257D01*
X126838949Y-85099929D01*
X126915126Y-85115082D01*
X126991304Y-85099929D01*
X127064147Y-85051257D01*
X127191783Y-84923621D01*
X127240455Y-84850778D01*
X127255608Y-84774601D01*
X127255608Y-84774600D01*
X129403072Y-84774600D01*
X129418225Y-84850778D01*
X129466897Y-84923621D01*
X129594533Y-85051257D01*
X129667376Y-85099929D01*
X129743554Y-85115082D01*
X129819731Y-85099929D01*
X129867070Y-85068298D01*
X131034250Y-85068298D01*
X131081590Y-85099929D01*
X131157767Y-85115082D01*
X131233945Y-85099929D01*
X131306788Y-85051257D01*
X131434424Y-84923621D01*
X131483096Y-84850778D01*
X131498249Y-84774601D01*
X132231499Y-84774601D01*
X132246652Y-84850778D01*
X132295324Y-84923621D01*
X132422960Y-85051257D01*
X132486167Y-85093491D01*
X132488341Y-85086801D01*
X132489686Y-85083153D01*
X132497190Y-85065038D01*
X132498818Y-85061506D01*
X132568794Y-84924172D01*
X132570693Y-84920780D01*
X132580934Y-84904067D01*
X132583095Y-84900835D01*
X132603776Y-84872368D01*
X132606182Y-84869316D01*
X132618915Y-84854406D01*
X132621556Y-84851549D01*
X132666888Y-84806216D01*
X133779111Y-84806216D01*
X133824444Y-84851549D01*
X133827085Y-84854406D01*
X133839818Y-84869316D01*
X133842224Y-84872368D01*
X133862905Y-84900835D01*
X133865066Y-84904067D01*
X133875307Y-84920780D01*
X133877206Y-84924172D01*
X133947182Y-85061507D01*
X133948809Y-85065037D01*
X133956314Y-85083153D01*
X133957661Y-85086804D01*
X133965510Y-85110967D01*
X133986195Y-85115082D01*
X134062372Y-85099929D01*
X134135215Y-85051257D01*
X134262851Y-84923621D01*
X134311523Y-84850778D01*
X134326676Y-84774601D01*
X134311523Y-84698423D01*
X134262849Y-84625577D01*
X134135218Y-84497945D01*
X134097137Y-84472500D01*
X133875253Y-84472500D01*
X133837171Y-84497945D01*
X133818726Y-84516390D01*
X133826134Y-84567910D01*
X133826134Y-84596089D01*
X133805672Y-84738404D01*
X133797733Y-84765442D01*
X133779111Y-84806216D01*
X132666888Y-84806216D01*
X132648267Y-84765441D01*
X132640328Y-84738404D01*
X132619866Y-84596089D01*
X132619866Y-84567911D01*
X132633584Y-84472500D01*
X132500800Y-84472500D01*
X132500384Y-84472541D01*
X132460979Y-84472541D01*
X132422956Y-84497946D01*
X132295326Y-84625577D01*
X132246652Y-84698423D01*
X132231499Y-84774601D01*
X131498249Y-84774601D01*
X131483096Y-84698423D01*
X131454749Y-84655998D01*
X131408305Y-84680259D01*
X131406054Y-84681363D01*
X131394565Y-84686642D01*
X131392259Y-84687632D01*
X131371191Y-84696047D01*
X131368841Y-84696918D01*
X131356875Y-84701009D01*
X131354480Y-84701760D01*
X131267356Y-84726689D01*
X131265672Y-84738403D01*
X131257733Y-84765441D01*
X131198005Y-84896226D01*
X131182772Y-84919931D01*
X131088618Y-85028592D01*
X131067321Y-85047045D01*
X131034250Y-85068298D01*
X129867070Y-85068298D01*
X129892577Y-85051255D01*
X130020209Y-84923624D01*
X130068883Y-84850778D01*
X130084036Y-84774601D01*
X130073049Y-84719365D01*
X130011520Y-84701760D01*
X130009125Y-84701009D01*
X129997159Y-84696918D01*
X129994809Y-84696047D01*
X129973741Y-84687632D01*
X129971435Y-84686642D01*
X129959946Y-84681363D01*
X129957696Y-84680259D01*
X129765431Y-84579828D01*
X129763235Y-84578610D01*
X129752334Y-84572192D01*
X129750206Y-84570865D01*
X129731266Y-84558382D01*
X129729209Y-84556950D01*
X129719021Y-84549469D01*
X129717037Y-84547933D01*
X129628167Y-84475469D01*
X129594530Y-84497945D01*
X129466899Y-84625577D01*
X129418225Y-84698423D01*
X129403072Y-84774600D01*
X127255608Y-84774600D01*
X127240455Y-84698423D01*
X127191781Y-84625577D01*
X127064150Y-84497945D01*
X127026069Y-84472500D01*
X126804185Y-84472500D01*
X126766103Y-84497945D01*
X126638472Y-84625577D01*
X126589798Y-84698423D01*
X126574645Y-84774601D01*
X124427181Y-84774601D01*
X124427181Y-84774600D01*
X124412028Y-84698423D01*
X124363354Y-84625577D01*
X124235723Y-84497945D01*
X124197642Y-84472500D01*
X123975758Y-84472500D01*
X123937676Y-84497945D01*
X123810045Y-84625577D01*
X123761371Y-84698423D01*
X123746218Y-84774601D01*
X122492450Y-84774601D01*
X122488267Y-84765441D01*
X122480328Y-84738404D01*
X122459866Y-84596089D01*
X122459866Y-84567911D01*
X122460935Y-84560473D01*
X122395831Y-84625577D01*
X122347157Y-84698423D01*
X122332004Y-84774601D01*
X121598754Y-84774601D01*
X121583601Y-84698423D01*
X121534927Y-84625577D01*
X121407296Y-84497945D01*
X121369215Y-84472500D01*
X121147331Y-84472500D01*
X121115475Y-84493785D01*
X121126134Y-84567910D01*
X121126134Y-84596089D01*
X121105672Y-84738404D01*
X121097733Y-84765441D01*
X121038005Y-84896226D01*
X121022771Y-84919931D01*
X121001951Y-84943958D01*
X120044047Y-84943958D01*
X120023228Y-84919931D01*
X120007995Y-84896226D01*
X119948267Y-84765441D01*
X119940328Y-84738404D01*
X119919866Y-84596089D01*
X119919866Y-84567911D01*
X119933584Y-84472500D01*
X119733117Y-84472500D01*
X119695035Y-84497945D01*
X119567404Y-84625577D01*
X119518730Y-84698423D01*
X119503577Y-84774601D01*
X118770327Y-84774601D01*
X118755174Y-84698423D01*
X118706500Y-84625577D01*
X118578869Y-84497945D01*
X118575777Y-84495879D01*
X118586134Y-84567911D01*
X118586134Y-84596089D01*
X118565672Y-84738404D01*
X118557733Y-84765441D01*
X118498005Y-84896226D01*
X118482772Y-84919931D01*
X118388618Y-85028592D01*
X118367321Y-85047045D01*
X118320017Y-85077444D01*
X117125460Y-85077444D01*
X117164655Y-85051255D01*
X117292286Y-84923625D01*
X117340960Y-84850778D01*
X117356113Y-84774601D01*
X117340960Y-84698423D01*
X117292288Y-84625579D01*
X117164652Y-84497943D01*
X117126574Y-84472500D01*
X116904690Y-84472500D01*
X116866608Y-84497945D01*
X116738977Y-84625577D01*
X116690303Y-84698423D01*
X116675150Y-84774601D01*
X114527686Y-84774601D01*
X114512533Y-84698423D01*
X114463859Y-84625577D01*
X114336228Y-84497945D01*
X114298147Y-84472500D01*
X114076263Y-84472500D01*
X114038181Y-84497945D01*
X113910550Y-84625577D01*
X113861876Y-84698423D01*
X113846723Y-84774601D01*
X111699259Y-84774601D01*
X111699259Y-84774600D01*
X111684106Y-84698423D01*
X111635432Y-84625577D01*
X111507801Y-84497945D01*
X111469720Y-84472500D01*
X111247836Y-84472500D01*
X111209754Y-84497945D01*
X111082123Y-84625577D01*
X111033449Y-84698423D01*
X111018296Y-84774601D01*
X109792450Y-84774601D01*
X109788267Y-84765441D01*
X109780328Y-84738404D01*
X109759866Y-84596089D01*
X109759866Y-84567911D01*
X109765624Y-84527862D01*
X109667909Y-84625577D01*
X109619235Y-84698423D01*
X109604082Y-84774601D01*
X108870832Y-84774601D01*
X108855679Y-84698423D01*
X108807005Y-84625577D01*
X108679374Y-84497945D01*
X108641293Y-84472500D01*
X108419409Y-84472500D01*
X108413028Y-84476763D01*
X108426134Y-84567911D01*
X108426134Y-84596089D01*
X108405672Y-84738404D01*
X108397733Y-84765441D01*
X108338005Y-84896226D01*
X108322771Y-84919931D01*
X108288989Y-84958917D01*
X107357009Y-84958917D01*
X107323228Y-84919931D01*
X107307995Y-84896226D01*
X107248267Y-84765441D01*
X107240328Y-84738404D01*
X107219866Y-84596089D01*
X107219866Y-84567911D01*
X107233013Y-84476465D01*
X107227079Y-84472500D01*
X107005195Y-84472500D01*
X106967113Y-84497945D01*
X106839482Y-84625577D01*
X106790808Y-84698423D01*
X106775655Y-84774600D01*
X106042405Y-84774600D01*
X106027252Y-84698423D01*
X105978578Y-84625577D01*
X105880293Y-84527292D01*
X105886134Y-84567911D01*
X105886134Y-84596089D01*
X105865672Y-84738404D01*
X105857733Y-84765441D01*
X105798005Y-84896226D01*
X105782772Y-84919931D01*
X105688618Y-85028592D01*
X105667321Y-85047045D01*
X105605784Y-85086591D01*
X104383849Y-85086591D01*
X104436730Y-85051257D01*
X104564366Y-84923621D01*
X104613038Y-84850778D01*
X104628191Y-84774601D01*
X104613038Y-84698423D01*
X104564364Y-84625577D01*
X104436733Y-84497945D01*
X104398652Y-84472500D01*
X104176768Y-84472500D01*
X104138686Y-84497945D01*
X104011055Y-84625577D01*
X103962381Y-84698423D01*
X103947228Y-84774601D01*
X101799764Y-84774601D01*
X101799764Y-84774600D01*
X101784611Y-84698423D01*
X101735937Y-84625577D01*
X101608306Y-84497945D01*
X101570225Y-84472500D01*
X101348341Y-84472500D01*
X101310259Y-84497945D01*
X101182628Y-84625577D01*
X101133954Y-84698423D01*
X101118801Y-84774601D01*
X98971337Y-84774601D01*
X98956184Y-84698423D01*
X98907510Y-84625577D01*
X98779879Y-84497945D01*
X98741798Y-84472500D01*
X98519914Y-84472500D01*
X98481835Y-84497943D01*
X98354199Y-84625579D01*
X98305527Y-84698423D01*
X98290374Y-84774600D01*
X97092450Y-84774600D01*
X97088267Y-84765441D01*
X97080328Y-84738404D01*
X97059866Y-84596089D01*
X97059866Y-84567911D01*
X97070170Y-84496239D01*
X97067619Y-84497944D01*
X96939987Y-84625577D01*
X96891313Y-84698423D01*
X96876160Y-84774600D01*
X96142910Y-84774600D01*
X96127757Y-84698423D01*
X96079083Y-84625577D01*
X95951452Y-84497945D01*
X95878606Y-84449271D01*
X95802429Y-84434118D01*
X95726251Y-84449271D01*
X95653408Y-84497943D01*
X95525771Y-84625580D01*
X95477099Y-84698423D01*
X95461946Y-84774600D01*
X94198894Y-84774600D01*
X94098996Y-84674702D01*
X94071219Y-84620185D01*
X94070000Y-84604698D01*
X94070000Y-84067493D01*
X94754840Y-84067493D01*
X94769993Y-84143671D01*
X94818665Y-84216514D01*
X94946301Y-84344150D01*
X95019144Y-84392822D01*
X95095322Y-84407975D01*
X95171499Y-84392822D01*
X95244342Y-84344150D01*
X95371978Y-84216514D01*
X95420650Y-84143671D01*
X95435803Y-84067494D01*
X96169053Y-84067494D01*
X96184206Y-84143671D01*
X96232878Y-84216514D01*
X96360514Y-84344150D01*
X96433357Y-84392822D01*
X96509535Y-84407975D01*
X96585714Y-84392822D01*
X96658556Y-84344150D01*
X96760071Y-84242636D01*
X96742525Y-84225090D01*
X96616664Y-84128514D01*
X96582008Y-84078090D01*
X96578722Y-84061287D01*
X96405017Y-83887583D01*
X96351270Y-83864075D01*
X96338487Y-83850337D01*
X96322216Y-83829133D01*
X96232880Y-83918470D01*
X96184206Y-83991316D01*
X96169053Y-84067494D01*
X95435803Y-84067494D01*
X95420650Y-83991316D01*
X95371976Y-83918470D01*
X95244346Y-83790839D01*
X95171499Y-83742165D01*
X95095321Y-83727012D01*
X95019144Y-83742165D01*
X94946297Y-83790839D01*
X94818667Y-83918470D01*
X94769993Y-83991316D01*
X94754840Y-84067493D01*
X94070000Y-84067493D01*
X94070000Y-83683305D01*
X94468000Y-83683305D01*
X94537238Y-83637041D01*
X94664869Y-83509411D01*
X94713543Y-83436564D01*
X94728696Y-83360387D01*
X94726867Y-83351192D01*
X94617384Y-83368533D01*
X94613522Y-83368990D01*
X94593978Y-83370528D01*
X94590093Y-83370681D01*
X94554907Y-83370681D01*
X94551022Y-83370528D01*
X94531478Y-83368990D01*
X94527616Y-83368533D01*
X94468000Y-83359090D01*
X94468000Y-83683305D01*
X94070000Y-83683305D01*
X94070000Y-82845763D01*
X94088907Y-82787572D01*
X94138407Y-82751608D01*
X94199593Y-82751608D01*
X94249093Y-82787572D01*
X94257209Y-82800818D01*
X94264927Y-82815965D01*
X94349035Y-82900073D01*
X94349037Y-82900074D01*
X94455011Y-82954071D01*
X94455013Y-82954071D01*
X94455018Y-82954074D01*
X94572500Y-82972681D01*
X94689982Y-82954074D01*
X94795965Y-82900073D01*
X94880073Y-82815965D01*
X94934074Y-82709982D01*
X94952681Y-82592500D01*
X94934074Y-82475018D01*
X94934071Y-82475013D01*
X94934071Y-82475011D01*
X94880073Y-82369035D01*
X94879404Y-82368114D01*
X94879052Y-82367031D01*
X94876536Y-82362093D01*
X94877318Y-82361694D01*
X94860500Y-82309928D01*
X94860500Y-81946173D01*
X95461946Y-81946173D01*
X95477099Y-82022351D01*
X95525773Y-82095197D01*
X95653405Y-82222828D01*
X95726251Y-82271502D01*
X95802429Y-82286655D01*
X95878606Y-82271502D01*
X95951449Y-82222830D01*
X95994499Y-82179781D01*
X95994499Y-81712566D01*
X95951449Y-81669516D01*
X95878606Y-81620844D01*
X95802428Y-81605691D01*
X95726251Y-81620844D01*
X95653408Y-81669516D01*
X95525771Y-81797153D01*
X95477099Y-81869995D01*
X95461946Y-81946173D01*
X94860500Y-81946173D01*
X94860500Y-81805037D01*
X94860975Y-81798190D01*
X94862679Y-81785977D01*
X94860553Y-81739999D01*
X94860500Y-81737713D01*
X94860500Y-81718810D01*
X94860339Y-81717950D01*
X94859900Y-81715601D01*
X94859110Y-81708798D01*
X94857706Y-81678420D01*
X94854095Y-81670243D01*
X94847346Y-81648446D01*
X94845704Y-81639660D01*
X94829692Y-81613800D01*
X94826498Y-81607739D01*
X94814215Y-81579921D01*
X94814213Y-81579918D01*
X94807889Y-81573594D01*
X94793725Y-81555712D01*
X94789022Y-81548116D01*
X94789018Y-81548112D01*
X94774758Y-81537344D01*
X94764760Y-81529794D01*
X94759587Y-81525292D01*
X94423996Y-81189702D01*
X94396219Y-81135185D01*
X94395000Y-81119698D01*
X94395000Y-81055779D01*
X94852931Y-81055779D01*
X95023912Y-81226760D01*
X95045395Y-81242984D01*
X95048915Y-81245906D01*
X95065965Y-81261450D01*
X95069201Y-81264686D01*
X95097100Y-81295292D01*
X95100021Y-81298810D01*
X95113638Y-81316841D01*
X95128108Y-81334267D01*
X95130863Y-81337916D01*
X95154266Y-81372080D01*
X95156674Y-81375969D01*
X95167899Y-81396122D01*
X95169939Y-81400217D01*
X95180816Y-81424851D01*
X95194991Y-81447745D01*
X95197216Y-81451740D01*
X95207499Y-81472389D01*
X95209347Y-81476575D01*
X95224310Y-81515198D01*
X95225765Y-81519539D01*
X95227820Y-81526763D01*
X95244342Y-81515723D01*
X95371978Y-81388087D01*
X95420650Y-81315244D01*
X95435803Y-81239066D01*
X95420650Y-81162889D01*
X95371976Y-81090043D01*
X95244345Y-80962411D01*
X95171499Y-80913737D01*
X95095322Y-80898584D01*
X95019144Y-80913737D01*
X94946298Y-80962411D01*
X94852931Y-81055779D01*
X94395000Y-81055779D01*
X94395000Y-80531959D01*
X95461946Y-80531959D01*
X95477099Y-80608137D01*
X95525773Y-80680983D01*
X95653405Y-80808614D01*
X95726251Y-80857288D01*
X95802429Y-80872441D01*
X95878606Y-80857288D01*
X95951449Y-80808616D01*
X95994499Y-80765566D01*
X95994499Y-80298353D01*
X95951449Y-80255303D01*
X95878606Y-80206631D01*
X95802429Y-80191478D01*
X95726251Y-80206631D01*
X95653405Y-80255305D01*
X95525773Y-80382936D01*
X95477099Y-80455782D01*
X95461946Y-80531959D01*
X94395000Y-80531959D01*
X94395000Y-79935461D01*
X94793000Y-79935461D01*
X94818668Y-79973877D01*
X94946297Y-80101507D01*
X95019144Y-80150181D01*
X95095322Y-80165334D01*
X95171499Y-80150181D01*
X95244346Y-80101507D01*
X95371976Y-79973876D01*
X95420650Y-79901030D01*
X95435803Y-79824853D01*
X95420650Y-79748675D01*
X95371978Y-79675832D01*
X95244342Y-79548196D01*
X95171499Y-79499524D01*
X95095321Y-79484371D01*
X95019144Y-79499524D01*
X94946301Y-79548196D01*
X94818665Y-79675832D01*
X94793000Y-79714243D01*
X94793000Y-79935461D01*
X94395000Y-79935461D01*
X94395000Y-79117746D01*
X95461946Y-79117746D01*
X95477099Y-79193924D01*
X95525771Y-79266766D01*
X95653408Y-79394403D01*
X95726251Y-79443075D01*
X95802428Y-79458228D01*
X95878606Y-79443075D01*
X95951451Y-79394401D01*
X95994499Y-79351354D01*
X95994499Y-78884139D01*
X95951449Y-78841089D01*
X95878606Y-78792417D01*
X95802429Y-78777264D01*
X95726251Y-78792417D01*
X95653405Y-78841091D01*
X95525773Y-78968722D01*
X95477099Y-79041568D01*
X95461946Y-79117746D01*
X94395000Y-79117746D01*
X94395000Y-78521248D01*
X94793000Y-78521248D01*
X94818666Y-78559661D01*
X94946301Y-78687296D01*
X95019144Y-78735968D01*
X95095321Y-78751121D01*
X95171499Y-78735968D01*
X95244342Y-78687296D01*
X95371978Y-78559660D01*
X95420650Y-78486817D01*
X95435803Y-78410639D01*
X95420650Y-78334461D01*
X95371976Y-78261616D01*
X95244345Y-78133984D01*
X95171499Y-78085310D01*
X95095321Y-78070157D01*
X95019144Y-78085310D01*
X94946298Y-78133984D01*
X94818667Y-78261616D01*
X94793000Y-78300029D01*
X94793000Y-78521248D01*
X94395000Y-78521248D01*
X94395000Y-77703533D01*
X95461946Y-77703533D01*
X95477099Y-77779710D01*
X95525773Y-77852556D01*
X95653405Y-77980187D01*
X95726251Y-78028861D01*
X95802428Y-78044014D01*
X95878606Y-78028861D01*
X95951449Y-77980189D01*
X95994499Y-77937139D01*
X95994499Y-77469925D01*
X95951450Y-77426876D01*
X95878606Y-77378204D01*
X95802429Y-77363051D01*
X95726251Y-77378204D01*
X95653407Y-77426876D01*
X95525771Y-77554512D01*
X95477099Y-77627355D01*
X95461946Y-77703533D01*
X94395000Y-77703533D01*
X94395000Y-77107034D01*
X94793000Y-77107034D01*
X94818666Y-77145447D01*
X94946301Y-77273082D01*
X95019144Y-77321754D01*
X95095322Y-77336907D01*
X95171499Y-77321754D01*
X95244342Y-77273082D01*
X95371978Y-77145446D01*
X95420650Y-77072603D01*
X95435803Y-76996425D01*
X95420650Y-76920248D01*
X95371978Y-76847405D01*
X95244342Y-76719769D01*
X95171499Y-76671097D01*
X95095322Y-76655944D01*
X95019144Y-76671097D01*
X94946301Y-76719769D01*
X94818665Y-76847405D01*
X94793000Y-76885816D01*
X94793000Y-77107034D01*
X94395000Y-77107034D01*
X94395000Y-76289318D01*
X95461946Y-76289318D01*
X95477099Y-76365496D01*
X95525771Y-76438339D01*
X95653408Y-76565976D01*
X95726251Y-76614648D01*
X95802429Y-76629801D01*
X95878606Y-76614648D01*
X95951451Y-76565974D01*
X95994499Y-76522927D01*
X95994499Y-76055712D01*
X95951449Y-76012662D01*
X95878606Y-75963990D01*
X95802429Y-75948837D01*
X95726251Y-75963990D01*
X95653405Y-76012664D01*
X95525773Y-76140295D01*
X95477099Y-76213141D01*
X95461946Y-76289318D01*
X94395000Y-76289318D01*
X94395000Y-75692821D01*
X94793000Y-75692821D01*
X94818666Y-75731234D01*
X94946301Y-75858869D01*
X95019144Y-75907541D01*
X95095321Y-75922694D01*
X95171499Y-75907541D01*
X95244342Y-75858869D01*
X95371978Y-75731233D01*
X95420650Y-75658390D01*
X95435803Y-75582212D01*
X95420650Y-75506033D01*
X95371978Y-75433191D01*
X95244342Y-75305555D01*
X95171499Y-75256883D01*
X95095322Y-75241730D01*
X95019144Y-75256883D01*
X94946301Y-75305555D01*
X94818665Y-75433191D01*
X94793000Y-75471602D01*
X94793000Y-75692821D01*
X94395000Y-75692821D01*
X94395000Y-74875106D01*
X95461946Y-74875106D01*
X95477099Y-74951283D01*
X95525773Y-75024129D01*
X95653405Y-75151760D01*
X95726251Y-75200434D01*
X95802429Y-75215587D01*
X95878606Y-75200434D01*
X95951451Y-75151760D01*
X95994499Y-75108713D01*
X95994499Y-74641498D01*
X95951449Y-74598448D01*
X95878606Y-74549776D01*
X95802429Y-74534623D01*
X95726251Y-74549776D01*
X95653408Y-74598448D01*
X95525771Y-74726085D01*
X95477099Y-74798928D01*
X95461946Y-74875106D01*
X94395000Y-74875106D01*
X94395000Y-74278607D01*
X94793000Y-74278607D01*
X94818666Y-74317020D01*
X94946301Y-74444655D01*
X95019144Y-74493327D01*
X95095321Y-74508480D01*
X95171499Y-74493327D01*
X95244342Y-74444655D01*
X95371978Y-74317019D01*
X95420650Y-74244176D01*
X95435803Y-74167999D01*
X95420650Y-74091821D01*
X95371978Y-74018978D01*
X95244342Y-73891342D01*
X95171499Y-73842670D01*
X95095322Y-73827517D01*
X95019144Y-73842670D01*
X94946301Y-73891342D01*
X94818665Y-74018978D01*
X94793000Y-74057389D01*
X94793000Y-74278607D01*
X94395000Y-74278607D01*
X94395000Y-73460892D01*
X95461946Y-73460892D01*
X95477099Y-73537069D01*
X95525771Y-73609912D01*
X95653407Y-73737548D01*
X95726251Y-73786220D01*
X95802429Y-73801373D01*
X95878606Y-73786220D01*
X95951453Y-73737546D01*
X95994499Y-73694500D01*
X95994499Y-73227285D01*
X95951449Y-73184235D01*
X95878606Y-73135563D01*
X95802428Y-73120410D01*
X95726251Y-73135563D01*
X95653405Y-73184237D01*
X95525773Y-73311868D01*
X95477099Y-73384714D01*
X95461946Y-73460892D01*
X94395000Y-73460892D01*
X94395000Y-72864394D01*
X94793000Y-72864394D01*
X94818667Y-72902808D01*
X94946298Y-73030440D01*
X95019144Y-73079114D01*
X95095322Y-73094267D01*
X95171499Y-73079114D01*
X95244345Y-73030440D01*
X95371976Y-72902808D01*
X95420650Y-72829963D01*
X95435803Y-72753785D01*
X95420650Y-72677607D01*
X95371978Y-72604764D01*
X95244342Y-72477128D01*
X95171499Y-72428456D01*
X95095322Y-72413303D01*
X95019144Y-72428456D01*
X94946301Y-72477128D01*
X94818665Y-72604764D01*
X94793000Y-72643175D01*
X94793000Y-72864394D01*
X94395000Y-72864394D01*
X94395000Y-72046678D01*
X95461946Y-72046678D01*
X95477099Y-72122856D01*
X95525773Y-72195702D01*
X95653405Y-72323333D01*
X95726251Y-72372007D01*
X95802429Y-72387160D01*
X95878606Y-72372007D01*
X95951449Y-72323335D01*
X95994499Y-72280286D01*
X95994499Y-71813071D01*
X95951449Y-71770021D01*
X95878606Y-71721349D01*
X95802428Y-71706196D01*
X95726251Y-71721349D01*
X95653408Y-71770021D01*
X95525771Y-71897658D01*
X95477099Y-71970500D01*
X95461946Y-72046678D01*
X94395000Y-72046678D01*
X94395000Y-71450180D01*
X94793000Y-71450180D01*
X94818666Y-71488593D01*
X94946301Y-71616228D01*
X95019144Y-71664900D01*
X95095322Y-71680053D01*
X95171499Y-71664900D01*
X95244342Y-71616228D01*
X95371978Y-71488592D01*
X95420650Y-71415749D01*
X95435803Y-71339572D01*
X95420650Y-71263394D01*
X95371976Y-71190548D01*
X95244346Y-71062917D01*
X95171499Y-71014243D01*
X95095321Y-70999090D01*
X95019144Y-71014243D01*
X94946297Y-71062917D01*
X94818667Y-71190548D01*
X94793000Y-71228962D01*
X94793000Y-71450180D01*
X94395000Y-71450180D01*
X94395000Y-70632465D01*
X95461946Y-70632465D01*
X95477099Y-70708642D01*
X95525773Y-70781488D01*
X95653405Y-70909119D01*
X95726251Y-70957793D01*
X95802429Y-70972946D01*
X95878606Y-70957793D01*
X95951451Y-70909119D01*
X95994499Y-70866072D01*
X95994499Y-70398858D01*
X95951449Y-70355808D01*
X95878606Y-70307136D01*
X95802429Y-70291983D01*
X95726251Y-70307136D01*
X95653405Y-70355810D01*
X95525773Y-70483441D01*
X95477099Y-70556287D01*
X95461946Y-70632465D01*
X94395000Y-70632465D01*
X94395000Y-70035966D01*
X94793000Y-70035966D01*
X94818668Y-70074382D01*
X94946298Y-70202013D01*
X95019144Y-70250687D01*
X95095322Y-70265840D01*
X95171499Y-70250687D01*
X95244345Y-70202013D01*
X95371976Y-70074381D01*
X95420650Y-70001535D01*
X95435803Y-69925358D01*
X95420650Y-69849180D01*
X95371978Y-69776337D01*
X95244342Y-69648701D01*
X95171499Y-69600029D01*
X95095321Y-69584876D01*
X95019144Y-69600029D01*
X94946301Y-69648701D01*
X94818665Y-69776337D01*
X94793000Y-69814748D01*
X94793000Y-70035966D01*
X94395000Y-70035966D01*
X94395000Y-69311852D01*
X95488740Y-69311852D01*
X95525773Y-69367275D01*
X95653405Y-69494906D01*
X95726251Y-69543580D01*
X95802428Y-69558733D01*
X95878606Y-69543580D01*
X95951449Y-69494908D01*
X95994499Y-69451859D01*
X95994499Y-69080374D01*
X95994436Y-69080438D01*
X95992168Y-69082568D01*
X95980410Y-69092934D01*
X95978016Y-69094915D01*
X95955785Y-69112161D01*
X95953268Y-69113990D01*
X95940293Y-69122808D01*
X95937666Y-69124475D01*
X95770887Y-69223109D01*
X95768158Y-69224608D01*
X95754182Y-69231729D01*
X95751368Y-69233053D01*
X95725544Y-69244227D01*
X95722652Y-69245372D01*
X95707903Y-69250681D01*
X95704947Y-69251641D01*
X95521418Y-69304963D01*
X95518972Y-69305606D01*
X95506561Y-69308534D01*
X95504084Y-69309052D01*
X95488740Y-69311852D01*
X94395000Y-69311852D01*
X94395000Y-68886902D01*
X94413907Y-68828711D01*
X94463407Y-68792747D01*
X94524593Y-68792747D01*
X94544392Y-68801687D01*
X94665600Y-68873370D01*
X94824642Y-68919576D01*
X94861797Y-68922500D01*
X95384202Y-68922499D01*
X95421358Y-68919576D01*
X95580400Y-68873370D01*
X95646490Y-68834284D01*
X95722948Y-68789067D01*
X95722949Y-68789065D01*
X95722954Y-68789063D01*
X95840063Y-68671954D01*
X95851001Y-68653460D01*
X95909126Y-68555176D01*
X95924370Y-68529400D01*
X95970576Y-68370358D01*
X95973500Y-68333203D01*
X95973499Y-67810798D01*
X95970576Y-67773642D01*
X95924370Y-67614600D01*
X95924368Y-67614596D01*
X95840067Y-67472051D01*
X95840064Y-67472048D01*
X95840063Y-67472046D01*
X95722954Y-67354937D01*
X95722951Y-67354935D01*
X95722948Y-67354932D01*
X95580402Y-67270631D01*
X95580401Y-67270630D01*
X95580400Y-67270630D01*
X95500878Y-67247526D01*
X95421356Y-67224423D01*
X95397542Y-67222549D01*
X95384203Y-67221500D01*
X95384197Y-67221500D01*
X94861802Y-67221500D01*
X94824642Y-67224424D01*
X94824637Y-67224425D01*
X94665596Y-67270631D01*
X94544395Y-67342310D01*
X94484683Y-67355658D01*
X94428530Y-67331358D01*
X94397384Y-67278693D01*
X94395000Y-67257097D01*
X94395000Y-67096931D01*
X96169053Y-67096931D01*
X96184206Y-67173108D01*
X96198672Y-67194758D01*
X96241906Y-67151524D01*
X96338487Y-67025660D01*
X96388912Y-66991005D01*
X96405711Y-66987720D01*
X96607363Y-66786068D01*
X96585714Y-66771602D01*
X96509535Y-66756449D01*
X96433357Y-66771602D01*
X96360514Y-66820274D01*
X96232878Y-66947910D01*
X96184206Y-67020753D01*
X96169053Y-67096931D01*
X94395000Y-67096931D01*
X94395000Y-66962299D01*
X94413907Y-66904108D01*
X94423990Y-66892302D01*
X94624469Y-66691822D01*
X94678982Y-66664046D01*
X94732482Y-66655574D01*
X94732484Y-66655573D01*
X94732485Y-66655573D01*
X94785473Y-66628573D01*
X94838465Y-66601573D01*
X94922573Y-66517465D01*
X94976574Y-66411482D01*
X94980004Y-66389824D01*
X95461946Y-66389824D01*
X95477099Y-66466002D01*
X95525771Y-66538844D01*
X95653408Y-66666481D01*
X95726251Y-66715153D01*
X95802429Y-66730306D01*
X95878606Y-66715153D01*
X95951452Y-66666479D01*
X96079083Y-66538847D01*
X96127757Y-66466002D01*
X96142910Y-66389824D01*
X96876160Y-66389824D01*
X96891313Y-66466002D01*
X96905778Y-66487651D01*
X97314469Y-66078961D01*
X97292819Y-66064495D01*
X97216642Y-66049342D01*
X97140464Y-66064495D01*
X97067621Y-66113167D01*
X96939985Y-66240803D01*
X96891313Y-66313646D01*
X96876160Y-66389824D01*
X96142910Y-66389824D01*
X96127757Y-66313646D01*
X96079085Y-66240803D01*
X95951449Y-66113167D01*
X95878606Y-66064495D01*
X95802429Y-66049342D01*
X95726251Y-66064495D01*
X95653405Y-66113169D01*
X95525773Y-66240800D01*
X95477099Y-66313646D01*
X95461946Y-66389824D01*
X94980004Y-66389824D01*
X94995181Y-66294000D01*
X94976574Y-66176518D01*
X94976571Y-66176513D01*
X94976571Y-66176511D01*
X94922574Y-66070537D01*
X94922573Y-66070535D01*
X94838465Y-65986427D01*
X94838462Y-65986425D01*
X94732488Y-65932428D01*
X94732483Y-65932426D01*
X94732482Y-65932426D01*
X94719259Y-65930331D01*
X94664744Y-65902554D01*
X94636967Y-65848037D01*
X94646539Y-65787605D01*
X94664741Y-65762550D01*
X94744574Y-65682717D01*
X96169053Y-65682717D01*
X96184206Y-65758895D01*
X96232878Y-65831738D01*
X96360514Y-65959374D01*
X96433357Y-66008046D01*
X96509535Y-66023199D01*
X96585714Y-66008046D01*
X96658556Y-65959374D01*
X96786192Y-65831738D01*
X96834864Y-65758895D01*
X96850017Y-65682717D01*
X97583267Y-65682717D01*
X97598420Y-65758895D01*
X97612885Y-65780544D01*
X98021576Y-65371854D01*
X97999926Y-65357388D01*
X97923749Y-65342235D01*
X97847571Y-65357388D01*
X97774725Y-65406062D01*
X97647094Y-65533694D01*
X97598420Y-65606539D01*
X97583267Y-65682717D01*
X96850017Y-65682717D01*
X96834864Y-65606539D01*
X96786190Y-65533694D01*
X96658559Y-65406062D01*
X96585714Y-65357388D01*
X96509535Y-65342235D01*
X96433357Y-65357388D01*
X96360511Y-65406062D01*
X96232880Y-65533694D01*
X96184206Y-65606539D01*
X96169053Y-65682717D01*
X94744574Y-65682717D01*
X95145661Y-65281630D01*
X95697352Y-65281630D01*
X95726251Y-65300939D01*
X95802429Y-65316092D01*
X95878606Y-65300939D01*
X95951449Y-65252267D01*
X96079085Y-65124631D01*
X96127757Y-65051788D01*
X96142910Y-64975610D01*
X96876160Y-64975610D01*
X96891313Y-65051788D01*
X96939985Y-65124631D01*
X97067621Y-65252267D01*
X97140464Y-65300939D01*
X97216642Y-65316092D01*
X97292819Y-65300939D01*
X97365665Y-65252265D01*
X97493297Y-65124634D01*
X97541971Y-65051788D01*
X97557124Y-64975611D01*
X98290374Y-64975611D01*
X98305527Y-65051788D01*
X98319993Y-65073438D01*
X98484410Y-64909022D01*
X98507921Y-64855271D01*
X98521657Y-64842489D01*
X98647528Y-64745903D01*
X98728684Y-64664747D01*
X98707033Y-64650281D01*
X98630855Y-64635128D01*
X98554678Y-64650281D01*
X98481835Y-64698953D01*
X98354199Y-64826589D01*
X98305527Y-64899433D01*
X98290374Y-64975611D01*
X97557124Y-64975611D01*
X97557124Y-64975610D01*
X97541971Y-64899433D01*
X97493299Y-64826590D01*
X97365662Y-64698953D01*
X97292819Y-64650281D01*
X97216642Y-64635128D01*
X97140464Y-64650281D01*
X97067618Y-64698955D01*
X96939987Y-64826587D01*
X96891313Y-64899433D01*
X96876160Y-64975610D01*
X96142910Y-64975610D01*
X96127757Y-64899433D01*
X96079083Y-64826587D01*
X95951451Y-64698955D01*
X95948980Y-64697303D01*
X95940293Y-64703208D01*
X95937666Y-64704875D01*
X95809000Y-64780968D01*
X95809000Y-64849387D01*
X95812720Y-64876059D01*
X95813142Y-64880612D01*
X95814207Y-64903651D01*
X95814207Y-64908225D01*
X95812295Y-64949596D01*
X95811872Y-64954153D01*
X95808751Y-64976517D01*
X95806659Y-64999088D01*
X95806028Y-65003617D01*
X95798417Y-65044332D01*
X95797368Y-65048788D01*
X95791053Y-65070980D01*
X95789599Y-65075318D01*
X95779875Y-65100411D01*
X95773717Y-65126608D01*
X95772464Y-65131011D01*
X95765129Y-65152896D01*
X95763476Y-65157164D01*
X95746741Y-65195063D01*
X95744700Y-65199161D01*
X95733721Y-65218866D01*
X95723621Y-65239149D01*
X95721395Y-65243146D01*
X95699586Y-65278370D01*
X95697352Y-65281630D01*
X95145661Y-65281630D01*
X95284553Y-65142738D01*
X95289727Y-65138238D01*
X95299560Y-65130812D01*
X95299565Y-65130810D01*
X95330596Y-65096769D01*
X95332150Y-65095141D01*
X95345518Y-65081775D01*
X95347358Y-65079087D01*
X95351609Y-65073718D01*
X95372104Y-65051239D01*
X95375332Y-65042904D01*
X95385972Y-65022718D01*
X95391024Y-65015344D01*
X95397986Y-64985738D01*
X95400010Y-64979200D01*
X95411000Y-64950837D01*
X95411000Y-64941893D01*
X95413630Y-64919225D01*
X95415675Y-64910530D01*
X95411475Y-64880418D01*
X95411000Y-64873572D01*
X95411000Y-64577316D01*
X95429907Y-64519125D01*
X95479407Y-64483161D01*
X95482352Y-64482255D01*
X95580400Y-64453770D01*
X95580403Y-64453768D01*
X95679416Y-64395212D01*
X96217969Y-64395212D01*
X96232876Y-64417522D01*
X96360514Y-64545160D01*
X96433357Y-64593832D01*
X96509535Y-64608985D01*
X96585714Y-64593832D01*
X96658556Y-64545160D01*
X96786192Y-64417524D01*
X96834864Y-64344681D01*
X96850017Y-64268504D01*
X96850017Y-64268503D01*
X97583267Y-64268503D01*
X97598420Y-64344681D01*
X97647092Y-64417524D01*
X97774728Y-64545160D01*
X97847571Y-64593832D01*
X97923748Y-64608985D01*
X97999926Y-64593832D01*
X98072769Y-64545160D01*
X98200405Y-64417524D01*
X98249077Y-64344681D01*
X98264230Y-64268504D01*
X98997480Y-64268504D01*
X99012633Y-64344681D01*
X99061307Y-64417527D01*
X99142281Y-64498500D01*
X99244818Y-64498500D01*
X99402119Y-64477791D01*
X99462280Y-64488941D01*
X99476485Y-64498500D01*
X99533644Y-64498500D01*
X99614619Y-64417524D01*
X99663291Y-64344681D01*
X99678444Y-64268504D01*
X100411694Y-64268504D01*
X100426847Y-64344681D01*
X100475519Y-64417524D01*
X100556495Y-64498500D01*
X100947858Y-64498500D01*
X101028830Y-64417528D01*
X101077504Y-64344681D01*
X101092657Y-64268504D01*
X101825907Y-64268504D01*
X101841060Y-64344681D01*
X101889734Y-64417527D01*
X101970708Y-64498500D01*
X102362071Y-64498500D01*
X102443046Y-64417524D01*
X102491718Y-64344681D01*
X102506871Y-64268504D01*
X103240121Y-64268504D01*
X103255274Y-64344681D01*
X103303946Y-64417524D01*
X103384922Y-64498500D01*
X103776285Y-64498500D01*
X103857258Y-64417527D01*
X103905932Y-64344681D01*
X103921085Y-64268504D01*
X104654335Y-64268504D01*
X104669488Y-64344681D01*
X104718162Y-64417528D01*
X104799135Y-64498500D01*
X105190498Y-64498500D01*
X105271473Y-64417524D01*
X105320145Y-64344681D01*
X105335298Y-64268504D01*
X105335298Y-64268503D01*
X106068548Y-64268503D01*
X106083701Y-64344681D01*
X106132373Y-64417524D01*
X106213349Y-64498500D01*
X106604712Y-64498500D01*
X106685685Y-64417527D01*
X106734359Y-64344681D01*
X106749512Y-64268504D01*
X106749512Y-64268503D01*
X107482762Y-64268503D01*
X107497915Y-64344681D01*
X107546587Y-64417524D01*
X107627563Y-64498500D01*
X108018925Y-64498500D01*
X108099900Y-64417524D01*
X108148572Y-64344681D01*
X108163725Y-64268504D01*
X108896975Y-64268504D01*
X108912128Y-64344681D01*
X108960802Y-64417527D01*
X109041776Y-64498500D01*
X109433139Y-64498500D01*
X109514114Y-64417524D01*
X109562786Y-64344681D01*
X109577939Y-64268504D01*
X110311189Y-64268504D01*
X110326342Y-64344681D01*
X110375014Y-64417524D01*
X110455990Y-64498500D01*
X110847353Y-64498500D01*
X110928325Y-64417528D01*
X110976999Y-64344681D01*
X110992152Y-64268504D01*
X111725402Y-64268504D01*
X111740555Y-64344681D01*
X111789229Y-64417527D01*
X111870203Y-64498500D01*
X112261566Y-64498500D01*
X112342541Y-64417524D01*
X112391213Y-64344681D01*
X112406366Y-64268504D01*
X113139616Y-64268504D01*
X113154769Y-64344681D01*
X113203441Y-64417524D01*
X113284417Y-64498500D01*
X113675780Y-64498500D01*
X113756753Y-64417527D01*
X113805427Y-64344681D01*
X113820580Y-64268504D01*
X114553830Y-64268504D01*
X114568983Y-64344681D01*
X114617657Y-64417528D01*
X114698630Y-64498500D01*
X115089993Y-64498500D01*
X115170968Y-64417524D01*
X115219640Y-64344681D01*
X115234793Y-64268504D01*
X115968043Y-64268504D01*
X115983196Y-64344681D01*
X116031868Y-64417524D01*
X116112844Y-64498500D01*
X116504207Y-64498500D01*
X116585180Y-64417527D01*
X116633854Y-64344681D01*
X116649007Y-64268504D01*
X117382257Y-64268504D01*
X117397410Y-64344681D01*
X117446082Y-64417524D01*
X117527058Y-64498500D01*
X117918420Y-64498500D01*
X117999395Y-64417524D01*
X118048067Y-64344681D01*
X118063220Y-64268504D01*
X118796470Y-64268504D01*
X118811623Y-64344681D01*
X118860295Y-64417524D01*
X118941271Y-64498500D01*
X119332634Y-64498500D01*
X119413609Y-64417524D01*
X119462281Y-64344681D01*
X119477434Y-64268504D01*
X119477434Y-64268503D01*
X120210684Y-64268503D01*
X120225837Y-64344681D01*
X120274509Y-64417524D01*
X120355485Y-64498500D01*
X120746847Y-64498500D01*
X120827822Y-64417524D01*
X120876494Y-64344681D01*
X120891647Y-64268504D01*
X121624897Y-64268504D01*
X121640050Y-64344681D01*
X121688724Y-64417527D01*
X121769698Y-64498500D01*
X122161061Y-64498500D01*
X122242036Y-64417524D01*
X122290708Y-64344681D01*
X122305861Y-64268504D01*
X123039111Y-64268504D01*
X123054264Y-64344681D01*
X123102936Y-64417524D01*
X123183912Y-64498500D01*
X123409494Y-64498500D01*
X123464131Y-64477116D01*
X123482881Y-64477791D01*
X123582825Y-64490948D01*
X123656247Y-64417528D01*
X123704921Y-64344681D01*
X123720074Y-64268504D01*
X124453324Y-64268504D01*
X124468477Y-64344681D01*
X124517151Y-64417527D01*
X124644783Y-64545158D01*
X124717629Y-64593832D01*
X124793807Y-64608985D01*
X124869984Y-64593832D01*
X124942827Y-64545160D01*
X125070463Y-64417524D01*
X125119135Y-64344681D01*
X125134288Y-64268504D01*
X125867538Y-64268504D01*
X125882691Y-64344681D01*
X125931363Y-64417524D01*
X126058999Y-64545160D01*
X126131842Y-64593832D01*
X126208020Y-64608985D01*
X126284197Y-64593832D01*
X126357043Y-64545158D01*
X126484675Y-64417527D01*
X126533349Y-64344681D01*
X126548502Y-64268504D01*
X127281752Y-64268504D01*
X127296905Y-64344681D01*
X127345579Y-64417528D01*
X127426552Y-64498500D01*
X127565818Y-64498500D01*
X127723119Y-64477791D01*
X127783280Y-64488941D01*
X127797485Y-64498500D01*
X127817915Y-64498500D01*
X127898890Y-64417524D01*
X127947562Y-64344681D01*
X127962715Y-64268504D01*
X127962715Y-64268503D01*
X128695965Y-64268503D01*
X128711118Y-64344681D01*
X128759790Y-64417524D01*
X128840766Y-64498500D01*
X129232129Y-64498500D01*
X129313102Y-64417527D01*
X129361776Y-64344681D01*
X129376929Y-64268504D01*
X129376929Y-64268503D01*
X130110179Y-64268503D01*
X130125332Y-64344681D01*
X130174004Y-64417524D01*
X130254980Y-64498500D01*
X130646342Y-64498500D01*
X130727317Y-64417524D01*
X130775989Y-64344681D01*
X130791142Y-64268504D01*
X131524392Y-64268504D01*
X131539545Y-64344681D01*
X131588219Y-64417527D01*
X131669193Y-64498500D01*
X132060556Y-64498500D01*
X132141531Y-64417524D01*
X132190203Y-64344681D01*
X132205356Y-64268504D01*
X132938606Y-64268504D01*
X132953759Y-64344681D01*
X133002431Y-64417524D01*
X133083407Y-64498500D01*
X133474770Y-64498500D01*
X133555742Y-64417528D01*
X133604416Y-64344681D01*
X133619569Y-64268504D01*
X134352819Y-64268504D01*
X134367972Y-64344681D01*
X134416646Y-64417527D01*
X134497620Y-64498500D01*
X134881626Y-64498500D01*
X134754562Y-64371436D01*
X134752432Y-64369168D01*
X134742066Y-64357410D01*
X134740085Y-64355016D01*
X134722839Y-64332785D01*
X134721010Y-64330268D01*
X134712192Y-64317293D01*
X134710525Y-64314666D01*
X134611891Y-64147887D01*
X134610392Y-64145158D01*
X134603271Y-64131182D01*
X134601947Y-64128368D01*
X134590773Y-64102544D01*
X134589628Y-64099652D01*
X134584319Y-64084903D01*
X134583359Y-64081947D01*
X134555084Y-63984629D01*
X134544278Y-63991849D01*
X134416646Y-64119480D01*
X134367972Y-64192326D01*
X134352819Y-64268504D01*
X133619569Y-64268504D01*
X133619569Y-64268503D01*
X133604416Y-64192326D01*
X133555742Y-64119479D01*
X133428111Y-63991849D01*
X133355265Y-63943175D01*
X133279088Y-63928022D01*
X133202910Y-63943175D01*
X133130067Y-63991847D01*
X133002431Y-64119483D01*
X132953759Y-64192326D01*
X132938606Y-64268504D01*
X132205356Y-64268504D01*
X132190203Y-64192326D01*
X132141531Y-64119483D01*
X132013895Y-63991847D01*
X131941052Y-63943175D01*
X131864874Y-63928022D01*
X131788696Y-63943175D01*
X131715851Y-63991849D01*
X131588219Y-64119480D01*
X131539545Y-64192326D01*
X131524392Y-64268504D01*
X130791142Y-64268504D01*
X130775989Y-64192326D01*
X130727317Y-64119483D01*
X130599681Y-63991847D01*
X130526838Y-63943175D01*
X130450660Y-63928022D01*
X130374483Y-63943175D01*
X130301640Y-63991847D01*
X130174004Y-64119483D01*
X130125332Y-64192326D01*
X130110179Y-64268503D01*
X129376929Y-64268503D01*
X129361776Y-64192326D01*
X129313102Y-64119480D01*
X129185470Y-63991849D01*
X129112625Y-63943175D01*
X129036447Y-63928022D01*
X128960269Y-63943175D01*
X128887426Y-63991847D01*
X128759790Y-64119483D01*
X128711118Y-64192326D01*
X128695965Y-64268503D01*
X127962715Y-64268503D01*
X127947562Y-64192326D01*
X127898890Y-64119483D01*
X127771254Y-63991847D01*
X127698411Y-63943175D01*
X127622234Y-63928022D01*
X127546056Y-63943175D01*
X127473210Y-63991849D01*
X127345579Y-64119479D01*
X127296905Y-64192326D01*
X127281752Y-64268504D01*
X126548502Y-64268504D01*
X126548502Y-64268503D01*
X126533349Y-64192326D01*
X126484675Y-64119480D01*
X126357043Y-63991849D01*
X126284197Y-63943175D01*
X126208019Y-63928022D01*
X126131842Y-63943175D01*
X126058999Y-63991847D01*
X125931363Y-64119483D01*
X125882691Y-64192326D01*
X125867538Y-64268504D01*
X125134288Y-64268504D01*
X125134288Y-64268503D01*
X125119135Y-64192326D01*
X125070463Y-64119483D01*
X124942827Y-63991847D01*
X124869984Y-63943175D01*
X124793806Y-63928022D01*
X124717629Y-63943175D01*
X124644783Y-63991849D01*
X124517151Y-64119480D01*
X124468477Y-64192326D01*
X124453324Y-64268504D01*
X123720074Y-64268504D01*
X123720074Y-64268503D01*
X123704921Y-64192326D01*
X123656247Y-64119479D01*
X123528616Y-63991849D01*
X123455770Y-63943175D01*
X123379593Y-63928022D01*
X123303415Y-63943175D01*
X123230572Y-63991847D01*
X123102936Y-64119483D01*
X123054264Y-64192326D01*
X123039111Y-64268504D01*
X122305861Y-64268504D01*
X122290708Y-64192326D01*
X122242036Y-64119483D01*
X122114400Y-63991847D01*
X122041557Y-63943175D01*
X121965379Y-63928022D01*
X121889201Y-63943175D01*
X121816356Y-63991849D01*
X121688724Y-64119480D01*
X121640050Y-64192326D01*
X121624897Y-64268504D01*
X120891647Y-64268504D01*
X120876494Y-64192326D01*
X120827822Y-64119483D01*
X120700186Y-63991847D01*
X120627343Y-63943175D01*
X120551165Y-63928022D01*
X120474988Y-63943175D01*
X120402145Y-63991847D01*
X120274509Y-64119483D01*
X120225837Y-64192326D01*
X120210684Y-64268503D01*
X119477434Y-64268503D01*
X119462281Y-64192326D01*
X119413609Y-64119483D01*
X119285973Y-63991847D01*
X119213131Y-63943175D01*
X119136952Y-63928022D01*
X119060774Y-63943175D01*
X118987931Y-63991847D01*
X118860295Y-64119483D01*
X118811623Y-64192326D01*
X118796470Y-64268504D01*
X118063220Y-64268504D01*
X118048067Y-64192326D01*
X117999395Y-64119483D01*
X117871759Y-63991847D01*
X117798916Y-63943175D01*
X117722739Y-63928022D01*
X117646561Y-63943175D01*
X117573718Y-63991847D01*
X117446082Y-64119483D01*
X117397410Y-64192326D01*
X117382257Y-64268504D01*
X116649007Y-64268504D01*
X116649007Y-64268503D01*
X116633854Y-64192326D01*
X116585180Y-64119480D01*
X116457548Y-63991849D01*
X116384703Y-63943175D01*
X116308525Y-63928022D01*
X116232347Y-63943175D01*
X116159504Y-63991847D01*
X116031868Y-64119483D01*
X115983196Y-64192326D01*
X115968043Y-64268504D01*
X115234793Y-64268504D01*
X115219640Y-64192326D01*
X115170968Y-64119483D01*
X115043332Y-63991847D01*
X114970489Y-63943175D01*
X114894311Y-63928022D01*
X114818134Y-63943175D01*
X114745288Y-63991849D01*
X114617657Y-64119479D01*
X114568983Y-64192326D01*
X114553830Y-64268504D01*
X113820580Y-64268504D01*
X113805427Y-64192326D01*
X113756753Y-64119480D01*
X113629121Y-63991849D01*
X113556275Y-63943175D01*
X113480098Y-63928022D01*
X113403920Y-63943175D01*
X113331077Y-63991847D01*
X113203441Y-64119483D01*
X113154769Y-64192326D01*
X113139616Y-64268504D01*
X112406366Y-64268504D01*
X112406366Y-64268503D01*
X112391213Y-64192326D01*
X112342541Y-64119483D01*
X112214905Y-63991847D01*
X112142062Y-63943175D01*
X112065884Y-63928022D01*
X111989707Y-63943175D01*
X111916861Y-63991849D01*
X111789229Y-64119480D01*
X111740555Y-64192326D01*
X111725402Y-64268504D01*
X110992152Y-64268504D01*
X110992152Y-64268503D01*
X110976999Y-64192326D01*
X110928325Y-64119479D01*
X110800694Y-63991849D01*
X110727848Y-63943175D01*
X110651670Y-63928022D01*
X110575493Y-63943175D01*
X110502650Y-63991847D01*
X110375014Y-64119483D01*
X110326342Y-64192326D01*
X110311189Y-64268504D01*
X109577939Y-64268504D01*
X109562786Y-64192326D01*
X109514114Y-64119483D01*
X109386478Y-63991847D01*
X109313635Y-63943175D01*
X109237457Y-63928022D01*
X109161279Y-63943175D01*
X109088434Y-63991849D01*
X108960802Y-64119480D01*
X108912128Y-64192326D01*
X108896975Y-64268504D01*
X108163725Y-64268504D01*
X108148572Y-64192326D01*
X108099900Y-64119483D01*
X107972264Y-63991847D01*
X107899421Y-63943175D01*
X107823244Y-63928022D01*
X107747066Y-63943175D01*
X107674223Y-63991847D01*
X107546587Y-64119483D01*
X107497915Y-64192326D01*
X107482762Y-64268503D01*
X106749512Y-64268503D01*
X106734359Y-64192326D01*
X106685685Y-64119480D01*
X106558053Y-63991849D01*
X106485208Y-63943175D01*
X106409030Y-63928022D01*
X106332852Y-63943175D01*
X106260009Y-63991847D01*
X106132373Y-64119483D01*
X106083701Y-64192326D01*
X106068548Y-64268503D01*
X105335298Y-64268503D01*
X105320145Y-64192326D01*
X105271473Y-64119483D01*
X105143837Y-63991847D01*
X105070994Y-63943175D01*
X104994816Y-63928022D01*
X104918639Y-63943175D01*
X104845793Y-63991849D01*
X104718162Y-64119479D01*
X104669488Y-64192326D01*
X104654335Y-64268504D01*
X103921085Y-64268504D01*
X103921085Y-64268503D01*
X103905932Y-64192326D01*
X103857258Y-64119480D01*
X103729626Y-63991849D01*
X103656780Y-63943175D01*
X103580603Y-63928022D01*
X103504425Y-63943175D01*
X103431582Y-63991847D01*
X103303946Y-64119483D01*
X103255274Y-64192326D01*
X103240121Y-64268504D01*
X102506871Y-64268504D01*
X102506871Y-64268503D01*
X102491718Y-64192326D01*
X102443046Y-64119483D01*
X102315410Y-63991847D01*
X102242567Y-63943175D01*
X102166390Y-63928022D01*
X102090212Y-63943175D01*
X102017366Y-63991849D01*
X101889734Y-64119480D01*
X101841060Y-64192326D01*
X101825907Y-64268504D01*
X101092657Y-64268504D01*
X101077504Y-64192326D01*
X101028830Y-64119479D01*
X100901199Y-63991849D01*
X100828353Y-63943175D01*
X100752176Y-63928022D01*
X100675998Y-63943175D01*
X100603155Y-63991847D01*
X100475519Y-64119483D01*
X100426847Y-64192326D01*
X100411694Y-64268504D01*
X99678444Y-64268504D01*
X99663291Y-64192326D01*
X99614619Y-64119483D01*
X99486983Y-63991847D01*
X99414140Y-63943175D01*
X99337962Y-63928022D01*
X99261784Y-63943175D01*
X99188939Y-63991849D01*
X99061307Y-64119480D01*
X99012633Y-64192326D01*
X98997480Y-64268504D01*
X98264230Y-64268504D01*
X98264230Y-64268503D01*
X98249077Y-64192326D01*
X98200405Y-64119483D01*
X98072769Y-63991847D01*
X97999926Y-63943175D01*
X97923749Y-63928022D01*
X97847571Y-63943175D01*
X97774728Y-63991847D01*
X97647092Y-64119483D01*
X97598420Y-64192326D01*
X97583267Y-64268503D01*
X96850017Y-64268503D01*
X96834864Y-64192326D01*
X96786192Y-64119483D01*
X96658556Y-63991847D01*
X96585714Y-63943175D01*
X96509535Y-63928022D01*
X96433357Y-63943175D01*
X96366909Y-63987574D01*
X96366453Y-63993376D01*
X96366190Y-63995893D01*
X96364542Y-64008533D01*
X96364152Y-64011029D01*
X96360045Y-64033513D01*
X96359528Y-64035986D01*
X96356603Y-64048380D01*
X96355961Y-64050824D01*
X96302642Y-64234347D01*
X96301681Y-64237305D01*
X96296370Y-64252055D01*
X96295226Y-64254945D01*
X96284053Y-64280768D01*
X96282729Y-64283582D01*
X96275608Y-64297559D01*
X96274109Y-64300287D01*
X96217969Y-64395212D01*
X95679416Y-64395212D01*
X95722948Y-64369467D01*
X95722949Y-64369465D01*
X95722954Y-64369463D01*
X95840063Y-64252354D01*
X95848965Y-64237303D01*
X95903459Y-64145158D01*
X95924370Y-64109800D01*
X95970576Y-63950758D01*
X95973500Y-63913603D01*
X95973499Y-63561396D01*
X96876160Y-63561396D01*
X96891313Y-63637574D01*
X96939987Y-63710420D01*
X97067618Y-63838052D01*
X97140464Y-63886726D01*
X97216642Y-63901879D01*
X97292819Y-63886726D01*
X97365662Y-63838054D01*
X97493299Y-63710417D01*
X97541971Y-63637574D01*
X97543630Y-63629235D01*
X97465883Y-63616922D01*
X97462069Y-63616163D01*
X97443011Y-63611588D01*
X97439271Y-63610533D01*
X97405804Y-63599661D01*
X97402153Y-63598314D01*
X97384037Y-63590809D01*
X97380507Y-63589182D01*
X97325973Y-63561396D01*
X98290374Y-63561396D01*
X98305527Y-63637574D01*
X98354199Y-63710418D01*
X98481835Y-63838054D01*
X98554678Y-63886726D01*
X98630856Y-63901879D01*
X98707033Y-63886726D01*
X98779879Y-63838052D01*
X98907510Y-63710420D01*
X98956184Y-63637574D01*
X98971337Y-63561396D01*
X99704587Y-63561396D01*
X99719740Y-63637574D01*
X99768414Y-63710420D01*
X99896045Y-63838052D01*
X99968891Y-63886726D01*
X100045069Y-63901879D01*
X100121247Y-63886726D01*
X100194089Y-63838054D01*
X100321726Y-63710417D01*
X100370398Y-63637574D01*
X100373673Y-63621110D01*
X100247884Y-63641033D01*
X100244022Y-63641490D01*
X100224478Y-63643028D01*
X100220593Y-63643181D01*
X100185407Y-63643181D01*
X100181522Y-63643028D01*
X100161978Y-63641490D01*
X100158116Y-63641033D01*
X100005883Y-63616922D01*
X100002069Y-63616163D01*
X99983011Y-63611588D01*
X99979271Y-63610533D01*
X99945804Y-63599661D01*
X99942153Y-63598314D01*
X99924037Y-63590809D01*
X99920507Y-63589182D01*
X99865973Y-63561396D01*
X101118801Y-63561396D01*
X101133954Y-63637574D01*
X101182628Y-63710420D01*
X101310259Y-63838052D01*
X101383105Y-63886726D01*
X101459283Y-63901879D01*
X101535460Y-63886726D01*
X101608306Y-63838052D01*
X101735937Y-63710420D01*
X101784611Y-63637574D01*
X101788794Y-63616544D01*
X102543984Y-63616544D01*
X102548167Y-63637574D01*
X102596841Y-63710420D01*
X102724472Y-63838052D01*
X102797317Y-63886726D01*
X102873496Y-63901879D01*
X102949674Y-63886726D01*
X103022520Y-63838052D01*
X103150151Y-63710420D01*
X103198825Y-63637574D01*
X103213978Y-63561396D01*
X103947228Y-63561396D01*
X103962381Y-63637574D01*
X104011055Y-63710420D01*
X104138686Y-63838052D01*
X104211532Y-63886726D01*
X104287709Y-63901879D01*
X104363887Y-63886726D01*
X104436733Y-63838052D01*
X104564364Y-63710420D01*
X104609854Y-63642339D01*
X105379778Y-63642339D01*
X105425266Y-63710417D01*
X105552903Y-63838054D01*
X105625746Y-63886726D01*
X105701924Y-63901879D01*
X105778101Y-63886726D01*
X105850947Y-63838052D01*
X105978578Y-63710420D01*
X106027252Y-63637574D01*
X106042405Y-63561396D01*
X106775655Y-63561396D01*
X106790808Y-63637574D01*
X106839482Y-63710420D01*
X106967113Y-63838052D01*
X107039959Y-63886726D01*
X107116137Y-63901879D01*
X107192314Y-63886726D01*
X107265157Y-63838054D01*
X107392794Y-63710417D01*
X107441466Y-63637574D01*
X107448418Y-63602625D01*
X108198069Y-63602625D01*
X108205021Y-63637574D01*
X108253693Y-63710417D01*
X108381330Y-63838054D01*
X108454173Y-63886726D01*
X108530350Y-63901879D01*
X108606528Y-63886726D01*
X108679374Y-63838052D01*
X108807005Y-63710420D01*
X108855679Y-63637574D01*
X108870832Y-63561396D01*
X109604082Y-63561396D01*
X109619235Y-63637574D01*
X109667909Y-63710420D01*
X109795540Y-63838052D01*
X109868386Y-63886726D01*
X109944564Y-63901879D01*
X110020741Y-63886726D01*
X110093584Y-63838054D01*
X110221221Y-63710417D01*
X110269893Y-63637574D01*
X110270699Y-63633523D01*
X110165883Y-63616922D01*
X110162069Y-63616163D01*
X110143011Y-63611588D01*
X110139271Y-63610533D01*
X110105804Y-63599661D01*
X110102153Y-63598314D01*
X110084037Y-63590809D01*
X110080507Y-63589182D01*
X110025973Y-63561396D01*
X111018296Y-63561396D01*
X111033449Y-63637574D01*
X111082123Y-63710420D01*
X111209754Y-63838052D01*
X111282600Y-63886726D01*
X111358778Y-63901879D01*
X111434955Y-63886726D01*
X111507801Y-63838052D01*
X111635432Y-63710420D01*
X111684106Y-63637574D01*
X111699259Y-63561396D01*
X112432509Y-63561396D01*
X112447662Y-63637574D01*
X112496336Y-63710420D01*
X112623967Y-63838052D01*
X112696813Y-63886726D01*
X112772991Y-63901879D01*
X112849169Y-63886726D01*
X112922011Y-63838054D01*
X113049648Y-63710417D01*
X113098320Y-63637574D01*
X113102523Y-63616443D01*
X113100117Y-63616922D01*
X112947884Y-63641033D01*
X112944022Y-63641490D01*
X112924478Y-63643028D01*
X112920593Y-63643181D01*
X112885407Y-63643181D01*
X112881522Y-63643028D01*
X112861978Y-63641490D01*
X112858116Y-63641033D01*
X112705883Y-63616922D01*
X112702069Y-63616163D01*
X112683011Y-63611588D01*
X112679271Y-63610533D01*
X112645804Y-63599661D01*
X112642153Y-63598314D01*
X112624037Y-63590809D01*
X112620507Y-63589182D01*
X112565973Y-63561396D01*
X113846723Y-63561396D01*
X113861876Y-63637574D01*
X113910550Y-63710420D01*
X114038181Y-63838052D01*
X114111027Y-63886726D01*
X114187205Y-63901879D01*
X114263382Y-63886726D01*
X114336228Y-63838052D01*
X114463859Y-63710420D01*
X114512533Y-63637574D01*
X114515792Y-63621189D01*
X115272830Y-63621189D01*
X115276089Y-63637574D01*
X115324761Y-63710417D01*
X115452398Y-63838054D01*
X115525240Y-63886726D01*
X115601418Y-63901879D01*
X115677596Y-63886726D01*
X115750442Y-63838052D01*
X115878073Y-63710420D01*
X115926747Y-63637574D01*
X115941900Y-63561396D01*
X116675150Y-63561396D01*
X116690303Y-63637574D01*
X116738977Y-63710420D01*
X116866608Y-63838052D01*
X116939454Y-63886726D01*
X117015632Y-63901879D01*
X117091809Y-63886726D01*
X117164652Y-63838054D01*
X117292288Y-63710418D01*
X117340960Y-63637574D01*
X117342634Y-63629160D01*
X118102842Y-63629160D01*
X118104516Y-63637574D01*
X118153188Y-63710417D01*
X118280825Y-63838054D01*
X118353668Y-63886726D01*
X118429846Y-63901879D01*
X118506023Y-63886726D01*
X118578869Y-63838052D01*
X118706500Y-63710420D01*
X118755174Y-63637574D01*
X118770327Y-63561396D01*
X119503577Y-63561396D01*
X119518730Y-63637574D01*
X119567404Y-63710420D01*
X119695035Y-63838052D01*
X119767881Y-63886726D01*
X119844059Y-63901879D01*
X119920236Y-63886726D01*
X119993079Y-63838054D01*
X120120716Y-63710417D01*
X120169388Y-63637574D01*
X120184541Y-63561397D01*
X120184541Y-63561396D01*
X120917791Y-63561396D01*
X120932944Y-63637574D01*
X120981616Y-63710418D01*
X121109252Y-63838054D01*
X121182095Y-63886726D01*
X121258272Y-63901879D01*
X121334450Y-63886726D01*
X121407296Y-63838052D01*
X121534927Y-63710420D01*
X121583601Y-63637574D01*
X121598754Y-63561396D01*
X122332004Y-63561396D01*
X122347157Y-63637574D01*
X122395831Y-63710420D01*
X122523462Y-63838052D01*
X122596308Y-63886726D01*
X122672486Y-63901879D01*
X122748664Y-63886726D01*
X122821506Y-63838054D01*
X122949143Y-63710417D01*
X122997668Y-63637794D01*
X122865883Y-63616922D01*
X122862069Y-63616163D01*
X122843011Y-63611588D01*
X122839271Y-63610533D01*
X122805804Y-63599661D01*
X122802153Y-63598314D01*
X122784037Y-63590809D01*
X122780507Y-63589182D01*
X122725973Y-63561396D01*
X123746218Y-63561396D01*
X123761371Y-63637574D01*
X123810045Y-63710420D01*
X123937676Y-63838052D01*
X124010522Y-63886726D01*
X124086700Y-63901879D01*
X124162877Y-63886726D01*
X124235723Y-63838052D01*
X124363354Y-63710420D01*
X124412028Y-63637574D01*
X124427181Y-63561396D01*
X125160431Y-63561396D01*
X125175584Y-63637574D01*
X125224258Y-63710420D01*
X125351889Y-63838052D01*
X125424734Y-63886726D01*
X125500913Y-63901879D01*
X125577091Y-63886726D01*
X125649937Y-63838052D01*
X125777568Y-63710420D01*
X125826242Y-63637574D01*
X125831959Y-63608833D01*
X125826729Y-63610533D01*
X125822989Y-63611588D01*
X125803931Y-63616163D01*
X125800117Y-63616922D01*
X125647884Y-63641033D01*
X125644022Y-63641490D01*
X125624478Y-63643028D01*
X125620593Y-63643181D01*
X125585407Y-63643181D01*
X125581522Y-63643028D01*
X125561978Y-63641490D01*
X125558116Y-63641033D01*
X125405883Y-63616922D01*
X125402069Y-63616163D01*
X125383011Y-63611588D01*
X125379271Y-63610533D01*
X125345804Y-63599661D01*
X125342153Y-63598314D01*
X125324037Y-63590809D01*
X125320507Y-63589182D01*
X125265973Y-63561396D01*
X126574645Y-63561396D01*
X126589798Y-63637574D01*
X126638472Y-63710420D01*
X126766103Y-63838052D01*
X126838949Y-63886726D01*
X126915126Y-63901879D01*
X126991304Y-63886726D01*
X127064150Y-63838052D01*
X127191781Y-63710420D01*
X127240455Y-63637574D01*
X127242806Y-63625756D01*
X128001660Y-63625756D01*
X128004011Y-63637574D01*
X128052683Y-63710417D01*
X128180320Y-63838054D01*
X128253163Y-63886726D01*
X128329341Y-63901879D01*
X128405518Y-63886726D01*
X128478364Y-63838052D01*
X128605995Y-63710420D01*
X128654669Y-63637574D01*
X128669822Y-63561396D01*
X129403072Y-63561396D01*
X129418225Y-63637574D01*
X129466899Y-63710420D01*
X129594530Y-63838052D01*
X129667376Y-63886726D01*
X129743554Y-63901879D01*
X129819731Y-63886726D01*
X129892574Y-63838054D01*
X130020211Y-63710417D01*
X130068883Y-63637574D01*
X130071409Y-63624873D01*
X130829911Y-63624873D01*
X130832438Y-63637574D01*
X130881110Y-63710417D01*
X131008747Y-63838054D01*
X131081590Y-63886726D01*
X131157767Y-63901879D01*
X131233945Y-63886726D01*
X131306791Y-63838052D01*
X131434422Y-63710420D01*
X131483096Y-63637574D01*
X131498249Y-63561396D01*
X132231499Y-63561396D01*
X132246652Y-63637574D01*
X132295326Y-63710420D01*
X132422957Y-63838052D01*
X132495803Y-63886726D01*
X132571981Y-63901879D01*
X132648158Y-63886726D01*
X132721001Y-63838054D01*
X132848638Y-63710417D01*
X132897310Y-63637574D01*
X132901341Y-63617311D01*
X132898883Y-63616922D01*
X132895069Y-63616163D01*
X132876011Y-63611588D01*
X132872271Y-63610533D01*
X132838804Y-63599661D01*
X132835153Y-63598314D01*
X132817037Y-63590809D01*
X132813507Y-63589182D01*
X132758973Y-63561396D01*
X133645713Y-63561396D01*
X133660866Y-63637574D01*
X133709540Y-63710420D01*
X133837171Y-63838052D01*
X133910017Y-63886726D01*
X133986195Y-63901879D01*
X134062372Y-63886726D01*
X134135218Y-63838052D01*
X134262849Y-63710420D01*
X134311523Y-63637574D01*
X134326676Y-63561396D01*
X134311523Y-63485219D01*
X134262851Y-63412376D01*
X134135215Y-63284740D01*
X134062372Y-63236068D01*
X133986195Y-63220915D01*
X133910017Y-63236068D01*
X133837174Y-63284740D01*
X133709538Y-63412376D01*
X133660866Y-63485219D01*
X133645713Y-63561396D01*
X132758973Y-63561396D01*
X132738570Y-63551000D01*
X132233568Y-63551000D01*
X132231499Y-63561396D01*
X131498249Y-63561396D01*
X131496181Y-63551000D01*
X131040430Y-63551000D01*
X130965493Y-63589182D01*
X130961963Y-63590809D01*
X130943847Y-63598314D01*
X130940196Y-63599661D01*
X130906729Y-63610533D01*
X130902989Y-63611588D01*
X130883931Y-63616163D01*
X130880117Y-63616922D01*
X130829911Y-63624873D01*
X130071409Y-63624873D01*
X130084036Y-63561396D01*
X130081968Y-63551000D01*
X129405141Y-63551000D01*
X129403072Y-63561396D01*
X128669822Y-63561396D01*
X128667754Y-63551000D01*
X128500430Y-63551000D01*
X128425493Y-63589182D01*
X128421963Y-63590809D01*
X128403847Y-63598314D01*
X128400196Y-63599661D01*
X128366729Y-63610533D01*
X128362989Y-63611588D01*
X128343931Y-63616163D01*
X128340117Y-63616922D01*
X128187884Y-63641033D01*
X128184022Y-63641490D01*
X128164478Y-63643028D01*
X128160593Y-63643181D01*
X128125407Y-63643181D01*
X128121522Y-63643028D01*
X128101978Y-63641490D01*
X128098116Y-63641033D01*
X128001660Y-63625756D01*
X127242806Y-63625756D01*
X127255608Y-63561396D01*
X127253540Y-63551000D01*
X126576714Y-63551000D01*
X126574645Y-63561396D01*
X125265973Y-63561396D01*
X125245570Y-63551000D01*
X125162500Y-63551000D01*
X125160431Y-63561396D01*
X124427181Y-63561396D01*
X124425113Y-63551000D01*
X123748287Y-63551000D01*
X123746218Y-63561396D01*
X122725973Y-63561396D01*
X122705570Y-63551000D01*
X122334073Y-63551000D01*
X122332004Y-63561396D01*
X121598754Y-63561396D01*
X121596686Y-63551000D01*
X120919859Y-63551000D01*
X120917791Y-63561396D01*
X120184541Y-63561396D01*
X120184379Y-63560583D01*
X120165570Y-63551000D01*
X119505646Y-63551000D01*
X119503577Y-63561396D01*
X118770327Y-63561396D01*
X118768259Y-63551000D01*
X118340430Y-63551000D01*
X118265493Y-63589182D01*
X118261963Y-63590809D01*
X118243847Y-63598314D01*
X118240196Y-63599661D01*
X118206729Y-63610533D01*
X118202989Y-63611588D01*
X118183931Y-63616163D01*
X118180117Y-63616922D01*
X118102842Y-63629160D01*
X117342634Y-63629160D01*
X117356113Y-63561396D01*
X117354045Y-63551000D01*
X116677219Y-63551000D01*
X116675150Y-63561396D01*
X115941900Y-63561396D01*
X115939832Y-63551000D01*
X115800430Y-63551000D01*
X115725493Y-63589182D01*
X115721963Y-63590809D01*
X115703847Y-63598314D01*
X115700196Y-63599661D01*
X115666729Y-63610533D01*
X115662989Y-63611588D01*
X115643931Y-63616163D01*
X115640117Y-63616922D01*
X115487884Y-63641033D01*
X115484022Y-63641490D01*
X115464478Y-63643028D01*
X115460593Y-63643181D01*
X115425407Y-63643181D01*
X115421522Y-63643028D01*
X115401978Y-63641490D01*
X115398116Y-63641033D01*
X115272830Y-63621189D01*
X114515792Y-63621189D01*
X114527686Y-63561396D01*
X114525618Y-63551000D01*
X113848792Y-63551000D01*
X113846723Y-63561396D01*
X112565973Y-63561396D01*
X112545570Y-63551000D01*
X112434578Y-63551000D01*
X112432509Y-63561396D01*
X111699259Y-63561396D01*
X111697191Y-63551000D01*
X111020365Y-63551000D01*
X111018296Y-63561396D01*
X110025973Y-63561396D01*
X110005570Y-63551000D01*
X109606151Y-63551000D01*
X109604082Y-63561396D01*
X108870832Y-63561396D01*
X108868764Y-63551000D01*
X108307430Y-63551000D01*
X108232493Y-63589182D01*
X108228963Y-63590809D01*
X108210847Y-63598314D01*
X108207196Y-63599661D01*
X108198069Y-63602625D01*
X107448418Y-63602625D01*
X107456619Y-63561396D01*
X107454551Y-63551000D01*
X106777724Y-63551000D01*
X106775655Y-63561396D01*
X106042405Y-63561396D01*
X106040337Y-63551000D01*
X105767430Y-63551000D01*
X105692493Y-63589182D01*
X105688963Y-63590809D01*
X105670847Y-63598314D01*
X105667196Y-63599661D01*
X105633729Y-63610533D01*
X105629989Y-63611588D01*
X105610931Y-63616163D01*
X105607117Y-63616922D01*
X105454884Y-63641033D01*
X105451022Y-63641490D01*
X105431478Y-63643028D01*
X105427593Y-63643181D01*
X105392407Y-63643181D01*
X105388522Y-63643028D01*
X105379778Y-63642339D01*
X104609854Y-63642339D01*
X104613038Y-63637574D01*
X104628191Y-63561396D01*
X104626123Y-63551000D01*
X103949297Y-63551000D01*
X103947228Y-63561396D01*
X103213978Y-63561396D01*
X103211910Y-63551000D01*
X103100430Y-63551000D01*
X103025493Y-63589182D01*
X103021963Y-63590809D01*
X103003847Y-63598314D01*
X103000196Y-63599661D01*
X102966729Y-63610533D01*
X102962989Y-63611588D01*
X102943931Y-63616163D01*
X102940117Y-63616922D01*
X102787884Y-63641033D01*
X102784022Y-63641490D01*
X102764478Y-63643028D01*
X102760593Y-63643181D01*
X102725407Y-63643181D01*
X102721522Y-63643028D01*
X102701978Y-63641490D01*
X102698116Y-63641033D01*
X102545883Y-63616922D01*
X102543984Y-63616544D01*
X101788794Y-63616544D01*
X101799764Y-63561396D01*
X101797696Y-63551000D01*
X101120870Y-63551000D01*
X101118801Y-63561396D01*
X99865973Y-63561396D01*
X99845570Y-63551000D01*
X99706656Y-63551000D01*
X99704587Y-63561396D01*
X98971337Y-63561396D01*
X98969269Y-63551000D01*
X98292443Y-63551000D01*
X98290374Y-63561396D01*
X97325973Y-63561396D01*
X97305570Y-63551000D01*
X96878229Y-63551000D01*
X96876160Y-63561396D01*
X95973499Y-63561396D01*
X95973499Y-63391198D01*
X95970576Y-63354042D01*
X95954959Y-63300289D01*
X95956881Y-63239137D01*
X95980025Y-63202667D01*
X96000700Y-63181993D01*
X96055219Y-63154218D01*
X96070701Y-63153000D01*
X97380428Y-63153000D01*
X97432194Y-63169818D01*
X97432593Y-63169036D01*
X97437531Y-63171552D01*
X97438614Y-63171904D01*
X97439535Y-63172573D01*
X97545511Y-63226571D01*
X97545513Y-63226571D01*
X97545518Y-63226574D01*
X97663000Y-63245181D01*
X97780482Y-63226574D01*
X97886465Y-63172573D01*
X97886467Y-63172570D01*
X97887386Y-63171904D01*
X97888468Y-63171552D01*
X97893407Y-63169036D01*
X97893805Y-63169818D01*
X97945572Y-63153000D01*
X99920428Y-63153000D01*
X99972194Y-63169818D01*
X99972593Y-63169036D01*
X99977531Y-63171552D01*
X99978614Y-63171904D01*
X99979535Y-63172573D01*
X100085511Y-63226571D01*
X100085513Y-63226571D01*
X100085518Y-63226574D01*
X100203000Y-63245181D01*
X100320482Y-63226574D01*
X100426465Y-63172573D01*
X100426467Y-63172570D01*
X100427386Y-63171904D01*
X100428468Y-63171552D01*
X100433407Y-63169036D01*
X100433805Y-63169818D01*
X100485572Y-63153000D01*
X102460428Y-63153000D01*
X102512194Y-63169818D01*
X102512593Y-63169036D01*
X102517531Y-63171552D01*
X102518614Y-63171904D01*
X102519535Y-63172573D01*
X102625511Y-63226571D01*
X102625513Y-63226571D01*
X102625518Y-63226574D01*
X102743000Y-63245181D01*
X102860482Y-63226574D01*
X102966465Y-63172573D01*
X102966467Y-63172570D01*
X102967386Y-63171904D01*
X102968468Y-63171552D01*
X102973407Y-63169036D01*
X102973805Y-63169818D01*
X103025572Y-63153000D01*
X105127428Y-63153000D01*
X105179194Y-63169818D01*
X105179593Y-63169036D01*
X105184531Y-63171552D01*
X105185614Y-63171904D01*
X105186535Y-63172573D01*
X105292511Y-63226571D01*
X105292513Y-63226571D01*
X105292518Y-63226574D01*
X105410000Y-63245181D01*
X105527482Y-63226574D01*
X105633465Y-63172573D01*
X105633467Y-63172570D01*
X105634386Y-63171904D01*
X105635468Y-63171552D01*
X105640407Y-63169036D01*
X105640805Y-63169818D01*
X105692572Y-63153000D01*
X107667428Y-63153000D01*
X107719194Y-63169818D01*
X107719593Y-63169036D01*
X107724531Y-63171552D01*
X107725614Y-63171904D01*
X107726535Y-63172573D01*
X107832511Y-63226571D01*
X107832513Y-63226571D01*
X107832518Y-63226574D01*
X107933936Y-63242636D01*
X107949999Y-63245181D01*
X107949999Y-63245180D01*
X107950000Y-63245181D01*
X108067482Y-63226574D01*
X108173465Y-63172573D01*
X108173467Y-63172570D01*
X108174386Y-63171904D01*
X108175468Y-63171552D01*
X108180407Y-63169036D01*
X108180805Y-63169818D01*
X108232572Y-63153000D01*
X110080428Y-63153000D01*
X110132194Y-63169818D01*
X110132593Y-63169036D01*
X110137531Y-63171552D01*
X110138614Y-63171904D01*
X110139535Y-63172573D01*
X110245511Y-63226571D01*
X110245513Y-63226571D01*
X110245518Y-63226574D01*
X110346936Y-63242636D01*
X110362999Y-63245181D01*
X110362999Y-63245180D01*
X110363000Y-63245181D01*
X110480482Y-63226574D01*
X110586465Y-63172573D01*
X110586467Y-63172570D01*
X110587386Y-63171904D01*
X110588468Y-63171552D01*
X110593407Y-63169036D01*
X110593805Y-63169818D01*
X110645572Y-63153000D01*
X112620428Y-63153000D01*
X112672194Y-63169818D01*
X112672593Y-63169036D01*
X112677531Y-63171552D01*
X112678614Y-63171904D01*
X112679535Y-63172573D01*
X112785511Y-63226571D01*
X112785513Y-63226571D01*
X112785518Y-63226574D01*
X112886936Y-63242636D01*
X112902999Y-63245181D01*
X112902999Y-63245180D01*
X112903000Y-63245181D01*
X113020482Y-63226574D01*
X113126465Y-63172573D01*
X113126467Y-63172570D01*
X113127386Y-63171904D01*
X113128468Y-63171552D01*
X113133407Y-63169036D01*
X113133805Y-63169818D01*
X113185572Y-63153000D01*
X115160428Y-63153000D01*
X115212194Y-63169818D01*
X115212593Y-63169036D01*
X115217531Y-63171552D01*
X115218614Y-63171904D01*
X115219535Y-63172573D01*
X115325511Y-63226571D01*
X115325513Y-63226571D01*
X115325518Y-63226574D01*
X115443000Y-63245181D01*
X115560482Y-63226574D01*
X115666465Y-63172573D01*
X115666467Y-63172570D01*
X115667386Y-63171904D01*
X115668468Y-63171552D01*
X115673407Y-63169036D01*
X115673805Y-63169818D01*
X115725572Y-63153000D01*
X117700428Y-63153000D01*
X117752194Y-63169818D01*
X117752593Y-63169036D01*
X117757531Y-63171552D01*
X117758614Y-63171904D01*
X117759535Y-63172573D01*
X117865511Y-63226571D01*
X117865513Y-63226571D01*
X117865518Y-63226574D01*
X117983000Y-63245181D01*
X118100482Y-63226574D01*
X118206465Y-63172573D01*
X118206467Y-63172570D01*
X118207386Y-63171904D01*
X118208468Y-63171552D01*
X118213407Y-63169036D01*
X118213805Y-63169818D01*
X118265572Y-63153000D01*
X120240428Y-63153000D01*
X120292194Y-63169818D01*
X120292593Y-63169036D01*
X120297531Y-63171552D01*
X120298614Y-63171904D01*
X120299535Y-63172573D01*
X120405511Y-63226571D01*
X120405513Y-63226571D01*
X120405518Y-63226574D01*
X120523000Y-63245181D01*
X120640482Y-63226574D01*
X120746465Y-63172573D01*
X120746467Y-63172570D01*
X120747386Y-63171904D01*
X120748468Y-63171552D01*
X120753407Y-63169036D01*
X120753805Y-63169818D01*
X120805572Y-63153000D01*
X122780428Y-63153000D01*
X122832194Y-63169818D01*
X122832593Y-63169036D01*
X122837531Y-63171552D01*
X122838614Y-63171904D01*
X122839535Y-63172573D01*
X122945511Y-63226571D01*
X122945513Y-63226571D01*
X122945518Y-63226574D01*
X123063000Y-63245181D01*
X123180482Y-63226574D01*
X123286465Y-63172573D01*
X123286467Y-63172570D01*
X123287386Y-63171904D01*
X123288468Y-63171552D01*
X123293407Y-63169036D01*
X123293805Y-63169818D01*
X123345572Y-63153000D01*
X125320428Y-63153000D01*
X125372194Y-63169818D01*
X125372593Y-63169036D01*
X125377531Y-63171552D01*
X125378614Y-63171904D01*
X125379535Y-63172573D01*
X125485511Y-63226571D01*
X125485513Y-63226571D01*
X125485518Y-63226574D01*
X125586936Y-63242636D01*
X125602999Y-63245181D01*
X125602999Y-63245180D01*
X125603000Y-63245181D01*
X125720482Y-63226574D01*
X125826465Y-63172573D01*
X125826467Y-63172570D01*
X125827386Y-63171904D01*
X125828468Y-63171552D01*
X125833407Y-63169036D01*
X125833805Y-63169818D01*
X125885572Y-63153000D01*
X127860428Y-63153000D01*
X127912194Y-63169818D01*
X127912593Y-63169036D01*
X127917531Y-63171552D01*
X127918614Y-63171904D01*
X127919535Y-63172573D01*
X128025511Y-63226571D01*
X128025513Y-63226571D01*
X128025518Y-63226574D01*
X128143000Y-63245181D01*
X128260482Y-63226574D01*
X128366465Y-63172573D01*
X128366467Y-63172570D01*
X128367386Y-63171904D01*
X128368468Y-63171552D01*
X128373407Y-63169036D01*
X128373805Y-63169818D01*
X128425572Y-63153000D01*
X130400428Y-63153000D01*
X130452194Y-63169818D01*
X130452593Y-63169036D01*
X130457531Y-63171552D01*
X130458614Y-63171904D01*
X130459535Y-63172573D01*
X130565511Y-63226571D01*
X130565513Y-63226571D01*
X130565518Y-63226574D01*
X130666936Y-63242636D01*
X130682999Y-63245181D01*
X130682999Y-63245180D01*
X130683000Y-63245181D01*
X130800482Y-63226574D01*
X130906465Y-63172573D01*
X130906467Y-63172570D01*
X130907386Y-63171904D01*
X130908468Y-63171552D01*
X130913407Y-63169036D01*
X130913805Y-63169818D01*
X130965572Y-63153000D01*
X132813428Y-63153000D01*
X132865194Y-63169818D01*
X132865593Y-63169036D01*
X132870531Y-63171552D01*
X132871614Y-63171904D01*
X132872535Y-63172573D01*
X132978511Y-63226571D01*
X132978513Y-63226571D01*
X132978518Y-63226574D01*
X133096000Y-63245181D01*
X133213482Y-63226574D01*
X133319465Y-63172573D01*
X133403573Y-63088465D01*
X133457574Y-62982482D01*
X133476181Y-62865000D01*
X133474485Y-62854290D01*
X134352819Y-62854290D01*
X134367972Y-62930468D01*
X134416644Y-63003310D01*
X134527097Y-63113763D01*
X134529397Y-63104020D01*
X134530039Y-63101576D01*
X134583358Y-62918053D01*
X134584319Y-62915095D01*
X134589630Y-62900345D01*
X134590774Y-62897455D01*
X134601947Y-62871632D01*
X134603271Y-62868818D01*
X134610392Y-62854842D01*
X134611891Y-62852113D01*
X134710525Y-62685334D01*
X134712192Y-62682707D01*
X134721010Y-62669732D01*
X134722839Y-62667215D01*
X134740085Y-62644984D01*
X134742066Y-62642590D01*
X134752432Y-62630832D01*
X134754562Y-62628564D01*
X134820244Y-62562881D01*
X134769479Y-62528961D01*
X134693302Y-62513808D01*
X134617124Y-62528961D01*
X134544278Y-62577635D01*
X134416646Y-62705266D01*
X134367972Y-62778112D01*
X134352819Y-62854290D01*
X133474485Y-62854290D01*
X133457574Y-62747518D01*
X133457571Y-62747513D01*
X133457571Y-62747511D01*
X133403574Y-62641537D01*
X133403573Y-62641535D01*
X133319465Y-62557427D01*
X133319462Y-62557425D01*
X133213488Y-62503428D01*
X133213483Y-62503426D01*
X133213482Y-62503426D01*
X133096000Y-62484819D01*
X132978518Y-62503426D01*
X132978511Y-62503428D01*
X132872535Y-62557426D01*
X132871614Y-62558096D01*
X132870531Y-62558447D01*
X132865593Y-62560964D01*
X132865194Y-62560181D01*
X132813428Y-62577000D01*
X130965572Y-62577000D01*
X130913805Y-62560181D01*
X130913407Y-62560964D01*
X130908468Y-62558447D01*
X130907386Y-62558096D01*
X130906464Y-62557426D01*
X130800488Y-62503428D01*
X130800483Y-62503426D01*
X130800482Y-62503426D01*
X130683000Y-62484819D01*
X130565518Y-62503426D01*
X130565511Y-62503428D01*
X130459535Y-62557426D01*
X130458614Y-62558096D01*
X130457531Y-62558447D01*
X130452593Y-62560964D01*
X130452194Y-62560181D01*
X130400428Y-62577000D01*
X128425572Y-62577000D01*
X128373805Y-62560181D01*
X128373407Y-62560964D01*
X128368468Y-62558447D01*
X128367386Y-62558096D01*
X128366464Y-62557426D01*
X128260488Y-62503428D01*
X128260483Y-62503426D01*
X128260482Y-62503426D01*
X128143000Y-62484819D01*
X128025518Y-62503426D01*
X128025511Y-62503428D01*
X127919535Y-62557426D01*
X127918614Y-62558096D01*
X127917531Y-62558447D01*
X127912593Y-62560964D01*
X127912194Y-62560181D01*
X127860428Y-62577000D01*
X125885572Y-62577000D01*
X125833805Y-62560181D01*
X125833407Y-62560964D01*
X125828468Y-62558447D01*
X125827386Y-62558096D01*
X125826464Y-62557426D01*
X125720488Y-62503428D01*
X125720483Y-62503426D01*
X125720482Y-62503426D01*
X125603000Y-62484819D01*
X125485518Y-62503426D01*
X125485511Y-62503428D01*
X125379535Y-62557426D01*
X125378614Y-62558096D01*
X125377531Y-62558447D01*
X125372593Y-62560964D01*
X125372194Y-62560181D01*
X125320428Y-62577000D01*
X123345572Y-62577000D01*
X123293805Y-62560181D01*
X123293407Y-62560964D01*
X123288468Y-62558447D01*
X123287386Y-62558096D01*
X123286464Y-62557426D01*
X123180488Y-62503428D01*
X123180483Y-62503426D01*
X123180482Y-62503426D01*
X123063000Y-62484819D01*
X122945518Y-62503426D01*
X122945511Y-62503428D01*
X122839535Y-62557426D01*
X122838614Y-62558096D01*
X122837531Y-62558447D01*
X122832593Y-62560964D01*
X122832194Y-62560181D01*
X122780428Y-62577000D01*
X120805572Y-62577000D01*
X120753805Y-62560181D01*
X120753407Y-62560964D01*
X120748468Y-62558447D01*
X120747386Y-62558096D01*
X120746464Y-62557426D01*
X120640488Y-62503428D01*
X120640483Y-62503426D01*
X120640482Y-62503426D01*
X120523000Y-62484819D01*
X120405518Y-62503426D01*
X120405511Y-62503428D01*
X120299535Y-62557426D01*
X120298614Y-62558096D01*
X120297531Y-62558447D01*
X120292593Y-62560964D01*
X120292194Y-62560181D01*
X120240428Y-62577000D01*
X118265572Y-62577000D01*
X118213805Y-62560181D01*
X118213407Y-62560964D01*
X118208468Y-62558447D01*
X118207386Y-62558096D01*
X118206464Y-62557426D01*
X118100488Y-62503428D01*
X118100483Y-62503426D01*
X118100482Y-62503426D01*
X117983000Y-62484819D01*
X117865518Y-62503426D01*
X117865511Y-62503428D01*
X117759535Y-62557426D01*
X117758614Y-62558096D01*
X117757531Y-62558447D01*
X117752593Y-62560964D01*
X117752194Y-62560181D01*
X117700428Y-62577000D01*
X115725572Y-62577000D01*
X115673805Y-62560181D01*
X115673407Y-62560964D01*
X115668468Y-62558447D01*
X115667386Y-62558096D01*
X115666464Y-62557426D01*
X115560488Y-62503428D01*
X115560483Y-62503426D01*
X115560482Y-62503426D01*
X115443000Y-62484819D01*
X115325518Y-62503426D01*
X115325511Y-62503428D01*
X115219535Y-62557426D01*
X115218614Y-62558096D01*
X115217531Y-62558447D01*
X115212593Y-62560964D01*
X115212194Y-62560181D01*
X115160428Y-62577000D01*
X113185572Y-62577000D01*
X113133805Y-62560181D01*
X113133407Y-62560964D01*
X113128468Y-62558447D01*
X113127386Y-62558096D01*
X113126464Y-62557426D01*
X113020488Y-62503428D01*
X113020483Y-62503426D01*
X113020482Y-62503426D01*
X112903000Y-62484819D01*
X112785518Y-62503426D01*
X112785511Y-62503428D01*
X112679535Y-62557426D01*
X112678614Y-62558096D01*
X112677531Y-62558447D01*
X112672593Y-62560964D01*
X112672194Y-62560181D01*
X112620428Y-62577000D01*
X110645572Y-62577000D01*
X110593805Y-62560181D01*
X110593407Y-62560964D01*
X110588468Y-62558447D01*
X110587386Y-62558096D01*
X110586464Y-62557426D01*
X110480488Y-62503428D01*
X110480483Y-62503426D01*
X110480482Y-62503426D01*
X110363000Y-62484819D01*
X110245518Y-62503426D01*
X110245511Y-62503428D01*
X110139535Y-62557426D01*
X110138614Y-62558096D01*
X110137531Y-62558447D01*
X110132593Y-62560964D01*
X110132194Y-62560181D01*
X110080428Y-62577000D01*
X108232572Y-62577000D01*
X108180805Y-62560181D01*
X108180407Y-62560964D01*
X108175468Y-62558447D01*
X108174386Y-62558096D01*
X108173464Y-62557426D01*
X108067488Y-62503428D01*
X108067483Y-62503426D01*
X108067482Y-62503426D01*
X107950000Y-62484819D01*
X107832518Y-62503426D01*
X107832511Y-62503428D01*
X107726535Y-62557426D01*
X107725614Y-62558096D01*
X107724531Y-62558447D01*
X107719593Y-62560964D01*
X107719194Y-62560181D01*
X107667428Y-62577000D01*
X105692572Y-62577000D01*
X105640805Y-62560181D01*
X105640407Y-62560964D01*
X105635468Y-62558447D01*
X105634386Y-62558096D01*
X105633464Y-62557426D01*
X105527488Y-62503428D01*
X105527483Y-62503426D01*
X105527482Y-62503426D01*
X105410000Y-62484819D01*
X105292518Y-62503426D01*
X105292511Y-62503428D01*
X105186535Y-62557426D01*
X105185614Y-62558096D01*
X105184531Y-62558447D01*
X105179593Y-62560964D01*
X105179194Y-62560181D01*
X105127428Y-62577000D01*
X103025572Y-62577000D01*
X102973805Y-62560181D01*
X102973407Y-62560964D01*
X102968468Y-62558447D01*
X102967386Y-62558096D01*
X102966464Y-62557426D01*
X102860488Y-62503428D01*
X102860483Y-62503426D01*
X102860482Y-62503426D01*
X102743000Y-62484819D01*
X102625518Y-62503426D01*
X102625511Y-62503428D01*
X102519535Y-62557426D01*
X102518614Y-62558096D01*
X102517531Y-62558447D01*
X102512593Y-62560964D01*
X102512194Y-62560181D01*
X102460428Y-62577000D01*
X100485572Y-62577000D01*
X100433805Y-62560181D01*
X100433407Y-62560964D01*
X100428468Y-62558447D01*
X100427386Y-62558096D01*
X100426464Y-62557426D01*
X100320488Y-62503428D01*
X100320483Y-62503426D01*
X100320482Y-62503426D01*
X100203000Y-62484819D01*
X100085518Y-62503426D01*
X100085511Y-62503428D01*
X99979535Y-62557426D01*
X99978614Y-62558096D01*
X99977531Y-62558447D01*
X99972593Y-62560964D01*
X99972194Y-62560181D01*
X99920428Y-62577000D01*
X97945572Y-62577000D01*
X97893805Y-62560181D01*
X97893407Y-62560964D01*
X97888468Y-62558447D01*
X97887386Y-62558096D01*
X97886464Y-62557426D01*
X97780488Y-62503428D01*
X97780483Y-62503426D01*
X97780482Y-62503426D01*
X97663000Y-62484819D01*
X97545518Y-62503426D01*
X97545511Y-62503428D01*
X97439535Y-62557426D01*
X97438614Y-62558096D01*
X97437531Y-62558447D01*
X97432593Y-62560964D01*
X97432194Y-62560181D01*
X97380428Y-62577000D01*
X95969938Y-62577000D01*
X95963091Y-62576525D01*
X95950877Y-62574820D01*
X95913827Y-62576533D01*
X95904881Y-62576947D01*
X95902606Y-62577000D01*
X95883708Y-62577000D01*
X95880502Y-62577599D01*
X95873688Y-62578389D01*
X95843324Y-62579792D01*
X95843316Y-62579794D01*
X95835135Y-62583406D01*
X95813351Y-62590152D01*
X95804561Y-62591795D01*
X95804557Y-62591797D01*
X95778702Y-62607804D01*
X95772637Y-62611001D01*
X95744822Y-62623284D01*
X95738495Y-62629611D01*
X95720621Y-62643769D01*
X95713013Y-62648480D01*
X95694691Y-62672742D01*
X95690186Y-62677918D01*
X95572731Y-62795374D01*
X95518214Y-62823151D01*
X95475108Y-62820439D01*
X95421358Y-62804824D01*
X95384203Y-62801900D01*
X95384197Y-62801900D01*
X94861802Y-62801900D01*
X94824642Y-62804824D01*
X94824637Y-62804825D01*
X94665596Y-62851031D01*
X94523051Y-62935332D01*
X94405932Y-63052451D01*
X94321631Y-63194996D01*
X94321631Y-63194997D01*
X94275423Y-63354043D01*
X94272500Y-63391202D01*
X94272500Y-63913597D01*
X94275424Y-63950757D01*
X94275425Y-63950762D01*
X94285264Y-63984629D01*
X94318769Y-64099954D01*
X94321631Y-64109803D01*
X94405932Y-64252348D01*
X94405935Y-64252351D01*
X94405937Y-64252354D01*
X94523046Y-64369463D01*
X94523048Y-64369464D01*
X94523051Y-64369467D01*
X94665596Y-64453768D01*
X94665597Y-64453768D01*
X94665600Y-64453770D01*
X94763620Y-64482247D01*
X94814224Y-64516637D01*
X94834950Y-64574205D01*
X94834999Y-64577315D01*
X94834999Y-64736698D01*
X94816092Y-64794889D01*
X94806003Y-64806702D01*
X93564447Y-66048256D01*
X93559272Y-66052759D01*
X93549436Y-66060187D01*
X93518418Y-66094212D01*
X93516843Y-66095861D01*
X93503479Y-66109227D01*
X93501631Y-66111924D01*
X93497378Y-66117292D01*
X93476896Y-66139760D01*
X93476894Y-66139764D01*
X93473665Y-66148099D01*
X93463032Y-66168272D01*
X93457975Y-66175654D01*
X93457974Y-66175657D01*
X93451011Y-66205257D01*
X93448982Y-66211809D01*
X93438000Y-66240162D01*
X93438000Y-66249100D01*
X93435371Y-66271764D01*
X93433324Y-66280469D01*
X93435212Y-66294000D01*
X93437525Y-66310585D01*
X93438000Y-66317431D01*
X93438000Y-67939355D01*
X93419093Y-67997546D01*
X93409004Y-68009359D01*
X92757617Y-68660745D01*
X92703100Y-68688522D01*
X92642668Y-68678951D01*
X92599403Y-68635686D01*
X92589460Y-68577817D01*
X92590636Y-68568879D01*
X92586545Y-68562394D01*
X92583500Y-68538031D01*
X92583500Y-66050834D01*
X92981500Y-66050834D01*
X92981500Y-66728814D01*
X93040000Y-66717178D01*
X93040000Y-66341615D01*
X93036280Y-66314948D01*
X93035859Y-66310396D01*
X93034792Y-66287354D01*
X93034792Y-66282778D01*
X93036704Y-66241407D01*
X93037126Y-66236851D01*
X93040252Y-66214441D01*
X93042339Y-66191919D01*
X93042971Y-66187387D01*
X93050581Y-66146682D01*
X93051628Y-66142231D01*
X93057938Y-66120050D01*
X93059390Y-66115715D01*
X93069119Y-66090594D01*
X93071852Y-66078976D01*
X93050179Y-66064495D01*
X92981500Y-66050834D01*
X92583500Y-66050834D01*
X92583500Y-64636620D01*
X92981500Y-64636620D01*
X92981500Y-65314600D01*
X93050179Y-65300939D01*
X93123022Y-65252267D01*
X93250658Y-65124631D01*
X93299330Y-65051788D01*
X93314483Y-64975610D01*
X93299330Y-64899433D01*
X93250656Y-64826587D01*
X93123025Y-64698955D01*
X93050179Y-64650281D01*
X92981500Y-64636620D01*
X92583500Y-64636620D01*
X92583500Y-64268503D01*
X93340626Y-64268503D01*
X93355779Y-64344681D01*
X93404451Y-64417524D01*
X93532087Y-64545160D01*
X93604930Y-64593832D01*
X93681108Y-64608985D01*
X93757286Y-64593832D01*
X93830131Y-64545158D01*
X93957763Y-64417527D01*
X94002039Y-64351263D01*
X93971891Y-64300286D01*
X93970392Y-64297558D01*
X93963271Y-64283582D01*
X93961947Y-64280768D01*
X93950773Y-64254944D01*
X93949628Y-64252052D01*
X93944319Y-64237303D01*
X93943359Y-64234347D01*
X93890420Y-64052137D01*
X93830131Y-63991849D01*
X93757286Y-63943175D01*
X93681108Y-63928022D01*
X93604930Y-63943175D01*
X93532087Y-63991847D01*
X93404451Y-64119483D01*
X93355779Y-64192326D01*
X93340626Y-64268503D01*
X92583500Y-64268503D01*
X92583500Y-64026693D01*
X92583924Y-64020226D01*
X92587660Y-63991847D01*
X92598336Y-63910752D01*
X92605023Y-63885796D01*
X92645002Y-63789278D01*
X92657915Y-63766911D01*
X92725152Y-63679287D01*
X92729399Y-63674444D01*
X94215307Y-62188536D01*
X94220150Y-62184289D01*
X94307774Y-62117052D01*
X94330141Y-62104139D01*
X94426659Y-62064160D01*
X94451615Y-62057473D01*
X94550610Y-62044440D01*
X94561089Y-62043061D01*
X94567556Y-62042637D01*
X136064444Y-62042637D01*
X136070911Y-62043061D01*
G37*
%TD.AperFunction*%
%TA.AperFunction,Conductor*%
G36*
X93764945Y-68564747D02*
G01*
X93808210Y-68608012D01*
X93819000Y-68652957D01*
X93819000Y-75494298D01*
X93800093Y-75552489D01*
X93750593Y-75588453D01*
X93689407Y-75588453D01*
X93649996Y-75564302D01*
X91546587Y-73460892D01*
X92633519Y-73460892D01*
X92648672Y-73537069D01*
X92697344Y-73609912D01*
X92824980Y-73737548D01*
X92897823Y-73786220D01*
X92974001Y-73801373D01*
X93050179Y-73786220D01*
X93123026Y-73737546D01*
X93250656Y-73609915D01*
X93299330Y-73537069D01*
X93314483Y-73460892D01*
X93299330Y-73384714D01*
X93250658Y-73311871D01*
X93123022Y-73184235D01*
X93050179Y-73135563D01*
X92974001Y-73120410D01*
X92897823Y-73135563D01*
X92824978Y-73184237D01*
X92697346Y-73311868D01*
X92648672Y-73384714D01*
X92633519Y-73460892D01*
X91546587Y-73460892D01*
X91025340Y-72939645D01*
X91020834Y-72934467D01*
X91013411Y-72924637D01*
X91013410Y-72924635D01*
X90979392Y-72893623D01*
X90977745Y-72892050D01*
X90964374Y-72878680D01*
X90961682Y-72876836D01*
X90956307Y-72872578D01*
X90933839Y-72852096D01*
X90933837Y-72852095D01*
X90925504Y-72848867D01*
X90905319Y-72838227D01*
X90897943Y-72833174D01*
X90874856Y-72827744D01*
X90868337Y-72826211D01*
X90861791Y-72824183D01*
X90833437Y-72813200D01*
X90824499Y-72813200D01*
X90801835Y-72810571D01*
X90793131Y-72808524D01*
X90763014Y-72812725D01*
X90756168Y-72813200D01*
X90646068Y-72813200D01*
X90653915Y-72753785D01*
X91926413Y-72753785D01*
X91941566Y-72829963D01*
X91990238Y-72902806D01*
X92117874Y-73030442D01*
X92190717Y-73079114D01*
X92266894Y-73094267D01*
X92343072Y-73079114D01*
X92415918Y-73030440D01*
X92543549Y-72902808D01*
X92592223Y-72829963D01*
X92607376Y-72753785D01*
X92592223Y-72677607D01*
X92543551Y-72604764D01*
X92415915Y-72477128D01*
X92343072Y-72428456D01*
X92266895Y-72413303D01*
X92190717Y-72428456D01*
X92117871Y-72477130D01*
X91990240Y-72604760D01*
X91941566Y-72677607D01*
X91926413Y-72753785D01*
X90653915Y-72753785D01*
X90728800Y-72186800D01*
X90676254Y-72046678D01*
X91219306Y-72046678D01*
X91234459Y-72122856D01*
X91283131Y-72195699D01*
X91410767Y-72323335D01*
X91483610Y-72372007D01*
X91559788Y-72387160D01*
X91635965Y-72372007D01*
X91708808Y-72323335D01*
X91836444Y-72195699D01*
X91885116Y-72122856D01*
X91900269Y-72046678D01*
X92633519Y-72046678D01*
X92648672Y-72122856D01*
X92697346Y-72195702D01*
X92824978Y-72323333D01*
X92897823Y-72372007D01*
X92974001Y-72387160D01*
X93050179Y-72372007D01*
X93123022Y-72323335D01*
X93250658Y-72195699D01*
X93299330Y-72122856D01*
X93314483Y-72046678D01*
X93299330Y-71970500D01*
X93250656Y-71897655D01*
X93123025Y-71770023D01*
X93050179Y-71721349D01*
X92974001Y-71706196D01*
X92897823Y-71721349D01*
X92824981Y-71770021D01*
X92697344Y-71897658D01*
X92648672Y-71970500D01*
X92633519Y-72046678D01*
X91900269Y-72046678D01*
X91885116Y-71970500D01*
X91836442Y-71897655D01*
X91708811Y-71770023D01*
X91635965Y-71721349D01*
X91559787Y-71706196D01*
X91483610Y-71721349D01*
X91410764Y-71770023D01*
X91283133Y-71897655D01*
X91234459Y-71970500D01*
X91219306Y-72046678D01*
X90676254Y-72046678D01*
X90424000Y-71374000D01*
X90408351Y-71339572D01*
X91926413Y-71339572D01*
X91941566Y-71415749D01*
X91990240Y-71488596D01*
X92117871Y-71616226D01*
X92190717Y-71664900D01*
X92266895Y-71680053D01*
X92343072Y-71664900D01*
X92415915Y-71616228D01*
X92543551Y-71488592D01*
X92592223Y-71415749D01*
X92607376Y-71339572D01*
X92592223Y-71263394D01*
X92543549Y-71190548D01*
X92415919Y-71062917D01*
X92343072Y-71014243D01*
X92266895Y-70999090D01*
X92190717Y-71014243D01*
X92117873Y-71062915D01*
X91990238Y-71190550D01*
X91941566Y-71263394D01*
X91926413Y-71339572D01*
X90408351Y-71339572D01*
X90170000Y-70815200D01*
X89900727Y-70519000D01*
X90271818Y-70519000D01*
X90330009Y-70537907D01*
X90365973Y-70587407D01*
X90365973Y-70648593D01*
X90360029Y-70662940D01*
X90347571Y-70687390D01*
X90316426Y-70748516D01*
X90316426Y-70748518D01*
X90302707Y-70835141D01*
X90297819Y-70866000D01*
X90309210Y-70937924D01*
X90316426Y-70983481D01*
X90316428Y-70983488D01*
X90370425Y-71089462D01*
X90370427Y-71089465D01*
X90454535Y-71173573D01*
X90454537Y-71173574D01*
X90560511Y-71227571D01*
X90560513Y-71227571D01*
X90560518Y-71227574D01*
X90678000Y-71246181D01*
X90795482Y-71227574D01*
X90901465Y-71173573D01*
X90985573Y-71089465D01*
X91039574Y-70983482D01*
X91058181Y-70866000D01*
X91039574Y-70748518D01*
X90995971Y-70662943D01*
X90991144Y-70632465D01*
X92633519Y-70632465D01*
X92648672Y-70708642D01*
X92697346Y-70781488D01*
X92824978Y-70909119D01*
X92897823Y-70957793D01*
X92974001Y-70972946D01*
X93050179Y-70957793D01*
X93123022Y-70909121D01*
X93250658Y-70781485D01*
X93299330Y-70708642D01*
X93314483Y-70632464D01*
X93299330Y-70556287D01*
X93250658Y-70483444D01*
X93123022Y-70355808D01*
X93050179Y-70307136D01*
X92974001Y-70291983D01*
X92897823Y-70307136D01*
X92824978Y-70355810D01*
X92697346Y-70483441D01*
X92648672Y-70556287D01*
X92633519Y-70632465D01*
X90991144Y-70632465D01*
X90986401Y-70602513D01*
X91014178Y-70547997D01*
X91068695Y-70520219D01*
X91084182Y-70519000D01*
X91535119Y-70519000D01*
X91541966Y-70519475D01*
X91554179Y-70521179D01*
X91600175Y-70519052D01*
X91602451Y-70519000D01*
X91621345Y-70519000D01*
X91621346Y-70519000D01*
X91624537Y-70518402D01*
X91631356Y-70517610D01*
X91661737Y-70516207D01*
X91669914Y-70512595D01*
X91691714Y-70505845D01*
X91700497Y-70504204D01*
X91726347Y-70488198D01*
X91732414Y-70484998D01*
X91760235Y-70472715D01*
X91766551Y-70466397D01*
X91784444Y-70452225D01*
X91792042Y-70447521D01*
X91810364Y-70423256D01*
X91814868Y-70418081D01*
X92781090Y-69451859D01*
X93649997Y-68582952D01*
X93704513Y-68555176D01*
X93764945Y-68564747D01*
G37*
%TD.AperFunction*%
%TA.AperFunction,Conductor*%
G36*
X88558818Y-69869407D02*
G01*
X88594782Y-69918907D01*
X88594782Y-69980093D01*
X88579629Y-70009163D01*
X88557291Y-70038741D01*
X88552787Y-70043918D01*
X87722447Y-70874256D01*
X87717272Y-70878759D01*
X87707436Y-70886187D01*
X87676418Y-70920212D01*
X87674843Y-70921861D01*
X87661479Y-70935227D01*
X87659631Y-70937924D01*
X87655378Y-70943292D01*
X87634896Y-70965760D01*
X87634894Y-70965764D01*
X87631665Y-70974099D01*
X87621032Y-70994272D01*
X87615975Y-71001654D01*
X87615974Y-71001657D01*
X87609011Y-71031257D01*
X87606982Y-71037809D01*
X87596000Y-71066162D01*
X87596000Y-71075100D01*
X87593371Y-71097764D01*
X87591324Y-71106467D01*
X87595525Y-71136585D01*
X87596000Y-71143431D01*
X87596000Y-72996428D01*
X87579181Y-73048194D01*
X87579964Y-73048593D01*
X87577447Y-73053531D01*
X87577096Y-73054614D01*
X87576426Y-73055535D01*
X87522428Y-73161511D01*
X87522426Y-73161518D01*
X87504015Y-73277765D01*
X87503819Y-73279000D01*
X87519211Y-73376186D01*
X87522426Y-73396481D01*
X87522428Y-73396488D01*
X87576425Y-73502462D01*
X87576427Y-73502465D01*
X87630000Y-73556038D01*
X87630000Y-74675500D01*
X86185556Y-74675500D01*
X86179088Y-74675076D01*
X86069619Y-74660664D01*
X86044655Y-74653975D01*
X85948149Y-74614001D01*
X85925767Y-74601079D01*
X85838172Y-74533864D01*
X85833299Y-74529590D01*
X85471708Y-74167999D01*
X86269558Y-74167999D01*
X86284711Y-74244176D01*
X86306977Y-74277500D01*
X86913104Y-74277500D01*
X86935369Y-74244176D01*
X86950522Y-74167999D01*
X86935369Y-74091821D01*
X86886697Y-74018978D01*
X86759061Y-73891342D01*
X86686218Y-73842670D01*
X86610040Y-73827517D01*
X86533862Y-73842670D01*
X86461017Y-73891344D01*
X86333385Y-74018975D01*
X86284711Y-74091821D01*
X86269558Y-74167999D01*
X85471708Y-74167999D01*
X85109404Y-73805695D01*
X85105136Y-73800829D01*
X85037920Y-73713232D01*
X85024999Y-73690852D01*
X84985023Y-73594340D01*
X84978336Y-73569382D01*
X84966560Y-73479931D01*
X84964053Y-73460891D01*
X85562451Y-73460891D01*
X85577604Y-73537069D01*
X85626276Y-73609912D01*
X85753912Y-73737548D01*
X85826756Y-73786220D01*
X85902934Y-73801373D01*
X85979111Y-73786220D01*
X86051958Y-73737546D01*
X86179588Y-73609915D01*
X86228262Y-73537069D01*
X86243415Y-73460892D01*
X86976665Y-73460892D01*
X86991818Y-73537069D01*
X87040492Y-73609915D01*
X87168122Y-73737546D01*
X87240969Y-73786220D01*
X87311318Y-73800213D01*
X87282556Y-73771451D01*
X87279915Y-73768594D01*
X87267182Y-73753684D01*
X87264776Y-73750632D01*
X87244095Y-73722165D01*
X87241934Y-73718933D01*
X87231693Y-73702220D01*
X87229794Y-73698828D01*
X87159818Y-73561493D01*
X87158191Y-73557963D01*
X87150686Y-73539847D01*
X87149339Y-73536196D01*
X87138467Y-73502729D01*
X87137412Y-73498989D01*
X87132837Y-73479931D01*
X87132078Y-73476117D01*
X87107967Y-73323884D01*
X87107510Y-73320022D01*
X87105972Y-73300478D01*
X87105819Y-73296593D01*
X87105819Y-73261407D01*
X87105972Y-73257522D01*
X87106922Y-73245439D01*
X87040490Y-73311871D01*
X86991818Y-73384714D01*
X86976665Y-73460892D01*
X86243415Y-73460892D01*
X86243415Y-73460891D01*
X86228262Y-73384714D01*
X86179590Y-73311871D01*
X86051954Y-73184235D01*
X85979111Y-73135563D01*
X85902933Y-73120410D01*
X85826756Y-73135563D01*
X85753910Y-73184237D01*
X85626278Y-73311868D01*
X85577604Y-73384714D01*
X85562451Y-73460891D01*
X84964053Y-73460891D01*
X84963924Y-73459909D01*
X84963500Y-73453442D01*
X84963500Y-72493781D01*
X85361500Y-72493781D01*
X85361500Y-73013790D01*
X85472481Y-72902808D01*
X85521155Y-72829963D01*
X85536308Y-72753785D01*
X86269558Y-72753785D01*
X86284711Y-72829963D01*
X86333383Y-72902805D01*
X86461020Y-73030442D01*
X86533862Y-73079114D01*
X86610040Y-73094267D01*
X86686218Y-73079114D01*
X86759064Y-73030440D01*
X86886695Y-72902808D01*
X86935369Y-72829963D01*
X86950522Y-72753785D01*
X86935369Y-72677607D01*
X86886697Y-72604764D01*
X86759061Y-72477128D01*
X86686218Y-72428456D01*
X86610040Y-72413303D01*
X86533862Y-72428456D01*
X86461017Y-72477130D01*
X86333385Y-72604761D01*
X86284711Y-72677607D01*
X86269558Y-72753785D01*
X85536308Y-72753785D01*
X85521155Y-72677607D01*
X85472483Y-72604764D01*
X85361500Y-72493781D01*
X84963500Y-72493781D01*
X84963500Y-72046678D01*
X85562451Y-72046678D01*
X85577604Y-72122856D01*
X85626278Y-72195702D01*
X85753910Y-72323333D01*
X85826756Y-72372007D01*
X85902933Y-72387160D01*
X85979111Y-72372007D01*
X86051954Y-72323335D01*
X86179590Y-72195699D01*
X86228262Y-72122856D01*
X86243415Y-72046678D01*
X86976665Y-72046678D01*
X86991818Y-72122856D01*
X87040490Y-72195699D01*
X87168126Y-72323335D01*
X87198000Y-72343296D01*
X87198000Y-71750060D01*
X87168123Y-71770023D01*
X87040492Y-71897655D01*
X86991818Y-71970500D01*
X86976665Y-72046678D01*
X86243415Y-72046678D01*
X86228262Y-71970500D01*
X86179588Y-71897655D01*
X86051957Y-71770023D01*
X85979111Y-71721349D01*
X85902933Y-71706196D01*
X85826756Y-71721349D01*
X85753913Y-71770021D01*
X85626276Y-71897658D01*
X85577604Y-71970500D01*
X85562451Y-72046678D01*
X84963500Y-72046678D01*
X84963500Y-71599576D01*
X85361500Y-71599576D01*
X85472483Y-71488592D01*
X85521155Y-71415749D01*
X85536308Y-71339572D01*
X85536308Y-71339571D01*
X86269558Y-71339571D01*
X86284711Y-71415749D01*
X86333385Y-71488595D01*
X86461017Y-71616226D01*
X86533862Y-71664900D01*
X86610040Y-71680053D01*
X86686218Y-71664900D01*
X86759061Y-71616228D01*
X86886697Y-71488592D01*
X86935369Y-71415749D01*
X86950522Y-71339572D01*
X86935369Y-71263394D01*
X86886695Y-71190548D01*
X86759065Y-71062917D01*
X86686218Y-71014243D01*
X86610040Y-70999090D01*
X86533862Y-71014243D01*
X86461019Y-71062915D01*
X86333383Y-71190551D01*
X86284711Y-71263394D01*
X86269558Y-71339571D01*
X85536308Y-71339571D01*
X85521155Y-71263394D01*
X85472481Y-71190548D01*
X85363340Y-71081406D01*
X85361500Y-71095389D01*
X85361500Y-71599576D01*
X84963500Y-71599576D01*
X84963500Y-71072556D01*
X84963924Y-71066089D01*
X84967647Y-71037809D01*
X84978336Y-70956615D01*
X84985023Y-70931659D01*
X85025002Y-70835141D01*
X85037915Y-70812774D01*
X85068916Y-70772373D01*
X85620188Y-70772373D01*
X85626279Y-70781489D01*
X85753910Y-70909119D01*
X85826756Y-70957793D01*
X85902933Y-70972946D01*
X85979111Y-70957793D01*
X86051954Y-70909121D01*
X86179590Y-70781485D01*
X86228262Y-70708642D01*
X86243415Y-70632465D01*
X86976665Y-70632465D01*
X86991818Y-70708642D01*
X87040490Y-70781485D01*
X87168126Y-70909121D01*
X87217301Y-70941979D01*
X87217390Y-70941715D01*
X87227119Y-70916594D01*
X87233291Y-70890363D01*
X87234543Y-70885964D01*
X87241873Y-70864095D01*
X87243526Y-70859830D01*
X87260251Y-70821954D01*
X87262288Y-70817862D01*
X87273299Y-70798090D01*
X87283389Y-70777830D01*
X87285615Y-70773835D01*
X87307414Y-70738631D01*
X87309999Y-70734857D01*
X87323895Y-70716457D01*
X87326815Y-70712940D01*
X87348489Y-70689161D01*
X87348708Y-70688886D01*
X87361898Y-70673004D01*
X87363396Y-70671282D01*
X87371149Y-70662776D01*
X87372724Y-70661127D01*
X87387693Y-70646152D01*
X87427264Y-70602752D01*
X87430497Y-70599520D01*
X87447532Y-70583990D01*
X87451047Y-70581071D01*
X87458110Y-70575735D01*
X87572103Y-70461742D01*
X87466170Y-70355810D01*
X87393324Y-70307136D01*
X87317147Y-70291983D01*
X87240969Y-70307136D01*
X87168126Y-70355808D01*
X87040490Y-70483444D01*
X86991818Y-70556287D01*
X86976665Y-70632465D01*
X86243415Y-70632465D01*
X86228262Y-70556287D01*
X86179590Y-70483444D01*
X86051953Y-70355807D01*
X86042842Y-70349719D01*
X85620188Y-70772373D01*
X85068916Y-70772373D01*
X85105148Y-70725154D01*
X85109396Y-70720311D01*
X85833311Y-69996396D01*
X85838154Y-69992148D01*
X85925774Y-69924915D01*
X85948141Y-69912002D01*
X86044659Y-69872023D01*
X86069615Y-69865336D01*
X86168610Y-69852303D01*
X86179089Y-69850924D01*
X86185556Y-69850500D01*
X88500627Y-69850500D01*
X88558818Y-69869407D01*
G37*
%TD.AperFunction*%
%TD*%
%TA.AperFunction,Conductor*%
%TO.N,Net-(D100-VSS)*%
G36*
X90170000Y-70815200D02*
G01*
X90424000Y-71374000D01*
X90728800Y-72186800D01*
X90646068Y-72813200D01*
X90416855Y-72813200D01*
X90349816Y-72793515D01*
X90329174Y-72776881D01*
X89684568Y-72132274D01*
X89651083Y-72070951D01*
X89649775Y-72063989D01*
X89642574Y-72018518D01*
X89588573Y-71912535D01*
X89588571Y-71912533D01*
X89588568Y-71912529D01*
X89504470Y-71828431D01*
X89504466Y-71828428D01*
X89504465Y-71828427D01*
X89398482Y-71774426D01*
X89398480Y-71774425D01*
X89398477Y-71774424D01*
X89281003Y-71755819D01*
X89280997Y-71755819D01*
X89163522Y-71774424D01*
X89163521Y-71774424D01*
X89057533Y-71828428D01*
X89057529Y-71828431D01*
X88973431Y-71912529D01*
X88973428Y-71912533D01*
X88919424Y-72018521D01*
X88919424Y-72018522D01*
X88900819Y-72135996D01*
X88900819Y-72136003D01*
X88919424Y-72253477D01*
X88919424Y-72253478D01*
X88973428Y-72359466D01*
X88973431Y-72359470D01*
X89057529Y-72443568D01*
X89057533Y-72443571D01*
X89057535Y-72443573D01*
X89163518Y-72497574D01*
X89208991Y-72504775D01*
X89272125Y-72534704D01*
X89277274Y-72539567D01*
X89662341Y-72924635D01*
X89999835Y-73262129D01*
X90005476Y-73268611D01*
X90012386Y-73277761D01*
X90012389Y-73277764D01*
X90012390Y-73277765D01*
X90013745Y-73279000D01*
X90046206Y-73308593D01*
X90048254Y-73310548D01*
X90061425Y-73323719D01*
X90061427Y-73323721D01*
X90063397Y-73325070D01*
X90070138Y-73330410D01*
X90087107Y-73345879D01*
X90091961Y-73350304D01*
X90097593Y-73352485D01*
X90122869Y-73365808D01*
X90127856Y-73369225D01*
X90135792Y-73371091D01*
X90156609Y-73375988D01*
X90164818Y-73378529D01*
X90192363Y-73389200D01*
X90198401Y-73389200D01*
X90226788Y-73392493D01*
X90227688Y-73392704D01*
X90232669Y-73393876D01*
X90261926Y-73389794D01*
X90270499Y-73389200D01*
X90569993Y-73389200D01*
X90400104Y-74675500D01*
X87630000Y-74675500D01*
X87630000Y-73556039D01*
X87660529Y-73586568D01*
X87660533Y-73586571D01*
X87660535Y-73586573D01*
X87766518Y-73640574D01*
X87766520Y-73640574D01*
X87766522Y-73640575D01*
X87883997Y-73659181D01*
X87884000Y-73659181D01*
X87884003Y-73659181D01*
X88001477Y-73640575D01*
X88001478Y-73640575D01*
X88001479Y-73640574D01*
X88001482Y-73640574D01*
X88107465Y-73586573D01*
X88191573Y-73502465D01*
X88245574Y-73396482D01*
X88246633Y-73389795D01*
X88264181Y-73279003D01*
X88264181Y-73278996D01*
X88245575Y-73161522D01*
X88245575Y-73161521D01*
X88245574Y-73161519D01*
X88245574Y-73161518D01*
X88191573Y-73055535D01*
X88191571Y-73055533D01*
X88187142Y-73046840D01*
X88190033Y-73045366D01*
X88172201Y-72995368D01*
X88172000Y-72988305D01*
X88172000Y-71290655D01*
X88191685Y-71223616D01*
X88208319Y-71202974D01*
X88855975Y-70555319D01*
X88917298Y-70521834D01*
X88943656Y-70519000D01*
X89900727Y-70519000D01*
X90170000Y-70815200D01*
G37*
%TD.AperFunction*%
%TD*%
M02*
