%TF.GenerationSoftware,KiCad,Pcbnew,7.0.5-0*%
%TF.CreationDate,2023-06-16T22:13:28-07:00*%
%TF.ProjectId,JumperlessLEDboard,4a756d70-6572-46c6-9573-734c4544626f,rev?*%
%TF.SameCoordinates,Original*%
%TF.FileFunction,Drillmap*%
%TF.FilePolarity,Positive*%
%FSLAX45Y45*%
G04 Gerber Fmt 4.5, Leading zero omitted, Abs format (unit mm)*
G04 Created by KiCad (PCBNEW 7.0.5-0) date 2023-06-16 22:13:28*
%MOMM*%
%LPD*%
G01*
G04 APERTURE LIST*
%ADD10C,0.100000*%
%ADD11C,0.200000*%
G04 APERTURE END LIST*
D10*
X8597900Y-7467600D02*
X9156700Y-7467600D01*
X9436100Y-6204214D02*
X9258300Y-6382014D01*
X9639300Y-6756400D02*
X9639300Y-6801114D01*
X13195300Y-8255000D02*
X13144500Y-8204200D01*
X9258300Y-8509000D02*
X9258300Y-7569200D01*
X9906000Y-6489700D02*
X9639300Y-6756400D01*
X12433300Y-6858000D02*
X12484100Y-6908800D01*
X8496300Y-7366000D02*
X8597900Y-7467600D01*
X8496300Y-7086600D02*
X8496300Y-7366000D01*
X9258300Y-6883400D02*
X9156700Y-6985000D01*
X12433300Y-6540500D02*
X12382500Y-6489700D01*
X12941300Y-8356600D02*
X12941300Y-8255000D01*
X9436100Y-8686800D02*
X9258300Y-8509000D01*
X13627100Y-6204214D02*
X13677900Y-6255014D01*
X13474700Y-8636000D02*
X13474700Y-8407400D01*
X9156700Y-7467600D02*
X9258300Y-7569200D01*
X12687300Y-6540500D02*
X12687300Y-6858000D01*
X9258300Y-6382014D02*
X9258300Y-6654800D01*
X9436100Y-8686800D02*
X13423900Y-8686800D01*
X13474700Y-8636000D02*
X13423900Y-8686800D01*
X9639300Y-8331200D02*
X9715500Y-8407400D01*
X12433300Y-6858000D02*
X12433300Y-6540500D01*
X9258300Y-6654800D02*
X9258300Y-6883400D01*
X12941300Y-8356600D02*
X12890500Y-8407400D01*
X13195300Y-8255000D02*
X13195300Y-8356600D01*
X13246100Y-8407400D02*
X13474700Y-8407400D01*
X12687300Y-6540500D02*
X12738100Y-6489700D01*
X12992100Y-8204200D02*
X13144500Y-8204200D01*
X13195300Y-8356600D02*
X13246100Y-8407400D01*
X8597900Y-6985000D02*
X8496300Y-7086600D01*
X12941300Y-8255000D02*
X12992100Y-8204200D01*
X9906000Y-6489700D02*
X12382500Y-6489700D01*
X12890500Y-8407400D02*
X9715500Y-8407400D01*
X9639300Y-8331200D02*
X9639300Y-6801114D01*
X12636500Y-6908800D02*
X12484100Y-6908800D01*
X12687300Y-6858000D02*
X12636500Y-6908800D01*
X13677900Y-6255014D02*
X13677900Y-6489700D01*
X9156700Y-6985000D02*
X8597900Y-6985000D01*
X13627100Y-6204214D02*
X9436100Y-6204214D01*
X12738100Y-6489700D02*
X13677900Y-6489700D01*
D11*
X8752077Y-9003284D02*
X8752077Y-8803284D01*
X8752077Y-8803284D02*
X8799696Y-8803284D01*
X8799696Y-8803284D02*
X8828267Y-8812808D01*
X8828267Y-8812808D02*
X8847315Y-8831855D01*
X8847315Y-8831855D02*
X8856839Y-8850903D01*
X8856839Y-8850903D02*
X8866363Y-8888998D01*
X8866363Y-8888998D02*
X8866363Y-8917570D01*
X8866363Y-8917570D02*
X8856839Y-8955665D01*
X8856839Y-8955665D02*
X8847315Y-8974712D01*
X8847315Y-8974712D02*
X8828267Y-8993760D01*
X8828267Y-8993760D02*
X8799696Y-9003284D01*
X8799696Y-9003284D02*
X8752077Y-9003284D01*
X8952077Y-9003284D02*
X8952077Y-8869950D01*
X8952077Y-8908046D02*
X8961601Y-8888998D01*
X8961601Y-8888998D02*
X8971124Y-8879474D01*
X8971124Y-8879474D02*
X8990172Y-8869950D01*
X8990172Y-8869950D02*
X9009220Y-8869950D01*
X9075886Y-9003284D02*
X9075886Y-8869950D01*
X9075886Y-8803284D02*
X9066363Y-8812808D01*
X9066363Y-8812808D02*
X9075886Y-8822331D01*
X9075886Y-8822331D02*
X9085410Y-8812808D01*
X9085410Y-8812808D02*
X9075886Y-8803284D01*
X9075886Y-8803284D02*
X9075886Y-8822331D01*
X9199696Y-9003284D02*
X9180648Y-8993760D01*
X9180648Y-8993760D02*
X9171124Y-8974712D01*
X9171124Y-8974712D02*
X9171124Y-8803284D01*
X9304458Y-9003284D02*
X9285410Y-8993760D01*
X9285410Y-8993760D02*
X9275886Y-8974712D01*
X9275886Y-8974712D02*
X9275886Y-8803284D01*
X9533029Y-9003284D02*
X9533029Y-8803284D01*
X9533029Y-8803284D02*
X9599696Y-8946141D01*
X9599696Y-8946141D02*
X9666363Y-8803284D01*
X9666363Y-8803284D02*
X9666363Y-9003284D01*
X9847315Y-9003284D02*
X9847315Y-8898522D01*
X9847315Y-8898522D02*
X9837791Y-8879474D01*
X9837791Y-8879474D02*
X9818744Y-8869950D01*
X9818744Y-8869950D02*
X9780648Y-8869950D01*
X9780648Y-8869950D02*
X9761601Y-8879474D01*
X9847315Y-8993760D02*
X9828267Y-9003284D01*
X9828267Y-9003284D02*
X9780648Y-9003284D01*
X9780648Y-9003284D02*
X9761601Y-8993760D01*
X9761601Y-8993760D02*
X9752077Y-8974712D01*
X9752077Y-8974712D02*
X9752077Y-8955665D01*
X9752077Y-8955665D02*
X9761601Y-8936617D01*
X9761601Y-8936617D02*
X9780648Y-8927093D01*
X9780648Y-8927093D02*
X9828267Y-8927093D01*
X9828267Y-8927093D02*
X9847315Y-8917570D01*
X9942553Y-8869950D02*
X9942553Y-9069950D01*
X9942553Y-8879474D02*
X9961601Y-8869950D01*
X9961601Y-8869950D02*
X9999696Y-8869950D01*
X9999696Y-8869950D02*
X10018744Y-8879474D01*
X10018744Y-8879474D02*
X10028267Y-8888998D01*
X10028267Y-8888998D02*
X10037791Y-8908046D01*
X10037791Y-8908046D02*
X10037791Y-8965189D01*
X10037791Y-8965189D02*
X10028267Y-8984236D01*
X10028267Y-8984236D02*
X10018744Y-8993760D01*
X10018744Y-8993760D02*
X9999696Y-9003284D01*
X9999696Y-9003284D02*
X9961601Y-9003284D01*
X9961601Y-9003284D02*
X9942553Y-8993760D01*
X10123505Y-8984236D02*
X10133029Y-8993760D01*
X10133029Y-8993760D02*
X10123505Y-9003284D01*
X10123505Y-9003284D02*
X10113982Y-8993760D01*
X10113982Y-8993760D02*
X10123505Y-8984236D01*
X10123505Y-8984236D02*
X10123505Y-9003284D01*
X10123505Y-8879474D02*
X10133029Y-8888998D01*
X10133029Y-8888998D02*
X10123505Y-8898522D01*
X10123505Y-8898522D02*
X10113982Y-8888998D01*
X10113982Y-8888998D02*
X10123505Y-8879474D01*
X10123505Y-8879474D02*
X10123505Y-8898522D01*
M02*
