%TF.GenerationSoftware,KiCad,Pcbnew,7.0.5-0*%
%TF.CreationDate,2023-06-16T22:13:25-07:00*%
%TF.ProjectId,JumperlessLEDboard,4a756d70-6572-46c6-9573-734c4544626f,rev?*%
%TF.SameCoordinates,Original*%
%TF.FileFunction,Profile,NP*%
%FSLAX46Y46*%
G04 Gerber Fmt 4.6, Leading zero omitted, Abs format (unit mm)*
G04 Created by KiCad (PCBNEW 7.0.5-0) date 2023-06-16 22:13:25*
%MOMM*%
%LPD*%
G01*
G04 APERTURE LIST*
%TA.AperFunction,Profile*%
%ADD10C,0.100000*%
%TD*%
G04 APERTURE END LIST*
D10*
X85979000Y-74676000D02*
X91567000Y-74676000D01*
X94361000Y-62042137D02*
X92583000Y-63820137D01*
X96393000Y-67564000D02*
X96393000Y-68011137D01*
X131953000Y-82550000D02*
X131445000Y-82042000D01*
X92583000Y-85090000D02*
X92583000Y-75692000D01*
X99060000Y-64897000D02*
X96393000Y-67564000D01*
X124333000Y-68580000D02*
X124841000Y-69088000D01*
X84963000Y-73660000D02*
X85979000Y-74676000D01*
X84963000Y-70866000D02*
X84963000Y-73660000D01*
X92583000Y-68834000D02*
X91567000Y-69850000D01*
X124333000Y-65405000D02*
X123825000Y-64897000D01*
X129413000Y-83566000D02*
X129413000Y-82550000D01*
X94361000Y-86868000D02*
X92583000Y-85090000D01*
X136271000Y-62042137D02*
X136779000Y-62550137D01*
X134747000Y-86360000D02*
X134747000Y-84074000D01*
X91567000Y-74676000D02*
X92583000Y-75692000D01*
X126873000Y-65405000D02*
X126873000Y-68580000D01*
X92583000Y-63820137D02*
X92583000Y-66548000D01*
X94361000Y-86868000D02*
X134239000Y-86868000D01*
X134747000Y-86360000D02*
X134239000Y-86868000D01*
X96393000Y-83312000D02*
X97155000Y-84074000D01*
X124333000Y-68580000D02*
X124333000Y-65405000D01*
X92583000Y-66548000D02*
X92583000Y-68834000D01*
X129413000Y-83566000D02*
X128905000Y-84074000D01*
X131953000Y-82550000D02*
X131953000Y-83566000D01*
X132461000Y-84074000D02*
X134747000Y-84074000D01*
X126873000Y-65405000D02*
X127381000Y-64897000D01*
X129921000Y-82042000D02*
X131445000Y-82042000D01*
X131953000Y-83566000D02*
X132461000Y-84074000D01*
X85979000Y-69850000D02*
X84963000Y-70866000D01*
X129413000Y-82550000D02*
X129921000Y-82042000D01*
X99060000Y-64897000D02*
X123825000Y-64897000D01*
X128905000Y-84074000D02*
X97155000Y-84074000D01*
X96393000Y-83312000D02*
X96393000Y-68011137D01*
X126365000Y-69088000D02*
X124841000Y-69088000D01*
X126873000Y-68580000D02*
X126365000Y-69088000D01*
X136779000Y-62550137D02*
X136779000Y-64897000D01*
X91567000Y-69850000D02*
X85979000Y-69850000D01*
X136271000Y-62042137D02*
X94361000Y-62042137D01*
X127381000Y-64897000D02*
X136779000Y-64897000D01*
M02*
