%TF.GenerationSoftware,KiCad,Pcbnew,7.0.5-0*%
%TF.CreationDate,2023-06-16T22:13:25-07:00*%
%TF.ProjectId,JumperlessLEDboard,4a756d70-6572-46c6-9573-734c4544626f,rev?*%
%TF.SameCoordinates,Original*%
%TF.FileFunction,Legend,Top*%
%TF.FilePolarity,Positive*%
%FSLAX46Y46*%
G04 Gerber Fmt 4.6, Leading zero omitted, Abs format (unit mm)*
G04 Created by KiCad (PCBNEW 7.0.5-0) date 2023-06-16 22:13:25*
%MOMM*%
%LPD*%
G01*
G04 APERTURE LIST*
G04 Aperture macros list*
%AMRoundRect*
0 Rectangle with rounded corners*
0 $1 Rounding radius*
0 $2 $3 $4 $5 $6 $7 $8 $9 X,Y pos of 4 corners*
0 Add a 4 corners polygon primitive as box body*
4,1,4,$2,$3,$4,$5,$6,$7,$8,$9,$2,$3,0*
0 Add four circle primitives for the rounded corners*
1,1,$1+$1,$2,$3*
1,1,$1+$1,$4,$5*
1,1,$1+$1,$6,$7*
1,1,$1+$1,$8,$9*
0 Add four rect primitives between the rounded corners*
20,1,$1+$1,$2,$3,$4,$5,0*
20,1,$1+$1,$4,$5,$6,$7,0*
20,1,$1+$1,$6,$7,$8,$9,0*
20,1,$1+$1,$8,$9,$2,$3,0*%
G04 Aperture macros list end*
%ADD10C,0.150000*%
%ADD11RoundRect,0.150000X0.150000X0.200000X-0.150000X0.200000X-0.150000X-0.200000X0.150000X-0.200000X0*%
%ADD12RoundRect,0.150000X-0.150000X-0.200000X0.150000X-0.200000X0.150000X0.200000X-0.150000X0.200000X0*%
%ADD13RoundRect,0.455000X-0.195000X-0.195000X0.195000X-0.195000X0.195000X0.195000X-0.195000X0.195000X0*%
G04 APERTURE END LIST*
D10*
X94119819Y-81165506D02*
X94834104Y-81165506D01*
X94834104Y-81165506D02*
X94976961Y-81213125D01*
X94976961Y-81213125D02*
X95072200Y-81308363D01*
X95072200Y-81308363D02*
X95119819Y-81451220D01*
X95119819Y-81451220D02*
X95119819Y-81546458D01*
X95119819Y-80213125D02*
X95119819Y-80689315D01*
X95119819Y-80689315D02*
X94119819Y-80689315D01*
X95024580Y-79308363D02*
X95072200Y-79355982D01*
X95072200Y-79355982D02*
X95119819Y-79498839D01*
X95119819Y-79498839D02*
X95119819Y-79594077D01*
X95119819Y-79594077D02*
X95072200Y-79736934D01*
X95072200Y-79736934D02*
X94976961Y-79832172D01*
X94976961Y-79832172D02*
X94881723Y-79879791D01*
X94881723Y-79879791D02*
X94691247Y-79927410D01*
X94691247Y-79927410D02*
X94548390Y-79927410D01*
X94548390Y-79927410D02*
X94357914Y-79879791D01*
X94357914Y-79879791D02*
X94262676Y-79832172D01*
X94262676Y-79832172D02*
X94167438Y-79736934D01*
X94167438Y-79736934D02*
X94119819Y-79594077D01*
X94119819Y-79594077D02*
X94119819Y-79498839D01*
X94119819Y-79498839D02*
X94167438Y-79355982D01*
X94167438Y-79355982D02*
X94215057Y-79308363D01*
X94119819Y-78594077D02*
X94834104Y-78594077D01*
X94834104Y-78594077D02*
X94976961Y-78641696D01*
X94976961Y-78641696D02*
X95072200Y-78736934D01*
X95072200Y-78736934D02*
X95119819Y-78879791D01*
X95119819Y-78879791D02*
X95119819Y-78975029D01*
X95119819Y-77641696D02*
X95119819Y-78117886D01*
X95119819Y-78117886D02*
X94119819Y-78117886D01*
X95024580Y-76736934D02*
X95072200Y-76784553D01*
X95072200Y-76784553D02*
X95119819Y-76927410D01*
X95119819Y-76927410D02*
X95119819Y-77022648D01*
X95119819Y-77022648D02*
X95072200Y-77165505D01*
X95072200Y-77165505D02*
X94976961Y-77260743D01*
X94976961Y-77260743D02*
X94881723Y-77308362D01*
X94881723Y-77308362D02*
X94691247Y-77355981D01*
X94691247Y-77355981D02*
X94548390Y-77355981D01*
X94548390Y-77355981D02*
X94357914Y-77308362D01*
X94357914Y-77308362D02*
X94262676Y-77260743D01*
X94262676Y-77260743D02*
X94167438Y-77165505D01*
X94167438Y-77165505D02*
X94119819Y-77022648D01*
X94119819Y-77022648D02*
X94119819Y-76927410D01*
X94119819Y-76927410D02*
X94167438Y-76784553D01*
X94167438Y-76784553D02*
X94215057Y-76736934D01*
X94119819Y-76022648D02*
X94834104Y-76022648D01*
X94834104Y-76022648D02*
X94976961Y-76070267D01*
X94976961Y-76070267D02*
X95072200Y-76165505D01*
X95072200Y-76165505D02*
X95119819Y-76308362D01*
X95119819Y-76308362D02*
X95119819Y-76403600D01*
X95119819Y-75070267D02*
X95119819Y-75546457D01*
X95119819Y-75546457D02*
X94119819Y-75546457D01*
X95024580Y-74165505D02*
X95072200Y-74213124D01*
X95072200Y-74213124D02*
X95119819Y-74355981D01*
X95119819Y-74355981D02*
X95119819Y-74451219D01*
X95119819Y-74451219D02*
X95072200Y-74594076D01*
X95072200Y-74594076D02*
X94976961Y-74689314D01*
X94976961Y-74689314D02*
X94881723Y-74736933D01*
X94881723Y-74736933D02*
X94691247Y-74784552D01*
X94691247Y-74784552D02*
X94548390Y-74784552D01*
X94548390Y-74784552D02*
X94357914Y-74736933D01*
X94357914Y-74736933D02*
X94262676Y-74689314D01*
X94262676Y-74689314D02*
X94167438Y-74594076D01*
X94167438Y-74594076D02*
X94119819Y-74451219D01*
X94119819Y-74451219D02*
X94119819Y-74355981D01*
X94119819Y-74355981D02*
X94167438Y-74213124D01*
X94167438Y-74213124D02*
X94215057Y-74165505D01*
X94119819Y-73451219D02*
X94834104Y-73451219D01*
X94834104Y-73451219D02*
X94976961Y-73498838D01*
X94976961Y-73498838D02*
X95072200Y-73594076D01*
X95072200Y-73594076D02*
X95119819Y-73736933D01*
X95119819Y-73736933D02*
X95119819Y-73832171D01*
X95119819Y-72498838D02*
X95119819Y-72975028D01*
X95119819Y-72975028D02*
X94119819Y-72975028D01*
X95024580Y-71594076D02*
X95072200Y-71641695D01*
X95072200Y-71641695D02*
X95119819Y-71784552D01*
X95119819Y-71784552D02*
X95119819Y-71879790D01*
X95119819Y-71879790D02*
X95072200Y-72022647D01*
X95072200Y-72022647D02*
X94976961Y-72117885D01*
X94976961Y-72117885D02*
X94881723Y-72165504D01*
X94881723Y-72165504D02*
X94691247Y-72213123D01*
X94691247Y-72213123D02*
X94548390Y-72213123D01*
X94548390Y-72213123D02*
X94357914Y-72165504D01*
X94357914Y-72165504D02*
X94262676Y-72117885D01*
X94262676Y-72117885D02*
X94167438Y-72022647D01*
X94167438Y-72022647D02*
X94119819Y-71879790D01*
X94119819Y-71879790D02*
X94119819Y-71784552D01*
X94119819Y-71784552D02*
X94167438Y-71641695D01*
X94167438Y-71641695D02*
X94215057Y-71594076D01*
%LPC*%
D11*
%TO.C,D110*%
X106172000Y-85894000D03*
X106172000Y-84794000D03*
X104394000Y-84794000D03*
X104394000Y-85894000D03*
%TD*%
%TO.C,D121*%
X134112000Y-85894000D03*
X134112000Y-84794000D03*
X132334000Y-84794000D03*
X132334000Y-85894000D03*
%TD*%
%TO.C,D116*%
X121412000Y-85894000D03*
X121412000Y-84794000D03*
X119634000Y-84794000D03*
X119634000Y-85894000D03*
%TD*%
%TO.C,D111*%
X108712000Y-85894000D03*
X108712000Y-84794000D03*
X106934000Y-84794000D03*
X106934000Y-85894000D03*
%TD*%
%TO.C,D114*%
X116332000Y-85894000D03*
X116332000Y-84794000D03*
X114554000Y-84794000D03*
X114554000Y-85894000D03*
%TD*%
%TO.C,D107*%
X98552000Y-85894000D03*
X98552000Y-84794000D03*
X96774000Y-84794000D03*
X96774000Y-85894000D03*
%TD*%
%TO.C,D112*%
X111252000Y-85894000D03*
X111252000Y-84794000D03*
X109474000Y-84794000D03*
X109474000Y-85894000D03*
%TD*%
%TO.C,D115*%
X118872000Y-85894000D03*
X118872000Y-84794000D03*
X117094000Y-84794000D03*
X117094000Y-85894000D03*
%TD*%
%TO.C,D117*%
X123952000Y-85894000D03*
X123952000Y-84794000D03*
X122174000Y-84794000D03*
X122174000Y-85894000D03*
%TD*%
%TO.C,D113*%
X113792000Y-85894000D03*
X113792000Y-84794000D03*
X112014000Y-84794000D03*
X112014000Y-85894000D03*
%TD*%
%TO.C,D108*%
X101092000Y-85894000D03*
X101092000Y-84794000D03*
X99314000Y-84794000D03*
X99314000Y-85894000D03*
%TD*%
%TO.C,D119*%
X129032000Y-85894000D03*
X129032000Y-84794000D03*
X127254000Y-84794000D03*
X127254000Y-85894000D03*
%TD*%
%TO.C,D120*%
X131572000Y-85894000D03*
X131572000Y-84794000D03*
X129794000Y-84794000D03*
X129794000Y-85894000D03*
%TD*%
%TO.C,D118*%
X126492000Y-85894000D03*
X126492000Y-84794000D03*
X124714000Y-84794000D03*
X124714000Y-85894000D03*
%TD*%
%TO.C,D109*%
X103632000Y-85894000D03*
X103632000Y-84794000D03*
X101854000Y-84794000D03*
X101854000Y-85894000D03*
%TD*%
D12*
%TO.C,D102*%
X106934000Y-62950000D03*
X106934000Y-64050000D03*
X108712000Y-64050000D03*
X108712000Y-62950000D03*
%TD*%
%TO.C,D100*%
X112014000Y-62950000D03*
X112014000Y-64050000D03*
X113792000Y-64050000D03*
X113792000Y-62950000D03*
%TD*%
%TO.C,D104*%
X101854000Y-62950000D03*
X101854000Y-64050000D03*
X103632000Y-64050000D03*
X103632000Y-62950000D03*
%TD*%
%TO.C,D92*%
X132334000Y-62950000D03*
X132334000Y-64050000D03*
X134112000Y-64050000D03*
X134112000Y-62950000D03*
%TD*%
%TO.C,D97*%
X119634000Y-62950000D03*
X119634000Y-64050000D03*
X121412000Y-64050000D03*
X121412000Y-62950000D03*
%TD*%
%TO.C,D103*%
X104394000Y-62950000D03*
X104394000Y-64050000D03*
X106172000Y-64050000D03*
X106172000Y-62950000D03*
%TD*%
D11*
%TO.C,D122*%
X90297000Y-72686000D03*
X90297000Y-71586000D03*
X88519000Y-71586000D03*
X88519000Y-72686000D03*
%TD*%
D12*
%TO.C,D93*%
X129794000Y-62950000D03*
X129794000Y-64050000D03*
X131572000Y-64050000D03*
X131572000Y-62950000D03*
%TD*%
%TO.C,D105*%
X99314000Y-62950000D03*
X99314000Y-64050000D03*
X101092000Y-64050000D03*
X101092000Y-62950000D03*
%TD*%
%TO.C,D96*%
X122174000Y-62950000D03*
X122174000Y-64050000D03*
X123952000Y-64050000D03*
X123952000Y-62950000D03*
%TD*%
%TO.C,D94*%
X127254000Y-62950000D03*
X127254000Y-64050000D03*
X129032000Y-64050000D03*
X129032000Y-62950000D03*
%TD*%
%TO.C,D101*%
X109474000Y-62950000D03*
X109474000Y-64050000D03*
X111252000Y-64050000D03*
X111252000Y-62950000D03*
%TD*%
%TO.C,D95*%
X124714000Y-62950000D03*
X124714000Y-64050000D03*
X126492000Y-64050000D03*
X126492000Y-62950000D03*
%TD*%
%TO.C,D99*%
X114554000Y-62950000D03*
X114554000Y-64050000D03*
X116332000Y-64050000D03*
X116332000Y-62950000D03*
%TD*%
%TO.C,D106*%
X96774000Y-62950000D03*
X96774000Y-64050000D03*
X98552000Y-64050000D03*
X98552000Y-62950000D03*
%TD*%
%TO.C,D98*%
X117094000Y-62950000D03*
X117094000Y-64050000D03*
X118872000Y-64050000D03*
X118872000Y-62950000D03*
%TD*%
D13*
%TO.C,J9*%
X130683000Y-83235800D03*
%TD*%
%TO.C,J8*%
X95123000Y-63652400D03*
%TD*%
%TO.C,TP18*%
X135763000Y-63500000D03*
%TD*%
%TO.C,TP19*%
X95123000Y-68072000D03*
%TD*%
%TO.C,J10*%
X125603000Y-67995800D03*
%TD*%
%LPD*%
M02*
