%TF.GenerationSoftware,KiCad,Pcbnew,7.0.5-0*%
%TF.CreationDate,2023-06-16T22:13:25-07:00*%
%TF.ProjectId,JumperlessLEDboard,4a756d70-6572-46c6-9573-734c4544626f,rev?*%
%TF.SameCoordinates,Original*%
%TF.FileFunction,Copper,L1,Top*%
%TF.FilePolarity,Positive*%
%FSLAX46Y46*%
G04 Gerber Fmt 4.6, Leading zero omitted, Abs format (unit mm)*
G04 Created by KiCad (PCBNEW 7.0.5-0) date 2023-06-16 22:13:25*
%MOMM*%
%LPD*%
G01*
G04 APERTURE LIST*
G04 Aperture macros list*
%AMRoundRect*
0 Rectangle with rounded corners*
0 $1 Rounding radius*
0 $2 $3 $4 $5 $6 $7 $8 $9 X,Y pos of 4 corners*
0 Add a 4 corners polygon primitive as box body*
4,1,4,$2,$3,$4,$5,$6,$7,$8,$9,$2,$3,0*
0 Add four circle primitives for the rounded corners*
1,1,$1+$1,$2,$3*
1,1,$1+$1,$4,$5*
1,1,$1+$1,$6,$7*
1,1,$1+$1,$8,$9*
0 Add four rect primitives between the rounded corners*
20,1,$1+$1,$2,$3,$4,$5,0*
20,1,$1+$1,$4,$5,$6,$7,0*
20,1,$1+$1,$6,$7,$8,$9,0*
20,1,$1+$1,$8,$9,$2,$3,0*%
G04 Aperture macros list end*
%TA.AperFunction,SMDPad,CuDef*%
%ADD10RoundRect,0.150000X0.150000X0.200000X-0.150000X0.200000X-0.150000X-0.200000X0.150000X-0.200000X0*%
%TD*%
%TA.AperFunction,SMDPad,CuDef*%
%ADD11RoundRect,0.150000X-0.150000X-0.200000X0.150000X-0.200000X0.150000X0.200000X-0.150000X0.200000X0*%
%TD*%
%TA.AperFunction,ComponentPad*%
%ADD12RoundRect,0.455000X-0.195000X-0.195000X0.195000X-0.195000X0.195000X0.195000X-0.195000X0.195000X0*%
%TD*%
%TA.AperFunction,ViaPad*%
%ADD13C,0.350000*%
%TD*%
%TA.AperFunction,Conductor*%
%ADD14C,0.175000*%
%TD*%
%TA.AperFunction,Conductor*%
%ADD15C,0.250000*%
%TD*%
G04 APERTURE END LIST*
D10*
%TO.P,D110,1,DOUT*%
%TO.N,Net-(D110-DOUT)*%
X106172000Y-85894000D03*
%TO.P,D110,2,VSS*%
%TO.N,Net-(D100-VSS)*%
X106172000Y-84794000D03*
%TO.P,D110,3,DIN*%
%TO.N,Net-(D109-DOUT)*%
X104394000Y-84794000D03*
%TO.P,D110,4,VDD*%
%TO.N,Net-(D100-VDD)*%
X104394000Y-85894000D03*
%TD*%
%TO.P,D121,1,DOUT*%
%TO.N,Net-(D121-DOUT)*%
X134112000Y-85894000D03*
%TO.P,D121,2,VSS*%
%TO.N,Net-(D100-VSS)*%
X134112000Y-84794000D03*
%TO.P,D121,3,DIN*%
%TO.N,Net-(D120-DOUT)*%
X132334000Y-84794000D03*
%TO.P,D121,4,VDD*%
%TO.N,Net-(D100-VDD)*%
X132334000Y-85894000D03*
%TD*%
%TO.P,D116,1,DOUT*%
%TO.N,Net-(D116-DOUT)*%
X121412000Y-85894000D03*
%TO.P,D116,2,VSS*%
%TO.N,Net-(D100-VSS)*%
X121412000Y-84794000D03*
%TO.P,D116,3,DIN*%
%TO.N,Net-(D115-DOUT)*%
X119634000Y-84794000D03*
%TO.P,D116,4,VDD*%
%TO.N,Net-(D100-VDD)*%
X119634000Y-85894000D03*
%TD*%
%TO.P,D111,1,DOUT*%
%TO.N,Net-(D111-DOUT)*%
X108712000Y-85894000D03*
%TO.P,D111,2,VSS*%
%TO.N,Net-(D100-VSS)*%
X108712000Y-84794000D03*
%TO.P,D111,3,DIN*%
%TO.N,Net-(D110-DOUT)*%
X106934000Y-84794000D03*
%TO.P,D111,4,VDD*%
%TO.N,Net-(D100-VDD)*%
X106934000Y-85894000D03*
%TD*%
%TO.P,D114,1,DOUT*%
%TO.N,Net-(D114-DOUT)*%
X116332000Y-85894000D03*
%TO.P,D114,2,VSS*%
%TO.N,Net-(D100-VSS)*%
X116332000Y-84794000D03*
%TO.P,D114,3,DIN*%
%TO.N,Net-(D113-DOUT)*%
X114554000Y-84794000D03*
%TO.P,D114,4,VDD*%
%TO.N,Net-(D100-VDD)*%
X114554000Y-85894000D03*
%TD*%
%TO.P,D107,1,DOUT*%
%TO.N,Net-(D107-DOUT)*%
X98552000Y-85894000D03*
%TO.P,D107,2,VSS*%
%TO.N,Net-(D100-VSS)*%
X98552000Y-84794000D03*
%TO.P,D107,3,DIN*%
%TO.N,Net-(D106-DOUT)*%
X96774000Y-84794000D03*
%TO.P,D107,4,VDD*%
%TO.N,Net-(D100-VDD)*%
X96774000Y-85894000D03*
%TD*%
%TO.P,D112,1,DOUT*%
%TO.N,Net-(D112-DOUT)*%
X111252000Y-85894000D03*
%TO.P,D112,2,VSS*%
%TO.N,Net-(D100-VSS)*%
X111252000Y-84794000D03*
%TO.P,D112,3,DIN*%
%TO.N,Net-(D111-DOUT)*%
X109474000Y-84794000D03*
%TO.P,D112,4,VDD*%
%TO.N,Net-(D100-VDD)*%
X109474000Y-85894000D03*
%TD*%
%TO.P,D115,1,DOUT*%
%TO.N,Net-(D115-DOUT)*%
X118872000Y-85894000D03*
%TO.P,D115,2,VSS*%
%TO.N,Net-(D100-VSS)*%
X118872000Y-84794000D03*
%TO.P,D115,3,DIN*%
%TO.N,Net-(D114-DOUT)*%
X117094000Y-84794000D03*
%TO.P,D115,4,VDD*%
%TO.N,Net-(D100-VDD)*%
X117094000Y-85894000D03*
%TD*%
%TO.P,D117,1,DOUT*%
%TO.N,Net-(D117-DOUT)*%
X123952000Y-85894000D03*
%TO.P,D117,2,VSS*%
%TO.N,Net-(D100-VSS)*%
X123952000Y-84794000D03*
%TO.P,D117,3,DIN*%
%TO.N,Net-(D116-DOUT)*%
X122174000Y-84794000D03*
%TO.P,D117,4,VDD*%
%TO.N,Net-(D100-VDD)*%
X122174000Y-85894000D03*
%TD*%
%TO.P,D113,1,DOUT*%
%TO.N,Net-(D113-DOUT)*%
X113792000Y-85894000D03*
%TO.P,D113,2,VSS*%
%TO.N,Net-(D100-VSS)*%
X113792000Y-84794000D03*
%TO.P,D113,3,DIN*%
%TO.N,Net-(D112-DOUT)*%
X112014000Y-84794000D03*
%TO.P,D113,4,VDD*%
%TO.N,Net-(D100-VDD)*%
X112014000Y-85894000D03*
%TD*%
%TO.P,D108,1,DOUT*%
%TO.N,Net-(D108-DOUT)*%
X101092000Y-85894000D03*
%TO.P,D108,2,VSS*%
%TO.N,Net-(D100-VSS)*%
X101092000Y-84794000D03*
%TO.P,D108,3,DIN*%
%TO.N,Net-(D107-DOUT)*%
X99314000Y-84794000D03*
%TO.P,D108,4,VDD*%
%TO.N,Net-(D100-VDD)*%
X99314000Y-85894000D03*
%TD*%
%TO.P,D119,1,DOUT*%
%TO.N,Net-(D119-DOUT)*%
X129032000Y-85894000D03*
%TO.P,D119,2,VSS*%
%TO.N,Net-(D100-VSS)*%
X129032000Y-84794000D03*
%TO.P,D119,3,DIN*%
%TO.N,Net-(D118-DOUT)*%
X127254000Y-84794000D03*
%TO.P,D119,4,VDD*%
%TO.N,Net-(D100-VDD)*%
X127254000Y-85894000D03*
%TD*%
%TO.P,D120,1,DOUT*%
%TO.N,Net-(D120-DOUT)*%
X131572000Y-85894000D03*
%TO.P,D120,2,VSS*%
%TO.N,Net-(D100-VSS)*%
X131572000Y-84794000D03*
%TO.P,D120,3,DIN*%
%TO.N,Net-(D119-DOUT)*%
X129794000Y-84794000D03*
%TO.P,D120,4,VDD*%
%TO.N,Net-(D100-VDD)*%
X129794000Y-85894000D03*
%TD*%
%TO.P,D118,1,DOUT*%
%TO.N,Net-(D118-DOUT)*%
X126492000Y-85894000D03*
%TO.P,D118,2,VSS*%
%TO.N,Net-(D100-VSS)*%
X126492000Y-84794000D03*
%TO.P,D118,3,DIN*%
%TO.N,Net-(D117-DOUT)*%
X124714000Y-84794000D03*
%TO.P,D118,4,VDD*%
%TO.N,Net-(D100-VDD)*%
X124714000Y-85894000D03*
%TD*%
%TO.P,D109,1,DOUT*%
%TO.N,Net-(D109-DOUT)*%
X103632000Y-85894000D03*
%TO.P,D109,2,VSS*%
%TO.N,Net-(D100-VSS)*%
X103632000Y-84794000D03*
%TO.P,D109,3,DIN*%
%TO.N,Net-(D108-DOUT)*%
X101854000Y-84794000D03*
%TO.P,D109,4,VDD*%
%TO.N,Net-(D100-VDD)*%
X101854000Y-85894000D03*
%TD*%
D11*
%TO.P,D102,1,DOUT*%
%TO.N,Net-(D102-DOUT)*%
X106934000Y-62950000D03*
%TO.P,D102,2,VSS*%
%TO.N,Net-(D100-VSS)*%
X106934000Y-64050000D03*
%TO.P,D102,3,DIN*%
%TO.N,Net-(D101-DOUT)*%
X108712000Y-64050000D03*
%TO.P,D102,4,VDD*%
%TO.N,Net-(D100-VDD)*%
X108712000Y-62950000D03*
%TD*%
%TO.P,D100,1,DOUT*%
%TO.N,Net-(D100-DOUT)*%
X112014000Y-62950000D03*
%TO.P,D100,2,VSS*%
%TO.N,Net-(D100-VSS)*%
X112014000Y-64050000D03*
%TO.P,D100,3,DIN*%
%TO.N,Net-(D100-DIN)*%
X113792000Y-64050000D03*
%TO.P,D100,4,VDD*%
%TO.N,Net-(D100-VDD)*%
X113792000Y-62950000D03*
%TD*%
%TO.P,D104,1,DOUT*%
%TO.N,Net-(D104-DOUT)*%
X101854000Y-62950000D03*
%TO.P,D104,2,VSS*%
%TO.N,Net-(D100-VSS)*%
X101854000Y-64050000D03*
%TO.P,D104,3,DIN*%
%TO.N,Net-(D103-DOUT)*%
X103632000Y-64050000D03*
%TO.P,D104,4,VDD*%
%TO.N,Net-(D100-VDD)*%
X103632000Y-62950000D03*
%TD*%
%TO.P,D92,1,DOUT*%
%TO.N,Net-(D92-DOUT)*%
X132334000Y-62950000D03*
%TO.P,D92,2,VSS*%
%TO.N,Net-(D100-VSS)*%
X132334000Y-64050000D03*
%TO.P,D92,3,DIN*%
%TO.N,Net-(D92-DIN)*%
X134112000Y-64050000D03*
%TO.P,D92,4,VDD*%
%TO.N,Net-(D100-VDD)*%
X134112000Y-62950000D03*
%TD*%
%TO.P,D97,1,DOUT*%
%TO.N,Net-(D97-DOUT)*%
X119634000Y-62950000D03*
%TO.P,D97,2,VSS*%
%TO.N,Net-(D100-VSS)*%
X119634000Y-64050000D03*
%TO.P,D97,3,DIN*%
%TO.N,Net-(D96-DOUT)*%
X121412000Y-64050000D03*
%TO.P,D97,4,VDD*%
%TO.N,Net-(D100-VDD)*%
X121412000Y-62950000D03*
%TD*%
%TO.P,D103,1,DOUT*%
%TO.N,Net-(D103-DOUT)*%
X104394000Y-62950000D03*
%TO.P,D103,2,VSS*%
%TO.N,Net-(D100-VSS)*%
X104394000Y-64050000D03*
%TO.P,D103,3,DIN*%
%TO.N,Net-(D102-DOUT)*%
X106172000Y-64050000D03*
%TO.P,D103,4,VDD*%
%TO.N,Net-(D100-VDD)*%
X106172000Y-62950000D03*
%TD*%
D10*
%TO.P,D122,1,DOUT*%
%TO.N,Net-(D122-DOUT)*%
X90297000Y-72686000D03*
%TO.P,D122,2,VSS*%
%TO.N,Net-(D100-VSS)*%
X90297000Y-71586000D03*
%TO.P,D122,3,DIN*%
%TO.N,Net-(D121-DOUT)*%
X88519000Y-71586000D03*
%TO.P,D122,4,VDD*%
%TO.N,Net-(D100-VDD)*%
X88519000Y-72686000D03*
%TD*%
D11*
%TO.P,D93,1,DOUT*%
%TO.N,Net-(D93-DOUT)*%
X129794000Y-62950000D03*
%TO.P,D93,2,VSS*%
%TO.N,Net-(D100-VSS)*%
X129794000Y-64050000D03*
%TO.P,D93,3,DIN*%
%TO.N,Net-(D92-DOUT)*%
X131572000Y-64050000D03*
%TO.P,D93,4,VDD*%
%TO.N,Net-(D100-VDD)*%
X131572000Y-62950000D03*
%TD*%
%TO.P,D105,1,DOUT*%
%TO.N,Net-(D105-DOUT)*%
X99314000Y-62950000D03*
%TO.P,D105,2,VSS*%
%TO.N,Net-(D100-VSS)*%
X99314000Y-64050000D03*
%TO.P,D105,3,DIN*%
%TO.N,Net-(D104-DOUT)*%
X101092000Y-64050000D03*
%TO.P,D105,4,VDD*%
%TO.N,Net-(D100-VDD)*%
X101092000Y-62950000D03*
%TD*%
%TO.P,D96,1,DOUT*%
%TO.N,Net-(D96-DOUT)*%
X122174000Y-62950000D03*
%TO.P,D96,2,VSS*%
%TO.N,Net-(D100-VSS)*%
X122174000Y-64050000D03*
%TO.P,D96,3,DIN*%
%TO.N,Net-(D95-DOUT)*%
X123952000Y-64050000D03*
%TO.P,D96,4,VDD*%
%TO.N,Net-(D100-VDD)*%
X123952000Y-62950000D03*
%TD*%
%TO.P,D94,1,DOUT*%
%TO.N,Net-(D94-DOUT)*%
X127254000Y-62950000D03*
%TO.P,D94,2,VSS*%
%TO.N,Net-(D100-VSS)*%
X127254000Y-64050000D03*
%TO.P,D94,3,DIN*%
%TO.N,Net-(D93-DOUT)*%
X129032000Y-64050000D03*
%TO.P,D94,4,VDD*%
%TO.N,Net-(D100-VDD)*%
X129032000Y-62950000D03*
%TD*%
%TO.P,D101,1,DOUT*%
%TO.N,Net-(D101-DOUT)*%
X109474000Y-62950000D03*
%TO.P,D101,2,VSS*%
%TO.N,Net-(D100-VSS)*%
X109474000Y-64050000D03*
%TO.P,D101,3,DIN*%
%TO.N,Net-(D100-DOUT)*%
X111252000Y-64050000D03*
%TO.P,D101,4,VDD*%
%TO.N,Net-(D100-VDD)*%
X111252000Y-62950000D03*
%TD*%
%TO.P,D95,1,DOUT*%
%TO.N,Net-(D95-DOUT)*%
X124714000Y-62950000D03*
%TO.P,D95,2,VSS*%
%TO.N,Net-(D100-VSS)*%
X124714000Y-64050000D03*
%TO.P,D95,3,DIN*%
%TO.N,Net-(D94-DOUT)*%
X126492000Y-64050000D03*
%TO.P,D95,4,VDD*%
%TO.N,Net-(D100-VDD)*%
X126492000Y-62950000D03*
%TD*%
%TO.P,D99,1,DOUT*%
%TO.N,Net-(D100-DIN)*%
X114554000Y-62950000D03*
%TO.P,D99,2,VSS*%
%TO.N,Net-(D100-VSS)*%
X114554000Y-64050000D03*
%TO.P,D99,3,DIN*%
%TO.N,Net-(D98-DOUT)*%
X116332000Y-64050000D03*
%TO.P,D99,4,VDD*%
%TO.N,Net-(D100-VDD)*%
X116332000Y-62950000D03*
%TD*%
%TO.P,D106,1,DOUT*%
%TO.N,Net-(D106-DOUT)*%
X96774000Y-62950000D03*
%TO.P,D106,2,VSS*%
%TO.N,Net-(D100-VSS)*%
X96774000Y-64050000D03*
%TO.P,D106,3,DIN*%
%TO.N,Net-(D105-DOUT)*%
X98552000Y-64050000D03*
%TO.P,D106,4,VDD*%
%TO.N,Net-(D100-VDD)*%
X98552000Y-62950000D03*
%TD*%
%TO.P,D98,1,DOUT*%
%TO.N,Net-(D98-DOUT)*%
X117094000Y-62950000D03*
%TO.P,D98,2,VSS*%
%TO.N,Net-(D100-VSS)*%
X117094000Y-64050000D03*
%TO.P,D98,3,DIN*%
%TO.N,Net-(D97-DOUT)*%
X118872000Y-64050000D03*
%TO.P,D98,4,VDD*%
%TO.N,Net-(D100-VDD)*%
X118872000Y-62950000D03*
%TD*%
D12*
%TO.P,J9,1,Pin_1*%
%TO.N,Net-(D100-VSS)*%
X130683000Y-83235800D03*
%TD*%
%TO.P,J8,1,Pin_1*%
%TO.N,Net-(D100-VDD)*%
X95123000Y-63652400D03*
%TD*%
%TO.P,TP18,1,1*%
%TO.N,Net-(D92-DIN)*%
X135763000Y-63500000D03*
%TD*%
%TO.P,TP19,1,1*%
%TO.N,Net-(D122-DOUT)*%
X95123000Y-68072000D03*
%TD*%
%TO.P,J10,1,Pin_1*%
%TO.N,Net-(D100-VSS)*%
X125603000Y-67995800D03*
%TD*%
D13*
%TO.N,Net-(D106-DOUT)*%
X94615000Y-66294000D03*
X94572500Y-82592500D03*
%TO.N,Net-(D100-VDD)*%
X130683000Y-62865000D03*
X128143000Y-62865000D03*
X125603000Y-62865000D03*
X123063000Y-62865000D03*
X120523000Y-62865000D03*
X117983000Y-62865000D03*
X115443000Y-62865000D03*
X112903000Y-62865000D03*
X110363000Y-62865000D03*
X107950000Y-62865000D03*
X105410000Y-62865000D03*
X102743000Y-62865000D03*
X100203000Y-62865000D03*
X97663000Y-62865000D03*
X133096000Y-62865000D03*
%TO.N,Net-(D100-VSS)*%
X97663000Y-84582000D03*
X100203000Y-84582000D03*
X102743000Y-84582000D03*
X105283000Y-84582000D03*
X107823000Y-84582000D03*
X110363000Y-84582000D03*
X112903000Y-84582000D03*
X115443000Y-84582000D03*
X117983000Y-84582000D03*
X120523000Y-84582000D03*
X123063000Y-84582000D03*
X125603000Y-84582000D03*
X128143000Y-84582000D03*
X130683000Y-84582000D03*
X95758000Y-83058000D03*
X133223000Y-84582000D03*
%TO.N,Net-(D122-DOUT)*%
X90678000Y-70866000D03*
%TO.N,Net-(D100-VDD)*%
X87884000Y-73279000D03*
%TO.N,Net-(D121-DOUT)*%
X89281000Y-72136000D03*
X133223000Y-85344000D03*
%TD*%
D14*
%TO.N,Net-(D121-DOUT)*%
X89281000Y-72136000D02*
X89255600Y-72136000D01*
X89255600Y-72136000D02*
X88705600Y-71586000D01*
X88705600Y-71586000D02*
X88519000Y-71586000D01*
%TO.N,Net-(D100-VDD)*%
X96774000Y-85894000D02*
X94135000Y-83255000D01*
X94135000Y-83255000D02*
X94135000Y-76253400D01*
X94135000Y-76253400D02*
X91541600Y-73660000D01*
X91541600Y-73660000D02*
X88265000Y-73660000D01*
X88265000Y-73660000D02*
X87884000Y-73279000D01*
%TO.N,Net-(D106-DOUT)*%
X96774000Y-62950000D02*
X96139000Y-63585000D01*
X96139000Y-64770000D02*
X94615000Y-66294000D01*
X96139000Y-63585000D02*
X96139000Y-64770000D01*
X96774000Y-84794000D02*
X94572500Y-82592500D01*
%TO.N,Net-(D100-VSS)*%
X96774000Y-64643000D02*
X96647000Y-64770000D01*
X96774000Y-64643000D02*
X96010500Y-65406500D01*
X96010500Y-65406500D02*
X96010500Y-69089500D01*
X96010500Y-69089500D02*
X93472000Y-71628000D01*
X93472000Y-71628000D02*
X90339000Y-71628000D01*
X90339000Y-71628000D02*
X90297000Y-71586000D01*
X96774000Y-64050000D02*
X96774000Y-64643000D01*
X125603000Y-67995800D02*
X125603000Y-65476500D01*
X125603000Y-65476500D02*
X124769500Y-64643000D01*
%TO.N,Net-(D100-VDD)*%
X134112000Y-62950000D02*
X133181000Y-62950000D01*
X133181000Y-62950000D02*
X133096000Y-62865000D01*
X131572000Y-62950000D02*
X130768000Y-62950000D01*
X130768000Y-62950000D02*
X130683000Y-62865000D01*
X128228000Y-62950000D02*
X128143000Y-62865000D01*
X129032000Y-62950000D02*
X128228000Y-62950000D01*
X126492000Y-62950000D02*
X125688000Y-62950000D01*
X125688000Y-62950000D02*
X125603000Y-62865000D01*
X123952000Y-62950000D02*
X123148000Y-62950000D01*
X123148000Y-62950000D02*
X123063000Y-62865000D01*
X121412000Y-62950000D02*
X120608000Y-62950000D01*
X120608000Y-62950000D02*
X120523000Y-62865000D01*
X118872000Y-62950000D02*
X118068000Y-62950000D01*
X118068000Y-62950000D02*
X117983000Y-62865000D01*
X116332000Y-62950000D02*
X115528000Y-62950000D01*
X115528000Y-62950000D02*
X115443000Y-62865000D01*
X112988000Y-62950000D02*
X112903000Y-62865000D01*
X113792000Y-62950000D02*
X112988000Y-62950000D01*
X110448000Y-62950000D02*
X110363000Y-62865000D01*
X111252000Y-62950000D02*
X110448000Y-62950000D01*
X108712000Y-62950000D02*
X108035000Y-62950000D01*
X108035000Y-62950000D02*
X107950000Y-62865000D01*
X105495000Y-62950000D02*
X105410000Y-62865000D01*
X106172000Y-62950000D02*
X105495000Y-62950000D01*
X103632000Y-62950000D02*
X102828000Y-62950000D01*
X102828000Y-62950000D02*
X102743000Y-62865000D01*
X101092000Y-62950000D02*
X100288000Y-62950000D01*
X100288000Y-62950000D02*
X100203000Y-62865000D01*
X97748000Y-62950000D02*
X97663000Y-62865000D01*
X98552000Y-62950000D02*
X97748000Y-62950000D01*
%TO.N,Net-(D100-VSS)*%
X132334000Y-64050000D02*
X132334000Y-64643000D01*
X132334000Y-64643000D02*
X129738500Y-64643000D01*
X127254000Y-64587500D02*
X127309500Y-64643000D01*
X127309500Y-64643000D02*
X129738500Y-64643000D01*
X129738500Y-64643000D02*
X129794000Y-64587500D01*
X124714000Y-64587500D02*
X124769500Y-64643000D01*
X124769500Y-64643000D02*
X127198500Y-64643000D01*
X127198500Y-64643000D02*
X127254000Y-64587500D01*
X122174000Y-64587500D02*
X122229500Y-64643000D01*
X122229500Y-64643000D02*
X124658500Y-64643000D01*
X124658500Y-64643000D02*
X124714000Y-64587500D01*
X119634000Y-64587500D02*
X119689500Y-64643000D01*
X122118500Y-64643000D02*
X122174000Y-64587500D01*
X119689500Y-64643000D02*
X122118500Y-64643000D01*
X117094000Y-64587500D02*
X117149500Y-64643000D01*
X117149500Y-64643000D02*
X119578500Y-64643000D01*
X119578500Y-64643000D02*
X119634000Y-64587500D01*
X114554000Y-64587500D02*
X114609500Y-64643000D01*
X114609500Y-64643000D02*
X117038500Y-64643000D01*
X117038500Y-64643000D02*
X117094000Y-64587500D01*
X112014000Y-64587500D02*
X112069500Y-64643000D01*
X112069500Y-64643000D02*
X114498500Y-64643000D01*
X114498500Y-64643000D02*
X114554000Y-64587500D01*
X109474000Y-64587500D02*
X109529500Y-64643000D01*
X109529500Y-64643000D02*
X111958500Y-64643000D01*
X111958500Y-64643000D02*
X112014000Y-64587500D01*
X106934000Y-64587500D02*
X106989500Y-64643000D01*
X106989500Y-64643000D02*
X109418500Y-64643000D01*
X109418500Y-64643000D02*
X109474000Y-64587500D01*
X104394000Y-64587500D02*
X104449500Y-64643000D01*
X104449500Y-64643000D02*
X106878500Y-64643000D01*
X106878500Y-64643000D02*
X106934000Y-64587500D01*
X101854000Y-64587500D02*
X101909500Y-64643000D01*
X101909500Y-64643000D02*
X104338500Y-64643000D01*
X104338500Y-64643000D02*
X104394000Y-64587500D01*
X96774000Y-64050000D02*
X97361500Y-64637500D01*
X97361500Y-64637500D02*
X101804000Y-64637500D01*
X101804000Y-64637500D02*
X101854000Y-64587500D01*
X130683000Y-84582000D02*
X130683000Y-83235800D01*
%TO.N,Net-(D100-VDD)*%
X127254000Y-86431500D02*
X129794000Y-86431500D01*
X129794000Y-86431500D02*
X131861797Y-86431500D01*
X129794000Y-85894000D02*
X129794000Y-86431500D01*
X124714000Y-86431500D02*
X127254000Y-86431500D01*
X127254000Y-85894000D02*
X127254000Y-86431500D01*
X122174000Y-86431500D02*
X124714000Y-86431500D01*
X124714000Y-85894000D02*
X124714000Y-86431500D01*
X119634000Y-86431500D02*
X122174000Y-86431500D01*
X122174000Y-85894000D02*
X122174000Y-86431500D01*
X117094000Y-86431500D02*
X119634000Y-86431500D01*
X119634000Y-85894000D02*
X119634000Y-86431500D01*
X114554000Y-86431500D02*
X117094000Y-86431500D01*
X117094000Y-85894000D02*
X117094000Y-86431500D01*
X112014000Y-86431500D02*
X114554000Y-86431500D01*
X114554000Y-85894000D02*
X114554000Y-86431500D01*
X109474000Y-86431500D02*
X112014000Y-86431500D01*
X112014000Y-85894000D02*
X112014000Y-86431500D01*
X106934000Y-86431500D02*
X109474000Y-86431500D01*
X109474000Y-85894000D02*
X109474000Y-86431500D01*
X104394000Y-86431500D02*
X106934000Y-86431500D01*
X106934000Y-85894000D02*
X106934000Y-86431500D01*
X101854000Y-86431500D02*
X104394000Y-86431500D01*
X104394000Y-85894000D02*
X104394000Y-86431500D01*
X99314000Y-86431500D02*
X101854000Y-86431500D01*
X101854000Y-85894000D02*
X101854000Y-86431500D01*
X97311500Y-86431500D02*
X99314000Y-86431500D01*
X99314000Y-85894000D02*
X99314000Y-86431500D01*
%TO.N,Net-(D100-VSS)*%
X98552000Y-84794000D02*
X97875000Y-84794000D01*
X97875000Y-84794000D02*
X97663000Y-84582000D01*
X101092000Y-84794000D02*
X100415000Y-84794000D01*
X100415000Y-84794000D02*
X100203000Y-84582000D01*
X103632000Y-84794000D02*
X102955000Y-84794000D01*
X102955000Y-84794000D02*
X102743000Y-84582000D01*
X105495000Y-84794000D02*
X105283000Y-84582000D01*
X106172000Y-84794000D02*
X105495000Y-84794000D01*
X108712000Y-84794000D02*
X108035000Y-84794000D01*
X108035000Y-84794000D02*
X107823000Y-84582000D01*
X111252000Y-84794000D02*
X110575000Y-84794000D01*
X110575000Y-84794000D02*
X110363000Y-84582000D01*
X113792000Y-84794000D02*
X113115000Y-84794000D01*
X113115000Y-84794000D02*
X112903000Y-84582000D01*
X116332000Y-84794000D02*
X115655000Y-84794000D01*
X115655000Y-84794000D02*
X115443000Y-84582000D01*
X118195000Y-84794000D02*
X117983000Y-84582000D01*
X118872000Y-84794000D02*
X118195000Y-84794000D01*
X121412000Y-84794000D02*
X120735000Y-84794000D01*
X120735000Y-84794000D02*
X120523000Y-84582000D01*
X123952000Y-84794000D02*
X123275000Y-84794000D01*
X123275000Y-84794000D02*
X123063000Y-84582000D01*
X126492000Y-84794000D02*
X125815000Y-84794000D01*
X125815000Y-84794000D02*
X125603000Y-84582000D01*
X129032000Y-84794000D02*
X128355000Y-84794000D01*
X128355000Y-84794000D02*
X128143000Y-84582000D01*
X130683000Y-84582000D02*
X131360000Y-84582000D01*
X131360000Y-84582000D02*
X131572000Y-84794000D01*
X95885000Y-83185000D02*
X95758000Y-83058000D01*
X133223000Y-84582000D02*
X133900000Y-84582000D01*
X133900000Y-84582000D02*
X134112000Y-84794000D01*
X90297000Y-71586000D02*
X95885000Y-77174000D01*
X95885000Y-77174000D02*
X95885000Y-83185000D01*
%TO.N,Net-(D122-DOUT)*%
X90678000Y-70866000D02*
X90118992Y-70866000D01*
X89759500Y-71225492D02*
X89759500Y-72148500D01*
X89759500Y-72148500D02*
X90297000Y-72686000D01*
X90118992Y-70866000D02*
X89759500Y-71225492D01*
X90678000Y-70993000D02*
X90678000Y-70866000D01*
X92202000Y-70993000D02*
X90678000Y-70993000D01*
X95123000Y-68072000D02*
X92202000Y-70993000D01*
%TO.N,Net-(D100-VDD)*%
X88519000Y-72686000D02*
X88477000Y-72686000D01*
X88477000Y-72686000D02*
X87884000Y-73279000D01*
%TO.N,Net-(D121-DOUT)*%
X133773000Y-85894000D02*
X133223000Y-85344000D01*
X134112000Y-85894000D02*
X133773000Y-85894000D01*
%TO.N,Net-(D100-VSS)*%
X130556000Y-83362800D02*
X130683000Y-83235800D01*
%TO.N,Net-(D120-DOUT)*%
X131572000Y-85894000D02*
X131572000Y-85828703D01*
X132334000Y-85066703D02*
X132334000Y-84794000D01*
X131572000Y-85828703D02*
X132334000Y-85066703D01*
%TO.N,Net-(D119-DOUT)*%
X129032000Y-85894000D02*
X129032000Y-85621297D01*
X129794000Y-84859297D02*
X129794000Y-84794000D01*
X129032000Y-85621297D02*
X129794000Y-84859297D01*
%TO.N,Net-(D118-DOUT)*%
X126492000Y-85894000D02*
X126492000Y-85828703D01*
X126492000Y-85828703D02*
X127254000Y-85066703D01*
X127254000Y-85066703D02*
X127254000Y-84794000D01*
%TO.N,Net-(D117-DOUT)*%
X123952000Y-85894000D02*
X123952000Y-85621297D01*
X124714000Y-84859297D02*
X124714000Y-84794000D01*
X123952000Y-85621297D02*
X124714000Y-84859297D01*
%TO.N,Net-(D116-DOUT)*%
X121412000Y-85894000D02*
X121412000Y-85621297D01*
X121412000Y-85621297D02*
X122174000Y-84859297D01*
X122174000Y-84859297D02*
X122174000Y-84794000D01*
%TO.N,Net-(D115-DOUT)*%
X118872000Y-85894000D02*
X118872000Y-85621297D01*
X118872000Y-85621297D02*
X119634000Y-84859297D01*
X119634000Y-84859297D02*
X119634000Y-84794000D01*
%TO.N,Net-(D114-DOUT)*%
X116332000Y-85894000D02*
X116332000Y-85828703D01*
X116332000Y-85828703D02*
X117094000Y-85066703D01*
X117094000Y-85066703D02*
X117094000Y-84794000D01*
%TO.N,Net-(D113-DOUT)*%
X113792000Y-85894000D02*
X113792000Y-85621297D01*
X113792000Y-85621297D02*
X114554000Y-84859297D01*
X114554000Y-84859297D02*
X114554000Y-84794000D01*
%TO.N,Net-(D112-DOUT)*%
X111252000Y-85894000D02*
X111252000Y-85621297D01*
X111252000Y-85621297D02*
X112014000Y-84859297D01*
X112014000Y-84859297D02*
X112014000Y-84794000D01*
%TO.N,Net-(D111-DOUT)*%
X108712000Y-85894000D02*
X108712000Y-85621297D01*
X108712000Y-85621297D02*
X109474000Y-84859297D01*
X109474000Y-84859297D02*
X109474000Y-84794000D01*
%TO.N,Net-(D110-DOUT)*%
X106172000Y-85894000D02*
X106172000Y-85621297D01*
X106172000Y-85621297D02*
X106934000Y-84859297D01*
X106934000Y-84859297D02*
X106934000Y-84794000D01*
%TO.N,Net-(D109-DOUT)*%
X103632000Y-85894000D02*
X103632000Y-85828703D01*
X104394000Y-85066703D02*
X104394000Y-84794000D01*
X103632000Y-85828703D02*
X104394000Y-85066703D01*
%TO.N,Net-(D108-DOUT)*%
X101092000Y-85894000D02*
X101092000Y-85828703D01*
X101854000Y-85066703D02*
X101854000Y-84794000D01*
X101092000Y-85828703D02*
X101854000Y-85066703D01*
%TO.N,Net-(D107-DOUT)*%
X99314000Y-84794000D02*
X99314000Y-84859297D01*
X99314000Y-84859297D02*
X98552000Y-85621297D01*
X98552000Y-85621297D02*
X98552000Y-85894000D01*
%TO.N,Net-(D100-VSS)*%
X98552000Y-84728703D02*
X98552000Y-84794000D01*
%TO.N,Net-(D100-VDD)*%
X96774000Y-85894000D02*
X97311500Y-86431500D01*
X132334000Y-85959297D02*
X132334000Y-85894000D01*
X131861797Y-86431500D02*
X132334000Y-85959297D01*
%TO.N,Net-(D100-VSS)*%
X101854000Y-64050000D02*
X101854000Y-64587500D01*
X104394000Y-64050000D02*
X104394000Y-64587500D01*
X106934000Y-64050000D02*
X106934000Y-64587500D01*
X109474000Y-64050000D02*
X109474000Y-64587500D01*
X112014000Y-64050000D02*
X112014000Y-64587500D01*
X114554000Y-64050000D02*
X114554000Y-64587500D01*
X117094000Y-64050000D02*
X117094000Y-64587500D01*
X119634000Y-64050000D02*
X119634000Y-64587500D01*
X122174000Y-64050000D02*
X122174000Y-64587500D01*
X124714000Y-64050000D02*
X124714000Y-64587500D01*
X127254000Y-64050000D02*
X127254000Y-64587500D01*
X129794000Y-64050000D02*
X129794000Y-64587500D01*
X129794000Y-64587500D02*
X131861797Y-64587500D01*
X132334000Y-64115297D02*
X132334000Y-64050000D01*
%TO.N,Net-(D105-DOUT)*%
X99314000Y-62950000D02*
X99314000Y-63015297D01*
X99314000Y-63015297D02*
X98552000Y-63777297D01*
X98552000Y-63777297D02*
X98552000Y-64050000D01*
%TO.N,Net-(D104-DOUT)*%
X101854000Y-62950000D02*
X101854000Y-63015297D01*
X101854000Y-63015297D02*
X101092000Y-63777297D01*
X101092000Y-63777297D02*
X101092000Y-64050000D01*
%TO.N,Net-(D103-DOUT)*%
X104394000Y-62950000D02*
X104394000Y-63015297D01*
X104394000Y-63015297D02*
X103632000Y-63777297D01*
X103632000Y-63777297D02*
X103632000Y-64050000D01*
%TO.N,Net-(D102-DOUT)*%
X106934000Y-62950000D02*
X106934000Y-63015297D01*
X106934000Y-63015297D02*
X106172000Y-63777297D01*
X106172000Y-63777297D02*
X106172000Y-64050000D01*
%TO.N,Net-(D101-DOUT)*%
X109474000Y-62950000D02*
X109474000Y-63015297D01*
X109474000Y-63015297D02*
X108712000Y-63777297D01*
X108712000Y-63777297D02*
X108712000Y-64050000D01*
%TO.N,Net-(D100-DOUT)*%
X112014000Y-62950000D02*
X112014000Y-63015297D01*
X112014000Y-63015297D02*
X111252000Y-63777297D01*
X111252000Y-63777297D02*
X111252000Y-64050000D01*
%TO.N,Net-(D100-DIN)*%
X114554000Y-62950000D02*
X114554000Y-63015297D01*
X114554000Y-63015297D02*
X113792000Y-63777297D01*
X113792000Y-63777297D02*
X113792000Y-64050000D01*
%TO.N,Net-(D98-DOUT)*%
X117094000Y-62950000D02*
X117094000Y-63222703D01*
X117094000Y-63222703D02*
X116332000Y-63984703D01*
X116332000Y-63984703D02*
X116332000Y-64050000D01*
%TO.N,Net-(D97-DOUT)*%
X119634000Y-62950000D02*
X119634000Y-63015297D01*
X119634000Y-63015297D02*
X118872000Y-63777297D01*
X118872000Y-63777297D02*
X118872000Y-64050000D01*
%TO.N,Net-(D96-DOUT)*%
X122174000Y-62950000D02*
X122174000Y-63222703D01*
X122174000Y-63222703D02*
X121412000Y-63984703D01*
X121412000Y-63984703D02*
X121412000Y-64050000D01*
%TO.N,Net-(D95-DOUT)*%
X124714000Y-62950000D02*
X124714000Y-63015297D01*
X124714000Y-63015297D02*
X123952000Y-63777297D01*
X123952000Y-63777297D02*
X123952000Y-64050000D01*
%TO.N,Net-(D94-DOUT)*%
X127254000Y-62950000D02*
X127254000Y-63222703D01*
X127254000Y-63222703D02*
X126492000Y-63984703D01*
X126492000Y-63984703D02*
X126492000Y-64050000D01*
%TO.N,Net-(D93-DOUT)*%
X129794000Y-62950000D02*
X129794000Y-63015297D01*
X129032000Y-63777297D02*
X129032000Y-64050000D01*
X129794000Y-63015297D02*
X129032000Y-63777297D01*
%TO.N,Net-(D92-DOUT)*%
X132334000Y-62950000D02*
X132334000Y-63222703D01*
X132334000Y-63222703D02*
X131572000Y-63984703D01*
X131572000Y-63984703D02*
X131572000Y-64050000D01*
D15*
%TO.N,Net-(D92-DIN)*%
X135763000Y-63500000D02*
X134662000Y-63500000D01*
X134662000Y-63500000D02*
X134112000Y-64050000D01*
%TO.N,Net-(D100-VDD)*%
X95123000Y-63652400D02*
X95123000Y-63579249D01*
%TD*%
%TA.AperFunction,Conductor*%
%TO.N,Net-(D100-VDD)*%
G36*
X136071722Y-62043167D02*
G01*
X136161120Y-62054937D01*
X136177116Y-62057043D01*
X136208383Y-62065421D01*
X136298808Y-62102876D01*
X136326843Y-62119061D01*
X136411182Y-62183777D01*
X136417280Y-62189124D01*
X136632016Y-62403860D01*
X136637360Y-62409954D01*
X136702074Y-62494292D01*
X136718259Y-62522325D01*
X136755715Y-62612752D01*
X136764093Y-62644019D01*
X136777122Y-62742979D01*
X136766357Y-62812014D01*
X136719977Y-62864270D01*
X136652708Y-62883156D01*
X136585908Y-62862676D01*
X136556919Y-62836079D01*
X136554658Y-62833220D01*
X136429778Y-62708340D01*
X136429774Y-62708337D01*
X136279470Y-62615627D01*
X136279464Y-62615624D01*
X136279462Y-62615623D01*
X136270798Y-62612752D01*
X136111816Y-62560071D01*
X136008349Y-62549500D01*
X136008342Y-62549500D01*
X135517658Y-62549500D01*
X135517650Y-62549500D01*
X135414183Y-62560071D01*
X135246540Y-62615622D01*
X135246529Y-62615627D01*
X135096225Y-62708337D01*
X135096221Y-62708340D01*
X134971340Y-62833221D01*
X134971337Y-62833225D01*
X134878622Y-62983537D01*
X134878621Y-62983539D01*
X134876647Y-62989500D01*
X134836877Y-63046946D01*
X134772362Y-63073771D01*
X134758940Y-63074500D01*
X134594604Y-63074500D01*
X134571639Y-63081962D01*
X134552722Y-63086503D01*
X134528873Y-63090280D01*
X134507358Y-63101243D01*
X134489386Y-63108688D01*
X134466418Y-63116151D01*
X134466413Y-63116153D01*
X134446881Y-63130344D01*
X134430301Y-63140505D01*
X134408781Y-63151471D01*
X134408775Y-63151475D01*
X134348605Y-63211640D01*
X134348486Y-63211766D01*
X134197069Y-63363182D01*
X134135748Y-63396666D01*
X134109390Y-63399500D01*
X133907730Y-63399500D01*
X133877300Y-63402353D01*
X133877298Y-63402353D01*
X133749119Y-63447206D01*
X133749117Y-63447207D01*
X133639850Y-63527850D01*
X133559207Y-63637117D01*
X133559206Y-63637119D01*
X133514353Y-63765298D01*
X133514353Y-63765300D01*
X133511500Y-63795730D01*
X133511500Y-64304269D01*
X133514353Y-64334699D01*
X133514353Y-64334701D01*
X133551175Y-64439928D01*
X133559207Y-64462882D01*
X133639850Y-64572150D01*
X133749118Y-64652793D01*
X133756738Y-64655459D01*
X133813514Y-64696181D01*
X133839260Y-64761134D01*
X133825803Y-64829696D01*
X133777415Y-64880098D01*
X133715782Y-64896500D01*
X132831871Y-64896500D01*
X132764832Y-64876815D01*
X132719077Y-64824011D01*
X132709133Y-64754853D01*
X132709397Y-64753104D01*
X132721094Y-64679248D01*
X132751022Y-64616117D01*
X132769933Y-64598877D01*
X132792461Y-64582253D01*
X132806149Y-64572151D01*
X132806150Y-64572150D01*
X132886793Y-64462882D01*
X132914265Y-64384372D01*
X132931646Y-64334701D01*
X132931646Y-64334699D01*
X132934500Y-64304269D01*
X132934500Y-63795730D01*
X132931646Y-63765300D01*
X132931646Y-63765298D01*
X132886793Y-63637119D01*
X132886792Y-63637117D01*
X132886789Y-63637113D01*
X132839938Y-63573631D01*
X132815968Y-63508005D01*
X132831283Y-63439835D01*
X132839932Y-63426375D01*
X132886793Y-63362882D01*
X132922072Y-63262060D01*
X132931646Y-63234701D01*
X132931646Y-63234699D01*
X132934500Y-63204269D01*
X132934500Y-62695730D01*
X132931646Y-62665300D01*
X132931646Y-62665298D01*
X132896886Y-62565962D01*
X132886793Y-62537118D01*
X132806150Y-62427850D01*
X132696882Y-62347207D01*
X132696880Y-62347206D01*
X132568700Y-62302353D01*
X132538270Y-62299500D01*
X132538266Y-62299500D01*
X132129734Y-62299500D01*
X132129730Y-62299500D01*
X132099300Y-62302353D01*
X132099298Y-62302353D01*
X131971119Y-62347206D01*
X131971117Y-62347207D01*
X131861850Y-62427850D01*
X131781207Y-62537117D01*
X131781206Y-62537119D01*
X131736353Y-62665298D01*
X131736353Y-62665300D01*
X131733500Y-62695730D01*
X131733500Y-63204265D01*
X131734078Y-63210432D01*
X131720736Y-63279016D01*
X131698302Y-63309684D01*
X131644808Y-63363180D01*
X131583485Y-63396666D01*
X131557125Y-63399500D01*
X131367730Y-63399500D01*
X131337300Y-63402353D01*
X131337298Y-63402353D01*
X131209119Y-63447206D01*
X131209117Y-63447207D01*
X131099850Y-63527850D01*
X131019207Y-63637117D01*
X131019206Y-63637119D01*
X130974353Y-63765298D01*
X130974353Y-63765300D01*
X130971500Y-63795730D01*
X130971500Y-64075500D01*
X130951815Y-64142539D01*
X130899011Y-64188294D01*
X130847500Y-64199500D01*
X130518500Y-64199500D01*
X130451461Y-64179815D01*
X130405706Y-64127011D01*
X130394500Y-64075500D01*
X130394500Y-63795730D01*
X130391646Y-63765300D01*
X130391646Y-63765298D01*
X130346793Y-63637119D01*
X130346792Y-63637117D01*
X130346789Y-63637113D01*
X130299938Y-63573631D01*
X130275968Y-63508005D01*
X130291283Y-63439835D01*
X130299932Y-63426375D01*
X130346793Y-63362882D01*
X130382072Y-63262060D01*
X130391646Y-63234701D01*
X130391646Y-63234699D01*
X130394500Y-63204269D01*
X130394500Y-62695730D01*
X130391646Y-62665300D01*
X130391646Y-62665298D01*
X130356886Y-62565962D01*
X130346793Y-62537118D01*
X130266150Y-62427850D01*
X130156882Y-62347207D01*
X130156880Y-62347206D01*
X130028700Y-62302353D01*
X129998270Y-62299500D01*
X129998266Y-62299500D01*
X129589734Y-62299500D01*
X129589730Y-62299500D01*
X129559300Y-62302353D01*
X129559298Y-62302353D01*
X129431119Y-62347206D01*
X129431117Y-62347207D01*
X129321850Y-62427850D01*
X129241207Y-62537117D01*
X129241206Y-62537119D01*
X129196353Y-62665298D01*
X129196353Y-62665300D01*
X129193500Y-62695730D01*
X129193500Y-63015720D01*
X129173815Y-63082759D01*
X129157181Y-63103401D01*
X128896137Y-63364444D01*
X128834814Y-63397929D01*
X128820036Y-63400221D01*
X128797300Y-63402353D01*
X128797298Y-63402353D01*
X128669119Y-63447206D01*
X128669117Y-63447207D01*
X128559850Y-63527850D01*
X128479207Y-63637117D01*
X128479206Y-63637119D01*
X128434353Y-63765298D01*
X128434353Y-63765300D01*
X128431499Y-63795730D01*
X128431500Y-64131000D01*
X128411815Y-64198039D01*
X128359011Y-64243794D01*
X128307500Y-64255000D01*
X127978500Y-64255000D01*
X127911461Y-64235315D01*
X127865706Y-64182511D01*
X127854500Y-64131000D01*
X127854500Y-63795730D01*
X127851646Y-63765300D01*
X127851646Y-63765298D01*
X127806793Y-63637119D01*
X127806792Y-63637117D01*
X127806789Y-63637113D01*
X127759938Y-63573631D01*
X127735968Y-63508005D01*
X127751283Y-63439835D01*
X127759932Y-63426375D01*
X127806793Y-63362882D01*
X127842072Y-63262060D01*
X127851646Y-63234701D01*
X127851646Y-63234699D01*
X127854500Y-63204269D01*
X127854500Y-62695730D01*
X127851646Y-62665300D01*
X127851646Y-62665298D01*
X127816886Y-62565962D01*
X127806793Y-62537118D01*
X127726150Y-62427850D01*
X127616882Y-62347207D01*
X127616880Y-62347206D01*
X127488700Y-62302353D01*
X127458270Y-62299500D01*
X127458266Y-62299500D01*
X127049734Y-62299500D01*
X127049730Y-62299500D01*
X127019300Y-62302353D01*
X127019298Y-62302353D01*
X126891119Y-62347206D01*
X126891117Y-62347207D01*
X126781850Y-62427850D01*
X126701207Y-62537117D01*
X126701206Y-62537119D01*
X126656353Y-62665298D01*
X126656353Y-62665300D01*
X126653500Y-62695730D01*
X126653500Y-63204265D01*
X126654078Y-63210432D01*
X126640736Y-63279016D01*
X126618302Y-63309684D01*
X126564808Y-63363180D01*
X126503485Y-63396666D01*
X126477125Y-63399500D01*
X126287730Y-63399500D01*
X126257300Y-63402353D01*
X126257298Y-63402353D01*
X126129119Y-63447206D01*
X126129117Y-63447207D01*
X126019850Y-63527850D01*
X125939207Y-63637117D01*
X125939206Y-63637119D01*
X125894353Y-63765298D01*
X125894353Y-63765300D01*
X125891499Y-63795730D01*
X125891500Y-64131000D01*
X125871815Y-64198039D01*
X125819011Y-64243794D01*
X125767500Y-64255000D01*
X125438500Y-64255000D01*
X125371461Y-64235315D01*
X125325706Y-64182511D01*
X125314500Y-64131000D01*
X125314500Y-63795730D01*
X125311646Y-63765300D01*
X125311646Y-63765298D01*
X125266793Y-63637119D01*
X125266792Y-63637117D01*
X125266789Y-63637113D01*
X125219938Y-63573631D01*
X125195968Y-63508005D01*
X125211283Y-63439835D01*
X125219932Y-63426375D01*
X125266793Y-63362882D01*
X125302072Y-63262060D01*
X125311646Y-63234701D01*
X125311646Y-63234699D01*
X125314500Y-63204269D01*
X125314500Y-62695730D01*
X125311646Y-62665300D01*
X125311646Y-62665298D01*
X125276886Y-62565962D01*
X125266793Y-62537118D01*
X125186150Y-62427850D01*
X125076882Y-62347207D01*
X125076880Y-62347206D01*
X124948700Y-62302353D01*
X124918270Y-62299500D01*
X124918266Y-62299500D01*
X124509734Y-62299500D01*
X124509730Y-62299500D01*
X124479300Y-62302353D01*
X124479298Y-62302353D01*
X124351119Y-62347206D01*
X124351117Y-62347207D01*
X124241850Y-62427850D01*
X124161207Y-62537117D01*
X124161206Y-62537119D01*
X124116353Y-62665298D01*
X124116353Y-62665300D01*
X124113500Y-62695730D01*
X124113500Y-63015719D01*
X124093815Y-63082758D01*
X124077181Y-63103400D01*
X123816137Y-63364444D01*
X123754814Y-63397929D01*
X123740036Y-63400221D01*
X123717300Y-63402353D01*
X123717298Y-63402353D01*
X123589119Y-63447206D01*
X123589117Y-63447207D01*
X123479850Y-63527850D01*
X123399207Y-63637117D01*
X123399206Y-63637119D01*
X123354353Y-63765298D01*
X123354353Y-63765300D01*
X123351499Y-63795730D01*
X123351500Y-64131000D01*
X123331815Y-64198039D01*
X123279011Y-64243794D01*
X123227500Y-64255000D01*
X122898500Y-64255000D01*
X122831461Y-64235315D01*
X122785706Y-64182511D01*
X122774500Y-64131000D01*
X122774500Y-63795730D01*
X122771646Y-63765300D01*
X122771646Y-63765298D01*
X122726793Y-63637119D01*
X122726792Y-63637117D01*
X122726789Y-63637113D01*
X122679938Y-63573631D01*
X122655968Y-63508005D01*
X122671283Y-63439835D01*
X122679932Y-63426375D01*
X122726793Y-63362882D01*
X122762072Y-63262060D01*
X122771646Y-63234701D01*
X122771646Y-63234699D01*
X122774500Y-63204269D01*
X122774500Y-62695730D01*
X122771646Y-62665300D01*
X122771646Y-62665298D01*
X122736886Y-62565962D01*
X122726793Y-62537118D01*
X122646150Y-62427850D01*
X122536882Y-62347207D01*
X122536880Y-62347206D01*
X122408700Y-62302353D01*
X122378270Y-62299500D01*
X122378266Y-62299500D01*
X121969734Y-62299500D01*
X121969730Y-62299500D01*
X121939300Y-62302353D01*
X121939298Y-62302353D01*
X121811119Y-62347206D01*
X121811117Y-62347207D01*
X121701850Y-62427850D01*
X121621207Y-62537117D01*
X121621206Y-62537119D01*
X121576353Y-62665298D01*
X121576353Y-62665300D01*
X121573500Y-62695730D01*
X121573500Y-63204265D01*
X121574078Y-63210432D01*
X121560736Y-63279016D01*
X121538302Y-63309684D01*
X121484808Y-63363180D01*
X121423485Y-63396666D01*
X121397125Y-63399500D01*
X121207730Y-63399500D01*
X121177300Y-63402353D01*
X121177298Y-63402353D01*
X121049119Y-63447206D01*
X121049117Y-63447207D01*
X120939850Y-63527850D01*
X120859207Y-63637117D01*
X120859206Y-63637119D01*
X120814353Y-63765298D01*
X120814353Y-63765300D01*
X120811499Y-63795730D01*
X120811500Y-64131000D01*
X120791815Y-64198039D01*
X120739011Y-64243794D01*
X120687500Y-64255000D01*
X120358500Y-64255000D01*
X120291461Y-64235315D01*
X120245706Y-64182511D01*
X120234500Y-64131000D01*
X120234500Y-63795730D01*
X120231646Y-63765300D01*
X120231646Y-63765298D01*
X120186793Y-63637119D01*
X120186792Y-63637117D01*
X120186789Y-63637113D01*
X120139938Y-63573631D01*
X120115968Y-63508005D01*
X120131283Y-63439835D01*
X120139932Y-63426375D01*
X120186793Y-63362882D01*
X120222072Y-63262060D01*
X120231646Y-63234701D01*
X120231646Y-63234699D01*
X120234500Y-63204269D01*
X120234500Y-62695730D01*
X120231646Y-62665300D01*
X120231646Y-62665298D01*
X120196886Y-62565962D01*
X120186793Y-62537118D01*
X120106150Y-62427850D01*
X119996882Y-62347207D01*
X119996880Y-62347206D01*
X119868700Y-62302353D01*
X119838270Y-62299500D01*
X119838266Y-62299500D01*
X119429734Y-62299500D01*
X119429730Y-62299500D01*
X119399300Y-62302353D01*
X119399298Y-62302353D01*
X119271119Y-62347206D01*
X119271117Y-62347207D01*
X119161850Y-62427850D01*
X119081207Y-62537117D01*
X119081206Y-62537119D01*
X119036353Y-62665298D01*
X119036353Y-62665300D01*
X119033500Y-62695730D01*
X119033500Y-63015719D01*
X119013815Y-63082758D01*
X118997181Y-63103400D01*
X118736137Y-63364444D01*
X118674814Y-63397929D01*
X118660036Y-63400221D01*
X118637300Y-63402353D01*
X118637298Y-63402353D01*
X118509119Y-63447206D01*
X118509117Y-63447207D01*
X118399850Y-63527850D01*
X118319207Y-63637117D01*
X118319206Y-63637119D01*
X118274353Y-63765298D01*
X118274353Y-63765300D01*
X118271499Y-63795730D01*
X118271500Y-64131000D01*
X118251815Y-64198039D01*
X118199011Y-64243794D01*
X118147500Y-64255000D01*
X117818500Y-64255000D01*
X117751461Y-64235315D01*
X117705706Y-64182511D01*
X117694500Y-64131000D01*
X117694500Y-63795730D01*
X117691646Y-63765300D01*
X117691646Y-63765298D01*
X117646793Y-63637119D01*
X117646790Y-63637113D01*
X117599939Y-63573632D01*
X117575968Y-63508003D01*
X117591284Y-63439833D01*
X117599930Y-63426378D01*
X117646793Y-63362882D01*
X117682072Y-63262060D01*
X117691646Y-63234701D01*
X117691646Y-63234699D01*
X117694500Y-63204269D01*
X117694500Y-62695730D01*
X117691646Y-62665300D01*
X117691646Y-62665298D01*
X117656886Y-62565962D01*
X117646793Y-62537118D01*
X117566150Y-62427850D01*
X117456882Y-62347207D01*
X117456880Y-62347206D01*
X117328700Y-62302353D01*
X117298270Y-62299500D01*
X117298266Y-62299500D01*
X116889734Y-62299500D01*
X116889730Y-62299500D01*
X116859300Y-62302353D01*
X116859298Y-62302353D01*
X116731119Y-62347206D01*
X116731117Y-62347207D01*
X116621850Y-62427850D01*
X116541207Y-62537117D01*
X116541206Y-62537119D01*
X116496353Y-62665298D01*
X116496353Y-62665300D01*
X116493500Y-62695730D01*
X116493500Y-63204265D01*
X116494078Y-63210432D01*
X116480736Y-63279016D01*
X116458302Y-63309684D01*
X116404808Y-63363180D01*
X116343485Y-63396666D01*
X116317125Y-63399500D01*
X116127730Y-63399500D01*
X116097300Y-63402353D01*
X116097298Y-63402353D01*
X115969119Y-63447206D01*
X115969117Y-63447207D01*
X115859850Y-63527850D01*
X115779207Y-63637117D01*
X115779206Y-63637119D01*
X115734353Y-63765298D01*
X115734353Y-63765300D01*
X115731499Y-63795730D01*
X115731500Y-64131000D01*
X115711815Y-64198039D01*
X115659011Y-64243794D01*
X115607500Y-64255000D01*
X115278500Y-64255000D01*
X115211461Y-64235315D01*
X115165706Y-64182511D01*
X115154500Y-64131000D01*
X115154500Y-63795730D01*
X115151646Y-63765300D01*
X115151646Y-63765298D01*
X115106793Y-63637119D01*
X115106792Y-63637117D01*
X115106789Y-63637113D01*
X115059938Y-63573631D01*
X115035968Y-63508005D01*
X115051283Y-63439835D01*
X115059932Y-63426375D01*
X115106793Y-63362882D01*
X115142072Y-63262060D01*
X115151646Y-63234701D01*
X115151646Y-63234699D01*
X115154500Y-63204269D01*
X115154500Y-62695730D01*
X115151646Y-62665300D01*
X115151646Y-62665298D01*
X115116886Y-62565962D01*
X115106793Y-62537118D01*
X115026150Y-62427850D01*
X114916882Y-62347207D01*
X114916880Y-62347206D01*
X114788700Y-62302353D01*
X114758270Y-62299500D01*
X114758266Y-62299500D01*
X114349734Y-62299500D01*
X114349730Y-62299500D01*
X114319300Y-62302353D01*
X114319298Y-62302353D01*
X114191119Y-62347206D01*
X114191117Y-62347207D01*
X114081850Y-62427850D01*
X114001207Y-62537117D01*
X114001206Y-62537119D01*
X113956353Y-62665298D01*
X113956353Y-62665300D01*
X113953500Y-62695730D01*
X113953500Y-63015719D01*
X113933815Y-63082758D01*
X113917181Y-63103400D01*
X113656137Y-63364444D01*
X113594814Y-63397929D01*
X113580036Y-63400221D01*
X113557300Y-63402353D01*
X113557298Y-63402353D01*
X113429119Y-63447206D01*
X113429117Y-63447207D01*
X113319850Y-63527850D01*
X113239207Y-63637117D01*
X113239206Y-63637119D01*
X113194353Y-63765298D01*
X113194353Y-63765300D01*
X113191499Y-63795730D01*
X113191500Y-64131000D01*
X113171815Y-64198039D01*
X113119011Y-64243794D01*
X113067500Y-64255000D01*
X112738500Y-64255000D01*
X112671461Y-64235315D01*
X112625706Y-64182511D01*
X112614500Y-64131000D01*
X112614500Y-63795730D01*
X112611646Y-63765300D01*
X112611646Y-63765298D01*
X112566793Y-63637119D01*
X112566792Y-63637117D01*
X112566789Y-63637113D01*
X112519938Y-63573631D01*
X112495968Y-63508005D01*
X112511283Y-63439835D01*
X112519932Y-63426375D01*
X112566793Y-63362882D01*
X112602072Y-63262060D01*
X112611646Y-63234701D01*
X112611646Y-63234699D01*
X112614500Y-63204269D01*
X112614500Y-62695730D01*
X112611646Y-62665300D01*
X112611646Y-62665298D01*
X112576886Y-62565962D01*
X112566793Y-62537118D01*
X112486150Y-62427850D01*
X112376882Y-62347207D01*
X112376880Y-62347206D01*
X112248700Y-62302353D01*
X112218270Y-62299500D01*
X112218266Y-62299500D01*
X111809734Y-62299500D01*
X111809730Y-62299500D01*
X111779300Y-62302353D01*
X111779298Y-62302353D01*
X111651119Y-62347206D01*
X111651117Y-62347207D01*
X111541850Y-62427850D01*
X111461207Y-62537117D01*
X111461206Y-62537119D01*
X111416353Y-62665298D01*
X111416353Y-62665300D01*
X111413500Y-62695730D01*
X111413500Y-63015719D01*
X111393815Y-63082758D01*
X111377181Y-63103400D01*
X111116137Y-63364444D01*
X111054814Y-63397929D01*
X111040036Y-63400221D01*
X111017300Y-63402353D01*
X111017298Y-63402353D01*
X110889119Y-63447206D01*
X110889117Y-63447207D01*
X110779850Y-63527850D01*
X110699207Y-63637117D01*
X110699206Y-63637119D01*
X110654353Y-63765298D01*
X110654353Y-63765300D01*
X110651500Y-63795730D01*
X110651500Y-64131000D01*
X110631815Y-64198039D01*
X110579011Y-64243794D01*
X110527500Y-64255000D01*
X110198500Y-64255000D01*
X110131461Y-64235315D01*
X110085706Y-64182511D01*
X110074500Y-64131000D01*
X110074500Y-63795730D01*
X110071646Y-63765300D01*
X110071646Y-63765298D01*
X110026793Y-63637119D01*
X110026792Y-63637117D01*
X110026789Y-63637113D01*
X109979938Y-63573631D01*
X109955968Y-63508005D01*
X109971283Y-63439835D01*
X109979932Y-63426375D01*
X110026793Y-63362882D01*
X110062072Y-63262060D01*
X110071646Y-63234701D01*
X110071646Y-63234699D01*
X110074500Y-63204269D01*
X110074500Y-62695730D01*
X110071646Y-62665300D01*
X110071646Y-62665298D01*
X110036886Y-62565962D01*
X110026793Y-62537118D01*
X109946150Y-62427850D01*
X109836882Y-62347207D01*
X109836880Y-62347206D01*
X109708700Y-62302353D01*
X109678270Y-62299500D01*
X109678266Y-62299500D01*
X109269734Y-62299500D01*
X109269730Y-62299500D01*
X109239300Y-62302353D01*
X109239298Y-62302353D01*
X109111119Y-62347206D01*
X109111117Y-62347207D01*
X109001850Y-62427850D01*
X108921207Y-62537117D01*
X108921206Y-62537119D01*
X108876353Y-62665298D01*
X108876353Y-62665300D01*
X108873500Y-62695730D01*
X108873500Y-63015720D01*
X108853815Y-63082759D01*
X108837181Y-63103401D01*
X108576137Y-63364444D01*
X108514814Y-63397929D01*
X108500036Y-63400221D01*
X108477300Y-63402353D01*
X108477298Y-63402353D01*
X108349119Y-63447206D01*
X108349117Y-63447207D01*
X108239850Y-63527850D01*
X108159207Y-63637117D01*
X108159206Y-63637119D01*
X108114353Y-63765298D01*
X108114353Y-63765300D01*
X108111500Y-63795730D01*
X108111500Y-64131000D01*
X108091815Y-64198039D01*
X108039011Y-64243794D01*
X107987500Y-64255000D01*
X107658500Y-64255000D01*
X107591461Y-64235315D01*
X107545706Y-64182511D01*
X107534500Y-64131000D01*
X107534500Y-63795730D01*
X107531646Y-63765300D01*
X107531646Y-63765298D01*
X107486793Y-63637119D01*
X107486792Y-63637117D01*
X107486789Y-63637113D01*
X107439938Y-63573631D01*
X107415968Y-63508005D01*
X107431283Y-63439835D01*
X107439932Y-63426375D01*
X107486793Y-63362882D01*
X107522072Y-63262060D01*
X107531646Y-63234701D01*
X107531646Y-63234699D01*
X107534500Y-63204269D01*
X107534500Y-62695730D01*
X107531646Y-62665300D01*
X107531646Y-62665298D01*
X107496886Y-62565962D01*
X107486793Y-62537118D01*
X107406150Y-62427850D01*
X107296882Y-62347207D01*
X107296880Y-62347206D01*
X107168700Y-62302353D01*
X107138270Y-62299500D01*
X107138266Y-62299500D01*
X106729734Y-62299500D01*
X106729730Y-62299500D01*
X106699300Y-62302353D01*
X106699298Y-62302353D01*
X106571119Y-62347206D01*
X106571117Y-62347207D01*
X106461850Y-62427850D01*
X106381207Y-62537117D01*
X106381206Y-62537119D01*
X106336353Y-62665298D01*
X106336353Y-62665300D01*
X106333500Y-62695730D01*
X106333500Y-63015719D01*
X106313815Y-63082758D01*
X106297181Y-63103400D01*
X106036137Y-63364444D01*
X105974814Y-63397929D01*
X105960036Y-63400221D01*
X105937300Y-63402353D01*
X105937298Y-63402353D01*
X105809119Y-63447206D01*
X105809117Y-63447207D01*
X105699850Y-63527850D01*
X105619207Y-63637117D01*
X105619206Y-63637119D01*
X105574353Y-63765298D01*
X105574353Y-63765300D01*
X105571500Y-63795730D01*
X105571500Y-64131000D01*
X105551815Y-64198039D01*
X105499011Y-64243794D01*
X105447500Y-64255000D01*
X105118500Y-64255000D01*
X105051461Y-64235315D01*
X105005706Y-64182511D01*
X104994500Y-64131000D01*
X104994500Y-63795730D01*
X104991646Y-63765300D01*
X104991646Y-63765298D01*
X104946793Y-63637119D01*
X104946792Y-63637117D01*
X104946789Y-63637113D01*
X104899938Y-63573631D01*
X104875968Y-63508005D01*
X104891283Y-63439835D01*
X104899932Y-63426375D01*
X104946793Y-63362882D01*
X104982072Y-63262060D01*
X104991646Y-63234701D01*
X104991646Y-63234699D01*
X104994500Y-63204269D01*
X104994500Y-62695730D01*
X104991646Y-62665300D01*
X104991646Y-62665298D01*
X104956886Y-62565962D01*
X104946793Y-62537118D01*
X104866150Y-62427850D01*
X104756882Y-62347207D01*
X104756880Y-62347206D01*
X104628700Y-62302353D01*
X104598270Y-62299500D01*
X104598266Y-62299500D01*
X104189734Y-62299500D01*
X104189730Y-62299500D01*
X104159300Y-62302353D01*
X104159298Y-62302353D01*
X104031119Y-62347206D01*
X104031117Y-62347207D01*
X103921850Y-62427850D01*
X103841207Y-62537117D01*
X103841206Y-62537119D01*
X103796353Y-62665298D01*
X103796353Y-62665300D01*
X103793500Y-62695730D01*
X103793500Y-63015719D01*
X103773815Y-63082758D01*
X103757181Y-63103400D01*
X103496137Y-63364444D01*
X103434814Y-63397929D01*
X103420036Y-63400221D01*
X103397300Y-63402353D01*
X103397298Y-63402353D01*
X103269119Y-63447206D01*
X103269117Y-63447207D01*
X103159850Y-63527850D01*
X103079207Y-63637117D01*
X103079206Y-63637119D01*
X103034353Y-63765298D01*
X103034353Y-63765300D01*
X103031500Y-63795730D01*
X103031500Y-64131000D01*
X103011815Y-64198039D01*
X102959011Y-64243794D01*
X102907500Y-64255000D01*
X102578500Y-64255000D01*
X102511461Y-64235315D01*
X102465706Y-64182511D01*
X102454500Y-64131000D01*
X102454500Y-63795730D01*
X102451646Y-63765300D01*
X102451646Y-63765298D01*
X102406793Y-63637119D01*
X102406792Y-63637117D01*
X102406789Y-63637113D01*
X102359938Y-63573631D01*
X102335968Y-63508005D01*
X102351283Y-63439835D01*
X102359932Y-63426375D01*
X102406793Y-63362882D01*
X102442072Y-63262060D01*
X102451646Y-63234701D01*
X102451646Y-63234699D01*
X102454500Y-63204269D01*
X102454500Y-62695730D01*
X102451646Y-62665300D01*
X102451646Y-62665298D01*
X102416886Y-62565962D01*
X102406793Y-62537118D01*
X102326150Y-62427850D01*
X102216882Y-62347207D01*
X102216880Y-62347206D01*
X102088700Y-62302353D01*
X102058270Y-62299500D01*
X102058266Y-62299500D01*
X101649734Y-62299500D01*
X101649730Y-62299500D01*
X101619300Y-62302353D01*
X101619298Y-62302353D01*
X101491119Y-62347206D01*
X101491117Y-62347207D01*
X101381850Y-62427850D01*
X101301207Y-62537117D01*
X101301206Y-62537119D01*
X101256353Y-62665298D01*
X101256353Y-62665300D01*
X101253499Y-62695730D01*
X101253499Y-63015719D01*
X101233814Y-63082759D01*
X101217180Y-63103400D01*
X100956137Y-63364444D01*
X100894814Y-63397929D01*
X100880036Y-63400221D01*
X100857300Y-63402353D01*
X100857298Y-63402353D01*
X100729119Y-63447206D01*
X100729117Y-63447207D01*
X100619850Y-63527850D01*
X100539207Y-63637117D01*
X100539206Y-63637119D01*
X100494353Y-63765298D01*
X100494353Y-63765300D01*
X100491500Y-63795730D01*
X100491500Y-64125500D01*
X100471815Y-64192539D01*
X100419011Y-64238294D01*
X100367500Y-64249500D01*
X100038500Y-64249500D01*
X99971461Y-64229815D01*
X99925706Y-64177011D01*
X99914500Y-64125500D01*
X99914500Y-63795730D01*
X99911646Y-63765300D01*
X99911646Y-63765298D01*
X99866793Y-63637119D01*
X99866792Y-63637117D01*
X99866789Y-63637113D01*
X99819938Y-63573631D01*
X99795968Y-63508005D01*
X99811283Y-63439835D01*
X99819932Y-63426375D01*
X99866793Y-63362882D01*
X99902072Y-63262060D01*
X99911646Y-63234701D01*
X99911646Y-63234699D01*
X99914500Y-63204269D01*
X99914500Y-62695730D01*
X99911646Y-62665300D01*
X99911646Y-62665298D01*
X99876886Y-62565962D01*
X99866793Y-62537118D01*
X99786150Y-62427850D01*
X99676882Y-62347207D01*
X99676880Y-62347206D01*
X99548700Y-62302353D01*
X99518270Y-62299500D01*
X99518266Y-62299500D01*
X99109734Y-62299500D01*
X99109730Y-62299500D01*
X99079300Y-62302353D01*
X99079298Y-62302353D01*
X98951119Y-62347206D01*
X98951117Y-62347207D01*
X98841850Y-62427850D01*
X98761207Y-62537117D01*
X98761206Y-62537119D01*
X98716353Y-62665298D01*
X98716353Y-62665300D01*
X98713499Y-62695730D01*
X98713499Y-63015719D01*
X98693814Y-63082759D01*
X98677180Y-63103400D01*
X98416137Y-63364444D01*
X98354814Y-63397929D01*
X98340036Y-63400221D01*
X98317300Y-63402353D01*
X98317298Y-63402353D01*
X98189119Y-63447206D01*
X98189117Y-63447207D01*
X98079850Y-63527850D01*
X97999207Y-63637117D01*
X97999206Y-63637119D01*
X97954353Y-63765298D01*
X97954353Y-63765300D01*
X97951500Y-63795730D01*
X97951500Y-64125500D01*
X97931815Y-64192539D01*
X97879011Y-64238294D01*
X97827500Y-64249500D01*
X97573578Y-64249500D01*
X97506539Y-64229815D01*
X97485896Y-64213181D01*
X97410818Y-64138102D01*
X97377334Y-64076778D01*
X97374500Y-64050421D01*
X97374500Y-63925500D01*
X97374500Y-63795734D01*
X97371646Y-63765301D01*
X97371646Y-63765300D01*
X97371646Y-63765298D01*
X97326793Y-63637119D01*
X97326792Y-63637117D01*
X97326789Y-63637113D01*
X97279938Y-63573631D01*
X97255968Y-63508005D01*
X97271283Y-63439835D01*
X97279932Y-63426375D01*
X97326793Y-63362882D01*
X97362072Y-63262060D01*
X97371646Y-63234701D01*
X97371646Y-63234699D01*
X97374500Y-63204269D01*
X97374500Y-62695730D01*
X97371646Y-62665300D01*
X97371646Y-62665298D01*
X97336886Y-62565962D01*
X97326793Y-62537118D01*
X97246150Y-62427850D01*
X97136882Y-62347207D01*
X97136880Y-62347206D01*
X97008700Y-62302353D01*
X96978270Y-62299500D01*
X96978266Y-62299500D01*
X96569734Y-62299500D01*
X96569730Y-62299500D01*
X96539300Y-62302353D01*
X96539298Y-62302353D01*
X96411119Y-62347206D01*
X96411117Y-62347207D01*
X96301850Y-62427850D01*
X96221207Y-62537117D01*
X96221206Y-62537119D01*
X96176353Y-62665298D01*
X96176353Y-62665299D01*
X96175423Y-62675221D01*
X96149563Y-62740129D01*
X96092716Y-62780752D01*
X96022931Y-62784193D01*
X95973604Y-62759742D01*
X95846238Y-62655889D01*
X95674083Y-62565962D01*
X95487346Y-62512530D01*
X95373394Y-62502400D01*
X95373000Y-62502400D01*
X95372999Y-63364179D01*
X95306843Y-63312687D01*
X95186578Y-63271400D01*
X95091431Y-63271400D01*
X94997579Y-63287061D01*
X94885749Y-63347580D01*
X94873000Y-63361429D01*
X94873000Y-62502400D01*
X94872605Y-62502400D01*
X94758653Y-62512530D01*
X94571916Y-62565962D01*
X94399761Y-62655889D01*
X94249230Y-62778630D01*
X94126489Y-62929161D01*
X94036562Y-63101316D01*
X93983130Y-63288053D01*
X93973000Y-63402005D01*
X93973000Y-63402400D01*
X94835283Y-63402400D01*
X94799629Y-63441131D01*
X94748552Y-63557577D01*
X94738051Y-63684298D01*
X94769266Y-63807562D01*
X94831227Y-63902400D01*
X93973000Y-63902400D01*
X93973000Y-63902794D01*
X93983130Y-64016746D01*
X94036562Y-64203483D01*
X94126489Y-64375638D01*
X94249230Y-64526169D01*
X94399761Y-64648910D01*
X94571916Y-64738837D01*
X94758653Y-64792269D01*
X94872605Y-64802399D01*
X94872612Y-64802400D01*
X94873000Y-64802400D01*
X94873000Y-63940620D01*
X94939157Y-63992113D01*
X95059422Y-64033400D01*
X95154569Y-64033400D01*
X95248421Y-64017739D01*
X95360251Y-63957220D01*
X95373000Y-63943370D01*
X95373000Y-64802400D01*
X95377761Y-64807161D01*
X95411246Y-64868484D01*
X95406262Y-64938176D01*
X95377761Y-64982523D01*
X94562148Y-65798135D01*
X94509403Y-65829431D01*
X94489709Y-65835214D01*
X94415439Y-65857022D01*
X94415435Y-65857024D01*
X94415434Y-65857025D01*
X94300413Y-65930942D01*
X94300409Y-65930946D01*
X94210872Y-66034278D01*
X94210867Y-66034285D01*
X94154070Y-66158654D01*
X94154068Y-66158662D01*
X94134610Y-66293999D01*
X94154068Y-66429337D01*
X94154070Y-66429345D01*
X94210867Y-66553714D01*
X94210872Y-66553721D01*
X94300409Y-66657053D01*
X94300413Y-66657057D01*
X94339872Y-66682415D01*
X94415439Y-66730978D01*
X94481036Y-66750238D01*
X94546632Y-66769500D01*
X94546633Y-66769500D01*
X94683367Y-66769500D01*
X94814561Y-66730978D01*
X94929589Y-66657055D01*
X95019130Y-66553718D01*
X95075931Y-66429342D01*
X95078042Y-66414651D01*
X95107065Y-66351094D01*
X95113086Y-66344627D01*
X95410819Y-66046895D01*
X95472142Y-66013410D01*
X95541834Y-66018394D01*
X95597767Y-66060266D01*
X95622184Y-66125730D01*
X95622500Y-66134576D01*
X95622500Y-67010973D01*
X95602815Y-67078012D01*
X95550011Y-67123767D01*
X95480853Y-67133711D01*
X95472559Y-67132229D01*
X95471825Y-67132072D01*
X95368349Y-67121500D01*
X95368342Y-67121500D01*
X94877658Y-67121500D01*
X94877650Y-67121500D01*
X94774183Y-67132071D01*
X94606540Y-67187622D01*
X94606529Y-67187627D01*
X94456225Y-67280337D01*
X94456221Y-67280340D01*
X94331340Y-67405221D01*
X94331337Y-67405225D01*
X94238627Y-67555529D01*
X94238622Y-67555540D01*
X94183071Y-67723183D01*
X94172500Y-67826650D01*
X94172500Y-68317351D01*
X94181012Y-68400665D01*
X94168243Y-68469358D01*
X94145335Y-68500948D01*
X92077604Y-70568681D01*
X92016281Y-70602166D01*
X91989923Y-70605000D01*
X91137648Y-70605000D01*
X91070609Y-70585315D01*
X91043934Y-70562201D01*
X90992589Y-70502945D01*
X90992590Y-70502945D01*
X90877559Y-70429021D01*
X90746368Y-70390500D01*
X90746367Y-70390500D01*
X90609633Y-70390500D01*
X90609632Y-70390500D01*
X90478442Y-70429020D01*
X90478438Y-70429022D01*
X90478439Y-70429022D01*
X90432855Y-70458316D01*
X90365818Y-70478000D01*
X90085926Y-70478000D01*
X90085902Y-70478001D01*
X90057538Y-70478001D01*
X90057536Y-70478001D01*
X90057530Y-70478002D01*
X90037407Y-70484540D01*
X90018501Y-70489079D01*
X89997604Y-70492389D01*
X89997595Y-70492392D01*
X89978747Y-70501996D01*
X89960778Y-70509439D01*
X89940651Y-70515979D01*
X89940643Y-70515983D01*
X89923523Y-70528421D01*
X89906943Y-70538581D01*
X89888089Y-70548188D01*
X89888086Y-70548191D01*
X89463549Y-70972727D01*
X89463549Y-70972728D01*
X89452618Y-70983659D01*
X89441686Y-70994591D01*
X89441686Y-70994592D01*
X89432079Y-71013446D01*
X89421919Y-71030026D01*
X89409482Y-71047145D01*
X89409479Y-71047150D01*
X89402941Y-71067273D01*
X89395498Y-71085242D01*
X89385890Y-71104099D01*
X89385889Y-71104101D01*
X89382580Y-71124999D01*
X89378038Y-71143918D01*
X89371502Y-71164033D01*
X89371501Y-71164041D01*
X89371501Y-71192607D01*
X89371500Y-71192637D01*
X89371500Y-71403823D01*
X89351815Y-71470862D01*
X89299011Y-71516617D01*
X89229853Y-71526561D01*
X89166297Y-71497536D01*
X89159819Y-71491504D01*
X89155819Y-71487504D01*
X89122334Y-71426181D01*
X89119500Y-71399823D01*
X89119500Y-71331730D01*
X89116646Y-71301300D01*
X89116646Y-71301298D01*
X89071793Y-71173119D01*
X89071792Y-71173117D01*
X89065088Y-71164033D01*
X88991150Y-71063850D01*
X88881882Y-70983207D01*
X88881880Y-70983206D01*
X88753700Y-70938353D01*
X88723270Y-70935500D01*
X88723266Y-70935500D01*
X88314734Y-70935500D01*
X88314730Y-70935500D01*
X88284300Y-70938353D01*
X88284298Y-70938353D01*
X88156119Y-70983206D01*
X88156117Y-70983207D01*
X88046850Y-71063850D01*
X87966207Y-71173117D01*
X87966206Y-71173119D01*
X87921353Y-71301298D01*
X87921353Y-71301300D01*
X87918500Y-71331730D01*
X87918500Y-71840269D01*
X87921353Y-71870699D01*
X87921353Y-71870701D01*
X87963800Y-71992004D01*
X87966207Y-71998882D01*
X88046850Y-72108150D01*
X88156118Y-72188793D01*
X88188372Y-72200079D01*
X88284299Y-72233646D01*
X88314730Y-72236500D01*
X88724468Y-72236500D01*
X88791507Y-72256185D01*
X88837262Y-72308989D01*
X88876870Y-72395718D01*
X88876871Y-72395719D01*
X88876872Y-72395721D01*
X88966409Y-72499053D01*
X88966413Y-72499057D01*
X89026979Y-72537979D01*
X89081439Y-72572978D01*
X89115949Y-72583111D01*
X89212632Y-72611500D01*
X89212633Y-72611500D01*
X89349367Y-72611500D01*
X89480561Y-72572978D01*
X89490677Y-72566476D01*
X89557712Y-72546792D01*
X89624752Y-72566475D01*
X89645396Y-72583111D01*
X89660181Y-72597896D01*
X89693666Y-72659219D01*
X89696500Y-72685577D01*
X89696500Y-72940269D01*
X89699353Y-72970699D01*
X89699353Y-72970701D01*
X89741421Y-73090921D01*
X89744207Y-73098882D01*
X89824850Y-73208150D01*
X89934118Y-73288793D01*
X89956564Y-73296647D01*
X90062299Y-73333646D01*
X90092730Y-73336500D01*
X90092734Y-73336500D01*
X90501270Y-73336500D01*
X90531699Y-73333646D01*
X90531701Y-73333646D01*
X90595790Y-73311219D01*
X90659882Y-73288793D01*
X90769150Y-73208150D01*
X90849793Y-73098882D01*
X90891247Y-72980411D01*
X90931969Y-72923635D01*
X90996922Y-72897888D01*
X91065484Y-72911344D01*
X91095970Y-72933685D01*
X95460682Y-77298397D01*
X95494166Y-77359718D01*
X95497000Y-77386076D01*
X95497000Y-82592796D01*
X95477315Y-82659835D01*
X95449137Y-82688015D01*
X95450111Y-82689140D01*
X95443405Y-82694950D01*
X95428611Y-82712024D01*
X95369833Y-82749799D01*
X95299964Y-82749799D01*
X95247217Y-82718503D01*
X95070600Y-82541886D01*
X95037115Y-82480563D01*
X95035543Y-82471849D01*
X95033431Y-82457157D01*
X95000131Y-82384242D01*
X94976630Y-82332782D01*
X94962213Y-82316144D01*
X94887090Y-82229446D01*
X94887086Y-82229442D01*
X94772059Y-82155521D01*
X94640868Y-82117000D01*
X94640867Y-82117000D01*
X94504133Y-82117000D01*
X94504132Y-82117000D01*
X94372940Y-82155521D01*
X94257913Y-82229442D01*
X94257909Y-82229446D01*
X94168372Y-82332778D01*
X94168367Y-82332785D01*
X94111570Y-82457154D01*
X94111568Y-82457162D01*
X94092110Y-82592500D01*
X94111568Y-82727837D01*
X94111570Y-82727845D01*
X94168367Y-82852214D01*
X94168372Y-82852221D01*
X94198495Y-82886985D01*
X94257911Y-82955555D01*
X94372939Y-83029478D01*
X94466903Y-83057067D01*
X94519648Y-83088363D01*
X95333863Y-83902578D01*
X96137181Y-84705895D01*
X96170666Y-84767218D01*
X96173500Y-84793576D01*
X96173500Y-85048269D01*
X96176353Y-85078699D01*
X96176353Y-85078701D01*
X96212500Y-85181999D01*
X96221207Y-85206882D01*
X96301850Y-85316150D01*
X96411118Y-85396793D01*
X96432189Y-85404166D01*
X96539299Y-85441646D01*
X96569730Y-85444500D01*
X96569734Y-85444500D01*
X96978270Y-85444500D01*
X97008699Y-85441646D01*
X97008701Y-85441646D01*
X97077330Y-85417631D01*
X97136882Y-85396793D01*
X97246150Y-85316150D01*
X97326793Y-85206882D01*
X97360060Y-85111811D01*
X97360232Y-85111319D01*
X97400953Y-85054543D01*
X97465906Y-85028796D01*
X97512204Y-85033296D01*
X97557401Y-85046567D01*
X97610147Y-85077863D01*
X97624127Y-85091843D01*
X97624147Y-85091861D01*
X97644092Y-85111807D01*
X97644094Y-85111808D01*
X97644097Y-85111811D01*
X97662953Y-85121418D01*
X97679536Y-85131581D01*
X97696656Y-85144019D01*
X97716779Y-85150557D01*
X97734749Y-85158000D01*
X97753607Y-85167609D01*
X97774510Y-85170919D01*
X97793428Y-85175461D01*
X97813547Y-85181999D01*
X97841910Y-85181999D01*
X97841934Y-85182000D01*
X97844467Y-85182000D01*
X97918245Y-85182000D01*
X97985284Y-85201685D01*
X98018015Y-85232367D01*
X98046060Y-85270367D01*
X98070031Y-85335996D01*
X98054715Y-85404166D01*
X98046062Y-85417630D01*
X98024141Y-85447333D01*
X97999207Y-85481118D01*
X97999206Y-85481119D01*
X97954353Y-85609298D01*
X97954353Y-85609300D01*
X97951500Y-85639730D01*
X97951500Y-86148269D01*
X97954353Y-86178699D01*
X97954353Y-86178701D01*
X97999206Y-86306880D01*
X97999207Y-86306882D01*
X98079850Y-86416150D01*
X98189118Y-86496793D01*
X98231845Y-86511744D01*
X98317299Y-86541646D01*
X98347730Y-86544500D01*
X98347734Y-86544500D01*
X98756270Y-86544500D01*
X98786699Y-86541646D01*
X98786701Y-86541646D01*
X98850790Y-86519219D01*
X98914882Y-86496793D01*
X99024150Y-86416150D01*
X99104793Y-86306882D01*
X99135368Y-86219504D01*
X99146107Y-86188814D01*
X99765430Y-86188814D01*
X99778642Y-86255235D01*
X99823187Y-86321901D01*
X99970786Y-86469500D01*
X100175546Y-86469500D01*
X100170924Y-86458906D01*
X100169230Y-86454589D01*
X100114068Y-86296947D01*
X100112932Y-86293354D01*
X100109422Y-86280951D01*
X100108506Y-86277295D01*
X100102536Y-86249961D01*
X100101844Y-86246258D01*
X100099864Y-86233525D01*
X100099398Y-86229785D01*
X100094737Y-86180074D01*
X100094619Y-86178637D01*
X100094272Y-86173695D01*
X100094187Y-86172242D01*
X100093684Y-86161497D01*
X100093633Y-86160048D01*
X100093517Y-86155093D01*
X100093500Y-86153643D01*
X100093500Y-85842898D01*
X100049357Y-85851678D01*
X99982689Y-85896224D01*
X99823187Y-86055726D01*
X99778642Y-86122392D01*
X99765430Y-86188814D01*
X99146107Y-86188814D01*
X99149646Y-86178701D01*
X99149646Y-86178699D01*
X99152500Y-86148269D01*
X99152500Y-85639736D01*
X99152500Y-85639734D01*
X99151922Y-85633573D01*
X99165259Y-85564990D01*
X99187696Y-85534315D01*
X99241194Y-85480817D01*
X99302519Y-85447333D01*
X99328875Y-85444500D01*
X99518270Y-85444500D01*
X99548699Y-85441646D01*
X99548701Y-85441646D01*
X99617330Y-85417631D01*
X99676882Y-85396793D01*
X99786150Y-85316150D01*
X99866793Y-85206882D01*
X99900060Y-85111811D01*
X99900232Y-85111319D01*
X99940953Y-85054543D01*
X100005906Y-85028796D01*
X100052204Y-85033296D01*
X100097401Y-85046567D01*
X100150147Y-85077863D01*
X100164127Y-85091843D01*
X100164147Y-85091861D01*
X100184092Y-85111807D01*
X100184094Y-85111808D01*
X100184097Y-85111811D01*
X100202953Y-85121418D01*
X100219536Y-85131581D01*
X100236656Y-85144019D01*
X100256779Y-85150557D01*
X100274749Y-85158000D01*
X100293607Y-85167609D01*
X100314510Y-85170919D01*
X100333428Y-85175461D01*
X100353547Y-85181999D01*
X100381910Y-85181999D01*
X100381934Y-85182000D01*
X100384467Y-85182000D01*
X100458245Y-85182000D01*
X100525284Y-85201685D01*
X100558015Y-85232367D01*
X100586060Y-85270367D01*
X100610031Y-85335996D01*
X100594715Y-85404166D01*
X100586062Y-85417630D01*
X100564141Y-85447333D01*
X100539207Y-85481118D01*
X100539206Y-85481119D01*
X100494353Y-85609298D01*
X100494353Y-85609300D01*
X100491500Y-85639730D01*
X100491500Y-86148269D01*
X100494353Y-86178699D01*
X100494353Y-86178701D01*
X100539206Y-86306880D01*
X100539207Y-86306882D01*
X100619850Y-86416150D01*
X100729118Y-86496793D01*
X100771845Y-86511744D01*
X100857299Y-86541646D01*
X100887730Y-86544500D01*
X100887734Y-86544500D01*
X101296270Y-86544500D01*
X101326699Y-86541646D01*
X101326701Y-86541646D01*
X101390790Y-86519219D01*
X101454882Y-86496793D01*
X101564150Y-86416150D01*
X101644793Y-86306882D01*
X101675368Y-86219504D01*
X101689646Y-86178701D01*
X101689646Y-86178699D01*
X101692500Y-86148269D01*
X101692500Y-85828279D01*
X101712185Y-85761240D01*
X101728814Y-85740603D01*
X101989864Y-85479553D01*
X102051185Y-85446070D01*
X102065967Y-85443778D01*
X102081393Y-85442331D01*
X102088699Y-85441646D01*
X102088701Y-85441646D01*
X102157330Y-85417631D01*
X102216882Y-85396793D01*
X102326150Y-85316150D01*
X102406793Y-85206882D01*
X102440060Y-85111811D01*
X102440232Y-85111319D01*
X102480953Y-85054543D01*
X102545906Y-85028796D01*
X102592204Y-85033296D01*
X102637401Y-85046567D01*
X102690147Y-85077863D01*
X102704127Y-85091843D01*
X102704147Y-85091861D01*
X102724092Y-85111807D01*
X102724094Y-85111808D01*
X102724097Y-85111811D01*
X102742953Y-85121418D01*
X102759536Y-85131581D01*
X102776656Y-85144019D01*
X102796779Y-85150557D01*
X102814749Y-85158000D01*
X102833607Y-85167609D01*
X102854510Y-85170919D01*
X102873428Y-85175461D01*
X102893547Y-85181999D01*
X102921910Y-85181999D01*
X102921934Y-85182000D01*
X102924467Y-85182000D01*
X102998245Y-85182000D01*
X103065284Y-85201685D01*
X103098015Y-85232367D01*
X103126060Y-85270367D01*
X103150031Y-85335996D01*
X103134715Y-85404166D01*
X103126062Y-85417630D01*
X103104141Y-85447333D01*
X103079207Y-85481118D01*
X103079206Y-85481119D01*
X103034353Y-85609298D01*
X103034353Y-85609300D01*
X103031500Y-85639730D01*
X103031500Y-86148269D01*
X103034353Y-86178699D01*
X103034353Y-86178701D01*
X103079206Y-86306880D01*
X103079207Y-86306882D01*
X103159850Y-86416150D01*
X103269118Y-86496793D01*
X103311845Y-86511744D01*
X103397299Y-86541646D01*
X103427730Y-86544500D01*
X103427734Y-86544500D01*
X103836270Y-86544500D01*
X103866699Y-86541646D01*
X103866701Y-86541646D01*
X103930790Y-86519219D01*
X103994882Y-86496793D01*
X104104150Y-86416150D01*
X104184793Y-86306882D01*
X104215368Y-86219504D01*
X104229646Y-86178701D01*
X104229646Y-86178699D01*
X104230115Y-86173695D01*
X104232500Y-86148266D01*
X104232499Y-85828278D01*
X104252183Y-85761240D01*
X104268813Y-85740603D01*
X104529863Y-85479553D01*
X104591185Y-85446070D01*
X104605967Y-85443778D01*
X104621393Y-85442331D01*
X104628699Y-85441646D01*
X104628701Y-85441646D01*
X104697330Y-85417631D01*
X104756882Y-85396793D01*
X104866150Y-85316150D01*
X104946793Y-85206882D01*
X104980060Y-85111811D01*
X104980232Y-85111319D01*
X105020953Y-85054543D01*
X105085906Y-85028796D01*
X105132204Y-85033296D01*
X105177401Y-85046567D01*
X105230147Y-85077863D01*
X105244127Y-85091843D01*
X105244147Y-85091861D01*
X105264092Y-85111807D01*
X105264094Y-85111808D01*
X105264097Y-85111811D01*
X105282953Y-85121418D01*
X105299536Y-85131581D01*
X105316656Y-85144019D01*
X105336779Y-85150557D01*
X105354749Y-85158000D01*
X105373607Y-85167609D01*
X105394510Y-85170919D01*
X105413428Y-85175461D01*
X105433547Y-85181999D01*
X105461910Y-85181999D01*
X105461934Y-85182000D01*
X105464467Y-85182000D01*
X105538245Y-85182000D01*
X105605284Y-85201685D01*
X105638015Y-85232367D01*
X105666060Y-85270367D01*
X105690031Y-85335996D01*
X105674715Y-85404166D01*
X105666062Y-85417630D01*
X105644141Y-85447333D01*
X105619207Y-85481118D01*
X105619206Y-85481119D01*
X105574353Y-85609298D01*
X105574353Y-85609300D01*
X105571500Y-85639730D01*
X105571500Y-86148269D01*
X105574353Y-86178699D01*
X105574353Y-86178701D01*
X105619206Y-86306880D01*
X105619207Y-86306882D01*
X105699850Y-86416150D01*
X105809118Y-86496793D01*
X105851845Y-86511744D01*
X105937299Y-86541646D01*
X105967730Y-86544500D01*
X105967734Y-86544500D01*
X106376270Y-86544500D01*
X106406699Y-86541646D01*
X106406701Y-86541646D01*
X106470790Y-86519219D01*
X106534882Y-86496793D01*
X106571863Y-86469500D01*
X107088454Y-86469500D01*
X107331840Y-86469500D01*
X107479437Y-86321902D01*
X107523982Y-86255235D01*
X107537194Y-86188814D01*
X107523982Y-86122392D01*
X107479437Y-86055725D01*
X107383000Y-85959288D01*
X107383000Y-86111234D01*
X107380617Y-86135425D01*
X107370463Y-86186472D01*
X107351949Y-86231171D01*
X107313271Y-86289058D01*
X107279058Y-86323271D01*
X107221171Y-86361949D01*
X107176472Y-86380463D01*
X107125425Y-86390617D01*
X107116859Y-86391460D01*
X107094770Y-86454589D01*
X107093076Y-86458906D01*
X107088454Y-86469500D01*
X106571863Y-86469500D01*
X106644150Y-86416150D01*
X106724793Y-86306882D01*
X106755368Y-86219504D01*
X106769646Y-86178701D01*
X106769646Y-86178699D01*
X106772500Y-86148269D01*
X106772500Y-85639736D01*
X106772500Y-85639734D01*
X106771922Y-85633573D01*
X106785259Y-85564990D01*
X106807696Y-85534315D01*
X106861194Y-85480817D01*
X106922519Y-85447333D01*
X106948875Y-85444500D01*
X107138270Y-85444500D01*
X107168699Y-85441646D01*
X107168701Y-85441646D01*
X107237330Y-85417631D01*
X107296882Y-85396793D01*
X107406150Y-85316150D01*
X107486793Y-85206882D01*
X107520060Y-85111811D01*
X107520232Y-85111319D01*
X107560953Y-85054543D01*
X107625906Y-85028796D01*
X107672204Y-85033296D01*
X107717401Y-85046567D01*
X107770147Y-85077863D01*
X107784127Y-85091843D01*
X107784147Y-85091861D01*
X107804092Y-85111807D01*
X107804094Y-85111808D01*
X107804097Y-85111811D01*
X107822953Y-85121418D01*
X107839536Y-85131581D01*
X107856656Y-85144019D01*
X107876779Y-85150557D01*
X107894749Y-85158000D01*
X107913607Y-85167609D01*
X107934510Y-85170919D01*
X107953428Y-85175461D01*
X107973547Y-85181999D01*
X108001910Y-85181999D01*
X108001934Y-85182000D01*
X108004467Y-85182000D01*
X108078245Y-85182000D01*
X108145284Y-85201685D01*
X108178015Y-85232367D01*
X108206060Y-85270367D01*
X108230031Y-85335996D01*
X108214715Y-85404166D01*
X108206062Y-85417630D01*
X108184141Y-85447333D01*
X108159207Y-85481118D01*
X108159206Y-85481119D01*
X108114353Y-85609298D01*
X108114353Y-85609300D01*
X108111500Y-85639730D01*
X108111500Y-86148269D01*
X108114353Y-86178699D01*
X108114353Y-86178701D01*
X108159206Y-86306880D01*
X108159207Y-86306882D01*
X108239850Y-86416150D01*
X108349118Y-86496793D01*
X108391845Y-86511744D01*
X108477299Y-86541646D01*
X108507730Y-86544500D01*
X108507734Y-86544500D01*
X108916270Y-86544500D01*
X108946699Y-86541646D01*
X108946701Y-86541646D01*
X109010790Y-86519219D01*
X109074882Y-86496793D01*
X109184150Y-86416150D01*
X109224613Y-86361324D01*
X109762105Y-86361324D01*
X109870281Y-86469500D01*
X110160267Y-86469500D01*
X110289297Y-86340468D01*
X110274068Y-86296946D01*
X110272932Y-86293354D01*
X110269422Y-86280951D01*
X110268506Y-86277295D01*
X110262536Y-86249961D01*
X110261844Y-86246258D01*
X110259864Y-86233525D01*
X110259398Y-86229785D01*
X110254737Y-86180074D01*
X110254619Y-86178637D01*
X110254272Y-86173695D01*
X110254187Y-86172242D01*
X110253684Y-86161497D01*
X110253633Y-86160048D01*
X110253517Y-86155093D01*
X110253500Y-86153643D01*
X110253500Y-86001361D01*
X110148363Y-85896224D01*
X110081695Y-85851678D01*
X110015273Y-85838466D01*
X109948850Y-85851678D01*
X109923000Y-85868952D01*
X109923000Y-86111234D01*
X109920617Y-86135425D01*
X109910463Y-86186472D01*
X109891949Y-86231171D01*
X109853271Y-86289058D01*
X109819058Y-86323271D01*
X109762105Y-86361324D01*
X109224613Y-86361324D01*
X109264793Y-86306882D01*
X109295368Y-86219504D01*
X109309646Y-86178701D01*
X109309646Y-86178699D01*
X109312500Y-86148269D01*
X109312500Y-85639736D01*
X109312500Y-85639734D01*
X109311922Y-85633573D01*
X109325259Y-85564990D01*
X109347696Y-85534315D01*
X109401194Y-85480817D01*
X109462519Y-85447333D01*
X109488875Y-85444500D01*
X109678270Y-85444500D01*
X109708699Y-85441646D01*
X109708701Y-85441646D01*
X109777330Y-85417631D01*
X109836882Y-85396793D01*
X109946150Y-85316150D01*
X110026793Y-85206882D01*
X110060060Y-85111811D01*
X110060232Y-85111319D01*
X110100953Y-85054543D01*
X110165906Y-85028796D01*
X110212204Y-85033296D01*
X110257401Y-85046567D01*
X110310147Y-85077863D01*
X110324127Y-85091843D01*
X110324147Y-85091861D01*
X110344092Y-85111807D01*
X110344094Y-85111808D01*
X110344097Y-85111811D01*
X110362953Y-85121418D01*
X110379536Y-85131581D01*
X110396656Y-85144019D01*
X110416779Y-85150557D01*
X110434749Y-85158000D01*
X110453607Y-85167609D01*
X110474510Y-85170919D01*
X110493428Y-85175461D01*
X110513547Y-85181999D01*
X110541910Y-85181999D01*
X110541934Y-85182000D01*
X110544467Y-85182000D01*
X110618245Y-85182000D01*
X110685284Y-85201685D01*
X110718015Y-85232367D01*
X110746060Y-85270367D01*
X110770031Y-85335996D01*
X110754715Y-85404166D01*
X110746062Y-85417630D01*
X110724141Y-85447333D01*
X110699207Y-85481118D01*
X110699206Y-85481119D01*
X110654353Y-85609298D01*
X110654353Y-85609300D01*
X110651500Y-85639730D01*
X110651500Y-86148269D01*
X110654353Y-86178699D01*
X110654353Y-86178701D01*
X110699206Y-86306880D01*
X110699207Y-86306882D01*
X110779850Y-86416150D01*
X110889118Y-86496793D01*
X110931845Y-86511744D01*
X111017299Y-86541646D01*
X111047730Y-86544500D01*
X111047734Y-86544500D01*
X111456270Y-86544500D01*
X111486699Y-86541646D01*
X111486701Y-86541646D01*
X111550790Y-86519219D01*
X111614882Y-86496793D01*
X111724150Y-86416150D01*
X111804793Y-86306882D01*
X111835368Y-86219504D01*
X111846107Y-86188814D01*
X112493352Y-86188814D01*
X112506564Y-86255235D01*
X112551109Y-86321901D01*
X112698708Y-86469500D01*
X112875546Y-86469500D01*
X112870924Y-86458906D01*
X112869230Y-86454589D01*
X112814068Y-86296947D01*
X112812932Y-86293354D01*
X112809422Y-86280951D01*
X112808506Y-86277295D01*
X112802536Y-86249961D01*
X112801844Y-86246258D01*
X112799864Y-86233525D01*
X112799398Y-86229785D01*
X112794737Y-86180074D01*
X112794619Y-86178637D01*
X112794272Y-86173695D01*
X112794187Y-86172242D01*
X112793684Y-86161497D01*
X112793633Y-86160048D01*
X112793517Y-86155093D01*
X112793500Y-86153643D01*
X112793500Y-85848452D01*
X112777279Y-85851678D01*
X112710611Y-85896224D01*
X112551109Y-86055726D01*
X112506564Y-86122392D01*
X112493352Y-86188814D01*
X111846107Y-86188814D01*
X111849646Y-86178701D01*
X111849646Y-86178699D01*
X111852500Y-86148269D01*
X111852500Y-85639736D01*
X111852500Y-85639734D01*
X111851922Y-85633573D01*
X111865259Y-85564990D01*
X111887696Y-85534315D01*
X111941194Y-85480817D01*
X112002519Y-85447333D01*
X112028875Y-85444500D01*
X112218270Y-85444500D01*
X112248699Y-85441646D01*
X112248701Y-85441646D01*
X112317330Y-85417631D01*
X112376882Y-85396793D01*
X112486150Y-85316150D01*
X112566793Y-85206882D01*
X112600060Y-85111811D01*
X112600232Y-85111319D01*
X112640953Y-85054543D01*
X112705906Y-85028796D01*
X112752204Y-85033296D01*
X112797401Y-85046567D01*
X112850147Y-85077863D01*
X112864127Y-85091843D01*
X112864147Y-85091861D01*
X112884092Y-85111807D01*
X112884094Y-85111808D01*
X112884097Y-85111811D01*
X112902953Y-85121418D01*
X112919536Y-85131581D01*
X112936656Y-85144019D01*
X112956779Y-85150557D01*
X112974749Y-85158000D01*
X112993607Y-85167609D01*
X113014510Y-85170919D01*
X113033428Y-85175461D01*
X113053547Y-85181999D01*
X113081910Y-85181999D01*
X113081934Y-85182000D01*
X113084467Y-85182000D01*
X113158245Y-85182000D01*
X113225284Y-85201685D01*
X113258014Y-85232365D01*
X113286060Y-85270366D01*
X113310031Y-85335993D01*
X113294716Y-85404164D01*
X113286061Y-85417631D01*
X113239209Y-85481114D01*
X113239206Y-85481119D01*
X113194353Y-85609298D01*
X113194353Y-85609300D01*
X113191500Y-85639730D01*
X113191500Y-86148269D01*
X113194353Y-86178699D01*
X113194353Y-86178701D01*
X113239206Y-86306880D01*
X113239207Y-86306882D01*
X113319850Y-86416150D01*
X113429118Y-86496793D01*
X113471845Y-86511744D01*
X113557299Y-86541646D01*
X113587730Y-86544500D01*
X113587734Y-86544500D01*
X113996270Y-86544500D01*
X114026699Y-86541646D01*
X114026701Y-86541646D01*
X114090790Y-86519219D01*
X114154882Y-86496793D01*
X114264150Y-86416150D01*
X114344793Y-86306882D01*
X114375368Y-86219504D01*
X114389646Y-86178701D01*
X114389646Y-86178699D01*
X114392500Y-86148269D01*
X114392500Y-85639736D01*
X114392500Y-85639734D01*
X114391922Y-85633573D01*
X114405259Y-85564990D01*
X114427696Y-85534315D01*
X114481194Y-85480817D01*
X114542519Y-85447333D01*
X114568875Y-85444500D01*
X114758270Y-85444500D01*
X114788699Y-85441646D01*
X114788701Y-85441646D01*
X114857330Y-85417631D01*
X114916882Y-85396793D01*
X115026150Y-85316150D01*
X115106793Y-85206882D01*
X115140060Y-85111811D01*
X115140232Y-85111319D01*
X115180953Y-85054543D01*
X115245906Y-85028796D01*
X115292204Y-85033296D01*
X115337401Y-85046567D01*
X115390147Y-85077863D01*
X115404127Y-85091843D01*
X115404147Y-85091861D01*
X115424092Y-85111807D01*
X115424094Y-85111808D01*
X115424097Y-85111811D01*
X115442953Y-85121418D01*
X115459536Y-85131581D01*
X115476656Y-85144019D01*
X115496779Y-85150557D01*
X115514749Y-85158000D01*
X115533607Y-85167609D01*
X115554510Y-85170919D01*
X115573428Y-85175461D01*
X115593547Y-85181999D01*
X115621910Y-85181999D01*
X115621934Y-85182000D01*
X115624467Y-85182000D01*
X115698245Y-85182000D01*
X115765284Y-85201685D01*
X115798015Y-85232367D01*
X115826060Y-85270367D01*
X115850031Y-85335996D01*
X115834715Y-85404166D01*
X115826062Y-85417630D01*
X115804141Y-85447333D01*
X115779207Y-85481118D01*
X115779206Y-85481119D01*
X115734353Y-85609298D01*
X115734353Y-85609300D01*
X115731500Y-85639730D01*
X115731500Y-86148269D01*
X115734353Y-86178699D01*
X115734353Y-86178701D01*
X115779206Y-86306880D01*
X115779207Y-86306882D01*
X115859850Y-86416150D01*
X115969118Y-86496793D01*
X116011845Y-86511744D01*
X116097299Y-86541646D01*
X116127730Y-86544500D01*
X116127734Y-86544500D01*
X116536270Y-86544500D01*
X116566699Y-86541646D01*
X116566701Y-86541646D01*
X116630790Y-86519219D01*
X116694882Y-86496793D01*
X116804150Y-86416150D01*
X116884793Y-86306882D01*
X116915368Y-86219504D01*
X116929646Y-86178701D01*
X116929646Y-86178699D01*
X116930115Y-86173695D01*
X116932500Y-86148266D01*
X116932499Y-85828278D01*
X116952183Y-85761240D01*
X116968813Y-85740603D01*
X117229863Y-85479553D01*
X117291185Y-85446070D01*
X117305967Y-85443778D01*
X117321393Y-85442331D01*
X117328699Y-85441646D01*
X117328701Y-85441646D01*
X117397330Y-85417631D01*
X117456882Y-85396793D01*
X117566150Y-85316150D01*
X117646793Y-85206882D01*
X117680060Y-85111811D01*
X117680232Y-85111319D01*
X117720953Y-85054543D01*
X117785906Y-85028796D01*
X117832204Y-85033296D01*
X117877401Y-85046567D01*
X117930147Y-85077863D01*
X117944127Y-85091843D01*
X117944147Y-85091861D01*
X117964092Y-85111807D01*
X117964094Y-85111808D01*
X117964097Y-85111811D01*
X117982953Y-85121418D01*
X117999536Y-85131581D01*
X118016656Y-85144019D01*
X118036779Y-85150557D01*
X118054749Y-85158000D01*
X118073607Y-85167609D01*
X118094510Y-85170919D01*
X118113428Y-85175461D01*
X118133547Y-85181999D01*
X118161910Y-85181999D01*
X118161934Y-85182000D01*
X118164467Y-85182000D01*
X118238245Y-85182000D01*
X118305284Y-85201685D01*
X118338015Y-85232367D01*
X118366060Y-85270367D01*
X118390031Y-85335996D01*
X118374715Y-85404166D01*
X118366062Y-85417630D01*
X118344141Y-85447333D01*
X118319207Y-85481118D01*
X118319206Y-85481119D01*
X118274353Y-85609298D01*
X118274353Y-85609300D01*
X118271500Y-85639730D01*
X118271500Y-86148269D01*
X118274353Y-86178699D01*
X118274353Y-86178701D01*
X118319206Y-86306880D01*
X118319207Y-86306882D01*
X118399850Y-86416150D01*
X118509118Y-86496793D01*
X118551845Y-86511744D01*
X118637299Y-86541646D01*
X118667730Y-86544500D01*
X118667734Y-86544500D01*
X119076270Y-86544500D01*
X119106699Y-86541646D01*
X119106701Y-86541646D01*
X119170790Y-86519219D01*
X119234882Y-86496793D01*
X119271863Y-86469500D01*
X119788454Y-86469500D01*
X120059762Y-86469500D01*
X120207359Y-86321902D01*
X120251904Y-86255235D01*
X120265116Y-86188814D01*
X120251904Y-86122392D01*
X120207359Y-86055725D01*
X120082999Y-85931365D01*
X120083000Y-86111234D01*
X120080617Y-86135425D01*
X120070463Y-86186472D01*
X120051949Y-86231171D01*
X120013271Y-86289058D01*
X119979058Y-86323271D01*
X119921171Y-86361949D01*
X119876472Y-86380463D01*
X119825425Y-86390617D01*
X119816859Y-86391460D01*
X119794770Y-86454589D01*
X119793076Y-86458906D01*
X119788454Y-86469500D01*
X119271863Y-86469500D01*
X119344150Y-86416150D01*
X119424793Y-86306882D01*
X119455368Y-86219504D01*
X119469646Y-86178701D01*
X119469646Y-86178699D01*
X119472500Y-86148269D01*
X119472500Y-85639736D01*
X119472500Y-85639734D01*
X119471922Y-85633573D01*
X119485259Y-85564990D01*
X119507696Y-85534315D01*
X119561194Y-85480817D01*
X119622519Y-85447333D01*
X119648875Y-85444500D01*
X119838270Y-85444500D01*
X119868699Y-85441646D01*
X119868701Y-85441646D01*
X119937330Y-85417631D01*
X119996882Y-85396793D01*
X120106150Y-85316150D01*
X120186793Y-85206882D01*
X120220060Y-85111811D01*
X120220232Y-85111319D01*
X120260953Y-85054543D01*
X120325906Y-85028796D01*
X120372204Y-85033296D01*
X120417401Y-85046567D01*
X120470147Y-85077863D01*
X120484127Y-85091843D01*
X120484147Y-85091861D01*
X120504092Y-85111807D01*
X120504094Y-85111808D01*
X120504097Y-85111811D01*
X120522953Y-85121418D01*
X120539536Y-85131581D01*
X120556656Y-85144019D01*
X120576779Y-85150557D01*
X120594749Y-85158000D01*
X120613607Y-85167609D01*
X120634510Y-85170919D01*
X120653428Y-85175461D01*
X120673547Y-85181999D01*
X120701910Y-85181999D01*
X120701934Y-85182000D01*
X120704467Y-85182000D01*
X120778245Y-85182000D01*
X120845284Y-85201685D01*
X120878015Y-85232367D01*
X120906060Y-85270367D01*
X120930031Y-85335996D01*
X120914715Y-85404166D01*
X120906062Y-85417630D01*
X120884141Y-85447333D01*
X120859207Y-85481118D01*
X120859206Y-85481119D01*
X120814353Y-85609298D01*
X120814353Y-85609300D01*
X120811500Y-85639730D01*
X120811500Y-86148269D01*
X120814353Y-86178699D01*
X120814353Y-86178701D01*
X120859206Y-86306880D01*
X120859207Y-86306882D01*
X120939850Y-86416150D01*
X121049118Y-86496793D01*
X121091845Y-86511744D01*
X121177299Y-86541646D01*
X121207730Y-86544500D01*
X121207734Y-86544500D01*
X121616270Y-86544500D01*
X121646699Y-86541646D01*
X121646701Y-86541646D01*
X121710790Y-86519219D01*
X121774882Y-86496793D01*
X121884150Y-86416150D01*
X121932867Y-86350140D01*
X122478843Y-86350140D01*
X122598203Y-86469500D01*
X122888189Y-86469500D01*
X122996534Y-86361153D01*
X122974068Y-86296946D01*
X122972932Y-86293354D01*
X122969422Y-86280951D01*
X122968506Y-86277295D01*
X122962536Y-86249961D01*
X122961844Y-86246258D01*
X122959864Y-86233525D01*
X122959398Y-86229785D01*
X122954737Y-86180074D01*
X122954619Y-86178637D01*
X122954272Y-86173695D01*
X122954187Y-86172242D01*
X122953684Y-86161497D01*
X122953633Y-86160048D01*
X122953517Y-86155093D01*
X122953500Y-86153643D01*
X122953500Y-85973439D01*
X122876285Y-85896224D01*
X122809617Y-85851678D01*
X122743195Y-85838466D01*
X122676774Y-85851678D01*
X122623000Y-85887609D01*
X122623000Y-86111234D01*
X122620617Y-86135425D01*
X122610463Y-86186472D01*
X122591949Y-86231171D01*
X122553271Y-86289058D01*
X122519058Y-86323271D01*
X122478843Y-86350140D01*
X121932867Y-86350140D01*
X121964793Y-86306882D01*
X121995368Y-86219504D01*
X122009646Y-86178701D01*
X122009646Y-86178699D01*
X122012500Y-86148269D01*
X122012500Y-85639736D01*
X122012500Y-85639734D01*
X122011922Y-85633573D01*
X122025259Y-85564990D01*
X122047696Y-85534315D01*
X122101194Y-85480817D01*
X122162519Y-85447333D01*
X122188875Y-85444500D01*
X122378270Y-85444500D01*
X122408699Y-85441646D01*
X122408701Y-85441646D01*
X122477330Y-85417631D01*
X122536882Y-85396793D01*
X122646150Y-85316150D01*
X122726793Y-85206882D01*
X122760060Y-85111811D01*
X122760232Y-85111319D01*
X122800953Y-85054543D01*
X122865906Y-85028796D01*
X122912204Y-85033296D01*
X122957401Y-85046567D01*
X123010147Y-85077863D01*
X123024127Y-85091843D01*
X123024147Y-85091861D01*
X123044092Y-85111807D01*
X123044094Y-85111808D01*
X123044097Y-85111811D01*
X123062953Y-85121418D01*
X123079536Y-85131581D01*
X123096656Y-85144019D01*
X123116779Y-85150557D01*
X123134749Y-85158000D01*
X123153607Y-85167609D01*
X123174510Y-85170919D01*
X123193428Y-85175461D01*
X123213547Y-85181999D01*
X123241910Y-85181999D01*
X123241934Y-85182000D01*
X123244467Y-85182000D01*
X123318245Y-85182000D01*
X123385284Y-85201685D01*
X123418015Y-85232367D01*
X123446060Y-85270367D01*
X123470031Y-85335996D01*
X123454715Y-85404166D01*
X123446062Y-85417630D01*
X123424141Y-85447333D01*
X123399207Y-85481118D01*
X123399206Y-85481119D01*
X123354353Y-85609298D01*
X123354353Y-85609300D01*
X123351500Y-85639730D01*
X123351500Y-86148269D01*
X123354353Y-86178699D01*
X123354353Y-86178701D01*
X123399206Y-86306880D01*
X123399207Y-86306882D01*
X123479850Y-86416150D01*
X123589118Y-86496793D01*
X123631845Y-86511744D01*
X123717299Y-86541646D01*
X123747730Y-86544500D01*
X123747734Y-86544500D01*
X124156270Y-86544500D01*
X124186699Y-86541646D01*
X124186701Y-86541646D01*
X124250790Y-86519219D01*
X124314882Y-86496793D01*
X124424150Y-86416150D01*
X124504793Y-86306882D01*
X124535368Y-86219504D01*
X124546107Y-86188814D01*
X125221274Y-86188814D01*
X125234486Y-86255235D01*
X125279031Y-86321901D01*
X125426630Y-86469500D01*
X125575546Y-86469500D01*
X125570924Y-86458906D01*
X125569230Y-86454589D01*
X125514068Y-86296947D01*
X125512932Y-86293354D01*
X125509422Y-86280951D01*
X125508506Y-86277295D01*
X125502536Y-86249961D01*
X125501844Y-86246258D01*
X125499864Y-86233525D01*
X125499398Y-86229785D01*
X125494737Y-86180074D01*
X125494619Y-86178637D01*
X125494272Y-86173695D01*
X125494187Y-86172242D01*
X125493684Y-86161497D01*
X125493633Y-86160048D01*
X125493517Y-86155093D01*
X125493500Y-86153643D01*
X125493499Y-85859497D01*
X125438533Y-85896224D01*
X125279031Y-86055726D01*
X125234486Y-86122392D01*
X125221274Y-86188814D01*
X124546107Y-86188814D01*
X124549646Y-86178701D01*
X124549646Y-86178699D01*
X124552500Y-86148269D01*
X124552500Y-85639736D01*
X124552500Y-85639734D01*
X124551922Y-85633573D01*
X124565259Y-85564990D01*
X124587696Y-85534315D01*
X124641194Y-85480817D01*
X124702519Y-85447333D01*
X124728875Y-85444500D01*
X124918270Y-85444500D01*
X124948699Y-85441646D01*
X124948701Y-85441646D01*
X125017330Y-85417631D01*
X125076882Y-85396793D01*
X125186150Y-85316150D01*
X125266793Y-85206882D01*
X125300060Y-85111811D01*
X125300232Y-85111319D01*
X125340953Y-85054543D01*
X125405906Y-85028796D01*
X125452204Y-85033296D01*
X125497401Y-85046567D01*
X125550147Y-85077863D01*
X125564127Y-85091843D01*
X125564147Y-85091861D01*
X125584092Y-85111807D01*
X125584094Y-85111808D01*
X125584097Y-85111811D01*
X125602953Y-85121418D01*
X125619536Y-85131581D01*
X125636656Y-85144019D01*
X125656779Y-85150557D01*
X125674749Y-85158000D01*
X125693607Y-85167609D01*
X125714510Y-85170919D01*
X125733428Y-85175461D01*
X125753547Y-85181999D01*
X125781910Y-85181999D01*
X125781934Y-85182000D01*
X125784467Y-85182000D01*
X125858245Y-85182000D01*
X125925284Y-85201685D01*
X125958015Y-85232367D01*
X125986060Y-85270367D01*
X126010031Y-85335996D01*
X125994715Y-85404166D01*
X125986062Y-85417630D01*
X125964141Y-85447333D01*
X125939207Y-85481118D01*
X125939206Y-85481119D01*
X125894353Y-85609298D01*
X125894353Y-85609300D01*
X125891500Y-85639730D01*
X125891500Y-86148269D01*
X125894353Y-86178699D01*
X125894353Y-86178701D01*
X125939206Y-86306880D01*
X125939207Y-86306882D01*
X126019850Y-86416150D01*
X126129118Y-86496793D01*
X126171845Y-86511744D01*
X126257299Y-86541646D01*
X126287730Y-86544500D01*
X126287734Y-86544500D01*
X126696270Y-86544500D01*
X126726699Y-86541646D01*
X126726701Y-86541646D01*
X126790790Y-86519219D01*
X126854882Y-86496793D01*
X126964150Y-86416150D01*
X127044793Y-86306882D01*
X127075368Y-86219504D01*
X127089646Y-86178701D01*
X127089646Y-86178699D01*
X127092500Y-86148269D01*
X127092500Y-85828280D01*
X127112185Y-85761241D01*
X127128819Y-85740599D01*
X127254624Y-85614794D01*
X127389864Y-85479553D01*
X127451185Y-85446070D01*
X127465967Y-85443778D01*
X127481393Y-85442331D01*
X127488699Y-85441646D01*
X127488701Y-85441646D01*
X127557330Y-85417631D01*
X127616882Y-85396793D01*
X127726150Y-85316150D01*
X127806793Y-85206882D01*
X127840060Y-85111811D01*
X127840232Y-85111319D01*
X127880953Y-85054543D01*
X127945906Y-85028796D01*
X127992204Y-85033296D01*
X128037401Y-85046567D01*
X128090147Y-85077863D01*
X128104127Y-85091843D01*
X128104147Y-85091861D01*
X128124092Y-85111807D01*
X128124094Y-85111808D01*
X128124097Y-85111811D01*
X128142953Y-85121418D01*
X128159536Y-85131581D01*
X128176656Y-85144019D01*
X128196779Y-85150557D01*
X128214749Y-85158000D01*
X128233607Y-85167609D01*
X128254510Y-85170919D01*
X128273428Y-85175461D01*
X128293547Y-85181999D01*
X128321910Y-85181999D01*
X128321934Y-85182000D01*
X128324467Y-85182000D01*
X128398245Y-85182000D01*
X128465284Y-85201685D01*
X128498015Y-85232367D01*
X128526060Y-85270367D01*
X128550031Y-85335996D01*
X128534715Y-85404166D01*
X128526062Y-85417630D01*
X128504141Y-85447333D01*
X128479207Y-85481118D01*
X128479206Y-85481119D01*
X128434353Y-85609298D01*
X128434353Y-85609300D01*
X128431500Y-85639730D01*
X128431500Y-86148269D01*
X128434353Y-86178699D01*
X128434353Y-86178701D01*
X128479206Y-86306880D01*
X128479207Y-86306882D01*
X128559850Y-86416150D01*
X128669118Y-86496793D01*
X128711845Y-86511744D01*
X128797299Y-86541646D01*
X128827730Y-86544500D01*
X128827734Y-86544500D01*
X129236270Y-86544500D01*
X129266699Y-86541646D01*
X129266701Y-86541646D01*
X129330790Y-86519219D01*
X129394882Y-86496793D01*
X129504150Y-86416150D01*
X129584793Y-86306882D01*
X129615368Y-86219504D01*
X129629646Y-86178701D01*
X129629646Y-86178699D01*
X129632500Y-86148269D01*
X129632500Y-85639736D01*
X129632500Y-85639734D01*
X129631922Y-85633573D01*
X129645259Y-85564990D01*
X129667696Y-85534315D01*
X129721194Y-85480817D01*
X129782519Y-85447333D01*
X129808875Y-85444500D01*
X129998270Y-85444500D01*
X130028699Y-85441646D01*
X130028701Y-85441646D01*
X130097330Y-85417631D01*
X130156882Y-85396793D01*
X130266150Y-85316150D01*
X130346793Y-85206882D01*
X130380232Y-85111317D01*
X130420952Y-85054545D01*
X130485904Y-85028797D01*
X130532207Y-85033298D01*
X130614632Y-85057500D01*
X130614633Y-85057500D01*
X130751367Y-85057500D01*
X130833792Y-85033298D01*
X130903662Y-85033298D01*
X130962440Y-85071072D01*
X130985768Y-85111320D01*
X131010500Y-85181999D01*
X131019207Y-85206882D01*
X131066060Y-85270366D01*
X131090031Y-85335994D01*
X131074716Y-85404164D01*
X131066061Y-85417631D01*
X131019209Y-85481114D01*
X131019206Y-85481119D01*
X130974353Y-85609298D01*
X130974353Y-85609300D01*
X130971500Y-85639730D01*
X130971500Y-86148269D01*
X130974353Y-86178699D01*
X130974353Y-86178701D01*
X131019206Y-86306880D01*
X131019207Y-86306882D01*
X131099850Y-86416150D01*
X131209118Y-86496793D01*
X131251845Y-86511744D01*
X131337299Y-86541646D01*
X131367730Y-86544500D01*
X131367734Y-86544500D01*
X131776270Y-86544500D01*
X131806699Y-86541646D01*
X131806701Y-86541646D01*
X131870790Y-86519219D01*
X131934882Y-86496793D01*
X131980585Y-86463063D01*
X132491261Y-86463063D01*
X132497698Y-86469500D01*
X132787684Y-86469500D01*
X132935281Y-86321902D01*
X132979826Y-86255235D01*
X132986933Y-86219504D01*
X132938172Y-86170743D01*
X132895541Y-86158226D01*
X132891343Y-86156829D01*
X132877155Y-86151538D01*
X132873061Y-86149843D01*
X132843153Y-86136184D01*
X132839196Y-86134204D01*
X132825906Y-86126947D01*
X132822096Y-86124687D01*
X132783000Y-86099561D01*
X132783000Y-86111234D01*
X132780617Y-86135425D01*
X132770463Y-86186472D01*
X132751949Y-86231171D01*
X132713271Y-86289058D01*
X132679058Y-86323271D01*
X132621171Y-86361949D01*
X132576472Y-86380463D01*
X132525425Y-86390617D01*
X132516859Y-86391460D01*
X132494770Y-86454589D01*
X132493076Y-86458906D01*
X132491261Y-86463063D01*
X131980585Y-86463063D01*
X132044150Y-86416150D01*
X132124793Y-86306882D01*
X132155368Y-86219504D01*
X132169646Y-86178701D01*
X132169646Y-86178699D01*
X132172500Y-86148269D01*
X132172500Y-85828279D01*
X132192185Y-85761240D01*
X132208819Y-85740598D01*
X132334623Y-85614794D01*
X132469863Y-85479553D01*
X132531185Y-85446070D01*
X132545967Y-85443778D01*
X132555357Y-85442897D01*
X132568699Y-85441646D01*
X132613822Y-85425856D01*
X132683596Y-85422294D01*
X132744225Y-85457021D01*
X132767569Y-85491386D01*
X132818869Y-85603716D01*
X132818872Y-85603721D01*
X132850079Y-85639736D01*
X132908411Y-85707055D01*
X133023439Y-85780978D01*
X133117403Y-85808567D01*
X133170148Y-85839863D01*
X133497231Y-86166946D01*
X133526591Y-86213672D01*
X133559206Y-86306880D01*
X133559207Y-86306882D01*
X133639850Y-86416150D01*
X133749118Y-86496793D01*
X133791845Y-86511744D01*
X133877299Y-86541646D01*
X133907730Y-86544500D01*
X134250895Y-86544500D01*
X134317934Y-86564185D01*
X134363689Y-86616989D01*
X134373633Y-86686147D01*
X134344608Y-86749703D01*
X134326381Y-86766875D01*
X134316271Y-86774633D01*
X134294842Y-86791076D01*
X134266811Y-86807259D01*
X134176384Y-86844715D01*
X134145117Y-86853093D01*
X134060640Y-86864215D01*
X134039722Y-86866969D01*
X134031625Y-86867500D01*
X94568375Y-86867500D01*
X94560277Y-86866969D01*
X94536610Y-86863853D01*
X94454882Y-86853093D01*
X94423616Y-86844715D01*
X94333191Y-86807260D01*
X94305156Y-86791075D01*
X94220813Y-86726356D01*
X94214717Y-86721010D01*
X93581830Y-86088123D01*
X94144686Y-86088123D01*
X94480566Y-86424003D01*
X94518825Y-86453360D01*
X94542593Y-86463205D01*
X94590399Y-86469500D01*
X94603917Y-86469500D01*
X94751515Y-86321901D01*
X94796060Y-86255235D01*
X94809272Y-86188814D01*
X94809272Y-86188813D01*
X95522789Y-86188813D01*
X95536001Y-86255235D01*
X95580546Y-86321901D01*
X95728145Y-86469500D01*
X96018131Y-86469500D01*
X96117960Y-86369670D01*
X97042529Y-86369670D01*
X97142359Y-86469500D01*
X97432345Y-86469500D01*
X97579942Y-86321901D01*
X97581817Y-86319094D01*
X97574068Y-86296946D01*
X97572932Y-86293353D01*
X97569422Y-86280951D01*
X97568506Y-86277295D01*
X97562536Y-86249961D01*
X97561844Y-86246258D01*
X97559864Y-86233525D01*
X97559398Y-86229785D01*
X97554737Y-86180074D01*
X97554619Y-86178637D01*
X97554272Y-86173695D01*
X97554187Y-86172242D01*
X97553684Y-86161497D01*
X97553633Y-86160048D01*
X97553517Y-86155093D01*
X97553500Y-86153643D01*
X97553500Y-86029283D01*
X97420441Y-85896224D01*
X97353773Y-85851678D01*
X97287351Y-85838466D01*
X97223000Y-85851267D01*
X97223000Y-86111234D01*
X97220617Y-86135425D01*
X97210463Y-86186472D01*
X97191949Y-86231171D01*
X97153271Y-86289058D01*
X97119058Y-86323271D01*
X97061171Y-86361949D01*
X97042529Y-86369670D01*
X96117960Y-86369670D01*
X96165729Y-86321901D01*
X96210274Y-86255235D01*
X96223486Y-86188814D01*
X96210274Y-86122392D01*
X96165729Y-86055726D01*
X96006227Y-85896224D01*
X95939559Y-85851678D01*
X95873138Y-85838466D01*
X95806716Y-85851678D01*
X95740048Y-85896224D01*
X95580546Y-86055726D01*
X95536001Y-86122392D01*
X95522789Y-86188813D01*
X94809272Y-86188813D01*
X94796060Y-86122392D01*
X94751515Y-86055726D01*
X94592011Y-85896222D01*
X94525347Y-85851678D01*
X94458924Y-85838466D01*
X94392502Y-85851678D01*
X94325834Y-85896224D01*
X94166333Y-86055725D01*
X94144686Y-86088123D01*
X93581830Y-86088123D01*
X92874723Y-85381015D01*
X93437579Y-85381015D01*
X93852509Y-85795945D01*
X93884905Y-85774298D01*
X94044408Y-85614794D01*
X94088953Y-85548129D01*
X94102165Y-85481707D01*
X94815683Y-85481707D01*
X94828895Y-85548130D01*
X94873439Y-85614794D01*
X95032943Y-85774298D01*
X95099609Y-85818843D01*
X95166031Y-85832055D01*
X95232452Y-85818843D01*
X95299118Y-85774298D01*
X95458622Y-85614794D01*
X95503167Y-85548129D01*
X95516379Y-85481707D01*
X95503167Y-85415285D01*
X95458622Y-85348619D01*
X95299119Y-85189116D01*
X95232452Y-85144571D01*
X95166031Y-85131359D01*
X95099609Y-85144571D01*
X95032942Y-85189116D01*
X94873441Y-85348617D01*
X94828895Y-85415285D01*
X94815683Y-85481707D01*
X94102165Y-85481707D01*
X94088953Y-85415285D01*
X94044408Y-85348619D01*
X93884905Y-85189116D01*
X93818239Y-85144571D01*
X93751817Y-85131359D01*
X93685395Y-85144571D01*
X93618730Y-85189116D01*
X93459226Y-85348619D01*
X93437579Y-85381015D01*
X92874723Y-85381015D01*
X92729985Y-85236277D01*
X92724639Y-85230181D01*
X92659924Y-85145842D01*
X92643739Y-85117808D01*
X92606284Y-85027383D01*
X92597906Y-84996116D01*
X92584031Y-84890724D01*
X92583500Y-84882623D01*
X92583500Y-84860605D01*
X92981500Y-84860605D01*
X92987791Y-84908401D01*
X92997639Y-84932176D01*
X93026988Y-84970424D01*
X93145402Y-85088838D01*
X93177799Y-85067191D01*
X93337300Y-84907690D01*
X93381846Y-84841022D01*
X93395058Y-84774601D01*
X94108576Y-84774601D01*
X94121788Y-84841022D01*
X94166333Y-84907688D01*
X94325836Y-85067191D01*
X94392502Y-85111736D01*
X94458924Y-85124948D01*
X94525346Y-85111736D01*
X94592011Y-85067191D01*
X94751515Y-84907688D01*
X94796060Y-84841022D01*
X94809272Y-84774600D01*
X95522789Y-84774600D01*
X95536001Y-84841022D01*
X95580546Y-84907688D01*
X95740049Y-85067191D01*
X95777900Y-85092481D01*
X95776737Y-85080074D01*
X95776619Y-85078637D01*
X95776272Y-85073695D01*
X95776187Y-85072242D01*
X95775684Y-85061497D01*
X95775633Y-85060048D01*
X95775517Y-85055093D01*
X95775500Y-85053643D01*
X95775500Y-84907070D01*
X95552266Y-84683837D01*
X95536001Y-84708179D01*
X95522789Y-84774600D01*
X94809272Y-84774600D01*
X94796060Y-84708179D01*
X94751515Y-84641513D01*
X94592011Y-84482009D01*
X94525346Y-84437464D01*
X94458924Y-84424252D01*
X94392502Y-84437464D01*
X94325836Y-84482009D01*
X94166333Y-84641512D01*
X94121788Y-84708179D01*
X94108576Y-84774601D01*
X93395058Y-84774601D01*
X93381846Y-84708179D01*
X93337300Y-84641511D01*
X93177798Y-84482009D01*
X93111132Y-84437464D01*
X93044711Y-84424252D01*
X92981500Y-84436826D01*
X92981500Y-84860605D01*
X92583500Y-84860605D01*
X92583500Y-84067493D01*
X93401469Y-84067493D01*
X93414681Y-84133915D01*
X93459226Y-84200581D01*
X93618730Y-84360085D01*
X93685395Y-84404630D01*
X93751817Y-84417842D01*
X93818239Y-84404630D01*
X93884905Y-84360085D01*
X94044408Y-84200582D01*
X94088953Y-84133915D01*
X94102165Y-84067494D01*
X94815683Y-84067494D01*
X94828895Y-84133915D01*
X94873441Y-84200583D01*
X95032943Y-84360085D01*
X95099609Y-84404630D01*
X95166030Y-84417842D01*
X95232452Y-84404630D01*
X95256794Y-84388365D01*
X94845160Y-83976731D01*
X94828895Y-84001072D01*
X94815683Y-84067494D01*
X94102165Y-84067494D01*
X94088953Y-84001072D01*
X94044408Y-83934405D01*
X93884905Y-83774902D01*
X93818239Y-83730357D01*
X93751817Y-83717145D01*
X93685395Y-83730357D01*
X93618730Y-83774902D01*
X93459226Y-83934406D01*
X93414681Y-84001072D01*
X93401469Y-84067493D01*
X92583500Y-84067493D01*
X92583500Y-83698161D01*
X92981500Y-83698161D01*
X93044710Y-83710735D01*
X93111132Y-83697523D01*
X93177798Y-83652978D01*
X93337300Y-83493476D01*
X93381846Y-83426808D01*
X93395058Y-83360387D01*
X94108576Y-83360387D01*
X94121788Y-83426808D01*
X94166333Y-83493475D01*
X94325836Y-83652978D01*
X94392502Y-83697523D01*
X94458924Y-83710735D01*
X94525346Y-83697523D01*
X94549687Y-83681258D01*
X94287672Y-83419243D01*
X94245041Y-83406726D01*
X94240843Y-83405329D01*
X94226655Y-83400038D01*
X94222561Y-83398343D01*
X94192653Y-83384684D01*
X94188696Y-83382704D01*
X94175406Y-83375447D01*
X94171596Y-83373187D01*
X94113462Y-83335827D01*
X94108576Y-83360387D01*
X93395058Y-83360387D01*
X93395058Y-83360386D01*
X93381846Y-83293965D01*
X93337300Y-83227297D01*
X93177798Y-83067795D01*
X93111132Y-83023250D01*
X93044710Y-83010038D01*
X92981500Y-83022612D01*
X92981500Y-83698161D01*
X92583500Y-83698161D01*
X92583500Y-82653280D01*
X93401469Y-82653280D01*
X93414681Y-82719701D01*
X93459226Y-82786367D01*
X93618730Y-82945871D01*
X93685395Y-82990416D01*
X93751817Y-83003628D01*
X93795966Y-82994846D01*
X93742707Y-82878224D01*
X93741013Y-82874135D01*
X93735723Y-82859953D01*
X93734326Y-82855753D01*
X93725062Y-82824207D01*
X93723967Y-82819919D01*
X93720746Y-82805119D01*
X93719959Y-82800758D01*
X93695821Y-82632868D01*
X93695348Y-82628464D01*
X93694268Y-82613361D01*
X93694110Y-82608939D01*
X93694110Y-82576061D01*
X93694268Y-82571639D01*
X93695348Y-82556536D01*
X93695821Y-82552132D01*
X93719959Y-82384242D01*
X93720746Y-82379881D01*
X93723967Y-82365081D01*
X93725062Y-82360793D01*
X93734326Y-82329247D01*
X93735723Y-82325047D01*
X93741013Y-82310865D01*
X93742707Y-82306776D01*
X93743727Y-82304542D01*
X93685395Y-82316144D01*
X93618730Y-82360689D01*
X93459226Y-82520192D01*
X93414681Y-82586858D01*
X93401469Y-82653280D01*
X92583500Y-82653280D01*
X92583500Y-82283947D01*
X92981500Y-82283947D01*
X93044710Y-82296521D01*
X93111132Y-82283309D01*
X93177799Y-82238764D01*
X93337300Y-82079263D01*
X93381846Y-82012595D01*
X93395058Y-81946173D01*
X93381846Y-81879751D01*
X93339772Y-81816783D01*
X94163862Y-81816783D01*
X94171595Y-81811815D01*
X94175404Y-81809555D01*
X94188689Y-81802301D01*
X94192644Y-81800322D01*
X94222548Y-81786663D01*
X94226638Y-81784969D01*
X94240830Y-81779675D01*
X94245033Y-81778276D01*
X94407777Y-81730490D01*
X94412065Y-81729396D01*
X94426861Y-81726177D01*
X94431220Y-81725390D01*
X94463766Y-81720711D01*
X94468169Y-81720238D01*
X94483271Y-81719158D01*
X94487694Y-81719000D01*
X94657306Y-81719000D01*
X94657433Y-81719004D01*
X94592011Y-81653582D01*
X94525346Y-81609037D01*
X94458924Y-81595825D01*
X94392502Y-81609037D01*
X94325836Y-81653582D01*
X94166333Y-81813086D01*
X94163862Y-81816783D01*
X93339772Y-81816783D01*
X93337302Y-81813086D01*
X93177798Y-81653582D01*
X93111132Y-81609037D01*
X93044711Y-81595825D01*
X92981500Y-81608399D01*
X92981500Y-82283947D01*
X92583500Y-82283947D01*
X92583500Y-81239067D01*
X93401469Y-81239067D01*
X93414681Y-81305488D01*
X93459226Y-81372154D01*
X93618730Y-81531657D01*
X93685395Y-81576202D01*
X93751817Y-81589414D01*
X93818239Y-81576202D01*
X93884905Y-81531657D01*
X94044408Y-81372154D01*
X94088953Y-81305488D01*
X94102165Y-81239066D01*
X94815683Y-81239066D01*
X94828895Y-81305488D01*
X94873441Y-81372156D01*
X95032942Y-81531657D01*
X95099000Y-81575795D01*
X95099000Y-80902337D01*
X95032943Y-80946475D01*
X94873441Y-81105977D01*
X94828895Y-81172645D01*
X94815683Y-81239066D01*
X94102165Y-81239066D01*
X94088953Y-81172645D01*
X94044408Y-81105978D01*
X93884905Y-80946475D01*
X93818239Y-80901930D01*
X93751817Y-80888718D01*
X93685395Y-80901930D01*
X93618730Y-80946475D01*
X93459226Y-81105979D01*
X93414681Y-81172645D01*
X93401469Y-81239067D01*
X92583500Y-81239067D01*
X92583500Y-80869734D01*
X92981500Y-80869734D01*
X93044710Y-80882308D01*
X93111132Y-80869096D01*
X93177798Y-80824551D01*
X93337300Y-80665049D01*
X93381846Y-80598381D01*
X93395058Y-80531960D01*
X94108576Y-80531960D01*
X94121788Y-80598381D01*
X94166333Y-80665048D01*
X94325836Y-80824551D01*
X94392502Y-80869096D01*
X94458924Y-80882308D01*
X94525346Y-80869096D01*
X94592011Y-80824551D01*
X94751515Y-80665047D01*
X94796060Y-80598381D01*
X94809272Y-80531959D01*
X94796060Y-80465538D01*
X94751515Y-80398872D01*
X94592011Y-80239368D01*
X94525346Y-80194823D01*
X94458924Y-80181611D01*
X94392502Y-80194823D01*
X94325836Y-80239368D01*
X94166333Y-80398871D01*
X94121788Y-80465538D01*
X94108576Y-80531960D01*
X93395058Y-80531960D01*
X93395058Y-80531959D01*
X93381846Y-80465538D01*
X93337300Y-80398870D01*
X93177798Y-80239368D01*
X93111132Y-80194823D01*
X93044711Y-80181611D01*
X92981500Y-80194185D01*
X92981500Y-80869734D01*
X92583500Y-80869734D01*
X92583500Y-79824852D01*
X93401469Y-79824852D01*
X93414681Y-79891274D01*
X93459226Y-79957940D01*
X93618730Y-80117444D01*
X93685395Y-80161989D01*
X93751817Y-80175201D01*
X93818239Y-80161989D01*
X93884905Y-80117444D01*
X94044408Y-79957941D01*
X94088953Y-79891274D01*
X94102165Y-79824853D01*
X94815683Y-79824853D01*
X94828895Y-79891274D01*
X94873441Y-79957942D01*
X95032943Y-80117444D01*
X95099000Y-80161582D01*
X95099000Y-79488125D01*
X95032941Y-79532263D01*
X94873441Y-79691763D01*
X94828895Y-79758431D01*
X94815683Y-79824853D01*
X94102165Y-79824853D01*
X94088953Y-79758431D01*
X94044408Y-79691764D01*
X93884907Y-79532263D01*
X93818239Y-79487717D01*
X93751817Y-79474505D01*
X93685394Y-79487717D01*
X93618730Y-79532261D01*
X93459226Y-79691765D01*
X93414681Y-79758431D01*
X93401469Y-79824852D01*
X92583500Y-79824852D01*
X92583500Y-79455520D01*
X92981500Y-79455520D01*
X93044710Y-79468094D01*
X93111132Y-79454882D01*
X93177798Y-79410337D01*
X93337302Y-79250833D01*
X93381846Y-79184168D01*
X93395058Y-79117746D01*
X94108576Y-79117746D01*
X94121788Y-79184168D01*
X94166333Y-79250833D01*
X94325836Y-79410337D01*
X94392502Y-79454882D01*
X94458924Y-79468094D01*
X94525346Y-79454882D01*
X94592011Y-79410337D01*
X94751515Y-79250833D01*
X94796060Y-79184168D01*
X94809272Y-79117746D01*
X94796060Y-79051324D01*
X94751515Y-78984658D01*
X94592011Y-78825155D01*
X94525346Y-78780610D01*
X94458924Y-78767398D01*
X94392502Y-78780610D01*
X94325836Y-78825155D01*
X94166333Y-78984658D01*
X94121788Y-79051324D01*
X94108576Y-79117746D01*
X93395058Y-79117746D01*
X93381846Y-79051324D01*
X93337300Y-78984656D01*
X93177799Y-78825155D01*
X93111132Y-78780610D01*
X93044710Y-78767398D01*
X92981500Y-78779972D01*
X92981500Y-79455520D01*
X92583500Y-79455520D01*
X92583500Y-78410639D01*
X93401469Y-78410639D01*
X93414681Y-78477061D01*
X93459226Y-78543727D01*
X93618730Y-78703230D01*
X93685395Y-78747775D01*
X93751817Y-78760987D01*
X93818239Y-78747775D01*
X93884905Y-78703230D01*
X94044408Y-78543727D01*
X94088953Y-78477061D01*
X94102165Y-78410639D01*
X94815683Y-78410639D01*
X94828895Y-78477061D01*
X94873441Y-78543729D01*
X95032942Y-78703230D01*
X95099000Y-78747368D01*
X95099000Y-78073910D01*
X95032943Y-78118048D01*
X94873439Y-78277552D01*
X94828895Y-78344216D01*
X94815683Y-78410639D01*
X94102165Y-78410639D01*
X94088953Y-78344217D01*
X94044408Y-78277552D01*
X93884905Y-78118048D01*
X93818239Y-78073503D01*
X93751817Y-78060291D01*
X93685395Y-78073503D01*
X93618730Y-78118048D01*
X93459226Y-78277552D01*
X93414681Y-78344217D01*
X93401469Y-78410639D01*
X92583500Y-78410639D01*
X92583500Y-78041306D01*
X92981500Y-78041306D01*
X93044710Y-78053880D01*
X93111132Y-78040668D01*
X93177800Y-77996122D01*
X93337300Y-77836622D01*
X93381846Y-77769954D01*
X93395058Y-77703533D01*
X93395058Y-77703532D01*
X94108576Y-77703532D01*
X94121788Y-77769954D01*
X94166333Y-77836621D01*
X94325834Y-77996122D01*
X94392502Y-78040668D01*
X94458924Y-78053880D01*
X94525347Y-78040668D01*
X94592011Y-77996124D01*
X94751515Y-77836620D01*
X94796060Y-77769954D01*
X94809272Y-77703533D01*
X94796060Y-77637111D01*
X94751515Y-77570445D01*
X94592011Y-77410941D01*
X94525346Y-77366396D01*
X94458924Y-77353184D01*
X94392502Y-77366396D01*
X94325836Y-77410941D01*
X94166333Y-77570444D01*
X94121788Y-77637111D01*
X94108576Y-77703532D01*
X93395058Y-77703532D01*
X93381846Y-77637111D01*
X93337300Y-77570443D01*
X93177798Y-77410941D01*
X93111132Y-77366396D01*
X93044710Y-77353184D01*
X92981500Y-77365758D01*
X92981500Y-78041306D01*
X92583500Y-78041306D01*
X92583500Y-76996426D01*
X93401469Y-76996426D01*
X93414681Y-77062847D01*
X93459226Y-77129513D01*
X93618730Y-77289017D01*
X93685395Y-77333562D01*
X93751817Y-77346774D01*
X93818239Y-77333562D01*
X93884905Y-77289017D01*
X94044408Y-77129514D01*
X94088953Y-77062847D01*
X94102165Y-76996425D01*
X94088953Y-76930004D01*
X94044408Y-76863337D01*
X93884905Y-76703834D01*
X93818239Y-76659289D01*
X93751817Y-76646077D01*
X93685395Y-76659289D01*
X93618730Y-76703834D01*
X93459226Y-76863338D01*
X93414681Y-76930004D01*
X93401469Y-76996426D01*
X92583500Y-76996426D01*
X92583500Y-76627093D01*
X92981500Y-76627093D01*
X93044711Y-76639667D01*
X93111132Y-76626455D01*
X93177798Y-76581910D01*
X93337300Y-76422408D01*
X93381846Y-76355740D01*
X93395058Y-76289319D01*
X93381846Y-76222897D01*
X93337300Y-76156229D01*
X93177799Y-75996728D01*
X93111132Y-75952183D01*
X93044710Y-75938971D01*
X92991086Y-75949638D01*
X93002864Y-76039094D01*
X92992098Y-76108129D01*
X92981500Y-76124892D01*
X92981500Y-76627093D01*
X92583500Y-76627093D01*
X92583500Y-76011382D01*
X92593360Y-75977801D01*
X92584031Y-75906939D01*
X92583500Y-75898837D01*
X92583500Y-75716855D01*
X92583538Y-75716665D01*
X92583540Y-75692002D01*
X92583542Y-75692000D01*
X92583424Y-75691716D01*
X92583423Y-75691715D01*
X92583383Y-75691617D01*
X92583381Y-75691616D01*
X92583381Y-75691615D01*
X92566279Y-75674425D01*
X92565839Y-75674131D01*
X92540342Y-75648634D01*
X92437085Y-75545377D01*
X92431741Y-75539282D01*
X92394925Y-75491303D01*
X92394352Y-75491225D01*
X92357518Y-75465810D01*
X91793187Y-74901479D01*
X91776415Y-74870765D01*
X91719714Y-74827256D01*
X91713618Y-74821910D01*
X91578587Y-74686879D01*
X91567381Y-74675615D01*
X91567218Y-74675548D01*
X91567001Y-74675458D01*
X91567000Y-74675458D01*
X91566999Y-74675458D01*
X91542334Y-74675461D01*
X91542145Y-74675500D01*
X91360163Y-74675500D01*
X91352061Y-74674969D01*
X91292097Y-74667074D01*
X91291638Y-74667423D01*
X91247617Y-74675500D01*
X86186375Y-74675500D01*
X86178277Y-74674969D01*
X86154610Y-74671853D01*
X86072882Y-74661093D01*
X86041616Y-74652715D01*
X85951191Y-74615260D01*
X85923156Y-74599075D01*
X85838817Y-74534359D01*
X85832721Y-74529013D01*
X85471707Y-74167999D01*
X86330401Y-74167999D01*
X86343613Y-74234420D01*
X86372399Y-74277500D01*
X86989101Y-74277500D01*
X87017885Y-74234420D01*
X87031097Y-74167999D01*
X87744615Y-74167999D01*
X87757827Y-74234420D01*
X87786613Y-74277500D01*
X88403314Y-74277500D01*
X88432099Y-74234420D01*
X88445311Y-74167999D01*
X89158828Y-74167999D01*
X89172040Y-74234420D01*
X89200826Y-74277500D01*
X89817528Y-74277500D01*
X89846313Y-74234420D01*
X89859525Y-74167999D01*
X90573042Y-74167999D01*
X90586254Y-74234420D01*
X90615040Y-74277500D01*
X91138533Y-74277500D01*
X91189370Y-74255910D01*
X91219908Y-74256137D01*
X91243904Y-74259296D01*
X91260526Y-74234420D01*
X91273738Y-74167999D01*
X91260526Y-74101577D01*
X91215981Y-74034910D01*
X91056478Y-73875407D01*
X90989812Y-73830862D01*
X90923390Y-73817650D01*
X90856968Y-73830862D01*
X90790302Y-73875407D01*
X90630799Y-74034910D01*
X90586254Y-74101577D01*
X90573042Y-74167999D01*
X89859525Y-74167999D01*
X89846313Y-74101577D01*
X89801768Y-74034911D01*
X89642264Y-73875407D01*
X89575598Y-73830862D01*
X89509177Y-73817650D01*
X89442755Y-73830862D01*
X89376089Y-73875407D01*
X89216585Y-74034911D01*
X89172040Y-74101577D01*
X89158828Y-74167999D01*
X88445311Y-74167999D01*
X88445311Y-74167998D01*
X88432099Y-74101577D01*
X88387554Y-74034911D01*
X88228050Y-73875407D01*
X88170252Y-73836787D01*
X88160885Y-73842808D01*
X88128779Y-73857470D01*
X87990824Y-73897977D01*
X87955889Y-73903000D01*
X87934283Y-73903000D01*
X87802372Y-74034910D01*
X87757827Y-74101577D01*
X87744615Y-74167999D01*
X87031097Y-74167999D01*
X87031097Y-74167998D01*
X87017885Y-74101577D01*
X86973339Y-74034909D01*
X86813837Y-73875407D01*
X86747171Y-73830862D01*
X86680750Y-73817650D01*
X86614328Y-73830862D01*
X86547662Y-73875407D01*
X86388158Y-74034911D01*
X86343613Y-74101577D01*
X86330401Y-74167999D01*
X85471707Y-74167999D01*
X85109984Y-73806276D01*
X85104639Y-73800181D01*
X85039924Y-73715842D01*
X85023739Y-73687808D01*
X84986284Y-73597383D01*
X84977906Y-73566116D01*
X84964053Y-73460892D01*
X85623294Y-73460892D01*
X85636506Y-73527313D01*
X85681051Y-73593979D01*
X85840555Y-73753483D01*
X85907221Y-73798028D01*
X85973643Y-73811240D01*
X86040064Y-73798028D01*
X86106730Y-73753483D01*
X86266234Y-73593979D01*
X86310779Y-73527313D01*
X86323991Y-73460892D01*
X87037508Y-73460892D01*
X87050720Y-73527313D01*
X87095265Y-73593979D01*
X87254769Y-73753483D01*
X87321434Y-73798028D01*
X87387856Y-73811240D01*
X87454278Y-73798028D01*
X87495047Y-73770786D01*
X87486163Y-73765077D01*
X87459489Y-73741963D01*
X87365335Y-73633302D01*
X87346254Y-73603612D01*
X87305597Y-73514586D01*
X88462403Y-73514586D01*
X88464934Y-73527313D01*
X88509480Y-73593981D01*
X88668982Y-73753483D01*
X88735648Y-73798028D01*
X88802070Y-73811240D01*
X88868491Y-73798028D01*
X88935157Y-73753483D01*
X89094661Y-73593979D01*
X89139206Y-73527313D01*
X89152418Y-73460891D01*
X89139206Y-73394470D01*
X89094661Y-73327804D01*
X88935159Y-73168302D01*
X88868491Y-73123756D01*
X88855288Y-73121130D01*
X88806171Y-73153949D01*
X88761472Y-73172463D01*
X88710425Y-73182617D01*
X88686234Y-73185000D01*
X88652283Y-73185000D01*
X88509478Y-73327804D01*
X88506829Y-73331768D01*
X88491418Y-73438962D01*
X88481474Y-73472828D01*
X88462403Y-73514586D01*
X87305597Y-73514586D01*
X87286526Y-73472827D01*
X87276582Y-73438962D01*
X87256120Y-73296647D01*
X87256120Y-73261353D01*
X87271064Y-73157412D01*
X87254769Y-73168300D01*
X87095265Y-73327804D01*
X87050720Y-73394470D01*
X87037508Y-73460892D01*
X86323991Y-73460892D01*
X86323991Y-73460891D01*
X86310779Y-73394470D01*
X86266234Y-73327804D01*
X86106732Y-73168302D01*
X86040064Y-73123756D01*
X85973642Y-73110544D01*
X85907221Y-73123756D01*
X85840553Y-73168302D01*
X85681051Y-73327804D01*
X85636506Y-73394470D01*
X85623294Y-73460892D01*
X84964053Y-73460892D01*
X84964031Y-73460724D01*
X84963500Y-73452623D01*
X84963500Y-72435721D01*
X85361500Y-72435721D01*
X85361500Y-73071849D01*
X85399623Y-73046376D01*
X85559127Y-72886872D01*
X85603672Y-72820207D01*
X85616884Y-72753785D01*
X86330401Y-72753785D01*
X86343613Y-72820207D01*
X86388158Y-72886872D01*
X86547662Y-73046376D01*
X86614328Y-73090921D01*
X86680750Y-73104133D01*
X86747171Y-73090921D01*
X86813837Y-73046376D01*
X86973341Y-72886872D01*
X87017885Y-72820208D01*
X87031097Y-72753785D01*
X87017885Y-72687363D01*
X86973339Y-72620695D01*
X86813838Y-72461194D01*
X86747171Y-72416649D01*
X86680750Y-72403437D01*
X86614328Y-72416649D01*
X86547661Y-72461194D01*
X86388158Y-72620697D01*
X86343613Y-72687363D01*
X86330401Y-72753785D01*
X85616884Y-72753785D01*
X85603672Y-72687363D01*
X85559127Y-72620697D01*
X85399624Y-72461194D01*
X85361500Y-72435721D01*
X84963500Y-72435721D01*
X84963500Y-72046678D01*
X85623294Y-72046678D01*
X85636506Y-72113100D01*
X85681051Y-72179766D01*
X85840554Y-72339269D01*
X85907221Y-72383814D01*
X85973642Y-72397026D01*
X86040064Y-72383814D01*
X86106731Y-72339269D01*
X86266234Y-72179766D01*
X86310779Y-72113100D01*
X86323991Y-72046678D01*
X87037508Y-72046678D01*
X87050720Y-72113100D01*
X87095265Y-72179766D01*
X87254769Y-72339269D01*
X87321434Y-72383814D01*
X87387856Y-72397026D01*
X87454278Y-72383814D01*
X87520944Y-72339269D01*
X87637066Y-72223147D01*
X87635748Y-72221362D01*
X87633136Y-72217530D01*
X87624695Y-72204097D01*
X87622376Y-72200079D01*
X87606279Y-72169622D01*
X87604267Y-72165444D01*
X87597924Y-72150906D01*
X87596230Y-72146589D01*
X87541068Y-71988947D01*
X87539932Y-71985354D01*
X87536422Y-71972951D01*
X87535506Y-71969295D01*
X87529536Y-71941961D01*
X87528844Y-71938258D01*
X87526864Y-71925525D01*
X87526398Y-71921785D01*
X87521737Y-71872074D01*
X87521619Y-71870637D01*
X87521272Y-71865695D01*
X87521187Y-71864242D01*
X87520684Y-71853497D01*
X87520633Y-71852048D01*
X87520517Y-71847093D01*
X87520500Y-71845643D01*
X87520500Y-71753790D01*
X87454278Y-71709542D01*
X87387856Y-71696330D01*
X87321434Y-71709542D01*
X87254769Y-71754087D01*
X87095265Y-71913591D01*
X87050720Y-71980256D01*
X87037508Y-72046678D01*
X86323991Y-72046678D01*
X86310779Y-71980256D01*
X86266234Y-71913591D01*
X86106730Y-71754087D01*
X86040064Y-71709542D01*
X85973642Y-71696330D01*
X85907221Y-71709542D01*
X85840555Y-71754087D01*
X85681051Y-71913591D01*
X85636506Y-71980256D01*
X85623294Y-72046678D01*
X84963500Y-72046678D01*
X84963500Y-71657635D01*
X85361500Y-71657635D01*
X85399625Y-71632161D01*
X85559127Y-71472659D01*
X85603672Y-71405993D01*
X85616884Y-71339572D01*
X86330401Y-71339572D01*
X86343613Y-71405993D01*
X86388158Y-71472659D01*
X86547660Y-71632161D01*
X86614328Y-71676707D01*
X86680750Y-71689919D01*
X86747171Y-71676707D01*
X86813839Y-71632161D01*
X86973339Y-71472661D01*
X87017885Y-71405993D01*
X87031097Y-71339572D01*
X87017885Y-71273150D01*
X86973339Y-71206482D01*
X86813837Y-71046980D01*
X86747171Y-71002435D01*
X86680749Y-70989223D01*
X86614328Y-71002435D01*
X86547662Y-71046980D01*
X86388158Y-71206484D01*
X86343613Y-71273150D01*
X86330401Y-71339572D01*
X85616884Y-71339572D01*
X85603672Y-71273150D01*
X85559127Y-71206484D01*
X85399623Y-71046980D01*
X85374891Y-71030455D01*
X85367792Y-71047595D01*
X85361500Y-71095391D01*
X85361500Y-71657635D01*
X84963500Y-71657635D01*
X84963500Y-71073375D01*
X84964031Y-71065273D01*
X84964219Y-71063850D01*
X84977906Y-70959882D01*
X84986284Y-70928615D01*
X85023740Y-70838188D01*
X85039925Y-70810155D01*
X85099009Y-70733155D01*
X85659404Y-70733155D01*
X85681051Y-70765552D01*
X85840555Y-70925056D01*
X85907221Y-70969601D01*
X85973643Y-70982813D01*
X86040064Y-70969601D01*
X86106730Y-70925056D01*
X86266234Y-70765552D01*
X86310779Y-70698886D01*
X86323991Y-70632465D01*
X86323991Y-70632464D01*
X87037508Y-70632464D01*
X87050720Y-70698886D01*
X87095265Y-70765552D01*
X87254769Y-70925056D01*
X87321434Y-70969601D01*
X87387856Y-70982813D01*
X87454278Y-70969601D01*
X87520944Y-70925056D01*
X87680447Y-70765553D01*
X87724992Y-70698886D01*
X87738204Y-70632465D01*
X87724992Y-70566043D01*
X87705920Y-70537500D01*
X88484007Y-70537500D01*
X88728643Y-70537500D01*
X88730093Y-70537517D01*
X88735048Y-70537633D01*
X88736497Y-70537684D01*
X88747242Y-70538187D01*
X88748695Y-70538272D01*
X88753637Y-70538619D01*
X88755074Y-70538737D01*
X88804785Y-70543398D01*
X88808525Y-70543864D01*
X88821258Y-70545844D01*
X88824961Y-70546536D01*
X88852295Y-70552506D01*
X88855951Y-70553422D01*
X88868354Y-70556932D01*
X88871947Y-70558068D01*
X89029589Y-70613230D01*
X89033906Y-70614924D01*
X89048444Y-70621267D01*
X89052622Y-70623279D01*
X89083079Y-70639376D01*
X89087097Y-70641695D01*
X89100530Y-70650136D01*
X89104362Y-70652749D01*
X89142748Y-70681078D01*
X89152418Y-70632465D01*
X89139206Y-70566043D01*
X89094661Y-70499377D01*
X88935157Y-70339873D01*
X88868491Y-70295328D01*
X88802070Y-70282116D01*
X88735648Y-70295328D01*
X88668982Y-70339873D01*
X88509480Y-70499375D01*
X88484007Y-70537500D01*
X87705920Y-70537500D01*
X87680447Y-70499376D01*
X87520944Y-70339873D01*
X87454278Y-70295328D01*
X87387856Y-70282116D01*
X87321434Y-70295328D01*
X87254769Y-70339873D01*
X87095265Y-70499377D01*
X87050720Y-70566043D01*
X87037508Y-70632464D01*
X86323991Y-70632464D01*
X86310779Y-70566043D01*
X86266234Y-70499377D01*
X86106730Y-70339873D01*
X86074334Y-70318226D01*
X85659404Y-70733155D01*
X85099009Y-70733155D01*
X85104647Y-70725808D01*
X85109967Y-70719740D01*
X85832740Y-69996967D01*
X85838808Y-69991647D01*
X85846325Y-69985879D01*
X91999294Y-69985879D01*
X92000467Y-69991779D01*
X92036989Y-70046437D01*
X92458683Y-69624743D01*
X92404025Y-69588222D01*
X92394276Y-69586283D01*
X92151748Y-69828812D01*
X92131071Y-69880023D01*
X92109314Y-69901459D01*
X91999294Y-69985879D01*
X85846325Y-69985879D01*
X85923157Y-69926923D01*
X85951186Y-69910740D01*
X86041616Y-69873283D01*
X86072882Y-69864906D01*
X86178276Y-69851030D01*
X86186376Y-69850500D01*
X91247617Y-69850500D01*
X91281197Y-69860360D01*
X91352061Y-69851031D01*
X91360163Y-69850500D01*
X91542145Y-69850500D01*
X91542334Y-69850538D01*
X91566997Y-69850540D01*
X91567000Y-69850542D01*
X91567284Y-69850424D01*
X91567284Y-69850423D01*
X91567414Y-69850370D01*
X91569654Y-69849464D01*
X91575831Y-69841934D01*
X91585147Y-69832618D01*
X91585260Y-69832446D01*
X91713627Y-69704079D01*
X91719715Y-69698741D01*
X91767692Y-69661926D01*
X91767771Y-69661358D01*
X91793185Y-69624521D01*
X92135928Y-69281778D01*
X92706998Y-69281778D01*
X92707574Y-69284673D01*
X92744095Y-69339331D01*
X93165790Y-68917636D01*
X93111132Y-68881115D01*
X93044711Y-68867903D01*
X92980819Y-68880612D01*
X92979062Y-68898186D01*
X92974985Y-68918534D01*
X92971580Y-68917851D01*
X92970849Y-68926049D01*
X92973380Y-68926549D01*
X92973334Y-68926782D01*
X92969722Y-68938693D01*
X92969387Y-68942452D01*
X92968541Y-68944550D01*
X92966322Y-68949904D01*
X92966187Y-68950352D01*
X92951493Y-68985707D01*
X92951494Y-68985708D01*
X92935833Y-69023523D01*
X92924223Y-69045189D01*
X92907569Y-69069998D01*
X92891913Y-69088949D01*
X92857251Y-69123309D01*
X92734095Y-69246465D01*
X92706998Y-69281778D01*
X92135928Y-69281778D01*
X92357520Y-69060186D01*
X92388232Y-69043416D01*
X92431741Y-68986715D01*
X92437079Y-68980627D01*
X92576744Y-68840962D01*
X92583379Y-68834384D01*
X92583383Y-68834383D01*
X92583424Y-68834284D01*
X92583425Y-68834282D01*
X92583426Y-68834282D01*
X92583453Y-68834213D01*
X92583542Y-68834000D01*
X92583541Y-68833998D01*
X92583542Y-68833997D01*
X92583580Y-68809774D01*
X92583500Y-68809368D01*
X92583500Y-68627162D01*
X92584031Y-68619060D01*
X92591925Y-68559096D01*
X92591577Y-68558637D01*
X92583500Y-68514616D01*
X92583500Y-68511145D01*
X93401469Y-68511145D01*
X93414681Y-68577566D01*
X93451202Y-68632223D01*
X93774500Y-68308926D01*
X93774500Y-68165308D01*
X93751817Y-68160796D01*
X93685395Y-68174008D01*
X93618730Y-68218553D01*
X93459226Y-68378057D01*
X93414681Y-68444723D01*
X93401469Y-68511145D01*
X92583500Y-68511145D01*
X92583500Y-68141812D01*
X92981500Y-68141812D01*
X93044710Y-68154386D01*
X93111132Y-68141174D01*
X93177798Y-68096629D01*
X93337300Y-67937127D01*
X93381846Y-67870459D01*
X93395058Y-67804037D01*
X93381846Y-67737616D01*
X93337300Y-67670948D01*
X93177798Y-67511446D01*
X93111132Y-67466901D01*
X93044711Y-67453689D01*
X92981500Y-67466263D01*
X92981500Y-68141812D01*
X92583500Y-68141812D01*
X92583500Y-67096930D01*
X93401469Y-67096930D01*
X93414681Y-67163352D01*
X93459226Y-67230018D01*
X93618730Y-67389522D01*
X93685395Y-67434067D01*
X93751817Y-67447279D01*
X93818239Y-67434067D01*
X93873267Y-67397298D01*
X93883569Y-67375205D01*
X93885190Y-67371978D01*
X93891046Y-67361117D01*
X93892849Y-67357994D01*
X93999626Y-67184883D01*
X94001608Y-67181869D01*
X94008686Y-67171762D01*
X94010840Y-67168868D01*
X94027451Y-67147861D01*
X94029771Y-67145096D01*
X94037971Y-67135883D01*
X94040444Y-67133261D01*
X94097952Y-67075751D01*
X94088953Y-67030509D01*
X94044408Y-66963843D01*
X94029522Y-66948957D01*
X94027349Y-66947074D01*
X94024110Y-66944058D01*
X94013405Y-66933354D01*
X94010390Y-66930116D01*
X94008508Y-66927944D01*
X93884902Y-66804337D01*
X93818239Y-66759794D01*
X93751817Y-66746582D01*
X93685395Y-66759794D01*
X93618730Y-66804339D01*
X93459226Y-66963843D01*
X93414681Y-67030509D01*
X93401469Y-67096930D01*
X92583500Y-67096930D01*
X92583500Y-66727598D01*
X92981500Y-66727598D01*
X93044710Y-66740172D01*
X93111132Y-66726960D01*
X93177798Y-66682415D01*
X93337302Y-66522911D01*
X93381846Y-66456246D01*
X93395058Y-66389824D01*
X93381846Y-66323402D01*
X93337300Y-66256734D01*
X93177799Y-66097233D01*
X93111132Y-66052688D01*
X93044710Y-66039476D01*
X92981500Y-66052050D01*
X92981500Y-66727598D01*
X92583500Y-66727598D01*
X92583500Y-65682717D01*
X93401469Y-65682717D01*
X93414681Y-65749139D01*
X93459226Y-65815805D01*
X93618730Y-65975308D01*
X93685395Y-66019853D01*
X93751817Y-66033065D01*
X93777772Y-66027902D01*
X93778223Y-66026547D01*
X93783513Y-66012365D01*
X93785207Y-66008276D01*
X93855665Y-65853995D01*
X93857645Y-65850041D01*
X93864900Y-65836750D01*
X93867162Y-65832938D01*
X93884939Y-65805278D01*
X93887462Y-65801644D01*
X93896536Y-65789522D01*
X93899315Y-65786073D01*
X94010387Y-65657888D01*
X94013404Y-65654647D01*
X94024110Y-65643942D01*
X94027349Y-65640926D01*
X94052197Y-65619395D01*
X94055642Y-65616618D01*
X94067765Y-65607542D01*
X94071405Y-65605014D01*
X94078407Y-65600513D01*
X94044408Y-65549630D01*
X93884905Y-65390126D01*
X93818239Y-65345581D01*
X93751817Y-65332369D01*
X93685395Y-65345581D01*
X93618730Y-65390126D01*
X93459226Y-65549630D01*
X93414681Y-65616295D01*
X93401469Y-65682717D01*
X92583500Y-65682717D01*
X92583500Y-65313384D01*
X92981500Y-65313384D01*
X93044711Y-65325958D01*
X93111132Y-65312746D01*
X93177800Y-65268200D01*
X93337300Y-65108700D01*
X93381846Y-65042032D01*
X93395058Y-64975611D01*
X94108576Y-64975611D01*
X94121788Y-65042032D01*
X94166333Y-65108699D01*
X94325834Y-65268200D01*
X94392502Y-65312746D01*
X94458923Y-65325958D01*
X94474582Y-65322843D01*
X94628443Y-65168983D01*
X94451218Y-65118273D01*
X94448225Y-65117334D01*
X94438055Y-65113859D01*
X94435100Y-65112765D01*
X94413439Y-65104111D01*
X94410553Y-65102872D01*
X94400795Y-65098388D01*
X94397977Y-65097005D01*
X94205153Y-64996283D01*
X94202409Y-64994760D01*
X94193147Y-64989309D01*
X94190475Y-64987643D01*
X94171003Y-64974809D01*
X94168427Y-64973016D01*
X94159769Y-64966659D01*
X94157284Y-64964735D01*
X94117235Y-64932079D01*
X94108576Y-64975611D01*
X93395058Y-64975611D01*
X93395058Y-64975610D01*
X93381846Y-64909189D01*
X93337300Y-64842521D01*
X93177798Y-64683019D01*
X93111132Y-64638474D01*
X93044710Y-64625262D01*
X92981500Y-64637836D01*
X92981500Y-65313384D01*
X92583500Y-65313384D01*
X92583500Y-64268504D01*
X93401469Y-64268504D01*
X93414681Y-64334925D01*
X93459226Y-64401591D01*
X93618730Y-64561095D01*
X93685395Y-64605640D01*
X93751817Y-64618852D01*
X93803550Y-64608561D01*
X93802384Y-64606973D01*
X93800591Y-64604397D01*
X93787757Y-64584925D01*
X93786091Y-64582253D01*
X93780640Y-64572991D01*
X93779117Y-64570247D01*
X93678395Y-64377423D01*
X93677012Y-64374605D01*
X93672528Y-64364847D01*
X93671289Y-64361961D01*
X93662635Y-64340300D01*
X93661541Y-64337345D01*
X93658066Y-64327175D01*
X93657127Y-64324182D01*
X93597482Y-64115734D01*
X93596741Y-64112890D01*
X93594433Y-64103090D01*
X93593825Y-64100204D01*
X93589830Y-64078705D01*
X93589361Y-64075796D01*
X93587993Y-64065812D01*
X93587663Y-64062885D01*
X93583098Y-64011544D01*
X93459226Y-64135416D01*
X93414681Y-64202082D01*
X93401469Y-64268504D01*
X92583500Y-64268504D01*
X92583500Y-64027512D01*
X92584031Y-64019410D01*
X92597906Y-63914020D01*
X92606284Y-63882752D01*
X92643740Y-63792325D01*
X92659925Y-63764292D01*
X92724650Y-63679940D01*
X92729970Y-63673873D01*
X94214736Y-62189107D01*
X94220803Y-62183787D01*
X94305157Y-62119060D01*
X94333186Y-62102877D01*
X94423616Y-62065420D01*
X94454882Y-62057043D01*
X94560276Y-62043167D01*
X94568376Y-62042637D01*
X136063624Y-62042637D01*
X136071722Y-62043167D01*
G37*
%TD.AperFunction*%
%TD*%
%TA.AperFunction,NonConductor*%
G36*
X134917703Y-64090657D02*
G01*
X134942036Y-64119269D01*
X134968190Y-64161671D01*
X134971341Y-64166779D01*
X135096221Y-64291659D01*
X135096225Y-64291662D01*
X135246529Y-64384372D01*
X135246532Y-64384373D01*
X135246538Y-64384377D01*
X135414185Y-64439929D01*
X135517658Y-64450500D01*
X135517663Y-64450500D01*
X136008337Y-64450500D01*
X136008342Y-64450500D01*
X136111815Y-64439929D01*
X136279462Y-64384377D01*
X136429778Y-64291660D01*
X136554660Y-64166778D01*
X136554667Y-64166766D01*
X136557231Y-64163525D01*
X136559567Y-64161870D01*
X136559767Y-64161671D01*
X136559801Y-64161705D01*
X136614252Y-64123147D01*
X136684051Y-64120006D01*
X136744468Y-64155099D01*
X136776320Y-64217286D01*
X136778500Y-64240433D01*
X136778500Y-64396731D01*
X136777969Y-64404832D01*
X136764093Y-64510224D01*
X136755715Y-64541491D01*
X136718259Y-64631918D01*
X136702074Y-64659951D01*
X136642491Y-64737601D01*
X136619601Y-64760491D01*
X136541951Y-64820074D01*
X136513918Y-64836259D01*
X136423491Y-64873715D01*
X136392224Y-64882093D01*
X136307747Y-64893215D01*
X136286829Y-64895969D01*
X136278732Y-64896500D01*
X134508218Y-64896500D01*
X134441179Y-64876815D01*
X134395424Y-64824011D01*
X134385480Y-64754853D01*
X134414505Y-64691297D01*
X134467260Y-64655459D01*
X134474882Y-64652793D01*
X134584150Y-64572150D01*
X134664793Y-64462882D01*
X134692265Y-64384372D01*
X134709646Y-64334701D01*
X134709646Y-64334699D01*
X134712500Y-64304269D01*
X134712500Y-64184370D01*
X134732185Y-64117331D01*
X134784989Y-64071576D01*
X134854147Y-64061632D01*
X134917703Y-64090657D01*
G37*
%TD.AperFunction*%
%TA.AperFunction,NonConductor*%
G36*
X97118282Y-64949944D02*
G01*
X97131240Y-64955639D01*
X97149450Y-64964917D01*
X97166036Y-64975081D01*
X97183156Y-64987519D01*
X97203277Y-64994056D01*
X97221257Y-65001504D01*
X97240107Y-65011109D01*
X97261002Y-65014419D01*
X97279921Y-65018960D01*
X97284239Y-65020362D01*
X97300046Y-65025499D01*
X97328410Y-65025499D01*
X97328434Y-65025500D01*
X97330967Y-65025500D01*
X98631431Y-65025500D01*
X98698470Y-65045185D01*
X98744225Y-65097989D01*
X98754169Y-65167147D01*
X98725144Y-65230703D01*
X98719112Y-65237181D01*
X96618484Y-67337808D01*
X96557161Y-67371293D01*
X96487469Y-67366309D01*
X96449041Y-67343353D01*
X96440738Y-67336071D01*
X96403316Y-67277068D01*
X96398500Y-67242845D01*
X96398500Y-66389824D01*
X96937003Y-66389824D01*
X96948054Y-66445380D01*
X97342908Y-66050527D01*
X97287351Y-66039476D01*
X97220929Y-66052688D01*
X97154264Y-66097233D01*
X96994760Y-66256736D01*
X96950215Y-66323402D01*
X96937003Y-66389824D01*
X96398500Y-66389824D01*
X96398500Y-65682717D01*
X97644110Y-65682717D01*
X97655161Y-65738274D01*
X97969935Y-65423500D01*
X97827997Y-65423500D01*
X97701867Y-65549630D01*
X97657322Y-65616295D01*
X97644110Y-65682717D01*
X96398500Y-65682717D01*
X96398500Y-65618576D01*
X96418185Y-65551537D01*
X96434819Y-65530895D01*
X96652968Y-65312746D01*
X96895436Y-65070278D01*
X96895447Y-65070268D01*
X96940217Y-65025498D01*
X96987269Y-64978445D01*
X97048591Y-64944960D01*
X97118282Y-64949944D01*
G37*
%TD.AperFunction*%
%TA.AperFunction,NonConductor*%
G36*
X127009646Y-65050685D02*
G01*
X127055401Y-65103489D01*
X127065345Y-65172647D01*
X127040981Y-65230489D01*
X127024253Y-65252288D01*
X127018905Y-65258387D01*
X126951333Y-65325958D01*
X126889995Y-65387296D01*
X126889816Y-65387416D01*
X126872616Y-65404616D01*
X126872457Y-65404995D01*
X126872461Y-65429665D01*
X126872500Y-65429855D01*
X126872500Y-65611837D01*
X126871969Y-65619939D01*
X126864074Y-65679898D01*
X126864420Y-65680354D01*
X126872500Y-65724382D01*
X126872500Y-68372624D01*
X126871969Y-68380725D01*
X126858093Y-68486117D01*
X126849715Y-68517384D01*
X126812259Y-68607811D01*
X126796074Y-68635845D01*
X126731363Y-68720176D01*
X126726011Y-68726280D01*
X126511280Y-68941011D01*
X126505176Y-68946363D01*
X126420845Y-69011074D01*
X126392811Y-69027259D01*
X126302384Y-69064715D01*
X126271123Y-69073092D01*
X126254951Y-69075222D01*
X126185915Y-69064460D01*
X126133657Y-69018083D01*
X126114768Y-68950815D01*
X126135245Y-68884014D01*
X126173662Y-68846746D01*
X126212293Y-68822917D01*
X126269778Y-68787460D01*
X126394660Y-68662578D01*
X126487377Y-68512262D01*
X126542929Y-68344615D01*
X126553500Y-68241142D01*
X126553500Y-67750458D01*
X126542929Y-67646985D01*
X126487377Y-67479338D01*
X126487373Y-67479332D01*
X126487372Y-67479329D01*
X126394662Y-67329025D01*
X126394659Y-67329021D01*
X126269778Y-67204140D01*
X126269774Y-67204137D01*
X126119470Y-67111427D01*
X126119463Y-67111424D01*
X126119462Y-67111423D01*
X126119460Y-67111422D01*
X126119455Y-67111420D01*
X126075993Y-67097018D01*
X126018549Y-67057245D01*
X125991727Y-66992729D01*
X125990999Y-66979313D01*
X125990999Y-66293999D01*
X125991000Y-65445967D01*
X125990999Y-65445960D01*
X125990999Y-65429000D01*
X126388999Y-65429000D01*
X126388999Y-65438007D01*
X126389000Y-65438070D01*
X126388999Y-65990555D01*
X126411814Y-65975310D01*
X126474500Y-65912624D01*
X126474500Y-65833470D01*
X126452909Y-65782638D01*
X126453136Y-65752094D01*
X126474500Y-65589818D01*
X126474500Y-65452810D01*
X126450690Y-65429000D01*
X126388999Y-65429000D01*
X125990999Y-65429000D01*
X125990999Y-65415047D01*
X125984461Y-65394928D01*
X125979918Y-65376005D01*
X125976609Y-65355107D01*
X125967000Y-65336249D01*
X125959557Y-65318279D01*
X125953019Y-65298156D01*
X125940577Y-65281032D01*
X125930416Y-65264448D01*
X125920813Y-65245600D01*
X125920808Y-65245594D01*
X125917895Y-65242681D01*
X125915484Y-65238266D01*
X125915075Y-65237703D01*
X125915147Y-65237650D01*
X125884410Y-65181358D01*
X125889394Y-65111666D01*
X125931266Y-65055733D01*
X125996730Y-65031316D01*
X126005576Y-65031000D01*
X126942607Y-65031000D01*
X127009646Y-65050685D01*
G37*
%TD.AperFunction*%
%TA.AperFunction,NonConductor*%
G36*
X124624462Y-65050685D02*
G01*
X124645104Y-65067319D01*
X125178680Y-65600895D01*
X125212165Y-65662218D01*
X125214999Y-65688576D01*
X125215000Y-66979314D01*
X125195315Y-67046353D01*
X125142512Y-67092108D01*
X125130006Y-67097018D01*
X125114794Y-67102059D01*
X125086534Y-67111424D01*
X124936222Y-67204139D01*
X124811340Y-67329021D01*
X124811337Y-67329025D01*
X124718627Y-67479329D01*
X124718622Y-67479340D01*
X124663071Y-67646983D01*
X124652500Y-67750450D01*
X124652500Y-68241149D01*
X124663071Y-68344616D01*
X124718622Y-68512259D01*
X124718627Y-68512270D01*
X124811337Y-68662574D01*
X124811340Y-68662578D01*
X124936222Y-68787460D01*
X125032338Y-68846746D01*
X125079062Y-68898694D01*
X125090283Y-68967657D01*
X125062439Y-69031739D01*
X125004370Y-69070594D01*
X124951048Y-69075222D01*
X124934876Y-69073092D01*
X124903615Y-69064715D01*
X124813188Y-69027259D01*
X124785155Y-69011074D01*
X124700821Y-68946363D01*
X124700812Y-68946356D01*
X124694718Y-68941011D01*
X124479987Y-68726280D01*
X124474640Y-68720182D01*
X124409924Y-68635843D01*
X124393739Y-68607808D01*
X124356284Y-68517383D01*
X124347906Y-68486116D01*
X124334031Y-68380724D01*
X124333500Y-68372623D01*
X124333500Y-65724383D01*
X124343359Y-65690805D01*
X124334031Y-65619944D01*
X124333500Y-65611843D01*
X124333500Y-65427662D01*
X124333539Y-65405002D01*
X124333541Y-65405000D01*
X124333500Y-65404901D01*
X124333383Y-65404617D01*
X124333382Y-65404616D01*
X124316254Y-65387432D01*
X124315905Y-65387198D01*
X124187091Y-65258383D01*
X124181742Y-65252283D01*
X124165017Y-65230487D01*
X124139822Y-65165318D01*
X124153860Y-65096873D01*
X124202674Y-65046883D01*
X124263392Y-65031000D01*
X124557423Y-65031000D01*
X124624462Y-65050685D01*
G37*
%TD.AperFunction*%
%TA.AperFunction,NonConductor*%
G36*
X94877658Y-69022500D02*
G01*
X94877663Y-69022500D01*
X95229423Y-69022500D01*
X95296462Y-69042185D01*
X95342217Y-69094989D01*
X95352161Y-69164147D01*
X95323136Y-69227703D01*
X95317104Y-69234181D01*
X93347604Y-71203681D01*
X93286281Y-71237166D01*
X93259923Y-71240000D01*
X92803077Y-71240000D01*
X92736038Y-71220315D01*
X92690283Y-71167511D01*
X92680339Y-71098353D01*
X92709364Y-71034797D01*
X92715396Y-71028319D01*
X93209563Y-70534152D01*
X94694051Y-69049662D01*
X94755372Y-69016179D01*
X94794330Y-69013987D01*
X94877658Y-69022500D01*
G37*
%TD.AperFunction*%
%TA.AperFunction,NonConductor*%
G36*
X96311834Y-69439394D02*
G01*
X96367767Y-69481266D01*
X96392184Y-69546730D01*
X96392500Y-69555576D01*
X96392500Y-76833422D01*
X96372815Y-76900461D01*
X96320011Y-76946216D01*
X96250853Y-76956160D01*
X96187297Y-76927135D01*
X96180819Y-76921103D01*
X94517593Y-75257878D01*
X95080450Y-75257878D01*
X95490365Y-75667793D01*
X95503167Y-75648634D01*
X95516379Y-75582212D01*
X95503167Y-75515790D01*
X95458622Y-75449124D01*
X95299119Y-75289621D01*
X95232452Y-75245076D01*
X95166030Y-75231864D01*
X95099609Y-75245076D01*
X95080450Y-75257878D01*
X94517593Y-75257878D01*
X93810486Y-74550771D01*
X94373343Y-74550771D01*
X94783258Y-74960686D01*
X94796060Y-74941527D01*
X94809272Y-74875106D01*
X95522789Y-74875106D01*
X95536001Y-74941527D01*
X95580546Y-75008193D01*
X95740049Y-75167696D01*
X95806716Y-75212241D01*
X95873138Y-75225453D01*
X95939559Y-75212241D01*
X95994500Y-75175531D01*
X95994500Y-74574679D01*
X95939559Y-74537969D01*
X95873138Y-74524757D01*
X95806716Y-74537969D01*
X95740050Y-74582514D01*
X95580546Y-74742018D01*
X95536001Y-74808684D01*
X95522789Y-74875106D01*
X94809272Y-74875106D01*
X94796060Y-74808684D01*
X94751515Y-74742018D01*
X94592011Y-74582514D01*
X94525346Y-74537969D01*
X94458924Y-74524757D01*
X94392502Y-74537969D01*
X94373343Y-74550771D01*
X93810486Y-74550771D01*
X93103379Y-73843664D01*
X93666236Y-73843664D01*
X94076151Y-74253579D01*
X94088953Y-74234420D01*
X94102165Y-74167999D01*
X94815683Y-74167999D01*
X94828895Y-74234420D01*
X94873441Y-74301088D01*
X95032943Y-74460590D01*
X95099609Y-74505135D01*
X95166031Y-74518347D01*
X95232452Y-74505135D01*
X95299118Y-74460590D01*
X95458622Y-74301086D01*
X95503167Y-74234420D01*
X95516379Y-74167999D01*
X95503167Y-74101577D01*
X95458622Y-74034911D01*
X95299118Y-73875407D01*
X95232452Y-73830862D01*
X95166030Y-73817650D01*
X95099609Y-73830862D01*
X95032943Y-73875407D01*
X94873441Y-74034909D01*
X94828895Y-74101577D01*
X94815683Y-74167999D01*
X94102165Y-74167999D01*
X94088953Y-74101577D01*
X94044408Y-74034910D01*
X93884905Y-73875407D01*
X93818239Y-73830862D01*
X93751817Y-73817650D01*
X93685395Y-73830862D01*
X93666236Y-73843664D01*
X93103379Y-73843664D01*
X92396273Y-73136558D01*
X92959129Y-73136558D01*
X93369044Y-73546473D01*
X93381846Y-73527313D01*
X93395058Y-73460892D01*
X93395058Y-73460891D01*
X94108576Y-73460891D01*
X94121788Y-73527313D01*
X94166333Y-73593980D01*
X94325836Y-73753483D01*
X94392502Y-73798028D01*
X94458924Y-73811240D01*
X94525346Y-73798028D01*
X94592011Y-73753483D01*
X94751515Y-73593979D01*
X94796060Y-73527313D01*
X94809272Y-73460892D01*
X95522789Y-73460892D01*
X95536001Y-73527313D01*
X95580546Y-73593979D01*
X95740050Y-73753483D01*
X95806716Y-73798028D01*
X95873137Y-73811240D01*
X95939559Y-73798028D01*
X95994500Y-73761318D01*
X95994500Y-73160466D01*
X95939559Y-73123756D01*
X95873138Y-73110544D01*
X95806716Y-73123756D01*
X95740048Y-73168302D01*
X95580546Y-73327804D01*
X95536001Y-73394470D01*
X95522789Y-73460892D01*
X94809272Y-73460892D01*
X94796060Y-73394470D01*
X94751515Y-73327804D01*
X94592011Y-73168300D01*
X94525347Y-73123756D01*
X94458924Y-73110544D01*
X94392502Y-73123756D01*
X94325834Y-73168302D01*
X94166333Y-73327803D01*
X94121788Y-73394470D01*
X94108576Y-73460891D01*
X93395058Y-73460891D01*
X93381846Y-73394470D01*
X93337300Y-73327802D01*
X93177800Y-73168302D01*
X93111132Y-73123756D01*
X93044711Y-73110544D01*
X92978289Y-73123756D01*
X92959129Y-73136558D01*
X92396273Y-73136558D01*
X91689166Y-72429451D01*
X92252022Y-72429451D01*
X92661938Y-72839367D01*
X92674740Y-72820207D01*
X92687952Y-72753785D01*
X93401469Y-72753785D01*
X93414681Y-72820207D01*
X93459226Y-72886872D01*
X93618730Y-73046376D01*
X93685395Y-73090921D01*
X93751817Y-73104133D01*
X93818239Y-73090921D01*
X93884905Y-73046376D01*
X94044408Y-72886872D01*
X94088953Y-72820207D01*
X94102165Y-72753785D01*
X94815683Y-72753785D01*
X94828895Y-72820208D01*
X94873439Y-72886872D01*
X95032943Y-73046376D01*
X95099609Y-73090921D01*
X95166031Y-73104133D01*
X95232452Y-73090921D01*
X95299118Y-73046376D01*
X95458622Y-72886872D01*
X95503167Y-72820207D01*
X95516379Y-72753785D01*
X95503167Y-72687363D01*
X95458622Y-72620697D01*
X95299119Y-72461194D01*
X95232452Y-72416649D01*
X95166031Y-72403437D01*
X95099609Y-72416649D01*
X95032942Y-72461194D01*
X94873441Y-72620695D01*
X94828895Y-72687363D01*
X94815683Y-72753785D01*
X94102165Y-72753785D01*
X94088953Y-72687363D01*
X94044408Y-72620697D01*
X93884905Y-72461194D01*
X93818239Y-72416649D01*
X93751817Y-72403437D01*
X93685395Y-72416649D01*
X93618730Y-72461194D01*
X93459226Y-72620697D01*
X93414681Y-72687363D01*
X93401469Y-72753785D01*
X92687952Y-72753785D01*
X92674740Y-72687363D01*
X92630195Y-72620697D01*
X92470692Y-72461194D01*
X92404025Y-72416649D01*
X92390704Y-72414000D01*
X92284504Y-72414000D01*
X92271182Y-72416649D01*
X92252022Y-72429451D01*
X91689166Y-72429451D01*
X91487396Y-72227681D01*
X91453911Y-72166358D01*
X91458895Y-72096666D01*
X91461153Y-72093650D01*
X94117919Y-72093650D01*
X94121788Y-72113100D01*
X94166333Y-72179766D01*
X94325836Y-72339269D01*
X94392502Y-72383814D01*
X94458924Y-72397026D01*
X94525346Y-72383814D01*
X94592011Y-72339269D01*
X94751515Y-72179766D01*
X94796060Y-72113100D01*
X94809272Y-72046678D01*
X95522789Y-72046678D01*
X95536001Y-72113100D01*
X95580546Y-72179766D01*
X95740049Y-72339269D01*
X95806716Y-72383814D01*
X95873138Y-72397026D01*
X95939559Y-72383814D01*
X95994500Y-72347104D01*
X95994500Y-71746252D01*
X95939559Y-71709542D01*
X95873138Y-71696330D01*
X95806716Y-71709542D01*
X95740050Y-71754087D01*
X95580546Y-71913591D01*
X95536001Y-71980256D01*
X95522789Y-72046678D01*
X94809272Y-72046678D01*
X94796060Y-71980256D01*
X94751515Y-71913591D01*
X94592011Y-71754087D01*
X94525346Y-71709542D01*
X94505895Y-71705673D01*
X94117919Y-72093650D01*
X91461153Y-72093650D01*
X91500767Y-72040733D01*
X91566231Y-72016316D01*
X91575077Y-72016000D01*
X93505066Y-72016000D01*
X93505090Y-72015999D01*
X93533452Y-72015999D01*
X93533453Y-72015999D01*
X93553574Y-72009460D01*
X93572493Y-72004918D01*
X93593393Y-72001609D01*
X93612247Y-71992001D01*
X93630215Y-71984558D01*
X93650344Y-71978019D01*
X93667467Y-71965577D01*
X93684044Y-71955419D01*
X93702903Y-71945811D01*
X93717692Y-71931021D01*
X93717699Y-71931016D01*
X94262173Y-71386542D01*
X94825026Y-71386542D01*
X94828895Y-71405993D01*
X94873441Y-71472661D01*
X95032941Y-71632161D01*
X95099609Y-71676707D01*
X95166031Y-71689919D01*
X95232452Y-71676707D01*
X95299120Y-71632161D01*
X95458622Y-71472659D01*
X95503167Y-71405993D01*
X95516379Y-71339572D01*
X95503167Y-71273150D01*
X95458622Y-71206484D01*
X95299118Y-71046980D01*
X95232452Y-71002435D01*
X95213002Y-70998566D01*
X94825026Y-71386542D01*
X94262173Y-71386542D01*
X94928999Y-70719716D01*
X94969279Y-70679436D01*
X95532132Y-70679436D01*
X95536001Y-70698886D01*
X95580546Y-70765552D01*
X95740050Y-70925056D01*
X95806716Y-70969601D01*
X95873138Y-70982813D01*
X95939559Y-70969601D01*
X95994500Y-70932891D01*
X95994500Y-70332038D01*
X95939559Y-70295328D01*
X95920109Y-70291459D01*
X95532132Y-70679436D01*
X94969279Y-70679436D01*
X96180819Y-69467894D01*
X96242142Y-69434410D01*
X96311834Y-69439394D01*
G37*
%TD.AperFunction*%
%TA.AperFunction,NonConductor*%
G36*
X96424212Y-83343937D02*
G01*
X96425401Y-83345109D01*
X96538907Y-83458615D01*
X96544256Y-83464713D01*
X96581067Y-83512687D01*
X96581629Y-83512765D01*
X96618479Y-83538187D01*
X96928808Y-83848516D01*
X96945580Y-83879232D01*
X97002274Y-83922735D01*
X97008352Y-83928062D01*
X97010958Y-83930666D01*
X97012062Y-83931769D01*
X97045582Y-83993071D01*
X97040638Y-84062765D01*
X96998800Y-84118723D01*
X96933350Y-84143179D01*
X96924431Y-84143500D01*
X96723576Y-84143500D01*
X96656537Y-84123815D01*
X96635895Y-84107181D01*
X96407946Y-83879232D01*
X96164812Y-83636098D01*
X96131329Y-83574778D01*
X96136313Y-83505087D01*
X96157989Y-83471362D01*
X96157040Y-83470673D01*
X96162775Y-83462777D01*
X96162777Y-83462777D01*
X96175215Y-83445655D01*
X96187855Y-83430858D01*
X96202811Y-83415903D01*
X96212421Y-83397041D01*
X96222581Y-83380462D01*
X96235019Y-83363344D01*
X96235018Y-83363344D01*
X96237473Y-83359967D01*
X96292805Y-83317304D01*
X96362418Y-83311328D01*
X96424212Y-83343937D01*
G37*
%TD.AperFunction*%
%TA.AperFunction,NonConductor*%
G36*
X131245722Y-82043030D02*
G01*
X131335120Y-82054800D01*
X131351116Y-82056906D01*
X131382383Y-82065284D01*
X131472808Y-82102739D01*
X131500843Y-82118924D01*
X131585182Y-82183640D01*
X131591280Y-82188987D01*
X131806016Y-82403723D01*
X131811360Y-82409817D01*
X131876074Y-82494155D01*
X131892259Y-82522188D01*
X131929715Y-82612615D01*
X131938093Y-82643882D01*
X131951969Y-82749273D01*
X131952500Y-82757375D01*
X131952499Y-83246616D01*
X131942639Y-83280194D01*
X131951969Y-83351060D01*
X131952500Y-83359162D01*
X131952500Y-83541368D01*
X131952419Y-83541774D01*
X131952457Y-83565999D01*
X131952520Y-83566149D01*
X131952549Y-83566296D01*
X131952576Y-83566285D01*
X131952617Y-83566383D01*
X131952618Y-83566383D01*
X131963884Y-83577592D01*
X132039270Y-83652978D01*
X132098904Y-83712612D01*
X132104257Y-83718716D01*
X132141071Y-83766692D01*
X132141636Y-83766770D01*
X132178481Y-83792189D01*
X132234808Y-83848516D01*
X132251580Y-83879232D01*
X132308288Y-83922745D01*
X132314381Y-83928088D01*
X132318060Y-83931767D01*
X132318112Y-83931819D01*
X132351597Y-83993142D01*
X132346613Y-84062834D01*
X132304741Y-84118767D01*
X132239277Y-84143184D01*
X132230431Y-84143500D01*
X132129730Y-84143500D01*
X132099301Y-84146353D01*
X131993953Y-84183216D01*
X131924174Y-84186777D01*
X131912049Y-84183217D01*
X131806699Y-84146354D01*
X131806698Y-84146353D01*
X131806696Y-84146353D01*
X131776270Y-84143500D01*
X131776266Y-84143500D01*
X131533100Y-84143500D01*
X131466061Y-84123815D01*
X131420306Y-84071011D01*
X131410362Y-84001853D01*
X131439387Y-83938297D01*
X131445419Y-83931819D01*
X131454503Y-83922735D01*
X131474660Y-83902578D01*
X131567377Y-83752262D01*
X131622929Y-83584615D01*
X131633500Y-83481142D01*
X131633500Y-82990458D01*
X131622929Y-82886985D01*
X131567377Y-82719338D01*
X131567373Y-82719332D01*
X131567371Y-82719327D01*
X131474662Y-82569025D01*
X131474659Y-82569021D01*
X131349778Y-82444140D01*
X131349774Y-82444137D01*
X131199470Y-82351427D01*
X131199464Y-82351424D01*
X131199462Y-82351423D01*
X131143216Y-82332785D01*
X131031816Y-82295871D01*
X130972958Y-82289858D01*
X130908267Y-82263462D01*
X130868115Y-82206281D01*
X130865252Y-82136470D01*
X130900586Y-82076193D01*
X130962899Y-82044588D01*
X130985561Y-82042500D01*
X131237624Y-82042500D01*
X131245722Y-82043030D01*
G37*
%TD.AperFunction*%
%TA.AperFunction,NonConductor*%
G36*
X130447478Y-82062185D02*
G01*
X130493233Y-82114989D01*
X130503177Y-82184147D01*
X130474152Y-82247703D01*
X130415374Y-82285477D01*
X130393042Y-82289858D01*
X130334183Y-82295871D01*
X130166540Y-82351422D01*
X130166529Y-82351427D01*
X130016225Y-82444137D01*
X130016221Y-82444140D01*
X129891340Y-82569021D01*
X129891337Y-82569025D01*
X129798629Y-82719327D01*
X129798622Y-82719340D01*
X129743071Y-82886983D01*
X129732500Y-82990450D01*
X129732500Y-83481149D01*
X129743071Y-83584616D01*
X129798622Y-83752259D01*
X129798627Y-83752270D01*
X129891337Y-83902574D01*
X129891340Y-83902578D01*
X129920581Y-83931819D01*
X129954066Y-83993142D01*
X129949082Y-84062834D01*
X129907210Y-84118767D01*
X129841746Y-84143184D01*
X129832900Y-84143500D01*
X129589730Y-84143500D01*
X129559302Y-84146353D01*
X129453954Y-84183216D01*
X129384176Y-84186777D01*
X129372046Y-84183216D01*
X129266697Y-84146353D01*
X129236270Y-84143500D01*
X129236266Y-84143500D01*
X129135569Y-84143500D01*
X129068530Y-84123815D01*
X129022775Y-84071011D01*
X129012831Y-84001853D01*
X129041856Y-83938297D01*
X129047826Y-83931880D01*
X129051608Y-83928098D01*
X129057700Y-83922754D01*
X129105692Y-83885927D01*
X129105771Y-83885358D01*
X129131185Y-83848520D01*
X129187520Y-83792186D01*
X129218235Y-83775413D01*
X129261745Y-83718712D01*
X129267087Y-83712618D01*
X129402005Y-83577700D01*
X129413379Y-83566384D01*
X129413383Y-83566383D01*
X129413500Y-83566099D01*
X129413500Y-83566098D01*
X129413541Y-83566000D01*
X129413539Y-83565997D01*
X129413584Y-83541664D01*
X129413500Y-83541244D01*
X129413500Y-83359160D01*
X129414031Y-83351060D01*
X129421925Y-83291096D01*
X129421577Y-83290637D01*
X129413500Y-83246616D01*
X129413500Y-82757375D01*
X129414031Y-82749273D01*
X129417925Y-82719701D01*
X129427906Y-82643882D01*
X129436284Y-82612615D01*
X129473740Y-82522188D01*
X129489925Y-82494155D01*
X129554650Y-82409803D01*
X129559970Y-82403736D01*
X129774736Y-82188970D01*
X129780803Y-82183650D01*
X129865157Y-82118923D01*
X129893186Y-82102740D01*
X129983616Y-82065283D01*
X130014882Y-82056906D01*
X130120276Y-82043030D01*
X130128376Y-82042500D01*
X130380439Y-82042500D01*
X130447478Y-82062185D01*
G37*
%TD.AperFunction*%
M02*
