M48
; DRILL file {KiCad (7.0.0-rc1-358-g86c12d35b4)} date Wednesday, May 17, 2023 at 11:59:31 AM
; FORMAT={-:-/ absolute / metric / decimal}
; #@! TF.CreationDate,2023-05-17T11:59:31-07:00
; #@! TF.GenerationSoftware,Kicad,Pcbnew,(7.0.0-rc1-358-g86c12d35b4)
; #@! TF.FileFunction,Plated,1,4,PTH
FMAT,2
METRIC
; #@! TA.AperFunction,Plated,PTH,ViaDrill
T1C0.150
; #@! TA.AperFunction,Plated,PTH,ViaDrill
T2C0.200
; #@! TA.AperFunction,Plated,PTH,ComponentDrill
T3C0.350
; #@! TA.AperFunction,Plated,PTH,ComponentDrill
T4C0.600
; #@! TA.AperFunction,Plated,PTH,ComponentDrill
T5C0.800
; #@! TA.AperFunction,Plated,PTH,ComponentDrill
T6C0.900
; #@! TA.AperFunction,Plated,PTH,ComponentDrill
T7C1.000
%
G90
G05
T1
X35.763Y-155.854
X35.954Y-146.228
X36.119Y-156.286
X36.246Y-162.738
X36.398Y-141.986
X36.525Y-163.144
X36.906Y-141.478
X37.081Y-152.149
X37.16Y-166.421
X37.237Y-152.806
X37.313Y-125.908
X37.396Y-155.424
X37.424Y-168.156
X37.483Y-149.063
X37.483Y-150.945
X37.612Y-165.278
X37.745Y-171.501
X38.049Y-166.776
X38.075Y-149.022
X38.119Y-172.339
X38.131Y-171.602
X38.456Y-168.986
X38.697Y-151.204
X39.203Y-151.209
X39.319Y-166.421
X39.37Y-153.645
X39.446Y-167.252
X39.52Y-168.986
X39.856Y-160.318
X39.941Y-144.172
X40.402Y-164.398
X40.523Y-147.635
X41.605Y-132.182
X42.571Y-132.556
X43.153Y-159.781
X44.135Y-153.559
X44.171Y-133.579
X44.474Y-148.73
X45.009Y-166.319
X45.161Y-148.666
X45.171Y-178.721
X45.187Y-164.998
X45.235Y-137.59
X45.339Y-183.591
X45.445Y-154.94
X45.466Y-141.605
X45.593Y-164.744
X45.641Y-166.994
X45.746Y-148.844
X45.796Y-142.037
X45.873Y-166.421
X45.873Y-168.783
X45.877Y-137.375
X45.895Y-132.745
X46.026Y-153.263
X46.355Y-166.395
X46.431Y-168.885
X47.039Y-140.108
X47.6Y-173.711
X47.752Y-174.6
X47.778Y-126.06
X47.879Y-175.666
X47.918Y-139.3
X47.93Y-175.108
X47.956Y-173.488
X48.118Y-164.359
X48.298Y-145.593
X48.377Y-151.328
X48.717Y-149.215
X48.752Y-166.465
X50.114Y-163.017
X50.368Y-142.418
X50.394Y-173.685
X50.673Y-164.109
X50.702Y-167.404
X50.775Y-147.193
X50.8Y-142.469
X50.84Y-163.043
X50.927Y-149.123
X51.003Y-171.729
X51.029Y-170.51
X51.034Y-151.211
X51.334Y-171.348
X51.41Y-170.866
X51.461Y-152.908
X51.511Y-168.961
X51.562Y-153.441
X51.765Y-151.181
X51.794Y-165.994
X52.146Y-160.122
X52.464Y-148.171
X52.578Y-153.924
X52.771Y-167.13
X52.832Y-144.45
X53.391Y-170.866
X53.416Y-148.006
X53.47Y-152.886
X54.171Y-115.548
X55.08Y-110.96
X55.194Y-173.685
X55.245Y-148.862
X55.474Y-150.165
X55.506Y-169.548
X55.626Y-173.253
X55.855Y-153.391
X56.009Y-126.77
X56.114Y-168.94
X56.301Y-121.357
X56.388Y-153.289
X56.492Y-166.853
X56.591Y-151.155
X56.661Y-152.994
X56.918Y-125.511
X56.947Y-166.903
X56.998Y-159.57
X57.201Y-132.156
X57.315Y-117.11
X57.353Y-134.544
X58.071Y-169.939
X58.137Y-178.666
X58.293Y-166.878
X58.319Y-142.24
X58.395Y-171.983
X59.045Y-149.266
X59.189Y-170.908
X59.208Y-123.749
X59.893Y-182.855
X60.122Y-153.187
X60.126Y-171.05
X60.323Y-177.732
X60.427Y-163.17
X60.524Y-164.077
X60.757Y-183.566
X60.775Y-175.033
X60.825Y-163.017
X60.894Y-138.178
X60.962Y-177.925
X62.078Y-139.7
X62.256Y-149.327
X62.306Y-151.257
X62.332Y-166.497
X62.637Y-134.925
X62.904Y-162.901
X62.967Y-130.099
X63.068Y-156.235
X63.094Y-155.753
X63.454Y-129.05
X63.805Y-133.477
X64.375Y-149.216
X64.509Y-168.885
X64.555Y-148.659
X64.817Y-166.788
X65.306Y-139.342
X65.354Y-147.32
X65.405Y-148.209
X65.431Y-164.16
X65.507Y-165.456
X65.583Y-153.416
X65.685Y-168.834
X65.761Y-147.853
X65.913Y-164.567
X65.939Y-142.24
X66.015Y-166.573
X66.142Y-124.054
X66.32Y-148.971
X66.37Y-153.416
X66.586Y-170.958
X67.183Y-166.395
X67.64Y-159.918
X67.737Y-150.998
X68.123Y-147.879
X68.148Y-167.03
X68.199Y-168.529
X68.2Y-118.72
X68.301Y-175.666
X68.733Y-159.893
X69.215Y-149.504
X69.777Y-179.854
X69.919Y-166.775
X70.154Y-159.99
X70.459Y-164.233
X70.46Y-171.094
X70.52Y-147.457
X70.62Y-175.655
X70.663Y-140.868
X70.688Y-159.893
X70.87Y-117.53
X70.99Y-150.853
X71.016Y-153.814
X71.349Y-149.225
X71.501Y-166.853
X71.841Y-148.766
X71.984Y-127.102
X72.459Y-171.45
X72.561Y-167.003
X73.152Y-166.548
X73.205Y-170.064
X73.33Y-153.772
X73.33Y-168.529
X73.383Y-169.695
X73.686Y-162.916
X73.837Y-171.29
X73.863Y-152.984
X73.965Y-135.509
X74.092Y-183.591
X74.301Y-132.258
X74.829Y-123.774
X75.35Y-122.21
X75.591Y-163.347
X75.661Y-168.786
X75.958Y-153.529
X76.02Y-145.398
X76.175Y-174.168
X76.429Y-137.211
X77.369Y-141.072
X77.648Y-129.896
X78.029Y-182.524
X78.039Y-162.687
X78.054Y-145.644
X78.067Y-163.97
X78.177Y-153.69
X78.223Y-148.244
X78.334Y-166.573
X78.423Y-147.891
X78.437Y-167.795
X78.461Y-165.837
X78.639Y-146.558
X78.74Y-164.617
X78.787Y-131.794
X78.829Y-166.045
X79.147Y-129.464
X79.223Y-171.323
X80.112Y-166.446
X80.366Y-160.096
X80.378Y-149.269
X80.558Y-148.433
X80.864Y-163.967
X80.88Y-148.197
X81.519Y-139.533
X82.842Y-139.533
X83.109Y-167.228
X83.129Y-146.682
X83.221Y-172.591
X83.297Y-162.083
X83.435Y-165.511
X83.548Y-172.854
X83.654Y-162.263
X83.991Y-169.175
X84.531Y-179.299
X84.73Y-118.76
X85.346Y-149.48
X85.363Y-167.095
X85.522Y-159.868
X85.941Y-164.503
X86.055Y-167.716
X86.155Y-159.857
X86.36Y-170.764
X86.436Y-153.162
X86.462Y-133.172
X87.427Y-169.215
X87.63Y-129.489
X88.122Y-142.817
X88.291Y-129.515
X88.424Y-173.764
X88.463Y-142.57
X88.805Y-162.535
X89.307Y-137.755
X89.383Y-149.215
X89.551Y-171.162
X89.561Y-168.961
X89.611Y-151.155
X89.776Y-149.147
X90.018Y-131.794
X90.424Y-141.497
X90.526Y-130.175
X90.754Y-163.805
X90.907Y-155.626
X90.97Y-181.648
X91.085Y-141.275
X91.237Y-132.436
X91.237Y-163.093
X91.339Y-156.489
X91.44Y-182.855
X91.613Y-154.127
X91.669Y-160.503
X91.821Y-149.215
X91.923Y-171.704
X92.082Y-148.912
X92.466Y-171.691
X92.532Y-131.978
X92.578Y-148.278
X93.04Y-168.885
X93.117Y-136.804
X93.18Y-148.095
X93.294Y-129.718
X93.421Y-164.313
X93.421Y-162.23
X93.777Y-168.758
X93.904Y-160.325
X94.031Y-129.616
X94.133Y-159.42
X94.135Y-142.196
X94.285Y-171.279
X94.597Y-148.989
X94.666Y-129.845
X95.082Y-134.435
X95.536Y-134.302
X95.548Y-153.047
X95.606Y-171.704
X95.733Y-107.442
X95.883Y-167.181
X96.088Y-180.01
X96.444Y-106.909
X96.615Y-123.934
X96.749Y-122.86
X97.275Y-153.301
X97.993Y-159.791
X98.047Y-129.238
X98.095Y-179.654
X98.507Y-128.295
X98.535Y-164.465
X98.628Y-165.659
X98.882Y-164.211
X98.984Y-155.702
X99.074Y-157.671
X99.238Y-131.801
X99.289Y-148.234
X99.34Y-178.892
X99.416Y-149.123
X99.416Y-160.141
X99.721Y-170.764
X99.873Y-171.806
X100.229Y-168.808
X100.259Y-129.841
X100.406Y-133.071
X100.432Y-166.903
X100.571Y-128.157
X100.61Y-116.561
X100.737Y-168.783
X100.914Y-164.998
X100.937Y-162.761
X100.965Y-166.929
X101.067Y-164.541
X101.127Y-171.306
X101.194Y-172.695
X101.194Y-174.168
X101.238Y-171.707
X101.4Y-118.142
X101.6Y-174.269
X101.64Y-162.358
X101.803Y-178.892
X101.88Y-115.799
X101.93Y-141.457
X102.083Y-132.232
X102.438Y-119.507
X102.54Y-116.408
X102.845Y-132.588
X102.946Y-117.373
X103.023Y-171.729
X103.15Y-171.018
X103.226Y-134.112
X103.226Y-148.209
X103.237Y-130.785
X103.378Y-171.374
X103.449Y-164.008
X103.49Y-172.095
X103.494Y-118.045
X103.505Y-164.49
X103.513Y-167.1
X103.531Y-166.548
X103.672Y-141.968
X103.683Y-132.258
X103.988Y-146.177
X104.005Y-157.048
X104.089Y-163.5
X104.105Y-142.803
X104.115Y-135.052
X104.437Y-122.174
X104.437Y-130.683
X104.536Y-181.589
X104.674Y-137.185
X105.121Y-117.329
X105.33Y-131.794
X105.359Y-178.892
X105.48Y-148.277
X105.791Y-141.249
X105.855Y-167.074
X105.969Y-131.794
X105.994Y-132.613
X106.045Y-155.727
X106.132Y-120.335
X106.241Y-166.225
X106.35Y-178.816
X106.553Y-133.585
X106.69Y-119.13
X106.75Y-116.721
X106.807Y-153.492
X107.056Y-124.214
X107.239Y-153.594
X107.366Y-137.185
X107.493Y-166.573
X107.68Y-116.72
X107.696Y-125.552
X107.722Y-132.969
X107.95Y-166.599
X108.128Y-120.421
X108.128Y-134.366
X108.153Y-180.772
X108.288Y-119.382
X108.509Y-140.792
X108.608Y-121.582
X108.674Y-160.388
X108.695Y-134.01
X109.131Y-130.67
X109.258Y-164.649
X109.707Y-160.453
X110.008Y-127.076
X110.109Y-121.209
X110.236Y-130.81
X110.389Y-129.515
X110.589Y-149.449
X110.681Y-128.613
X111.273Y-127.439
X111.532Y-128.245
X111.557Y-123.698
X111.557Y-124.46
X111.722Y-141.541
X111.776Y-153.81
X111.811Y-166.192
X112.049Y-153.025
X112.185Y-171.425
X112.243Y-167.259
X112.268Y-178.74
X112.692Y-131.208
X112.724Y-132.518
X112.733Y-148.871
X112.753Y-170.892
X112.961Y-122.46
X113.132Y-171.628
X113.64Y-166.853
X113.741Y-171.018
X113.894Y-165.075
X113.919Y-150.978
X113.919Y-167.234
X114.166Y-147.937
X114.199Y-126.441
X114.478Y-176.327
X114.554Y-127.508
X114.554Y-168.046
X114.58Y-147.625
X114.681Y-166.345
X114.783Y-149.581
X114.783Y-151.892
X114.961Y-171.653
X115.011Y-175.184
X115.164Y-174.752
X115.317Y-163.025
X115.469Y-177.19
X115.873Y-175.284
X115.977Y-177.419
T2
X36.475Y-124.562
X36.856Y-116.053
X37.313Y-121.437
X37.313Y-178.232
X37.541Y-164.287
X37.618Y-144.196
X37.618Y-147.879
X38.146Y-130.713
X38.253Y-118.694
X39.142Y-179.299
X39.764Y-125.718
X40.208Y-162.27
X40.31Y-144.501
X40.894Y-166.522
X41.013Y-130.759
X41.013Y-131.42
X41.013Y-132.193
X42.095Y-142.479
X42.291Y-148.768
X42.515Y-155.112
X42.531Y-157.758
X42.647Y-173.482
X42.857Y-140.51
X42.858Y-175.684
X42.901Y-126.594
X42.901Y-154.051
X43.104Y-165.357
X43.105Y-164.774
X43.195Y-155.855
X43.739Y-180.594
X44.018Y-139.649
X44.069Y-148.996
X44.298Y-126.34
X44.45Y-131.699
X44.958Y-112.801
X45.441Y-175.666
X45.492Y-125.959
X45.644Y-157.744
X46.203Y-129.159
X46.228Y-134.061
X47.324Y-106.278
X47.397Y-132.791
X47.651Y-144.424
X47.662Y-121.96
X47.803Y-142.215
X47.811Y-156.456
X47.844Y-131.736
X47.854Y-156.972
X48.658Y-106.214
X48.794Y-134.696
X49.098Y-130.481
X49.962Y-111.65
X50.914Y-129.832
X51.06Y-110.572
X51.588Y-166.421
X51.638Y-133.146
X52.78Y-116.594
X53.315Y-166.497
X53.366Y-134.08
X53.366Y-179.172
X53.772Y-114.198
X53.892Y-166.786
X53.952Y-140.436
X54.001Y-108.255
X54.458Y-134.08
X54.628Y-128.067
X54.939Y-166.445
X55.204Y-164.287
X55.525Y-155.194
X55.525Y-175.743
X55.593Y-177.246
X56.134Y-109.499
X56.21Y-179.324
X57.13Y-179.748
X57.515Y-142.639
X57.811Y-144.467
X57.811Y-157.836
X57.887Y-149.53
X57.963Y-123.444
X58.109Y-153.688
X58.509Y-133.412
X58.793Y-177.797
X58.903Y-154.018
X58.954Y-108.356
X59.106Y-110.109
X59.589Y-171.247
X59.868Y-166.901
X59.886Y-133.815
X60.3Y-129.261
X60.376Y-175.463
X60.503Y-145.593
X60.528Y-133.815
X60.528Y-156.921
X60.63Y-144.907
X60.833Y-123.088
X60.973Y-156.68
X62.383Y-167.31
X62.825Y-163.823
X63.043Y-185.877
X63.119Y-177.452
X63.348Y-145.016
X64.567Y-151.13
X64.896Y-153.895
X65.05Y-185.91
X65.089Y-171.101
X65.278Y-118.262
X65.456Y-149.25
X65.551Y-153.889
X65.685Y-159.995
X65.71Y-180.365
X65.915Y-144.425
X66.032Y-177.994
X66.838Y-180.313
X67.793Y-142.367
X68.172Y-140.402
X68.225Y-144.399
X68.225Y-147.396
X68.453Y-155.804
X69.571Y-113.563
X70.053Y-184.988
X70.214Y-134.309
X70.46Y-166.395
X70.561Y-177.292
X71.247Y-178.944
X71.958Y-107.925
X72.035Y-117.881
X72.136Y-153.822
X72.771Y-148.895
X73.228Y-171.247
X73.305Y-181.178
X73.965Y-137.262
X75.514Y-140.741
X75.538Y-146.18
X75.616Y-134.061
X75.634Y-145.122
X75.829Y-181.775
X75.914Y-151.854
X75.929Y-183.04
X75.972Y-171.515
X75.982Y-150.899
X76.097Y-166.672
X76.211Y-146.18
X77.643Y-149.273
X78.969Y-116.891
X79.205Y-153.035
X79.527Y-153.891
X79.554Y-149.302
X80.848Y-165.811
X81.249Y-146.837
X81.277Y-164.691
X81.295Y-144.467
X81.327Y-153.242
X81.915Y-178.74
X82.113Y-149.073
X82.474Y-118.364
X82.728Y-153.086
X82.831Y-153.575
X83.013Y-148.926
X83.261Y-159.918
X83.465Y-164.465
X83.642Y-177.117
X83.694Y-157.652
X83.922Y-171.272
X84.06Y-167.198
X84.485Y-149.191
X85.293Y-153.568
X86.171Y-157.797
X86.173Y-149.181
X86.274Y-151.39
X86.735Y-140.241
X87.148Y-166.464
X87.421Y-178.944
X87.452Y-149.116
X87.527Y-153.881
X89.1Y-140.241
X90.155Y-133.484
X90.682Y-133.484
X91.207Y-178.295
X92.837Y-141.822
X93.582Y-172.555
X93.929Y-166.548
X94.209Y-171.831
X94.409Y-153.326
X95.086Y-142.12
X95.098Y-166.832
X95.657Y-141.681
X95.987Y-144.475
X96.063Y-185.707
X96.07Y-126.256
X96.07Y-132.862
X96.317Y-157.937
X96.342Y-177.165
X96.647Y-167.021
X96.673Y-166.522
X96.736Y-153.326
X96.772Y-133.141
X96.927Y-171.069
X96.952Y-148.59
X97.005Y-140.2
X97.028Y-130.099
X97.079Y-124.035
X97.587Y-185.826
X97.842Y-126.256
X97.945Y-126.745
X97.968Y-141.707
X98.16Y-171.494
X98.298Y-149.225
X98.495Y-164.955
X98.679Y-122.707
X98.705Y-110.998
X98.997Y-153.532
X99.092Y-153.027
X99.371Y-171.704
X100.076Y-116.713
X100.914Y-153.518
X102.896Y-109.322
X103.658Y-123.816
X103.759Y-156.566
X103.759Y-174.219
X103.861Y-117.704
X104.674Y-135.357
X105.537Y-142.011
X105.669Y-171.658
X105.715Y-149.276
X106.02Y-153.441
X106.121Y-121.945
X106.477Y-123.825
X106.477Y-177.089
X106.579Y-164.313
X107.296Y-141.561
X107.366Y-171.755
X107.468Y-118.085
X107.976Y-153.67
X108.052Y-171.78
X108.509Y-124.968
X108.949Y-162.201
X109.169Y-160.426
X109.228Y-165.473
X109.236Y-146.812
X109.236Y-157.886
X109.522Y-171.455
X109.55Y-170.84
X109.576Y-153.797
X109.652Y-141.986
X109.703Y-119.786
X110.643Y-127.584
X110.827Y-160.087
X111.125Y-164.516
X111.201Y-167.03
X111.303Y-155.346
X111.585Y-130.483
X111.659Y-162.27
X111.786Y-171.018
X112.065Y-148.742
X112.167Y-151.181
X112.174Y-130.504
X112.453Y-133.815
X112.471Y-118.466
X112.725Y-127.076
X112.878Y-141.605
X113.31Y-160.452
X113.444Y-159.969
X114.225Y-157.911
X115.342Y-158.242
X115.342Y-162.154
X115.875Y-156.159
X115.951Y-157.48
X115.951Y-173.703
T3
X104.562Y-125.217
X104.562Y-126.492
X104.562Y-127.767
X105.837Y-125.217
X105.837Y-126.492
X105.837Y-127.767
X107.112Y-125.217
X107.112Y-126.492
X107.112Y-127.767
T5
X35.738Y-120.936
X35.738Y-122.936
X35.738Y-126.936
X35.738Y-128.936
X39.038Y-120.936
X39.038Y-122.936
X39.038Y-126.936
X39.038Y-128.936
X80.442Y-114.808
X80.442Y-122.428
X82.982Y-114.808
X82.982Y-122.428
X85.522Y-114.808
X85.522Y-122.428
X88.062Y-114.808
X88.062Y-122.428
T7
X38.349Y-110.521
X40.145Y-108.725
X57.836Y-110.911
X57.836Y-126.151
X60.376Y-110.911
X60.376Y-126.151
X62.916Y-110.911
X62.916Y-126.151
X65.456Y-110.911
X65.456Y-126.151
X67.996Y-110.911
X67.996Y-126.151
X70.536Y-106.197
X70.536Y-110.911
X70.536Y-126.151
X73.076Y-106.197
X73.076Y-110.911
X73.076Y-126.151
X75.616Y-106.197
X75.616Y-110.911
X75.616Y-126.151
X78.156Y-106.197
X78.156Y-110.911
X78.156Y-126.151
X80.696Y-106.197
X80.696Y-110.911
X80.696Y-126.151
X83.236Y-106.197
X83.236Y-110.911
X83.236Y-126.151
X85.776Y-110.911
X85.776Y-126.151
X88.316Y-110.911
X88.316Y-126.151
X90.856Y-110.911
X90.856Y-126.151
X92.38Y-116.205
X92.38Y-118.745
X92.38Y-121.285
X93.396Y-110.911
X93.396Y-126.151
T4
X38.59Y-143.51G85X39.49Y-143.51
G05
X38.59Y-158.75G85X39.49Y-158.75
G05
X38.59Y-161.29G85X39.49Y-161.29
G05
X38.59Y-176.53G85X39.49Y-176.53
G05
X41.13Y-143.51G85X42.03Y-143.51
G05
X41.13Y-158.75G85X42.03Y-158.75
G05
X41.13Y-161.29G85X42.03Y-161.29
G05
X41.13Y-176.53G85X42.03Y-176.53
G05
X43.67Y-143.51G85X44.57Y-143.51
G05
X43.67Y-158.75G85X44.57Y-158.75
G05
X43.67Y-161.29G85X44.57Y-161.29
G05
X43.67Y-176.53G85X44.57Y-176.53
G05
X46.21Y-143.51G85X47.11Y-143.51
G05
X46.21Y-158.75G85X47.11Y-158.75
G05
X46.21Y-161.29G85X47.11Y-161.29
G05
X46.21Y-176.53G85X47.11Y-176.53
G05
X48.75Y-143.51G85X49.65Y-143.51
G05
X48.75Y-158.75G85X49.65Y-158.75
G05
X48.75Y-161.29G85X49.65Y-161.29
G05
X48.75Y-176.53G85X49.65Y-176.53
G05
X51.29Y-143.51G85X52.19Y-143.51
G05
X51.29Y-158.75G85X52.19Y-158.75
G05
X51.29Y-161.29G85X52.19Y-161.29
G05
X51.29Y-176.53G85X52.19Y-176.53
G05
X53.83Y-143.51G85X54.73Y-143.51
G05
X53.83Y-158.75G85X54.73Y-158.75
G05
X53.83Y-161.29G85X54.73Y-161.29
G05
X53.83Y-176.53G85X54.73Y-176.53
G05
X56.37Y-143.51G85X57.27Y-143.51
G05
X56.37Y-158.75G85X57.27Y-158.75
G05
X56.37Y-161.29G85X57.27Y-161.29
G05
X56.37Y-176.53G85X57.27Y-176.53
G05
X58.91Y-143.51G85X59.81Y-143.51
G05
X58.91Y-158.75G85X59.81Y-158.75
G05
X58.91Y-161.29G85X59.81Y-161.29
G05
X58.91Y-176.53G85X59.81Y-176.53
G05
X61.45Y-143.51G85X62.35Y-143.51
G05
X61.45Y-158.75G85X62.35Y-158.75
G05
X61.45Y-161.29G85X62.35Y-161.29
G05
X61.45Y-176.53G85X62.35Y-176.53
G05
X63.99Y-143.51G85X64.89Y-143.51
G05
X63.99Y-158.75G85X64.89Y-158.75
G05
X63.99Y-161.29G85X64.89Y-161.29
G05
X63.99Y-176.53G85X64.89Y-176.53
G05
X66.53Y-143.51G85X67.43Y-143.51
G05
X66.53Y-158.75G85X67.43Y-158.75
G05
X66.53Y-161.29G85X67.43Y-161.29
G05
X66.53Y-176.53G85X67.43Y-176.53
G05
X69.07Y-143.51G85X69.97Y-143.51
G05
X69.07Y-158.75G85X69.97Y-158.75
G05
X69.07Y-161.29G85X69.97Y-161.29
G05
X69.07Y-176.53G85X69.97Y-176.53
G05
X71.61Y-143.51G85X72.51Y-143.51
G05
X71.61Y-158.75G85X72.51Y-158.75
G05
X71.61Y-161.29G85X72.51Y-161.29
G05
X71.61Y-176.53G85X72.51Y-176.53
G05
X74.15Y-143.51G85X75.05Y-143.51
G05
X74.15Y-158.75G85X75.05Y-158.75
G05
X74.15Y-161.29G85X75.05Y-161.29
G05
X74.15Y-176.53G85X75.05Y-176.53
G05
X76.69Y-143.51G85X77.59Y-143.51
G05
X76.69Y-158.75G85X77.59Y-158.75
G05
X76.69Y-161.29G85X77.59Y-161.29
G05
X76.69Y-176.53G85X77.59Y-176.53
G05
X79.23Y-143.51G85X80.13Y-143.51
G05
X79.23Y-158.75G85X80.13Y-158.75
G05
X79.23Y-161.29G85X80.13Y-161.29
G05
X79.23Y-176.53G85X80.13Y-176.53
G05
X81.77Y-143.51G85X82.67Y-143.51
G05
X81.77Y-158.75G85X82.67Y-158.75
G05
X81.77Y-161.29G85X82.67Y-161.29
G05
X81.77Y-176.53G85X82.67Y-176.53
G05
X84.31Y-143.51G85X85.21Y-143.51
G05
X84.31Y-158.75G85X85.21Y-158.75
G05
X84.31Y-161.29G85X85.21Y-161.29
G05
X84.31Y-176.53G85X85.21Y-176.53
G05
X86.85Y-143.51G85X87.75Y-143.51
G05
X86.85Y-158.75G85X87.75Y-158.75
G05
X86.85Y-161.29G85X87.75Y-161.29
G05
X86.85Y-176.53G85X87.75Y-176.53
G05
X89.39Y-143.51G85X90.29Y-143.51
G05
X89.39Y-158.75G85X90.29Y-158.75
G05
X89.39Y-161.29G85X90.29Y-161.29
G05
X89.39Y-176.53G85X90.29Y-176.53
G05
X91.93Y-143.51G85X92.83Y-143.51
G05
X91.93Y-158.75G85X92.83Y-158.75
G05
X91.93Y-161.29G85X92.83Y-161.29
G05
X91.93Y-176.53G85X92.83Y-176.53
G05
X94.47Y-143.51G85X95.37Y-143.51
G05
X94.47Y-158.75G85X95.37Y-158.75
G05
X94.47Y-161.29G85X95.37Y-161.29
G05
X94.47Y-176.53G85X95.37Y-176.53
G05
X97.01Y-143.51G85X97.91Y-143.51
G05
X97.01Y-158.75G85X97.91Y-158.75
G05
X97.01Y-161.29G85X97.91Y-161.29
G05
X97.01Y-176.53G85X97.91Y-176.53
G05
X99.55Y-143.51G85X100.45Y-143.51
G05
X99.55Y-158.75G85X100.45Y-158.75
G05
X99.55Y-161.29G85X100.45Y-161.29
G05
X99.55Y-176.53G85X100.45Y-176.53
G05
X102.09Y-143.51G85X102.99Y-143.51
G05
X102.09Y-158.75G85X102.99Y-158.75
G05
X102.09Y-161.29G85X102.99Y-161.29
G05
X102.09Y-176.53G85X102.99Y-176.53
G05
X104.63Y-143.51G85X105.53Y-143.51
G05
X104.63Y-158.75G85X105.53Y-158.75
G05
X104.63Y-161.29G85X105.53Y-161.29
G05
X104.63Y-176.53G85X105.53Y-176.53
G05
X107.17Y-143.51G85X108.07Y-143.51
G05
X107.17Y-158.75G85X108.07Y-158.75
G05
X107.17Y-161.29G85X108.07Y-161.29
G05
X107.17Y-176.53G85X108.07Y-176.53
G05
X109.71Y-143.51G85X110.61Y-143.51
G05
X109.71Y-158.75G85X110.61Y-158.75
G05
X109.71Y-161.29G85X110.61Y-161.29
G05
X109.71Y-176.53G85X110.61Y-176.53
G05
X112.25Y-143.51G85X113.15Y-143.51
G05
X112.25Y-158.75G85X113.15Y-158.75
G05
X112.25Y-161.29G85X113.15Y-161.29
G05
X112.25Y-176.53G85X113.15Y-176.53
G05
T6
X37.77Y-135.49G85X37.77Y-136.29
G05
X37.77Y-138.03G85X37.77Y-138.83
G05
X37.77Y-181.21G85X37.77Y-182.01
G05
X37.77Y-183.75G85X37.77Y-184.55
G05
X53.01Y-135.49G85X53.01Y-136.29
G05
X53.01Y-135.49G85X53.01Y-136.29
G05
X53.01Y-138.03G85X53.01Y-138.83
G05
X53.01Y-138.03G85X53.01Y-138.83
G05
X53.01Y-181.21G85X53.01Y-182.01
G05
X53.01Y-181.21G85X53.01Y-182.01
G05
X53.01Y-183.75G85X53.01Y-184.55
G05
X53.01Y-183.75G85X53.01Y-184.55
G05
X68.25Y-135.49G85X68.25Y-136.29
G05
X68.25Y-135.49G85X68.25Y-136.29
G05
X68.25Y-138.03G85X68.25Y-138.83
G05
X68.25Y-138.03G85X68.25Y-138.83
G05
X68.25Y-181.223G85X68.25Y-182.023
G05
X68.25Y-181.223G85X68.25Y-182.023
G05
X68.25Y-183.75G85X68.25Y-184.55
G05
X68.25Y-183.75G85X68.25Y-184.55
G05
X83.49Y-135.49G85X83.49Y-136.29
G05
X83.49Y-135.49G85X83.49Y-136.29
G05
X83.49Y-138.03G85X83.49Y-138.83
G05
X83.49Y-138.03G85X83.49Y-138.83
G05
X83.49Y-181.21G85X83.49Y-182.01
G05
X83.49Y-181.21G85X83.49Y-182.01
G05
X83.49Y-183.75G85X83.49Y-184.55
G05
X83.49Y-183.75G85X83.49Y-184.55
G05
X98.73Y-135.49G85X98.73Y-136.29
G05
X98.73Y-135.49G85X98.73Y-136.29
G05
X98.73Y-138.03G85X98.73Y-138.83
G05
X98.73Y-138.03G85X98.73Y-138.83
G05
X98.73Y-181.21G85X98.73Y-182.01
G05
X98.73Y-181.21G85X98.73Y-182.01
G05
X98.73Y-183.75G85X98.73Y-184.55
G05
X98.73Y-183.75G85X98.73Y-184.55
G05
X113.97Y-135.49G85X113.97Y-136.29
G05
X113.97Y-138.03G85X113.97Y-138.83
G05
X113.97Y-181.21G85X113.97Y-182.01
G05
X113.97Y-183.75G85X113.97Y-184.55
G05
T0
M30
